<?xml version="1.0" standalone="no"?>
<!DOCTYPE svg PUBLIC "-//W3C//DTD SVG 1.1//EN" "http://www.w3.org/Graphics/SVG/1.1/DTD/svg11.dtd">
<svg width="115" height="73" viewBox="-17 -29 115 73" xmlns="http://www.w3.org/2000/svg" version="1.1">
<title>OpenSCAD Model</title>
<path d="
M 78.3902,40.4616 L 78.7654,40.3477 L 79.1111,40.1629 L 79.4142,39.9142 L 79.6629,39.6111 L 79.8477,39.2654
 L 79.9616,38.8902 L 80,38.5 L 80,12.5 L 79.9616,12.1098 L 79.8477,11.7346 L 79.6629,11.3888
 L 79.4142,11.0858 L 79.1111,10.837 L 78.7654,10.6522 L 78.3902,10.5384 L 78,10.5 L 52.875,10.5
 L 52.875,-21 L 52.7237,-22.5363 L 52.2755,-24.0136 L 51.5478,-25.3751 L 50.5685,-26.5685 L 49.3751,-27.5478
 L 48.0136,-28.2755 L 46.5363,-28.7237 L 45,-28.875 L 43.4637,-28.7237 L 41.9864,-28.2755 L 40.6249,-27.5478
 L 39.4315,-26.5685 L 38.4522,-25.3751 L 37.7245,-24.0136 L 37.2763,-22.5363 L 37.125,-21 L 37.125,11
 L 37.2763,12.5363 L 37.7245,14.0136 L 38.4522,15.3751 L 39.4315,16.5685 L 40,17.035 L 40,38.5
 L 40.0384,38.8902 L 40.1523,39.2654 L 40.3371,39.6111 L 40.5858,39.9142 L 40.8889,40.1629 L 41.2346,40.3477
 L 41.6098,40.4616 L 42,40.5 L 78,40.5 z
M 44.8049,-16.0817 L 44.6173,-16.1386 L 44.4444,-16.231 L 44.2929,-16.3554 L 44.1685,-16.5069 L 44.0761,-16.6798
 L 44.0192,-16.8674 L 44,-17.0625 L 44.0192,-17.2576 L 44.0761,-17.4452 L 44.1685,-17.6181 L 44.2929,-17.7696
 L 44.4444,-17.894 L 44.6173,-17.9864 L 44.8049,-18.0433 L 45,-18.0625 L 45.1951,-18.0433 L 45.3827,-17.9864
 L 45.5556,-17.894 L 45.7071,-17.7696 L 45.8315,-17.6181 L 45.9239,-17.4452 L 45.9808,-17.2576 L 46,-17.0625
 L 45.9808,-16.8674 L 45.9239,-16.6798 L 45.8315,-16.5069 L 45.7071,-16.3554 L 45.5556,-16.231 L 45.3827,-16.1386
 L 45.1951,-16.0817 L 45,-16.0625 z
M 40.5,5.25 L 40.5,-15.25 L 49.5,-15.25 L 49.5,5.25 z
M 44.8049,8.04327 L 44.6173,7.98637 L 44.4444,7.89397 L 44.2929,7.76959 L 44.1685,7.61806 L 44.0761,7.44518
 L 44.0192,7.25758 L 44,7.0625 L 44.0192,6.8674 L 44.0761,6.67981 L 44.1685,6.50693 L 44.2929,6.35539
 L 44.4444,6.23102 L 44.6173,6.13861 L 44.8049,6.08171 L 45,6.0625 L 45.1951,6.08171 L 45.3827,6.13861
 L 45.5556,6.23102 L 45.7071,6.35539 L 45.8315,6.50693 L 45.9239,6.67981 L 45.9808,6.8674 L 46,7.0625
 L 45.9808,7.25758 L 45.9239,7.44518 L 45.8315,7.61806 L 45.7071,7.76959 L 45.5556,7.89397 L 45.3827,7.98637
 L 45.1951,8.04327 L 45,8.0625 z
M 67.7074,24.4712 L 67.426,24.3858 L 67.1666,24.2472 L 66.9393,24.0607 L 66.7528,23.8334 L 66.6142,23.574
 L 66.5288,23.2926 L 66.5,23 L 66.5288,22.7074 L 66.6142,22.426 L 66.7528,22.1667 L 66.9393,21.9393
 L 67.1666,21.7528 L 67.426,21.6142 L 67.7074,21.5288 L 68,21.5 L 68.2926,21.5288 L 68.574,21.6142
 L 68.8333,21.7528 L 69.0607,21.9393 L 69.2472,22.1667 L 69.3858,22.426 L 69.4712,22.7074 L 69.5,23
 L 69.4712,23.2926 L 69.3858,23.574 L 69.2472,23.8334 L 69.0607,24.0607 L 68.8333,24.2472 L 68.574,24.3858
 L 68.2926,24.4712 L 68,24.5 z
M 51.7074,24.4712 L 51.426,24.3858 L 51.1667,24.2472 L 50.9393,24.0607 L 50.7528,23.8334 L 50.6142,23.574
 L 50.5288,23.2926 L 50.5,23 L 50.5288,22.7074 L 50.6142,22.426 L 50.7528,22.1667 L 50.9393,21.9393
 L 51.1667,21.7528 L 51.426,21.6142 L 51.7074,21.5288 L 52,21.5 L 52.2926,21.5288 L 52.574,21.6142
 L 52.8334,21.7528 L 53.0607,21.9393 L 53.2472,22.1667 L 53.3858,22.426 L 53.4712,22.7074 L 53.5,23
 L 53.4712,23.2926 L 53.3858,23.574 L 53.2472,23.8334 L 53.0607,24.0607 L 52.8334,24.2472 L 52.574,24.3858
 L 52.2926,24.4712 L 52,24.5 z
M 67.7074,34.4712 L 67.426,34.3858 L 67.1666,34.2472 L 66.9393,34.0607 L 66.7528,33.8333 L 66.6142,33.574
 L 66.5288,33.2926 L 66.5,33 L 66.5288,32.7074 L 66.6142,32.426 L 66.7528,32.1666 L 66.9393,31.9393
 L 67.1666,31.7528 L 67.426,31.6142 L 67.7074,31.5288 L 68,31.5 L 68.2926,31.5288 L 68.574,31.6142
 L 68.8333,31.7528 L 69.0607,31.9393 L 69.2472,32.1666 L 69.3858,32.426 L 69.4712,32.7074 L 69.5,33
 L 69.4712,33.2926 L 69.3858,33.574 L 69.2472,33.8333 L 69.0607,34.0607 L 68.8333,34.2472 L 68.574,34.3858
 L 68.2926,34.4712 L 68,34.5 z
M 51.7074,34.4712 L 51.426,34.3858 L 51.1667,34.2472 L 50.9393,34.0607 L 50.7528,33.8333 L 50.6142,33.574
 L 50.5288,33.2926 L 50.5,33 L 50.5288,32.7074 L 50.6142,32.426 L 50.7528,32.1666 L 50.9393,31.9393
 L 51.1667,31.7528 L 51.426,31.6142 L 51.7074,31.5288 L 52,31.5 L 52.2926,31.5288 L 52.574,31.6142
 L 52.8334,31.7528 L 53.0607,31.9393 L 53.2472,32.1666 L 53.3858,32.426 L 53.4712,32.7074 L 53.5,33
 L 53.4712,33.2926 L 53.3858,33.574 L 53.2472,33.8333 L 53.0607,34.0607 L 52.8334,34.2472 L 52.574,34.3858
 L 52.2926,34.4712 L 52,34.5 z
M 91.5363,43.7237 L 93.0136,43.2755 L 94.3751,42.5478 L 95.5685,41.5685 L 96.5478,40.3751 L 97.2755,39.0136
 L 97.7237,37.5363 L 97.875,36 L 97.875,4.00002 L 97.7237,2.46367 L 97.2755,0.986374 L 96.5478,-0.375107
 L 95.5685,-1.56845 L 95,-2.03497 L 95,-23.5 L 94.9616,-23.8902 L 94.8477,-24.2654 L 94.6629,-24.6111
 L 94.4142,-24.9142 L 94.1111,-25.1629 L 93.7654,-25.3477 L 93.3902,-25.4616 L 93,-25.5 L 57,-25.5
 L 56.6098,-25.4616 L 56.2346,-25.3477 L 55.8889,-25.1629 L 55.5858,-24.9142 L 55.3371,-24.6111 L 55.1523,-24.2654
 L 55.0384,-23.8902 L 55,-23.5 L 55,2.49998 L 55.0384,2.89017 L 55.1523,3.26537 L 55.3371,3.61113
 L 55.5858,3.9142 L 55.8889,4.16293 L 56.2346,4.34775 L 56.6098,4.46156 L 57,4.49998 L 82.125,4.5
 L 82.125,36 L 82.2763,37.5363 L 82.7245,39.0136 L 83.4522,40.3751 L 84.4315,41.5685 L 85.6249,42.5478
 L 86.9864,43.2755 L 88.4637,43.7237 L 90,43.875 z
M 82.7074,-16.5288 L 82.426,-16.6142 L 82.1666,-16.7528 L 81.9393,-16.9393 L 81.7528,-17.1666 L 81.6142,-17.426
 L 81.5288,-17.7074 L 81.5,-18 L 81.5288,-18.2926 L 81.6142,-18.574 L 81.7528,-18.8333 L 81.9393,-19.0607
 L 82.1666,-19.2472 L 82.426,-19.3858 L 82.7074,-19.4712 L 83,-19.5 L 83.2926,-19.4712 L 83.574,-19.3858
 L 83.8333,-19.2472 L 84.0607,-19.0607 L 84.2472,-18.8333 L 84.3858,-18.574 L 84.4712,-18.2926 L 84.5,-18
 L 84.4712,-17.7074 L 84.3858,-17.426 L 84.2472,-17.1666 L 84.0607,-16.9393 L 83.8333,-16.7528 L 83.574,-16.6142
 L 83.2926,-16.5288 L 83,-16.5 z
M 66.7074,-16.5288 L 66.426,-16.6142 L 66.1667,-16.7528 L 65.9393,-16.9393 L 65.7528,-17.1666 L 65.6142,-17.426
 L 65.5288,-17.7074 L 65.5,-18 L 65.5288,-18.2926 L 65.6142,-18.574 L 65.7528,-18.8333 L 65.9393,-19.0607
 L 66.1667,-19.2472 L 66.426,-19.3858 L 66.7074,-19.4712 L 67,-19.5 L 67.2926,-19.4712 L 67.574,-19.3858
 L 67.8334,-19.2472 L 68.0607,-19.0607 L 68.2472,-18.8333 L 68.3858,-18.574 L 68.4712,-18.2926 L 68.5,-18
 L 68.4712,-17.7074 L 68.3858,-17.426 L 68.2472,-17.1666 L 68.0607,-16.9393 L 67.8334,-16.7528 L 67.574,-16.6142
 L 67.2926,-16.5288 L 67,-16.5 z
M 66.7074,-6.52882 L 66.426,-6.61418 L 66.1667,-6.75281 L 65.9393,-6.93935 L 65.7528,-7.16666 L 65.6142,-7.42598
 L 65.5288,-7.70737 L 65.5,-8 L 65.5288,-8.29265 L 65.6142,-8.57404 L 65.7528,-8.83336 L 65.9393,-9.06067
 L 66.1667,-9.24721 L 66.426,-9.38583 L 66.7074,-9.47119 L 67,-9.5 L 67.2926,-9.47119 L 67.574,-9.38583
 L 67.8334,-9.24721 L 68.0607,-9.06067 L 68.2472,-8.83336 L 68.3858,-8.57404 L 68.4712,-8.29265 L 68.5,-8
 L 68.4712,-7.70737 L 68.3858,-7.42598 L 68.2472,-7.16666 L 68.0607,-6.93935 L 67.8334,-6.75281 L 67.574,-6.61418
 L 67.2926,-6.52882 L 67,-6.5 z
M 82.7074,-6.52882 L 82.426,-6.61418 L 82.1666,-6.75281 L 81.9393,-6.93935 L 81.7528,-7.16666 L 81.6142,-7.42598
 L 81.5288,-7.70737 L 81.5,-8 L 81.5288,-8.29265 L 81.6142,-8.57404 L 81.7528,-8.83336 L 81.9393,-9.06067
 L 82.1666,-9.24721 L 82.426,-9.38583 L 82.7074,-9.47119 L 83,-9.5 L 83.2926,-9.47119 L 83.574,-9.38583
 L 83.8333,-9.24721 L 84.0607,-9.06067 L 84.2472,-8.83336 L 84.3858,-8.57404 L 84.4712,-8.29265 L 84.5,-8
 L 84.4712,-7.70737 L 84.3858,-7.42598 L 84.2472,-7.16666 L 84.0607,-6.93935 L 83.8333,-6.75281 L 83.574,-6.61418
 L 83.2926,-6.52882 L 83,-6.5 z
M 89.8049,8.91829 L 89.6173,8.86139 L 89.4444,8.76898 L 89.2929,8.64461 L 89.1685,8.49307 L 89.0761,8.32019
 L 89.0192,8.1326 L 89,7.9375 L 89.0192,7.74242 L 89.0761,7.55482 L 89.1685,7.38194 L 89.2929,7.23041
 L 89.4444,7.10603 L 89.6173,7.01363 L 89.8049,6.95673 L 90,6.9375 L 90.1951,6.95673 L 90.3827,7.01363
 L 90.5556,7.10603 L 90.7071,7.23041 L 90.8315,7.38194 L 90.9239,7.55482 L 90.9808,7.74242 L 91,7.9375
 L 90.9808,8.1326 L 90.9239,8.32019 L 90.8315,8.49307 L 90.7071,8.64461 L 90.5556,8.76898 L 90.3827,8.86139
 L 90.1951,8.91829 L 90,8.9375 z
M 85.5,30.25 L 85.5,9.75 L 94.5,9.75 L 94.5,30.25 z
M 89.8049,33.0433 L 89.6173,32.9864 L 89.4444,32.894 L 89.2929,32.7696 L 89.1685,32.6181 L 89.0761,32.4452
 L 89.0192,32.2576 L 89,32.0625 L 89.0192,31.8674 L 89.0761,31.6798 L 89.1685,31.5069 L 89.2929,31.3554
 L 89.4444,31.231 L 89.6173,31.1386 L 89.8049,31.0817 L 90,31.0625 L 90.1951,31.0817 L 90.3827,31.1386
 L 90.5556,31.231 L 90.7071,31.3554 L 90.8315,31.5069 L 90.9239,31.6798 L 90.9808,31.8674 L 91,32.0625
 L 90.9808,32.2576 L 90.9239,32.4452 L 90.8315,32.6181 L 90.7071,32.7696 L 90.5556,32.894 L 90.3827,32.9864
 L 90.1951,33.0433 L 90,33.0625 z
M 6.48772,-7.54805 L 6.9567,-7.69031 L 7.38892,-7.92134 L 7.76776,-8.23224 L 8.07866,-8.61108 L 14.0046,-17.5
 L 26,-17.5 L 26.4877,-17.548 L 26.9567,-17.6903 L 27.3889,-17.9213 L 27.7678,-18.2322 L 28.0787,-18.6111
 L 28.3097,-19.0433 L 28.452,-19.5123 L 28.5,-20 L 28.452,-20.4877 L 28.3097,-20.9567 L 28.0787,-21.3889
 L 27.7678,-21.7678 L 27.3889,-22.0787 L 26.9567,-22.3097 L 26.4877,-22.452 L 26,-22.5 L 12.6667,-22.5
 L 12.1789,-22.452 L 11.7099,-22.3097 L 11.2777,-22.0787 L 10.8989,-21.7678 L 10.588,-21.3889 L 3.92134,-11.3889
 L 3.69031,-10.9567 L 3.54805,-10.4877 L 3.5,-10 L 3.54805,-9.51228 L 3.69031,-9.0433 L 3.92134,-8.61108
 L 4.23224,-8.23224 L 4.61108,-7.92134 L 5.0433,-7.69031 L 5.51228,-7.54805 L 6,-7.5 z
M 25.8049,-19.0192 L 25.6173,-19.0761 L 25.4444,-19.1685 L 25.2929,-19.2929 L 25.1685,-19.4444 L 25.0761,-19.6173
 L 25.0192,-19.8049 L 25,-20 L 25.0192,-20.1951 L 25.0761,-20.3827 L 25.1685,-20.5556 L 25.2929,-20.7071
 L 25.4444,-20.8315 L 25.6173,-20.9239 L 25.8049,-20.9808 L 26,-21 L 26.1951,-20.9808 L 26.3827,-20.9239
 L 26.5556,-20.8315 L 26.7071,-20.7071 L 26.8315,-20.5556 L 26.9239,-20.3827 L 26.9808,-20.1951 L 27,-20
 L 26.9808,-19.8049 L 26.9239,-19.6173 L 26.8315,-19.4444 L 26.7071,-19.2929 L 26.5556,-19.1685 L 26.3827,-19.0761
 L 26.1951,-19.0192 L 26,-19 z
M 5.80492,-9.01923 L 5.61732,-9.07613 L 5.44444,-9.16853 L 5.29291,-9.29291 L 5.16853,-9.44444 L 5.07613,-9.61732
 L 5.01923,-9.80492 L 5,-10 L 5.01923,-10.1951 L 5.07613,-10.3827 L 5.16853,-10.5556 L 5.29291,-10.7071
 L 5.44444,-10.8315 L 5.61732,-10.9239 L 5.80492,-10.9808 L 6,-11 L 6.19508,-10.9808 L 6.38268,-10.9239
 L 6.55556,-10.8315 L 6.70709,-10.7071 L 6.83147,-10.5556 L 6.92387,-10.3827 L 6.98077,-10.1951 L 7,-10
 L 6.98077,-9.80492 L 6.92387,-9.61732 L 6.83147,-9.44444 L 6.70709,-9.29291 L 6.55556,-9.16853 L 6.38268,-9.07613
 L 6.19508,-9.01923 L 6,-9 z
M 6.48772,4.45195 L 6.9567,4.30969 L 7.38892,4.07866 L 7.76776,3.76776 L 8.07866,3.38892 L 14.0046,-5.5
 L 17.3987,-5.5 L 17.6851,-4.55585 L 18.5168,-2.99986 L 19.636,-1.63603 L 20.9999,-0.516769 L 22.5558,0.314926
 L 24.2442,0.827072 L 26,1 L 27.7558,0.827072 L 29.4441,0.314926 L 31.0001,-0.516769 L 32.364,-1.63603
 L 33.4832,-2.99986 L 34.3149,-4.55585 L 34.8271,-6.24419 L 35,-8 L 34.8271,-9.7558 L 34.3149,-11.4441
 L 33.4832,-13.0001 L 32.364,-14.364 L 31.0001,-15.4832 L 29.4441,-16.3149 L 27.7558,-16.8271 L 26,-17
 L 24.2442,-16.8271 L 22.5558,-16.3149 L 20.9999,-15.4832 L 19.636,-14.364 L 18.5168,-13.0001 L 17.6851,-11.4441
 L 17.3987,-10.5 L 12.6667,-10.5 L 12.1789,-10.452 L 11.7099,-10.3097 L 11.2777,-10.0787 L 10.8989,-9.76776
 L 10.588,-9.38892 L 3.92134,0.611084 L 3.69031,1.0433 L 3.54805,1.51228 L 3.5,2 L 3.54805,2.48772
 L 3.69031,2.9567 L 3.92134,3.38892 L 4.23224,3.76776 L 4.61108,4.07866 L 5.0433,4.30969 L 5.51228,4.45195
 L 6,4.5 z
M 25.9025,-14.3846 L 25.8087,-14.4131 L 25.7222,-14.4593 L 25.6464,-14.5214 L 25.5843,-14.5972 L 25.5381,-14.6837
 L 25.5096,-14.7775 L 25.5,-14.875 L 25.5096,-14.9725 L 25.5381,-15.0663 L 25.5843,-15.1528 L 25.6464,-15.2285
 L 25.7222,-15.2907 L 25.8087,-15.3369 L 25.9025,-15.3654 L 26,-15.375 L 26.0975,-15.3654 L 26.1913,-15.3369
 L 26.2778,-15.2907 L 26.3535,-15.2285 L 26.4157,-15.1528 L 26.4619,-15.0663 L 26.4904,-14.9725 L 26.5,-14.875
 L 26.4904,-14.7775 L 26.4619,-14.6837 L 26.4157,-14.5972 L 26.3535,-14.5214 L 26.2778,-14.4593 L 26.1913,-14.4131
 L 26.0975,-14.3846 L 26,-14.375 z
M 22.4331,-13.4709 L 22.3414,-13.5055 L 22.2581,-13.5572 L 22.1866,-13.6242 L 22.1295,-13.7039 L 22.089,-13.7932
 L 22.0668,-13.8887 L 22.0636,-13.9866 L 22.0795,-14.0833 L 22.1141,-14.1751 L 22.1658,-14.2583 L 22.2328,-14.3298
 L 22.3125,-14.3869 L 22.4018,-14.4274 L 22.4972,-14.4496 L 22.5952,-14.4529 L 22.6919,-14.4369 L 22.7836,-14.4024
 L 22.8669,-14.3506 L 22.9384,-14.2836 L 22.9955,-14.2039 L 23.036,-14.1146 L 23.0582,-14.0192 L 23.0614,-13.9212
 L 23.0455,-13.8245 L 23.0109,-13.7328 L 22.9592,-13.6495 L 22.8922,-13.578 L 22.8125,-13.5209 L 22.7232,-13.4805
 L 22.6278,-13.4582 L 22.5298,-13.455 z
M 29.3722,-13.4582 L 29.2768,-13.4805 L 29.1875,-13.5209 L 29.1078,-13.578 L 29.0408,-13.6495 L 28.9891,-13.7328
 L 28.9545,-13.8245 L 28.9386,-13.9212 L 28.9418,-14.0192 L 28.964,-14.1146 L 29.0045,-14.2039 L 29.0616,-14.2836
 L 29.1331,-14.3506 L 29.2164,-14.4024 L 29.3081,-14.4369 L 29.4048,-14.4529 L 29.5028,-14.4496 L 29.5982,-14.4274
 L 29.6875,-14.3869 L 29.7672,-14.3298 L 29.8342,-14.2583 L 29.8859,-14.1751 L 29.9205,-14.0833 L 29.9364,-13.9866
 L 29.9332,-13.8887 L 29.911,-13.7932 L 29.8705,-13.7039 L 29.8134,-13.6242 L 29.7419,-13.5572 L 29.6586,-13.5055
 L 29.5669,-13.4709 L 29.4702,-13.455 z
M 25.2196,-4.07686 L 24.4693,-4.30447 L 23.7777,-4.67412 L 23.1716,-5.17157 L 22.6741,-5.77771 L 22.3045,-6.46925
 L 22.0769,-7.21964 L 22,-8 L 22.0769,-8.78035 L 22.3045,-9.53073 L 22.6741,-10.2223 L 23.1716,-10.8284
 L 23.7777,-11.3259 L 24.4693,-11.6955 L 25.2196,-11.9231 L 26,-12 L 26.7803,-11.9231 L 27.5307,-11.6955
 L 28.2223,-11.3259 L 28.8284,-10.8284 L 29.3259,-10.2223 L 29.6955,-9.53073 L 29.9231,-8.78035 L 30,-8
 L 29.9231,-7.21964 L 29.6955,-6.46925 L 29.3259,-5.77771 L 28.8284,-5.17157 L 28.2223,-4.67412 L 27.5307,-4.30447
 L 26.7803,-4.07686 L 26,-4 z
M 31.8245,-10.9545 L 31.7328,-10.9891 L 31.6495,-11.0408 L 31.578,-11.1078 L 31.5209,-11.1875 L 31.4805,-11.2768
 L 31.4582,-11.3722 L 31.455,-11.4702 L 31.4709,-11.5669 L 31.5055,-11.6586 L 31.5572,-11.7419 L 31.6242,-11.8134
 L 31.7039,-11.8705 L 31.7932,-11.911 L 31.8887,-11.9332 L 31.9866,-11.9364 L 32.0833,-11.9205 L 32.1751,-11.8859
 L 32.2583,-11.8342 L 32.3298,-11.7672 L 32.3869,-11.6875 L 32.4274,-11.5982 L 32.4496,-11.5028 L 32.4529,-11.4048
 L 32.4369,-11.3081 L 32.4024,-11.2164 L 32.3506,-11.1331 L 32.2836,-11.0616 L 32.2039,-11.0045 L 32.1146,-10.964
 L 32.0192,-10.9418 L 31.9212,-10.9386 z
M 19.9808,-10.9418 L 19.8853,-10.964 L 19.7961,-11.0045 L 19.7164,-11.0616 L 19.6494,-11.1331 L 19.5976,-11.2164
 L 19.5631,-11.3081 L 19.5471,-11.4048 L 19.5503,-11.5028 L 19.5726,-11.5982 L 19.6131,-11.6875 L 19.6702,-11.7672
 L 19.7417,-11.8342 L 19.8249,-11.8859 L 19.9167,-11.9205 L 20.0134,-11.9364 L 20.1113,-11.9332 L 20.2068,-11.911
 L 20.2961,-11.8705 L 20.3757,-11.8134 L 20.4427,-11.7419 L 20.4945,-11.6586 L 20.529,-11.5669 L 20.545,-11.4702
 L 20.5418,-11.3722 L 20.5195,-11.2768 L 20.4791,-11.1875 L 20.422,-11.1078 L 20.3504,-11.0408 L 20.2672,-10.9891
 L 20.1755,-10.9545 L 20.0788,-10.9386 z
M 32.7775,-7.5096 L 32.6837,-7.53806 L 32.5972,-7.58426 L 32.5214,-7.64644 L 32.4593,-7.72221 L 32.4131,-7.80865
 L 32.3846,-7.90245 L 32.375,-8 L 32.3846,-8.09753 L 32.4131,-8.19133 L 32.4593,-8.27777 L 32.5214,-8.35355
 L 32.5972,-8.41573 L 32.6837,-8.46193 L 32.7775,-8.49039 L 32.875,-8.5 L 32.9725,-8.49039 L 33.0663,-8.46193
 L 33.1528,-8.41573 L 33.2285,-8.35355 L 33.2907,-8.27777 L 33.3369,-8.19133 L 33.3654,-8.09753 L 33.375,-8
 L 33.3654,-7.90245 L 33.3369,-7.80865 L 33.2907,-7.72221 L 33.2285,-7.64644 L 33.1528,-7.58426 L 33.0663,-7.53806
 L 32.9725,-7.5096 L 32.875,-7.49998 z
M 19.0275,-7.5096 L 18.9337,-7.53806 L 18.8472,-7.58426 L 18.7714,-7.64644 L 18.7093,-7.72221 L 18.6631,-7.80865
 L 18.6346,-7.90245 L 18.625,-8 L 18.6346,-8.09753 L 18.6631,-8.19133 L 18.7093,-8.27777 L 18.7714,-8.35355
 L 18.8472,-8.41573 L 18.9337,-8.46193 L 19.0275,-8.49039 L 19.125,-8.5 L 19.2225,-8.49039 L 19.3163,-8.46193
 L 19.4028,-8.41573 L 19.4785,-8.35355 L 19.5407,-8.27777 L 19.5869,-8.19133 L 19.6154,-8.09753 L 19.625,-8
 L 19.6154,-7.90245 L 19.5869,-7.80865 L 19.5407,-7.72221 L 19.4785,-7.64644 L 19.4028,-7.58426 L 19.3163,-7.53806
 L 19.2225,-7.5096 L 19.125,-7.5 z
M 19.9167,-4.07953 L 19.8249,-4.11406 L 19.7417,-4.16582 L 19.6702,-4.23282 L 19.6131,-4.31248 L 19.5726,-4.40178
 L 19.5503,-4.49722 L 19.5471,-4.5952 L 19.5631,-4.69189 L 19.5976,-4.78363 L 19.6494,-4.86687 L 19.7164,-4.93842
 L 19.7961,-4.9955 L 19.8853,-5.03596 L 19.9808,-5.05821 L 20.0788,-5.06142 L 20.1755,-5.04546 L 20.2672,-5.01093
 L 20.3504,-4.95917 L 20.422,-4.89217 L 20.4791,-4.81248 L 20.5195,-4.72321 L 20.5418,-4.62776 L 20.545,-4.52979
 L 20.529,-4.43309 L 20.4945,-4.34135 L 20.4427,-4.25812 L 20.3757,-4.18657 L 20.2961,-4.12949 L 20.2068,-4.08902
 L 20.1113,-4.06677 L 20.0134,-4.06357 z
M 31.8887,-4.06677 L 31.7932,-4.08902 L 31.7039,-4.12949 L 31.6242,-4.18657 L 31.5572,-4.25812 L 31.5055,-4.34135
 L 31.4709,-4.43309 L 31.455,-4.52979 L 31.4582,-4.62776 L 31.4805,-4.72321 L 31.5209,-4.81248 L 31.578,-4.89217
 L 31.6495,-4.95917 L 31.7328,-5.01093 L 31.8245,-5.04546 L 31.9212,-5.06142 L 32.0192,-5.05821 L 32.1146,-5.03596
 L 32.2039,-4.9955 L 32.2836,-4.93842 L 32.3506,-4.86687 L 32.4024,-4.78363 L 32.4369,-4.69189 L 32.4529,-4.5952
 L 32.4496,-4.49722 L 32.4274,-4.40178 L 32.3869,-4.31248 L 32.3298,-4.23282 L 32.2583,-4.16582 L 32.1751,-4.11406
 L 32.0833,-4.07953 L 31.9866,-4.06357 z
M 22.4972,-1.55034 L 22.4018,-1.5726 L 22.3125,-1.61305 L 22.2328,-1.67015 L 22.1658,-1.74168 L 22.1141,-1.82492
 L 22.0795,-1.91666 L 22.0636,-2.01337 L 22.0668,-2.11133 L 22.089,-2.20679 L 22.1295,-2.29607 L 22.1866,-2.37575
 L 22.2581,-2.44275 L 22.3414,-2.49451 L 22.4331,-2.52904 L 22.5298,-2.545 L 22.6278,-2.54179 L 22.7232,-2.51953
 L 22.8125,-2.47908 L 22.8922,-2.42198 L 22.9592,-2.35045 L 23.0109,-2.26721 L 23.0455,-2.17548 L 23.0614,-2.07877
 L 23.0582,-1.9808 L 23.036,-1.88535 L 22.9955,-1.79607 L 22.9384,-1.7164 L 22.8669,-1.64938 L 22.7836,-1.59763
 L 22.6919,-1.56311 L 22.5952,-1.54713 z
M 29.3081,-1.56311 L 29.2164,-1.59763 L 29.1331,-1.64938 L 29.0616,-1.7164 L 29.0045,-1.79607 L 28.964,-1.88535
 L 28.9418,-1.9808 L 28.9386,-2.07877 L 28.9545,-2.17548 L 28.9891,-2.26721 L 29.0408,-2.35045 L 29.1078,-2.42198
 L 29.1875,-2.47908 L 29.2768,-2.51953 L 29.3722,-2.54179 L 29.4702,-2.545 L 29.5669,-2.52904 L 29.6586,-2.49451
 L 29.7419,-2.44275 L 29.8134,-2.37575 L 29.8705,-2.29607 L 29.911,-2.20679 L 29.9332,-2.11133 L 29.9364,-2.01337
 L 29.9205,-1.91666 L 29.8859,-1.82492 L 29.8342,-1.74168 L 29.7672,-1.67015 L 29.6875,-1.61305 L 29.5982,-1.5726
 L 29.5028,-1.55034 L 29.4048,-1.54713 z
M 25.9025,-0.634598 L 25.8087,-0.663055 L 25.7222,-0.709259 L 25.6464,-0.771439 L 25.5843,-0.847214 L 25.5381,-0.933655
 L 25.5096,-1.02745 L 25.5,-1.125 L 25.5096,-1.22253 L 25.5381,-1.31633 L 25.5843,-1.40277 L 25.6464,-1.47855
 L 25.7222,-1.54073 L 25.8087,-1.58693 L 25.9025,-1.61539 L 26,-1.625 L 26.0975,-1.61539 L 26.1913,-1.58693
 L 26.2778,-1.54073 L 26.3535,-1.47855 L 26.4157,-1.40277 L 26.4619,-1.31633 L 26.4904,-1.22253 L 26.5,-1.125
 L 26.4904,-1.02745 L 26.4619,-0.933655 L 26.4157,-0.847214 L 26.3535,-0.771439 L 26.2778,-0.709259 L 26.1913,-0.663055
 L 26.0975,-0.634598 L 26,-0.625 z
M 5.80492,2.98077 L 5.61732,2.92387 L 5.44444,2.83147 L 5.29291,2.70709 L 5.16853,2.55556 L 5.07613,2.38268
 L 5.01923,2.19508 L 5,2 L 5.01923,1.80492 L 5.07613,1.61732 L 5.16853,1.44444 L 5.29291,1.29291
 L 5.44444,1.16853 L 5.61732,1.07613 L 5.80492,1.01923 L 6,1 L 6.19508,1.01923 L 6.38268,1.07613
 L 6.55556,1.16853 L 6.70709,1.29291 L 6.83147,1.44444 L 6.92387,1.61732 L 6.98077,1.80492 L 7,2
 L 6.98077,2.19508 L 6.92387,2.38268 L 6.83147,2.55556 L 6.70709,2.70709 L 6.55556,2.83147 L 6.38268,2.92387
 L 6.19508,2.98077 L 6,3 z
M -9.5,19.3133 L -3.02118,10 L -2.5,10 L -2.45195,10.4877 L -2.30969,10.9567 L -2.07866,11.3889
 L -1.76776,11.7678 L -1.38892,12.0787 L -0.956696,12.3097 L -0.487717,12.452 L 0,12.5 L 0.487717,12.452
 L 0.956696,12.3097 L 1.38892,12.0787 L 1.76776,11.7678 L 2.07866,11.3889 L 2.30969,10.9567 L 2.45195,10.4877
 L 2.5,10 L 2.45195,9.51227 L 2.30969,9.04329 L 2.07866,8.61107 L 1.76776,8.23222 L 1.38892,7.92133
 L 0.956696,7.69029 L 0.487717,7.54803 L 0,7.5 L 0,-7.5 L 0.487717,-7.54803 L 0.956696,-7.69029
 L 1.38892,-7.92133 L 1.76776,-8.23222 L 2.07866,-8.61107 L 2.30969,-9.04329 L 2.45195,-9.51227 L 2.5,-10
 L 2.45195,-10.4877 L 2.30969,-10.9567 L 2.07866,-11.3889 L 1.76776,-11.7678 L 1.38892,-12.0787 L 0.956696,-12.3097
 L 0.487717,-12.452 L 0,-12.5 L -0.487717,-12.452 L -0.956696,-12.3097 L -1.38892,-12.0787 L -1.76776,-11.7678
 L -2.07866,-11.3889 L -2.30969,-10.9567 L -2.45195,-10.4877 L -2.5,-10 L -5,-10 L -5,9.34294
 L -11.3315,18.4444 L -11.4239,18.6173 L -11.4808,18.8049 L -11.5,19 L -11.5,23 L -14.5,23
 L -14.8902,23.0384 L -15.2654,23.1522 L -15.6111,23.3371 L -15.9142,23.5858 L -16.1629,23.8889 L -16.3477,24.2346
 L -16.4616,24.6098 L -16.5,25 L -16.4616,25.3902 L -16.3477,25.7654 L -16.1629,26.1111 L -15.9142,26.4142
 L -15.6111,26.6629 L -15.2654,26.8477 L -14.8902,26.9616 L -14.5,27 L -9.5,27 z
M -0.195084,-9.01921 L -0.382675,-9.07611 L -0.555557,-9.16852 L -0.707092,-9.29289 L -0.831467,-9.44443 L -0.923874,-9.61731
 L -0.980774,-9.8049 L -1,-10 L -0.980774,-10.1951 L -0.923874,-10.3827 L -0.831467,-10.5556 L -0.707092,-10.7071
 L -0.555557,-10.8315 L -0.382675,-10.9239 L -0.195084,-10.9808 L 0,-11 L 0.195084,-10.9808 L 0.382675,-10.9239
 L 0.555557,-10.8315 L 0.707092,-10.7071 L 0.831467,-10.5556 L 0.923874,-10.3827 L 0.980774,-10.1951 L 1,-10
 L 0.980774,-9.8049 L 0.923874,-9.61731 L 0.831467,-9.44443 L 0.707092,-9.29289 L 0.555557,-9.16852 L 0.382675,-9.07611
 L 0.195084,-9.01921 L 0,-9 z
M -2.69508,-4.01921 L -2.88268,-4.07611 L -3.05556,-4.16852 L -3.20709,-4.29289 L -3.33147,-4.44443 L -3.42387,-4.61731
 L -3.48077,-4.8049 L -3.5,-5 L -3.48077,-5.19508 L -3.42387,-5.38268 L -3.33147,-5.55556 L -3.20709,-5.70709
 L -3.05556,-5.83147 L -2.88268,-5.92387 L -2.69508,-5.98077 L -2.5,-6 L -2.3049,-5.98077 L -2.11731,-5.92387
 L -1.94443,-5.83147 L -1.79289,-5.70709 L -1.66852,-5.55556 L -1.57611,-5.38268 L -1.51921,-5.19508 L -1.5,-5
 L -1.51921,-4.8049 L -1.57611,-4.61731 L -1.66852,-4.44443 L -1.79289,-4.29289 L -1.94443,-4.16852 L -2.11731,-4.07611
 L -2.3049,-4.01921 L -2.5,-4 z
M -2.69508,5.98077 L -2.88268,5.92387 L -3.05556,5.83147 L -3.20709,5.70709 L -3.33147,5.55556 L -3.42387,5.38268
 L -3.48077,5.19508 L -3.5,5 L -3.48077,4.8049 L -3.42387,4.61731 L -3.33147,4.44443 L -3.20709,4.29289
 L -3.05556,4.16852 L -2.88268,4.07611 L -2.69508,4.01921 L -2.5,4 L -2.3049,4.01921 L -2.11731,4.07611
 L -1.94443,4.16852 L -1.79289,4.29289 L -1.66852,4.44443 L -1.57611,4.61731 L -1.51921,4.8049 L -1.5,5
 L -1.51921,5.19508 L -1.57611,5.38268 L -1.66852,5.55556 L -1.79289,5.70709 L -1.94443,5.83147 L -2.11731,5.92387
 L -2.3049,5.98077 L -2.5,6 z
M -0.195084,10.9808 L -0.382675,10.9239 L -0.555557,10.8315 L -0.707092,10.7071 L -0.831467,10.5556 L -0.923874,10.3827
 L -0.980774,10.1951 L -1,10 L -0.980774,9.8049 L -0.923874,9.61731 L -0.831467,9.44443 L -0.707092,9.29289
 L -0.555557,9.16852 L -0.382675,9.07611 L -0.195084,9.01921 L 0,9 L 0.195084,9.01921 L 0.382675,9.07611
 L 0.555557,9.16852 L 0.707092,9.29289 L 0.831467,9.44443 L 0.923874,9.61731 L 0.980774,9.8049 L 1,10
 L 0.980774,10.1951 L 0.923874,10.3827 L 0.831467,10.5556 L 0.707092,10.7071 L 0.555557,10.8315 L 0.382675,10.9239
 L 0.195084,10.9808 L 0,11 z
M -12.1951,25.9808 L -12.3827,25.9239 L -12.5556,25.8315 L -12.7071,25.7071 L -12.8315,25.5556 L -12.9239,25.3827
 L -12.9808,25.1951 L -13,25 L -12.9808,24.8049 L -12.9239,24.6173 L -12.8315,24.4444 L -12.7071,24.2929
 L -12.5556,24.1685 L -12.3827,24.0761 L -12.1951,24.0192 L -12,24 L -11.8049,24.0192 L -11.6173,24.0761
 L -11.4444,24.1685 L -11.2929,24.2929 L -11.1685,24.4444 L -11.0761,24.6173 L -11.0192,24.8049 L -11,25
 L -11.0192,25.1951 L -11.0761,25.3827 L -11.1685,25.5556 L -11.2929,25.7071 L -11.4444,25.8315 L -11.6173,25.9239
 L -11.8049,25.9808 L -12,26 z
M 12.4877,28.952 L 12.9567,28.8097 L 13.3889,28.5787 L 13.7678,28.2678 L 14.0787,27.8889 L 14.3097,27.4567
 L 14.452,26.9877 L 14.5,26.5 L 14.5,24 L 14.4619,23.6129 L 15.4441,23.3149 L 17.0001,22.4832
 L 18.364,21.364 L 19.4832,20.0001 L 20.3149,18.4441 L 20.6129,17.4619 L 21,17.5 L 23.5,17.5
 L 23.9877,17.452 L 24.4567,17.3097 L 24.8889,17.0787 L 25.2678,16.7678 L 25.5787,16.3889 L 25.8097,15.9567
 L 25.952,15.4877 L 26,15 L 25.952,14.5123 L 25.8097,14.0433 L 25.5787,13.6111 L 25.2678,13.2322
 L 24.8889,12.9213 L 24.4567,12.6903 L 23.9877,12.548 L 23.5,12.5 L 21,12.5 L 20.6129,12.5381
 L 20.3149,11.5559 L 19.4832,9.99988 L 18.364,8.63605 L 17.0001,7.51678 L 15.4441,6.68509 L 14.4619,6.38712
 L 14.5,6 L 14.5,3.5 L 14.452,3.01228 L 14.3097,2.5433 L 14.0787,2.11108 L 13.7678,1.73224
 L 13.3889,1.42134 L 12.9567,1.19031 L 12.4877,1.04805 L 12,1 L 11.5123,1.04805 L 11.0433,1.19031
 L 10.6111,1.42134 L 10.2322,1.73224 L 9.92133,2.11108 L 9.69029,2.5433 L 9.54803,3.01228 L 9.5,3.5
 L 9.5,6 L 9.53813,6.38712 L 8.55585,6.68509 L 6.99986,7.51678 L 5.63603,8.63605 L 4.51677,9.99988
 L 3.68507,11.5559 L 3.39868,12.5 L 2,12.5 L 1.51228,12.548 L 1.0433,12.6903 L 0.611084,12.9213
 L 0.232239,13.2322 L -0.0786591,13.6111 L -0.309692,14.0433 L -0.45195,14.5123 L -0.5,15 L -0.45195,15.4877
 L -0.309692,15.9567 L -0.0786591,16.3889 L 0.232239,16.7678 L 0.611084,17.0787 L 1.0433,17.3097 L 1.51228,17.452
 L 2,17.5 L 3.39868,17.5 L 3.68507,18.4441 L 4.51677,20.0001 L 5.63603,21.364 L 6.99986,22.4832
 L 8.55585,23.3149 L 9.53813,23.6129 L 9.5,24 L 9.5,26.5 L 9.54803,26.9877 L 9.69029,27.4567
 L 9.92133,27.8889 L 10.2322,28.2678 L 10.6111,28.5787 L 11.0433,28.8097 L 11.5123,28.952 L 12,29
 z
M 11.8049,4.48079 L 11.6173,4.42389 L 11.4444,4.33148 L 11.2929,4.20711 L 11.1685,4.05557 L 11.0761,3.88269
 L 11.0192,3.6951 L 11,3.5 L 11.0192,3.30492 L 11.0761,3.11732 L 11.1685,2.94444 L 11.2929,2.79291
 L 11.4444,2.66853 L 11.6173,2.57613 L 11.8049,2.51923 L 12,2.5 L 12.1951,2.51923 L 12.3827,2.57613
 L 12.5556,2.66853 L 12.7071,2.79291 L 12.8315,2.94444 L 12.9239,3.11732 L 12.9808,3.30492 L 13,3.5
 L 12.9808,3.6951 L 12.9239,3.88269 L 12.8315,4.05557 L 12.7071,4.20711 L 12.5556,4.33148 L 12.3827,4.42389
 L 12.1951,4.48079 L 12,4.5 z
M 11.9025,8.6154 L 11.8087,8.58694 L 11.7222,8.54074 L 11.6464,8.47856 L 11.5843,8.40279 L 11.5381,8.31635
 L 11.5096,8.22255 L 11.5,8.125 L 11.5096,8.02747 L 11.5381,7.93367 L 11.5843,7.84723 L 11.6464,7.77145
 L 11.7222,7.70927 L 11.8087,7.66307 L 11.9025,7.63461 L 12,7.625 L 12.0975,7.63461 L 12.1913,7.66307
 L 12.2778,7.70927 L 12.3535,7.77145 L 12.4157,7.84723 L 12.4619,7.93367 L 12.4904,8.02747 L 12.5,8.125
 L 12.4904,8.22255 L 12.4619,8.31635 L 12.4157,8.40279 L 12.3535,8.47856 L 12.2778,8.54074 L 12.1913,8.58694
 L 12.0975,8.6154 L 12,8.625 z
M 8.43309,9.52905 L 8.34135,9.49452 L 8.25812,9.44276 L 8.18657,9.37576 L 8.12949,9.29608 L 8.08902,9.2068
 L 8.06677,9.11134 L 8.06357,9.01338 L 8.07953,8.91667 L 8.11406,8.82494 L 8.16582,8.7417 L 8.23282,8.67017
 L 8.3125,8.61307 L 8.40178,8.57262 L 8.49722,8.55035 L 8.5952,8.54715 L 8.69189,8.56313 L 8.78363,8.59764
 L 8.86687,8.6494 L 8.93842,8.71642 L 8.9955,8.79608 L 9.03596,8.88536 L 9.05821,8.98082 L 9.06142,9.07878
 L 9.04546,9.17549 L 9.01093,9.26723 L 8.95917,9.35046 L 8.89217,9.422 L 8.8125,9.4791 L 8.72321,9.51955
 L 8.62776,9.54181 L 8.52979,9.54501 z
M 15.3722,9.54181 L 15.2768,9.51955 L 15.1875,9.4791 L 15.1078,9.422 L 15.0408,9.35046 L 14.9891,9.26723
 L 14.9545,9.17549 L 14.9386,9.07878 L 14.9418,8.98082 L 14.964,8.88536 L 15.0045,8.79608 L 15.0616,8.71642
 L 15.1331,8.6494 L 15.2164,8.59764 L 15.3081,8.56313 L 15.4048,8.54715 L 15.5028,8.55035 L 15.5982,8.57262
 L 15.6875,8.61307 L 15.7672,8.67017 L 15.8342,8.7417 L 15.8859,8.82494 L 15.9205,8.91667 L 15.9364,9.01338
 L 15.9332,9.11134 L 15.911,9.2068 L 15.8705,9.29608 L 15.8134,9.37576 L 15.7419,9.44276 L 15.6586,9.49452
 L 15.5669,9.52905 L 15.4702,9.54501 z
M 11.2196,18.9231 L 10.4693,18.6955 L 9.77771,18.3259 L 9.17157,17.8284 L 8.67412,17.2223 L 8.30447,16.5307
 L 8.07686,15.7803 L 8,15 L 8.07686,14.2197 L 8.30447,13.4693 L 8.67412,12.7777 L 9.17157,12.1716
 L 9.77771,11.6741 L 10.4693,11.3045 L 11.2196,11.0769 L 12,11 L 12.7803,11.0769 L 13.5307,11.3045
 L 14.2223,11.6741 L 14.8284,12.1716 L 15.3259,12.7777 L 15.6955,13.4693 L 15.9231,14.2197 L 16,15
 L 15.9231,15.7803 L 15.6955,16.5307 L 15.3259,17.2223 L 14.8284,17.8284 L 14.2223,18.3259 L 13.5307,18.6955
 L 12.7803,18.9231 L 12,19 z
M 17.8245,12.0455 L 17.7328,12.0109 L 17.6495,11.9592 L 17.578,11.8922 L 17.5209,11.8125 L 17.4805,11.7232
 L 17.4582,11.6278 L 17.455,11.5298 L 17.4709,11.4331 L 17.5055,11.3414 L 17.5572,11.2581 L 17.6242,11.1866
 L 17.7039,11.1295 L 17.7932,11.089 L 17.8887,11.0668 L 17.9866,11.0636 L 18.0833,11.0795 L 18.1751,11.1141
 L 18.2583,11.1658 L 18.3298,11.2328 L 18.3869,11.3125 L 18.4274,11.4018 L 18.4496,11.4972 L 18.4529,11.5952
 L 18.4369,11.6919 L 18.4024,11.7836 L 18.3506,11.8669 L 18.2836,11.9384 L 18.2039,11.9955 L 18.1146,12.036
 L 18.0192,12.0582 L 17.9212,12.0614 z
M 5.9808,12.0582 L 5.88535,12.036 L 5.79607,11.9955 L 5.7164,11.9384 L 5.64938,11.8669 L 5.59763,11.7836
 L 5.56311,11.6919 L 5.54713,11.5952 L 5.55034,11.4972 L 5.5726,11.4018 L 5.61305,11.3125 L 5.67015,11.2328
 L 5.74168,11.1658 L 5.82492,11.1141 L 5.91666,11.0795 L 6.01337,11.0636 L 6.11133,11.0668 L 6.20679,11.089
 L 6.29607,11.1295 L 6.37575,11.1866 L 6.44275,11.2581 L 6.49451,11.3414 L 6.52904,11.4331 L 6.545,11.5298
 L 6.54179,11.6278 L 6.51953,11.7232 L 6.47908,11.8125 L 6.42198,11.8922 L 6.35045,11.9592 L 6.26721,12.0109
 L 6.17548,12.0455 L 6.07877,12.0614 z
M 23.3049,15.9808 L 23.1173,15.9239 L 22.9444,15.8315 L 22.7929,15.7071 L 22.6685,15.5556 L 22.5761,15.3827
 L 22.5192,15.1951 L 22.5,15 L 22.5192,14.8049 L 22.5761,14.6173 L 22.6685,14.4444 L 22.7929,14.2929
 L 22.9444,14.1685 L 23.1173,14.0761 L 23.3049,14.0192 L 23.5,14 L 23.6951,14.0192 L 23.8827,14.0761
 L 24.0556,14.1685 L 24.2071,14.2929 L 24.3315,14.4444 L 24.4239,14.6173 L 24.4808,14.8049 L 24.5,15
 L 24.4808,15.1951 L 24.4239,15.3827 L 24.3315,15.5556 L 24.2071,15.7071 L 24.0556,15.8315 L 23.8827,15.9239
 L 23.6951,15.9808 L 23.5,16 z
M 1.80492,15.9808 L 1.61732,15.9239 L 1.44444,15.8315 L 1.29291,15.7071 L 1.16853,15.5556 L 1.07613,15.3827
 L 1.01923,15.1951 L 1,15 L 1.01923,14.8049 L 1.07613,14.6173 L 1.16853,14.4444 L 1.29291,14.2929
 L 1.44444,14.1685 L 1.61732,14.0761 L 1.80492,14.0192 L 2,14 L 2.19508,14.0192 L 2.38268,14.0761
 L 2.55556,14.1685 L 2.70709,14.2929 L 2.83147,14.4444 L 2.92387,14.6173 L 2.98077,14.8049 L 3,15
 L 2.98077,15.1951 L 2.92387,15.3827 L 2.83147,15.5556 L 2.70709,15.7071 L 2.55556,15.8315 L 2.38268,15.9239
 L 2.19508,15.9808 L 2,16 z
M 5.02745,15.4904 L 4.93365,15.4619 L 4.84721,15.4157 L 4.77144,15.3535 L 4.70926,15.2778 L 4.66306,15.1913
 L 4.6346,15.0975 L 4.625,15 L 4.6346,14.9025 L 4.66306,14.8087 L 4.70926,14.7222 L 4.77144,14.6465
 L 4.84721,14.5843 L 4.93365,14.5381 L 5.02745,14.5096 L 5.125,14.5 L 5.22253,14.5096 L 5.31633,14.5381
 L 5.40277,14.5843 L 5.47855,14.6465 L 5.54073,14.7222 L 5.58693,14.8087 L 5.61539,14.9025 L 5.625,15
 L 5.61539,15.0975 L 5.58693,15.1913 L 5.54073,15.2778 L 5.47855,15.3535 L 5.40277,15.4157 L 5.31633,15.4619
 L 5.22253,15.4904 L 5.125,15.5 z
M 18.7775,15.4904 L 18.6837,15.4619 L 18.5972,15.4157 L 18.5214,15.3535 L 18.4593,15.2778 L 18.4131,15.1913
 L 18.3846,15.0975 L 18.375,15 L 18.3846,14.9025 L 18.4131,14.8087 L 18.4593,14.7222 L 18.5214,14.6465
 L 18.5972,14.5843 L 18.6837,14.5381 L 18.7775,14.5096 L 18.875,14.5 L 18.9725,14.5096 L 19.0663,14.5381
 L 19.1528,14.5843 L 19.2285,14.6465 L 19.2907,14.7222 L 19.3369,14.8087 L 19.3654,14.9025 L 19.375,15
 L 19.3654,15.0975 L 19.3369,15.1913 L 19.2907,15.2778 L 19.2285,15.3535 L 19.1528,15.4157 L 19.0663,15.4619
 L 18.9725,15.4904 L 18.875,15.5 z
M 17.8887,18.9332 L 17.7932,18.911 L 17.7039,18.8705 L 17.6242,18.8134 L 17.5572,18.7419 L 17.5055,18.6586
 L 17.4709,18.5669 L 17.455,18.4702 L 17.4582,18.3722 L 17.4805,18.2768 L 17.5209,18.1875 L 17.578,18.1078
 L 17.6495,18.0408 L 17.7328,17.9891 L 17.8245,17.9545 L 17.9212,17.9386 L 18.0192,17.9418 L 18.1146,17.964
 L 18.2039,18.0045 L 18.2836,18.0616 L 18.3506,18.1331 L 18.4024,18.2164 L 18.4369,18.3081 L 18.4529,18.4048
 L 18.4496,18.5028 L 18.4274,18.5982 L 18.3869,18.6875 L 18.3298,18.7672 L 18.2583,18.8342 L 18.1751,18.8859
 L 18.0833,18.9205 L 17.9866,18.9364 z
M 5.91666,18.9205 L 5.82492,18.8859 L 5.74168,18.8342 L 5.67015,18.7672 L 5.61305,18.6875 L 5.5726,18.5982
 L 5.55034,18.5028 L 5.54713,18.4048 L 5.56311,18.3081 L 5.59763,18.2164 L 5.64938,18.1331 L 5.7164,18.0616
 L 5.79607,18.0045 L 5.88535,17.964 L 5.9808,17.9418 L 6.07877,17.9386 L 6.17548,17.9545 L 6.26721,17.9891
 L 6.35045,18.0408 L 6.42198,18.1078 L 6.47908,18.1875 L 6.51953,18.2768 L 6.54179,18.3722 L 6.545,18.4702
 L 6.52904,18.5669 L 6.49451,18.6586 L 6.44275,18.7419 L 6.37575,18.8134 L 6.29607,18.8705 L 6.20679,18.911
 L 6.11133,18.9332 L 6.01337,18.9364 z
M 15.3081,21.4369 L 15.2164,21.4024 L 15.1331,21.3506 L 15.0616,21.2836 L 15.0045,21.2039 L 14.964,21.1146
 L 14.9418,21.0192 L 14.9386,20.9212 L 14.9545,20.8245 L 14.9891,20.7328 L 15.0408,20.6495 L 15.1078,20.578
 L 15.1875,20.5209 L 15.2768,20.4805 L 15.3722,20.4582 L 15.4702,20.455 L 15.5669,20.4709 L 15.6586,20.5055
 L 15.7419,20.5572 L 15.8134,20.6242 L 15.8705,20.7039 L 15.911,20.7932 L 15.9332,20.8887 L 15.9364,20.9866
 L 15.9205,21.0833 L 15.8859,21.1751 L 15.8342,21.2583 L 15.7672,21.3298 L 15.6875,21.3869 L 15.5982,21.4274
 L 15.5028,21.4496 L 15.4048,21.4529 z
M 8.49722,21.4496 L 8.40178,21.4274 L 8.31248,21.3869 L 8.23282,21.3298 L 8.16582,21.2583 L 8.11406,21.1751
 L 8.07953,21.0833 L 8.06357,20.9866 L 8.06677,20.8887 L 8.08902,20.7932 L 8.12949,20.7039 L 8.18657,20.6242
 L 8.25812,20.5572 L 8.34135,20.5055 L 8.43309,20.4709 L 8.52979,20.455 L 8.62776,20.4582 L 8.72321,20.4805
 L 8.81248,20.5209 L 8.89217,20.578 L 8.95917,20.6495 L 9.01093,20.7328 L 9.04546,20.8245 L 9.06142,20.9212
 L 9.05821,21.0192 L 9.03596,21.1146 L 8.9955,21.2039 L 8.93842,21.2836 L 8.86687,21.3506 L 8.78363,21.4024
 L 8.69189,21.4369 L 8.5952,21.4529 z
M 11.9025,22.3654 L 11.8087,22.3369 L 11.7222,22.2907 L 11.6464,22.2285 L 11.5843,22.1528 L 11.5381,22.0663
 L 11.5096,21.9725 L 11.5,21.875 L 11.5096,21.7775 L 11.5381,21.6837 L 11.5843,21.5972 L 11.6464,21.5214
 L 11.7222,21.4593 L 11.8087,21.4131 L 11.9025,21.3846 L 12,21.375 L 12.0975,21.3846 L 12.1913,21.4131
 L 12.2778,21.4593 L 12.3535,21.5214 L 12.4157,21.5972 L 12.4619,21.6837 L 12.4904,21.7775 L 12.5,21.875
 L 12.4904,21.9725 L 12.4619,22.0663 L 12.4157,22.1528 L 12.3535,22.2285 L 12.2778,22.2907 L 12.1913,22.3369
 L 12.0975,22.3654 L 12,22.375 z
M 11.8049,27.4808 L 11.6173,27.4239 L 11.4444,27.3315 L 11.2929,27.2071 L 11.1685,27.0556 L 11.0761,26.8827
 L 11.0192,26.6951 L 11,26.5 L 11.0192,26.3049 L 11.0761,26.1173 L 11.1685,25.9444 L 11.2929,25.7929
 L 11.4444,25.6685 L 11.6173,25.5761 L 11.8049,25.5192 L 12,25.5 L 12.1951,25.5192 L 12.3827,25.5761
 L 12.5556,25.6685 L 12.7071,25.7929 L 12.8315,25.9444 L 12.9239,26.1173 L 12.9808,26.3049 L 13,26.5
 L 12.9808,26.6951 L 12.9239,26.8827 L 12.8315,27.0556 L 12.7071,27.2071 L 12.5556,27.3315 L 12.3827,27.4239
 L 12.1951,27.4808 L 12,27.5 z
" stroke="black" fill="none" stroke-width="0.5"/></svg>
