G04 ( created by brdgerber.py ( brdgerber.py v0.1 2014-03-12 ) ) date 2021-11-30 02:51:56 EST*
G04 Gerber Fmt 3.4, Leading zero omitted, Abs format*
%MOIN*%
%FSLAX34Y34*%
G01*
G70*
G90*
G04 APERTURE LIST*
%ADD28R,0.0472X0.0216*%
%ADD19C,0.0031*%
%ADD17C,0.0047*%
%ADD11C,0.0050*%
%ADD13R,0.0866X0.0236*%
%ADD24C,0.0100*%
%ADD16R,0.0394X0.0315*%
%ADD25C,0.0150*%
%ADD14C,0.0080*%
%ADD30C,0.0200*%
%ADD22C,0.0120*%
%ADD23C,0.1600*%
%ADD10R,0.0709X0.0629*%
%ADD20R,0.0550X0.0550*%
%ADD21C,0.0550*%
%ADD15R,0.0629X0.0709*%
%ADD29R,0.0657X0.0614*%
%ADD27C,0.0472*%
%ADD26R,0.0600X0.0800*%
%ADD12C,0.0060*%
%ADD18C,0.0039*%
G04 APERTURE END LIST*
G54D28*
D10*
X-09900Y-00991D03*
D10*
X-09900Y-02109D03*
D13*
X-12473Y02650D03*
D13*
X-10427Y02650D03*
D13*
X-12473Y03150D03*
D13*
X-12473Y02150D03*
D13*
X-12473Y01650D03*
D13*
X-10427Y03150D03*
D13*
X-10427Y02150D03*
D13*
X-10427Y01650D03*
D15*
X-11909Y00050D03*
D15*
X-10791Y00050D03*
D16*
X-08067Y01900D03*
D16*
X-08933Y01525D03*
D16*
X-08933Y02275D03*
D15*
X-09159Y03250D03*
D15*
X-08041Y03250D03*
D20*
X-03500Y03350D03*
D21*
X-03500Y02350D03*
D10*
X-11450Y-00991D03*
D10*
X-11450Y-02109D03*
D20*
X-03500Y00850D03*
D21*
X-03500Y-00150D03*
D21*
X-03500Y-01150D03*
D23*
X-02000Y-03000D03*
D23*
X-02000Y05000D03*
D23*
X-14000Y05000D03*
D23*
X-14000Y-03000D03*
D22*
G01X-10800Y00050D02*
G01X-10800Y00750D01*
D22*
G01X-10800Y00750D02*
G01X-11150Y01100D01*
D22*
G01X-11150Y01100D02*
G01X-11150Y03050D01*
D22*
G01X-11150Y03050D02*
G01X-11050Y03150D01*
D22*
G01X-11050Y03150D02*
G01X-10450Y03150D01*
D22*
G01X-10450Y03150D02*
G01X-10100Y03150D01*
D26*
X-08500Y-02850D03*
D26*
X-07200Y-02850D03*
D27*
X-09600Y02350D03*
D22*
G01X-10450Y01650D02*
G01X-09100Y01650D01*
D22*
G01X-11450Y-00400D02*
G01X-11900Y00050D01*
D10*
X-05800Y00491D03*
D10*
X-05800Y01609D03*
D22*
G01X-11450Y-01000D02*
G01X-11450Y-00400D01*
D22*
G01X-08950Y02350D02*
G01X-08050Y03250D01*
D22*
G01X-08950Y02250D02*
G01X-08950Y02350D01*
D28*
X-07539Y-00974D03*
D28*
X-07539Y-00600D03*
D28*
X-07539Y-00226D03*
D28*
X-08561Y-00226D03*
D28*
X-08561Y-00974D03*
D10*
X-05800Y02641D03*
D10*
X-05800Y03759D03*
D22*
G01X-11900Y00050D02*
G01X-11900Y01100D01*
D22*
G01X-11900Y01100D02*
G01X-12450Y01650D01*
D22*
G01X-09100Y01650D02*
G01X-08950Y01500D01*
D29*
X-05500Y-00576D03*
D29*
X-05500Y-02124D03*
D22*
G01X-09600Y02650D02*
G01X-09600Y02350D01*
D22*
G01X-10100Y03150D02*
G01X-09600Y02650D01*
D20*
X-13950Y01550D03*
D21*
X-13950Y00550D03*
D22*
G01X-13950Y00550D02*
G01X-13550Y00550D01*
D22*
G01X-13550Y00550D02*
G01X-12450Y01650D01*
D27*
X-12450Y-02750D03*
D22*
G01X-12450Y-02750D02*
G01X-12450Y-02900D01*
D22*
G01X-12450Y-02900D02*
G01X-12400Y-02950D01*
D22*
G01X-12400Y-02950D02*
G01X-10750Y-02950D01*
D22*
G01X-10750Y-02950D02*
G01X-09900Y-02100D01*
D22*
G01X-09900Y-02100D02*
G01X-09250Y-02100D01*
D22*
G01X-08500Y-01000D02*
G01X-08550Y-00950D01*
D22*
G01X-08500Y-02850D02*
G01X-08500Y-01000D01*
D22*
G01X-04950Y-00600D02*
G01X-04800Y-00450D01*
D22*
G01X-09250Y-02100D02*
G01X-08500Y-02850D01*
D22*
G01X-04850Y-00500D02*
G01X-03500Y00850D01*
D22*
G01X-05800Y03750D02*
G01X-03900Y03750D01*
D22*
G01X-03900Y03750D02*
G01X-03500Y03350D01*
D22*
G01X-05800Y02650D02*
G01X-05800Y01600D01*
D22*
G01X-07550Y-00600D02*
G01X-06950Y-00600D01*
D22*
G01X-06950Y-00600D02*
G01X-05850Y00500D01*
D22*
G01X-05850Y00500D02*
G01X-05800Y00500D01*
D22*
G01X-07550Y-00250D02*
G01X-07550Y-00150D01*
D22*
G01X-07550Y-00150D02*
G01X-05800Y01600D01*
D22*
G01X-08550Y-00250D02*
G01X-08250Y-00250D01*
D22*
G01X-08250Y-00250D02*
G01X-07900Y-00600D01*
D22*
G01X-07900Y-00600D02*
G01X-07550Y-00600D01*
D22*
G01X-09900Y-01000D02*
G01X-09300Y-01000D01*
D22*
G01X-09300Y-01000D02*
G01X-08550Y-00250D01*
D22*
G01X-11450Y-01000D02*
G01X-09900Y-01000D01*
D27*
X-04750Y00800D03*
D22*
G01X-04750Y00800D02*
G01X-05500Y00800D01*
D22*
G01X-05500Y00800D02*
G01X-05800Y00500D01*
D22*
G01X-08050Y01900D02*
G01X-07100Y01900D01*
D22*
G01X-07100Y01900D02*
G01X-07050Y01950D01*
D27*
X-07050Y01950D03*
D22*
G01X-12450Y01650D02*
G01X-11900Y01650D01*
D22*
G01X-11900Y01650D02*
G01X-11550Y02000D01*
D22*
G01X-11550Y02000D02*
G01X-11550Y03250D01*
D22*
G01X-11550Y03250D02*
G01X-11050Y03750D01*
D22*
G01X-11050Y03750D02*
G01X-09650Y03750D01*
D22*
G01X-09650Y03750D02*
G01X-09150Y03250D01*
D22*
G01X-12450Y02150D02*
G01X-12800Y02150D01*
D22*
G01X-12800Y02150D02*
G01X-13450Y02800D01*
D27*
X-13450Y02800D03*
D22*
G01X-11450Y-02100D02*
G01X-10950Y-02100D01*
D22*
G01X-10950Y-02100D02*
G01X-10700Y-01850D01*
D27*
X-10700Y-01850D03*
D27*
X-10100Y00150D03*
D22*
G01X-10100Y00150D02*
G01X-10200Y00050D01*
D22*
G01X-10200Y00050D02*
G01X-10800Y00050D01*
D22*
G01X-05500Y-00600D02*
G01X-04950Y-00600D01*
D22*
G01X-07200Y-02850D02*
G01X-06250Y-02850D01*
D22*
G01X-06250Y-02850D02*
G01X-05500Y-02100D01*
D22*
G01X-07550Y-00950D02*
G01X-07550Y-02500D01*
D22*
G01X-07550Y-02500D02*
G01X-07200Y-02850D01*
M02*
