G04 ( created by brdgerber.py ( brdgerber.py v0.1 2014-03-12 ) ) date 2021-11-30 02:51:56 EST*
G04 Gerber Fmt 3.4, Leading zero omitted, Abs format*
%MOIN*%
%FSLAX34Y34*%
G01*
G70*
G90*
G04 APERTURE LIST*
%ADD19R,0.0657X0.0614*%
%ADD16C,0.1600*%
%ADD13R,0.0394X0.0315*%
%ADD11R,0.0866X0.0236*%
%ADD10R,0.0709X0.0629*%
%ADD14R,0.0550X0.0550*%
%ADD18R,0.0472X0.0216*%
%ADD15C,0.0550*%
%ADD17R,0.0600X0.0800*%
%ADD12R,0.0629X0.0709*%
G04 APERTURE END LIST*
G54D19*
D10*
X-09900Y-00991D03*
D10*
X-09900Y-02109D03*
D11*
X-12473Y02650D03*
D11*
X-10427Y02650D03*
D11*
X-12473Y03150D03*
D11*
X-12473Y02150D03*
D11*
X-12473Y01650D03*
D11*
X-10427Y03150D03*
D11*
X-10427Y02150D03*
D11*
X-10427Y01650D03*
D12*
X-11909Y00050D03*
D12*
X-10791Y00050D03*
D13*
X-08067Y01900D03*
D13*
X-08933Y01525D03*
D13*
X-08933Y02275D03*
D12*
X-09159Y03250D03*
D12*
X-08041Y03250D03*
D14*
X-03500Y03350D03*
D15*
X-03500Y02350D03*
D10*
X-11450Y-00991D03*
D10*
X-11450Y-02109D03*
D14*
X-03500Y00850D03*
D15*
X-03500Y-00150D03*
D15*
X-03500Y-01150D03*
D16*
X-02000Y-03000D03*
D16*
X-02000Y05000D03*
D16*
X-14000Y05000D03*
D16*
X-14000Y-03000D03*
D17*
X-08500Y-02850D03*
D17*
X-07200Y-02850D03*
D10*
X-05800Y00491D03*
D10*
X-05800Y01609D03*
D18*
X-07539Y-00974D03*
D18*
X-07539Y-00600D03*
D18*
X-07539Y-00226D03*
D18*
X-08561Y-00226D03*
D18*
X-08561Y-00974D03*
D10*
X-05800Y02641D03*
D10*
X-05800Y03759D03*
D19*
X-05500Y-00576D03*
D19*
X-05500Y-02124D03*
D14*
X-13950Y01550D03*
D15*
X-13950Y00550D03*
M02*
