G04 ( created by brdgerber.py ( brdgerber.py v0.1 2014-03-12 ) ) date 2021-11-30 02:51:55 EST*
G04 Gerber Fmt 3.4, Leading zero omitted, Abs format*
%MOIN*%
%FSLAX34Y34*%
G01*
G70*
G90*
G04 APERTURE LIST*
%ADD14C,0.0080*%
%ADD30C,0.0200*%
%ADD28R,0.0472X0.0216*%
%ADD17C,0.0047*%
%ADD18C,0.0039*%
%ADD11C,0.0050*%
%ADD27C,0.0472*%
%ADD12C,0.0060*%
%ADD29R,0.0657X0.0614*%
%ADD24C,0.0100*%
%ADD23C,0.1600*%
%ADD19C,0.0031*%
%ADD21C,0.0550*%
%ADD16R,0.0394X0.0315*%
%ADD15R,0.0629X0.0709*%
%ADD26R,0.0600X0.0800*%
%ADD10R,0.0709X0.0629*%
%ADD13R,0.0866X0.0236*%
%ADD22C,0.0120*%
%ADD25C,0.0150*%
%ADD20R,0.0550X0.0550*%
G04 APERTURE END LIST*
G54D14*
D20*
X-03500Y03350D03*
D21*
X-03500Y02350D03*
D20*
X-03500Y00850D03*
D21*
X-03500Y-00150D03*
D21*
X-03500Y-01150D03*
D23*
X-02000Y-03000D03*
D23*
X-02000Y05000D03*
D23*
X-14000Y05000D03*
D23*
X-14000Y-03000D03*
D27*
X-09600Y02350D03*
D20*
X-13950Y01550D03*
D21*
X-13950Y00550D03*
D22*
G01X-13950Y01550D02*
G01X-13950Y01400D01*
D22*
G01X-13950Y01400D02*
G01X-12450Y-00100D01*
D22*
G01X-12450Y-00100D02*
G01X-12450Y-02750D01*
D27*
X-12450Y-02750D03*
D22*
G01X-03500Y-01150D02*
G01X-03800Y-01150D01*
D22*
G01X-03800Y-01150D02*
G01X-04750Y-00200D01*
D22*
G01X-04750Y-00200D02*
G01X-04750Y00800D01*
D27*
X-04750Y00800D03*
D27*
X-07050Y01950D03*
D22*
G01X-07050Y01950D02*
G01X-06650Y02350D01*
D22*
G01X-06650Y02350D02*
G01X-03500Y02350D01*
D22*
G01X-09600Y02350D02*
G01X-07600Y02350D01*
D22*
G01X-07600Y02350D02*
G01X-06600Y03350D01*
D22*
G01X-06600Y03350D02*
G01X-03500Y03350D01*
D27*
X-13450Y02800D03*
D22*
G01X-13450Y02800D02*
G01X-12100Y01450D01*
D22*
G01X-12100Y01450D02*
G01X-04950Y01450D01*
D22*
G01X-04950Y01450D02*
G01X-04700Y01200D01*
D22*
G01X-04700Y01200D02*
G01X-04550Y01200D01*
D22*
G01X-04550Y01200D02*
G01X-04100Y00750D01*
D22*
G01X-04100Y00750D02*
G01X-04100Y00450D01*
D22*
G01X-04100Y00450D02*
G01X-03500Y-00150D01*
D22*
G01X-03500Y03350D02*
G01X-03300Y03350D01*
D22*
G01X-03300Y03350D02*
G01X-02850Y02900D01*
D22*
G01X-02850Y02900D02*
G01X-02850Y01500D01*
D22*
G01X-02850Y01500D02*
G01X-03500Y00850D01*
D27*
X-10700Y-01850D03*
D22*
G01X-10700Y-01850D02*
G01X-09950Y-01100D01*
D22*
G01X-09950Y-01100D02*
G01X-09950Y00000D01*
D22*
G01X-09950Y00000D02*
G01X-10100Y00150D01*
D27*
X-10100Y00150D03*
M02*
