G04 ( created by brdgerber.py ( brdgerber.py v0.1 2014-03-12 ) ) date 2021-11-30 02:51:56 EST*
G04 Gerber Fmt 3.4, Leading zero omitted, Abs format*
%MOIN*%
%FSLAX34Y34*%
G01*
G70*
G90*
G04 APERTURE LIST*
%ADD18C,0.0039*%
%ADD20R,0.0550X0.0550*%
%ADD29R,0.0657X0.0614*%
%ADD10R,0.0709X0.0629*%
%ADD11C,0.0050*%
%ADD24C,0.0100*%
%ADD19C,0.0031*%
%ADD28R,0.0472X0.0216*%
%ADD27C,0.0472*%
%ADD26R,0.0600X0.0800*%
%ADD23C,0.1600*%
%ADD13R,0.0866X0.0236*%
%ADD12C,0.0060*%
%ADD16R,0.0394X0.0315*%
%ADD15R,0.0629X0.0709*%
%ADD17C,0.0047*%
%ADD30C,0.0200*%
%ADD25C,0.0150*%
%ADD22C,0.0120*%
%ADD14C,0.0080*%
%ADD21C,0.0550*%
G04 APERTURE END LIST*
G54D18*
D11*
G01X-10742Y03384D02*
G01X-10742Y01456D01*
D11*
G01X-10742Y01456D02*
G01X-12198Y01456D01*
D11*
G01X-12198Y01456D02*
G01X-12198Y03384D01*
D11*
G01X-12198Y03384D02*
G01X-10742Y03384D01*
D11*
G01X-11732Y03108D02*
G01X-11732Y03108D01*
G01X-11732Y03111D01*
G01X-11732Y03113D01*
G01X-11732Y03116D01*
G01X-11733Y03119D01*
G01X-11733Y03122D01*
G01X-11733Y03124D01*
G01X-11734Y03127D01*
G01X-11734Y03130D01*
G01X-11735Y03132D01*
G01X-11735Y03135D01*
G01X-11736Y03138D01*
G01X-11737Y03140D01*
G01X-11738Y03143D01*
G01X-11738Y03145D01*
G01X-11739Y03148D01*
G01X-11740Y03150D01*
G01X-11742Y03153D01*
G01X-11743Y03155D01*
G01X-11744Y03158D01*
G01X-11745Y03160D01*
G01X-11746Y03163D01*
G01X-11748Y03165D01*
G01X-11749Y03167D01*
G01X-11751Y03170D01*
G01X-11752Y03172D01*
G01X-11754Y03174D01*
G01X-11755Y03176D01*
G01X-11757Y03178D01*
G01X-11759Y03181D01*
G01X-11761Y03183D01*
G01X-11763Y03185D01*
G01X-11765Y03186D01*
G01X-11766Y03188D01*
G01X-11768Y03190D01*
G01X-11770Y03192D01*
G01X-11773Y03194D01*
G01X-11775Y03196D01*
G01X-11777Y03197D01*
G01X-11779Y03199D01*
G01X-11781Y03200D01*
G01X-11784Y03202D01*
G01X-11786Y03203D01*
G01X-11788Y03205D01*
G01X-11791Y03206D01*
G01X-11793Y03207D01*
G01X-11796Y03208D01*
G01X-11798Y03209D01*
G01X-11801Y03211D01*
G01X-11803Y03212D01*
G01X-11806Y03213D01*
G01X-11808Y03213D01*
G01X-11811Y03214D01*
G01X-11813Y03215D01*
G01X-11816Y03216D01*
G01X-11819Y03216D01*
G01X-11821Y03217D01*
G01X-11824Y03217D01*
G01X-11827Y03218D01*
G01X-11829Y03218D01*
G01X-11832Y03218D01*
G01X-11835Y03219D01*
G01X-11838Y03219D01*
G01X-11840Y03219D01*
G01X-11843Y03219D01*
G01X-11846Y03219D01*
G01X-11848Y03219D01*
G01X-11851Y03219D01*
G01X-11854Y03218D01*
G01X-11857Y03218D01*
G01X-11859Y03218D01*
G01X-11862Y03217D01*
G01X-11865Y03217D01*
G01X-11867Y03216D01*
G01X-11870Y03216D01*
G01X-11873Y03215D01*
G01X-11875Y03214D01*
G01X-11878Y03213D01*
G01X-11880Y03213D01*
G01X-11883Y03212D01*
G01X-11885Y03211D01*
G01X-11888Y03209D01*
G01X-11890Y03208D01*
G01X-11893Y03207D01*
G01X-11895Y03206D01*
G01X-11898Y03205D01*
G01X-11900Y03203D01*
G01X-11902Y03202D01*
G01X-11905Y03200D01*
G01X-11907Y03199D01*
G01X-11909Y03197D01*
G01X-11911Y03196D01*
G01X-11913Y03194D01*
G01X-11916Y03192D01*
G01X-11918Y03190D01*
G01X-11920Y03188D01*
G01X-11921Y03186D01*
G01X-11923Y03185D01*
G01X-11925Y03183D01*
G01X-11927Y03181D01*
G01X-11929Y03178D01*
G01X-11931Y03176D01*
G01X-11932Y03174D01*
G01X-11934Y03172D01*
G01X-11935Y03170D01*
G01X-11937Y03167D01*
G01X-11938Y03165D01*
G01X-11940Y03163D01*
G01X-11941Y03160D01*
G01X-11942Y03158D01*
G01X-11943Y03155D01*
G01X-11944Y03153D01*
G01X-11946Y03150D01*
G01X-11947Y03148D01*
G01X-11948Y03145D01*
G01X-11948Y03143D01*
G01X-11949Y03140D01*
G01X-11950Y03138D01*
G01X-11951Y03135D01*
G01X-11951Y03132D01*
G01X-11952Y03130D01*
G01X-11952Y03127D01*
G01X-11953Y03124D01*
G01X-11953Y03122D01*
G01X-11953Y03119D01*
G01X-11954Y03116D01*
G01X-11954Y03113D01*
G01X-11954Y03111D01*
G01X-11954Y03108D01*
G01X-11954Y03105D01*
G01X-11954Y03103D01*
G01X-11954Y03100D01*
G01X-11953Y03097D01*
G01X-11953Y03094D01*
G01X-11953Y03092D01*
G01X-11952Y03089D01*
G01X-11952Y03086D01*
G01X-11951Y03084D01*
G01X-11951Y03081D01*
G01X-11950Y03078D01*
G01X-11949Y03076D01*
G01X-11948Y03073D01*
G01X-11948Y03071D01*
G01X-11947Y03068D01*
G01X-11946Y03066D01*
G01X-11944Y03063D01*
G01X-11943Y03061D01*
G01X-11942Y03058D01*
G01X-11941Y03056D01*
G01X-11940Y03053D01*
G01X-11938Y03051D01*
G01X-11937Y03049D01*
G01X-11935Y03046D01*
G01X-11934Y03044D01*
G01X-11932Y03042D01*
G01X-11931Y03040D01*
G01X-11929Y03038D01*
G01X-11927Y03035D01*
G01X-11925Y03033D01*
G01X-11923Y03031D01*
G01X-11921Y03030D01*
G01X-11920Y03028D01*
G01X-11918Y03026D01*
G01X-11916Y03024D01*
G01X-11913Y03022D01*
G01X-11911Y03020D01*
G01X-11909Y03019D01*
G01X-11907Y03017D01*
G01X-11905Y03016D01*
G01X-11902Y03014D01*
G01X-11900Y03013D01*
G01X-11898Y03011D01*
G01X-11895Y03010D01*
G01X-11893Y03009D01*
G01X-11890Y03008D01*
G01X-11888Y03007D01*
G01X-11885Y03005D01*
G01X-11883Y03004D01*
G01X-11880Y03003D01*
G01X-11878Y03003D01*
G01X-11875Y03002D01*
G01X-11873Y03001D01*
G01X-11870Y03000D01*
G01X-11867Y03000D01*
G01X-11865Y02999D01*
G01X-11862Y02999D01*
G01X-11859Y02998D01*
G01X-11857Y02998D01*
G01X-11854Y02998D01*
G01X-11851Y02997D01*
G01X-11848Y02997D01*
G01X-11846Y02997D01*
G01X-11843Y02997D01*
G01X-11840Y02997D01*
G01X-11838Y02997D01*
G01X-11835Y02997D01*
G01X-11832Y02998D01*
G01X-11829Y02998D01*
G01X-11827Y02998D01*
G01X-11824Y02999D01*
G01X-11821Y02999D01*
G01X-11819Y03000D01*
G01X-11816Y03000D01*
G01X-11813Y03001D01*
G01X-11811Y03002D01*
G01X-11808Y03003D01*
G01X-11806Y03003D01*
G01X-11803Y03004D01*
G01X-11801Y03005D01*
G01X-11798Y03007D01*
G01X-11796Y03008D01*
G01X-11793Y03009D01*
G01X-11791Y03010D01*
G01X-11788Y03011D01*
G01X-11786Y03013D01*
G01X-11784Y03014D01*
G01X-11781Y03016D01*
G01X-11779Y03017D01*
G01X-11777Y03019D01*
G01X-11775Y03020D01*
G01X-11773Y03022D01*
G01X-11770Y03024D01*
G01X-11768Y03026D01*
G01X-11766Y03028D01*
G01X-11765Y03030D01*
G01X-11763Y03031D01*
G01X-11761Y03033D01*
G01X-11759Y03035D01*
G01X-11757Y03038D01*
G01X-11755Y03040D01*
G01X-11754Y03042D01*
G01X-11752Y03044D01*
G01X-11751Y03046D01*
G01X-11749Y03049D01*
G01X-11748Y03051D01*
G01X-11746Y03053D01*
G01X-11745Y03056D01*
G01X-11744Y03058D01*
G01X-11743Y03061D01*
G01X-11742Y03063D01*
G01X-11740Y03066D01*
G01X-11739Y03068D01*
G01X-11738Y03071D01*
G01X-11738Y03073D01*
G01X-11737Y03076D01*
G01X-11736Y03078D01*
G01X-11735Y03081D01*
G01X-11735Y03084D01*
G01X-11734Y03086D01*
G01X-11734Y03089D01*
G01X-11733Y03092D01*
G01X-11733Y03094D01*
G01X-11733Y03097D01*
G01X-11732Y03100D01*
G01X-11732Y03103D01*
G01X-11732Y03105D01*
G01X-11732Y03108D01*
D19*
G01X-08575Y02363D02*
G01X-08575Y02363D01*
G01X-08575Y02365D01*
G01X-08575Y02366D01*
G01X-08576Y02368D01*
G01X-08576Y02369D01*
G01X-08576Y02371D01*
G01X-08576Y02372D01*
G01X-08576Y02374D01*
G01X-08577Y02375D01*
G01X-08577Y02377D01*
G01X-08577Y02378D01*
G01X-08578Y02380D01*
G01X-08578Y02381D01*
G01X-08579Y02383D01*
G01X-08579Y02384D01*
G01X-08580Y02386D01*
G01X-08580Y02387D01*
G01X-08581Y02388D01*
G01X-08581Y02390D01*
G01X-08582Y02391D01*
G01X-08583Y02393D01*
G01X-08584Y02394D01*
G01X-08584Y02395D01*
G01X-08585Y02397D01*
G01X-08586Y02398D01*
G01X-08587Y02399D01*
G01X-08588Y02400D01*
G01X-08589Y02402D01*
G01X-08590Y02403D01*
G01X-08591Y02404D01*
G01X-08592Y02405D01*
G01X-08593Y02406D01*
G01X-08594Y02407D01*
G01X-08595Y02408D01*
G01X-08596Y02409D01*
G01X-08597Y02410D01*
G01X-08598Y02411D01*
G01X-08599Y02412D01*
G01X-08601Y02413D01*
G01X-08602Y02414D01*
G01X-08603Y02415D01*
G01X-08604Y02416D01*
G01X-08606Y02417D01*
G01X-08607Y02417D01*
G01X-08608Y02418D01*
G01X-08610Y02419D01*
G01X-08611Y02420D01*
G01X-08613Y02420D01*
G01X-08614Y02421D01*
G01X-08615Y02421D01*
G01X-08617Y02422D01*
G01X-08618Y02422D01*
G01X-08620Y02423D01*
G01X-08621Y02423D01*
G01X-08623Y02424D01*
G01X-08624Y02424D01*
G01X-08626Y02424D01*
G01X-08627Y02425D01*
G01X-08629Y02425D01*
G01X-08630Y02425D01*
G01X-08632Y02425D01*
G01X-08633Y02425D01*
G01X-08635Y02426D01*
G01X-08636Y02426D01*
G01X-08638Y02426D01*
G01X-08640Y02426D01*
G01X-08641Y02426D01*
G01X-08643Y02425D01*
G01X-08644Y02425D01*
G01X-08646Y02425D01*
G01X-08647Y02425D01*
G01X-08649Y02425D01*
G01X-08650Y02424D01*
G01X-08652Y02424D01*
G01X-08653Y02424D01*
G01X-08655Y02423D01*
G01X-08656Y02423D01*
G01X-08658Y02422D01*
G01X-08659Y02422D01*
G01X-08661Y02421D01*
G01X-08662Y02421D01*
G01X-08663Y02420D01*
G01X-08665Y02420D01*
G01X-08666Y02419D01*
G01X-08668Y02418D01*
G01X-08669Y02417D01*
G01X-08670Y02417D01*
G01X-08672Y02416D01*
G01X-08673Y02415D01*
G01X-08674Y02414D01*
G01X-08675Y02413D01*
G01X-08677Y02412D01*
G01X-08678Y02411D01*
G01X-08679Y02410D01*
G01X-08680Y02409D01*
G01X-08681Y02408D01*
G01X-08682Y02407D01*
G01X-08683Y02406D01*
G01X-08684Y02405D01*
G01X-08685Y02404D01*
G01X-08686Y02403D01*
G01X-08687Y02402D01*
G01X-08688Y02400D01*
G01X-08689Y02399D01*
G01X-08690Y02398D01*
G01X-08691Y02397D01*
G01X-08692Y02395D01*
G01X-08692Y02394D01*
G01X-08693Y02393D01*
G01X-08694Y02391D01*
G01X-08695Y02390D01*
G01X-08695Y02388D01*
G01X-08696Y02387D01*
G01X-08696Y02386D01*
G01X-08697Y02384D01*
G01X-08697Y02383D01*
G01X-08698Y02381D01*
G01X-08698Y02380D01*
G01X-08699Y02378D01*
G01X-08699Y02377D01*
G01X-08699Y02375D01*
G01X-08700Y02374D01*
G01X-08700Y02372D01*
G01X-08700Y02371D01*
G01X-08700Y02369D01*
G01X-08700Y02368D01*
G01X-08701Y02366D01*
G01X-08701Y02365D01*
G01X-08701Y02363D01*
G01X-08701Y02361D01*
G01X-08701Y02360D01*
G01X-08700Y02358D01*
G01X-08700Y02357D01*
G01X-08700Y02355D01*
G01X-08700Y02354D01*
G01X-08700Y02352D01*
G01X-08699Y02351D01*
G01X-08699Y02349D01*
G01X-08699Y02348D01*
G01X-08698Y02346D01*
G01X-08698Y02345D01*
G01X-08697Y02343D01*
G01X-08697Y02342D01*
G01X-08696Y02340D01*
G01X-08696Y02339D01*
G01X-08695Y02338D01*
G01X-08695Y02336D01*
G01X-08694Y02335D01*
G01X-08693Y02333D01*
G01X-08692Y02332D01*
G01X-08692Y02331D01*
G01X-08691Y02329D01*
G01X-08690Y02328D01*
G01X-08689Y02327D01*
G01X-08688Y02326D01*
G01X-08687Y02324D01*
G01X-08686Y02323D01*
G01X-08685Y02322D01*
G01X-08684Y02321D01*
G01X-08683Y02320D01*
G01X-08682Y02319D01*
G01X-08681Y02318D01*
G01X-08680Y02317D01*
G01X-08679Y02316D01*
G01X-08678Y02315D01*
G01X-08677Y02314D01*
G01X-08675Y02313D01*
G01X-08674Y02312D01*
G01X-08673Y02311D01*
G01X-08672Y02310D01*
G01X-08670Y02309D01*
G01X-08669Y02309D01*
G01X-08668Y02308D01*
G01X-08666Y02307D01*
G01X-08665Y02306D01*
G01X-08663Y02306D01*
G01X-08662Y02305D01*
G01X-08661Y02305D01*
G01X-08659Y02304D01*
G01X-08658Y02304D01*
G01X-08656Y02303D01*
G01X-08655Y02303D01*
G01X-08653Y02302D01*
G01X-08652Y02302D01*
G01X-08650Y02302D01*
G01X-08649Y02301D01*
G01X-08647Y02301D01*
G01X-08646Y02301D01*
G01X-08644Y02301D01*
G01X-08643Y02301D01*
G01X-08641Y02300D01*
G01X-08640Y02300D01*
G01X-08638Y02300D01*
G01X-08636Y02300D01*
G01X-08635Y02300D01*
G01X-08633Y02301D01*
G01X-08632Y02301D01*
G01X-08630Y02301D01*
G01X-08629Y02301D01*
G01X-08627Y02301D01*
G01X-08626Y02302D01*
G01X-08624Y02302D01*
G01X-08623Y02302D01*
G01X-08621Y02303D01*
G01X-08620Y02303D01*
G01X-08618Y02304D01*
G01X-08617Y02304D01*
G01X-08615Y02305D01*
G01X-08614Y02305D01*
G01X-08613Y02306D01*
G01X-08611Y02306D01*
G01X-08610Y02307D01*
G01X-08608Y02308D01*
G01X-08607Y02309D01*
G01X-08606Y02309D01*
G01X-08604Y02310D01*
G01X-08603Y02311D01*
G01X-08602Y02312D01*
G01X-08601Y02313D01*
G01X-08599Y02314D01*
G01X-08598Y02315D01*
G01X-08597Y02316D01*
G01X-08596Y02317D01*
G01X-08595Y02318D01*
G01X-08594Y02319D01*
G01X-08593Y02320D01*
G01X-08592Y02321D01*
G01X-08591Y02322D01*
G01X-08590Y02323D01*
G01X-08589Y02324D01*
G01X-08588Y02326D01*
G01X-08587Y02327D01*
G01X-08586Y02328D01*
G01X-08585Y02329D01*
G01X-08584Y02331D01*
G01X-08584Y02332D01*
G01X-08583Y02333D01*
G01X-08582Y02335D01*
G01X-08581Y02336D01*
G01X-08581Y02338D01*
G01X-08580Y02339D01*
G01X-08580Y02340D01*
G01X-08579Y02342D01*
G01X-08579Y02343D01*
G01X-08578Y02345D01*
G01X-08578Y02346D01*
G01X-08577Y02348D01*
G01X-08577Y02349D01*
G01X-08577Y02351D01*
G01X-08576Y02352D01*
G01X-08576Y02354D01*
G01X-08576Y02355D01*
G01X-08576Y02357D01*
G01X-08576Y02358D01*
G01X-08575Y02360D01*
G01X-08575Y02361D01*
G01X-08575Y02363D01*
D19*
G01X-08300Y01400D02*
G01X-08700Y01400D01*
D19*
G01X-08300Y02425D02*
G01X-08700Y02425D01*
D19*
G01X-08700Y01400D02*
G01X-08700Y02425D01*
D19*
G01X-08300Y02425D02*
G01X-08300Y01400D01*
D17*
G01X-08490Y00963D02*
G01X-08518Y00977D01*
G01X-08547Y01006D01*
G01X-08590Y01049D01*
G01X-08618Y01063D01*
G01X-08647Y01063D01*
D17*
G01X-08632Y00992D02*
G01X-08661Y01006D01*
G01X-08690Y01034D01*
G01X-08704Y01092D01*
G01X-08704Y01192D01*
G01X-08690Y01249D01*
G01X-08661Y01277D01*
G01X-08632Y01292D01*
G01X-08575Y01292D01*
G01X-08547Y01277D01*
G01X-08518Y01249D01*
G01X-08504Y01192D01*
G01X-08504Y01092D01*
G01X-08518Y01034D01*
G01X-08547Y01006D01*
G01X-08575Y00992D01*
G01X-08632Y00992D01*
D17*
G01X-08218Y00992D02*
G01X-08390Y00992D01*
D17*
G01X-08304Y00992D02*
G01X-08304Y01292D01*
G01X-08332Y01249D01*
G01X-08361Y01220D01*
G01X-08390Y01206D01*
D18*
G01X-08420Y01617D02*
G01X-08617Y01617D01*
G01X-08420Y01730D01*
G01X-08617Y01730D01*
D18*
G01X-08420Y01823D02*
G01X-08617Y01823D01*
G01X-08617Y01898D01*
G01X-08608Y01917D01*
G01X-08599Y01927D01*
G01X-08580Y01936D01*
G01X-08552Y01936D01*
G01X-08533Y01927D01*
G01X-08523Y01917D01*
G01X-08514Y01898D01*
G01X-08514Y01823D01*
D18*
G01X-08420Y02020D02*
G01X-08617Y02020D01*
G01X-08420Y02133D01*
G01X-08617Y02133D01*
D22*
G01X-04000Y03850D02*
G01X-03000Y03850D01*
D22*
G01X-03000Y03850D02*
G01X-03000Y01850D01*
D22*
G01X-03000Y01850D02*
G01X-04000Y01850D01*
D22*
G01X-04000Y01850D02*
G01X-04000Y03850D01*
D22*
G01X-02327Y02347D02*
G01X-02755Y02347D01*
G01X-02755Y02607D01*
G01X-02734Y02672D01*
G01X-02714Y02704D01*
G01X-02673Y02737D01*
G01X-02612Y02737D01*
G01X-02571Y02704D01*
G01X-02551Y02672D01*
G01X-02531Y02607D01*
G01X-02531Y02347D01*
D22*
G01X-02714Y02996D02*
G01X-02734Y03028D01*
G01X-02755Y03093D01*
G01X-02755Y03255D01*
G01X-02734Y03320D01*
G01X-02714Y03353D01*
G01X-02673Y03385D01*
G01X-02632Y03385D01*
G01X-02571Y03353D01*
G01X-02327Y02964D01*
G01X-02327Y03385D01*
D22*
G01X-04000Y01350D02*
G01X-03000Y01350D01*
D22*
G01X-03000Y01350D02*
G01X-03000Y-01650D01*
D22*
G01X-03000Y-01650D02*
G01X-04000Y-01650D01*
D22*
G01X-04000Y-01650D02*
G01X-04000Y01350D01*
D22*
G01X-03000Y00350D02*
G01X-04000Y00350D01*
D22*
G01X-02328Y-00670D02*
G01X-02752Y-00670D01*
D22*
G01X-02328Y-00267D02*
G01X-02571Y-00570D01*
D22*
G01X-02752Y-00267D02*
G01X-02510Y-00670D01*
D22*
G01X-02712Y00001D02*
G01X-02732Y00035D01*
G01X-02752Y00102D01*
G01X-02752Y00270D01*
G01X-02732Y00337D01*
G01X-02712Y00370D01*
G01X-02672Y00404D01*
G01X-02631Y00404D01*
G01X-02571Y00370D01*
G01X-02328Y-00032D01*
G01X-02328Y00404D01*
D25*
G01X-01100Y-03000D02*
G01X-01100Y-03000D01*
G01X-01100Y-02978D01*
G01X-01101Y-02956D01*
G01X-01102Y-02934D01*
G01X-01104Y-02912D01*
G01X-01107Y-02890D01*
G01X-01110Y-02868D01*
G01X-01113Y-02846D01*
G01X-01117Y-02824D01*
G01X-01122Y-02803D01*
G01X-01127Y-02781D01*
G01X-01133Y-02760D01*
G01X-01139Y-02739D01*
G01X-01145Y-02718D01*
G01X-01153Y-02697D01*
G01X-01160Y-02676D01*
G01X-01169Y-02656D01*
G01X-01177Y-02635D01*
G01X-01186Y-02615D01*
G01X-01196Y-02595D01*
G01X-01206Y-02576D01*
G01X-01217Y-02556D01*
G01X-01228Y-02537D01*
G01X-01240Y-02519D01*
G01X-01252Y-02500D01*
G01X-01264Y-02482D01*
G01X-01277Y-02464D01*
G01X-01290Y-02446D01*
G01X-01304Y-02429D01*
G01X-01319Y-02412D01*
G01X-01333Y-02396D01*
G01X-01348Y-02379D01*
G01X-01364Y-02364D01*
G01X-01379Y-02348D01*
G01X-01396Y-02333D01*
G01X-01412Y-02319D01*
G01X-01429Y-02304D01*
G01X-01446Y-02290D01*
G01X-01464Y-02277D01*
G01X-01482Y-02264D01*
G01X-01500Y-02252D01*
G01X-01519Y-02240D01*
G01X-01537Y-02228D01*
G01X-01556Y-02217D01*
G01X-01576Y-02206D01*
G01X-01595Y-02196D01*
G01X-01615Y-02186D01*
G01X-01635Y-02177D01*
G01X-01656Y-02169D01*
G01X-01676Y-02160D01*
G01X-01697Y-02153D01*
G01X-01718Y-02145D01*
G01X-01739Y-02139D01*
G01X-01760Y-02133D01*
G01X-01781Y-02127D01*
G01X-01803Y-02122D01*
G01X-01824Y-02117D01*
G01X-01846Y-02113D01*
G01X-01868Y-02110D01*
G01X-01890Y-02107D01*
G01X-01912Y-02104D01*
G01X-01934Y-02102D01*
G01X-01956Y-02101D01*
G01X-01978Y-02100D01*
G01X-02000Y-02100D01*
G01X-02022Y-02100D01*
G01X-02044Y-02101D01*
G01X-02066Y-02102D01*
G01X-02088Y-02104D01*
G01X-02110Y-02107D01*
G01X-02132Y-02110D01*
G01X-02154Y-02113D01*
G01X-02176Y-02117D01*
G01X-02197Y-02122D01*
G01X-02219Y-02127D01*
G01X-02240Y-02133D01*
G01X-02261Y-02139D01*
G01X-02282Y-02145D01*
G01X-02303Y-02153D01*
G01X-02324Y-02160D01*
G01X-02344Y-02169D01*
G01X-02365Y-02177D01*
G01X-02385Y-02186D01*
G01X-02405Y-02196D01*
G01X-02424Y-02206D01*
G01X-02444Y-02217D01*
G01X-02463Y-02228D01*
G01X-02481Y-02240D01*
G01X-02500Y-02252D01*
G01X-02518Y-02264D01*
G01X-02536Y-02277D01*
G01X-02554Y-02290D01*
G01X-02571Y-02304D01*
G01X-02588Y-02319D01*
G01X-02604Y-02333D01*
G01X-02621Y-02348D01*
G01X-02636Y-02364D01*
G01X-02652Y-02379D01*
G01X-02667Y-02396D01*
G01X-02681Y-02412D01*
G01X-02696Y-02429D01*
G01X-02710Y-02446D01*
G01X-02723Y-02464D01*
G01X-02736Y-02482D01*
G01X-02748Y-02500D01*
G01X-02760Y-02519D01*
G01X-02772Y-02537D01*
G01X-02783Y-02556D01*
G01X-02794Y-02576D01*
G01X-02804Y-02595D01*
G01X-02814Y-02615D01*
G01X-02823Y-02635D01*
G01X-02831Y-02656D01*
G01X-02840Y-02676D01*
G01X-02847Y-02697D01*
G01X-02855Y-02718D01*
G01X-02861Y-02739D01*
G01X-02867Y-02760D01*
G01X-02873Y-02781D01*
G01X-02878Y-02803D01*
G01X-02883Y-02824D01*
G01X-02887Y-02846D01*
G01X-02890Y-02868D01*
G01X-02893Y-02890D01*
G01X-02896Y-02912D01*
G01X-02898Y-02934D01*
G01X-02899Y-02956D01*
G01X-02900Y-02978D01*
G01X-02900Y-03000D01*
G01X-02900Y-03022D01*
G01X-02899Y-03044D01*
G01X-02898Y-03066D01*
G01X-02896Y-03088D01*
G01X-02893Y-03110D01*
G01X-02890Y-03132D01*
G01X-02887Y-03154D01*
G01X-02883Y-03176D01*
G01X-02878Y-03197D01*
G01X-02873Y-03219D01*
G01X-02867Y-03240D01*
G01X-02861Y-03261D01*
G01X-02855Y-03282D01*
G01X-02847Y-03303D01*
G01X-02840Y-03324D01*
G01X-02831Y-03344D01*
G01X-02823Y-03365D01*
G01X-02814Y-03385D01*
G01X-02804Y-03405D01*
G01X-02794Y-03424D01*
G01X-02783Y-03444D01*
G01X-02772Y-03463D01*
G01X-02760Y-03481D01*
G01X-02748Y-03500D01*
G01X-02736Y-03518D01*
G01X-02723Y-03536D01*
G01X-02710Y-03554D01*
G01X-02696Y-03571D01*
G01X-02681Y-03588D01*
G01X-02667Y-03604D01*
G01X-02652Y-03621D01*
G01X-02636Y-03636D01*
G01X-02621Y-03652D01*
G01X-02604Y-03667D01*
G01X-02588Y-03681D01*
G01X-02571Y-03696D01*
G01X-02554Y-03710D01*
G01X-02536Y-03723D01*
G01X-02518Y-03736D01*
G01X-02500Y-03748D01*
G01X-02481Y-03760D01*
G01X-02463Y-03772D01*
G01X-02444Y-03783D01*
G01X-02424Y-03794D01*
G01X-02405Y-03804D01*
G01X-02385Y-03814D01*
G01X-02365Y-03823D01*
G01X-02344Y-03831D01*
G01X-02324Y-03840D01*
G01X-02303Y-03847D01*
G01X-02282Y-03855D01*
G01X-02261Y-03861D01*
G01X-02240Y-03867D01*
G01X-02219Y-03873D01*
G01X-02197Y-03878D01*
G01X-02176Y-03883D01*
G01X-02154Y-03887D01*
G01X-02132Y-03890D01*
G01X-02110Y-03893D01*
G01X-02088Y-03896D01*
G01X-02066Y-03898D01*
G01X-02044Y-03899D01*
G01X-02022Y-03900D01*
G01X-02000Y-03900D01*
G01X-01978Y-03900D01*
G01X-01956Y-03899D01*
G01X-01934Y-03898D01*
G01X-01912Y-03896D01*
G01X-01890Y-03893D01*
G01X-01868Y-03890D01*
G01X-01846Y-03887D01*
G01X-01824Y-03883D01*
G01X-01803Y-03878D01*
G01X-01781Y-03873D01*
G01X-01760Y-03867D01*
G01X-01739Y-03861D01*
G01X-01718Y-03855D01*
G01X-01697Y-03847D01*
G01X-01676Y-03840D01*
G01X-01656Y-03831D01*
G01X-01635Y-03823D01*
G01X-01615Y-03814D01*
G01X-01595Y-03804D01*
G01X-01576Y-03794D01*
G01X-01556Y-03783D01*
G01X-01537Y-03772D01*
G01X-01519Y-03760D01*
G01X-01500Y-03748D01*
G01X-01482Y-03736D01*
G01X-01464Y-03723D01*
G01X-01446Y-03710D01*
G01X-01429Y-03696D01*
G01X-01412Y-03681D01*
G01X-01396Y-03667D01*
G01X-01379Y-03652D01*
G01X-01364Y-03636D01*
G01X-01348Y-03621D01*
G01X-01333Y-03604D01*
G01X-01319Y-03588D01*
G01X-01304Y-03571D01*
G01X-01290Y-03554D01*
G01X-01277Y-03536D01*
G01X-01264Y-03518D01*
G01X-01252Y-03500D01*
G01X-01240Y-03481D01*
G01X-01228Y-03463D01*
G01X-01217Y-03444D01*
G01X-01206Y-03424D01*
G01X-01196Y-03405D01*
G01X-01186Y-03385D01*
G01X-01177Y-03365D01*
G01X-01169Y-03344D01*
G01X-01160Y-03324D01*
G01X-01153Y-03303D01*
G01X-01145Y-03282D01*
G01X-01139Y-03261D01*
G01X-01133Y-03240D01*
G01X-01127Y-03219D01*
G01X-01122Y-03197D01*
G01X-01117Y-03176D01*
G01X-01113Y-03154D01*
G01X-01110Y-03132D01*
G01X-01107Y-03110D01*
G01X-01104Y-03088D01*
G01X-01102Y-03066D01*
G01X-01101Y-03044D01*
G01X-01100Y-03022D01*
G01X-01100Y-03000D01*
D24*
G01X-02295Y-01962D02*
G01X-02295Y-01562D01*
G01X-02143Y-01562D01*
G01X-02105Y-01581D01*
G01X-02086Y-01600D01*
G01X-02067Y-01638D01*
G01X-02067Y-01695D01*
G01X-02086Y-01733D01*
G01X-02105Y-01752D01*
G01X-02143Y-01771D01*
G01X-02295Y-01771D01*
D24*
G01X-01933Y-01562D02*
G01X-01686Y-01562D01*
G01X-01819Y-01714D01*
G01X-01762Y-01714D01*
G01X-01724Y-01733D01*
G01X-01705Y-01752D01*
G01X-01686Y-01790D01*
G01X-01686Y-01886D01*
G01X-01705Y-01924D01*
G01X-01724Y-01943D01*
G01X-01762Y-01962D01*
G01X-01876Y-01962D01*
G01X-01914Y-01943D01*
G01X-01933Y-01924D01*
D25*
G01X-01100Y05000D02*
G01X-01100Y05000D01*
G01X-01100Y05022D01*
G01X-01101Y05044D01*
G01X-01102Y05066D01*
G01X-01104Y05088D01*
G01X-01107Y05110D01*
G01X-01110Y05132D01*
G01X-01113Y05154D01*
G01X-01117Y05176D01*
G01X-01122Y05197D01*
G01X-01127Y05219D01*
G01X-01133Y05240D01*
G01X-01139Y05261D01*
G01X-01145Y05282D01*
G01X-01153Y05303D01*
G01X-01160Y05324D01*
G01X-01169Y05344D01*
G01X-01177Y05365D01*
G01X-01186Y05385D01*
G01X-01196Y05405D01*
G01X-01206Y05424D01*
G01X-01217Y05444D01*
G01X-01228Y05463D01*
G01X-01240Y05481D01*
G01X-01252Y05500D01*
G01X-01264Y05518D01*
G01X-01277Y05536D01*
G01X-01290Y05554D01*
G01X-01304Y05571D01*
G01X-01319Y05588D01*
G01X-01333Y05604D01*
G01X-01348Y05621D01*
G01X-01364Y05636D01*
G01X-01379Y05652D01*
G01X-01396Y05667D01*
G01X-01412Y05681D01*
G01X-01429Y05696D01*
G01X-01446Y05710D01*
G01X-01464Y05723D01*
G01X-01482Y05736D01*
G01X-01500Y05748D01*
G01X-01519Y05760D01*
G01X-01537Y05772D01*
G01X-01556Y05783D01*
G01X-01576Y05794D01*
G01X-01595Y05804D01*
G01X-01615Y05814D01*
G01X-01635Y05823D01*
G01X-01656Y05831D01*
G01X-01676Y05840D01*
G01X-01697Y05847D01*
G01X-01718Y05855D01*
G01X-01739Y05861D01*
G01X-01760Y05867D01*
G01X-01781Y05873D01*
G01X-01803Y05878D01*
G01X-01824Y05883D01*
G01X-01846Y05887D01*
G01X-01868Y05890D01*
G01X-01890Y05893D01*
G01X-01912Y05896D01*
G01X-01934Y05898D01*
G01X-01956Y05899D01*
G01X-01978Y05900D01*
G01X-02000Y05900D01*
G01X-02022Y05900D01*
G01X-02044Y05899D01*
G01X-02066Y05898D01*
G01X-02088Y05896D01*
G01X-02110Y05893D01*
G01X-02132Y05890D01*
G01X-02154Y05887D01*
G01X-02176Y05883D01*
G01X-02197Y05878D01*
G01X-02219Y05873D01*
G01X-02240Y05867D01*
G01X-02261Y05861D01*
G01X-02282Y05855D01*
G01X-02303Y05847D01*
G01X-02324Y05840D01*
G01X-02344Y05831D01*
G01X-02365Y05823D01*
G01X-02385Y05814D01*
G01X-02405Y05804D01*
G01X-02424Y05794D01*
G01X-02444Y05783D01*
G01X-02463Y05772D01*
G01X-02481Y05760D01*
G01X-02500Y05748D01*
G01X-02518Y05736D01*
G01X-02536Y05723D01*
G01X-02554Y05710D01*
G01X-02571Y05696D01*
G01X-02588Y05681D01*
G01X-02604Y05667D01*
G01X-02621Y05652D01*
G01X-02636Y05636D01*
G01X-02652Y05621D01*
G01X-02667Y05604D01*
G01X-02681Y05588D01*
G01X-02696Y05571D01*
G01X-02710Y05554D01*
G01X-02723Y05536D01*
G01X-02736Y05518D01*
G01X-02748Y05500D01*
G01X-02760Y05481D01*
G01X-02772Y05463D01*
G01X-02783Y05444D01*
G01X-02794Y05424D01*
G01X-02804Y05405D01*
G01X-02814Y05385D01*
G01X-02823Y05365D01*
G01X-02831Y05344D01*
G01X-02840Y05324D01*
G01X-02847Y05303D01*
G01X-02855Y05282D01*
G01X-02861Y05261D01*
G01X-02867Y05240D01*
G01X-02873Y05219D01*
G01X-02878Y05197D01*
G01X-02883Y05176D01*
G01X-02887Y05154D01*
G01X-02890Y05132D01*
G01X-02893Y05110D01*
G01X-02896Y05088D01*
G01X-02898Y05066D01*
G01X-02899Y05044D01*
G01X-02900Y05022D01*
G01X-02900Y05000D01*
G01X-02900Y04978D01*
G01X-02899Y04956D01*
G01X-02898Y04934D01*
G01X-02896Y04912D01*
G01X-02893Y04890D01*
G01X-02890Y04868D01*
G01X-02887Y04846D01*
G01X-02883Y04824D01*
G01X-02878Y04803D01*
G01X-02873Y04781D01*
G01X-02867Y04760D01*
G01X-02861Y04739D01*
G01X-02855Y04718D01*
G01X-02847Y04697D01*
G01X-02840Y04676D01*
G01X-02831Y04656D01*
G01X-02823Y04635D01*
G01X-02814Y04615D01*
G01X-02804Y04595D01*
G01X-02794Y04576D01*
G01X-02783Y04556D01*
G01X-02772Y04537D01*
G01X-02760Y04519D01*
G01X-02748Y04500D01*
G01X-02736Y04482D01*
G01X-02723Y04464D01*
G01X-02710Y04446D01*
G01X-02696Y04429D01*
G01X-02681Y04412D01*
G01X-02667Y04396D01*
G01X-02652Y04379D01*
G01X-02636Y04364D01*
G01X-02621Y04348D01*
G01X-02604Y04333D01*
G01X-02588Y04319D01*
G01X-02571Y04304D01*
G01X-02554Y04290D01*
G01X-02536Y04277D01*
G01X-02518Y04264D01*
G01X-02500Y04252D01*
G01X-02481Y04240D01*
G01X-02463Y04228D01*
G01X-02444Y04217D01*
G01X-02424Y04206D01*
G01X-02405Y04196D01*
G01X-02385Y04186D01*
G01X-02365Y04177D01*
G01X-02344Y04169D01*
G01X-02324Y04160D01*
G01X-02303Y04153D01*
G01X-02282Y04145D01*
G01X-02261Y04139D01*
G01X-02240Y04133D01*
G01X-02219Y04127D01*
G01X-02197Y04122D01*
G01X-02176Y04117D01*
G01X-02154Y04113D01*
G01X-02132Y04110D01*
G01X-02110Y04107D01*
G01X-02088Y04104D01*
G01X-02066Y04102D01*
G01X-02044Y04101D01*
G01X-02022Y04100D01*
G01X-02000Y04100D01*
G01X-01978Y04100D01*
G01X-01956Y04101D01*
G01X-01934Y04102D01*
G01X-01912Y04104D01*
G01X-01890Y04107D01*
G01X-01868Y04110D01*
G01X-01846Y04113D01*
G01X-01824Y04117D01*
G01X-01803Y04122D01*
G01X-01781Y04127D01*
G01X-01760Y04133D01*
G01X-01739Y04139D01*
G01X-01718Y04145D01*
G01X-01697Y04153D01*
G01X-01676Y04160D01*
G01X-01656Y04169D01*
G01X-01635Y04177D01*
G01X-01615Y04186D01*
G01X-01595Y04196D01*
G01X-01576Y04206D01*
G01X-01556Y04217D01*
G01X-01537Y04228D01*
G01X-01519Y04240D01*
G01X-01500Y04252D01*
G01X-01482Y04264D01*
G01X-01464Y04277D01*
G01X-01446Y04290D01*
G01X-01429Y04304D01*
G01X-01412Y04319D01*
G01X-01396Y04333D01*
G01X-01379Y04348D01*
G01X-01364Y04364D01*
G01X-01348Y04379D01*
G01X-01333Y04396D01*
G01X-01319Y04412D01*
G01X-01304Y04429D01*
G01X-01290Y04446D01*
G01X-01277Y04464D01*
G01X-01264Y04482D01*
G01X-01252Y04500D01*
G01X-01240Y04519D01*
G01X-01228Y04537D01*
G01X-01217Y04556D01*
G01X-01206Y04576D01*
G01X-01196Y04595D01*
G01X-01186Y04615D01*
G01X-01177Y04635D01*
G01X-01169Y04656D01*
G01X-01160Y04676D01*
G01X-01153Y04697D01*
G01X-01145Y04718D01*
G01X-01139Y04739D01*
G01X-01133Y04760D01*
G01X-01127Y04781D01*
G01X-01122Y04803D01*
G01X-01117Y04824D01*
G01X-01113Y04846D01*
G01X-01110Y04868D01*
G01X-01107Y04890D01*
G01X-01104Y04912D01*
G01X-01102Y04934D01*
G01X-01101Y04956D01*
G01X-01100Y04978D01*
G01X-01100Y05000D01*
D24*
G01X-02295Y06038D02*
G01X-02295Y06438D01*
G01X-02143Y06438D01*
G01X-02105Y06419D01*
G01X-02086Y06400D01*
G01X-02067Y06362D01*
G01X-02067Y06305D01*
G01X-02086Y06267D01*
G01X-02105Y06248D01*
G01X-02143Y06229D01*
G01X-02295Y06229D01*
D24*
G01X-01724Y06305D02*
G01X-01724Y06038D01*
D24*
G01X-01819Y06457D02*
G01X-01914Y06171D01*
G01X-01667Y06171D01*
D25*
G01X-13100Y05000D02*
G01X-13100Y05000D01*
G01X-13100Y05022D01*
G01X-13101Y05044D01*
G01X-13102Y05066D01*
G01X-13104Y05088D01*
G01X-13107Y05110D01*
G01X-13110Y05132D01*
G01X-13113Y05154D01*
G01X-13117Y05176D01*
G01X-13122Y05197D01*
G01X-13127Y05219D01*
G01X-13133Y05240D01*
G01X-13139Y05261D01*
G01X-13145Y05282D01*
G01X-13153Y05303D01*
G01X-13160Y05324D01*
G01X-13169Y05344D01*
G01X-13177Y05365D01*
G01X-13186Y05385D01*
G01X-13196Y05405D01*
G01X-13206Y05424D01*
G01X-13217Y05444D01*
G01X-13228Y05463D01*
G01X-13240Y05481D01*
G01X-13252Y05500D01*
G01X-13264Y05518D01*
G01X-13277Y05536D01*
G01X-13290Y05554D01*
G01X-13304Y05571D01*
G01X-13319Y05588D01*
G01X-13333Y05604D01*
G01X-13348Y05621D01*
G01X-13364Y05636D01*
G01X-13379Y05652D01*
G01X-13396Y05667D01*
G01X-13412Y05681D01*
G01X-13429Y05696D01*
G01X-13446Y05710D01*
G01X-13464Y05723D01*
G01X-13482Y05736D01*
G01X-13500Y05748D01*
G01X-13519Y05760D01*
G01X-13537Y05772D01*
G01X-13556Y05783D01*
G01X-13576Y05794D01*
G01X-13595Y05804D01*
G01X-13615Y05814D01*
G01X-13635Y05823D01*
G01X-13656Y05831D01*
G01X-13676Y05840D01*
G01X-13697Y05847D01*
G01X-13718Y05855D01*
G01X-13739Y05861D01*
G01X-13760Y05867D01*
G01X-13781Y05873D01*
G01X-13803Y05878D01*
G01X-13824Y05883D01*
G01X-13846Y05887D01*
G01X-13868Y05890D01*
G01X-13890Y05893D01*
G01X-13912Y05896D01*
G01X-13934Y05898D01*
G01X-13956Y05899D01*
G01X-13978Y05900D01*
G01X-14000Y05900D01*
G01X-14022Y05900D01*
G01X-14044Y05899D01*
G01X-14066Y05898D01*
G01X-14088Y05896D01*
G01X-14110Y05893D01*
G01X-14132Y05890D01*
G01X-14154Y05887D01*
G01X-14176Y05883D01*
G01X-14197Y05878D01*
G01X-14219Y05873D01*
G01X-14240Y05867D01*
G01X-14261Y05861D01*
G01X-14282Y05855D01*
G01X-14303Y05847D01*
G01X-14324Y05840D01*
G01X-14344Y05831D01*
G01X-14365Y05823D01*
G01X-14385Y05814D01*
G01X-14405Y05804D01*
G01X-14424Y05794D01*
G01X-14444Y05783D01*
G01X-14463Y05772D01*
G01X-14481Y05760D01*
G01X-14500Y05748D01*
G01X-14518Y05736D01*
G01X-14536Y05723D01*
G01X-14554Y05710D01*
G01X-14571Y05696D01*
G01X-14588Y05681D01*
G01X-14604Y05667D01*
G01X-14621Y05652D01*
G01X-14636Y05636D01*
G01X-14652Y05621D01*
G01X-14667Y05604D01*
G01X-14681Y05588D01*
G01X-14696Y05571D01*
G01X-14710Y05554D01*
G01X-14723Y05536D01*
G01X-14736Y05518D01*
G01X-14748Y05500D01*
G01X-14760Y05481D01*
G01X-14772Y05463D01*
G01X-14783Y05444D01*
G01X-14794Y05424D01*
G01X-14804Y05405D01*
G01X-14814Y05385D01*
G01X-14823Y05365D01*
G01X-14831Y05344D01*
G01X-14840Y05324D01*
G01X-14847Y05303D01*
G01X-14855Y05282D01*
G01X-14861Y05261D01*
G01X-14867Y05240D01*
G01X-14873Y05219D01*
G01X-14878Y05197D01*
G01X-14883Y05176D01*
G01X-14887Y05154D01*
G01X-14890Y05132D01*
G01X-14893Y05110D01*
G01X-14896Y05088D01*
G01X-14898Y05066D01*
G01X-14899Y05044D01*
G01X-14900Y05022D01*
G01X-14900Y05000D01*
G01X-14900Y04978D01*
G01X-14899Y04956D01*
G01X-14898Y04934D01*
G01X-14896Y04912D01*
G01X-14893Y04890D01*
G01X-14890Y04868D01*
G01X-14887Y04846D01*
G01X-14883Y04824D01*
G01X-14878Y04803D01*
G01X-14873Y04781D01*
G01X-14867Y04760D01*
G01X-14861Y04739D01*
G01X-14855Y04718D01*
G01X-14847Y04697D01*
G01X-14840Y04676D01*
G01X-14831Y04656D01*
G01X-14823Y04635D01*
G01X-14814Y04615D01*
G01X-14804Y04595D01*
G01X-14794Y04576D01*
G01X-14783Y04556D01*
G01X-14772Y04537D01*
G01X-14760Y04519D01*
G01X-14748Y04500D01*
G01X-14736Y04482D01*
G01X-14723Y04464D01*
G01X-14710Y04446D01*
G01X-14696Y04429D01*
G01X-14681Y04412D01*
G01X-14667Y04396D01*
G01X-14652Y04379D01*
G01X-14636Y04364D01*
G01X-14621Y04348D01*
G01X-14604Y04333D01*
G01X-14588Y04319D01*
G01X-14571Y04304D01*
G01X-14554Y04290D01*
G01X-14536Y04277D01*
G01X-14518Y04264D01*
G01X-14500Y04252D01*
G01X-14481Y04240D01*
G01X-14463Y04228D01*
G01X-14444Y04217D01*
G01X-14424Y04206D01*
G01X-14405Y04196D01*
G01X-14385Y04186D01*
G01X-14365Y04177D01*
G01X-14344Y04169D01*
G01X-14324Y04160D01*
G01X-14303Y04153D01*
G01X-14282Y04145D01*
G01X-14261Y04139D01*
G01X-14240Y04133D01*
G01X-14219Y04127D01*
G01X-14197Y04122D01*
G01X-14176Y04117D01*
G01X-14154Y04113D01*
G01X-14132Y04110D01*
G01X-14110Y04107D01*
G01X-14088Y04104D01*
G01X-14066Y04102D01*
G01X-14044Y04101D01*
G01X-14022Y04100D01*
G01X-14000Y04100D01*
G01X-13978Y04100D01*
G01X-13956Y04101D01*
G01X-13934Y04102D01*
G01X-13912Y04104D01*
G01X-13890Y04107D01*
G01X-13868Y04110D01*
G01X-13846Y04113D01*
G01X-13824Y04117D01*
G01X-13803Y04122D01*
G01X-13781Y04127D01*
G01X-13760Y04133D01*
G01X-13739Y04139D01*
G01X-13718Y04145D01*
G01X-13697Y04153D01*
G01X-13676Y04160D01*
G01X-13656Y04169D01*
G01X-13635Y04177D01*
G01X-13615Y04186D01*
G01X-13595Y04196D01*
G01X-13576Y04206D01*
G01X-13556Y04217D01*
G01X-13537Y04228D01*
G01X-13519Y04240D01*
G01X-13500Y04252D01*
G01X-13482Y04264D01*
G01X-13464Y04277D01*
G01X-13446Y04290D01*
G01X-13429Y04304D01*
G01X-13412Y04319D01*
G01X-13396Y04333D01*
G01X-13379Y04348D01*
G01X-13364Y04364D01*
G01X-13348Y04379D01*
G01X-13333Y04396D01*
G01X-13319Y04412D01*
G01X-13304Y04429D01*
G01X-13290Y04446D01*
G01X-13277Y04464D01*
G01X-13264Y04482D01*
G01X-13252Y04500D01*
G01X-13240Y04519D01*
G01X-13228Y04537D01*
G01X-13217Y04556D01*
G01X-13206Y04576D01*
G01X-13196Y04595D01*
G01X-13186Y04615D01*
G01X-13177Y04635D01*
G01X-13169Y04656D01*
G01X-13160Y04676D01*
G01X-13153Y04697D01*
G01X-13145Y04718D01*
G01X-13139Y04739D01*
G01X-13133Y04760D01*
G01X-13127Y04781D01*
G01X-13122Y04803D01*
G01X-13117Y04824D01*
G01X-13113Y04846D01*
G01X-13110Y04868D01*
G01X-13107Y04890D01*
G01X-13104Y04912D01*
G01X-13102Y04934D01*
G01X-13101Y04956D01*
G01X-13100Y04978D01*
G01X-13100Y05000D01*
D24*
G01X-14295Y06038D02*
G01X-14295Y06438D01*
G01X-14143Y06438D01*
G01X-14105Y06419D01*
G01X-14086Y06400D01*
G01X-14067Y06362D01*
G01X-14067Y06305D01*
G01X-14086Y06267D01*
G01X-14105Y06248D01*
G01X-14143Y06229D01*
G01X-14295Y06229D01*
D24*
G01X-13705Y06438D02*
G01X-13895Y06438D01*
G01X-13914Y06248D01*
G01X-13895Y06267D01*
G01X-13857Y06286D01*
G01X-13762Y06286D01*
G01X-13724Y06267D01*
G01X-13705Y06248D01*
G01X-13686Y06210D01*
G01X-13686Y06114D01*
G01X-13705Y06076D01*
G01X-13724Y06057D01*
G01X-13762Y06038D01*
G01X-13857Y06038D01*
G01X-13895Y06057D01*
G01X-13914Y06076D01*
D25*
G01X-13100Y-03000D02*
G01X-13100Y-03000D01*
G01X-13100Y-02978D01*
G01X-13101Y-02956D01*
G01X-13102Y-02934D01*
G01X-13104Y-02912D01*
G01X-13107Y-02890D01*
G01X-13110Y-02868D01*
G01X-13113Y-02846D01*
G01X-13117Y-02824D01*
G01X-13122Y-02803D01*
G01X-13127Y-02781D01*
G01X-13133Y-02760D01*
G01X-13139Y-02739D01*
G01X-13145Y-02718D01*
G01X-13153Y-02697D01*
G01X-13160Y-02676D01*
G01X-13169Y-02656D01*
G01X-13177Y-02635D01*
G01X-13186Y-02615D01*
G01X-13196Y-02595D01*
G01X-13206Y-02576D01*
G01X-13217Y-02556D01*
G01X-13228Y-02537D01*
G01X-13240Y-02519D01*
G01X-13252Y-02500D01*
G01X-13264Y-02482D01*
G01X-13277Y-02464D01*
G01X-13290Y-02446D01*
G01X-13304Y-02429D01*
G01X-13319Y-02412D01*
G01X-13333Y-02396D01*
G01X-13348Y-02379D01*
G01X-13364Y-02364D01*
G01X-13379Y-02348D01*
G01X-13396Y-02333D01*
G01X-13412Y-02319D01*
G01X-13429Y-02304D01*
G01X-13446Y-02290D01*
G01X-13464Y-02277D01*
G01X-13482Y-02264D01*
G01X-13500Y-02252D01*
G01X-13519Y-02240D01*
G01X-13537Y-02228D01*
G01X-13556Y-02217D01*
G01X-13576Y-02206D01*
G01X-13595Y-02196D01*
G01X-13615Y-02186D01*
G01X-13635Y-02177D01*
G01X-13656Y-02169D01*
G01X-13676Y-02160D01*
G01X-13697Y-02153D01*
G01X-13718Y-02145D01*
G01X-13739Y-02139D01*
G01X-13760Y-02133D01*
G01X-13781Y-02127D01*
G01X-13803Y-02122D01*
G01X-13824Y-02117D01*
G01X-13846Y-02113D01*
G01X-13868Y-02110D01*
G01X-13890Y-02107D01*
G01X-13912Y-02104D01*
G01X-13934Y-02102D01*
G01X-13956Y-02101D01*
G01X-13978Y-02100D01*
G01X-14000Y-02100D01*
G01X-14022Y-02100D01*
G01X-14044Y-02101D01*
G01X-14066Y-02102D01*
G01X-14088Y-02104D01*
G01X-14110Y-02107D01*
G01X-14132Y-02110D01*
G01X-14154Y-02113D01*
G01X-14176Y-02117D01*
G01X-14197Y-02122D01*
G01X-14219Y-02127D01*
G01X-14240Y-02133D01*
G01X-14261Y-02139D01*
G01X-14282Y-02145D01*
G01X-14303Y-02153D01*
G01X-14324Y-02160D01*
G01X-14344Y-02169D01*
G01X-14365Y-02177D01*
G01X-14385Y-02186D01*
G01X-14405Y-02196D01*
G01X-14424Y-02206D01*
G01X-14444Y-02217D01*
G01X-14463Y-02228D01*
G01X-14481Y-02240D01*
G01X-14500Y-02252D01*
G01X-14518Y-02264D01*
G01X-14536Y-02277D01*
G01X-14554Y-02290D01*
G01X-14571Y-02304D01*
G01X-14588Y-02319D01*
G01X-14604Y-02333D01*
G01X-14621Y-02348D01*
G01X-14636Y-02364D01*
G01X-14652Y-02379D01*
G01X-14667Y-02396D01*
G01X-14681Y-02412D01*
G01X-14696Y-02429D01*
G01X-14710Y-02446D01*
G01X-14723Y-02464D01*
G01X-14736Y-02482D01*
G01X-14748Y-02500D01*
G01X-14760Y-02519D01*
G01X-14772Y-02537D01*
G01X-14783Y-02556D01*
G01X-14794Y-02576D01*
G01X-14804Y-02595D01*
G01X-14814Y-02615D01*
G01X-14823Y-02635D01*
G01X-14831Y-02656D01*
G01X-14840Y-02676D01*
G01X-14847Y-02697D01*
G01X-14855Y-02718D01*
G01X-14861Y-02739D01*
G01X-14867Y-02760D01*
G01X-14873Y-02781D01*
G01X-14878Y-02803D01*
G01X-14883Y-02824D01*
G01X-14887Y-02846D01*
G01X-14890Y-02868D01*
G01X-14893Y-02890D01*
G01X-14896Y-02912D01*
G01X-14898Y-02934D01*
G01X-14899Y-02956D01*
G01X-14900Y-02978D01*
G01X-14900Y-03000D01*
G01X-14900Y-03022D01*
G01X-14899Y-03044D01*
G01X-14898Y-03066D01*
G01X-14896Y-03088D01*
G01X-14893Y-03110D01*
G01X-14890Y-03132D01*
G01X-14887Y-03154D01*
G01X-14883Y-03176D01*
G01X-14878Y-03197D01*
G01X-14873Y-03219D01*
G01X-14867Y-03240D01*
G01X-14861Y-03261D01*
G01X-14855Y-03282D01*
G01X-14847Y-03303D01*
G01X-14840Y-03324D01*
G01X-14831Y-03344D01*
G01X-14823Y-03365D01*
G01X-14814Y-03385D01*
G01X-14804Y-03405D01*
G01X-14794Y-03424D01*
G01X-14783Y-03444D01*
G01X-14772Y-03463D01*
G01X-14760Y-03481D01*
G01X-14748Y-03500D01*
G01X-14736Y-03518D01*
G01X-14723Y-03536D01*
G01X-14710Y-03554D01*
G01X-14696Y-03571D01*
G01X-14681Y-03588D01*
G01X-14667Y-03604D01*
G01X-14652Y-03621D01*
G01X-14636Y-03636D01*
G01X-14621Y-03652D01*
G01X-14604Y-03667D01*
G01X-14588Y-03681D01*
G01X-14571Y-03696D01*
G01X-14554Y-03710D01*
G01X-14536Y-03723D01*
G01X-14518Y-03736D01*
G01X-14500Y-03748D01*
G01X-14481Y-03760D01*
G01X-14463Y-03772D01*
G01X-14444Y-03783D01*
G01X-14424Y-03794D01*
G01X-14405Y-03804D01*
G01X-14385Y-03814D01*
G01X-14365Y-03823D01*
G01X-14344Y-03831D01*
G01X-14324Y-03840D01*
G01X-14303Y-03847D01*
G01X-14282Y-03855D01*
G01X-14261Y-03861D01*
G01X-14240Y-03867D01*
G01X-14219Y-03873D01*
G01X-14197Y-03878D01*
G01X-14176Y-03883D01*
G01X-14154Y-03887D01*
G01X-14132Y-03890D01*
G01X-14110Y-03893D01*
G01X-14088Y-03896D01*
G01X-14066Y-03898D01*
G01X-14044Y-03899D01*
G01X-14022Y-03900D01*
G01X-14000Y-03900D01*
G01X-13978Y-03900D01*
G01X-13956Y-03899D01*
G01X-13934Y-03898D01*
G01X-13912Y-03896D01*
G01X-13890Y-03893D01*
G01X-13868Y-03890D01*
G01X-13846Y-03887D01*
G01X-13824Y-03883D01*
G01X-13803Y-03878D01*
G01X-13781Y-03873D01*
G01X-13760Y-03867D01*
G01X-13739Y-03861D01*
G01X-13718Y-03855D01*
G01X-13697Y-03847D01*
G01X-13676Y-03840D01*
G01X-13656Y-03831D01*
G01X-13635Y-03823D01*
G01X-13615Y-03814D01*
G01X-13595Y-03804D01*
G01X-13576Y-03794D01*
G01X-13556Y-03783D01*
G01X-13537Y-03772D01*
G01X-13519Y-03760D01*
G01X-13500Y-03748D01*
G01X-13482Y-03736D01*
G01X-13464Y-03723D01*
G01X-13446Y-03710D01*
G01X-13429Y-03696D01*
G01X-13412Y-03681D01*
G01X-13396Y-03667D01*
G01X-13379Y-03652D01*
G01X-13364Y-03636D01*
G01X-13348Y-03621D01*
G01X-13333Y-03604D01*
G01X-13319Y-03588D01*
G01X-13304Y-03571D01*
G01X-13290Y-03554D01*
G01X-13277Y-03536D01*
G01X-13264Y-03518D01*
G01X-13252Y-03500D01*
G01X-13240Y-03481D01*
G01X-13228Y-03463D01*
G01X-13217Y-03444D01*
G01X-13206Y-03424D01*
G01X-13196Y-03405D01*
G01X-13186Y-03385D01*
G01X-13177Y-03365D01*
G01X-13169Y-03344D01*
G01X-13160Y-03324D01*
G01X-13153Y-03303D01*
G01X-13145Y-03282D01*
G01X-13139Y-03261D01*
G01X-13133Y-03240D01*
G01X-13127Y-03219D01*
G01X-13122Y-03197D01*
G01X-13117Y-03176D01*
G01X-13113Y-03154D01*
G01X-13110Y-03132D01*
G01X-13107Y-03110D01*
G01X-13104Y-03088D01*
G01X-13102Y-03066D01*
G01X-13101Y-03044D01*
G01X-13100Y-03022D01*
G01X-13100Y-03000D01*
D24*
G01X-14295Y-01962D02*
G01X-14295Y-01562D01*
G01X-14143Y-01562D01*
G01X-14105Y-01581D01*
G01X-14086Y-01600D01*
G01X-14067Y-01638D01*
G01X-14067Y-01695D01*
G01X-14086Y-01733D01*
G01X-14105Y-01752D01*
G01X-14143Y-01771D01*
G01X-14295Y-01771D01*
D24*
G01X-13724Y-01562D02*
G01X-13800Y-01562D01*
G01X-13838Y-01581D01*
G01X-13857Y-01600D01*
G01X-13895Y-01657D01*
G01X-13914Y-01733D01*
G01X-13914Y-01886D01*
G01X-13895Y-01924D01*
G01X-13876Y-01943D01*
G01X-13838Y-01962D01*
G01X-13762Y-01962D01*
G01X-13724Y-01943D01*
G01X-13705Y-01924D01*
G01X-13686Y-01886D01*
G01X-13686Y-01790D01*
G01X-13705Y-01752D01*
G01X-13724Y-01733D01*
G01X-13762Y-01714D01*
G01X-13838Y-01714D01*
G01X-13876Y-01733D01*
G01X-13895Y-01752D01*
G01X-13914Y-01790D01*
D11*
G01X-08850Y-02400D02*
G01X-08850Y-03300D01*
D11*
G01X-08850Y-03300D02*
G01X-08200Y-03300D01*
D11*
G01X-07500Y-02400D02*
G01X-06850Y-02400D01*
D11*
G01X-06850Y-02400D02*
G01X-06850Y-03300D01*
D11*
G01X-06850Y-03300D02*
G01X-07500Y-03300D01*
D11*
G01X-08200Y-02400D02*
G01X-08850Y-02400D01*
D11*
G01X-07900Y-02971D02*
G01X-08043Y-02971D01*
G01X-08043Y-02671D01*
D11*
G01X-07643Y-02971D02*
G01X-07814Y-02971D01*
D11*
G01X-07729Y-02971D02*
G01X-07729Y-02671D01*
G01X-07757Y-02714D01*
G01X-07786Y-02743D01*
G01X-07814Y-02757D01*
D12*
G01X-08368Y-00041D02*
G01X-07732Y-00041D01*
D12*
G01X-07732Y-01159D02*
G01X-08368Y-01159D01*
D12*
G01X-08368Y-00805D02*
G01X-08368Y-00395D01*
D12*
G01X-07732Y-00768D02*
G01X-07732Y-00805D01*
D12*
G01X-07732Y-00395D02*
G01X-07732Y-00432D01*
D12*
G01X-07732Y-01122D02*
G01X-07732Y-01159D01*
D12*
G01X-07732Y-00041D02*
G01X-07732Y-00078D01*
D12*
G01X-08368Y-00078D02*
G01X-08368Y-00041D01*
D12*
G01X-08368Y-01159D02*
G01X-08368Y-01122D01*
D12*
G01X-06074Y-02249D02*
G01X-06074Y-00451D01*
D12*
G01X-04926Y-02249D02*
G01X-04926Y-00451D01*
D12*
G01X-05917Y-01546D02*
G01X-05500Y-01546D01*
D12*
G01X-05500Y-01546D02*
G01X-05083Y-01546D01*
D12*
G01X-05083Y-01130D02*
G01X-05500Y-01546D01*
D12*
G01X-05500Y-01546D02*
G01X-05917Y-01130D01*
D12*
G01X-05917Y-01130D02*
G01X-05083Y-01130D01*
D22*
G01X-14450Y02050D02*
G01X-13450Y02050D01*
D22*
G01X-13450Y02050D02*
G01X-13450Y00050D01*
D22*
G01X-13450Y00050D02*
G01X-14450Y00050D01*
D22*
G01X-14450Y00050D02*
G01X-14450Y02050D01*
D22*
G01X-12777Y00547D02*
G01X-13205Y00547D01*
G01X-13205Y00807D01*
G01X-13184Y00872D01*
G01X-13164Y00904D01*
G01X-13123Y00937D01*
G01X-13062Y00937D01*
G01X-13021Y00904D01*
G01X-13001Y00872D01*
G01X-12981Y00807D01*
G01X-12981Y00547D01*
D22*
G01X-12777Y01585D02*
G01X-12777Y01196D01*
D22*
G01X-12777Y01391D02*
G01X-13205Y01391D01*
G01X-13144Y01326D01*
G01X-13103Y01261D01*
G01X-13082Y01196D01*
M02*
