<?xml version="1.0" standalone="no"?>
<!DOCTYPE svg PUBLIC "-//W3C//DTD SVG 1.1//EN" "http://www.w3.org/Graphics/SVG/1.1/DTD/svg11.dtd">
<svg width="87mm" height="94mm" viewBox="-30 -49 87 94" xmlns="http://www.w3.org/2000/svg" version="1.1">
<title>OpenSCAD Model</title>
<path d="
M 24.525,-48.06 L 21.475,-48.06 L 21.475,-31.94 L 24.525,-31.94 z
M 17.5,-47.5 L 13.065,-47.5 L 13.065,-40 L 9.935,-40 L 9.935,-47.5 L -17.5,-47.5
 L -17.5,-32.5 L 17.5,-32.5 z
M -13.925,-38.535 L -13.925,-41.465 L -11.075,-41.465 L -11.075,-38.535 z
M 44.0979,11.3604 L 46.1152,10.7485 L 47.9743,9.75475 L 49.6039,8.4174 L 50.9412,6.78786 L 51.935,4.92871
 L 52.3792,3.46422 L 52.6055,3.58516 L 53.1682,3.75587 L 53.7535,3.81351 L 54.3388,3.75587 L 54.9016,3.58516
 L 55.4202,3.30792 L 55.8748,2.93483 L 56.2479,2.48022 L 56.5251,1.96156 L 56.6959,1.39879 L 56.7535,0.813507
 L 56.6959,0.228241 L 56.5251,-0.334534 L 56.2479,-0.853195 L 55.8748,-1.3078 L 55.4202,-1.68089 L 54.9016,-1.95813
 L 54.3388,-2.12885 L 53.7535,-2.18649 L 53.1682,-2.12885 L 52.6055,-1.95813 L 52.3792,-1.83719 L 51.935,-3.30168
 L 51.5,-4.11542 L 51.5,-27.8846 L 51.935,-28.6983 L 52.3792,-30.1628 L 52.6055,-30.0419 L 53.1682,-29.8712
 L 53.7535,-29.8135 L 54.3388,-29.8712 L 54.9016,-30.0419 L 55.4202,-30.3191 L 55.8748,-30.6922 L 56.2479,-31.1468
 L 56.5251,-31.6655 L 56.6959,-32.2282 L 56.7535,-32.8135 L 56.6959,-33.3988 L 56.5251,-33.9616 L 56.2479,-34.4802
 L 55.8748,-34.9348 L 55.4202,-35.3079 L 54.9016,-35.5852 L 54.3388,-35.7559 L 53.7535,-35.8135 L 53.1682,-35.7559
 L 52.6055,-35.5852 L 52.3792,-35.4642 L 51.935,-36.9287 L 50.9412,-38.7879 L 49.6039,-40.4174 L 47.9743,-41.7547
 L 46.1152,-42.7485 L 44.0979,-43.3604 L 42,-43.567 L 39.9021,-43.3604 L 37.8848,-42.7485 L 36.0257,-41.7547
 L 34.3961,-40.4174 L 33.0588,-38.7879 L 32.065,-36.9287 L 31.6208,-35.4642 L 31.3945,-35.5852 L 30.8318,-35.7559
 L 30.2465,-35.8135 L 29.6612,-35.7559 L 29.0984,-35.5852 L 28.5798,-35.3079 L 28.1252,-34.9348 L 27.7521,-34.4802
 L 27.4749,-33.9616 L 27.3041,-33.3988 L 27.2465,-32.8135 L 27.3041,-32.2282 L 27.4749,-31.6655 L 27.7521,-31.1468
 L 28.1252,-30.6922 L 28.5798,-30.3191 L 29.0984,-30.0419 L 29.6612,-29.8712 L 30.2465,-29.8135 L 30.8318,-29.8712
 L 31.3945,-30.0419 L 31.6208,-30.1628 L 32.065,-28.6983 L 32.5,-27.8846 L 32.5,-22.495 L 42.25,-22.495
 L 42.25,-19.365 L 32.5,-19.365 L 32.5,-12.635 L 42.25,-12.635 L 42.25,-9.505 L 32.5,-9.505
 L 32.5,-4.11542 L 32.065,-3.30168 L 31.6208,-1.83719 L 31.3945,-1.95813 L 30.8318,-2.12885 L 30.2465,-2.18649
 L 29.6612,-2.12885 L 29.0984,-1.95813 L 28.5798,-1.68089 L 28.1252,-1.3078 L 27.7521,-0.853195 L 27.4749,-0.334534
 L 27.3041,0.228241 L 27.2465,0.813507 L 27.3041,1.39879 L 27.4749,1.96156 L 27.7521,2.48022 L 28.1252,2.93483
 L 28.5798,3.30792 L 29.0984,3.58516 L 29.6612,3.75587 L 30.2465,3.81351 L 30.8318,3.75587 L 31.3945,3.58516
 L 31.6208,3.46422 L 32.065,4.92871 L 33.0588,6.78786 L 34.3961,8.4174 L 36.0257,9.75475 L 37.8848,10.7485
 L 39.9021,11.3604 L 42,11.567 z
M 40.2923,-24.2282 L 38.6502,-24.7263 L 37.1368,-25.5352 L 35.8103,-26.6238 L 34.7217,-27.9503 L 33.9128,-29.4637
 L 33.4147,-31.1058 L 33.2465,-32.8135 L 33.4147,-34.5212 L 33.9128,-36.1633 L 34.7217,-37.6767 L 35.8103,-39.0032
 L 37.1368,-40.0918 L 38.6502,-40.9007 L 40.2923,-41.3988 L 42,-41.567 L 43.7077,-41.3988 L 45.3498,-40.9007
 L 46.8632,-40.0918 L 48.1897,-39.0032 L 49.2783,-37.6767 L 50.0872,-36.1633 L 50.5853,-34.5212 L 50.7535,-32.8135
 L 50.5853,-31.1058 L 50.0872,-29.4637 L 49.2783,-27.9503 L 48.1897,-26.6238 L 46.8632,-25.5352 L 45.3498,-24.7263
 L 43.7077,-24.2282 L 42,-24.06 z
M 53.4609,-31.3423 L 53.1795,-31.4277 L 52.9202,-31.5663 L 52.6929,-31.7529 L 52.5063,-31.9802 L 52.3677,-32.2395
 L 52.2823,-32.5209 L 52.2535,-32.8135 L 52.2823,-33.1062 L 52.3677,-33.3875 L 52.5063,-33.6469 L 52.6929,-33.8742
 L 52.9202,-34.0607 L 53.1795,-34.1993 L 53.4609,-34.2847 L 53.7535,-34.3135 L 54.0461,-34.2847 L 54.3275,-34.1993
 L 54.5869,-34.0607 L 54.8142,-33.8742 L 55.0007,-33.6469 L 55.1393,-33.3875 L 55.2247,-33.1062 L 55.2535,-32.8135
 L 55.2247,-32.5209 L 55.1393,-32.2395 L 55.0007,-31.9802 L 54.8142,-31.7529 L 54.5869,-31.5663 L 54.3275,-31.4277
 L 54.0461,-31.3423 L 53.7535,-31.3135 z
M 29.9539,-31.3423 L 29.6725,-31.4277 L 29.4131,-31.5663 L 29.1858,-31.7529 L 28.9993,-31.9802 L 28.8607,-32.2395
 L 28.7753,-32.5209 L 28.7465,-32.8135 L 28.7753,-33.1062 L 28.8607,-33.3875 L 28.9993,-33.6469 L 29.1858,-33.8742
 L 29.4131,-34.0607 L 29.6725,-34.1993 L 29.9539,-34.2847 L 30.2465,-34.3135 L 30.5391,-34.2847 L 30.8205,-34.1993
 L 31.0798,-34.0607 L 31.3071,-33.8742 L 31.4937,-33.6469 L 31.6323,-33.3875 L 31.7177,-33.1062 L 31.7465,-32.8135
 L 31.7177,-32.5209 L 31.6323,-32.2395 L 31.4937,-31.9802 L 31.3071,-31.7529 L 31.0798,-31.5663 L 30.8205,-31.4277
 L 30.5391,-31.3423 L 30.2465,-31.3135 z
M 40.2923,9.39883 L 38.6502,8.90071 L 37.1368,8.0918 L 35.8103,7.00319 L 34.7217,5.67671 L 33.9128,4.16335
 L 33.4147,2.52124 L 33.2465,0.813507 L 33.4147,-0.894211 L 33.9128,-2.53632 L 34.7217,-4.04968 L 35.8103,-5.37616
 L 37.1368,-6.46477 L 38.6502,-7.27368 L 40.2923,-7.7718 L 42,-7.94 L 43.7077,-7.7718 L 45.3498,-7.27368
 L 46.8632,-6.46477 L 48.1897,-5.37616 L 49.2783,-4.04968 L 50.0872,-2.53632 L 50.5853,-0.894211 L 50.7535,0.813507
 L 50.5853,2.52124 L 50.0872,4.16335 L 49.2783,5.67671 L 48.1897,7.00319 L 46.8632,8.0918 L 45.3498,8.90071
 L 43.7077,9.39883 L 42,9.56703 z
M 53.4609,2.2847 L 53.1795,2.19934 L 52.9202,2.06071 L 52.6929,1.87418 L 52.5063,1.64687 L 52.3677,1.38754
 L 52.2823,1.10616 L 52.2535,0.813507 L 52.2823,0.520874 L 52.3677,0.239487 L 52.5063,-0.0198364 L 52.6929,-0.247147
 L 52.9202,-0.433685 L 53.1795,-0.572311 L 53.4609,-0.657669 L 53.7535,-0.686493 L 54.0461,-0.657669 L 54.3275,-0.572311
 L 54.5869,-0.433685 L 54.8142,-0.247147 L 55.0007,-0.0198364 L 55.1393,0.239487 L 55.2247,0.520874 L 55.2535,0.813507
 L 55.2247,1.10616 L 55.1393,1.38754 L 55.0007,1.64687 L 54.8142,1.87418 L 54.5869,2.06071 L 54.3275,2.19934
 L 54.0461,2.2847 L 53.7535,2.31351 z
M 29.9539,2.2847 L 29.6725,2.19934 L 29.4131,2.06071 L 29.1858,1.87418 L 28.9993,1.64687 L 28.8607,1.38754
 L 28.7753,1.10616 L 28.7465,0.813507 L 28.7753,0.520874 L 28.8607,0.239487 L 28.9993,-0.0198364 L 29.1858,-0.247147
 L 29.4131,-0.433685 L 29.6725,-0.572311 L 29.9539,-0.657669 L 30.2465,-0.686493 L 30.5391,-0.657669 L 30.8205,-0.572311
 L 31.0798,-0.433685 L 31.3071,-0.247147 L 31.4937,-0.0198364 L 31.6323,0.239487 L 31.7177,0.520874 L 31.7465,0.813507
 L 31.7177,1.10616 L 31.6323,1.38754 L 31.4937,1.64687 L 31.3071,1.87418 L 31.0798,2.06071 L 30.8205,2.19934
 L 30.5391,2.2847 L 30.2465,2.31351 z
M 24.525,-28.06 L 21.475,-28.06 L 21.475,-11.94 L 24.525,-11.94 z
M 17.5,-27.5 L 13.065,-27.5 L 13.065,-20 L 9.935,-20 L 9.935,-27.5 L -17.5,-27.5
 L -17.5,-12.5 L 17.5,-12.5 z
M -13.925,-18.535 L -13.925,-21.465 L -11.075,-21.465 L -11.075,-18.535 z
M 15,9.44795 L 15.993,9.44795 L 17.9357,9.03503 L 19.75,8.22723 L 21.3567,7.05988 L 22.6857,5.58395
 L 23.6787,3.86398 L 24.2924,1.97516 L 24.5,-0 L 24.2924,-1.97516 L 23.6787,-3.86398 L 22.6857,-5.58395
 L 21.3567,-7.05988 L 19.75,-8.22723 L 17.9357,-9.03503 L 15.993,-9.44795 L 15,-9.44795 L 15,-9.5
 L 1.56499,-9.5 L 1.56499,-0 L -1.56499,-0 L -1.56499,-9.5 L -15,-9.5 L -15,-9.39238
 L -15.398,-9.27164 L -15.9167,-8.9944 L -16.3713,-8.62131 L -16.7444,-8.1667 L -17.0216,-7.64804 L -17.1924,-7.08527
 L -17.25,-6.5 L -17.1924,-5.91472 L -17.0216,-5.35194 L -16.7444,-4.83328 L -16.3713,-4.37868 L -15.9167,-4.00558
 L -15.398,-3.72835 L -15,-3.6076 L -15,-3.5 L -14.3172,-3.43274 L -13.6606,-3.23357 L -13.0555,-2.91014
 L -12.5251,-2.47487 L -12.0898,-1.94449 L -11.7664,-1.33939 L -11.5672,-0.682816 L -11.5,-0 L -11.5672,0.682816
 L -11.7664,1.33939 L -12.0898,1.94449 L -12.5251,2.47487 L -13.0555,2.91014 L -13.6606,3.23357 L -14.3172,3.43274
 L -15,3.5 L -15,3.6076 L -15.398,3.72835 L -15.9167,4.00558 L -16.3713,4.37868 L -16.7444,4.83328
 L -17.0216,5.35194 L -17.1924,5.91472 L -17.25,6.5 L -17.1924,7.08527 L -17.0216,7.64804 L -16.7444,8.1667
 L -16.3713,8.62131 L -15.9167,8.9944 L -15.398,9.27164 L -15,9.39238 L -15,9.5 L 15,9.5
 z
M -14.5426,-5.02881 L -14.824,-5.11417 L -15.0833,-5.25279 L -15.3107,-5.43933 L -15.4972,-5.66664 L -15.6358,-5.92596
 L -15.7212,-6.20735 L -15.75,-6.5 L -15.7212,-6.79263 L -15.6358,-7.07402 L -15.4972,-7.33334 L -15.3107,-7.56065
 L -15.0833,-7.74719 L -14.824,-7.88582 L -14.5426,-7.97118 L -14.25,-8 L -13.9574,-7.97118 L -13.676,-7.88582
 L -13.4166,-7.74719 L -13.1893,-7.56065 L -13.0028,-7.33334 L -12.8642,-7.07402 L -12.7788,-6.79263 L -12.75,-6.5
 L -12.7788,-6.20735 L -12.8642,-5.92596 L -13.0028,-5.66664 L -13.1893,-5.43933 L -13.4166,-5.25279 L -13.676,-5.11417
 L -13.9574,-5.02881 L -14.25,-5 z
M 13.0589,7.24443 L 11.25,6.49518 L 9.69669,5.3033 L 8.50481,3.75 L 7.75555,1.94113 L 7.5,-0
 L 7.75555,-1.94113 L 8.50481,-3.75 L 9.69669,-5.3033 L 11.25,-6.49518 L 13.0589,-7.24443 L 15,-7.5
 L 16.9411,-7.24443 L 18.75,-6.49518 L 20.3033,-5.3033 L 21.4952,-3.75 L 22.2444,-1.94113 L 22.5,-0
 L 22.2444,1.94113 L 21.4952,3.75 L 20.3033,5.3033 L 18.75,6.49518 L 16.9411,7.24443 L 15,7.5
 z
M -14.5426,7.97118 L -14.824,7.88582 L -15.0833,7.74719 L -15.3107,7.56065 L -15.4972,7.33334 L -15.6358,7.07402
 L -15.7212,6.79263 L -15.75,6.5 L -15.7212,6.20735 L -15.6358,5.92596 L -15.4972,5.66664 L -15.3107,5.43933
 L -15.0833,5.25279 L -14.824,5.11417 L -14.5426,5.02881 L -14.25,5 L -13.9574,5.02881 L -13.676,5.11417
 L -13.4166,5.25279 L -13.1893,5.43933 L -13.0028,5.66664 L -12.8642,5.92596 L -12.7788,6.20735 L -12.75,6.5
 L -12.7788,6.79263 L -12.8642,7.07402 L -13.0028,7.33334 L -13.1893,7.56065 L -13.4166,7.74719 L -13.676,7.88582
 L -13.9574,7.97118 L -14.25,8 z
M 17.6253,44.2874 L 18.1881,44.1167 L 18.7068,43.8395 L 19.1614,43.4664 L 19.5345,43.0118 L 19.8117,42.4931
 L 19.9824,41.9303 L 20.0401,41.3451 L 19.9824,40.7598 L 19.8117,40.197 L 19.72,40.0255 L 21.7643,39.4053
 L 23.8986,38.2645 L 25.7693,36.7293 L 27.3046,34.8586 L 28.4454,32.7242 L 29.1479,30.4084 L 29.3851,28
 L 29.1479,25.5916 L 28.4454,23.2758 L 27.3046,21.1414 L 25.7693,19.2707 L 23.8986,17.7355 L 21.7643,16.5947
 L 19.72,15.9745 L 19.8117,15.803 L 19.9824,15.2402 L 20.0401,14.6549 L 19.9824,14.0697 L 19.8117,13.5069
 L 19.5345,12.9882 L 19.1614,12.5336 L 18.7068,12.1605 L 18.1881,11.8833 L 17.6253,11.7126 L 17.0401,11.6549
 L 16.4548,11.7126 L 15.892,11.8833 L 15.3734,12.1605 L 14.9187,12.5336 L 14.5457,12.9882 L 14.2684,13.5069
 L 14.0977,14.0697 L 14.0401,14.6549 L 14.0977,15.2402 L 14.2684,15.803 L 14.3601,15.9745 L 12.3158,16.5947
 L 10.1815,17.7355 L 9.24991,18.5 L 1.56499,18.5 L 1.56499,28.25 L -1.56499,28.25 L -1.56499,18.5
 L -9.24991,18.5 L -10.1815,17.7355 L -12.3158,16.5947 L -14.3601,15.9745 L -14.2684,15.803 L -14.0977,15.2402
 L -14.0401,14.6549 L -14.0977,14.0697 L -14.2684,13.5069 L -14.5457,12.9882 L -14.9187,12.5336 L -15.3734,12.1605
 L -15.892,11.8833 L -16.4548,11.7126 L -17.0401,11.6549 L -17.6253,11.7126 L -18.1881,11.8833 L -18.7068,12.1605
 L -19.1614,12.5336 L -19.5345,12.9882 L -19.8117,13.5069 L -19.9824,14.0697 L -20.0401,14.6549 L -19.9824,15.2402
 L -19.8117,15.803 L -19.72,15.9745 L -21.7643,16.5947 L -23.8986,17.7355 L -25.7693,19.2707 L -27.3046,21.1414
 L -28.4454,23.2758 L -29.1479,25.5916 L -29.3851,28 L -29.1479,30.4084 L -28.4454,32.7242 L -27.3046,34.8586
 L -25.7693,36.7293 L -23.8986,38.2645 L -21.7643,39.4053 L -19.72,40.0255 L -19.8117,40.197 L -19.9824,40.7598
 L -20.0401,41.3451 L -19.9824,41.9303 L -19.8117,42.4931 L -19.5345,43.0118 L -19.1614,43.4664 L -18.7068,43.8395
 L -18.1881,44.1167 L -17.6253,44.2874 L -17.0401,44.3451 L -16.4548,44.2874 L -15.892,44.1167 L -15.3734,43.8395
 L -14.9187,43.4664 L -14.5457,43.0118 L -14.2684,42.4931 L -14.0977,41.9303 L -14.0401,41.3451 L -14.0977,40.7598
 L -14.2684,40.197 L -14.3601,40.0255 L -12.3158,39.4053 L -10.1815,38.2645 L -9.24991,37.5 L 9.24991,37.5
 L 10.1815,38.2645 L 12.3158,39.4053 L 14.3601,40.0255 L 14.2684,40.197 L 14.0977,40.7598 L 14.0401,41.3451
 L 14.0977,41.9303 L 14.2684,42.4931 L 14.5457,43.0118 L 14.9187,43.4664 L 15.3734,43.8395 L 15.892,44.1167
 L 16.4548,44.2874 L 17.0401,44.3451 z
M 16.7474,16.1261 L 16.466,16.0408 L 16.2067,15.9021 L 15.9794,15.7156 L 15.7929,15.4883 L 15.6543,15.229
 L 15.5689,14.9476 L 15.5401,14.6549 L 15.5689,14.3623 L 15.6543,14.0809 L 15.7929,13.8216 L 15.9794,13.5943
 L 16.2067,13.4077 L 16.466,13.2691 L 16.7474,13.1838 L 17.0401,13.1549 L 17.3327,13.1838 L 17.6141,13.2691
 L 17.8734,13.4077 L 18.1007,13.5943 L 18.2873,13.8216 L 18.4259,14.0809 L 18.5112,14.3623 L 18.5401,14.6549
 L 18.5112,14.9476 L 18.4259,15.229 L 18.2873,15.4883 L 18.1007,15.7156 L 17.8734,15.9021 L 17.6141,16.0408
 L 17.3327,16.1261 L 17.0401,16.1549 z
M -17.3327,16.1261 L -17.6141,16.0408 L -17.8734,15.9021 L -18.1007,15.7156 L -18.2873,15.4883 L -18.4259,15.229
 L -18.5112,14.9476 L -18.5401,14.6549 L -18.5112,14.3623 L -18.4259,14.0809 L -18.2873,13.8216 L -18.1007,13.5943
 L -17.8734,13.4077 L -17.6141,13.2691 L -17.3327,13.1838 L -17.0401,13.1549 L -16.7474,13.1838 L -16.466,13.2691
 L -16.2067,13.4077 L -15.9794,13.5943 L -15.7929,13.8216 L -15.6543,14.0809 L -15.5689,14.3623 L -15.5401,14.6549
 L -15.5689,14.9476 L -15.6543,15.229 L -15.7929,15.4883 L -15.9794,15.7156 L -16.2067,15.9021 L -16.466,16.0408
 L -16.7474,16.1261 L -17.0401,16.1549 z
M 15.0218,38.1463 L 13.0812,37.5576 L 11.2926,36.6016 L 9.72499,35.3151 L 8.43845,33.7474 L 7.48247,31.9589
 L 6.89377,30.0182 L 6.69499,28 L 6.89377,25.9818 L 7.48247,24.0411 L 8.43845,22.2526 L 9.72499,20.6849
 L 11.2926,19.3984 L 13.0812,18.4424 L 15.0218,17.8537 L 17.0401,17.6549 L 19.0583,17.8537 L 20.9989,18.4424
 L 22.7875,19.3984 L 24.3551,20.6849 L 25.6417,22.2526 L 26.5977,24.0411 L 27.1864,25.9818 L 27.3851,28
 L 27.1864,30.0182 L 26.5977,31.9589 L 25.6417,33.7474 L 24.3551,35.3151 L 22.7875,36.6016 L 20.9989,37.5576
 L 19.0583,38.1463 L 17.0401,38.3451 z
M -19.0583,38.1463 L -20.9989,37.5576 L -22.7875,36.6016 L -24.3551,35.3151 L -25.6417,33.7474 L -26.5977,31.9589
 L -27.1864,30.0182 L -27.3851,28 L -27.1864,25.9818 L -26.5977,24.0411 L -25.6417,22.2526 L -24.3551,20.6849
 L -22.7875,19.3984 L -20.9989,18.4424 L -19.0583,17.8537 L -17.0401,17.6549 L -15.0218,17.8537 L -13.0812,18.4424
 L -11.2926,19.3984 L -9.72499,20.6849 L -8.43845,22.2526 L -7.48247,24.0411 L -6.89377,25.9818 L -6.69499,28
 L -6.89377,30.0182 L -7.48247,31.9589 L -8.43845,33.7474 L -9.72499,35.3151 L -11.2926,36.6016 L -13.0812,37.5576
 L -15.0218,38.1463 L -17.0401,38.3451 z
M 16.7474,42.8162 L 16.466,42.7309 L 16.2067,42.5923 L 15.9794,42.4057 L 15.7929,42.1784 L 15.6543,41.9191
 L 15.5689,41.6377 L 15.5401,41.3451 L 15.5689,41.0524 L 15.6543,40.771 L 15.7929,40.5117 L 15.9794,40.2844
 L 16.2067,40.0979 L 16.466,39.9592 L 16.7474,39.8739 L 17.0401,39.8451 L 17.3327,39.8739 L 17.6141,39.9592
 L 17.8734,40.0979 L 18.1007,40.2844 L 18.2873,40.5117 L 18.4259,40.771 L 18.5112,41.0524 L 18.5401,41.3451
 L 18.5112,41.6377 L 18.4259,41.9191 L 18.2873,42.1784 L 18.1007,42.4057 L 17.8734,42.5923 L 17.6141,42.7309
 L 17.3327,42.8162 L 17.0401,42.8451 z
M -17.3327,42.8162 L -17.6141,42.7309 L -17.8734,42.5923 L -18.1007,42.4057 L -18.2873,42.1784 L -18.4259,41.9191
 L -18.5112,41.6377 L -18.5401,41.3451 L -18.5112,41.0524 L -18.4259,40.771 L -18.2873,40.5117 L -18.1007,40.2844
 L -17.8734,40.0979 L -17.6141,39.9592 L -17.3327,39.8739 L -17.0401,39.8451 L -16.7474,39.8739 L -16.466,39.9592
 L -16.2067,40.0979 L -15.9794,40.2844 L -15.7929,40.5117 L -15.6543,40.771 L -15.5689,41.0524 L -15.5401,41.3451
 L -15.5689,41.6377 L -15.6543,41.9191 L -15.7929,42.1784 L -15.9794,42.4057 L -16.2067,42.5923 L -16.466,42.7309
 L -16.7474,42.8162 L -17.0401,42.8451 z
" stroke="black" fill="none" stroke-width="0.5"/>
</svg>
