<?xml version="1.0" standalone="no"?>
<!DOCTYPE svg PUBLIC "-//W3C//DTD SVG 1.1//EN" "http://www.w3.org/Graphics/SVG/1.1/DTD/svg11.dtd">
<svg width="85mm" height="89mm" viewBox="-34 -49 85 89" xmlns="http://www.w3.org/2000/svg" version="1.1">
<title>OpenSCAD Model</title>
<path d="
M 21.525,-48.06 L 18.475,-48.06 L 18.475,-31.94 L 21.525,-31.94 z
M 17.5,-47.5 L 1.56499,-47.5 L 1.56499,-40 L -1.56499,-40 L -1.56499,-47.5 L -17.5,-47.5
 L -17.5,-32.5 L 17.5,-32.5 z
M -14.025,-38.435 L -14.025,-41.565 L -10.975,-41.565 L -10.975,-38.435 z
M 10.975,-38.435 L 10.975,-41.565 L 14.025,-41.565 L 14.025,-38.435 z
M 41.8627,14.4482 L 45.3473,12.6727 L 48.1127,9.9073 L 49.8882,6.4227 L 50.5,2.56 L 49.8882,-1.30272
 L 48.1127,-4.78732 L 47.5,-5.40002 L 47.5,-26.6 L 48.1127,-27.2127 L 49.8882,-30.6973 L 50.5,-34.56
 L 49.8882,-38.4227 L 48.1127,-41.9073 L 45.3473,-44.6727 L 41.8627,-46.4482 L 38,-47.06 L 34.1373,-46.4482
 L 30.6527,-44.6727 L 27.8873,-41.9073 L 26.1118,-38.4227 L 25.5,-34.56 L 26.1118,-30.6973 L 27.8873,-27.2127
 L 28.5,-26.6 L 28.5,-22.495 L 38.25,-22.495 L 38.25,-19.365 L 28.5,-19.365 L 28.5,-12.635
 L 38.25,-12.635 L 38.25,-9.505 L 28.5,-9.505 L 28.5,-5.40002 L 27.8873,-4.78732 L 26.1118,-1.30272
 L 25.5,2.56 L 26.1118,6.4227 L 27.8873,9.9073 L 30.6527,12.6727 L 34.1373,14.4482 L 38,15.06
 z
M 34.7553,-24.5739 L 31.8283,-26.0653 L 29.5053,-28.3882 L 28.0139,-31.3153 L 27.5,-34.56 L 28.0139,-37.8047
 L 29.5053,-40.7317 L 31.8283,-43.0547 L 34.7553,-44.5461 L 38,-45.06 L 41.2447,-44.5461 L 44.1717,-43.0547
 L 46.4947,-40.7317 L 47.9861,-37.8047 L 48.5,-34.56 L 47.9861,-31.3153 L 46.4947,-28.3882 L 44.1717,-26.0653
 L 41.2447,-24.5739 L 38,-24.06 z
M 34.7553,12.5461 L 31.8283,11.0547 L 29.5053,8.73174 L 28.0139,5.80467 L 27.5,2.56 L 28.0139,-0.684692
 L 29.5053,-3.61176 L 31.8283,-5.93469 L 34.7553,-7.4261 L 38,-7.94 L 41.2447,-7.4261 L 44.1717,-5.93469
 L 46.4947,-3.61176 L 47.9861,-0.684692 L 48.5,2.56 L 47.9861,5.80467 L 46.4947,8.73174 L 44.1717,11.0547
 L 41.2447,12.5461 L 38,13.06 z
M 21.525,-28.06 L 18.475,-28.06 L 18.475,-11.94 L 21.525,-11.94 z
M 17.5,-27.5 L 1.56499,-27.5 L 1.56499,-20 L -1.56499,-20 L -1.56499,-27.5 L -17.5,-27.5
 L -17.5,-12.5 L 17.5,-12.5 z
M 10.975,-18.435 L 10.975,-21.565 L 14.025,-21.565 L 14.025,-18.435 z
M -14.025,-18.435 L -14.025,-21.565 L -10.975,-21.565 L -10.975,-18.435 z
M 15,9.44795 L 15.993,9.44795 L 17.9357,9.03503 L 19.75,8.22723 L 21.3567,7.05988 L 22.6857,5.58395
 L 23.6787,3.86398 L 24.2924,1.97516 L 24.5,-0 L 24.2924,-1.97516 L 23.6787,-3.86398 L 22.6857,-5.58395
 L 21.3567,-7.05988 L 19.75,-8.22723 L 17.9357,-9.03503 L 15.993,-9.44795 L 15,-9.44795 L 15,-9.5
 L 1.56499,-9.5 L 1.56499,-0 L -1.56499,-0 L -1.56499,-9.5 L -15,-9.5 L -15,-9.38121
 L -15.177,-9.35316 L -16.0134,-8.92705 L -16.677,-8.26335 L -17.1032,-7.42705 L -17.25,-6.5 L -17.1032,-5.57294
 L -16.677,-4.73663 L -16.0134,-4.07294 L -15.177,-3.64682 L -15,-3.61877 L -15,-3.5 L -13.9184,-3.32869
 L -12.9427,-2.83156 L -12.1684,-2.05724 L -11.6713,-1.08156 L -11.5,-0 L -11.6713,1.08156 L -12.1684,2.05724
 L -12.9427,2.83156 L -13.9184,3.32869 L -15,3.5 L -15,3.61877 L -15.177,3.64682 L -16.0134,4.07294
 L -16.677,4.73663 L -17.1032,5.57294 L -17.25,6.5 L -17.1032,7.42705 L -16.677,8.26335 L -16.0134,8.92705
 L -15.177,9.35316 L -15,9.38121 L -15,9.5 L 15,9.5 z
M 13.0589,7.24443 L 11.25,6.49518 L 9.69669,5.3033 L 8.50481,3.75 L 7.75555,1.94113 L 7.5,-0
 L 7.75555,-1.94113 L 8.50481,-3.75 L 9.69669,-5.3033 L 11.25,-6.49518 L 13.0589,-7.24443 L 15,-7.5
 L 16.9411,-7.24443 L 18.75,-6.49518 L 20.3033,-5.3033 L 21.4952,-3.75 L 22.2444,-1.94113 L 22.5,-0
 L 22.2444,1.94113 L 21.4952,3.75 L 20.3033,5.3033 L 18.75,6.49518 L 16.9411,7.24443 L 15,7.5
 z
M 23.6757,38.7903 L 27.7179,36.7307 L 30.9257,33.5229 L 32.9853,29.4807 L 33.695,25 L 32.9853,20.5193
 L 30.9257,16.4771 L 27.7179,13.2693 L 23.6757,11.2097 L 19.195,10.5 L 14.7142,11.2097 L 10.6721,13.2693
 L 8.44138,15.5 L 1.56499,15.5 L 1.56499,25.25 L -1.56499,25.25 L -1.56499,15.5 L -8.44138,15.5
 L -10.6721,13.2693 L -14.7142,11.2097 L -19.195,10.5 L -23.6757,11.2097 L -27.7179,13.2693 L -30.9257,16.4771
 L -32.9853,20.5193 L -33.695,25 L -32.9853,29.4807 L -30.9257,33.5229 L -27.7179,36.7307 L -23.6757,38.7903
 L -19.195,39.5 L -14.7142,38.7903 L -10.6721,36.7307 L -8.44138,34.5 L 8.44138,34.5 L 10.6721,36.7307
 L 14.7142,38.7903 L 19.195,39.5 z
M -23.0577,36.8882 L -26.5423,35.1127 L -29.3077,32.3473 L -31.0832,28.8627 L -31.695,25 L -31.0832,21.1373
 L -29.3077,17.6527 L -26.5423,14.8873 L -23.0577,13.1118 L -19.195,12.5 L -15.3323,13.1118 L -11.8477,14.8873
 L -9.08228,17.6527 L -7.30679,21.1373 L -6.69499,25 L -7.30679,28.8627 L -9.08228,32.3473 L -11.8477,35.1127
 L -15.3323,36.8882 L -19.195,37.5 z
M 15.3323,36.8882 L 11.8477,35.1127 L 9.08228,32.3473 L 7.30679,28.8627 L 6.69499,25 L 7.30679,21.1373
 L 9.08228,17.6527 L 11.8477,14.8873 L 15.3323,13.1118 L 19.195,12.5 L 23.0577,13.1118 L 26.5423,14.8873
 L 29.3077,17.6527 L 31.0832,21.1373 L 31.695,25 L 31.0832,28.8627 L 29.3077,32.3473 L 26.5423,35.1127
 L 23.0577,36.8882 L 19.195,37.5 z
" stroke="black" fill="none" stroke-width="0.5"/>
</svg>
