# Created by Kenney (www.kenney.nl)

mtllib bump-down.mtl

g bump-down

v 0.49995 0 0.49995 1 1 1
v -0.49995 0 0.49995 1 1 1
v 0.49995 0.063327 0.49995 1 1 1
v -0.49995 0.063327 0.49995 1 1 1
v 0.49995 0 -0.49995 1 1 1
v -0.49995 0 -0.49995 1 1 1
v 0.49995 0.063327 -0.49995 1 1 1
v -0.49995 0.063327 -0.49995 1 1 1
v -0.2897488 0.063327 0.07763797 1 1 1
v -0.2597817 0.063327 0.149985 1 1 1
v -0.2121108 0.063327 0.2121108 1 1 1
v -0.149985 0.063327 0.2597817 1 1 1
v -0.07763797 0.063327 0.2897488 1 1 1
v 0 0.063327 0.29997 1 1 1
v -0.29997 0.063327 0 1 1 1
v -0.2897488 0.063327 -0.07763794 1 1 1
v 0.07763794 0.063327 0.2897488 1 1 1
v -0.2597817 0.063327 -0.149985 1 1 1
v 0.149985 0.063327 0.2597817 1 1 1
v -0.2121108 0.063327 -0.2121108 1 1 1
v 0.2121108 0.063327 0.2121108 1 1 1
v -0.149985 0.063327 -0.2597816 1 1 1
v 0.2597816 0.063327 0.149985 1 1 1
v -0.07763797 0.063327 -0.2897488 1 1 1
v 0 0.063327 -0.29997 1 1 1
v 0.07763794 0.063327 -0.2897488 1 1 1
v 0.2897488 0.063327 0.07763797 1 1 1
v 0.29997 0.063327 0 1 1 1
v 0.2897488 0.063327 -0.07763794 1 1 1
v 0.149985 0.063327 -0.2597816 1 1 1
v 0.2597816 0.063327 -0.149985 1 1 1
v 0.2121108 0.063327 -0.2121108 1 1 1
v 0.149985 0.029997 0 1 1 1
v 0.1448743 0.029997 0.03881902 1 1 1
v 0.1448743 0.029997 -0.03881896 1 1 1
v 0.1298908 0.029997 -0.07499248 1 1 1
v 0.1298908 0.029997 0.07499254 1 1 1
v 0.1060554 0.029997 -0.1060554 1 1 1
v 0.1060554 0.029997 0.1060554 1 1 1
v 0.07499248 0.029997 -0.1298908 1 1 1
v 0.07499248 0.029997 0.1298909 1 1 1
v 0.03881896 0.029997 -0.1448743 1 1 1
v 0.03881896 0.029997 0.1448744 1 1 1
v 0 0.029997 -0.149985 1 1 1
v 0 0.029997 0.149985 1 1 1
v -0.03881902 0.029997 -0.1448743 1 1 1
v -0.03881902 0.029997 0.1448744 1 1 1
v -0.07499254 0.029997 -0.1298908 1 1 1
v -0.07499254 0.029997 0.1298909 1 1 1
v -0.1060554 0.029997 -0.1060554 1 1 1
v -0.1060554 0.029997 0.1060554 1 1 1
v -0.1298909 0.029997 -0.07499248 1 1 1
v -0.1298909 0.029997 0.07499254 1 1 1
v -0.1448744 0.029997 -0.03881896 1 1 1
v -0.1448744 0.029997 0.03881902 1 1 1
v -0.149985 0.029997 0 1 1 1
v -0.149985 0.063327 -0.2597816 1 1 1
v -0.2121108 0.063327 -0.2121108 1 1 1
v 0 0.063327 0.29997 1 1 1
v 0.2897487 0.063327 -0.07763793 1 1 1
v -0.07763797 0.063327 -0.2897487 1 1 1
v 0.2897487 0.063327 0.07763797 1 1 1
v 0.07763793 0.063327 0.2897488 1 1 1
v 0.149985 0.063327 -0.2597816 1 1 1
v 0.07763793 0.063327 -0.2897487 1 1 1
v -0.2897488 0.063327 -0.07763793 1 1 1
v -0.29997 0.063327 0 1 1 1
v 0.2121108 0.063327 0.2121108 1 1 1
v 0.2597816 0.063327 0.149985 1 1 1
v 0.2597816 0.063327 -0.149985 1 1 1
v 0.2121108 0.063327 -0.2121108 1 1 1

vn 0 0 1
vn 0 -1 0
vn 1 0 0
vn -1 0 0
vn 0 0 -1
vn 0 1 0
vn -0.1180831 0.9930038 0
vn -0.1140595 0.9930038 -0.03056214
vn -0.1140595 0.9930038 0.03056214
vn -0.1022629 0.9930038 0.05904153
vn -0.1022629 0.9930038 -0.05904153
vn -0.08349732 0.9930038 0.08349732
vn -0.08349732 0.9930038 -0.08349732
vn -0.05904153 0.9930038 0.1022629
vn -0.05904153 0.9930038 -0.1022629
vn -0.03056214 0.9930038 0.1140595
vn -0.03056214 0.9930038 -0.1140595
vn 0 0.9930038 0.1180831
vn 0 0.9930038 -0.1180831
vn 0.03056214 0.9930038 0.1140595
vn 0.03056214 0.9930038 -0.1140595
vn 0.05904153 0.9930038 0.1022629
vn 0.05904153 0.9930038 -0.1022629
vn 0.08349732 0.9930038 0.08349732
vn 0.08349732 0.9930038 -0.08349732
vn 0.1022629 0.9930038 0.05904153
vn 0.1022629 0.9930038 -0.05904153
vn 0.1140595 0.9930038 0.03056214
vn 0.1140595 0.9930038 -0.03056214
vn 0.1180831 0.9930038 0
vn 0.1084652 0.9761871 0.1878673
vn 0.153393 0.9761871 0.153393
vn 0.153393 0.9761871 -0.153393
vn 0.1878673 0.9761871 -0.1084652
vn 0 0.9761871 -0.2169305
vn 0.05614574 0.9761871 -0.2095388
vn -0.2169305 0.9761871 0
vn -0.2095388 0.9761871 0.05614574
vn 0 0.9761871 0.2169305
vn 0.05614574 0.9761871 0.2095388
vn -0.2095388 0.9761871 -0.05614574
vn -0.05614574 0.9761871 -0.2095388
vn -0.1084652 0.9761871 0.1878673
vn -0.05614574 0.9761871 0.2095388
vn 0.1878673 0.9761871 0.1084652
vn -0.1084652 0.9761871 -0.1878673
vn 0.2095388 0.9761871 0.05614574
vn 0.1084652 0.9761871 -0.1878673
vn 0.2095388 0.9761871 -0.05614574
vn 0.2169305 0.9761871 0
vn -0.153393 0.9761871 -0.153393
vn -0.1878673 0.9761871 -0.1084652
vn -0.1878673 0.9761871 0.1084652
vn -0.153393 0.9761871 0.153393

vt 0.21875 0.025
vt 0.21875 0.225
vt 0.03125 0.125
vt 0.09375 0.025
vt 0.09375 0.125

usemtl colormap

f 3/2/1 2/1/1 1/1/1
f 2/1/1 3/2/1 4/2/1
f 1/1/2 6/1/2 5/1/2
f 6/1/2 1/1/2 2/1/2
f 3/2/3 5/1/3 7/2/3
f 5/1/3 3/2/3 1/1/3
f 2/1/4 8/2/4 6/1/4
f 8/2/4 2/1/4 4/2/4
f 8/2/5 5/1/5 6/1/5
f 5/1/5 8/2/5 7/2/5
f 4/3/6 10/3/6 9/3/6
f 4/3/6 11/3/6 10/3/6
f 4/3/6 12/3/6 11/3/6
f 4/3/6 13/3/6 12/3/6
f 4/3/6 14/3/6 13/3/6
f 4/3/6 9/3/6 15/3/6
f 4/3/6 15/3/6 8/3/6
f 16/3/6 8/3/6 15/3/6
f 4/3/6 17/3/6 14/3/6
f 3/3/6 17/3/6 4/3/6
f 18/3/6 8/3/6 16/3/6
f 17/3/6 3/3/6 19/3/6
f 20/3/6 8/3/6 18/3/6
f 19/3/6 3/3/6 21/3/6
f 22/3/6 8/3/6 20/3/6
f 21/3/6 3/3/6 23/3/6
f 24/3/6 8/3/6 22/3/6
f 25/3/6 8/3/6 24/3/6
f 26/3/6 8/3/6 25/3/6
f 23/3/6 3/3/6 27/3/6
f 27/3/6 3/3/6 28/3/6
f 3/3/6 29/3/6 28/3/6
f 26/3/6 7/3/6 8/3/6
f 7/3/6 29/3/6 3/3/6
f 30/3/6 7/3/6 26/3/6
f 29/3/6 7/3/6 31/3/6
f 32/3/6 7/3/6 30/3/6
f 31/3/6 7/3/6 32/3/6
f 35/4/9 34/4/8 33/4/7
f 34/4/8 35/4/9 36/4/10
f 34/4/8 36/4/10 37/4/11
f 37/4/11 36/4/10 38/4/12
f 37/4/11 38/4/12 39/4/13
f 39/4/13 38/4/12 40/4/14
f 39/4/13 40/4/14 41/4/15
f 41/4/15 40/4/14 42/4/16
f 41/4/15 42/4/16 43/4/17
f 43/4/17 42/4/16 44/4/18
f 43/4/17 44/4/18 45/4/19
f 45/4/19 44/4/18 46/4/20
f 45/4/19 46/4/20 47/4/21
f 47/4/21 46/4/20 48/4/22
f 47/4/21 48/4/22 49/4/23
f 49/4/23 48/4/22 50/4/24
f 49/4/23 50/4/24 51/4/25
f 51/4/25 50/4/24 52/4/26
f 51/4/25 52/4/26 53/4/27
f 53/4/27 52/4/26 54/4/28
f 53/4/27 54/4/28 55/4/29
f 55/4/29 54/4/28 56/4/30
f 57/5/31 50/4/24 48/4/22
f 50/4/24 57/5/31 58/5/32
f 53/4/27 11/5/33 51/4/25
f 11/5/33 53/4/27 10/5/34
f 45/4/19 13/5/36 59/5/35
f 13/5/36 45/4/19 47/4/21
f 60/5/38 33/4/7 28/5/37
f 33/4/7 60/5/38 35/4/9
f 61/5/40 44/4/18 25/5/39
f 44/4/18 61/5/40 46/4/20
f 33/4/7 62/5/41 28/5/37
f 62/5/41 33/4/7 34/4/8
f 61/5/40 48/4/22 46/4/20
f 48/4/22 61/5/40 57/5/31
f 43/4/17 59/5/35 63/5/42
f 59/5/35 43/4/17 45/4/19
f 65/5/44 40/4/14 64/5/43
f 40/4/14 65/5/44 42/4/16
f 25/5/39 42/4/16 65/5/44
f 42/4/16 25/5/39 44/4/18
f 58/5/32 52/4/26 50/4/24
f 52/4/26 58/5/32 18/5/45
f 41/4/15 63/5/42 19/5/46
f 63/5/42 41/4/15 43/4/17
f 18/5/45 54/4/28 52/4/26
f 54/4/28 18/5/45 66/5/47
f 51/4/25 12/5/48 49/4/23
f 12/5/48 51/4/25 11/5/33
f 56/4/30 9/5/49 55/4/29
f 9/5/49 56/4/30 67/5/50
f 66/5/47 56/4/30 54/4/28
f 56/4/30 66/5/47 67/5/50
f 55/4/29 10/5/34 53/4/27
f 10/5/34 55/4/29 9/5/49
f 39/4/13 19/5/46 68/5/51
f 19/5/46 39/4/13 41/4/15
f 37/4/11 68/5/51 69/5/52
f 68/5/51 37/4/11 39/4/13
f 34/4/8 69/5/52 62/5/41
f 69/5/52 34/4/8 37/4/11
f 70/5/53 35/4/9 60/5/38
f 35/4/9 70/5/53 36/4/10
f 64/5/43 38/4/12 71/5/54
f 38/4/12 64/5/43 40/4/14
f 49/4/23 13/5/36 47/4/21
f 13/5/36 49/4/23 12/5/48
f 71/5/54 36/4/10 70/5/53
f 36/4/10 71/5/54 38/4/12

g bump-down




usemtl colormap

f 3/2/1 2/1/1 1/1/1
f 2/1/1 3/2/1 4/2/1
f 1/1/2 6/1/2 5/1/2
f 6/1/2 1/1/2 2/1/2
f 3/2/3 5/1/3 7/2/3
f 5/1/3 3/2/3 1/1/3
f 2/1/4 8/2/4 6/1/4
f 8/2/4 2/1/4 4/2/4
f 8/2/5 5/1/5 6/1/5
f 5/1/5 8/2/5 7/2/5
f 4/3/6 10/3/6 9/3/6
f 4/3/6 11/3/6 10/3/6
f 4/3/6 12/3/6 11/3/6
f 4/3/6 13/3/6 12/3/6
f 4/3/6 14/3/6 13/3/6
f 4/3/6 9/3/6 15/3/6
f 4/3/6 15/3/6 8/3/6
f 16/3/6 8/3/6 15/3/6
f 4/3/6 17/3/6 14/3/6
f 3/3/6 17/3/6 4/3/6
f 18/3/6 8/3/6 16/3/6
f 17/3/6 3/3/6 19/3/6
f 20/3/6 8/3/6 18/3/6
f 19/3/6 3/3/6 21/3/6
f 22/3/6 8/3/6 20/3/6
f 21/3/6 3/3/6 23/3/6
f 24/3/6 8/3/6 22/3/6
f 25/3/6 8/3/6 24/3/6
f 26/3/6 8/3/6 25/3/6
f 23/3/6 3/3/6 27/3/6
f 27/3/6 3/3/6 28/3/6
f 3/3/6 29/3/6 28/3/6
f 26/3/6 7/3/6 8/3/6
f 7/3/6 29/3/6 3/3/6
f 30/3/6 7/3/6 26/3/6
f 29/3/6 7/3/6 31/3/6
f 32/3/6 7/3/6 30/3/6
f 31/3/6 7/3/6 32/3/6
f 35/4/9 34/4/8 33/4/7
f 34/4/8 35/4/9 36/4/10
f 34/4/8 36/4/10 37/4/11
f 37/4/11 36/4/10 38/4/12
f 37/4/11 38/4/12 39/4/13
f 39/4/13 38/4/12 40/4/14
f 39/4/13 40/4/14 41/4/15
f 41/4/15 40/4/14 42/4/16
f 41/4/15 42/4/16 43/4/17
f 43/4/17 42/4/16 44/4/18
f 43/4/17 44/4/18 45/4/19
f 45/4/19 44/4/18 46/4/20
f 45/4/19 46/4/20 47/4/21
f 47/4/21 46/4/20 48/4/22
f 47/4/21 48/4/22 49/4/23
f 49/4/23 48/4/22 50/4/24
f 49/4/23 50/4/24 51/4/25
f 51/4/25 50/4/24 52/4/26
f 51/4/25 52/4/26 53/4/27
f 53/4/27 52/4/26 54/4/28
f 53/4/27 54/4/28 55/4/29
f 55/4/29 54/4/28 56/4/30
f 57/5/31 50/4/24 48/4/22
f 50/4/24 57/5/31 58/5/32
f 53/4/27 11/5/33 51/4/25
f 11/5/33 53/4/27 10/5/34
f 45/4/19 13/5/36 59/5/35
f 13/5/36 45/4/19 47/4/21
f 60/5/38 33/4/7 28/5/37
f 33/4/7 60/5/38 35/4/9
f 61/5/40 44/4/18 25/5/39
f 44/4/18 61/5/40 46/4/20
f 33/4/7 62/5/41 28/5/37
f 62/5/41 33/4/7 34/4/8
f 61/5/40 48/4/22 46/4/20
f 48/4/22 61/5/40 57/5/31
f 43/4/17 59/5/35 63/5/42
f 59/5/35 43/4/17 45/4/19
f 65/5/44 40/4/14 64/5/43
f 40/4/14 65/5/44 42/4/16
f 25/5/39 42/4/16 65/5/44
f 42/4/16 25/5/39 44/4/18
f 58/5/32 52/4/26 50/4/24
f 52/4/26 58/5/32 18/5/45
f 41/4/15 63/5/42 19/5/46
f 63/5/42 41/4/15 43/4/17
f 18/5/45 54/4/28 52/4/26
f 54/4/28 18/5/45 66/5/47
f 51/4/25 12/5/48 49/4/23
f 12/5/48 51/4/25 11/5/33
f 56/4/30 9/5/49 55/4/29
f 9/5/49 56/4/30 67/5/50
f 66/5/47 56/4/30 54/4/28
f 56/4/30 66/5/47 67/5/50
f 55/4/29 10/5/34 53/4/27
f 10/5/34 55/4/29 9/5/49
f 39/4/13 19/5/46 68/5/51
f 19/5/46 39/4/13 41/4/15
f 37/4/11 68/5/51 69/5/52
f 68/5/51 37/4/11 39/4/13
f 34/4/8 69/5/52 62/5/41
f 69/5/52 34/4/8 37/4/11
f 70/5/53 35/4/9 60/5/38
f 35/4/9 70/5/53 36/4/10
f 64/5/43 38/4/12 71/5/54
f 38/4/12 64/5/43 40/4/14
f 49/4/23 13/5/36 47/4/21
f 13/5/36 49/4/23 12/5/48
f 71/5/54 36/4/10 70/5/53
f 36/4/10 71/5/54 38/4/12

