# Created by Kenney (www.kenney.nl)

mtllib bump-down-walls.mtl

g bump-down-walls

v 0.39996 0.146652 0.49995 1 1 1
v 0.49995 0.146652 0.49995 1 1 1
v 0.39996 0.063327 0.49995 1 1 1
v 0.49995 0 0.49995 1 1 1
v -0.49995 0 0.49995 1 1 1
v -0.39996 0.063327 0.49995 1 1 1
v -0.49995 0.146652 0.49995 1 1 1
v -0.39996 0.146652 0.49995 1 1 1
v 0.49995 0 -0.49995 1 1 1
v -0.49995 0 -0.49995 1 1 1
v 0.49995 0.146652 -0.49995 1 1 1
v -0.39996 0.146652 -0.49995 1 1 1
v -0.49995 0.146652 -0.49995 1 1 1
v 0.39996 0.146652 -0.49995 1 1 1
v 0.39996 0.063327 -0.49995 1 1 1
v -0.39996 0.063327 -0.49995 1 1 1
v -0.2897488 0.063327 0.07763797 1 1 1
v -0.2597816 0.063327 0.149985 1 1 1
v -0.2121108 0.063327 0.2121108 1 1 1
v -0.149985 0.063327 0.2597817 1 1 1
v -0.07763791 0.063327 0.2897488 1 1 1
v 0 0.063327 0.29997 1 1 1
v 0.07763797 0.063327 0.2897488 1 1 1
v -0.29997 0.063327 0 1 1 1
v 0.149985 0.063327 0.2597817 1 1 1
v -0.2897488 0.063327 -0.07763794 1 1 1
v -0.2597816 0.063327 -0.149985 1 1 1
v -0.2121108 0.063327 -0.2121108 1 1 1
v 0.2121108 0.063327 0.2121108 1 1 1
v -0.149985 0.063327 -0.2597816 1 1 1
v 0.2597817 0.063327 0.149985 1 1 1
v -0.07763791 0.063327 -0.2897488 1 1 1
v 0.2897488 0.063327 0.07763797 1 1 1
v 0.29997 0.063327 0 1 1 1
v 0.2897488 0.063327 -0.07763794 1 1 1
v 0 0.063327 -0.29997 1 1 1
v 0.07763797 0.063327 -0.2897488 1 1 1
v 0.149985 0.063327 -0.2597816 1 1 1
v 0.2597817 0.063327 -0.149985 1 1 1
v 0.2121108 0.063327 -0.2121108 1 1 1
v 0.2897487 0.063327 0.07763797 1 1 1
v 0.2597816 0.063327 0.149985 1 1 1
v 0.1448743 0.029997 0.03881902 1 1 1
v 0.1298908 0.029997 0.07499254 1 1 1
v 0.149985 0.029997 0 1 1 1
v 0.1448743 0.029997 -0.03881896 1 1 1
v 0.1298908 0.029997 -0.07499248 1 1 1
v 0.1060554 0.029997 -0.1060554 1 1 1
v 0.1060554 0.029997 0.1060554 1 1 1
v 0.07499248 0.029997 -0.1298908 1 1 1
v 0.07499248 0.029997 0.1298909 1 1 1
v 0.03881896 0.029997 -0.1448743 1 1 1
v 0.03881896 0.029997 0.1448744 1 1 1
v 0 0.029997 -0.149985 1 1 1
v 0 0.029997 0.149985 1 1 1
v -0.03881902 0.029997 -0.1448743 1 1 1
v -0.03881902 0.029997 0.1448744 1 1 1
v -0.07499254 0.029997 -0.1298908 1 1 1
v -0.07499254 0.029997 0.1298909 1 1 1
v -0.1060554 0.029997 -0.1060554 1 1 1
v -0.1060554 0.029997 0.1060554 1 1 1
v -0.1298909 0.029997 -0.07499248 1 1 1
v -0.1298909 0.029997 0.07499254 1 1 1
v -0.1448744 0.029997 -0.03881896 1 1 1
v -0.1448744 0.029997 0.03881902 1 1 1
v -0.149985 0.029997 0 1 1 1
v 0 0.063327 0.29997 1 1 1
v -0.07763797 0.063327 0.2897488 1 1 1
v -0.149985 0.063327 -0.2597816 1 1 1
v -0.2121108 0.063327 -0.2121108 1 1 1
v -0.2121108 0.063327 0.2121108 1 1 1
v -0.2597817 0.063327 0.149985 1 1 1
v -0.07763797 0.063327 -0.2897487 1 1 1
v -0.2597817 0.063327 -0.149985 1 1 1
v -0.2897488 0.063327 -0.07763793 1 1 1
v 0.2897487 0.063327 -0.07763793 1 1 1
v 0.2597816 0.063327 -0.149985 1 1 1
v 0.29997 0.063327 0 1 1 1
v 0.149985 0.063327 -0.2597816 1 1 1
v 0.07763793 0.063327 -0.2897487 1 1 1
v 0.2121108 0.063327 -0.2121108 1 1 1
v -0.2897488 0.063327 0.07763797 1 1 1
v -0.29997 0.063327 0 1 1 1
v -0.149985 0.063327 0.2597817 1 1 1
v 0.07763793 0.063327 0.2897488 1 1 1
v 0.2121108 0.063327 0.2121108 1 1 1
v 0.149985 0.063327 0.2597817 1 1 1

vn 0 0 1
vn 0 -1 0
vn 1 0 0
vn 0 1 0
vn -1 0 0
vn 0 0 -1
vn -0.2095388 0.9761871 -0.05614574
vn -0.1878673 0.9761871 -0.1084652
vn -0.1140595 0.9930038 -0.03056214
vn -0.1022629 0.9930038 -0.05904153
vn -0.1180831 0.9930038 0
vn -0.1140595 0.9930038 0.03056214
vn -0.1022629 0.9930038 0.05904153
vn -0.08349732 0.9930038 0.08349732
vn -0.08349732 0.9930038 -0.08349732
vn -0.05904153 0.9930038 0.1022629
vn -0.05904153 0.9930038 -0.1022629
vn -0.03056214 0.9930038 0.1140595
vn -0.03056214 0.9930038 -0.1140595
vn 0 0.9930038 0.1180831
vn 0 0.9930038 -0.1180831
vn 0.03056214 0.9930038 0.1140595
vn 0.03056214 0.9930038 -0.1140595
vn 0.05904153 0.9930038 0.1022629
vn 0.05904153 0.9930038 -0.1022629
vn 0.08349732 0.9930038 0.08349732
vn 0.08349732 0.9930038 -0.08349732
vn 0.1022629 0.9930038 0.05904153
vn 0.1022629 0.9930038 -0.05904153
vn 0.1140595 0.9930038 0.03056214
vn 0.1140595 0.9930038 -0.03056214
vn 0.1180831 0.9930038 0
vn 0 0.9761871 -0.2169305
vn 0.05614574 0.9761871 -0.2095388
vn 0.1084652 0.9761871 0.1878673
vn 0.153393 0.9761871 0.153393
vn 0.153393 0.9761871 -0.153393
vn 0.1878673 0.9761871 -0.1084652
vn 0.05614574 0.9761871 0.2095388
vn 0.1878673 0.9761871 0.1084652
vn 0.2095388 0.9761871 0.05614574
vn -0.2095388 0.9761871 0.05614574
vn -0.1878673 0.9761871 0.1084652
vn -0.2169305 0.9761871 0
vn -0.1084652 0.9761871 0.1878673
vn -0.05614574 0.9761871 0.2095388
vn 0 0.9761871 0.2169305
vn -0.153393 0.9761871 0.153393
vn 0.2095388 0.9761871 -0.05614574
vn 0.2169305 0.9761871 0
vn 0.1084652 0.9761871 -0.1878673
vn -0.05614574 0.9761871 -0.2095388
vn -0.153393 0.9761871 -0.153393
vn -0.1084652 0.9761871 -0.1878673

vt 0.21875 0.225
vt 0.21875 0.1113636
vt 0.21875 0.025
vt 0.03125 0.125
vt 0.09375 0.125
vt 0.09375 0.025

usemtl colormap

f 3/2/1 2/1/1 1/1/1
f 3/2/1 4/3/1 2/1/1
f 4/3/1 3/2/1 5/3/1
f 6/2/1 5/3/1 3/2/1
f 5/3/1 6/2/1 7/1/1
f 7/1/1 6/2/1 8/1/1
f 4/3/2 10/3/2 9/3/2
f 10/3/2 4/3/2 5/3/2
f 2/1/3 9/3/3 11/1/3
f 9/3/3 2/1/3 4/3/3
f 13/1/4 8/1/4 12/1/4
f 8/1/4 13/1/4 7/1/4
f 5/3/5 13/1/5 10/3/5
f 13/1/5 5/3/5 7/1/5
f 14/1/4 2/1/4 11/1/4
f 2/1/4 14/1/4 1/1/4
f 3/2/5 14/1/5 15/2/5
f 14/1/5 3/2/5 1/1/5
f 8/1/3 16/2/3 12/1/3
f 16/2/3 8/1/3 6/2/3
f 16/2/6 13/1/6 12/1/6
f 16/2/6 10/3/6 13/1/6
f 10/3/6 16/2/6 9/3/6
f 15/2/6 9/3/6 16/2/6
f 9/3/6 15/2/6 11/1/6
f 11/1/6 15/2/6 14/1/6
f 6/4/4 18/4/4 17/4/4
f 6/4/4 19/4/4 18/4/4
f 6/4/4 20/4/4 19/4/4
f 6/4/4 21/4/4 20/4/4
f 6/4/4 22/4/4 21/4/4
f 6/4/4 23/4/4 22/4/4
f 6/4/4 17/4/4 24/4/4
f 6/4/4 25/4/4 23/4/4
f 6/4/4 24/4/4 16/4/4
f 26/4/4 16/4/4 24/4/4
f 27/4/4 16/4/4 26/4/4
f 3/4/4 25/4/4 6/4/4
f 28/4/4 16/4/4 27/4/4
f 25/4/4 3/4/4 29/4/4
f 30/4/4 16/4/4 28/4/4
f 29/4/4 3/4/4 31/4/4
f 32/4/4 16/4/4 30/4/4
f 31/4/4 3/4/4 33/4/4
f 33/4/4 3/4/4 34/4/4
f 3/4/4 35/4/4 34/4/4
f 36/4/4 16/4/4 32/4/4
f 37/4/4 16/4/4 36/4/4
f 38/4/4 16/4/4 37/4/4
f 15/4/4 35/4/4 3/4/4
f 38/4/4 15/4/4 16/4/4
f 35/4/4 15/4/4 39/4/4
f 40/4/4 15/4/4 38/4/4
f 39/4/4 15/4/4 40/4/4
f 43/6/9 42/5/8 41/5/7
f 42/5/8 43/6/9 44/6/10
f 46/6/12 43/6/9 45/6/11
f 43/6/9 46/6/12 47/6/13
f 43/6/9 47/6/13 44/6/10
f 44/6/10 47/6/13 48/6/14
f 44/6/10 48/6/14 49/6/15
f 49/6/15 48/6/14 50/6/16
f 49/6/15 50/6/16 51/6/17
f 51/6/17 50/6/16 52/6/18
f 51/6/17 52/6/18 53/6/19
f 53/6/19 52/6/18 54/6/20
f 53/6/19 54/6/20 55/6/21
f 55/6/21 54/6/20 56/6/22
f 55/6/21 56/6/22 57/6/23
f 57/6/23 56/6/22 58/6/24
f 57/6/23 58/6/24 59/6/25
f 59/6/25 58/6/24 60/6/26
f 59/6/25 60/6/26 61/6/27
f 61/6/27 60/6/26 62/6/28
f 61/6/27 62/6/28 63/6/29
f 63/6/29 62/6/28 64/6/30
f 63/6/29 64/6/30 65/6/31
f 65/6/31 64/6/30 66/6/32
f 55/6/21 68/5/34 67/5/33
f 68/5/34 55/6/21 57/6/23
f 69/5/35 60/6/26 58/6/24
f 60/6/26 69/5/35 70/5/36
f 63/6/29 71/5/37 61/6/27
f 71/5/37 63/6/29 72/5/38
f 73/5/39 58/6/24 56/6/22
f 58/6/24 73/5/39 69/5/35
f 74/5/40 64/6/30 62/6/28
f 64/6/30 74/5/40 75/5/41
f 77/5/43 46/6/12 76/5/42
f 46/6/12 77/5/43 47/6/13
f 76/5/42 45/6/11 78/5/44
f 45/6/11 76/5/42 46/6/12
f 45/6/11 41/5/7 78/5/44
f 41/5/7 45/6/11 43/6/9
f 80/5/46 50/6/16 79/5/45
f 50/6/16 80/5/46 52/6/18
f 36/5/47 52/6/18 80/5/46
f 52/6/18 36/5/47 54/6/20
f 70/5/36 62/6/28 60/6/26
f 62/6/28 70/5/36 74/5/40
f 73/5/39 54/6/20 36/5/47
f 54/6/20 73/5/39 56/6/22
f 79/5/45 48/6/14 81/5/48
f 48/6/14 79/5/45 50/6/16
f 66/6/32 82/5/49 65/6/31
f 82/5/49 66/6/32 83/5/50
f 59/6/25 68/5/34 57/6/23
f 68/5/34 59/6/25 84/5/51
f 53/6/19 67/5/33 85/5/52
f 67/5/33 53/6/19 55/6/21
f 65/6/31 72/5/38 63/6/29
f 72/5/38 65/6/31 82/5/49
f 61/6/27 84/5/51 59/6/25
f 84/5/51 61/6/27 71/5/37
f 49/6/15 87/5/54 86/5/53
f 87/5/54 49/6/15 51/6/17
f 75/5/41 66/6/32 64/6/30
f 66/6/32 75/5/41 83/5/50
f 81/5/48 47/6/13 77/5/43
f 47/6/13 81/5/48 48/6/14
f 51/6/17 85/5/52 87/5/54
f 85/5/52 51/6/17 53/6/19
f 44/6/10 86/5/53 42/5/8
f 86/5/53 44/6/10 49/6/15

g bump-down-walls




usemtl colormap

f 3/2/1 2/1/1 1/1/1
f 3/2/1 4/3/1 2/1/1
f 4/3/1 3/2/1 5/3/1
f 6/2/1 5/3/1 3/2/1
f 5/3/1 6/2/1 7/1/1
f 7/1/1 6/2/1 8/1/1
f 4/3/2 10/3/2 9/3/2
f 10/3/2 4/3/2 5/3/2
f 2/1/3 9/3/3 11/1/3
f 9/3/3 2/1/3 4/3/3
f 13/1/4 8/1/4 12/1/4
f 8/1/4 13/1/4 7/1/4
f 5/3/5 13/1/5 10/3/5
f 13/1/5 5/3/5 7/1/5
f 14/1/4 2/1/4 11/1/4
f 2/1/4 14/1/4 1/1/4
f 3/2/5 14/1/5 15/2/5
f 14/1/5 3/2/5 1/1/5
f 8/1/3 16/2/3 12/1/3
f 16/2/3 8/1/3 6/2/3
f 16/2/6 13/1/6 12/1/6
f 16/2/6 10/3/6 13/1/6
f 10/3/6 16/2/6 9/3/6
f 15/2/6 9/3/6 16/2/6
f 9/3/6 15/2/6 11/1/6
f 11/1/6 15/2/6 14/1/6
f 6/4/4 18/4/4 17/4/4
f 6/4/4 19/4/4 18/4/4
f 6/4/4 20/4/4 19/4/4
f 6/4/4 21/4/4 20/4/4
f 6/4/4 22/4/4 21/4/4
f 6/4/4 23/4/4 22/4/4
f 6/4/4 17/4/4 24/4/4
f 6/4/4 25/4/4 23/4/4
f 6/4/4 24/4/4 16/4/4
f 26/4/4 16/4/4 24/4/4
f 27/4/4 16/4/4 26/4/4
f 3/4/4 25/4/4 6/4/4
f 28/4/4 16/4/4 27/4/4
f 25/4/4 3/4/4 29/4/4
f 30/4/4 16/4/4 28/4/4
f 29/4/4 3/4/4 31/4/4
f 32/4/4 16/4/4 30/4/4
f 31/4/4 3/4/4 33/4/4
f 33/4/4 3/4/4 34/4/4
f 3/4/4 35/4/4 34/4/4
f 36/4/4 16/4/4 32/4/4
f 37/4/4 16/4/4 36/4/4
f 38/4/4 16/4/4 37/4/4
f 15/4/4 35/4/4 3/4/4
f 38/4/4 15/4/4 16/4/4
f 35/4/4 15/4/4 39/4/4
f 40/4/4 15/4/4 38/4/4
f 39/4/4 15/4/4 40/4/4
f 43/6/9 42/5/8 41/5/7
f 42/5/8 43/6/9 44/6/10
f 46/6/12 43/6/9 45/6/11
f 43/6/9 46/6/12 47/6/13
f 43/6/9 47/6/13 44/6/10
f 44/6/10 47/6/13 48/6/14
f 44/6/10 48/6/14 49/6/15
f 49/6/15 48/6/14 50/6/16
f 49/6/15 50/6/16 51/6/17
f 51/6/17 50/6/16 52/6/18
f 51/6/17 52/6/18 53/6/19
f 53/6/19 52/6/18 54/6/20
f 53/6/19 54/6/20 55/6/21
f 55/6/21 54/6/20 56/6/22
f 55/6/21 56/6/22 57/6/23
f 57/6/23 56/6/22 58/6/24
f 57/6/23 58/6/24 59/6/25
f 59/6/25 58/6/24 60/6/26
f 59/6/25 60/6/26 61/6/27
f 61/6/27 60/6/26 62/6/28
f 61/6/27 62/6/28 63/6/29
f 63/6/29 62/6/28 64/6/30
f 63/6/29 64/6/30 65/6/31
f 65/6/31 64/6/30 66/6/32
f 55/6/21 68/5/34 67/5/33
f 68/5/34 55/6/21 57/6/23
f 69/5/35 60/6/26 58/6/24
f 60/6/26 69/5/35 70/5/36
f 63/6/29 71/5/37 61/6/27
f 71/5/37 63/6/29 72/5/38
f 73/5/39 58/6/24 56/6/22
f 58/6/24 73/5/39 69/5/35
f 74/5/40 64/6/30 62/6/28
f 64/6/30 74/5/40 75/5/41
f 77/5/43 46/6/12 76/5/42
f 46/6/12 77/5/43 47/6/13
f 76/5/42 45/6/11 78/5/44
f 45/6/11 76/5/42 46/6/12
f 45/6/11 41/5/7 78/5/44
f 41/5/7 45/6/11 43/6/9
f 80/5/46 50/6/16 79/5/45
f 50/6/16 80/5/46 52/6/18
f 36/5/47 52/6/18 80/5/46
f 52/6/18 36/5/47 54/6/20
f 70/5/36 62/6/28 60/6/26
f 62/6/28 70/5/36 74/5/40
f 73/5/39 54/6/20 36/5/47
f 54/6/20 73/5/39 56/6/22
f 79/5/45 48/6/14 81/5/48
f 48/6/14 79/5/45 50/6/16
f 66/6/32 82/5/49 65/6/31
f 82/5/49 66/6/32 83/5/50
f 59/6/25 68/5/34 57/6/23
f 68/5/34 59/6/25 84/5/51
f 53/6/19 67/5/33 85/5/52
f 67/5/33 53/6/19 55/6/21
f 65/6/31 72/5/38 63/6/29
f 72/5/38 65/6/31 82/5/49
f 61/6/27 84/5/51 59/6/25
f 84/5/51 61/6/27 71/5/37
f 49/6/15 87/5/54 86/5/53
f 87/5/54 49/6/15 51/6/17
f 75/5/41 66/6/32 64/6/30
f 66/6/32 75/5/41 83/5/50
f 81/5/48 47/6/13 77/5/43
f 47/6/13 81/5/48 48/6/14
f 51/6/17 85/5/52 87/5/54
f 85/5/52 51/6/17 53/6/19
f 44/6/10 86/5/53 42/5/8
f 86/5/53 44/6/10 49/6/15

