# Created by Kenney (www.kenney.nl)

mtllib bump.mtl

g bump

v 0.49995 0 0.49995 1 1 1
v -0.49995 0 0.49995 1 1 1
v 0.49995 0.063327 0.49995 1 1 1
v -0.49995 0.063327 0.49995 1 1 1
v 0.49995 0 -0.49995 1 1 1
v -0.49995 0 -0.49995 1 1 1
v 0.49995 0.063327 -0.49995 1 1 1
v -0.49995 0.063327 -0.49995 1 1 1
v 0.29997 0.063327 0 1 1 1
v 0.2897488 0.063327 0.07763795 1 1 1
v 0.2897488 0.063327 -0.07763795 1 1 1
v 0.2597817 0.063327 -0.149985 1 1 1
v 0.2597817 0.063327 0.149985 1 1 1
v 0.2121108 0.063327 -0.2121108 1 1 1
v 0.2121108 0.063327 0.2121108 1 1 1
v 0.149985 0.063327 -0.2597817 1 1 1
v 0.149985 0.063327 0.2597817 1 1 1
v 0.07763795 0.063327 -0.2897488 1 1 1
v 0.07763795 0.063327 0.2897488 1 1 1
v 3.097E-13 0.063327 -0.29997 1 1 1
v 3.097E-13 0.063327 0.29997 1 1 1
v -0.07763795 0.063327 -0.2897488 1 1 1
v -0.07763795 0.063327 0.2897488 1 1 1
v -0.149985 0.063327 -0.2597817 1 1 1
v -0.149985 0.063327 0.2597817 1 1 1
v -0.2121108 0.063327 -0.2121108 1 1 1
v -0.2121108 0.063327 0.2121108 1 1 1
v -0.2597817 0.063327 -0.149985 1 1 1
v -0.2597817 0.063327 0.149985 1 1 1
v -0.2897488 0.063327 -0.07763795 1 1 1
v -0.2897488 0.063327 0.07763795 1 1 1
v -0.29997 0.063327 0 1 1 1
v 0.149985 0.096657 0 1 1 1
v 0.1448744 0.096657 -0.03881897 1 1 1
v 0.1298908 0.096657 -0.07499249 1 1 1
v 0.1060554 0.096657 -0.1060554 1 1 1
v 0.1298908 0.096657 0.07499249 1 1 1
v 0.1060554 0.096657 0.1060554 1 1 1
v 0.1448744 0.096657 0.03881897 1 1 1
v 0.07499249 0.096657 -0.1298908 1 1 1
v 3.053685E-13 0.096657 -0.149985 1 1 1
v -0.03881897 0.096657 -0.1448744 1 1 1
v -0.07499249 0.096657 -0.1298908 1 1 1
v -0.1060554 0.096657 -0.1060554 1 1 1
v 0.03881897 0.096657 -0.1448744 1 1 1
v -0.1060554 0.096657 0.1060554 1 1 1
v -0.1298908 0.096657 0.07499249 1 1 1
v -0.1298908 0.096657 -0.07499249 1 1 1
v -0.1448744 0.096657 -0.03881897 1 1 1
v -0.1448744 0.096657 0.03881897 1 1 1
v -0.149985 0.096657 0 1 1 1
v -0.03881897 0.096657 0.1448744 1 1 1
v -0.07499249 0.096657 0.1298908 1 1 1
v 0.07499249 0.096657 0.1298908 1 1 1
v 3.053685E-13 0.096657 0.149985 1 1 1
v 0.03881897 0.096657 0.1448744 1 1 1
v -0.2897488 0.063327 0.07763797 1 1 1
v -0.2597817 0.063327 0.149985 1 1 1
v -0.149985 0.063327 0.2597817 1 1 1
v -0.07763797 0.063327 0.2897488 1 1 1
v 0 0.063327 0.29997 1 1 1
v -0.29997 0.063327 0 1 1 1
v -0.2897488 0.063327 -0.07763794 1 1 1
v 0.07763794 0.063327 0.2897488 1 1 1
v -0.149985 0.063327 -0.2597816 1 1 1
v 0.2597816 0.063327 0.149985 1 1 1
v -0.07763797 0.063327 -0.2897488 1 1 1
v 0 0.063327 -0.29997 1 1 1
v 0.07763794 0.063327 -0.2897488 1 1 1
v 0.2897488 0.063327 0.07763797 1 1 1
v 0.2897488 0.063327 -0.07763794 1 1 1
v 0.149985 0.063327 -0.2597816 1 1 1
v 0.2597816 0.063327 -0.149985 1 1 1

vn 0 0 1
vn 0 -1 0
vn 1 0 0
vn -1 0 0
vn 0 0 -1
vn 0 1 0
vn 0.2169305 0.9761871 0
vn 0.1180831 0.9930038 0
vn 0.2095388 0.9761871 -0.05614574
vn 0.1140595 0.9930038 -0.03056214
vn 0.1878673 0.9761871 -0.1084652
vn 0.1022629 0.9930038 -0.05904153
vn 0.153393 0.9761871 -0.153393
vn 0.08349732 0.9930038 -0.08349732
vn 0.1878673 0.9761871 0.1084652
vn 0.153393 0.9761871 0.153393
vn 0.1022629 0.9930038 0.05904153
vn 0.08349732 0.9930038 0.08349732
vn 0.2095388 0.9761871 0.05614574
vn 0.1140595 0.9930038 0.03056214
vn 0.1084652 0.9761871 -0.1878673
vn 0.05904153 0.9930038 -0.1022629
vn 0 0.9761871 -0.2169305
vn 0 0.9930038 -0.1180831
vn -0.05614574 0.9761871 -0.2095388
vn -0.03056214 0.9930038 -0.1140595
vn -0.05904153 0.9930038 -0.1022629
vn -0.1084652 0.9761871 -0.1878673
vn -0.08349732 0.9930038 -0.08349732
vn -0.153393 0.9761871 -0.153393
vn 0.05614574 0.9761871 -0.2095388
vn 0.03056214 0.9930038 -0.1140595
vn -0.08349732 0.9930038 0.08349732
vn -0.153393 0.9761871 0.153393
vn -0.1022629 0.9930038 0.05904153
vn -0.1878673 0.9761871 0.1084652
vn -0.1022629 0.9930038 -0.05904153
vn -0.1140595 0.9930038 -0.03056214
vn -0.1878673 0.9761871 -0.1084652
vn -0.2095388 0.9761871 -0.05614574
vn -0.1140595 0.9930038 0.03056214
vn -0.2095388 0.9761871 0.05614574
vn -0.1180831 0.9930038 0
vn -0.2169305 0.9761871 0
vn -0.03056214 0.9930038 0.1140595
vn -0.05614574 0.9761871 0.2095388
vn -0.05904153 0.9930038 0.1022629
vn -0.1084652 0.9761871 0.1878673
vn 0.1084652 0.9761871 0.1878673
vn 0.05904153 0.9930038 0.1022629
vn 0 0.9761871 0.2169305
vn 0 0.9930038 0.1180831
vn 0.05614574 0.9761871 0.2095388
vn 0.03056214 0.9930038 0.1140595

vt 0.21875 0.025
vt 0.21875 0.1560345
vt 0.09375 0.1560345
vt 0.09375 0.225
vt 0.03125 0.125

usemtl colormap

f 3/2/1 2/1/1 1/1/1
f 2/1/1 3/2/1 4/2/1
f 1/1/2 6/1/2 5/1/2
f 6/1/2 1/1/2 2/1/2
f 3/2/3 5/1/3 7/2/3
f 5/1/3 3/2/3 1/1/3
f 2/1/4 8/2/4 6/1/4
f 8/2/4 2/1/4 4/2/4
f 8/2/5 5/1/5 6/1/5
f 5/1/5 8/2/5 7/2/5
f 11/3/6 10/3/6 9/3/6
f 10/3/6 11/3/6 12/3/6
f 10/3/6 12/3/6 13/3/6
f 13/3/6 12/3/6 14/3/6
f 13/3/6 14/3/6 15/3/6
f 15/3/6 14/3/6 16/3/6
f 15/3/6 16/3/6 17/3/6
f 17/3/6 16/3/6 18/3/6
f 17/3/6 18/3/6 19/3/6
f 19/3/6 18/3/6 20/3/6
f 19/3/6 20/3/6 21/3/6
f 21/3/6 20/3/6 22/3/6
f 21/3/6 22/3/6 23/3/6
f 23/3/6 22/3/6 24/3/6
f 23/3/6 24/3/6 25/3/6
f 25/3/6 24/3/6 26/3/6
f 25/3/6 26/3/6 27/3/6
f 27/3/6 26/3/6 28/3/6
f 27/3/6 28/3/6 29/3/6
f 29/3/6 28/3/6 30/3/6
f 29/3/6 30/3/6 31/3/6
f 31/3/6 30/3/6 32/3/6
f 11/3/9 33/4/8 9/3/7
f 33/4/8 11/3/9 34/4/10
f 12/3/11 34/4/10 11/3/9
f 34/4/10 12/3/11 35/4/12
f 14/3/13 35/4/12 12/3/11
f 35/4/12 14/3/13 36/4/14
f 37/4/17 15/3/16 13/3/15
f 15/3/16 37/4/17 38/4/18
f 33/4/8 10/3/19 9/3/7
f 10/3/19 33/4/8 39/4/20
f 16/3/21 36/4/14 14/3/13
f 36/4/14 16/3/21 40/4/22
f 22/3/25 41/4/24 20/3/23
f 41/4/24 22/3/25 42/4/26
f 22/3/25 43/4/27 42/4/26
f 43/4/27 22/3/25 24/3/28
f 24/3/28 44/4/29 43/4/27
f 44/4/29 24/3/28 26/3/30
f 20/3/23 45/4/32 18/3/31
f 45/4/32 20/3/23 41/4/24
f 39/4/20 13/3/15 10/3/19
f 13/3/15 39/4/20 37/4/17
f 47/4/35 27/3/34 46/4/33
f 27/3/34 47/4/35 29/3/36
f 28/3/39 49/4/38 48/4/37
f 49/4/38 28/3/39 30/3/40
f 51/4/43 31/3/42 50/4/41
f 31/3/42 51/4/43 32/3/44
f 53/4/47 23/3/46 52/4/45
f 23/3/46 53/4/47 25/3/48
f 26/3/30 48/4/37 44/4/29
f 48/4/37 26/3/30 28/3/39
f 38/4/18 17/3/49 15/3/16
f 17/3/49 38/4/18 54/4/50
f 55/4/52 23/3/46 21/3/51
f 23/3/46 55/4/52 52/4/45
f 50/4/41 29/3/36 47/4/35
f 29/3/36 50/4/41 31/3/42
f 30/3/40 51/4/43 49/4/38
f 51/4/43 30/3/40 32/3/44
f 54/4/50 19/3/53 17/3/49
f 19/3/53 54/4/50 56/4/54
f 46/4/33 25/3/48 53/4/47
f 25/3/48 46/4/33 27/3/34
f 56/4/54 21/3/51 19/3/53
f 21/3/51 56/4/54 55/4/52
f 18/3/31 40/4/22 16/3/21
f 40/4/22 18/3/31 45/4/32
f 34/4/10 39/4/20 33/4/8
f 39/4/20 34/4/10 35/4/12
f 39/4/20 35/4/12 37/4/17
f 37/4/17 35/4/12 36/4/14
f 37/4/17 36/4/14 38/4/18
f 38/4/18 36/4/14 40/4/22
f 38/4/18 40/4/22 54/4/50
f 54/4/50 40/4/22 45/4/32
f 54/4/50 45/4/32 56/4/54
f 56/4/54 45/4/32 41/4/24
f 56/4/54 41/4/24 55/4/52
f 55/4/52 41/4/24 42/4/26
f 55/4/52 42/4/26 52/4/45
f 52/4/45 42/4/26 43/4/27
f 52/4/45 43/4/27 53/4/47
f 53/4/47 43/4/27 44/4/29
f 53/4/47 44/4/29 46/4/33
f 46/4/33 44/4/29 48/4/37
f 46/4/33 48/4/37 47/4/35
f 47/4/35 48/4/37 49/4/38
f 47/4/35 49/4/38 50/4/41
f 50/4/41 49/4/38 51/4/43
f 4/5/6 58/5/6 57/5/6
f 4/5/6 27/5/6 58/5/6
f 4/5/6 59/5/6 27/5/6
f 4/5/6 60/5/6 59/5/6
f 4/5/6 61/5/6 60/5/6
f 4/5/6 57/5/6 62/5/6
f 4/5/6 62/5/6 8/5/6
f 63/5/6 8/5/6 62/5/6
f 4/5/6 64/5/6 61/5/6
f 3/5/6 64/5/6 4/5/6
f 28/5/6 8/5/6 63/5/6
f 64/5/6 3/5/6 17/5/6
f 26/5/6 8/5/6 28/5/6
f 17/5/6 3/5/6 15/5/6
f 65/5/6 8/5/6 26/5/6
f 15/5/6 3/5/6 66/5/6
f 67/5/6 8/5/6 65/5/6
f 68/5/6 8/5/6 67/5/6
f 69/5/6 8/5/6 68/5/6
f 66/5/6 3/5/6 70/5/6
f 70/5/6 3/5/6 9/5/6
f 3/5/6 71/5/6 9/5/6
f 69/5/6 7/5/6 8/5/6
f 7/5/6 71/5/6 3/5/6
f 72/5/6 7/5/6 69/5/6
f 71/5/6 7/5/6 73/5/6
f 14/5/6 7/5/6 72/5/6
f 73/5/6 7/5/6 14/5/6

g bump




usemtl colormap

f 3/2/1 2/1/1 1/1/1
f 2/1/1 3/2/1 4/2/1
f 1/1/2 6/1/2 5/1/2
f 6/1/2 1/1/2 2/1/2
f 3/2/3 5/1/3 7/2/3
f 5/1/3 3/2/3 1/1/3
f 2/1/4 8/2/4 6/1/4
f 8/2/4 2/1/4 4/2/4
f 8/2/5 5/1/5 6/1/5
f 5/1/5 8/2/5 7/2/5
f 11/3/6 10/3/6 9/3/6
f 10/3/6 11/3/6 12/3/6
f 10/3/6 12/3/6 13/3/6
f 13/3/6 12/3/6 14/3/6
f 13/3/6 14/3/6 15/3/6
f 15/3/6 14/3/6 16/3/6
f 15/3/6 16/3/6 17/3/6
f 17/3/6 16/3/6 18/3/6
f 17/3/6 18/3/6 19/3/6
f 19/3/6 18/3/6 20/3/6
f 19/3/6 20/3/6 21/3/6
f 21/3/6 20/3/6 22/3/6
f 21/3/6 22/3/6 23/3/6
f 23/3/6 22/3/6 24/3/6
f 23/3/6 24/3/6 25/3/6
f 25/3/6 24/3/6 26/3/6
f 25/3/6 26/3/6 27/3/6
f 27/3/6 26/3/6 28/3/6
f 27/3/6 28/3/6 29/3/6
f 29/3/6 28/3/6 30/3/6
f 29/3/6 30/3/6 31/3/6
f 31/3/6 30/3/6 32/3/6
f 11/3/9 33/4/8 9/3/7
f 33/4/8 11/3/9 34/4/10
f 12/3/11 34/4/10 11/3/9
f 34/4/10 12/3/11 35/4/12
f 14/3/13 35/4/12 12/3/11
f 35/4/12 14/3/13 36/4/14
f 37/4/17 15/3/16 13/3/15
f 15/3/16 37/4/17 38/4/18
f 33/4/8 10/3/19 9/3/7
f 10/3/19 33/4/8 39/4/20
f 16/3/21 36/4/14 14/3/13
f 36/4/14 16/3/21 40/4/22
f 22/3/25 41/4/24 20/3/23
f 41/4/24 22/3/25 42/4/26
f 22/3/25 43/4/27 42/4/26
f 43/4/27 22/3/25 24/3/28
f 24/3/28 44/4/29 43/4/27
f 44/4/29 24/3/28 26/3/30
f 20/3/23 45/4/32 18/3/31
f 45/4/32 20/3/23 41/4/24
f 39/4/20 13/3/15 10/3/19
f 13/3/15 39/4/20 37/4/17
f 47/4/35 27/3/34 46/4/33
f 27/3/34 47/4/35 29/3/36
f 28/3/39 49/4/38 48/4/37
f 49/4/38 28/3/39 30/3/40
f 51/4/43 31/3/42 50/4/41
f 31/3/42 51/4/43 32/3/44
f 53/4/47 23/3/46 52/4/45
f 23/3/46 53/4/47 25/3/48
f 26/3/30 48/4/37 44/4/29
f 48/4/37 26/3/30 28/3/39
f 38/4/18 17/3/49 15/3/16
f 17/3/49 38/4/18 54/4/50
f 55/4/52 23/3/46 21/3/51
f 23/3/46 55/4/52 52/4/45
f 50/4/41 29/3/36 47/4/35
f 29/3/36 50/4/41 31/3/42
f 30/3/40 51/4/43 49/4/38
f 51/4/43 30/3/40 32/3/44
f 54/4/50 19/3/53 17/3/49
f 19/3/53 54/4/50 56/4/54
f 46/4/33 25/3/48 53/4/47
f 25/3/48 46/4/33 27/3/34
f 56/4/54 21/3/51 19/3/53
f 21/3/51 56/4/54 55/4/52
f 18/3/31 40/4/22 16/3/21
f 40/4/22 18/3/31 45/4/32
f 34/4/10 39/4/20 33/4/8
f 39/4/20 34/4/10 35/4/12
f 39/4/20 35/4/12 37/4/17
f 37/4/17 35/4/12 36/4/14
f 37/4/17 36/4/14 38/4/18
f 38/4/18 36/4/14 40/4/22
f 38/4/18 40/4/22 54/4/50
f 54/4/50 40/4/22 45/4/32
f 54/4/50 45/4/32 56/4/54
f 56/4/54 45/4/32 41/4/24
f 56/4/54 41/4/24 55/4/52
f 55/4/52 41/4/24 42/4/26
f 55/4/52 42/4/26 52/4/45
f 52/4/45 42/4/26 43/4/27
f 52/4/45 43/4/27 53/4/47
f 53/4/47 43/4/27 44/4/29
f 53/4/47 44/4/29 46/4/33
f 46/4/33 44/4/29 48/4/37
f 46/4/33 48/4/37 47/4/35
f 47/4/35 48/4/37 49/4/38
f 47/4/35 49/4/38 50/4/41
f 50/4/41 49/4/38 51/4/43
f 4/5/6 58/5/6 57/5/6
f 4/5/6 27/5/6 58/5/6
f 4/5/6 59/5/6 27/5/6
f 4/5/6 60/5/6 59/5/6
f 4/5/6 61/5/6 60/5/6
f 4/5/6 57/5/6 62/5/6
f 4/5/6 62/5/6 8/5/6
f 63/5/6 8/5/6 62/5/6
f 4/5/6 64/5/6 61/5/6
f 3/5/6 64/5/6 4/5/6
f 28/5/6 8/5/6 63/5/6
f 64/5/6 3/5/6 17/5/6
f 26/5/6 8/5/6 28/5/6
f 17/5/6 3/5/6 15/5/6
f 65/5/6 8/5/6 26/5/6
f 15/5/6 3/5/6 66/5/6
f 67/5/6 8/5/6 65/5/6
f 68/5/6 8/5/6 67/5/6
f 69/5/6 8/5/6 68/5/6
f 66/5/6 3/5/6 70/5/6
f 70/5/6 3/5/6 9/5/6
f 3/5/6 71/5/6 9/5/6
f 69/5/6 7/5/6 8/5/6
f 7/5/6 71/5/6 3/5/6
f 72/5/6 7/5/6 69/5/6
f 71/5/6 7/5/6 73/5/6
f 14/5/6 7/5/6 72/5/6
f 73/5/6 7/5/6 14/5/6

