# Created by Kenney (www.kenney.nl)

mtllib bump-walls.mtl

g bump-walls

v -0.39996 0.146652 0.49995 1 1 1
v -0.39996 0.063327 0.49995 1 1 1
v -0.49995 0.146652 0.49995 1 1 1
v -0.49995 0 0.49995 1 1 1
v 0.39996 0.063327 0.49995 1 1 1
v 0.49995 0 0.49995 1 1 1
v 0.49995 0.146652 0.49995 1 1 1
v 0.39996 0.146652 0.49995 1 1 1
v 0.49995 0 -0.49995 1 1 1
v -0.49995 0 -0.49995 1 1 1
v 0.49995 0.146652 -0.49995 1 1 1
v -0.39996 0.146652 -0.49995 1 1 1
v -0.49995 0.146652 -0.49995 1 1 1
v 0.39996 0.146652 -0.49995 1 1 1
v 0.39996 0.063327 -0.49995 1 1 1
v -0.39996 0.063327 -0.49995 1 1 1
v 0.29997 0.063327 5.775291E-15 1 1 1
v 0.2897488 0.063327 0.07763795 1 1 1
v 0.2897488 0.063327 -0.07763795 1 1 1
v 0.2597817 0.063327 -0.149985 1 1 1
v 0.2597817 0.063327 0.149985 1 1 1
v 0.2121108 0.063327 -0.2121108 1 1 1
v 0.2121108 0.063327 0.2121108 1 1 1
v 0.149985 0.063327 -0.2597817 1 1 1
v 0.149985 0.063327 0.2597817 1 1 1
v 0.07763795 0.063327 -0.2897488 1 1 1
v 0.07763795 0.063327 0.2897488 1 1 1
v 3.17641E-13 0.063327 -0.29997 1 1 1
v 3.17641E-13 0.063327 0.29997 1 1 1
v -0.07763795 0.063327 -0.2897488 1 1 1
v -0.07763795 0.063327 0.2897488 1 1 1
v -0.149985 0.063327 -0.2597817 1 1 1
v -0.149985 0.063327 0.2597817 1 1 1
v -0.2121108 0.063327 -0.2121108 1 1 1
v -0.2121108 0.063327 0.2121108 1 1 1
v -0.2597817 0.063327 -0.149985 1 1 1
v -0.2597817 0.063327 0.149985 1 1 1
v -0.2897488 0.063327 -0.07763795 1 1 1
v -0.2897488 0.063327 0.07763795 1 1 1
v -0.29997 0.063327 5.775291E-15 1 1 1
v -0.1060554 0.096657 0.1060554 1 1 1
v -0.1298908 0.096657 0.07499249 1 1 1
v -0.1298908 0.096657 -0.07499249 1 1 1
v -0.1448744 0.096657 -0.03881897 1 1 1
v -0.1448744 0.096657 0.03881897 1 1 1
v 0.03881897 0.096657 0.1448744 1 1 1
v 3.060904E-13 0.096657 0.149985 1 1 1
v 0.07499249 0.096657 0.1298908 1 1 1
v 0.03881897 0.096657 -0.1448744 1 1 1
v 3.060904E-13 0.096657 -0.149985 1 1 1
v -0.03881897 0.096657 0.1448744 1 1 1
v -0.03881897 0.096657 -0.1448744 1 1 1
v 0.1298908 0.096657 -0.07499249 1 1 1
v 0.1060554 0.096657 -0.1060554 1 1 1
v 0.07499249 0.096657 -0.1298908 1 1 1
v -0.07499249 0.096657 -0.1298908 1 1 1
v -0.149985 0.096657 0 1 1 1
v 0.1448744 0.096657 -0.03881897 1 1 1
v -0.07499249 0.096657 0.1298908 1 1 1
v 0.1060554 0.096657 0.1060554 1 1 1
v 0.149985 0.096657 0 1 1 1
v 0.1448744 0.096657 0.03881897 1 1 1
v -0.1060554 0.096657 -0.1060554 1 1 1
v 0.1298908 0.096657 0.07499249 1 1 1

vn 0 0 1
vn 0 -1 0
vn 1 0 0
vn 0 1 0
vn -1 0 0
vn 0 0 -1
vn -0.08349732 0.9930038 0.08349732
vn -0.153393 0.9761871 0.153393
vn -0.1022629 0.9930038 0.05904153
vn -0.1878673 0.9761871 0.1084652
vn -0.1022629 0.9930038 -0.05904153
vn -0.1140595 0.9930038 -0.03056214
vn -0.1878673 0.9761871 -0.1084652
vn -0.2095388 0.9761871 -0.05614574
vn -0.1140595 0.9930038 0.03056214
vn -0.2095388 0.9761871 0.05614574
vn 0.05614574 0.9761871 0.2095388
vn 0 0.9761871 0.2169305
vn 0.03056214 0.9930038 0.1140595
vn 0 0.9930038 0.1180831
vn 0.1084652 0.9761871 0.1878673
vn 0.05904153 0.9930038 0.1022629
vn 0.05614574 0.9761871 -0.2095388
vn 0.03056214 0.9930038 -0.1140595
vn 0 0.9761871 -0.2169305
vn 0 0.9930038 -0.1180831
vn -0.05614574 0.9761871 0.2095388
vn -0.03056214 0.9930038 0.1140595
vn -0.05614574 0.9761871 -0.2095388
vn -0.03056214 0.9930038 -0.1140595
vn 0.1878673 0.9761871 -0.1084652
vn 0.1022629 0.9930038 -0.05904153
vn 0.153393 0.9761871 -0.153393
vn 0.08349732 0.9930038 -0.08349732
vn 0.1084652 0.9761871 -0.1878673
vn 0.05904153 0.9930038 -0.1022629
vn -0.05904153 0.9930038 -0.1022629
vn -0.1084652 0.9761871 -0.1878673
vn -0.1180831 0.9930038 0
vn -0.2169305 0.9761871 0
vn 0.2095388 0.9761871 -0.05614574
vn 0.1140595 0.9930038 -0.03056214
vn -0.05904153 0.9930038 0.1022629
vn -0.1084652 0.9761871 0.1878673
vn 0.153393 0.9761871 0.153393
vn 0.08349732 0.9930038 0.08349732
vn 0.2169305 0.9761871 0
vn 0.2095388 0.9761871 0.05614574
vn 0.1180831 0.9930038 0
vn 0.1140595 0.9930038 0.03056214
vn -0.08349732 0.9930038 -0.08349732
vn -0.153393 0.9761871 -0.153393
vn 0.1878673 0.9761871 0.1084652
vn 0.1022629 0.9930038 0.05904153

vt 0.21875 0.225
vt 0.21875 0.1113636
vt 0.21875 0.025
vt 0.09375 0.1113636
vt 0.09375 0.1568182
vt 0.03125 0.125

usemtl colormap

f 3/1/1 2/2/1 1/1/1
f 4/3/1 2/2/1 3/1/1
f 2/2/1 4/3/1 5/2/1
f 6/3/1 5/2/1 4/3/1
f 5/2/1 6/3/1 7/1/1
f 5/2/1 7/1/1 8/1/1
f 4/3/2 9/3/2 6/3/2
f 9/3/2 4/3/2 10/3/2
f 7/1/3 9/3/3 11/1/3
f 9/3/3 7/1/3 6/3/3
f 13/1/4 1/1/4 12/1/4
f 1/1/4 13/1/4 3/1/4
f 4/3/5 13/1/5 10/3/5
f 13/1/5 4/3/5 3/1/5
f 14/1/4 7/1/4 11/1/4
f 7/1/4 14/1/4 8/1/4
f 5/2/5 14/1/5 15/2/5
f 14/1/5 5/2/5 8/1/5
f 1/1/3 16/2/3 12/1/3
f 16/2/3 1/1/3 2/2/3
f 16/2/6 13/1/6 12/1/6
f 16/2/6 10/3/6 13/1/6
f 10/3/6 16/2/6 9/3/6
f 15/2/6 9/3/6 16/2/6
f 9/3/6 15/2/6 11/1/6
f 11/1/6 15/2/6 14/1/6
f 19/4/4 18/4/4 17/4/4
f 18/4/4 19/4/4 20/4/4
f 18/4/4 20/4/4 21/4/4
f 21/4/4 20/4/4 22/4/4
f 21/4/4 22/4/4 23/4/4
f 23/4/4 22/4/4 24/4/4
f 23/4/4 24/4/4 25/4/4
f 25/4/4 24/4/4 26/4/4
f 25/4/4 26/4/4 27/4/4
f 27/4/4 26/4/4 28/4/4
f 27/4/4 28/4/4 29/4/4
f 29/4/4 28/4/4 30/4/4
f 29/4/4 30/4/4 31/4/4
f 31/4/4 30/4/4 32/4/4
f 31/4/4 32/4/4 33/4/4
f 33/4/4 32/4/4 34/4/4
f 33/4/4 34/4/4 35/4/4
f 35/4/4 34/4/4 36/4/4
f 35/4/4 36/4/4 37/4/4
f 37/4/4 36/4/4 38/4/4
f 37/4/4 38/4/4 39/4/4
f 39/4/4 38/4/4 40/4/4
f 42/5/9 35/4/8 41/5/7
f 35/4/8 42/5/9 37/4/10
f 36/4/13 44/5/12 43/5/11
f 44/5/12 36/4/13 38/4/14
f 45/5/15 37/4/10 42/5/9
f 37/4/10 45/5/15 39/4/16
f 46/5/19 29/4/18 27/4/17
f 29/4/18 46/5/19 47/5/20
f 48/5/22 27/4/17 25/4/21
f 27/4/17 48/5/22 46/5/19
f 28/4/25 49/5/24 26/4/23
f 49/5/24 28/4/25 50/5/26
f 47/5/20 31/4/27 29/4/18
f 31/4/27 47/5/20 51/5/28
f 30/4/29 50/5/26 28/4/25
f 50/5/26 30/4/29 52/5/30
f 22/4/33 53/5/32 20/4/31
f 53/5/32 22/4/33 54/5/34
f 24/4/35 54/5/34 22/4/33
f 54/5/34 24/4/35 55/5/36
f 30/4/29 56/5/37 52/5/30
f 56/5/37 30/4/29 32/4/38
f 57/5/39 39/4/16 45/5/15
f 39/4/16 57/5/39 40/4/40
f 20/4/31 58/5/42 19/4/41
f 58/5/42 20/4/31 53/5/32
f 26/4/23 55/5/36 24/4/35
f 55/5/36 26/4/23 49/5/24
f 59/5/43 31/4/27 51/5/28
f 31/4/27 59/5/43 33/4/44
f 60/5/46 25/4/21 23/4/45
f 25/4/21 60/5/46 48/5/22
f 61/5/49 18/4/48 17/4/47
f 18/4/48 61/5/49 62/5/50
f 38/4/14 57/5/39 44/5/12
f 57/5/39 38/4/14 40/4/40
f 34/4/52 43/5/11 63/5/51
f 43/5/11 34/4/52 36/4/13
f 62/5/50 21/4/53 18/4/48
f 21/4/53 62/5/50 64/5/54
f 64/5/54 23/4/45 21/4/53
f 23/4/45 64/5/54 60/5/46
f 58/5/42 62/5/50 61/5/49
f 62/5/50 58/5/42 53/5/32
f 62/5/50 53/5/32 64/5/54
f 64/5/54 53/5/32 54/5/34
f 64/5/54 54/5/34 60/5/46
f 60/5/46 54/5/34 55/5/36
f 60/5/46 55/5/36 48/5/22
f 48/5/22 55/5/36 49/5/24
f 48/5/22 49/5/24 46/5/19
f 46/5/19 49/5/24 50/5/26
f 46/5/19 50/5/26 47/5/20
f 47/5/20 50/5/26 52/5/30
f 47/5/20 52/5/30 51/5/28
f 51/5/28 52/5/30 56/5/37
f 51/5/28 56/5/37 59/5/43
f 59/5/43 56/5/37 63/5/51
f 59/5/43 63/5/51 41/5/7
f 41/5/7 63/5/51 43/5/11
f 41/5/7 43/5/11 42/5/9
f 42/5/9 43/5/11 44/5/12
f 42/5/9 44/5/12 45/5/15
f 45/5/15 44/5/12 57/5/39
f 32/4/38 63/5/51 56/5/37
f 63/5/51 32/4/38 34/4/52
f 41/5/7 33/4/44 59/5/43
f 33/4/44 41/5/7 35/4/8
f 19/4/41 61/5/49 17/4/47
f 61/5/49 19/4/41 58/5/42
f 2/6/4 37/6/4 39/6/4
f 2/6/4 35/6/4 37/6/4
f 2/6/4 33/6/4 35/6/4
f 2/6/4 31/6/4 33/6/4
f 2/6/4 29/6/4 31/6/4
f 2/6/4 27/6/4 29/6/4
f 2/6/4 39/6/4 40/6/4
f 2/6/4 25/6/4 27/6/4
f 2/6/4 40/6/4 16/6/4
f 38/6/4 16/6/4 40/6/4
f 36/6/4 16/6/4 38/6/4
f 5/6/4 25/6/4 2/6/4
f 34/6/4 16/6/4 36/6/4
f 25/6/4 5/6/4 23/6/4
f 32/6/4 16/6/4 34/6/4
f 23/6/4 5/6/4 21/6/4
f 30/6/4 16/6/4 32/6/4
f 21/6/4 5/6/4 18/6/4
f 18/6/4 5/6/4 17/6/4
f 5/6/4 19/6/4 17/6/4
f 28/6/4 16/6/4 30/6/4
f 26/6/4 16/6/4 28/6/4
f 24/6/4 16/6/4 26/6/4
f 15/6/4 19/6/4 5/6/4
f 24/6/4 15/6/4 16/6/4
f 19/6/4 15/6/4 20/6/4
f 22/6/4 15/6/4 24/6/4
f 20/6/4 15/6/4 22/6/4

g bump-walls




usemtl colormap

f 3/1/1 2/2/1 1/1/1
f 4/3/1 2/2/1 3/1/1
f 2/2/1 4/3/1 5/2/1
f 6/3/1 5/2/1 4/3/1
f 5/2/1 6/3/1 7/1/1
f 5/2/1 7/1/1 8/1/1
f 4/3/2 9/3/2 6/3/2
f 9/3/2 4/3/2 10/3/2
f 7/1/3 9/3/3 11/1/3
f 9/3/3 7/1/3 6/3/3
f 13/1/4 1/1/4 12/1/4
f 1/1/4 13/1/4 3/1/4
f 4/3/5 13/1/5 10/3/5
f 13/1/5 4/3/5 3/1/5
f 14/1/4 7/1/4 11/1/4
f 7/1/4 14/1/4 8/1/4
f 5/2/5 14/1/5 15/2/5
f 14/1/5 5/2/5 8/1/5
f 1/1/3 16/2/3 12/1/3
f 16/2/3 1/1/3 2/2/3
f 16/2/6 13/1/6 12/1/6
f 16/2/6 10/3/6 13/1/6
f 10/3/6 16/2/6 9/3/6
f 15/2/6 9/3/6 16/2/6
f 9/3/6 15/2/6 11/1/6
f 11/1/6 15/2/6 14/1/6
f 19/4/4 18/4/4 17/4/4
f 18/4/4 19/4/4 20/4/4
f 18/4/4 20/4/4 21/4/4
f 21/4/4 20/4/4 22/4/4
f 21/4/4 22/4/4 23/4/4
f 23/4/4 22/4/4 24/4/4
f 23/4/4 24/4/4 25/4/4
f 25/4/4 24/4/4 26/4/4
f 25/4/4 26/4/4 27/4/4
f 27/4/4 26/4/4 28/4/4
f 27/4/4 28/4/4 29/4/4
f 29/4/4 28/4/4 30/4/4
f 29/4/4 30/4/4 31/4/4
f 31/4/4 30/4/4 32/4/4
f 31/4/4 32/4/4 33/4/4
f 33/4/4 32/4/4 34/4/4
f 33/4/4 34/4/4 35/4/4
f 35/4/4 34/4/4 36/4/4
f 35/4/4 36/4/4 37/4/4
f 37/4/4 36/4/4 38/4/4
f 37/4/4 38/4/4 39/4/4
f 39/4/4 38/4/4 40/4/4
f 42/5/9 35/4/8 41/5/7
f 35/4/8 42/5/9 37/4/10
f 36/4/13 44/5/12 43/5/11
f 44/5/12 36/4/13 38/4/14
f 45/5/15 37/4/10 42/5/9
f 37/4/10 45/5/15 39/4/16
f 46/5/19 29/4/18 27/4/17
f 29/4/18 46/5/19 47/5/20
f 48/5/22 27/4/17 25/4/21
f 27/4/17 48/5/22 46/5/19
f 28/4/25 49/5/24 26/4/23
f 49/5/24 28/4/25 50/5/26
f 47/5/20 31/4/27 29/4/18
f 31/4/27 47/5/20 51/5/28
f 30/4/29 50/5/26 28/4/25
f 50/5/26 30/4/29 52/5/30
f 22/4/33 53/5/32 20/4/31
f 53/5/32 22/4/33 54/5/34
f 24/4/35 54/5/34 22/4/33
f 54/5/34 24/4/35 55/5/36
f 30/4/29 56/5/37 52/5/30
f 56/5/37 30/4/29 32/4/38
f 57/5/39 39/4/16 45/5/15
f 39/4/16 57/5/39 40/4/40
f 20/4/31 58/5/42 19/4/41
f 58/5/42 20/4/31 53/5/32
f 26/4/23 55/5/36 24/4/35
f 55/5/36 26/4/23 49/5/24
f 59/5/43 31/4/27 51/5/28
f 31/4/27 59/5/43 33/4/44
f 60/5/46 25/4/21 23/4/45
f 25/4/21 60/5/46 48/5/22
f 61/5/49 18/4/48 17/4/47
f 18/4/48 61/5/49 62/5/50
f 38/4/14 57/5/39 44/5/12
f 57/5/39 38/4/14 40/4/40
f 34/4/52 43/5/11 63/5/51
f 43/5/11 34/4/52 36/4/13
f 62/5/50 21/4/53 18/4/48
f 21/4/53 62/5/50 64/5/54
f 64/5/54 23/4/45 21/4/53
f 23/4/45 64/5/54 60/5/46
f 58/5/42 62/5/50 61/5/49
f 62/5/50 58/5/42 53/5/32
f 62/5/50 53/5/32 64/5/54
f 64/5/54 53/5/32 54/5/34
f 64/5/54 54/5/34 60/5/46
f 60/5/46 54/5/34 55/5/36
f 60/5/46 55/5/36 48/5/22
f 48/5/22 55/5/36 49/5/24
f 48/5/22 49/5/24 46/5/19
f 46/5/19 49/5/24 50/5/26
f 46/5/19 50/5/26 47/5/20
f 47/5/20 50/5/26 52/5/30
f 47/5/20 52/5/30 51/5/28
f 51/5/28 52/5/30 56/5/37
f 51/5/28 56/5/37 59/5/43
f 59/5/43 56/5/37 63/5/51
f 59/5/43 63/5/51 41/5/7
f 41/5/7 63/5/51 43/5/11
f 41/5/7 43/5/11 42/5/9
f 42/5/9 43/5/11 44/5/12
f 42/5/9 44/5/12 45/5/15
f 45/5/15 44/5/12 57/5/39
f 32/4/38 63/5/51 56/5/37
f 63/5/51 32/4/38 34/4/52
f 41/5/7 33/4/44 59/5/43
f 33/4/44 41/5/7 35/4/8
f 19/4/41 61/5/49 17/4/47
f 61/5/49 19/4/41 58/5/42
f 2/6/4 37/6/4 39/6/4
f 2/6/4 35/6/4 37/6/4
f 2/6/4 33/6/4 35/6/4
f 2/6/4 31/6/4 33/6/4
f 2/6/4 29/6/4 31/6/4
f 2/6/4 27/6/4 29/6/4
f 2/6/4 39/6/4 40/6/4
f 2/6/4 25/6/4 27/6/4
f 2/6/4 40/6/4 16/6/4
f 38/6/4 16/6/4 40/6/4
f 36/6/4 16/6/4 38/6/4
f 5/6/4 25/6/4 2/6/4
f 34/6/4 16/6/4 36/6/4
f 25/6/4 5/6/4 23/6/4
f 32/6/4 16/6/4 34/6/4
f 23/6/4 5/6/4 21/6/4
f 30/6/4 16/6/4 32/6/4
f 21/6/4 5/6/4 18/6/4
f 18/6/4 5/6/4 17/6/4
f 5/6/4 19/6/4 17/6/4
f 28/6/4 16/6/4 30/6/4
f 26/6/4 16/6/4 28/6/4
f 24/6/4 16/6/4 26/6/4
f 15/6/4 19/6/4 5/6/4
f 24/6/4 15/6/4 16/6/4
f 19/6/4 15/6/4 20/6/4
f 22/6/4 15/6/4 24/6/4
f 20/6/4 15/6/4 22/6/4

