# Created by Kenney (www.kenney.nl)

mtllib corner.mtl

g corner

v 0.49995 0 -0.49995 1 1 1
v -0.49995 0 -0.49995 1 1 1
v 0.49995 0 0.49995 1 1 1
v -0.49995 0 0.49995 1 1 1
v 0.49995 0.146652 -0.49995 1 1 1
v 0.49995 0.146652 0.49995 1 1 1
v -0.49995 0.063327 -0.49995 1 1 1
v -0.49995 0.063327 0.39996 1 1 1
v -0.49995 0.146652 0.39996 1 1 1
v -0.49995 0.146652 0.49995 1 1 1
v 0.39996 0.063327 -0.49995 1 1 1
v 0.39996 0.146652 -0.49995 1 1 1
v 0.39996 0.146652 0.39996 1 1 1
v 0.39996 0.063327 0.39996 1 1 1
v 0.39996 0.063327 0.39996 1 1 1
v -0.49995 0.063327 -0.49995 1 1 1
v -0.49995 0.063327 0.39996 1 1 1

vn 0 -1 0
vn 1 0 0
vn -1 0 0
vn 0 0 -1
vn 0 1 0
vn 0 0 1

vt 0.21875 0.025
vt 0.21875 0.225
vt 0.21875 0.1113636
vt 0.03125 0.125

usemtl colormap

f 3/1/1 2/1/1 1/1/1
f 2/1/1 3/1/1 4/1/1
f 6/2/2 1/1/2 5/2/2
f 1/1/2 6/2/2 3/1/2
f 4/1/3 7/3/3 2/1/3
f 7/3/3 4/1/3 8/3/3
f 8/3/3 4/1/3 9/2/3
f 9/2/3 4/1/3 10/2/3
f 7/3/4 1/1/4 2/1/4
f 1/1/4 7/3/4 11/3/4
f 1/1/4 11/3/4 5/2/4
f 5/2/4 11/3/4 12/2/4
f 12/2/5 6/2/5 5/2/5
f 6/2/5 12/2/5 13/2/5
f 6/2/5 13/2/5 10/2/5
f 10/2/5 13/2/5 9/2/5
f 6/2/6 4/1/6 3/1/6
f 4/1/6 6/2/6 10/2/6
f 14/3/3 12/2/3 11/3/3
f 12/2/3 14/3/3 13/2/3
f 9/2/4 14/3/4 8/3/4
f 14/3/4 9/2/4 13/2/4
f 16/4/5 15/4/5 11/4/5
f 15/4/5 16/4/5 17/4/5

g corner




usemtl colormap

f 3/1/1 2/1/1 1/1/1
f 2/1/1 3/1/1 4/1/1
f 6/2/2 1/1/2 5/2/2
f 1/1/2 6/2/2 3/1/2
f 4/1/3 7/3/3 2/1/3
f 7/3/3 4/1/3 8/3/3
f 8/3/3 4/1/3 9/2/3
f 9/2/3 4/1/3 10/2/3
f 7/3/4 1/1/4 2/1/4
f 1/1/4 7/3/4 11/3/4
f 1/1/4 11/3/4 5/2/4
f 5/2/4 11/3/4 12/2/4
f 12/2/5 6/2/5 5/2/5
f 6/2/5 12/2/5 13/2/5
f 6/2/5 13/2/5 10/2/5
f 10/2/5 13/2/5 9/2/5
f 6/2/6 4/1/6 3/1/6
f 4/1/6 6/2/6 10/2/6
f 14/3/3 12/2/3 11/3/3
f 12/2/3 14/3/3 13/2/3
f 9/2/4 14/3/4 8/3/4
f 14/3/4 9/2/4 13/2/4
f 16/4/5 15/4/5 11/4/5
f 15/4/5 16/4/5 17/4/5

