# Created by Kenney (www.kenney.nl)

mtllib hill-round.mtl

g hill-round

v 0.39996 0.146652 0.49995 1 1 1
v 0.49995 0.146652 0.49995 1 1 1
v 0.39996 0.063327 0.49995 1 1 1
v 0.49995 0 0.49995 1 1 1
v -0.49995 0 0.49995 1 1 1
v -0.39996 0.063327 0.49995 1 1 1
v -0.49995 0.146652 0.49995 1 1 1
v -0.39996 0.146652 0.49995 1 1 1
v 0.49995 0 -0.49995 1 1 1
v -0.49995 0 -0.49995 1 1 1
v 0.49995 0.146652 -0.49995 1 1 1
v 0.49995 0.146652 -0.2766959 1 1 1
v 0.49995 0.1534508 -0.2673188 1 1 1
v 0.49995 0.1864382 -0.205164 1 1 1
v 0.49995 0.2104688 -0.1390284 1 1 1
v 0.49995 0.2250762 -0.07019521 1 1 1
v 0.49995 0.229977 2.887646E-15 1 1 1
v 0.49995 0.2250762 0.07019521 1 1 1
v 0.49995 0.2104688 0.1390284 1 1 1
v 0.49995 0.1864382 0.205164 1 1 1
v 0.49995 0.146652 0.2766959 1 1 1
v 0.49995 0.1534508 0.2673188 1 1 1
v -0.39996 0.146652 0.2766959 1 1 1
v -0.49995 0.146652 0.2766959 1 1 1
v -0.49995 0.146652 -0.49995 1 1 1
v -0.49995 0.146652 -0.2766959 1 1 1
v -0.49995 0.1534508 -0.2673188 1 1 1
v -0.49995 0.1864382 -0.205164 1 1 1
v -0.49995 0.2104688 -0.1390284 1 1 1
v -0.49995 0.2250762 -0.07019521 1 1 1
v -0.49995 0.229977 -8.662937E-15 1 1 1
v -0.49995 0.2250762 0.07019521 1 1 1
v -0.49995 0.2104688 0.1390284 1 1 1
v -0.49995 0.1864382 0.205164 1 1 1
v -0.49995 0.1534508 0.2673188 1 1 1
v -0.39996 0.146652 -0.49995 1 1 1
v -0.39996 0.063327 -0.49995 1 1 1
v 0.39996 0.063327 -0.49995 1 1 1
v 0.39996 0.146652 -0.49995 1 1 1
v -0.39996 0.146652 -0.2766959 1 1 1
v -0.39996 0.063327 -0.249975 1 1 1
v -0.39996 0.1534508 -0.2673188 1 1 1
v -0.39996 0.1864382 -0.205164 1 1 1
v -0.39996 0.08817042 -0.2128607 1 1 1
v -0.39996 0.1088982 -0.1733003 1 1 1
v -0.39996 0.2104688 -0.1390284 1 1 1
v -0.39996 0.1252722 -0.1317484 1 1 1
v -0.39996 0.2250762 -0.07019521 1 1 1
v -0.39996 0.1371042 -0.0886825 1 1 1
v -0.39996 0.1442582 -0.0445975 1 1 1
v -0.39996 0.229977 -7.219114E-15 1 1 1
v -0.39996 0.146652 -8.662937E-15 1 1 1
v -0.39996 0.1442582 0.0445975 1 1 1
v -0.39996 0.2250762 0.07019521 1 1 1
v -0.39996 0.1371042 0.0886825 1 1 1
v -0.39996 0.2104688 0.1390284 1 1 1
v -0.39996 0.1252722 0.1317484 1 1 1
v -0.39996 0.1088982 0.1733003 1 1 1
v -0.39996 0.1864382 0.205164 1 1 1
v -0.39996 0.08817042 0.2128607 1 1 1
v -0.39996 0.1534508 0.2673188 1 1 1
v -0.39996 0.063327 0.249975 1 1 1
v 0.39996 0.063327 -0.249975 1 1 1
v 0.39996 0.146652 -0.2766959 1 1 1
v 0.39996 0.1534508 -0.2673188 1 1 1
v 0.39996 0.1864382 -0.205164 1 1 1
v 0.39996 0.08817042 -0.2128607 1 1 1
v 0.39996 0.1088982 -0.1733003 1 1 1
v 0.39996 0.2104688 -0.1390284 1 1 1
v 0.39996 0.1252722 -0.1317484 1 1 1
v 0.39996 0.2250762 -0.07019521 1 1 1
v 0.39996 0.1371042 -0.0886825 1 1 1
v 0.39996 0.1442582 -0.0445975 1 1 1
v 0.39996 0.229977 2.887646E-15 1 1 1
v 0.39996 0.146652 2.887646E-15 1 1 1
v 0.39996 0.1442582 0.0445975 1 1 1
v 0.39996 0.2250762 0.07019521 1 1 1
v 0.39996 0.1371042 0.0886825 1 1 1
v 0.39996 0.2104688 0.1390284 1 1 1
v 0.39996 0.1252722 0.1317484 1 1 1
v 0.39996 0.1088982 0.1733003 1 1 1
v 0.39996 0.1864382 0.205164 1 1 1
v 0.39996 0.08817042 0.2128607 1 1 1
v 0.39996 0.1534508 0.2673188 1 1 1
v 0.39996 0.063327 0.249975 1 1 1
v 0.39996 0.146652 0.2766959 1 1 1
v 0.39996 0.063327 0.249975 1 1 1
v -0.39996 0.063327 0.249975 1 1 1

vn 0 0 1
vn 0 -1 0
vn 1 0 0
vn 0 1 0
vn -1 0 0
vn 0 0 -1
vn 0 0.8485103 0.5291788
vn 0 0.8095938 0.5869905
vn 0 0.9138115 0.4061384
vn 0 0.9613819 0.2752178
vn 0 0.9902984 0.138957
vn 0 0.9902984 -0.138957
vn 0 0.9613819 -0.2752178
vn 0 0.9138115 -0.4061384
vn 0 0.8485103 -0.5291788
vn 0 0.8095938 -0.5869905
vn 0 -0.8596302 -0.5109168
vn 0 -0.8310096 -0.556258
vn 0 -0.9093818 -0.4159622
vn 0 -0.9486833 -0.3162278
vn 0 -0.9770828 -0.2128593
vn 0 -0.9942542 -0.1070447
vn 0 -0.9942542 0.1070447
vn 0 -0.9770828 0.2128593
vn 0 -0.9486833 0.3162278
vn 0 -0.9093818 0.4159622
vn 0 -0.8596302 0.5109168
vn 0 -0.8310096 0.556258
vn 0 0.8596302 0.5109168
vn 0 0.8310096 0.556258
vn 0 0.9093818 0.4159622
vn 0 0.9486833 0.3162278
vn 0 0.9770828 0.2128593
vn 0 0.9942542 0.1070447
vn 0 0.9942542 -0.1070447
vn 0 0.9770828 -0.2128593
vn 0 0.9486833 -0.3162278
vn 0 0.9093818 -0.4159622
vn 0 0.8596302 -0.5109168
vn 0 0.8310096 -0.556258

vt 0.21875 0.1525362
vt 0.21875 0.08007246
vt 0.21875 0.025
vt 0.21875 0.1584488
vt 0.21875 0.1871364
vt 0.21875 0.2080346
vt 0.21875 0.220738
vt 0.21875 0.225
vt 0.21875 0.1016776
vt 0.21875 0.1197036
vt 0.21875 0.1339432
vt 0.21875 0.1442329
vt 0.21875 0.1504544
vt 0.09375 0.1016776
vt 0.09375 0.08007246
vt 0.09375 0.1197036
vt 0.09375 0.1339432
vt 0.09375 0.1442329
vt 0.09375 0.1504544
vt 0.09375 0.1525362
vt 0.03125 0.125

usemtl colormap

f 3/2/1 2/1/1 1/1/1
f 3/2/1 4/3/1 2/1/1
f 4/3/1 3/2/1 5/3/1
f 6/2/1 5/3/1 3/2/1
f 5/3/1 6/2/1 7/1/1
f 7/1/1 6/2/1 8/1/1
f 4/3/2 10/3/2 9/3/2
f 10/3/2 4/3/2 5/3/2
f 12/1/3 9/3/3 11/1/3
f 9/3/3 12/1/3 4/3/3
f 4/3/3 12/1/3 13/4/3
f 4/3/3 13/4/3 14/5/3
f 4/3/3 14/5/3 15/6/3
f 4/3/3 15/6/3 16/7/3
f 4/3/3 16/7/3 17/8/3
f 4/3/3 17/8/3 18/7/3
f 4/3/3 18/7/3 19/6/3
f 4/3/3 19/6/3 20/5/3
f 4/3/3 20/5/3 21/1/3
f 21/1/3 20/5/3 22/4/3
f 4/3/3 21/1/3 2/1/3
f 23/1/4 7/1/4 8/1/4
f 7/1/4 23/1/4 24/1/4
f 5/3/5 25/1/5 10/3/5
f 25/1/5 5/3/5 26/1/5
f 26/1/5 5/3/5 27/4/5
f 27/4/5 5/3/5 28/5/5
f 28/5/5 5/3/5 29/6/5
f 29/6/5 5/3/5 30/7/5
f 30/7/5 5/3/5 31/8/5
f 31/8/5 5/3/5 32/7/5
f 32/7/5 5/3/5 33/6/5
f 33/6/5 5/3/5 34/5/5
f 34/5/5 5/3/5 24/1/5
f 34/5/5 24/1/5 35/4/5
f 24/1/5 5/3/5 7/1/5
f 37/2/6 25/1/6 36/1/6
f 37/2/6 10/3/6 25/1/6
f 10/3/6 37/2/6 9/3/6
f 38/2/6 9/3/6 37/2/6
f 9/3/6 38/2/6 11/1/6
f 11/1/6 38/2/6 39/1/6
f 40/1/3 37/2/3 36/1/3
f 37/2/3 40/1/3 41/2/3
f 41/2/3 40/1/3 42/4/3
f 41/2/3 42/4/3 43/5/3
f 41/2/3 43/5/3 44/9/3
f 44/9/3 43/5/3 45/10/3
f 45/10/3 43/5/3 46/6/3
f 45/10/3 46/6/3 47/11/3
f 47/11/3 46/6/3 48/7/3
f 47/11/3 48/7/3 49/12/3
f 49/12/3 48/7/3 50/13/3
f 50/13/3 48/7/3 51/8/3
f 50/13/3 51/8/3 52/1/3
f 52/1/3 51/8/3 53/13/3
f 53/13/3 51/8/3 54/7/3
f 53/13/3 54/7/3 55/12/3
f 55/12/3 54/7/3 56/6/3
f 55/12/3 56/6/3 57/11/3
f 57/11/3 56/6/3 58/10/3
f 58/10/3 56/6/3 59/5/3
f 58/10/3 59/5/3 60/9/3
f 60/9/3 59/5/3 61/4/3
f 60/9/3 61/4/3 62/2/3
f 62/2/3 61/4/3 23/1/3
f 62/2/3 23/1/3 6/2/3
f 6/2/3 23/1/3 8/1/3
f 63/2/5 39/1/5 38/2/5
f 39/1/5 63/2/5 64/1/5
f 64/1/5 63/2/5 65/4/5
f 65/4/5 63/2/5 66/5/5
f 66/5/5 63/2/5 67/9/5
f 66/5/5 67/9/5 68/10/5
f 66/5/5 68/10/5 69/6/5
f 69/6/5 68/10/5 70/11/5
f 69/6/5 70/11/5 71/7/5
f 71/7/5 70/11/5 72/12/5
f 71/7/5 72/12/5 73/13/5
f 71/7/5 73/13/5 74/8/5
f 74/8/5 73/13/5 75/1/5
f 74/8/5 75/1/5 76/13/5
f 74/8/5 76/13/5 77/7/5
f 77/7/5 76/13/5 78/12/5
f 77/7/5 78/12/5 79/6/5
f 79/6/5 78/12/5 80/11/5
f 79/6/5 80/11/5 81/10/5
f 79/6/5 81/10/5 82/5/5
f 82/5/5 81/10/5 83/9/5
f 82/5/5 83/9/5 84/4/5
f 84/4/5 83/9/5 85/2/5
f 84/4/5 85/2/5 86/1/5
f 86/1/5 85/2/5 3/2/5
f 86/1/5 3/2/5 1/1/5
f 11/1/4 64/1/4 12/1/4
f 64/1/4 11/1/4 39/1/4
f 84/4/7 21/1/8 22/4/7
f 21/1/8 84/4/7 86/1/8
f 82/5/9 22/4/7 20/5/9
f 22/4/7 82/5/9 84/4/7
f 79/6/10 20/5/9 19/6/10
f 20/5/9 79/6/10 82/5/9
f 77/7/11 19/6/10 18/7/11
f 19/6/10 77/7/11 79/6/10
f 74/8/4 18/7/11 17/8/4
f 18/7/11 74/8/4 77/7/11
f 71/7/12 17/8/4 16/7/12
f 17/8/4 71/7/12 74/8/4
f 69/6/13 16/7/12 15/6/13
f 16/7/12 69/6/13 71/7/12
f 66/5/14 15/6/13 14/5/14
f 15/6/13 66/5/14 69/6/13
f 65/4/15 14/5/14 13/4/15
f 14/5/14 65/4/15 66/5/14
f 64/1/16 13/4/15 12/1/16
f 13/4/15 64/1/16 65/4/15
f 86/1/4 2/1/4 21/1/4
f 2/1/4 86/1/4 1/1/4
f 35/4/7 23/1/8 61/4/7
f 23/1/8 35/4/7 24/1/8
f 34/5/9 61/4/7 59/5/9
f 61/4/7 34/5/9 35/4/7
f 33/6/10 59/5/9 56/6/10
f 59/5/9 33/6/10 34/5/9
f 32/7/11 56/6/10 54/7/11
f 56/6/10 32/7/11 33/6/10
f 31/8/4 54/7/11 51/8/4
f 54/7/11 31/8/4 32/7/11
f 30/7/12 51/8/4 48/7/12
f 51/8/4 30/7/12 31/8/4
f 29/6/13 48/7/12 46/6/13
f 48/7/12 29/6/13 30/7/12
f 28/5/14 46/6/13 43/5/14
f 46/6/13 28/5/14 29/6/13
f 27/4/15 43/5/14 42/4/15
f 43/5/14 27/4/15 28/5/14
f 26/1/16 42/4/15 40/1/16
f 42/4/15 26/1/16 27/4/15
f 25/1/4 40/1/4 36/1/4
f 40/1/4 25/1/4 26/1/4
f 83/9/17 85/2/18 60/9/17
f 62/2/18 60/9/17 85/2/18
f 81/10/19 83/9/17 58/10/19
f 60/9/17 58/10/19 83/9/17
f 80/11/20 81/10/19 57/11/20
f 58/10/19 57/11/20 81/10/19
f 78/12/21 80/11/20 55/12/21
f 57/11/20 55/12/21 80/11/20
f 76/13/22 78/12/21 53/13/22
f 55/12/21 53/13/22 78/12/21
f 75/1/2 76/13/22 52/1/2
f 53/13/22 52/1/2 76/13/22
f 73/13/23 75/1/2 50/13/23
f 52/1/2 50/13/23 75/1/2
f 72/12/24 73/13/23 49/12/24
f 50/13/23 49/12/24 73/13/23
f 70/11/25 72/12/24 47/11/25
f 49/12/24 47/11/25 72/12/24
f 68/10/26 70/11/25 45/10/26
f 47/11/25 45/10/26 70/11/25
f 67/9/27 68/10/26 44/9/27
f 45/10/26 44/9/27 68/10/26
f 63/2/28 67/9/27 41/2/28
f 44/9/27 41/2/28 67/9/27
f 60/14/29 85/15/30 83/14/29
f 85/15/30 60/14/29 62/15/30
f 58/16/31 83/14/29 81/16/31
f 83/14/29 58/16/31 60/14/29
f 57/17/32 81/16/31 80/17/32
f 81/16/31 57/17/32 58/16/31
f 55/18/33 80/17/32 78/18/33
f 80/17/32 55/18/33 57/17/32
f 53/19/34 78/18/33 76/19/34
f 78/18/33 53/19/34 55/18/33
f 52/20/4 76/19/34 75/20/4
f 76/19/34 52/20/4 53/19/34
f 50/19/35 75/20/4 73/19/35
f 75/20/4 50/19/35 52/20/4
f 49/18/36 73/19/35 72/18/36
f 73/19/35 49/18/36 50/19/35
f 47/17/37 72/18/36 70/17/37
f 72/18/36 47/17/37 49/18/36
f 45/16/38 70/17/37 68/16/38
f 70/17/37 45/16/38 47/17/37
f 44/14/39 68/16/38 67/14/39
f 68/16/38 44/14/39 45/16/38
f 41/15/40 67/14/39 63/15/40
f 67/14/39 41/15/40 44/14/39
f 88/21/4 3/21/4 87/21/4
f 3/21/4 88/21/4 6/21/4
f 37/21/4 63/21/4 38/21/4
f 63/21/4 37/21/4 41/21/4

g hill-round




usemtl colormap

f 3/2/1 2/1/1 1/1/1
f 3/2/1 4/3/1 2/1/1
f 4/3/1 3/2/1 5/3/1
f 6/2/1 5/3/1 3/2/1
f 5/3/1 6/2/1 7/1/1
f 7/1/1 6/2/1 8/1/1
f 4/3/2 10/3/2 9/3/2
f 10/3/2 4/3/2 5/3/2
f 12/1/3 9/3/3 11/1/3
f 9/3/3 12/1/3 4/3/3
f 4/3/3 12/1/3 13/4/3
f 4/3/3 13/4/3 14/5/3
f 4/3/3 14/5/3 15/6/3
f 4/3/3 15/6/3 16/7/3
f 4/3/3 16/7/3 17/8/3
f 4/3/3 17/8/3 18/7/3
f 4/3/3 18/7/3 19/6/3
f 4/3/3 19/6/3 20/5/3
f 4/3/3 20/5/3 21/1/3
f 21/1/3 20/5/3 22/4/3
f 4/3/3 21/1/3 2/1/3
f 23/1/4 7/1/4 8/1/4
f 7/1/4 23/1/4 24/1/4
f 5/3/5 25/1/5 10/3/5
f 25/1/5 5/3/5 26/1/5
f 26/1/5 5/3/5 27/4/5
f 27/4/5 5/3/5 28/5/5
f 28/5/5 5/3/5 29/6/5
f 29/6/5 5/3/5 30/7/5
f 30/7/5 5/3/5 31/8/5
f 31/8/5 5/3/5 32/7/5
f 32/7/5 5/3/5 33/6/5
f 33/6/5 5/3/5 34/5/5
f 34/5/5 5/3/5 24/1/5
f 34/5/5 24/1/5 35/4/5
f 24/1/5 5/3/5 7/1/5
f 37/2/6 25/1/6 36/1/6
f 37/2/6 10/3/6 25/1/6
f 10/3/6 37/2/6 9/3/6
f 38/2/6 9/3/6 37/2/6
f 9/3/6 38/2/6 11/1/6
f 11/1/6 38/2/6 39/1/6
f 40/1/3 37/2/3 36/1/3
f 37/2/3 40/1/3 41/2/3
f 41/2/3 40/1/3 42/4/3
f 41/2/3 42/4/3 43/5/3
f 41/2/3 43/5/3 44/9/3
f 44/9/3 43/5/3 45/10/3
f 45/10/3 43/5/3 46/6/3
f 45/10/3 46/6/3 47/11/3
f 47/11/3 46/6/3 48/7/3
f 47/11/3 48/7/3 49/12/3
f 49/12/3 48/7/3 50/13/3
f 50/13/3 48/7/3 51/8/3
f 50/13/3 51/8/3 52/1/3
f 52/1/3 51/8/3 53/13/3
f 53/13/3 51/8/3 54/7/3
f 53/13/3 54/7/3 55/12/3
f 55/12/3 54/7/3 56/6/3
f 55/12/3 56/6/3 57/11/3
f 57/11/3 56/6/3 58/10/3
f 58/10/3 56/6/3 59/5/3
f 58/10/3 59/5/3 60/9/3
f 60/9/3 59/5/3 61/4/3
f 60/9/3 61/4/3 62/2/3
f 62/2/3 61/4/3 23/1/3
f 62/2/3 23/1/3 6/2/3
f 6/2/3 23/1/3 8/1/3
f 63/2/5 39/1/5 38/2/5
f 39/1/5 63/2/5 64/1/5
f 64/1/5 63/2/5 65/4/5
f 65/4/5 63/2/5 66/5/5
f 66/5/5 63/2/5 67/9/5
f 66/5/5 67/9/5 68/10/5
f 66/5/5 68/10/5 69/6/5
f 69/6/5 68/10/5 70/11/5
f 69/6/5 70/11/5 71/7/5
f 71/7/5 70/11/5 72/12/5
f 71/7/5 72/12/5 73/13/5
f 71/7/5 73/13/5 74/8/5
f 74/8/5 73/13/5 75/1/5
f 74/8/5 75/1/5 76/13/5
f 74/8/5 76/13/5 77/7/5
f 77/7/5 76/13/5 78/12/5
f 77/7/5 78/12/5 79/6/5
f 79/6/5 78/12/5 80/11/5
f 79/6/5 80/11/5 81/10/5
f 79/6/5 81/10/5 82/5/5
f 82/5/5 81/10/5 83/9/5
f 82/5/5 83/9/5 84/4/5
f 84/4/5 83/9/5 85/2/5
f 84/4/5 85/2/5 86/1/5
f 86/1/5 85/2/5 3/2/5
f 86/1/5 3/2/5 1/1/5
f 11/1/4 64/1/4 12/1/4
f 64/1/4 11/1/4 39/1/4
f 84/4/7 21/1/8 22/4/7
f 21/1/8 84/4/7 86/1/8
f 82/5/9 22/4/7 20/5/9
f 22/4/7 82/5/9 84/4/7
f 79/6/10 20/5/9 19/6/10
f 20/5/9 79/6/10 82/5/9
f 77/7/11 19/6/10 18/7/11
f 19/6/10 77/7/11 79/6/10
f 74/8/4 18/7/11 17/8/4
f 18/7/11 74/8/4 77/7/11
f 71/7/12 17/8/4 16/7/12
f 17/8/4 71/7/12 74/8/4
f 69/6/13 16/7/12 15/6/13
f 16/7/12 69/6/13 71/7/12
f 66/5/14 15/6/13 14/5/14
f 15/6/13 66/5/14 69/6/13
f 65/4/15 14/5/14 13/4/15
f 14/5/14 65/4/15 66/5/14
f 64/1/16 13/4/15 12/1/16
f 13/4/15 64/1/16 65/4/15
f 86/1/4 2/1/4 21/1/4
f 2/1/4 86/1/4 1/1/4
f 35/4/7 23/1/8 61/4/7
f 23/1/8 35/4/7 24/1/8
f 34/5/9 61/4/7 59/5/9
f 61/4/7 34/5/9 35/4/7
f 33/6/10 59/5/9 56/6/10
f 59/5/9 33/6/10 34/5/9
f 32/7/11 56/6/10 54/7/11
f 56/6/10 32/7/11 33/6/10
f 31/8/4 54/7/11 51/8/4
f 54/7/11 31/8/4 32/7/11
f 30/7/12 51/8/4 48/7/12
f 51/8/4 30/7/12 31/8/4
f 29/6/13 48/7/12 46/6/13
f 48/7/12 29/6/13 30/7/12
f 28/5/14 46/6/13 43/5/14
f 46/6/13 28/5/14 29/6/13
f 27/4/15 43/5/14 42/4/15
f 43/5/14 27/4/15 28/5/14
f 26/1/16 42/4/15 40/1/16
f 42/4/15 26/1/16 27/4/15
f 25/1/4 40/1/4 36/1/4
f 40/1/4 25/1/4 26/1/4
f 83/9/17 85/2/18 60/9/17
f 62/2/18 60/9/17 85/2/18
f 81/10/19 83/9/17 58/10/19
f 60/9/17 58/10/19 83/9/17
f 80/11/20 81/10/19 57/11/20
f 58/10/19 57/11/20 81/10/19
f 78/12/21 80/11/20 55/12/21
f 57/11/20 55/12/21 80/11/20
f 76/13/22 78/12/21 53/13/22
f 55/12/21 53/13/22 78/12/21
f 75/1/2 76/13/22 52/1/2
f 53/13/22 52/1/2 76/13/22
f 73/13/23 75/1/2 50/13/23
f 52/1/2 50/13/23 75/1/2
f 72/12/24 73/13/23 49/12/24
f 50/13/23 49/12/24 73/13/23
f 70/11/25 72/12/24 47/11/25
f 49/12/24 47/11/25 72/12/24
f 68/10/26 70/11/25 45/10/26
f 47/11/25 45/10/26 70/11/25
f 67/9/27 68/10/26 44/9/27
f 45/10/26 44/9/27 68/10/26
f 63/2/28 67/9/27 41/2/28
f 44/9/27 41/2/28 67/9/27
f 60/14/29 85/15/30 83/14/29
f 85/15/30 60/14/29 62/15/30
f 58/16/31 83/14/29 81/16/31
f 83/14/29 58/16/31 60/14/29
f 57/17/32 81/16/31 80/17/32
f 81/16/31 57/17/32 58/16/31
f 55/18/33 80/17/32 78/18/33
f 80/17/32 55/18/33 57/17/32
f 53/19/34 78/18/33 76/19/34
f 78/18/33 53/19/34 55/18/33
f 52/20/4 76/19/34 75/20/4
f 76/19/34 52/20/4 53/19/34
f 50/19/35 75/20/4 73/19/35
f 75/20/4 50/19/35 52/20/4
f 49/18/36 73/19/35 72/18/36
f 73/19/35 49/18/36 50/19/35
f 47/17/37 72/18/36 70/17/37
f 72/18/36 47/17/37 49/18/36
f 45/16/38 70/17/37 68/16/38
f 70/17/37 45/16/38 47/17/37
f 44/14/39 68/16/38 67/14/39
f 68/16/38 44/14/39 45/16/38
f 41/15/40 67/14/39 63/15/40
f 67/14/39 41/15/40 44/14/39
f 88/21/4 3/21/4 87/21/4
f 3/21/4 88/21/4 6/21/4
f 37/21/4 63/21/4 38/21/4
f 63/21/4 37/21/4 41/21/4

