# Created by Kenney (www.kenney.nl)

mtllib hill-corner.mtl

g hill-corner

v 0.39996 0.146652 0.39996 1 1 1
v 0.1230646 0.146652 0.39996 1 1 1
v 0.39996 0.279972 0.39996 1 1 1
v 0.39996 0.146652 0.1230646 1 1 1
v 0.49995 0 -0.49995 1 1 1
v -0.49995 0 -0.49995 1 1 1
v 0.49995 0 0.49995 1 1 1
v -0.49995 0 0.49995 1 1 1
v 0.49995 0.146652 -0.49995 1 1 1
v 0.49995 0.146652 0.49995 1 1 1
v -0.49995 0.063327 -0.49995 1 1 1
v -0.49995 0.063327 0.39996 1 1 1
v -0.49995 0.146652 0.39996 1 1 1
v -0.49995 0.146652 0.49995 1 1 1
v 0.39996 0.063327 -0.49995 1 1 1
v 0.39996 0.146652 -0.49995 1 1 1
v -0.049995 0.063327 0.39996 1 1 1
v 0.39996 0.063327 -0.049995 1 1 1
v 0.39996 0.063327 0.39996 1 1 1
v 0.39996 0.063327 -0.04999501 1 1 1
v -0.49995 0.063327 -0.49995 1 1 1
v -0.04999498 0.063327 0.39996 1 1 1
v -0.49995 0.063327 0.39996 1 1 1

vn 0 0 1
vn 1 0 0
vn 0 -1 0
vn -1 0 0
vn 0 0 -1
vn 0 1 0
vn -0.3979799 0.8265736 -0.3979799

vt 0.21875 0.1297619
vt 0.21875 0.225
vt 0.21875 0.025
vt 0.21875 0.07023809
vt 0.71875 0.07023809
vt 0.71875 0.1297619
vt 0.09375 0.07023809
vt 0.09375 0.1297619
vt 0.09375 0.225
vt 0.03125 0.125

usemtl colormap

f 3/2/1 2/1/1 1/1/1
f 1/1/2 4/1/2 3/2/2
f 7/3/3 6/3/3 5/3/3
f 6/3/3 7/3/3 8/3/3
f 10/1/2 5/3/2 9/1/2
f 5/3/2 10/1/2 7/3/2
f 8/3/4 11/4/4 6/3/4
f 11/4/4 8/3/4 12/4/4
f 12/4/4 8/3/4 13/1/4
f 13/1/4 8/3/4 14/1/4
f 11/4/5 5/3/5 6/3/5
f 5/3/5 11/4/5 15/4/5
f 5/3/5 15/4/5 9/1/5
f 9/1/5 15/4/5 16/1/5
f 16/1/6 10/1/6 9/1/6
f 10/1/6 16/1/6 4/1/6
f 10/1/6 4/1/6 1/1/6
f 10/1/6 1/1/6 14/1/6
f 14/1/6 1/1/6 2/1/6
f 14/1/6 2/1/6 13/1/6
f 10/1/1 8/3/1 7/3/1
f 8/3/1 10/1/1 14/1/1
f 13/1/5 17/4/5 12/4/5
f 17/4/5 13/1/5 2/1/5
f 18/4/4 16/1/4 15/4/4
f 16/1/4 18/4/4 4/1/4
f 17/5/6 19/5/6 18/5/6
f 19/5/4 4/6/4 18/5/4
f 4/6/4 19/5/4 1/6/4
f 2/6/5 19/5/5 17/5/5
f 19/5/5 2/6/5 1/6/5
f 17/7/7 4/8/7 18/7/7
f 4/8/7 17/7/7 3/9/7
f 3/9/7 17/7/7 2/8/7
f 21/10/6 20/10/6 15/10/6
f 20/10/6 21/10/6 22/10/6
f 22/10/6 21/10/6 23/10/6

g hill-corner




usemtl colormap

f 3/2/1 2/1/1 1/1/1
f 1/1/2 4/1/2 3/2/2
f 7/3/3 6/3/3 5/3/3
f 6/3/3 7/3/3 8/3/3
f 10/1/2 5/3/2 9/1/2
f 5/3/2 10/1/2 7/3/2
f 8/3/4 11/4/4 6/3/4
f 11/4/4 8/3/4 12/4/4
f 12/4/4 8/3/4 13/1/4
f 13/1/4 8/3/4 14/1/4
f 11/4/5 5/3/5 6/3/5
f 5/3/5 11/4/5 15/4/5
f 5/3/5 15/4/5 9/1/5
f 9/1/5 15/4/5 16/1/5
f 16/1/6 10/1/6 9/1/6
f 10/1/6 16/1/6 4/1/6
f 10/1/6 4/1/6 1/1/6
f 10/1/6 1/1/6 14/1/6
f 14/1/6 1/1/6 2/1/6
f 14/1/6 2/1/6 13/1/6
f 10/1/1 8/3/1 7/3/1
f 8/3/1 10/1/1 14/1/1
f 13/1/5 17/4/5 12/4/5
f 17/4/5 13/1/5 2/1/5
f 18/4/4 16/1/4 15/4/4
f 16/1/4 18/4/4 4/1/4
f 17/5/6 19/5/6 18/5/6
f 19/5/4 4/6/4 18/5/4
f 4/6/4 19/5/4 1/6/4
f 2/6/5 19/5/5 17/5/5
f 19/5/5 2/6/5 1/6/5
f 17/7/7 4/8/7 18/7/7
f 4/8/7 17/7/7 3/9/7
f 3/9/7 17/7/7 2/8/7
f 21/10/6 20/10/6 15/10/6
f 20/10/6 21/10/6 22/10/6
f 22/10/6 21/10/6 23/10/6

