# Created by Kenney (www.kenney.nl)

mtllib hole-round.mtl

g hole-round

v 0.49995 0 -0.49995 1 1 1
v -0.49995 0 -0.49995 1 1 1
v 0.49995 0 1.573767E-13 1 1 1
v 0.4829146 7.519159E-18 0.1293966 1 1 1
v 0.4329694 3.007663E-17 0.249975 1 1 1
v 0.353518 6.015327E-17 0.353518 1 1 1
v 0.249975 9.774906E-17 0.4329694 1 1 1
v 0.1293966 1.503832E-16 0.4829146 1 1 1
v 3.724913E-09 1.954981E-16 0.49995 1 1 1
v -0.1293966 2.481322E-16 0.4829146 1 1 1
v -0.249975 2.932472E-16 0.4329694 1 1 1
v -0.353518 3.383621E-16 0.353518 1 1 1
v -0.4329694 3.684388E-16 0.249975 1 1 1
v -0.4829146 3.834771E-16 0.1293966 1 1 1
v -0.49995 3.834771E-16 1.487138E-13 1 1 1
v 0.49995 0.146652 -0.49995 1 1 1
v 0.49995 0.146652 1.573767E-13 1 1 1
v -0.39996 0.146652 -0.49995 1 1 1
v -0.49995 0.146652 -0.49995 1 1 1
v -0.39996 0.063327 -0.49995 1 1 1
v 0.39996 0.063327 -0.49995 1 1 1
v 0.39996 0.146652 -0.49995 1 1 1
v 0.4829146 0.146652 0.1293966 1 1 1
v 0.4329694 0.146652 0.249975 1 1 1
v 0.353518 0.146652 0.353518 1 1 1
v 0.249975 0.146652 0.4329694 1 1 1
v 0.1293966 0.146652 0.4829146 1 1 1
v 3.724913E-09 0.146652 0.49995 1 1 1
v -0.1293966 0.146652 0.4829146 1 1 1
v -0.249975 0.146652 0.4329694 1 1 1
v -0.353518 0.146652 0.353518 1 1 1
v -0.4329694 0.146652 0.249975 1 1 1
v -0.4829146 0.146652 0.1293966 1 1 1
v -0.49995 0.146652 1.487138E-13 1 1 1
v -0.39996 0.146652 1.516014E-13 1 1 1
v -0.3863317 0.146652 0.1035173 1 1 1
v -0.3463755 0.146652 0.19998 1 1 1
v -0.2828144 0.146652 0.2828144 1 1 1
v -0.19998 0.146652 0.3463755 1 1 1
v -0.1035173 0.146652 0.3863317 1 1 1
v 3.003151E-13 0.146652 0.39996 1 1 1
v 0.1035173 0.146652 0.3863317 1 1 1
v 0.19998 0.146652 0.3463755 1 1 1
v 0.2828144 0.146652 0.2828144 1 1 1
v 0.3463755 0.146652 0.19998 1 1 1
v 0.3863317 0.146652 0.1035173 1 1 1
v 0.39996 0.146652 1.573767E-13 1 1 1
v 0.39996 0.063327 1.573767E-13 1 1 1
v 0.3863317 0.063327 0.1035173 1 1 1
v 0.3463755 0.063327 0.19998 1 1 1
v 0.2828144 0.063327 0.2828144 1 1 1
v 0.19998 0.063327 0.3463755 1 1 1
v 0.1035173 0.063327 0.3863317 1 1 1
v 3.003151E-13 0.063327 0.39996 1 1 1
v -0.1035173 0.063327 0.3863317 1 1 1
v -0.19998 0.063327 0.3463755 1 1 1
v -0.2828144 0.063327 0.2828144 1 1 1
v -0.3463755 0.063327 0.19998 1 1 1
v -0.3863317 0.063327 0.1035173 1 1 1
v -0.39996 0.063327 1.516014E-13 1 1 1
v 3.060904E-13 0.0316635 -0.06666 1 1 1
v -0.04713574 0.0316635 -0.04713574 1 1 1
v 3.060904E-13 0.063327 -0.06666 1 1 1
v -0.04713574 0.063327 -0.04713574 1 1 1
v 0.04713574 0.0316635 -0.04713574 1 1 1
v 0.04713574 0.063327 -0.04713574 1 1 1
v 0.06666 0.0316635 1.512404E-13 1 1 1
v 0.06666 0.063327 1.512404E-13 1 1 1
v 0.04713574 0.0316635 0.04713574 1 1 1
v 0.04713574 0.063327 0.04713574 1 1 1
v -0.04713574 0.0316635 0.04713574 1 1 1
v 3.060904E-13 0.0316635 0.06666 1 1 1
v -0.04713574 0.063327 0.04713574 1 1 1
v 3.060904E-13 0.063327 0.06666 1 1 1
v -0.06666 0.063327 1.512404E-13 1 1 1
v -0.06666 0.0316635 1.512404E-13 1 1 1
v 0.39996 0.063327 0 1 1 1
v 0.3863317 0.063327 0.1035173 1 1 1
v 0.3463755 0.063327 0.19998 1 1 1
v 0.04713574 0.063327 -0.04713574 1 1 1
v 0 0.063327 -0.06666002 1 1 1
v -0.04713571 0.063327 -0.04713574 1 1 1
v 0.2828144 0.063327 0.2828144 1 1 1
v 0.06666002 0.063327 0 1 1 1
v 0.19998 0.063327 0.3463755 1 1 1
v 0.1035173 0.063327 0.3863317 1 1 1
v 0 0.063327 0.39996 1 1 1
v 0.04713574 0.063327 0.04713577 1 1 1
v 0 0.063327 0.06665999 1 1 1
v -0.04713571 0.063327 0.04713577 1 1 1
v -0.1035173 0.063327 0.3863317 1 1 1
v -0.06665999 0.063327 0 1 1 1
v -0.1999799 0.063327 0.3463755 1 1 1
v -0.2828144 0.063327 0.2828144 1 1 1
v -0.3463755 0.063327 0.19998 1 1 1
v -0.3863316 0.063327 0.1035173 1 1 1
v -0.39996 0.063327 0 1 1 1

vn 0 -1 0
vn 1 0 0
vn 0.9978589 0 0.06540313
vn 0 0 -1
vn 0.9659258 0 0.258819
vn 0.8660254 0 0.5
vn 0.7071068 0 0.7071068
vn 0.5 0 0.8660254
vn 0.258819 0 0.9659258
vn 0 0 1
vn -0.258819 0 0.9659258
vn -0.5 0 0.8660254
vn -0.7071068 0 0.7071068
vn -0.8660254 0 0.5
vn -0.9659258 0 0.258819
vn -0.9978589 0 0.06540313
vn -1 0 0
vn 0 1 0
vn -0.9978589 0 -0.06540313
vn -0.9659258 0 -0.258819
vn -0.8660254 0 -0.5
vn -0.7071068 0 -0.7071068
vn -0.5 0 -0.8660254
vn -0.258819 0 -0.9659258
vn 0.258819 0 -0.9659258
vn 0.5 0 -0.8660254
vn 0.7071068 0 -0.7071068
vn 0.8660254 0 -0.5
vn 0.9659258 0 -0.258819
vn 0.9978589 0 -0.06540313

vt 0.21875 0.025
vt 0.21875 0.225
vt 0.21875 0.1113636
vt 0.21875 0.06818182
vt 0.34375 0.06818182
vt 0.03125 0.125

usemtl colormap

f 3/1/1 2/1/1 1/1/1
f 2/1/1 3/1/1 4/1/1
f 2/1/1 4/1/1 5/1/1
f 2/1/1 5/1/1 6/1/1
f 2/1/1 6/1/1 7/1/1
f 2/1/1 7/1/1 8/1/1
f 2/1/1 8/1/1 9/1/1
f 2/1/1 9/1/1 10/1/1
f 2/1/1 10/1/1 11/1/1
f 2/1/1 11/1/1 12/1/1
f 2/1/1 12/1/1 13/1/1
f 2/1/1 13/1/1 14/1/1
f 2/1/1 14/1/1 15/1/1
f 17/2/3 1/1/2 16/2/2
f 1/1/2 17/2/3 3/1/3
f 20/3/4 19/2/4 18/2/4
f 20/3/4 2/1/4 19/2/4
f 2/1/4 20/3/4 1/1/4
f 1/1/4 20/3/4 21/3/4
f 21/3/4 16/2/4 1/1/4
f 16/2/4 21/3/4 22/2/4
f 23/2/5 3/1/3 17/2/3
f 3/1/3 23/2/5 4/1/5
f 24/2/6 4/1/5 23/2/5
f 4/1/5 24/2/6 5/1/6
f 25/2/7 5/1/6 24/2/6
f 5/1/6 25/2/7 6/1/7
f 25/2/7 7/1/8 6/1/7
f 7/1/8 25/2/7 26/2/8
f 26/2/8 8/1/9 7/1/8
f 8/1/9 26/2/8 27/2/9
f 27/2/9 9/1/10 8/1/9
f 9/1/10 27/2/9 28/2/10
f 28/2/10 10/1/11 9/1/10
f 10/1/11 28/2/10 29/2/11
f 29/2/11 11/1/12 10/1/11
f 11/1/12 29/2/11 30/2/12
f 30/2/12 12/1/13 11/1/12
f 12/1/13 30/2/12 31/2/13
f 12/1/13 32/2/14 13/1/14
f 32/2/14 12/1/13 31/2/13
f 13/1/14 33/2/15 14/1/15
f 33/2/15 13/1/14 32/2/14
f 14/1/15 34/2/16 15/1/16
f 34/2/16 14/1/15 33/2/15
f 15/1/16 19/2/17 2/1/17
f 19/2/17 15/1/16 34/2/16
f 19/2/18 35/2/18 18/2/18
f 35/2/18 19/2/18 32/2/18
f 32/2/18 36/2/18 35/2/18
f 32/2/18 19/2/18 33/2/18
f 33/2/18 19/2/18 34/2/18
f 31/2/18 36/2/18 32/2/18
f 31/2/18 37/2/18 36/2/18
f 31/2/18 38/2/18 37/2/18
f 30/2/18 38/2/18 31/2/18
f 30/2/18 39/2/18 38/2/18
f 29/2/18 39/2/18 30/2/18
f 29/2/18 40/2/18 39/2/18
f 29/2/18 41/2/18 40/2/18
f 28/2/18 41/2/18 29/2/18
f 28/2/18 42/2/18 41/2/18
f 27/2/18 42/2/18 28/2/18
f 27/2/18 43/2/18 42/2/18
f 26/2/18 43/2/18 27/2/18
f 26/2/18 44/2/18 43/2/18
f 26/2/18 45/2/18 44/2/18
f 25/2/18 45/2/18 26/2/18
f 25/2/18 46/2/18 45/2/18
f 25/2/18 47/2/18 46/2/18
f 24/2/18 47/2/18 25/2/18
f 24/2/18 22/2/18 47/2/18
f 23/2/18 22/2/18 24/2/18
f 17/2/18 22/2/18 23/2/18
f 22/2/18 17/2/18 16/2/18
f 48/3/19 22/2/17 21/3/17
f 22/2/17 48/3/19 47/2/19
f 49/3/20 47/2/19 48/3/19
f 47/2/19 49/3/20 46/2/20
f 50/3/21 46/2/20 49/3/20
f 46/2/20 50/3/21 45/2/21
f 51/3/22 45/2/21 50/3/21
f 45/2/21 51/3/22 44/2/22
f 43/2/23 51/3/22 52/3/23
f 51/3/22 43/2/23 44/2/22
f 42/2/24 52/3/23 53/3/24
f 52/3/23 42/2/24 43/2/23
f 41/2/4 53/3/24 54/3/4
f 53/3/24 41/2/4 42/2/24
f 40/2/25 54/3/4 55/3/25
f 54/3/4 40/2/25 41/2/4
f 39/2/26 55/3/25 56/3/26
f 55/3/25 39/2/26 40/2/25
f 38/2/27 56/3/26 57/3/27
f 56/3/26 38/2/27 39/2/26
f 38/2/27 58/3/28 37/2/28
f 58/3/28 38/2/27 57/3/27
f 37/2/28 59/3/29 36/2/29
f 59/3/29 37/2/28 58/3/28
f 36/2/29 60/3/30 35/2/30
f 60/3/30 36/2/29 59/3/29
f 35/2/30 20/3/2 18/2/2
f 20/3/2 35/2/30 60/3/30
f 63/3/10 62/4/7 61/4/10
f 62/4/7 63/3/10 64/3/7
f 67/4/17 66/3/13 65/4/13
f 66/3/13 67/4/17 68/3/17
f 69/4/22 68/3/17 67/4/17
f 68/3/17 69/4/22 70/3/22
f 73/3/27 72/4/4 71/4/27
f 72/4/4 73/3/27 74/3/4
f 74/3/4 69/4/22 72/4/4
f 69/4/22 74/3/4 70/3/22
f 75/3/2 62/4/7 64/3/7
f 62/4/7 75/3/2 76/4/2
f 73/3/27 76/4/2 75/3/2
f 76/4/2 73/3/27 71/4/27
f 65/4/13 63/3/10 61/4/10
f 63/3/10 65/4/13 66/3/13
f 65/5/18 69/5/18 67/5/18
f 69/5/18 65/5/18 61/5/18
f 69/5/18 61/5/18 72/5/18
f 72/5/18 61/5/18 62/5/18
f 72/5/18 62/5/18 71/5/18
f 71/5/18 62/5/18 76/5/18
f 20/6/18 77/6/18 21/6/18
f 77/6/18 20/6/18 78/6/18
f 78/6/18 20/6/18 79/6/18
f 79/6/18 20/6/18 80/6/18
f 80/6/18 20/6/18 81/6/18
f 81/6/18 20/6/18 82/6/18
f 79/6/18 80/6/18 83/6/18
f 83/6/18 80/6/18 84/6/18
f 83/6/18 84/6/18 85/6/18
f 85/6/18 84/6/18 86/6/18
f 84/6/18 87/6/18 86/6/18
f 87/6/18 84/6/18 88/6/18
f 87/6/18 88/6/18 89/6/18
f 87/6/18 89/6/18 90/6/18
f 87/6/18 90/6/18 91/6/18
f 91/6/18 90/6/18 92/6/18
f 82/6/18 20/6/18 92/6/18
f 92/6/18 20/6/18 91/6/18
f 91/6/18 20/6/18 93/6/18
f 93/6/18 20/6/18 94/6/18
f 94/6/18 20/6/18 95/6/18
f 95/6/18 20/6/18 96/6/18
f 96/6/18 20/6/18 97/6/18

g hole-round




usemtl colormap

f 3/1/1 2/1/1 1/1/1
f 2/1/1 3/1/1 4/1/1
f 2/1/1 4/1/1 5/1/1
f 2/1/1 5/1/1 6/1/1
f 2/1/1 6/1/1 7/1/1
f 2/1/1 7/1/1 8/1/1
f 2/1/1 8/1/1 9/1/1
f 2/1/1 9/1/1 10/1/1
f 2/1/1 10/1/1 11/1/1
f 2/1/1 11/1/1 12/1/1
f 2/1/1 12/1/1 13/1/1
f 2/1/1 13/1/1 14/1/1
f 2/1/1 14/1/1 15/1/1
f 17/2/3 1/1/2 16/2/2
f 1/1/2 17/2/3 3/1/3
f 20/3/4 19/2/4 18/2/4
f 20/3/4 2/1/4 19/2/4
f 2/1/4 20/3/4 1/1/4
f 1/1/4 20/3/4 21/3/4
f 21/3/4 16/2/4 1/1/4
f 16/2/4 21/3/4 22/2/4
f 23/2/5 3/1/3 17/2/3
f 3/1/3 23/2/5 4/1/5
f 24/2/6 4/1/5 23/2/5
f 4/1/5 24/2/6 5/1/6
f 25/2/7 5/1/6 24/2/6
f 5/1/6 25/2/7 6/1/7
f 25/2/7 7/1/8 6/1/7
f 7/1/8 25/2/7 26/2/8
f 26/2/8 8/1/9 7/1/8
f 8/1/9 26/2/8 27/2/9
f 27/2/9 9/1/10 8/1/9
f 9/1/10 27/2/9 28/2/10
f 28/2/10 10/1/11 9/1/10
f 10/1/11 28/2/10 29/2/11
f 29/2/11 11/1/12 10/1/11
f 11/1/12 29/2/11 30/2/12
f 30/2/12 12/1/13 11/1/12
f 12/1/13 30/2/12 31/2/13
f 12/1/13 32/2/14 13/1/14
f 32/2/14 12/1/13 31/2/13
f 13/1/14 33/2/15 14/1/15
f 33/2/15 13/1/14 32/2/14
f 14/1/15 34/2/16 15/1/16
f 34/2/16 14/1/15 33/2/15
f 15/1/16 19/2/17 2/1/17
f 19/2/17 15/1/16 34/2/16
f 19/2/18 35/2/18 18/2/18
f 35/2/18 19/2/18 32/2/18
f 32/2/18 36/2/18 35/2/18
f 32/2/18 19/2/18 33/2/18
f 33/2/18 19/2/18 34/2/18
f 31/2/18 36/2/18 32/2/18
f 31/2/18 37/2/18 36/2/18
f 31/2/18 38/2/18 37/2/18
f 30/2/18 38/2/18 31/2/18
f 30/2/18 39/2/18 38/2/18
f 29/2/18 39/2/18 30/2/18
f 29/2/18 40/2/18 39/2/18
f 29/2/18 41/2/18 40/2/18
f 28/2/18 41/2/18 29/2/18
f 28/2/18 42/2/18 41/2/18
f 27/2/18 42/2/18 28/2/18
f 27/2/18 43/2/18 42/2/18
f 26/2/18 43/2/18 27/2/18
f 26/2/18 44/2/18 43/2/18
f 26/2/18 45/2/18 44/2/18
f 25/2/18 45/2/18 26/2/18
f 25/2/18 46/2/18 45/2/18
f 25/2/18 47/2/18 46/2/18
f 24/2/18 47/2/18 25/2/18
f 24/2/18 22/2/18 47/2/18
f 23/2/18 22/2/18 24/2/18
f 17/2/18 22/2/18 23/2/18
f 22/2/18 17/2/18 16/2/18
f 48/3/19 22/2/17 21/3/17
f 22/2/17 48/3/19 47/2/19
f 49/3/20 47/2/19 48/3/19
f 47/2/19 49/3/20 46/2/20
f 50/3/21 46/2/20 49/3/20
f 46/2/20 50/3/21 45/2/21
f 51/3/22 45/2/21 50/3/21
f 45/2/21 51/3/22 44/2/22
f 43/2/23 51/3/22 52/3/23
f 51/3/22 43/2/23 44/2/22
f 42/2/24 52/3/23 53/3/24
f 52/3/23 42/2/24 43/2/23
f 41/2/4 53/3/24 54/3/4
f 53/3/24 41/2/4 42/2/24
f 40/2/25 54/3/4 55/3/25
f 54/3/4 40/2/25 41/2/4
f 39/2/26 55/3/25 56/3/26
f 55/3/25 39/2/26 40/2/25
f 38/2/27 56/3/26 57/3/27
f 56/3/26 38/2/27 39/2/26
f 38/2/27 58/3/28 37/2/28
f 58/3/28 38/2/27 57/3/27
f 37/2/28 59/3/29 36/2/29
f 59/3/29 37/2/28 58/3/28
f 36/2/29 60/3/30 35/2/30
f 60/3/30 36/2/29 59/3/29
f 35/2/30 20/3/2 18/2/2
f 20/3/2 35/2/30 60/3/30
f 63/3/10 62/4/7 61/4/10
f 62/4/7 63/3/10 64/3/7
f 67/4/17 66/3/13 65/4/13
f 66/3/13 67/4/17 68/3/17
f 69/4/22 68/3/17 67/4/17
f 68/3/17 69/4/22 70/3/22
f 73/3/27 72/4/4 71/4/27
f 72/4/4 73/3/27 74/3/4
f 74/3/4 69/4/22 72/4/4
f 69/4/22 74/3/4 70/3/22
f 75/3/2 62/4/7 64/3/7
f 62/4/7 75/3/2 76/4/2
f 73/3/27 76/4/2 75/3/2
f 76/4/2 73/3/27 71/4/27
f 65/4/13 63/3/10 61/4/10
f 63/3/10 65/4/13 66/3/13
f 65/5/18 69/5/18 67/5/18
f 69/5/18 65/5/18 61/5/18
f 69/5/18 61/5/18 72/5/18
f 72/5/18 61/5/18 62/5/18
f 72/5/18 62/5/18 71/5/18
f 71/5/18 62/5/18 76/5/18
f 20/6/18 77/6/18 21/6/18
f 77/6/18 20/6/18 78/6/18
f 78/6/18 20/6/18 79/6/18
f 79/6/18 20/6/18 80/6/18
f 80/6/18 20/6/18 81/6/18
f 81/6/18 20/6/18 82/6/18
f 79/6/18 80/6/18 83/6/18
f 83/6/18 80/6/18 84/6/18
f 83/6/18 84/6/18 85/6/18
f 85/6/18 84/6/18 86/6/18
f 84/6/18 87/6/18 86/6/18
f 87/6/18 84/6/18 88/6/18
f 87/6/18 88/6/18 89/6/18
f 87/6/18 89/6/18 90/6/18
f 87/6/18 90/6/18 91/6/18
f 91/6/18 90/6/18 92/6/18
f 82/6/18 20/6/18 92/6/18
f 92/6/18 20/6/18 91/6/18
f 91/6/18 20/6/18 93/6/18
f 93/6/18 20/6/18 94/6/18
f 94/6/18 20/6/18 95/6/18
f 95/6/18 20/6/18 96/6/18
f 96/6/18 20/6/18 97/6/18

