# Created by Kenney (www.kenney.nl)

mtllib hole-square.mtl

g hole-square

v 0.49995 0 -0.49995 1 1 1
v -0.49995 0 -0.49995 1 1 1
v 0.49995 0 0.49995 1 1 1
v -0.49995 0 0.49995 1 1 1
v 0.49995 0.146652 -0.49995 1 1 1
v 0.49995 0.146652 0.49995 1 1 1
v -0.39996 0.146652 -0.49995 1 1 1
v -0.39996 0.146652 0.39996 1 1 1
v -0.49995 0.146652 -0.49995 1 1 1
v -0.49995 0.146652 0.49995 1 1 1
v 0.39996 0.146652 0.39996 1 1 1
v 0.39996 0.146652 -0.49995 1 1 1
v -0.39996 0.063327 -0.49995 1 1 1
v 0.39996 0.063327 -0.49995 1 1 1
v -0.39996 0.063327 0.39996 1 1 1
v 0.39996 0.063327 0.39996 1 1 1
v 3.060904E-13 0.0316635 -0.06666 1 1 1
v -0.04713574 0.0316635 -0.04713574 1 1 1
v 3.060904E-13 0.063327 -0.06666 1 1 1
v -0.04713574 0.063327 -0.04713574 1 1 1
v 0.04713574 0.0316635 -0.04713574 1 1 1
v 0.04713574 0.063327 -0.04713574 1 1 1
v 0.06666 0.0316635 3.068124E-15 1 1 1
v 0.06666 0.063327 3.068124E-15 1 1 1
v -0.04713574 0.0316635 0.04713574 1 1 1
v 3.060904E-13 0.0316635 0.06666 1 1 1
v -0.04713574 0.063327 0.04713574 1 1 1
v 3.060904E-13 0.063327 0.06666 1 1 1
v 0.04713574 0.0316635 0.04713574 1 1 1
v 0.04713574 0.063327 0.04713574 1 1 1
v -0.06666 0.063327 3.068124E-15 1 1 1
v -0.06666 0.0316635 3.068124E-15 1 1 1
v -0.04713571 0.063327 0.04713577 1 1 1
v 0 0.063327 0.06665999 1 1 1
v -0.39996 0.063327 0.39996 1 1 1
v -0.06665999 0.063327 0 1 1 1
v 0.04713574 0.063327 0.04713577 1 1 1
v 0.39996 0.063327 0.39996 1 1 1
v 0.06666002 0.063327 0 1 1 1
v -0.04713571 0.063327 -0.04713574 1 1 1
v 0 0.063327 -0.06666002 1 1 1
v 0.04713574 0.063327 -0.04713574 1 1 1

vn 0 -1 0
vn 1 0 0
vn 0 1 0
vn -1 0 0
vn 0 0 -1
vn 0 0 1
vn 0.7071068 0 0.7071068
vn -0.7071068 0 0.7071068
vn 0.7071068 0 -0.7071068
vn -0.7071068 0 -0.7071068

vt 0.21875 0.025
vt 0.21875 0.225
vt 0.21875 0.1113636
vt 0.21875 0.06818182
vt 0.34375 0.06818182
vt 0.03125 0.125

usemtl colormap

f 3/1/1 2/1/1 1/1/1
f 2/1/1 3/1/1 4/1/1
f 6/2/2 1/1/2 5/2/2
f 1/1/2 6/2/2 3/1/2
f 9/2/3 8/2/3 7/2/3
f 10/2/3 8/2/3 9/2/3
f 10/2/3 11/2/3 8/2/3
f 6/2/3 11/2/3 10/2/3
f 6/2/3 12/2/3 11/2/3
f 12/2/3 6/2/3 5/2/3
f 4/1/4 9/2/4 2/1/4
f 9/2/4 4/1/4 10/2/4
f 13/3/5 9/2/5 7/2/5
f 13/3/5 2/1/5 9/2/5
f 2/1/5 13/3/5 1/1/5
f 14/3/5 1/1/5 13/3/5
f 1/1/5 14/3/5 5/2/5
f 5/2/5 14/3/5 12/2/5
f 8/2/2 13/3/2 7/2/2
f 13/3/2 8/2/2 15/3/2
f 6/2/6 4/1/6 3/1/6
f 4/1/6 6/2/6 10/2/6
f 16/3/4 12/2/4 14/3/4
f 12/2/4 16/3/4 11/2/4
f 8/2/5 16/3/5 15/3/5
f 16/3/5 8/2/5 11/2/5
f 19/3/6 18/4/7 17/4/6
f 18/4/7 19/3/6 20/3/7
f 23/4/4 22/3/8 21/4/8
f 22/3/8 23/4/4 24/3/4
f 27/3/9 26/4/5 25/4/9
f 26/4/5 27/3/9 28/3/5
f 29/4/10 24/3/4 23/4/4
f 24/3/4 29/4/10 30/3/10
f 28/3/5 29/4/10 26/4/5
f 29/4/10 28/3/5 30/3/10
f 31/3/2 18/4/7 20/3/7
f 18/4/7 31/3/2 32/4/2
f 22/3/8 17/4/6 21/4/8
f 17/4/6 22/3/8 19/3/6
f 27/3/9 32/4/2 31/3/2
f 32/4/2 27/3/9 25/4/9
f 21/5/3 29/5/3 23/5/3
f 29/5/3 21/5/3 17/5/3
f 29/5/3 17/5/3 26/5/3
f 26/5/3 17/5/3 18/5/3
f 26/5/3 18/5/3 25/5/3
f 25/5/3 18/5/3 32/5/3
f 35/6/3 34/6/3 33/6/3
f 35/6/3 33/6/3 36/6/3
f 35/6/3 37/6/3 34/6/3
f 35/6/3 36/6/3 13/6/3
f 38/6/3 37/6/3 35/6/3
f 37/6/3 38/6/3 39/6/3
f 40/6/3 13/6/3 36/6/3
f 41/6/3 13/6/3 40/6/3
f 38/6/3 42/6/3 39/6/3
f 42/6/3 13/6/3 41/6/3
f 14/6/3 42/6/3 38/6/3
f 42/6/3 14/6/3 13/6/3

g hole-square




usemtl colormap

f 3/1/1 2/1/1 1/1/1
f 2/1/1 3/1/1 4/1/1
f 6/2/2 1/1/2 5/2/2
f 1/1/2 6/2/2 3/1/2
f 9/2/3 8/2/3 7/2/3
f 10/2/3 8/2/3 9/2/3
f 10/2/3 11/2/3 8/2/3
f 6/2/3 11/2/3 10/2/3
f 6/2/3 12/2/3 11/2/3
f 12/2/3 6/2/3 5/2/3
f 4/1/4 9/2/4 2/1/4
f 9/2/4 4/1/4 10/2/4
f 13/3/5 9/2/5 7/2/5
f 13/3/5 2/1/5 9/2/5
f 2/1/5 13/3/5 1/1/5
f 14/3/5 1/1/5 13/3/5
f 1/1/5 14/3/5 5/2/5
f 5/2/5 14/3/5 12/2/5
f 8/2/2 13/3/2 7/2/2
f 13/3/2 8/2/2 15/3/2
f 6/2/6 4/1/6 3/1/6
f 4/1/6 6/2/6 10/2/6
f 16/3/4 12/2/4 14/3/4
f 12/2/4 16/3/4 11/2/4
f 8/2/5 16/3/5 15/3/5
f 16/3/5 8/2/5 11/2/5
f 19/3/6 18/4/7 17/4/6
f 18/4/7 19/3/6 20/3/7
f 23/4/4 22/3/8 21/4/8
f 22/3/8 23/4/4 24/3/4
f 27/3/9 26/4/5 25/4/9
f 26/4/5 27/3/9 28/3/5
f 29/4/10 24/3/4 23/4/4
f 24/3/4 29/4/10 30/3/10
f 28/3/5 29/4/10 26/4/5
f 29/4/10 28/3/5 30/3/10
f 31/3/2 18/4/7 20/3/7
f 18/4/7 31/3/2 32/4/2
f 22/3/8 17/4/6 21/4/8
f 17/4/6 22/3/8 19/3/6
f 27/3/9 32/4/2 31/3/2
f 32/4/2 27/3/9 25/4/9
f 21/5/3 29/5/3 23/5/3
f 29/5/3 21/5/3 17/5/3
f 29/5/3 17/5/3 26/5/3
f 26/5/3 17/5/3 18/5/3
f 26/5/3 18/5/3 25/5/3
f 25/5/3 18/5/3 32/5/3
f 35/6/3 34/6/3 33/6/3
f 35/6/3 33/6/3 36/6/3
f 35/6/3 37/6/3 34/6/3
f 35/6/3 36/6/3 13/6/3
f 38/6/3 37/6/3 35/6/3
f 37/6/3 38/6/3 39/6/3
f 40/6/3 13/6/3 36/6/3
f 41/6/3 13/6/3 40/6/3
f 38/6/3 42/6/3 39/6/3
f 42/6/3 13/6/3 41/6/3
f 14/6/3 42/6/3 38/6/3
f 42/6/3 14/6/3 13/6/3

