# Created by Kenney (www.kenney.nl)

mtllib narrow-block.mtl

g narrow-block

v 0.39996 0.146652 0.49995 1 1 1
v 0.49995 0.146652 0.49995 1 1 1
v 0.39996 0.063327 0.49995 1 1 1
v 0.49995 0 0.49995 1 1 1
v -0.49995 0 0.49995 1 1 1
v -0.39996 0.063327 0.49995 1 1 1
v -0.49995 0.146652 0.49995 1 1 1
v -0.39996 0.146652 0.49995 1 1 1
v 0.49995 0 -0.49995 1 1 1
v -0.49995 0 -0.49995 1 1 1
v 0.49995 0.146652 -0.49995 1 1 1
v -0.39996 0.146652 -0.49995 1 1 1
v -0.39996 0.146652 -0.249975 1 1 1
v -0.49995 0.146652 -0.49995 1 1 1
v -0.39996 0.146652 0.249975 1 1 1
v -0.19998 0.146652 0.249975 1 1 1
v -0.19998 0.146652 -0.249975 1 1 1
v -0.39996 0.063327 -0.49995 1 1 1
v 0.39996 0.063327 -0.49995 1 1 1
v 0.39996 0.146652 -0.49995 1 1 1
v 0.19998 0.146652 0.249975 1 1 1
v 0.19998 0.146652 -0.249975 1 1 1
v 0.39996 0.146652 0.249975 1 1 1
v 0.39996 0.146652 -0.249975 1 1 1
v 0.39996 0.063327 0.249975 1 1 1
v -0.39996 0.063327 -0.249975 1 1 1
v 0.19998 0.063327 0.249975 1 1 1
v 0.19998 0.063327 -0.249975 1 1 1
v 0.39996 0.063327 -0.249975 1 1 1
v -0.19998 0.063327 -0.249975 1 1 1
v -0.19998 0.063327 0.249975 1 1 1
v -0.39996 0.063327 0.249975 1 1 1
v -0.1999799 0.063327 -0.249975 1 1 1
v 0.19998 0.063327 0.249975 1 1 1
v -0.1999799 0.063327 0.249975 1 1 1
v -0.39996 0.063327 0.249975 1 1 1
v 0.39996 0.063327 0.249975 1 1 1

vn 0 0 1
vn 0 -1 0
vn 1 0 0
vn 0 1 0
vn -1 0 0
vn 0 0 -1

vt 0.21875 0.225
vt 0.21875 0.1113636
vt 0.21875 0.025
vt 0.03125 0.125

usemtl colormap

f 3/2/1 2/1/1 1/1/1
f 3/2/1 4/3/1 2/1/1
f 4/3/1 3/2/1 5/3/1
f 6/2/1 5/3/1 3/2/1
f 5/3/1 6/2/1 7/1/1
f 7/1/1 6/2/1 8/1/1
f 4/3/2 10/3/2 9/3/2
f 10/3/2 4/3/2 5/3/2
f 2/1/3 9/3/3 11/1/3
f 9/3/3 2/1/3 4/3/3
f 14/1/4 13/1/4 12/1/4
f 13/1/4 14/1/4 15/1/4
f 15/1/4 14/1/4 8/1/4
f 8/1/4 14/1/4 7/1/4
f 16/1/4 13/1/4 15/1/4
f 13/1/4 16/1/4 17/1/4
f 5/3/5 14/1/5 10/3/5
f 14/1/5 5/3/5 7/1/5
f 18/2/6 14/1/6 12/1/6
f 18/2/6 10/3/6 14/1/6
f 10/3/6 18/2/6 9/3/6
f 19/2/6 9/3/6 18/2/6
f 9/3/6 19/2/6 11/1/6
f 11/1/6 19/2/6 20/1/6
f 23/1/4 22/1/4 21/1/4
f 22/1/4 23/1/4 24/1/4
f 1/1/4 24/1/4 23/1/4
f 2/1/4 24/1/4 1/1/4
f 2/1/4 20/1/4 24/1/4
f 20/1/4 2/1/4 11/1/4
f 3/2/5 23/1/5 25/2/5
f 23/1/5 3/2/5 1/1/5
f 13/1/3 18/2/3 12/1/3
f 18/2/3 13/1/3 26/2/3
f 23/1/1 27/2/1 25/2/1
f 27/2/1 23/1/1 21/1/1
f 22/1/6 29/2/6 28/2/6
f 29/2/6 22/1/6 24/1/6
f 27/2/5 22/1/5 28/2/5
f 22/1/5 27/2/5 21/1/5
f 29/2/5 20/1/5 19/2/5
f 20/1/5 29/2/5 24/1/5
f 16/1/3 30/2/3 17/1/3
f 30/2/3 16/1/3 31/2/3
f 13/1/6 30/2/6 26/2/6
f 30/2/6 13/1/6 17/1/6
f 16/1/1 32/2/1 31/2/1
f 32/2/1 16/1/1 15/1/1
f 8/1/3 32/2/3 15/1/3
f 32/2/3 8/1/3 6/2/3
f 34/4/4 18/4/4 33/4/4
f 18/4/4 29/4/4 19/4/4
f 29/4/4 18/4/4 28/4/4
f 28/4/4 18/4/4 34/4/4
f 33/4/4 18/4/4 26/4/4
f 35/4/4 34/4/4 33/4/4
f 6/4/4 34/4/4 35/4/4
f 6/4/4 35/4/4 36/4/4
f 3/4/4 34/4/4 6/4/4
f 34/4/4 3/4/4 37/4/4

g narrow-block




usemtl colormap

f 3/2/1 2/1/1 1/1/1
f 3/2/1 4/3/1 2/1/1
f 4/3/1 3/2/1 5/3/1
f 6/2/1 5/3/1 3/2/1
f 5/3/1 6/2/1 7/1/1
f 7/1/1 6/2/1 8/1/1
f 4/3/2 10/3/2 9/3/2
f 10/3/2 4/3/2 5/3/2
f 2/1/3 9/3/3 11/1/3
f 9/3/3 2/1/3 4/3/3
f 14/1/4 13/1/4 12/1/4
f 13/1/4 14/1/4 15/1/4
f 15/1/4 14/1/4 8/1/4
f 8/1/4 14/1/4 7/1/4
f 16/1/4 13/1/4 15/1/4
f 13/1/4 16/1/4 17/1/4
f 5/3/5 14/1/5 10/3/5
f 14/1/5 5/3/5 7/1/5
f 18/2/6 14/1/6 12/1/6
f 18/2/6 10/3/6 14/1/6
f 10/3/6 18/2/6 9/3/6
f 19/2/6 9/3/6 18/2/6
f 9/3/6 19/2/6 11/1/6
f 11/1/6 19/2/6 20/1/6
f 23/1/4 22/1/4 21/1/4
f 22/1/4 23/1/4 24/1/4
f 1/1/4 24/1/4 23/1/4
f 2/1/4 24/1/4 1/1/4
f 2/1/4 20/1/4 24/1/4
f 20/1/4 2/1/4 11/1/4
f 3/2/5 23/1/5 25/2/5
f 23/1/5 3/2/5 1/1/5
f 13/1/3 18/2/3 12/1/3
f 18/2/3 13/1/3 26/2/3
f 23/1/1 27/2/1 25/2/1
f 27/2/1 23/1/1 21/1/1
f 22/1/6 29/2/6 28/2/6
f 29/2/6 22/1/6 24/1/6
f 27/2/5 22/1/5 28/2/5
f 22/1/5 27/2/5 21/1/5
f 29/2/5 20/1/5 19/2/5
f 20/1/5 29/2/5 24/1/5
f 16/1/3 30/2/3 17/1/3
f 30/2/3 16/1/3 31/2/3
f 13/1/6 30/2/6 26/2/6
f 30/2/6 13/1/6 17/1/6
f 16/1/1 32/2/1 31/2/1
f 32/2/1 16/1/1 15/1/1
f 8/1/3 32/2/3 15/1/3
f 32/2/3 8/1/3 6/2/3
f 34/4/4 18/4/4 33/4/4
f 18/4/4 29/4/4 19/4/4
f 29/4/4 18/4/4 28/4/4
f 28/4/4 18/4/4 34/4/4
f 33/4/4 18/4/4 26/4/4
f 35/4/4 34/4/4 33/4/4
f 6/4/4 34/4/4 35/4/4
f 6/4/4 35/4/4 36/4/4
f 3/4/4 34/4/4 6/4/4
f 34/4/4 3/4/4 37/4/4

