# Created by Kenney (www.kenney.nl)

mtllib obstacle-block.mtl

g obstacle-block

v -0.39996 0.146652 0.49995 1 1 1
v -0.39996 0.063327 0.49995 1 1 1
v -0.49995 0.146652 0.49995 1 1 1
v -0.49995 0 0.49995 1 1 1
v 0.39996 0.063327 0.49995 1 1 1
v 0.49995 0 0.49995 1 1 1
v 0.49995 0.146652 0.49995 1 1 1
v 0.39996 0.146652 0.49995 1 1 1
v 0.49995 0 -0.49995 1 1 1
v -0.49995 0 -0.49995 1 1 1
v 0.49995 0.146652 -0.49995 1 1 1
v -0.39996 0.146652 -0.49995 1 1 1
v -0.49995 0.146652 -0.49995 1 1 1
v -0.39996 0.063327 -0.49995 1 1 1
v 0.39996 0.063327 -0.49995 1 1 1
v 0.39996 0.146652 -0.49995 1 1 1
v 0.08043165 0.146652 -0.3137417 1 1 1
v 0.08043165 0.146652 0.3137417 1 1 1
v -0.08043165 0.146652 -0.3137417 1 1 1
v -0.08043165 0.146652 0.3137417 1 1 1
v 0.08043165 0.063327 0.3137417 1 1 1
v -0.08043165 0.063327 0.3137417 1 1 1
v 0.08043165 0.063327 -0.3137417 1 1 1
v -0.08043165 0.063327 -0.3137417 1 1 1
v -0.08043164 0.063327 -0.3137416 1 1 1
v 0.08043164 0.063327 -0.3137416 1 1 1
v -0.08043164 0.063327 0.3137416 1 1 1
v 0.08043164 0.063327 0.3137416 1 1 1

vn 0 0 1
vn 0 -1 0
vn 1 0 0
vn 0 1 0
vn -1 0 0
vn 0 0 -1

vt 0.21875 0.225
vt 0.21875 0.1113636
vt 0.21875 0.025
vt 0.03125 0.125

usemtl colormap

f 3/1/1 2/2/1 1/1/1
f 4/3/1 2/2/1 3/1/1
f 2/2/1 4/3/1 5/2/1
f 6/3/1 5/2/1 4/3/1
f 5/2/1 6/3/1 7/1/1
f 5/2/1 7/1/1 8/1/1
f 6/3/2 10/3/2 9/3/2
f 10/3/2 6/3/2 4/3/2
f 7/1/3 9/3/3 11/1/3
f 9/3/3 7/1/3 6/3/3
f 13/1/4 1/1/4 12/1/4
f 1/1/4 13/1/4 3/1/4
f 4/3/5 13/1/5 10/3/5
f 13/1/5 4/3/5 3/1/5
f 14/2/6 13/1/6 12/1/6
f 14/2/6 10/3/6 13/1/6
f 10/3/6 14/2/6 9/3/6
f 15/2/6 9/3/6 14/2/6
f 9/3/6 15/2/6 11/1/6
f 11/1/6 15/2/6 16/1/6
f 16/1/4 7/1/4 11/1/4
f 7/1/4 16/1/4 8/1/4
f 5/2/5 16/1/5 15/2/5
f 16/1/5 5/2/5 8/1/5
f 1/1/3 14/2/3 12/1/3
f 14/2/3 1/1/3 2/2/3
f 19/1/4 18/1/4 17/1/4
f 18/1/4 19/1/4 20/1/4
f 18/1/1 22/2/1 21/2/1
f 22/2/1 18/1/1 20/1/1
f 18/1/3 23/2/3 17/1/3
f 23/2/3 18/1/3 21/2/3
f 19/1/6 23/2/6 24/2/6
f 23/2/6 19/1/6 17/1/6
f 22/2/5 19/1/5 24/2/5
f 19/1/5 22/2/5 20/1/5
f 26/4/4 14/4/4 25/4/4
f 25/4/4 14/4/4 27/4/4
f 26/4/4 15/4/4 14/4/4
f 2/4/4 27/4/4 14/4/4
f 15/4/4 26/4/4 5/4/4
f 2/4/4 28/4/4 27/4/4
f 5/4/4 28/4/4 2/4/4
f 28/4/4 5/4/4 26/4/4

g obstacle-block




usemtl colormap

f 3/1/1 2/2/1 1/1/1
f 4/3/1 2/2/1 3/1/1
f 2/2/1 4/3/1 5/2/1
f 6/3/1 5/2/1 4/3/1
f 5/2/1 6/3/1 7/1/1
f 5/2/1 7/1/1 8/1/1
f 6/3/2 10/3/2 9/3/2
f 10/3/2 6/3/2 4/3/2
f 7/1/3 9/3/3 11/1/3
f 9/3/3 7/1/3 6/3/3
f 13/1/4 1/1/4 12/1/4
f 1/1/4 13/1/4 3/1/4
f 4/3/5 13/1/5 10/3/5
f 13/1/5 4/3/5 3/1/5
f 14/2/6 13/1/6 12/1/6
f 14/2/6 10/3/6 13/1/6
f 10/3/6 14/2/6 9/3/6
f 15/2/6 9/3/6 14/2/6
f 9/3/6 15/2/6 11/1/6
f 11/1/6 15/2/6 16/1/6
f 16/1/4 7/1/4 11/1/4
f 7/1/4 16/1/4 8/1/4
f 5/2/5 16/1/5 15/2/5
f 16/1/5 5/2/5 8/1/5
f 1/1/3 14/2/3 12/1/3
f 14/2/3 1/1/3 2/2/3
f 19/1/4 18/1/4 17/1/4
f 18/1/4 19/1/4 20/1/4
f 18/1/1 22/2/1 21/2/1
f 22/2/1 18/1/1 20/1/1
f 18/1/3 23/2/3 17/1/3
f 23/2/3 18/1/3 21/2/3
f 19/1/6 23/2/6 24/2/6
f 23/2/6 19/1/6 17/1/6
f 22/2/5 19/1/5 24/2/5
f 19/1/5 22/2/5 20/1/5
f 26/4/4 14/4/4 25/4/4
f 25/4/4 14/4/4 27/4/4
f 26/4/4 15/4/4 14/4/4
f 2/4/4 27/4/4 14/4/4
f 15/4/4 26/4/4 5/4/4
f 2/4/4 28/4/4 27/4/4
f 5/4/4 28/4/4 2/4/4
f 28/4/4 5/4/4 26/4/4

