# Created by Kenney (www.kenney.nl)

mtllib obstacle-diamond.mtl

g obstacle-diamond

v 0.49995 0 0.49995 1 1 1
v -0.49995 0 0.49995 1 1 1
v 0.49995 0.063327 0.49995 1 1 1
v -0.49995 0.063327 0.49995 1 1 1
v 0.49995 0 -0.49995 1 1 1
v -0.49995 0 -0.49995 1 1 1
v 0.49995 0.063327 -0.49995 1 1 1
v -0.49995 0.063327 -0.49995 1 1 1
v 0.2652685 0.146652 -2.165734E-13 1 1 1
v -2.021352E-13 0.146652 0.2652685 1 1 1
v 2.252364E-13 0.146652 -0.2652685 1 1 1
v -0.2652685 0.146652 2.136858E-13 1 1 1
v 2.252364E-13 0.063327 -0.2652685 1 1 1
v 0.2652685 0.063327 -2.165734E-13 1 1 1
v -0.2652685 0.063327 2.136858E-13 1 1 1
v -2.021352E-13 0.063327 0.2652685 1 1 1
v 0 0.063327 0.2652684 1 1 1
v -0.2652684 0.063327 0 1 1 1
v 0.2652684 0.063327 0 1 1 1
v 0 0.063327 -0.2652684 1 1 1

vn 0 0 1
vn 0 -1 0
vn 1 0 0
vn -1 0 0
vn 0 0 -1
vn 0 1 0
vn 0.7071068 0 -0.7071068
vn -0.7071068 0 -0.7071068
vn -0.7071068 0 0.7071068
vn 0.7071068 0 0.7071068

vt 0.21875 0.025
vt 0.21875 0.1113636
vt 0.21875 0.225
vt 0.03125 0.125

usemtl colormap

f 3/2/1 2/1/1 1/1/1
f 2/1/1 3/2/1 4/2/1
f 2/1/2 5/1/2 1/1/2
f 5/1/2 2/1/2 6/1/2
f 3/2/3 5/1/3 7/2/3
f 5/1/3 3/2/3 1/1/3
f 2/1/4 8/2/4 6/1/4
f 8/2/4 2/1/4 4/2/4
f 8/2/5 5/1/5 6/1/5
f 5/1/5 8/2/5 7/2/5
f 11/3/6 10/3/6 9/3/6
f 10/3/6 11/3/6 12/3/6
f 9/3/7 13/2/7 11/3/7
f 13/2/7 9/3/7 14/2/7
f 15/2/8 11/3/8 13/2/8
f 11/3/8 15/2/8 12/3/8
f 16/2/9 12/3/9 15/2/9
f 12/3/9 16/2/9 10/3/9
f 10/3/10 14/2/10 9/3/10
f 14/2/10 10/3/10 16/2/10
f 3/4/6 17/4/6 4/4/6
f 4/4/6 17/4/6 18/4/6
f 17/4/6 3/4/6 19/4/6
f 4/4/6 18/4/6 8/4/6
f 7/4/6 19/4/6 3/4/6
f 20/4/6 8/4/6 18/4/6
f 19/4/6 7/4/6 20/4/6
f 20/4/6 7/4/6 8/4/6

g obstacle-diamond




usemtl colormap

f 3/2/1 2/1/1 1/1/1
f 2/1/1 3/2/1 4/2/1
f 2/1/2 5/1/2 1/1/2
f 5/1/2 2/1/2 6/1/2
f 3/2/3 5/1/3 7/2/3
f 5/1/3 3/2/3 1/1/3
f 2/1/4 8/2/4 6/1/4
f 8/2/4 2/1/4 4/2/4
f 8/2/5 5/1/5 6/1/5
f 5/1/5 8/2/5 7/2/5
f 11/3/6 10/3/6 9/3/6
f 10/3/6 11/3/6 12/3/6
f 9/3/7 13/2/7 11/3/7
f 13/2/7 9/3/7 14/2/7
f 15/2/8 11/3/8 13/2/8
f 11/3/8 15/2/8 12/3/8
f 16/2/9 12/3/9 15/2/9
f 12/3/9 16/2/9 10/3/9
f 10/3/10 14/2/10 9/3/10
f 14/2/10 10/3/10 16/2/10
f 3/4/6 17/4/6 4/4/6
f 4/4/6 17/4/6 18/4/6
f 17/4/6 3/4/6 19/4/6
f 4/4/6 18/4/6 8/4/6
f 7/4/6 19/4/6 3/4/6
f 20/4/6 8/4/6 18/4/6
f 19/4/6 7/4/6 20/4/6
f 20/4/6 7/4/6 8/4/6

