# Created by Kenney (www.kenney.nl)

mtllib open.mtl

g open

v 0.49995 0 0.49995 1 1 1
v -0.49995 0 0.49995 1 1 1
v 0.49995 0.063327 0.49995 1 1 1
v -0.49995 0.063327 0.49995 1 1 1
v 0.49995 0 -0.49995 1 1 1
v -0.49995 0 -0.49995 1 1 1
v 0.49995 0.063327 -0.49995 1 1 1
v -0.49995 0.063327 -0.49995 1 1 1

vn 0 0 1
vn 0 -1 0
vn 1 0 0
vn -1 0 0
vn 0 0 -1
vn 0 1 0

vt 0.21875 0.025
vt 0.21875 0.225
vt 0.03125 0.125

usemtl colormap

f 3/2/1 2/1/1 1/1/1
f 2/1/1 3/2/1 4/2/1
f 1/1/2 6/1/2 5/1/2
f 6/1/2 1/1/2 2/1/2
f 3/2/3 5/1/3 7/2/3
f 5/1/3 3/2/3 1/1/3
f 2/1/4 8/2/4 6/1/4
f 8/2/4 2/1/4 4/2/4
f 8/2/5 5/1/5 6/1/5
f 5/1/5 8/2/5 7/2/5
f 8/3/6 3/3/6 7/3/6
f 3/3/6 8/3/6 4/3/6

g open




usemtl colormap

f 3/2/1 2/1/1 1/1/1
f 2/1/1 3/2/1 4/2/1
f 1/1/2 6/1/2 5/1/2
f 6/1/2 1/1/2 2/1/2
f 3/2/3 5/1/3 7/2/3
f 5/1/3 3/2/3 1/1/3
f 2/1/4 8/2/4 6/1/4
f 8/2/4 2/1/4 4/2/4
f 8/2/5 5/1/5 6/1/5
f 5/1/5 8/2/5 7/2/5
f 8/3/6 3/3/6 7/3/6
f 3/3/6 8/3/6 4/3/6

