# Created by Kenney (www.kenney.nl)

mtllib ramp-large-side.mtl

g ramp-large-side

v -0.49995 0.563327 0.9999 1 1 1
v 0.39995 0.563327 0.9999 1 1 1
v -0.49995 0.5 0.9999 1 1 1
v 0.49995 0.5 0.9999 1 1 1
v 0.49995 0.646652 0.9999 1 1 1
v 0.39995 0.646652 0.9999 1 1 1
v -0.49995 0.063327 -0.9999 1 1 1
v -0.49995 9.023893E-17 -0.9999 1 1 1
v 0.39995 0.063327 -0.9999 1 1 1
v 0.49995 0 -0.9999 1 1 1
v 0.49995 0.146652 -0.9999 1 1 1
v 0.39995 0.146652 -0.9999 1 1 1
v 0.39995 0.066952 -0.9212828 1 1 1
v 0.39995 0.150277 -0.9212828 1 1 1
v 0.39995 0.077327 -0.8359164 1 1 1
v 0.39995 0.160652 -0.8359164 1 1 1
v 0.39995 0.093702 -0.7445505 1 1 1
v 0.39995 0.177027 -0.7445505 1 1 1
v 0.39995 0.115327 -0.6479352 1 1 1
v 0.39995 0.198652 -0.6479352 1 1 1
v 0.39995 0.141452 -0.5468203 1 1 1
v 0.39995 0.224777 -0.5468203 1 1 1
v 0.39995 0.1548049 -0.49995 1 1 1
v 0.39995 0.2381299 -0.49995 1 1 1
v 0.39995 0.171327 -0.4419558 1 1 1
v 0.39995 0.254652 -0.4419558 1 1 1
v 0.39995 0.204202 -0.3340916 1 1 1
v 0.39995 0.287527 -0.3340916 1 1 1
v 0.39995 0.239327 -0.2239776 1 1 1
v 0.39995 0.322652 -0.2239776 1 1 1
v 0.39995 0.275952 -0.1123638 1 1 1
v 0.39995 0.359277 -0.1123638 1 1 1
v 0.39995 0.313327 2.887646E-15 1 1 1
v 0.39995 0.396652 2.887646E-15 1 1 1
v 0.39995 0.350702 0.1123638 1 1 1
v 0.39995 0.434027 0.1123638 1 1 1
v 0.39995 0.387327 0.2239776 1 1 1
v 0.39995 0.470652 0.2239776 1 1 1
v 0.39995 0.416675 0.3159812 1 1 1
v 0.39995 0.5 0.3159812 1 1 1
v 0.39995 0.422452 0.3340916 1 1 1
v 0.39995 0.5057769 0.3340916 1 1 1
v 0.39995 0.455327 0.4419558 1 1 1
v 0.39995 0.538652 0.4419558 1 1 1
v 0.39995 0.485202 0.5468203 1 1 1
v 0.39995 0.568527 0.5468203 1 1 1
v 0.39995 0.511327 0.6479352 1 1 1
v 0.39995 0.594652 0.6479352 1 1 1
v 0.39995 0.532952 0.7445505 1 1 1
v 0.39995 0.616277 0.7445505 1 1 1
v 0.39995 0.549327 0.8359164 1 1 1
v 0.39995 0.632652 0.8359164 1 1 1
v 0.39995 0.559702 0.9212828 1 1 1
v 0.39995 0.6430269 0.9212828 1 1 1
v 0.49995 0.150277 -0.9212828 1 1 1
v 0.49995 0.108 -0.4419558 1 1 1
v 0.49995 0.09147795 -0.49995 1 1 1
v -0.49995 0.108 -0.4419558 1 1 1
v 0.49995 0.078125 -0.5468203 1 1 1
v -0.49995 0.078125 -0.5468203 1 1 1
v -0.49995 0.09147795 -0.49995 1 1 1
v 0.49995 0.434027 0.1123638 1 1 1
v 0.49995 0.470652 0.2239776 1 1 1
v 0.49995 0.052 -0.6479352 1 1 1
v -0.49995 0.052 -0.6479352 1 1 1
v 0.49995 0.030375 -0.7445505 1 1 1
v -0.49995 0.030375 -0.7445505 1 1 1
v 0.49995 0.160652 -0.8359164 1 1 1
v 0.49995 0.632652 0.8359164 1 1 1
v 0.49995 0.6430269 0.9212828 1 1 1
v 0.49995 0.496375 0.9212828 1 1 1
v 0.49995 0.486 0.8359164 1 1 1
v -0.49995 0.496375 0.9212828 1 1 1
v -0.49995 0.486 0.8359164 1 1 1
v 0.49995 0.014 -0.8359164 1 1 1
v 0.49995 0.003625 -0.9212828 1 1 1
v -0.49995 0.014 -0.8359164 1 1 1
v -0.49995 0.003625 -0.9212828 1 1 1
v 0.49995 0.322652 -0.2239776 1 1 1
v 0.49995 0.359277 -0.1123638 1 1 1
v 0.49995 0.616277 0.7445505 1 1 1
v 0.49995 0.469625 0.7445505 1 1 1
v -0.49995 0.469625 0.7445505 1 1 1
v 0.49995 0.287375 0.1123638 1 1 1
v 0.49995 0.25 3.609557E-15 1 1 1
v -0.49995 0.287375 0.1123638 1 1 1
v -0.49995 0.212625 -0.1123638 1 1 1
v -0.49995 0.25 -3.609557E-15 1 1 1
v 0.49995 0.212625 -0.1123638 1 1 1
v 0.49995 0.177027 -0.7445505 1 1 1
v 0.49995 0.176 -0.2239776 1 1 1
v -0.49995 0.176 -0.2239776 1 1 1
v 0.49995 0.5 0.3159812 1 1 1
v 0.49995 0.5057769 0.3340916 1 1 1
v 0.49995 0.448 0.6479352 1 1 1
v 0.49995 0.421875 0.5468203 1 1 1
v -0.49995 0.448 0.6479352 1 1 1
v -0.49995 0.421875 0.5468203 1 1 1
v 0.49995 0.392 0.4419558 1 1 1
v 0.49995 0.359125 0.3340916 1 1 1
v -0.49995 0.392 0.4419558 1 1 1
v -0.49995 0.359125 0.3340916 1 1 1
v 0.49995 0.198652 -0.6479352 1 1 1
v 0.49995 0.224777 -0.5468203 1 1 1
v 0.49995 0.538652 0.4419558 1 1 1
v 0.49995 0.568527 0.5468203 1 1 1
v 0.49995 0.324 0.2239776 1 1 1
v -0.49995 0.324 0.2239776 1 1 1
v 0.49995 0.594652 0.6479352 1 1 1
v 0.49995 0.146652 -0.3159812 1 1 1
v 0.49995 0.140875 -0.3340916 1 1 1
v -0.49995 0.146652 -0.3159812 1 1 1
v -0.49995 0.140875 -0.3340916 1 1 1
v 0.49995 0.2381299 -0.49995 1 1 1
v 0.49995 0.254652 -0.4419558 1 1 1
v 0.49995 0.287527 -0.3340916 1 1 1
v 0.49995 0.4085221 0.49995 1 1 1
v -0.49995 0.4085221 0.49995 1 1 1
v 0.49995 0.396652 3.609557E-15 1 1 1
v -0.49995 0.066952 -0.9212828 1 1 1
v -0.49995 0.077327 -0.8359164 1 1 1
v -0.49995 0.093702 -0.7445505 1 1 1
v -0.49995 0.115327 -0.6479352 1 1 1
v -0.49995 0.141452 -0.5468203 1 1 1
v -0.49995 0.1548049 -0.49995 1 1 1
v -0.49995 0.171327 -0.4419558 1 1 1
v -0.49995 0.204202 -0.3340916 1 1 1
v -0.49995 0.239327 -0.2239776 1 1 1
v -0.49995 0.275952 -0.1123638 1 1 1
v -0.49995 0.313327 -7.219114E-16 1 1 1
v -0.49995 0.350702 0.1123638 1 1 1
v -0.49995 0.387327 0.2239776 1 1 1
v -0.49995 0.416675 0.3159812 1 1 1
v -0.49995 0.422452 0.3340916 1 1 1
v -0.49995 0.455327 0.4419558 1 1 1
v -0.49995 0.485202 0.5468203 1 1 1
v -0.49995 0.511327 0.6479352 1 1 1
v -0.49995 0.532952 0.7445505 1 1 1
v -0.49995 0.549327 0.8359164 1 1 1
v -0.49995 0.559702 0.9212828 1 1 1
v 0.39995 0.511327 0.6479353 1 1 1
v 0.39995 0.532952 0.7445505 1 1 1
v -0.49995 0.511327 0.6479353 1 1 1
v -0.49995 0.532952 0.7445505 1 1 1
v -0.49995 0.063327 -0.9999 1 1 1
v -0.49995 0.066952 -0.9212828 1 1 1
v -0.49995 0.549327 0.8359164 1 1 1
v 0.39995 0.115327 -0.6479352 1 1 1
v -0.49995 0.115327 -0.6479352 1 1 1
v -0.49995 0.141452 -0.5468203 1 1 1
v 0.39995 0.350702 0.1123638 1 1 1
v 0.39995 0.387327 0.2239776 1 1 1
v -0.49995 0.350702 0.1123638 1 1 1
v -0.49995 0.387327 0.2239776 1 1 1
v 0.39995 0.416675 0.3159813 1 1 1
v 0.39995 0.422452 0.3340915 1 1 1
v -0.49995 0.422452 0.3340915 1 1 1
v -0.49995 0.416675 0.3159813 1 1 1
v 0.39995 0.171327 -0.4419558 1 1 1
v -0.49995 0.171327 -0.4419558 1 1 1
v -0.49995 0.1548049 -0.49995 1 1 1
v 0.39995 0.275952 -0.1123638 1 1 1
v 0.39995 0.313327 0 1 1 1
v -0.49995 0.275952 -0.1123638 1 1 1
v -0.49995 0.313327 0 1 1 1
v 0.39995 0.559702 0.9212829 1 1 1
v -0.49995 0.559702 0.9212829 1 1 1
v -0.49995 0.563327 0.9999 1 1 1
v 0.39995 0.455327 0.4419558 1 1 1
v -0.49995 0.455327 0.4419558 1 1 1
v 0.39995 0.239327 -0.2239776 1 1 1
v -0.49995 0.239327 -0.2239776 1 1 1
v 0.39995 0.485202 0.5468203 1 1 1
v -0.49995 0.485202 0.5468203 1 1 1
v -0.49995 0.204202 -0.3340916 1 1 1
v -0.49995 0.077327 -0.8359164 1 1 1
v 0.39995 0.093702 -0.7445505 1 1 1
v -0.49995 0.093702 -0.7445505 1 1 1

vn 0 0 1
vn 0 0 -1
vn -1 0 0
vn 0 0.9989386 -0.0460606
vn 0 0.996515 -0.08341227
vn 0 -0.9591857 0.2827771
vn 0 -0.9617327 0.2739894
vn 0 -0.9650428 0.2620921
vn 0 0.9495209 -0.3137038
vn 0 0.9514366 -0.3078448
vn 0 -0.9721596 0.2343193
vn 0 -0.9803104 0.1974628
vn 0 0.9888991 -0.1485894
vn 0 -0.996515 0.08341227
vn 0 -0.9888991 0.1485894
vn 0 0.9803104 -0.1974628
vn 0 -0.9495209 0.3137038
vn 0 -0.9488847 0.3156228
vn 0 -0.9514366 0.3078448
vn 0 0.9527038 -0.3039007
vn 0 0.954651 -0.2977271
vn 0 -0.954651 0.2977271
vn 0 0.9721596 -0.2343193
vn 0 0.9650428 -0.2620921
vn 0 0.9591857 -0.2827771
vn 0 -0.9527038 0.3039007
vn 0 0.9617327 -0.2739894
vn 0 0.9488847 -0.3156228
vn 0 -0.9989386 0.0460606
vn 1 0 0

vt 0.21875 0.1992288
vt 0.21875 0.1796427
vt 0.21875 0.225
vt 0.21875 0.04458611
vt 0.21875 0.025
vt 0.21875 0.07035732
vt 0.21875 0.04570727
vt 0.21875 0.07147847
vt 0.21875 0.04891611
vt 0.21875 0.07468731
vt 0.21875 0.05398066
vt 0.21875 0.07975186
vt 0.21875 0.06066895
vt 0.21875 0.08644015
vt 0.21875 0.06874903
vt 0.21875 0.09452024
vt 0.21875 0.0728789
vt 0.21875 0.09865011
vt 0.21875 0.07798893
vt 0.21875 0.1037601
vt 0.21875 0.08815669
vt 0.21875 0.1139279
vt 0.21875 0.09902035
vt 0.21875 0.1247915
vt 0.21875 0.1103479
vt 0.21875 0.1361191
vt 0.21875 0.1219075
vt 0.21875 0.1476787
vt 0.21875 0.133467
vt 0.21875 0.1592382
vt 0.21875 0.1447946
vt 0.21875 0.1705658
vt 0.21875 0.1538715
vt 0.21875 0.1556582
vt 0.21875 0.1814294
vt 0.21875 0.165826
vt 0.21875 0.1915972
vt 0.21875 0.1750659
vt 0.21875 0.2008371
vt 0.21875 0.1831459
vt 0.21875 0.2089172
vt 0.21875 0.1898343
vt 0.21875 0.2156054
vt 0.21875 0.1948988
vt 0.21875 0.22067
vt 0.21875 0.1981076
vt 0.21875 0.2238788
vt 0.21875 0.05840282
vt 0.21875 0.05329279
vt 0.21875 0.04916292
vt 0.21875 0.04108284
vt 0.21875 0.03439454
vt 0.21875 0.1785215
vt 0.21875 0.1753127
vt 0.21875 0.02932999
vt 0.21875 0.02612116
vt 0.21875 0.1702482
vt 0.21875 0.1138809
vt 0.21875 0.1023213
vt 0.21875 0.0907618
vt 0.21875 0.07943422
vt 0.21875 0.1635598
vt 0.21875 0.1554797
vt 0.21875 0.1462399
vt 0.21875 0.1360721
vt 0.21875 0.1252085
vt 0.21875 0.06857058
vt 0.21875 0.1513499
vt 0.03125 0.125

usemtl colormap

f 3/2/1 2/1/1 1/1/1
f 4/2/1 2/1/1 3/2/1
f 2/1/1 4/2/1 5/3/1
f 2/1/1 5/3/1 6/3/1
f 9/4/2 8/5/2 7/4/2
f 9/4/2 10/5/2 8/5/2
f 10/5/2 9/4/2 11/6/2
f 11/6/2 9/4/2 12/6/2
f 13/7/3 12/6/3 9/4/3
f 12/6/3 13/7/3 14/8/3
f 14/8/3 13/7/3 15/9/3
f 14/8/3 15/9/3 16/10/3
f 16/10/3 15/9/3 17/11/3
f 16/10/3 17/11/3 18/12/3
f 18/12/3 17/11/3 19/13/3
f 18/12/3 19/13/3 20/14/3
f 20/14/3 19/13/3 21/15/3
f 20/14/3 21/15/3 22/16/3
f 22/16/3 21/15/3 23/17/3
f 22/16/3 23/17/3 24/18/3
f 24/18/3 23/17/3 25/19/3
f 24/18/3 25/19/3 26/20/3
f 26/20/3 25/19/3 27/21/3
f 26/20/3 27/21/3 28/22/3
f 28/22/3 27/21/3 29/23/3
f 28/22/3 29/23/3 30/24/3
f 30/24/3 29/23/3 31/25/3
f 30/24/3 31/25/3 32/26/3
f 32/26/3 31/25/3 33/27/3
f 32/26/3 33/27/3 34/28/3
f 34/28/3 33/27/3 35/29/3
f 34/28/3 35/29/3 36/30/3
f 36/30/3 35/29/3 37/31/3
f 36/30/3 37/31/3 38/32/3
f 38/32/3 37/31/3 39/33/3
f 38/32/3 39/33/3 40/2/3
f 40/2/3 39/33/3 41/34/3
f 40/2/3 41/34/3 42/35/3
f 42/35/3 41/34/3 43/36/3
f 42/35/3 43/36/3 44/37/3
f 44/37/3 43/36/3 45/38/3
f 44/37/3 45/38/3 46/39/3
f 46/39/3 45/38/3 47/40/3
f 46/39/3 47/40/3 48/41/3
f 48/41/3 47/40/3 49/42/3
f 48/41/3 49/42/3 50/43/3
f 50/43/3 49/42/3 51/44/3
f 50/43/3 51/44/3 52/45/3
f 52/45/3 51/44/3 53/46/3
f 52/45/3 53/46/3 54/47/3
f 54/47/3 53/46/3 2/1/3
f 54/47/3 2/1/3 6/3/3
f 12/6/4 55/8/5 11/6/4
f 55/8/5 12/6/4 14/8/5
f 58/48/6 57/49/7 56/48/6
f 57/49/7 58/48/6 59/50/8
f 59/50/8 58/48/6 60/50/8
f 60/50/8 58/48/6 61/49/7
f 36/30/9 63/32/10 62/30/9
f 63/32/10 36/30/9 38/32/10
f 59/50/8 65/51/11 64/51/11
f 65/51/11 59/50/8 60/50/8
f 65/51/11 66/52/12 64/51/11
f 66/52/12 65/51/11 67/52/12
f 55/8/5 16/10/13 68/10/13
f 16/10/13 55/8/5 14/8/5
f 52/45/13 70/47/5 69/45/13
f 70/47/5 52/45/13 54/47/5
f 73/53/14 72/54/15 71/53/14
f 72/54/15 73/53/14 74/54/15
f 77/55/15 76/56/14 75/55/15
f 76/56/14 77/55/15 78/56/14
f 30/24/10 80/26/9 79/24/10
f 80/26/9 30/24/10 32/26/9
f 50/43/16 69/45/13 81/43/16
f 69/45/13 50/43/16 52/45/13
f 74/54/15 82/57/12 72/54/15
f 82/57/12 74/54/15 83/57/12
f 86/58/17 85/59/18 84/58/17
f 85/59/18 86/58/17 87/60/17
f 87/60/17 86/58/17 88/59/18
f 87/60/17 89/60/17 85/59/18
f 16/10/13 90/12/16 68/10/13
f 90/12/16 16/10/13 18/12/16
f 87/60/17 91/61/19 89/60/17
f 91/61/19 87/60/17 92/61/19
f 38/32/10 93/2/20 63/32/10
f 93/2/20 38/32/10 94/35/21
f 94/35/21 38/32/10 42/35/21
f 42/35/21 38/32/10 40/2/20
f 97/62/11 96/63/8 95/62/11
f 96/63/8 97/62/11 98/63/8
f 101/64/6 100/65/22 99/64/6
f 100/65/22 101/64/6 102/65/22
f 18/12/16 103/14/23 90/12/16
f 103/14/23 18/12/16 20/14/23
f 20/14/23 104/16/24 103/14/23
f 104/16/24 20/14/23 22/16/24
f 44/37/25 106/39/24 105/37/25
f 106/39/24 44/37/25 46/39/24
f 108/66/19 84/58/17 107/66/19
f 84/58/17 108/66/19 86/58/17
f 46/39/24 109/41/23 106/39/24
f 109/41/23 46/39/24 48/41/23
f 92/61/19 110/6/26 91/61/19
f 110/6/26 92/61/19 111/67/22
f 111/67/22 92/61/19 112/6/26
f 111/67/22 112/6/26 113/67/22
f 111/67/22 58/48/6 56/48/6
f 58/48/6 111/67/22 113/67/22
f 67/52/12 75/55/15 66/52/12
f 75/55/15 67/52/12 77/55/15
f 22/16/24 114/18/27 104/16/24
f 114/18/27 22/16/24 115/20/25
f 115/20/25 22/16/24 26/20/25
f 26/20/25 22/16/24 24/18/27
f 116/22/21 30/24/10 79/24/10
f 30/24/10 116/22/21 28/22/21
f 54/47/5 5/3/4 70/47/5
f 5/3/4 54/47/5 6/3/4
f 98/63/8 117/68/7 96/63/8
f 117/68/7 98/63/8 99/64/6
f 99/64/6 98/63/8 101/64/6
f 101/64/6 98/63/8 118/68/7
f 48/41/23 81/43/16 109/41/23
f 81/43/16 48/41/23 50/43/16
f 32/26/9 119/28/28 80/26/9
f 119/28/28 32/26/9 62/30/9
f 62/30/9 32/26/9 36/30/9
f 36/30/9 32/26/9 34/28/28
f 3/2/29 71/53/14 4/2/29
f 71/53/14 3/2/29 73/53/14
f 26/20/25 116/22/21 115/20/25
f 116/22/21 26/20/25 28/22/21
f 82/57/12 97/62/11 95/62/11
f 97/62/11 82/57/12 83/57/12
f 42/35/21 105/37/25 94/35/21
f 105/37/25 42/35/21 44/37/25
f 100/65/22 108/66/19 107/66/19
f 108/66/19 100/65/22 102/65/22
f 76/56/14 8/5/29 10/5/29
f 8/5/29 76/56/14 78/56/14
f 55/8/30 10/5/30 11/6/30
f 10/5/30 55/8/30 76/56/30
f 76/56/30 55/8/30 68/10/30
f 76/56/30 68/10/30 75/55/30
f 75/55/30 68/10/30 90/12/30
f 75/55/30 90/12/30 66/52/30
f 66/52/30 90/12/30 103/14/30
f 66/52/30 103/14/30 64/51/30
f 64/51/30 103/14/30 104/16/30
f 64/51/30 104/16/30 59/50/30
f 59/50/30 104/16/30 114/18/30
f 59/50/30 114/18/30 57/49/30
f 57/49/30 114/18/30 115/20/30
f 57/49/30 115/20/30 56/48/30
f 56/48/30 115/20/30 116/22/30
f 56/48/30 116/22/30 111/67/30
f 111/67/30 116/22/30 79/24/30
f 111/67/30 79/24/30 110/6/30
f 110/6/30 79/24/30 91/61/30
f 91/61/30 79/24/30 80/26/30
f 91/61/30 80/26/30 89/60/30
f 89/60/30 80/26/30 119/28/30
f 89/60/30 119/28/30 85/59/30
f 85/59/30 119/28/30 62/30/30
f 85/59/30 62/30/30 84/58/30
f 84/58/30 62/30/30 63/32/30
f 84/58/30 63/32/30 107/66/30
f 107/66/30 63/32/30 93/2/30
f 107/66/30 93/2/30 100/65/30
f 100/65/30 93/2/30 94/35/30
f 100/65/30 94/35/30 105/37/30
f 100/65/30 105/37/30 99/64/30
f 99/64/30 105/37/30 106/39/30
f 99/64/30 106/39/30 117/68/30
f 117/68/30 106/39/30 96/63/30
f 96/63/30 106/39/30 109/41/30
f 96/63/30 109/41/30 95/62/30
f 95/62/30 109/41/30 81/43/30
f 95/62/30 81/43/30 82/57/30
f 82/57/30 81/43/30 69/45/30
f 82/57/30 69/45/30 72/54/30
f 72/54/30 69/45/30 70/47/30
f 72/54/30 70/47/30 71/53/30
f 71/53/30 70/47/30 5/3/30
f 71/53/30 5/3/30 4/2/30
f 78/56/3 7/4/3 8/5/3
f 7/4/3 78/56/3 120/7/3
f 120/7/3 78/56/3 77/55/3
f 120/7/3 77/55/3 121/9/3
f 121/9/3 77/55/3 67/52/3
f 121/9/3 67/52/3 122/11/3
f 122/11/3 67/52/3 65/51/3
f 122/11/3 65/51/3 123/13/3
f 123/13/3 65/51/3 60/50/3
f 123/13/3 60/50/3 124/15/3
f 124/15/3 60/50/3 61/49/3
f 124/15/3 61/49/3 125/17/3
f 125/17/3 61/49/3 58/48/3
f 125/17/3 58/48/3 126/19/3
f 126/19/3 58/48/3 113/67/3
f 126/19/3 113/67/3 127/21/3
f 127/21/3 113/67/3 112/6/3
f 127/21/3 112/6/3 128/23/3
f 128/23/3 112/6/3 92/61/3
f 128/23/3 92/61/3 87/60/3
f 128/23/3 87/60/3 129/25/3
f 129/25/3 87/60/3 88/59/3
f 129/25/3 88/59/3 130/27/3
f 130/27/3 88/59/3 86/58/3
f 130/27/3 86/58/3 131/29/3
f 131/29/3 86/58/3 108/66/3
f 131/29/3 108/66/3 132/31/3
f 132/31/3 108/66/3 102/65/3
f 132/31/3 102/65/3 133/33/3
f 133/33/3 102/65/3 134/34/3
f 134/34/3 102/65/3 101/64/3
f 134/34/3 101/64/3 135/36/3
f 135/36/3 101/64/3 118/68/3
f 135/36/3 118/68/3 136/38/3
f 136/38/3 118/68/3 98/63/3
f 136/38/3 98/63/3 97/62/3
f 136/38/3 97/62/3 137/40/3
f 137/40/3 97/62/3 83/57/3
f 137/40/3 83/57/3 138/42/3
f 138/42/3 83/57/3 74/54/3
f 138/42/3 74/54/3 139/44/3
f 139/44/3 74/54/3 73/53/3
f 139/44/3 73/53/3 140/46/3
f 140/46/3 73/53/3 3/2/3
f 140/46/3 3/2/3 1/1/3
f 143/69/23 142/69/16 141/69/23
f 142/69/16 143/69/23 144/69/16
f 145/69/4 13/69/5 9/69/4
f 13/69/5 145/69/4 146/69/5
f 144/69/16 51/69/13 142/69/16
f 51/69/13 144/69/16 147/69/13
f 149/69/23 21/69/24 148/69/23
f 21/69/24 149/69/23 150/69/24
f 153/69/9 152/69/10 151/69/9
f 152/69/10 153/69/9 154/69/10
f 154/69/10 155/69/20 152/69/10
f 155/69/20 154/69/10 156/69/21
f 156/69/21 154/69/10 157/69/21
f 157/69/21 154/69/10 158/69/20
f 150/69/24 23/69/27 21/69/24
f 23/69/27 150/69/24 159/69/25
f 159/69/25 150/69/24 160/69/25
f 160/69/25 150/69/24 161/69/27
f 164/69/9 163/69/28 162/69/9
f 163/69/28 164/69/9 151/69/9
f 151/69/9 164/69/9 153/69/9
f 153/69/9 164/69/9 165/69/28
f 167/69/5 2/69/4 166/69/5
f 2/69/4 167/69/5 168/69/4
f 147/69/13 166/69/5 51/69/13
f 166/69/5 147/69/13 167/69/5
f 157/69/21 169/69/25 156/69/21
f 169/69/25 157/69/21 170/69/25
f 172/69/10 162/69/9 171/69/10
f 162/69/9 172/69/10 164/69/9
f 174/69/24 141/69/23 173/69/24
f 141/69/23 174/69/24 143/69/23
f 170/69/25 173/69/24 169/69/25
f 173/69/24 170/69/25 174/69/24
f 27/69/21 172/69/10 171/69/10
f 172/69/10 27/69/21 175/69/21
f 160/69/25 27/69/21 159/69/25
f 27/69/21 160/69/25 175/69/21
f 13/69/5 176/69/13 15/69/13
f 176/69/13 13/69/5 146/69/5
f 178/69/16 148/69/23 177/69/16
f 148/69/23 178/69/16 149/69/23
f 176/69/13 177/69/16 15/69/13
f 177/69/16 176/69/13 178/69/16

g ramp-large-side




usemtl colormap

f 3/2/1 2/1/1 1/1/1
f 4/2/1 2/1/1 3/2/1
f 2/1/1 4/2/1 5/3/1
f 2/1/1 5/3/1 6/3/1
f 9/4/2 8/5/2 7/4/2
f 9/4/2 10/5/2 8/5/2
f 10/5/2 9/4/2 11/6/2
f 11/6/2 9/4/2 12/6/2
f 13/7/3 12/6/3 9/4/3
f 12/6/3 13/7/3 14/8/3
f 14/8/3 13/7/3 15/9/3
f 14/8/3 15/9/3 16/10/3
f 16/10/3 15/9/3 17/11/3
f 16/10/3 17/11/3 18/12/3
f 18/12/3 17/11/3 19/13/3
f 18/12/3 19/13/3 20/14/3
f 20/14/3 19/13/3 21/15/3
f 20/14/3 21/15/3 22/16/3
f 22/16/3 21/15/3 23/17/3
f 22/16/3 23/17/3 24/18/3
f 24/18/3 23/17/3 25/19/3
f 24/18/3 25/19/3 26/20/3
f 26/20/3 25/19/3 27/21/3
f 26/20/3 27/21/3 28/22/3
f 28/22/3 27/21/3 29/23/3
f 28/22/3 29/23/3 30/24/3
f 30/24/3 29/23/3 31/25/3
f 30/24/3 31/25/3 32/26/3
f 32/26/3 31/25/3 33/27/3
f 32/26/3 33/27/3 34/28/3
f 34/28/3 33/27/3 35/29/3
f 34/28/3 35/29/3 36/30/3
f 36/30/3 35/29/3 37/31/3
f 36/30/3 37/31/3 38/32/3
f 38/32/3 37/31/3 39/33/3
f 38/32/3 39/33/3 40/2/3
f 40/2/3 39/33/3 41/34/3
f 40/2/3 41/34/3 42/35/3
f 42/35/3 41/34/3 43/36/3
f 42/35/3 43/36/3 44/37/3
f 44/37/3 43/36/3 45/38/3
f 44/37/3 45/38/3 46/39/3
f 46/39/3 45/38/3 47/40/3
f 46/39/3 47/40/3 48/41/3
f 48/41/3 47/40/3 49/42/3
f 48/41/3 49/42/3 50/43/3
f 50/43/3 49/42/3 51/44/3
f 50/43/3 51/44/3 52/45/3
f 52/45/3 51/44/3 53/46/3
f 52/45/3 53/46/3 54/47/3
f 54/47/3 53/46/3 2/1/3
f 54/47/3 2/1/3 6/3/3
f 12/6/4 55/8/5 11/6/4
f 55/8/5 12/6/4 14/8/5
f 58/48/6 57/49/7 56/48/6
f 57/49/7 58/48/6 59/50/8
f 59/50/8 58/48/6 60/50/8
f 60/50/8 58/48/6 61/49/7
f 36/30/9 63/32/10 62/30/9
f 63/32/10 36/30/9 38/32/10
f 59/50/8 65/51/11 64/51/11
f 65/51/11 59/50/8 60/50/8
f 65/51/11 66/52/12 64/51/11
f 66/52/12 65/51/11 67/52/12
f 55/8/5 16/10/13 68/10/13
f 16/10/13 55/8/5 14/8/5
f 52/45/13 70/47/5 69/45/13
f 70/47/5 52/45/13 54/47/5
f 73/53/14 72/54/15 71/53/14
f 72/54/15 73/53/14 74/54/15
f 77/55/15 76/56/14 75/55/15
f 76/56/14 77/55/15 78/56/14
f 30/24/10 80/26/9 79/24/10
f 80/26/9 30/24/10 32/26/9
f 50/43/16 69/45/13 81/43/16
f 69/45/13 50/43/16 52/45/13
f 74/54/15 82/57/12 72/54/15
f 82/57/12 74/54/15 83/57/12
f 86/58/17 85/59/18 84/58/17
f 85/59/18 86/58/17 87/60/17
f 87/60/17 86/58/17 88/59/18
f 87/60/17 89/60/17 85/59/18
f 16/10/13 90/12/16 68/10/13
f 90/12/16 16/10/13 18/12/16
f 87/60/17 91/61/19 89/60/17
f 91/61/19 87/60/17 92/61/19
f 38/32/10 93/2/20 63/32/10
f 93/2/20 38/32/10 94/35/21
f 94/35/21 38/32/10 42/35/21
f 42/35/21 38/32/10 40/2/20
f 97/62/11 96/63/8 95/62/11
f 96/63/8 97/62/11 98/63/8
f 101/64/6 100/65/22 99/64/6
f 100/65/22 101/64/6 102/65/22
f 18/12/16 103/14/23 90/12/16
f 103/14/23 18/12/16 20/14/23
f 20/14/23 104/16/24 103/14/23
f 104/16/24 20/14/23 22/16/24
f 44/37/25 106/39/24 105/37/25
f 106/39/24 44/37/25 46/39/24
f 108/66/19 84/58/17 107/66/19
f 84/58/17 108/66/19 86/58/17
f 46/39/24 109/41/23 106/39/24
f 109/41/23 46/39/24 48/41/23
f 92/61/19 110/6/26 91/61/19
f 110/6/26 92/61/19 111/67/22
f 111/67/22 92/61/19 112/6/26
f 111/67/22 112/6/26 113/67/22
f 111/67/22 58/48/6 56/48/6
f 58/48/6 111/67/22 113/67/22
f 67/52/12 75/55/15 66/52/12
f 75/55/15 67/52/12 77/55/15
f 22/16/24 114/18/27 104/16/24
f 114/18/27 22/16/24 115/20/25
f 115/20/25 22/16/24 26/20/25
f 26/20/25 22/16/24 24/18/27
f 116/22/21 30/24/10 79/24/10
f 30/24/10 116/22/21 28/22/21
f 54/47/5 5/3/4 70/47/5
f 5/3/4 54/47/5 6/3/4
f 98/63/8 117/68/7 96/63/8
f 117/68/7 98/63/8 99/64/6
f 99/64/6 98/63/8 101/64/6
f 101/64/6 98/63/8 118/68/7
f 48/41/23 81/43/16 109/41/23
f 81/43/16 48/41/23 50/43/16
f 32/26/9 119/28/28 80/26/9
f 119/28/28 32/26/9 62/30/9
f 62/30/9 32/26/9 36/30/9
f 36/30/9 32/26/9 34/28/28
f 3/2/29 71/53/14 4/2/29
f 71/53/14 3/2/29 73/53/14
f 26/20/25 116/22/21 115/20/25
f 116/22/21 26/20/25 28/22/21
f 82/57/12 97/62/11 95/62/11
f 97/62/11 82/57/12 83/57/12
f 42/35/21 105/37/25 94/35/21
f 105/37/25 42/35/21 44/37/25
f 100/65/22 108/66/19 107/66/19
f 108/66/19 100/65/22 102/65/22
f 76/56/14 8/5/29 10/5/29
f 8/5/29 76/56/14 78/56/14
f 55/8/30 10/5/30 11/6/30
f 10/5/30 55/8/30 76/56/30
f 76/56/30 55/8/30 68/10/30
f 76/56/30 68/10/30 75/55/30
f 75/55/30 68/10/30 90/12/30
f 75/55/30 90/12/30 66/52/30
f 66/52/30 90/12/30 103/14/30
f 66/52/30 103/14/30 64/51/30
f 64/51/30 103/14/30 104/16/30
f 64/51/30 104/16/30 59/50/30
f 59/50/30 104/16/30 114/18/30
f 59/50/30 114/18/30 57/49/30
f 57/49/30 114/18/30 115/20/30
f 57/49/30 115/20/30 56/48/30
f 56/48/30 115/20/30 116/22/30
f 56/48/30 116/22/30 111/67/30
f 111/67/30 116/22/30 79/24/30
f 111/67/30 79/24/30 110/6/30
f 110/6/30 79/24/30 91/61/30
f 91/61/30 79/24/30 80/26/30
f 91/61/30 80/26/30 89/60/30
f 89/60/30 80/26/30 119/28/30
f 89/60/30 119/28/30 85/59/30
f 85/59/30 119/28/30 62/30/30
f 85/59/30 62/30/30 84/58/30
f 84/58/30 62/30/30 63/32/30
f 84/58/30 63/32/30 107/66/30
f 107/66/30 63/32/30 93/2/30
f 107/66/30 93/2/30 100/65/30
f 100/65/30 93/2/30 94/35/30
f 100/65/30 94/35/30 105/37/30
f 100/65/30 105/37/30 99/64/30
f 99/64/30 105/37/30 106/39/30
f 99/64/30 106/39/30 117/68/30
f 117/68/30 106/39/30 96/63/30
f 96/63/30 106/39/30 109/41/30
f 96/63/30 109/41/30 95/62/30
f 95/62/30 109/41/30 81/43/30
f 95/62/30 81/43/30 82/57/30
f 82/57/30 81/43/30 69/45/30
f 82/57/30 69/45/30 72/54/30
f 72/54/30 69/45/30 70/47/30
f 72/54/30 70/47/30 71/53/30
f 71/53/30 70/47/30 5/3/30
f 71/53/30 5/3/30 4/2/30
f 78/56/3 7/4/3 8/5/3
f 7/4/3 78/56/3 120/7/3
f 120/7/3 78/56/3 77/55/3
f 120/7/3 77/55/3 121/9/3
f 121/9/3 77/55/3 67/52/3
f 121/9/3 67/52/3 122/11/3
f 122/11/3 67/52/3 65/51/3
f 122/11/3 65/51/3 123/13/3
f 123/13/3 65/51/3 60/50/3
f 123/13/3 60/50/3 124/15/3
f 124/15/3 60/50/3 61/49/3
f 124/15/3 61/49/3 125/17/3
f 125/17/3 61/49/3 58/48/3
f 125/17/3 58/48/3 126/19/3
f 126/19/3 58/48/3 113/67/3
f 126/19/3 113/67/3 127/21/3
f 127/21/3 113/67/3 112/6/3
f 127/21/3 112/6/3 128/23/3
f 128/23/3 112/6/3 92/61/3
f 128/23/3 92/61/3 87/60/3
f 128/23/3 87/60/3 129/25/3
f 129/25/3 87/60/3 88/59/3
f 129/25/3 88/59/3 130/27/3
f 130/27/3 88/59/3 86/58/3
f 130/27/3 86/58/3 131/29/3
f 131/29/3 86/58/3 108/66/3
f 131/29/3 108/66/3 132/31/3
f 132/31/3 108/66/3 102/65/3
f 132/31/3 102/65/3 133/33/3
f 133/33/3 102/65/3 134/34/3
f 134/34/3 102/65/3 101/64/3
f 134/34/3 101/64/3 135/36/3
f 135/36/3 101/64/3 118/68/3
f 135/36/3 118/68/3 136/38/3
f 136/38/3 118/68/3 98/63/3
f 136/38/3 98/63/3 97/62/3
f 136/38/3 97/62/3 137/40/3
f 137/40/3 97/62/3 83/57/3
f 137/40/3 83/57/3 138/42/3
f 138/42/3 83/57/3 74/54/3
f 138/42/3 74/54/3 139/44/3
f 139/44/3 74/54/3 73/53/3
f 139/44/3 73/53/3 140/46/3
f 140/46/3 73/53/3 3/2/3
f 140/46/3 3/2/3 1/1/3
f 143/69/23 142/69/16 141/69/23
f 142/69/16 143/69/23 144/69/16
f 145/69/4 13/69/5 9/69/4
f 13/69/5 145/69/4 146/69/5
f 144/69/16 51/69/13 142/69/16
f 51/69/13 144/69/16 147/69/13
f 149/69/23 21/69/24 148/69/23
f 21/69/24 149/69/23 150/69/24
f 153/69/9 152/69/10 151/69/9
f 152/69/10 153/69/9 154/69/10
f 154/69/10 155/69/20 152/69/10
f 155/69/20 154/69/10 156/69/21
f 156/69/21 154/69/10 157/69/21
f 157/69/21 154/69/10 158/69/20
f 150/69/24 23/69/27 21/69/24
f 23/69/27 150/69/24 159/69/25
f 159/69/25 150/69/24 160/69/25
f 160/69/25 150/69/24 161/69/27
f 164/69/9 163/69/28 162/69/9
f 163/69/28 164/69/9 151/69/9
f 151/69/9 164/69/9 153/69/9
f 153/69/9 164/69/9 165/69/28
f 167/69/5 2/69/4 166/69/5
f 2/69/4 167/69/5 168/69/4
f 147/69/13 166/69/5 51/69/13
f 166/69/5 147/69/13 167/69/5
f 157/69/21 169/69/25 156/69/21
f 169/69/25 157/69/21 170/69/25
f 172/69/10 162/69/9 171/69/10
f 162/69/9 172/69/10 164/69/9
f 174/69/24 141/69/23 173/69/24
f 141/69/23 174/69/24 143/69/23
f 170/69/25 173/69/24 169/69/25
f 173/69/24 170/69/25 174/69/24
f 27/69/21 172/69/10 171/69/10
f 172/69/10 27/69/21 175/69/21
f 160/69/25 27/69/21 159/69/25
f 27/69/21 160/69/25 175/69/21
f 13/69/5 176/69/13 15/69/13
f 176/69/13 13/69/5 146/69/5
f 178/69/16 148/69/23 177/69/16
f 148/69/23 178/69/16 149/69/23
f 176/69/13 177/69/16 15/69/13
f 177/69/16 176/69/13 178/69/16

