# Created by Kenney (www.kenney.nl)

mtllib ramp-b.mtl

g ramp-b

v 0.39996 0.439956 0.49995 1 1 1
v 0.49995 0.439956 0.49995 1 1 1
v 0.39996 0.356631 0.49995 1 1 1
v 0.49995 0.293304 0.49995 1 1 1
v -0.49995 0.293304 0.49995 1 1 1
v -0.39996 0.356631 0.49995 1 1 1
v -0.49995 0.439956 0.49995 1 1 1
v -0.39996 0.439956 0.49995 1 1 1
v 0.49995 0 -0.49995 1 1 1
v -0.49995 0 -0.49995 1 1 1
v 0.49995 0.146652 -0.49995 1 1 1
v -0.39996 0.146652 -0.49995 1 1 1
v -0.49995 0.146652 -0.49995 1 1 1
v -0.39996 0.063327 -0.49995 1 1 1
v 0.39996 0.063327 -0.49995 1 1 1
v 0.39996 0.146652 -0.49995 1 1 1

vn 0 0 1
vn 0 -0.959569 0.2814736
vn 1 0 0
vn 0 0.959569 -0.2814736
vn -1 0 0
vn 0 0 -1

vt 0.21875 0.225
vt 0.21875 0.1871212
vt 0.21875 0.1583333
vt 0.21875 0.025
vt 0.21875 0.09166668
vt 0.21875 0.05378788
vt 0.03125 0.125

usemtl colormap

f 3/2/1 2/1/1 1/1/1
f 3/2/1 4/3/1 2/1/1
f 4/3/1 3/2/1 5/3/1
f 6/2/1 5/3/1 3/2/1
f 5/3/1 6/2/1 7/1/1
f 7/1/1 6/2/1 8/1/1
f 4/3/2 10/4/2 9/4/2
f 10/4/2 4/3/2 5/3/2
f 2/1/3 9/4/3 11/5/3
f 9/4/3 2/1/3 4/3/3
f 13/5/4 8/1/4 12/5/4
f 8/1/4 13/5/4 7/1/4
f 5/3/5 13/5/5 10/4/5
f 13/5/5 5/3/5 7/1/5
f 14/6/6 13/5/6 12/5/6
f 14/6/6 10/4/6 13/5/6
f 10/4/6 14/6/6 9/4/6
f 15/6/6 9/4/6 14/6/6
f 9/4/6 15/6/6 11/5/6
f 11/5/6 15/6/6 16/5/6
f 16/5/4 2/1/4 11/5/4
f 2/1/4 16/5/4 1/1/4
f 3/2/5 16/5/5 15/6/5
f 16/5/5 3/2/5 1/1/5
f 8/1/3 14/6/3 12/5/3
f 14/6/3 8/1/3 6/2/3
f 14/7/4 3/7/4 15/7/4
f 3/7/4 14/7/4 6/7/4

g ramp-b




usemtl colormap

f 3/2/1 2/1/1 1/1/1
f 3/2/1 4/3/1 2/1/1
f 4/3/1 3/2/1 5/3/1
f 6/2/1 5/3/1 3/2/1
f 5/3/1 6/2/1 7/1/1
f 7/1/1 6/2/1 8/1/1
f 4/3/2 10/4/2 9/4/2
f 10/4/2 4/3/2 5/3/2
f 2/1/3 9/4/3 11/5/3
f 9/4/3 2/1/3 4/3/3
f 13/5/4 8/1/4 12/5/4
f 8/1/4 13/5/4 7/1/4
f 5/3/5 13/5/5 10/4/5
f 13/5/5 5/3/5 7/1/5
f 14/6/6 13/5/6 12/5/6
f 14/6/6 10/4/6 13/5/6
f 10/4/6 14/6/6 9/4/6
f 15/6/6 9/4/6 14/6/6
f 9/4/6 15/6/6 11/5/6
f 11/5/6 15/6/6 16/5/6
f 16/5/4 2/1/4 11/5/4
f 2/1/4 16/5/4 1/1/4
f 3/2/5 16/5/5 15/6/5
f 16/5/5 3/2/5 1/1/5
f 8/1/3 14/6/3 12/5/3
f 14/6/3 8/1/3 6/2/3
f 14/7/4 3/7/4 15/7/4
f 3/7/4 14/7/4 6/7/4

