# Created by Kenney (www.kenney.nl)

mtllib ramp-side.mtl

g ramp-side

v 0.39996 0.646652 0.49995 1 1 1
v 0.49995 0.646652 0.49995 1 1 1
v 0.39996 0.563327 0.49995 1 1 1
v 0.49995 0.5 0.49995 1 1 1
v -0.49995 0.5 0.49995 1 1 1
v -0.49995 0.563327 0.49995 1 1 1
v -0.49995 6.393207E-17 -0.49995 1 1 1
v 0.39996 0.063327 -0.49995 1 1 1
v -0.49995 0.063327 -0.49995 1 1 1
v 0.49995 0 -0.49995 1 1 1
v 0.49995 0.146652 -0.49995 1 1 1
v 0.39996 0.146652 -0.49995 1 1 1
v 0.49995 0.496375 0.4606414 1 1 1
v -0.49995 0.496375 0.4606414 1 1 1
v 0.49995 0.486 0.4179582 1 1 1
v -0.49995 0.486 0.4179582 1 1 1
v 0.49995 0.469625 0.3722753 1 1 1
v -0.49995 0.469625 0.3722753 1 1 1
v 0.49995 0.448 0.3239676 1 1 1
v -0.49995 0.448 0.3239676 1 1 1
v 0.49995 0.150277 -0.4606414 1 1 1
v 0.49995 0.003625 -0.4606414 1 1 1
v 0.49995 0.160652 -0.4179582 1 1 1
v 0.49995 0.014 -0.4179582 1 1 1
v 0.49995 0.177027 -0.3722753 1 1 1
v 0.49995 0.030375 -0.3722753 1 1 1
v 0.49995 0.198652 -0.3239676 1 1 1
v 0.49995 0.052 -0.3239676 1 1 1
v 0.49995 0.224777 -0.2734101 1 1 1
v 0.49995 0.078125 -0.2734101 1 1 1
v 0.49995 0.2381299 -0.249975 1 1 1
v 0.49995 0.09147795 -0.249975 1 1 1
v 0.49995 0.254652 -0.2209779 1 1 1
v 0.49995 0.108 -0.2209779 1 1 1
v 0.49995 0.287527 -0.1670458 1 1 1
v 0.49995 0.140875 -0.1670458 1 1 1
v 0.49995 0.322652 -0.1119888 1 1 1
v 0.49995 0.146652 -0.1579906 1 1 1
v 0.49995 0.176 -0.1119888 1 1 1
v 0.49995 0.359277 -0.05618188 1 1 1
v 0.49995 0.212625 -0.05618188 1 1 1
v 0.49995 0.396652 1.76002E-12 1 1 1
v 0.49995 0.25 1.76002E-12 1 1 1
v 0.49995 0.434027 0.05618188 1 1 1
v 0.49995 0.287375 0.05618188 1 1 1
v 0.49995 0.470652 0.1119888 1 1 1
v 0.49995 0.324 0.1119888 1 1 1
v 0.49995 0.5 0.1579906 1 1 1
v 0.49995 0.359125 0.1670458 1 1 1
v 0.49995 0.5057769 0.1670458 1 1 1
v 0.49995 0.538652 0.2209779 1 1 1
v 0.49995 0.392 0.2209779 1 1 1
v 0.49995 0.568527 0.2734101 1 1 1
v 0.49995 0.4085221 0.249975 1 1 1
v 0.49995 0.421875 0.2734101 1 1 1
v 0.49995 0.594652 0.3239676 1 1 1
v 0.49995 0.616277 0.3722753 1 1 1
v 0.49995 0.632652 0.4179582 1 1 1
v 0.49995 0.6430269 0.4606414 1 1 1
v 0.39996 0.066952 -0.4606414 1 1 1
v 0.39996 0.150277 -0.4606414 1 1 1
v 0.39996 0.077327 -0.4179582 1 1 1
v 0.39996 0.160652 -0.4179582 1 1 1
v 0.39996 0.093702 -0.3722753 1 1 1
v 0.39996 0.177027 -0.3722753 1 1 1
v 0.39996 0.115327 -0.3239676 1 1 1
v 0.39996 0.198652 -0.3239676 1 1 1
v 0.39996 0.141452 -0.2734101 1 1 1
v 0.39996 0.224777 -0.2734101 1 1 1
v 0.39996 0.1548049 -0.249975 1 1 1
v 0.39996 0.2381299 -0.249975 1 1 1
v 0.39996 0.171327 -0.2209779 1 1 1
v 0.39996 0.254652 -0.2209779 1 1 1
v 0.39996 0.204202 -0.1670458 1 1 1
v 0.39996 0.287527 -0.1670458 1 1 1
v 0.39996 0.239327 -0.1119888 1 1 1
v 0.39996 0.322652 -0.1119888 1 1 1
v 0.39996 0.275952 -0.05618188 1 1 1
v 0.39996 0.359277 -0.05618188 1 1 1
v 0.39996 0.313327 1.758576E-12 1 1 1
v 0.39996 0.396652 1.758576E-12 1 1 1
v 0.39996 0.350702 0.05618188 1 1 1
v 0.39996 0.434027 0.05618188 1 1 1
v 0.39996 0.387327 0.1119888 1 1 1
v 0.39996 0.470652 0.1119888 1 1 1
v 0.39996 0.416675 0.1579906 1 1 1
v 0.39996 0.5 0.1579906 1 1 1
v 0.39996 0.422452 0.1670458 1 1 1
v 0.39996 0.5057769 0.1670458 1 1 1
v 0.39996 0.455327 0.2209779 1 1 1
v 0.39996 0.538652 0.2209779 1 1 1
v 0.39996 0.485202 0.2734101 1 1 1
v 0.39996 0.568527 0.2734101 1 1 1
v 0.39996 0.511327 0.3239676 1 1 1
v 0.39996 0.594652 0.3239676 1 1 1
v 0.39996 0.532952 0.3722753 1 1 1
v 0.39996 0.616277 0.3722753 1 1 1
v 0.39996 0.549327 0.4179582 1 1 1
v 0.39996 0.632652 0.4179582 1 1 1
v 0.39996 0.559702 0.4606414 1 1 1
v 0.39996 0.6430269 0.4606414 1 1 1
v -0.49995 0.421875 0.2734101 1 1 1
v -0.49995 0.392 0.2209779 1 1 1
v -0.49995 0.359125 0.1670458 1 1 1
v -0.49995 0.4085221 0.249975 1 1 1
v -0.49995 0.052 -0.3239676 1 1 1
v -0.49995 0.030375 -0.3722753 1 1 1
v -0.49995 0.212625 -0.05618188 1 1 1
v -0.49995 0.176 -0.1119888 1 1 1
v -0.49995 0.003625 -0.4606414 1 1 1
v -0.49995 0.324 0.1119888 1 1 1
v -0.49995 0.014 -0.4179582 1 1 1
v -0.49995 0.287375 0.05618188 1 1 1
v -0.49995 0.108 -0.2209779 1 1 1
v -0.49995 0.078125 -0.2734101 1 1 1
v -0.49995 0.09147795 -0.249975 1 1 1
v -0.49995 0.146652 -0.1579906 1 1 1
v -0.49995 0.140875 -0.1670458 1 1 1
v -0.49995 0.25 1.754245E-12 1 1 1
v -0.49995 0.066952 -0.4606414 1 1 1
v -0.49995 0.077327 -0.4179582 1 1 1
v -0.49995 0.093702 -0.3722753 1 1 1
v -0.49995 0.115327 -0.3239676 1 1 1
v -0.49995 0.141452 -0.2734101 1 1 1
v -0.49995 0.1548049 -0.249975 1 1 1
v -0.49995 0.171327 -0.2209779 1 1 1
v -0.49995 0.204202 -0.1670458 1 1 1
v -0.49995 0.239327 -0.1119888 1 1 1
v -0.49995 0.275952 -0.05618188 1 1 1
v -0.49995 0.313327 -1.761464E-12 1 1 1
v -0.49995 0.350702 0.05618188 1 1 1
v -0.49995 0.387327 0.1119888 1 1 1
v -0.49995 0.416675 0.1579906 1 1 1
v -0.49995 0.422452 0.1670458 1 1 1
v -0.49995 0.455327 0.2209779 1 1 1
v -0.49995 0.485202 0.2734101 1 1 1
v -0.49995 0.511327 0.3239676 1 1 1
v -0.49995 0.532952 0.3722753 1 1 1
v -0.49995 0.549327 0.4179582 1 1 1
v -0.49995 0.559702 0.4606414 1 1 1
v -0.49995 0.063327 -0.49995 1 1 1
v -0.49995 0.066952 -0.4606414 1 1 1
v 0.39996 0.532952 0.3722752 1 1 1
v -0.49995 0.532952 0.3722752 1 1 1
v -0.49995 0.549327 0.4179582 1 1 1
v 0.39996 0.559702 0.4606414 1 1 1
v -0.49995 0.559702 0.4606414 1 1 1
v -0.49995 0.563327 0.49995 1 1 1
v 0.39996 0.239327 -0.1119888 1 1 1
v 0.39996 0.275952 -0.05618188 1 1 1
v -0.49995 0.239327 -0.1119888 1 1 1
v -0.49995 0.275952 -0.05618188 1 1 1
v 0.39996 0.350702 0.05618191 1 1 1
v 0.39996 0.387327 0.1119888 1 1 1
v -0.49995 0.350702 0.05618191 1 1 1
v -0.49995 0.387327 0.1119888 1 1 1
v -0.49995 0.204202 -0.1670458 1 1 1
v 0.39996 0.115327 -0.3239676 1 1 1
v -0.49995 0.115327 -0.3239676 1 1 1
v -0.49995 0.141452 -0.2734101 1 1 1
v 0.39996 0.171327 -0.2209779 1 1 1
v -0.49995 0.171327 -0.2209779 1 1 1
v -0.49995 0.1548049 -0.249975 1 1 1
v 0.39996 0.455327 0.2209779 1 1 1
v 0.39996 0.485202 0.2734101 1 1 1
v -0.49995 0.455327 0.2209779 1 1 1
v -0.49995 0.485202 0.2734101 1 1 1
v 0.39996 0.093702 -0.3722753 1 1 1
v -0.49995 0.077327 -0.4179582 1 1 1
v -0.49995 0.093702 -0.3722753 1 1 1
v 0.39996 0.422452 0.1670458 1 1 1
v -0.49995 0.422452 0.1670458 1 1 1
v 0.39996 0.511327 0.3239676 1 1 1
v -0.49995 0.511327 0.3239676 1 1 1
v 0.39996 0.416675 0.1579906 1 1 1
v -0.49995 0.416675 0.1579906 1 1 1
v 0.39996 0.313327 0 1 1 1
v -0.49995 0.313327 0 1 1 1

vn 0 0 1
vn 0 0 -1
vn 0 -0.9957748 0.09182943
vn 0 -0.9863852 0.1644518
vn 0 -0.9578674 0.2872108
vn 0 -0.9277194 0.3732786
vn 0 -0.9009146 0.4339964
vn 1 0 0
vn -1 0 0
vn 0 -0.8788133 0.4771658
vn 0 -0.8614579 0.5078292
vn 0 -0.8485019 0.5291923
vn 0 -0.8688585 0.4950606
vn 0 0.9578674 -0.2872108
vn 0 0.9863852 -0.1644518
vn 0 0.9957748 -0.09182943
vn 0 0.9277194 -0.3732786
vn 0 0.9009146 -0.4339964
vn 0 -0.8343193 0.5512815
vn 0 -0.8395583 0.5432696
vn 0 0.8395583 -0.5432696
vn 0 0.8430455 -0.5378422
vn 0 0.8485019 -0.5291923
vn 0 0.8614579 -0.5078292
vn 0 0.8788133 -0.4771658
vn 0 0.8343193 -0.5512815
vn 0 -0.8430455 0.5378422
vn 0 0.8688585 -0.4950606
vn 0 -0.8325943 0.5538834
vn 0 0.8325943 -0.5538834

vt 0.21875 0.225
vt 0.21875 0.1992288
vt 0.21875 0.1796427
vt 0.21875 0.025
vt 0.21875 0.04458611
vt 0.21875 0.07035732
vt 0.21875 0.1785215
vt 0.21875 0.1753127
vt 0.21875 0.1702482
vt 0.21875 0.1635598
vt 0.21875 0.07147847
vt 0.21875 0.02612116
vt 0.21875 0.07468731
vt 0.21875 0.02932999
vt 0.21875 0.07975186
vt 0.21875 0.03439454
vt 0.21875 0.08644015
vt 0.21875 0.04108284
vt 0.21875 0.09452024
vt 0.21875 0.04916292
vt 0.21875 0.09865011
vt 0.21875 0.05329279
vt 0.21875 0.1037601
vt 0.21875 0.05840282
vt 0.21875 0.1139279
vt 0.21875 0.06857058
vt 0.21875 0.1247915
vt 0.21875 0.07943422
vt 0.21875 0.1361191
vt 0.21875 0.0907618
vt 0.21875 0.1476787
vt 0.21875 0.1023213
vt 0.21875 0.1592382
vt 0.21875 0.1138809
vt 0.21875 0.1705658
vt 0.21875 0.1252085
vt 0.21875 0.1360721
vt 0.21875 0.1814294
vt 0.21875 0.1915972
vt 0.21875 0.1462399
vt 0.21875 0.2008371
vt 0.21875 0.1513499
vt 0.21875 0.1554797
vt 0.21875 0.2089172
vt 0.21875 0.2156054
vt 0.21875 0.22067
vt 0.21875 0.2238788
vt 0.21875 0.04570727
vt 0.21875 0.04891611
vt 0.21875 0.05398066
vt 0.21875 0.06066895
vt 0.21875 0.06874903
vt 0.21875 0.0728789
vt 0.21875 0.07798893
vt 0.21875 0.08815669
vt 0.21875 0.09902035
vt 0.21875 0.1103479
vt 0.21875 0.1219075
vt 0.21875 0.133467
vt 0.21875 0.1447946
vt 0.21875 0.1538715
vt 0.21875 0.1556582
vt 0.21875 0.165826
vt 0.21875 0.1750659
vt 0.21875 0.1831459
vt 0.21875 0.1898343
vt 0.21875 0.1948988
vt 0.21875 0.1981076
vt 0.03125 0.125

usemtl colormap

f 3/2/1 2/1/1 1/1/1
f 3/2/1 4/3/1 2/1/1
f 4/3/1 3/2/1 5/3/1
f 6/2/1 5/3/1 3/2/1
f 9/5/2 8/5/2 7/4/2
f 8/5/2 10/4/2 7/4/2
f 10/4/2 8/5/2 11/6/2
f 11/6/2 8/5/2 12/6/2
f 5/3/3 13/7/4 4/3/3
f 13/7/4 5/3/3 14/7/4
f 14/7/4 15/8/5 13/7/4
f 15/8/5 14/7/4 16/8/5
f 16/8/5 17/9/6 15/8/5
f 17/9/6 16/8/5 18/9/6
f 17/9/6 20/10/7 19/10/7
f 20/10/7 17/9/6 18/9/6
f 21/11/8 10/4/8 11/6/8
f 10/4/8 21/11/8 22/12/8
f 22/12/8 21/11/8 23/13/8
f 22/12/8 23/13/8 24/14/8
f 24/14/8 23/13/8 25/15/8
f 24/14/8 25/15/8 26/16/8
f 26/16/8 25/15/8 27/17/8
f 26/16/8 27/17/8 28/18/8
f 28/18/8 27/17/8 29/19/8
f 28/18/8 29/19/8 30/20/8
f 30/20/8 29/19/8 31/21/8
f 30/20/8 31/21/8 32/22/8
f 32/22/8 31/21/8 33/23/8
f 32/22/8 33/23/8 34/24/8
f 34/24/8 33/23/8 35/25/8
f 34/24/8 35/25/8 36/26/8
f 36/26/8 35/25/8 37/27/8
f 36/26/8 37/27/8 38/6/8
f 38/6/8 37/27/8 39/28/8
f 39/28/8 37/27/8 40/29/8
f 39/28/8 40/29/8 41/30/8
f 41/30/8 40/29/8 42/31/8
f 41/30/8 42/31/8 43/32/8
f 43/32/8 42/31/8 44/33/8
f 43/32/8 44/33/8 45/34/8
f 45/34/8 44/33/8 46/35/8
f 45/34/8 46/35/8 47/36/8
f 47/36/8 46/35/8 48/3/8
f 47/36/8 48/3/8 49/37/8
f 49/37/8 48/3/8 50/38/8
f 49/37/8 50/38/8 51/39/8
f 49/37/8 51/39/8 52/40/8
f 52/40/8 51/39/8 53/41/8
f 52/40/8 53/41/8 54/42/8
f 54/42/8 53/41/8 55/43/8
f 55/43/8 53/41/8 56/44/8
f 55/43/8 56/44/8 19/10/8
f 19/10/8 56/44/8 57/45/8
f 19/10/8 57/45/8 17/9/8
f 17/9/8 57/45/8 58/46/8
f 17/9/8 58/46/8 15/8/8
f 15/8/8 58/46/8 59/47/8
f 15/8/8 59/47/8 13/7/8
f 13/7/8 59/47/8 2/1/8
f 13/7/8 2/1/8 4/3/8
f 60/48/9 12/6/9 8/5/9
f 12/6/9 60/48/9 61/11/9
f 61/11/9 60/48/9 62/49/9
f 61/11/9 62/49/9 63/13/9
f 63/13/9 62/49/9 64/50/9
f 63/13/9 64/50/9 65/15/9
f 65/15/9 64/50/9 66/51/9
f 65/15/9 66/51/9 67/17/9
f 67/17/9 66/51/9 68/52/9
f 67/17/9 68/52/9 69/19/9
f 69/19/9 68/52/9 70/53/9
f 69/19/9 70/53/9 71/21/9
f 71/21/9 70/53/9 72/54/9
f 71/21/9 72/54/9 73/23/9
f 73/23/9 72/54/9 74/55/9
f 73/23/9 74/55/9 75/25/9
f 75/25/9 74/55/9 76/56/9
f 75/25/9 76/56/9 77/27/9
f 77/27/9 76/56/9 78/57/9
f 77/27/9 78/57/9 79/29/9
f 79/29/9 78/57/9 80/58/9
f 79/29/9 80/58/9 81/31/9
f 81/31/9 80/58/9 82/59/9
f 81/31/9 82/59/9 83/33/9
f 83/33/9 82/59/9 84/60/9
f 83/33/9 84/60/9 85/35/9
f 85/35/9 84/60/9 86/61/9
f 85/35/9 86/61/9 87/3/9
f 87/3/9 86/61/9 88/62/9
f 87/3/9 88/62/9 89/38/9
f 89/38/9 88/62/9 90/63/9
f 89/38/9 90/63/9 91/39/9
f 91/39/9 90/63/9 92/64/9
f 91/39/9 92/64/9 93/41/9
f 93/41/9 92/64/9 94/65/9
f 93/41/9 94/65/9 95/44/9
f 95/44/9 94/65/9 96/66/9
f 95/44/9 96/66/9 97/45/9
f 97/45/9 96/66/9 98/67/9
f 97/45/9 98/67/9 99/46/9
f 99/46/9 98/67/9 100/68/9
f 99/46/9 100/68/9 101/47/9
f 101/47/9 100/68/9 3/2/9
f 101/47/9 3/2/9 1/1/9
f 20/10/7 55/43/10 19/10/7
f 55/43/10 20/10/7 102/43/10
f 103/40/11 49/37/12 52/40/11
f 49/37/12 103/40/11 104/37/12
f 102/43/10 54/42/13 55/43/10
f 54/42/13 102/43/10 52/40/11
f 52/40/11 102/43/10 103/40/11
f 103/40/11 102/43/10 105/42/13
f 99/46/14 59/47/15 58/46/14
f 59/47/15 99/46/14 101/47/15
f 106/18/7 26/16/6 28/18/7
f 26/16/6 106/18/7 107/16/6
f 12/6/16 21/11/15 11/6/16
f 21/11/15 12/6/16 61/11/15
f 65/15/17 27/17/18 25/15/17
f 27/17/18 65/15/17 67/17/18
f 108/30/19 39/28/20 41/30/19
f 39/28/20 108/30/19 109/28/20
f 85/35/21 48/3/22 46/35/21
f 48/3/22 85/35/21 50/38/23
f 50/38/23 85/35/21 89/38/23
f 89/38/23 85/35/21 87/3/22
f 22/12/4 7/4/3 10/4/3
f 7/4/3 22/12/4 110/12/4
f 35/25/23 77/27/21 37/27/21
f 77/27/21 35/25/23 75/25/23
f 91/39/24 53/41/25 51/39/24
f 53/41/25 91/39/24 93/41/25
f 49/37/12 111/36/20 47/36/20
f 111/36/20 49/37/12 104/37/12
f 112/14/5 22/12/4 24/14/5
f 22/12/4 112/14/5 110/12/4
f 111/36/20 45/34/19 47/36/20
f 45/34/19 111/36/20 113/34/19
f 73/23/24 35/25/23 33/23/24
f 35/25/23 73/23/24 75/25/23
f 93/41/25 56/44/18 53/41/25
f 56/44/18 93/41/25 95/44/18
f 101/47/15 2/1/16 59/47/15
f 2/1/16 101/47/15 1/1/16
f 114/24/11 32/22/13 34/24/11
f 32/22/13 114/24/11 30/20/10
f 30/20/10 114/24/11 115/20/10
f 115/20/10 114/24/11 116/22/13
f 83/33/26 46/35/21 44/33/26
f 46/35/21 83/33/26 85/35/21
f 109/28/20 38/6/27 39/28/20
f 38/6/27 109/28/20 36/26/12
f 36/26/12 109/28/20 117/6/27
f 36/26/12 117/6/27 118/26/12
f 69/19/25 31/21/28 29/19/25
f 31/21/28 69/19/25 33/23/24
f 33/23/24 69/19/25 73/23/24
f 73/23/24 69/19/25 71/21/28
f 97/45/17 58/46/14 57/45/17
f 58/46/14 97/45/17 99/46/14
f 113/34/19 43/32/29 45/34/19
f 43/32/29 113/34/19 108/30/19
f 108/30/19 113/34/19 119/32/29
f 108/30/19 41/30/19 43/32/29
f 89/38/23 51/39/24 50/38/23
f 51/39/24 89/38/23 91/39/24
f 107/16/6 24/14/5 26/16/6
f 24/14/5 107/16/6 112/14/5
f 77/27/21 40/29/26 37/27/21
f 40/29/26 77/27/21 79/29/26
f 95/44/18 57/45/17 56/44/18
f 57/45/17 95/44/18 97/45/17
f 21/11/15 63/13/14 23/13/14
f 63/13/14 21/11/15 61/11/15
f 30/20/10 106/18/7 28/18/7
f 106/18/7 30/20/10 115/20/10
f 63/13/14 25/15/17 23/13/14
f 25/15/17 63/13/14 65/15/17
f 36/26/12 114/24/11 34/24/11
f 114/24/11 36/26/12 118/26/12
f 67/17/18 29/19/25 27/17/18
f 29/19/25 67/17/18 69/19/25
f 79/29/26 42/31/30 40/29/26
f 42/31/30 79/29/26 44/33/26
f 44/33/26 79/29/26 83/33/26
f 83/33/26 79/29/26 81/31/30
f 7/4/9 120/48/9 9/5/9
f 120/48/9 7/4/9 110/12/9
f 120/48/9 110/12/9 121/49/9
f 121/49/9 110/12/9 112/14/9
f 121/49/9 112/14/9 122/50/9
f 122/50/9 112/14/9 107/16/9
f 122/50/9 107/16/9 123/51/9
f 123/51/9 107/16/9 106/18/9
f 123/51/9 106/18/9 124/52/9
f 124/52/9 106/18/9 115/20/9
f 124/52/9 115/20/9 125/53/9
f 125/53/9 115/20/9 116/22/9
f 125/53/9 116/22/9 126/54/9
f 126/54/9 116/22/9 114/24/9
f 126/54/9 114/24/9 127/55/9
f 127/55/9 114/24/9 118/26/9
f 127/55/9 118/26/9 128/56/9
f 128/56/9 118/26/9 117/6/9
f 128/56/9 117/6/9 109/28/9
f 128/56/9 109/28/9 129/57/9
f 129/57/9 109/28/9 108/30/9
f 129/57/9 108/30/9 130/58/9
f 130/58/9 108/30/9 119/32/9
f 130/58/9 119/32/9 131/59/9
f 131/59/9 119/32/9 113/34/9
f 131/59/9 113/34/9 132/60/9
f 132/60/9 113/34/9 111/36/9
f 132/60/9 111/36/9 133/61/9
f 133/61/9 111/36/9 104/37/9
f 133/61/9 104/37/9 134/62/9
f 134/62/9 104/37/9 135/63/9
f 135/63/9 104/37/9 103/40/9
f 135/63/9 103/40/9 136/64/9
f 136/64/9 103/40/9 105/42/9
f 136/64/9 105/42/9 102/43/9
f 136/64/9 102/43/9 137/65/9
f 137/65/9 102/43/9 20/10/9
f 137/65/9 20/10/9 138/66/9
f 138/66/9 20/10/9 18/9/9
f 138/66/9 18/9/9 139/67/9
f 139/67/9 18/9/9 16/8/9
f 139/67/9 16/8/9 140/68/9
f 140/68/9 16/8/9 14/7/9
f 140/68/9 14/7/9 6/2/9
f 6/2/9 14/7/9 5/3/9
f 141/69/16 60/69/15 8/69/16
f 60/69/15 141/69/16 142/69/15
f 144/69/17 98/69/14 143/69/17
f 98/69/14 144/69/17 145/69/14
f 147/69/15 3/69/16 146/69/15
f 3/69/16 147/69/15 148/69/16
f 151/69/21 150/69/26 149/69/21
f 150/69/26 151/69/21 152/69/26
f 145/69/14 146/69/15 98/69/14
f 146/69/15 145/69/14 147/69/15
f 155/69/26 154/69/21 153/69/26
f 154/69/21 155/69/26 156/69/21
f 74/69/23 151/69/21 149/69/21
f 151/69/21 74/69/23 157/69/23
f 159/69/18 68/69/25 158/69/18
f 68/69/25 159/69/18 160/69/25
f 160/69/25 70/69/28 68/69/25
f 70/69/28 160/69/25 161/69/24
f 161/69/24 160/69/25 162/69/24
f 162/69/24 160/69/25 163/69/28
f 166/69/24 165/69/25 164/69/24
f 165/69/25 166/69/24 167/69/25
f 169/69/14 168/69/17 62/69/14
f 168/69/17 169/69/14 170/69/17
f 172/69/23 164/69/24 171/69/23
f 164/69/24 172/69/23 166/69/24
f 174/69/18 143/69/17 173/69/18
f 143/69/17 174/69/18 144/69/17
f 60/69/15 169/69/14 62/69/14
f 169/69/14 60/69/15 142/69/15
f 156/69/21 175/69/22 154/69/21
f 175/69/22 156/69/21 171/69/23
f 171/69/23 156/69/21 172/69/23
f 172/69/23 156/69/21 176/69/22
f 162/69/24 74/69/23 161/69/24
f 74/69/23 162/69/24 157/69/23
f 152/69/26 177/69/30 150/69/26
f 177/69/30 152/69/26 153/69/26
f 153/69/26 152/69/26 155/69/26
f 155/69/26 152/69/26 178/69/30
f 170/69/17 158/69/18 168/69/17
f 158/69/18 170/69/17 159/69/18
f 167/69/25 173/69/18 165/69/25
f 173/69/18 167/69/25 174/69/18

g ramp-side




usemtl colormap

f 3/2/1 2/1/1 1/1/1
f 3/2/1 4/3/1 2/1/1
f 4/3/1 3/2/1 5/3/1
f 6/2/1 5/3/1 3/2/1
f 9/5/2 8/5/2 7/4/2
f 8/5/2 10/4/2 7/4/2
f 10/4/2 8/5/2 11/6/2
f 11/6/2 8/5/2 12/6/2
f 5/3/3 13/7/4 4/3/3
f 13/7/4 5/3/3 14/7/4
f 14/7/4 15/8/5 13/7/4
f 15/8/5 14/7/4 16/8/5
f 16/8/5 17/9/6 15/8/5
f 17/9/6 16/8/5 18/9/6
f 17/9/6 20/10/7 19/10/7
f 20/10/7 17/9/6 18/9/6
f 21/11/8 10/4/8 11/6/8
f 10/4/8 21/11/8 22/12/8
f 22/12/8 21/11/8 23/13/8
f 22/12/8 23/13/8 24/14/8
f 24/14/8 23/13/8 25/15/8
f 24/14/8 25/15/8 26/16/8
f 26/16/8 25/15/8 27/17/8
f 26/16/8 27/17/8 28/18/8
f 28/18/8 27/17/8 29/19/8
f 28/18/8 29/19/8 30/20/8
f 30/20/8 29/19/8 31/21/8
f 30/20/8 31/21/8 32/22/8
f 32/22/8 31/21/8 33/23/8
f 32/22/8 33/23/8 34/24/8
f 34/24/8 33/23/8 35/25/8
f 34/24/8 35/25/8 36/26/8
f 36/26/8 35/25/8 37/27/8
f 36/26/8 37/27/8 38/6/8
f 38/6/8 37/27/8 39/28/8
f 39/28/8 37/27/8 40/29/8
f 39/28/8 40/29/8 41/30/8
f 41/30/8 40/29/8 42/31/8
f 41/30/8 42/31/8 43/32/8
f 43/32/8 42/31/8 44/33/8
f 43/32/8 44/33/8 45/34/8
f 45/34/8 44/33/8 46/35/8
f 45/34/8 46/35/8 47/36/8
f 47/36/8 46/35/8 48/3/8
f 47/36/8 48/3/8 49/37/8
f 49/37/8 48/3/8 50/38/8
f 49/37/8 50/38/8 51/39/8
f 49/37/8 51/39/8 52/40/8
f 52/40/8 51/39/8 53/41/8
f 52/40/8 53/41/8 54/42/8
f 54/42/8 53/41/8 55/43/8
f 55/43/8 53/41/8 56/44/8
f 55/43/8 56/44/8 19/10/8
f 19/10/8 56/44/8 57/45/8
f 19/10/8 57/45/8 17/9/8
f 17/9/8 57/45/8 58/46/8
f 17/9/8 58/46/8 15/8/8
f 15/8/8 58/46/8 59/47/8
f 15/8/8 59/47/8 13/7/8
f 13/7/8 59/47/8 2/1/8
f 13/7/8 2/1/8 4/3/8
f 60/48/9 12/6/9 8/5/9
f 12/6/9 60/48/9 61/11/9
f 61/11/9 60/48/9 62/49/9
f 61/11/9 62/49/9 63/13/9
f 63/13/9 62/49/9 64/50/9
f 63/13/9 64/50/9 65/15/9
f 65/15/9 64/50/9 66/51/9
f 65/15/9 66/51/9 67/17/9
f 67/17/9 66/51/9 68/52/9
f 67/17/9 68/52/9 69/19/9
f 69/19/9 68/52/9 70/53/9
f 69/19/9 70/53/9 71/21/9
f 71/21/9 70/53/9 72/54/9
f 71/21/9 72/54/9 73/23/9
f 73/23/9 72/54/9 74/55/9
f 73/23/9 74/55/9 75/25/9
f 75/25/9 74/55/9 76/56/9
f 75/25/9 76/56/9 77/27/9
f 77/27/9 76/56/9 78/57/9
f 77/27/9 78/57/9 79/29/9
f 79/29/9 78/57/9 80/58/9
f 79/29/9 80/58/9 81/31/9
f 81/31/9 80/58/9 82/59/9
f 81/31/9 82/59/9 83/33/9
f 83/33/9 82/59/9 84/60/9
f 83/33/9 84/60/9 85/35/9
f 85/35/9 84/60/9 86/61/9
f 85/35/9 86/61/9 87/3/9
f 87/3/9 86/61/9 88/62/9
f 87/3/9 88/62/9 89/38/9
f 89/38/9 88/62/9 90/63/9
f 89/38/9 90/63/9 91/39/9
f 91/39/9 90/63/9 92/64/9
f 91/39/9 92/64/9 93/41/9
f 93/41/9 92/64/9 94/65/9
f 93/41/9 94/65/9 95/44/9
f 95/44/9 94/65/9 96/66/9
f 95/44/9 96/66/9 97/45/9
f 97/45/9 96/66/9 98/67/9
f 97/45/9 98/67/9 99/46/9
f 99/46/9 98/67/9 100/68/9
f 99/46/9 100/68/9 101/47/9
f 101/47/9 100/68/9 3/2/9
f 101/47/9 3/2/9 1/1/9
f 20/10/7 55/43/10 19/10/7
f 55/43/10 20/10/7 102/43/10
f 103/40/11 49/37/12 52/40/11
f 49/37/12 103/40/11 104/37/12
f 102/43/10 54/42/13 55/43/10
f 54/42/13 102/43/10 52/40/11
f 52/40/11 102/43/10 103/40/11
f 103/40/11 102/43/10 105/42/13
f 99/46/14 59/47/15 58/46/14
f 59/47/15 99/46/14 101/47/15
f 106/18/7 26/16/6 28/18/7
f 26/16/6 106/18/7 107/16/6
f 12/6/16 21/11/15 11/6/16
f 21/11/15 12/6/16 61/11/15
f 65/15/17 27/17/18 25/15/17
f 27/17/18 65/15/17 67/17/18
f 108/30/19 39/28/20 41/30/19
f 39/28/20 108/30/19 109/28/20
f 85/35/21 48/3/22 46/35/21
f 48/3/22 85/35/21 50/38/23
f 50/38/23 85/35/21 89/38/23
f 89/38/23 85/35/21 87/3/22
f 22/12/4 7/4/3 10/4/3
f 7/4/3 22/12/4 110/12/4
f 35/25/23 77/27/21 37/27/21
f 77/27/21 35/25/23 75/25/23
f 91/39/24 53/41/25 51/39/24
f 53/41/25 91/39/24 93/41/25
f 49/37/12 111/36/20 47/36/20
f 111/36/20 49/37/12 104/37/12
f 112/14/5 22/12/4 24/14/5
f 22/12/4 112/14/5 110/12/4
f 111/36/20 45/34/19 47/36/20
f 45/34/19 111/36/20 113/34/19
f 73/23/24 35/25/23 33/23/24
f 35/25/23 73/23/24 75/25/23
f 93/41/25 56/44/18 53/41/25
f 56/44/18 93/41/25 95/44/18
f 101/47/15 2/1/16 59/47/15
f 2/1/16 101/47/15 1/1/16
f 114/24/11 32/22/13 34/24/11
f 32/22/13 114/24/11 30/20/10
f 30/20/10 114/24/11 115/20/10
f 115/20/10 114/24/11 116/22/13
f 83/33/26 46/35/21 44/33/26
f 46/35/21 83/33/26 85/35/21
f 109/28/20 38/6/27 39/28/20
f 38/6/27 109/28/20 36/26/12
f 36/26/12 109/28/20 117/6/27
f 36/26/12 117/6/27 118/26/12
f 69/19/25 31/21/28 29/19/25
f 31/21/28 69/19/25 33/23/24
f 33/23/24 69/19/25 73/23/24
f 73/23/24 69/19/25 71/21/28
f 97/45/17 58/46/14 57/45/17
f 58/46/14 97/45/17 99/46/14
f 113/34/19 43/32/29 45/34/19
f 43/32/29 113/34/19 108/30/19
f 108/30/19 113/34/19 119/32/29
f 108/30/19 41/30/19 43/32/29
f 89/38/23 51/39/24 50/38/23
f 51/39/24 89/38/23 91/39/24
f 107/16/6 24/14/5 26/16/6
f 24/14/5 107/16/6 112/14/5
f 77/27/21 40/29/26 37/27/21
f 40/29/26 77/27/21 79/29/26
f 95/44/18 57/45/17 56/44/18
f 57/45/17 95/44/18 97/45/17
f 21/11/15 63/13/14 23/13/14
f 63/13/14 21/11/15 61/11/15
f 30/20/10 106/18/7 28/18/7
f 106/18/7 30/20/10 115/20/10
f 63/13/14 25/15/17 23/13/14
f 25/15/17 63/13/14 65/15/17
f 36/26/12 114/24/11 34/24/11
f 114/24/11 36/26/12 118/26/12
f 67/17/18 29/19/25 27/17/18
f 29/19/25 67/17/18 69/19/25
f 79/29/26 42/31/30 40/29/26
f 42/31/30 79/29/26 44/33/26
f 44/33/26 79/29/26 83/33/26
f 83/33/26 79/29/26 81/31/30
f 7/4/9 120/48/9 9/5/9
f 120/48/9 7/4/9 110/12/9
f 120/48/9 110/12/9 121/49/9
f 121/49/9 110/12/9 112/14/9
f 121/49/9 112/14/9 122/50/9
f 122/50/9 112/14/9 107/16/9
f 122/50/9 107/16/9 123/51/9
f 123/51/9 107/16/9 106/18/9
f 123/51/9 106/18/9 124/52/9
f 124/52/9 106/18/9 115/20/9
f 124/52/9 115/20/9 125/53/9
f 125/53/9 115/20/9 116/22/9
f 125/53/9 116/22/9 126/54/9
f 126/54/9 116/22/9 114/24/9
f 126/54/9 114/24/9 127/55/9
f 127/55/9 114/24/9 118/26/9
f 127/55/9 118/26/9 128/56/9
f 128/56/9 118/26/9 117/6/9
f 128/56/9 117/6/9 109/28/9
f 128/56/9 109/28/9 129/57/9
f 129/57/9 109/28/9 108/30/9
f 129/57/9 108/30/9 130/58/9
f 130/58/9 108/30/9 119/32/9
f 130/58/9 119/32/9 131/59/9
f 131/59/9 119/32/9 113/34/9
f 131/59/9 113/34/9 132/60/9
f 132/60/9 113/34/9 111/36/9
f 132/60/9 111/36/9 133/61/9
f 133/61/9 111/36/9 104/37/9
f 133/61/9 104/37/9 134/62/9
f 134/62/9 104/37/9 135/63/9
f 135/63/9 104/37/9 103/40/9
f 135/63/9 103/40/9 136/64/9
f 136/64/9 103/40/9 105/42/9
f 136/64/9 105/42/9 102/43/9
f 136/64/9 102/43/9 137/65/9
f 137/65/9 102/43/9 20/10/9
f 137/65/9 20/10/9 138/66/9
f 138/66/9 20/10/9 18/9/9
f 138/66/9 18/9/9 139/67/9
f 139/67/9 18/9/9 16/8/9
f 139/67/9 16/8/9 140/68/9
f 140/68/9 16/8/9 14/7/9
f 140/68/9 14/7/9 6/2/9
f 6/2/9 14/7/9 5/3/9
f 141/69/16 60/69/15 8/69/16
f 60/69/15 141/69/16 142/69/15
f 144/69/17 98/69/14 143/69/17
f 98/69/14 144/69/17 145/69/14
f 147/69/15 3/69/16 146/69/15
f 3/69/16 147/69/15 148/69/16
f 151/69/21 150/69/26 149/69/21
f 150/69/26 151/69/21 152/69/26
f 145/69/14 146/69/15 98/69/14
f 146/69/15 145/69/14 147/69/15
f 155/69/26 154/69/21 153/69/26
f 154/69/21 155/69/26 156/69/21
f 74/69/23 151/69/21 149/69/21
f 151/69/21 74/69/23 157/69/23
f 159/69/18 68/69/25 158/69/18
f 68/69/25 159/69/18 160/69/25
f 160/69/25 70/69/28 68/69/25
f 70/69/28 160/69/25 161/69/24
f 161/69/24 160/69/25 162/69/24
f 162/69/24 160/69/25 163/69/28
f 166/69/24 165/69/25 164/69/24
f 165/69/25 166/69/24 167/69/25
f 169/69/14 168/69/17 62/69/14
f 168/69/17 169/69/14 170/69/17
f 172/69/23 164/69/24 171/69/23
f 164/69/24 172/69/23 166/69/24
f 174/69/18 143/69/17 173/69/18
f 143/69/17 174/69/18 144/69/17
f 60/69/15 169/69/14 62/69/14
f 169/69/14 60/69/15 142/69/15
f 156/69/21 175/69/22 154/69/21
f 175/69/22 156/69/21 171/69/23
f 171/69/23 156/69/21 172/69/23
f 172/69/23 156/69/21 176/69/22
f 162/69/24 74/69/23 161/69/24
f 74/69/23 162/69/24 157/69/23
f 152/69/26 177/69/30 150/69/26
f 177/69/30 152/69/26 153/69/26
f 153/69/26 152/69/26 155/69/26
f 155/69/26 152/69/26 178/69/30
f 170/69/17 158/69/18 168/69/17
f 158/69/18 170/69/17 159/69/18
f 167/69/25 173/69/18 165/69/25
f 173/69/18 167/69/25 174/69/18

