# Created by Kenney (www.kenney.nl)

mtllib round-large-corner.mtl

g round-large-corner

v -0.579052 0.063327 0.01625824 1 1 1
v -0.579052 0.146652 0.01625824 1 1 1
v -0.450005 0.063327 -0.04738072 1 1 1
v -0.450005 0.146652 -0.04738072 1 1 1
v -1 0.146652 1 1 1 1
v -1 0 1 1 1 1
v -1 0.146652 0.89991 1 1 1
v -1 0.063327 0.89991 1 1 1
v -1 0.063327 0.09999 1 1 1
v -1 0 7.219114E-16 1 1 1
v -1 0.146652 7.219114E-16 1 1 1
v -1 0.146652 0.09999 1 1 1
v -0.2346331 0 0.8477591 1 1 1
v -0.4823619 0 0.9318516 1 1 1
v -0.2346331 0.146652 0.8477591 1 1 1
v -0.4823619 0.146652 0.9318516 1 1 1
v 0.9318516 0.146652 -0.4823619 1 1 1
v 0.9318516 0 -0.4823619 1 1 1
v 0.8477591 0.146652 -0.2346331 1 1 1
v 0.8477591 0 -0.2346331 1 1 1
v -0.1339746 0 -0.5 1 1 1
v -0.1339746 0.146652 -0.5 1 1 1
v -0.2066467 0 -0.3912386 1 1 1
v -0.2066467 0.146652 -0.3912386 1 1 1
v 1.542849E-09 0 -1 1 1 1
v 1.542849E-09 0.146652 -1 1 1 1
v -0.008555138 0 -0.8694738 1 1 1
v -0.008555138 0.146652 -0.8694738 1 1 1
v -0.7389476 0 0.9828897 1 1 1
v -0.7389476 0.146652 0.9828897 1 1 1
v 0.2175229 0 0.5867067 1 1 1
v 1.542849E-09 0 0.7320508 1 1 1
v 0.2175229 0.146652 0.5867067 1 1 1
v 1.542849E-09 0.146652 0.7320508 1 1 1
v 0.7320508 0.146652 -7.219114E-16 1 1 1
v 0.7320508 0 -7.219114E-16 1 1 1
v -0.3912386 0 -0.2066467 1 1 1
v -0.2928932 0 -0.2928932 1 1 1
v -0.3912386 0.146652 -0.2066467 1 1 1
v -0.2928932 0.146652 -0.2928932 1 1 1
v 0.5867067 0.146652 0.2175229 1 1 1
v 0.5867067 0 0.2175229 1 1 1
v 0.4142136 0.146652 0.4142136 1 1 1
v 0.4142136 0 0.4142136 1 1 1
v 0.7552879 0.063327 -0.2729359 1 1 1
v 0.7552879 0.146652 -0.2729359 1 1 1
v 0.6453704 0.063327 -0.050045 1 1 1
v 0.6453704 0.146652 -0.050045 1 1 1
v -0.6173166 0 -0.07612047 1 1 1
v -0.5 0 -0.1339746 1 1 1
v -0.6173166 0.146652 -0.07612047 1 1 1
v -0.5 0.146652 -0.1339746 1 1 1
v -0.1273193 0.146652 -0.3303685 1 1 1
v -0.1273193 0.063327 -0.3303685 1 1 1
v -0.2221896 0.146652 -0.2221896 1 1 1
v -0.2221896 0.063327 -0.2221896 1 1 1
v -0.3303685 0.063327 -0.1273193 1 1 1
v -0.3303685 0.146652 -0.1273193 1 1 1
v 0.06250875 0.146652 -0.7153016 1 1 1
v 0.06250875 0.063327 -0.7153016 1 1 1
v 0.01625824 0.146652 -0.579052 1 1 1
v 0.01625824 0.063327 -0.579052 1 1 1
v 0.8351721 0.063327 -0.5082671 1 1 1
v 0.8351721 0.146652 -0.5082671 1 1 1
v 0.883656 0.063327 -0.752012 1 1 1
v 0.883656 0.146652 -0.752012 1 1 1
v 0.09999 0.146652 -1 1 1 1
v 0.09999 0.063327 -1 1 1 1
v 1 0 -1 1 1 1
v 0.89991 0.063327 -1 1 1 1
v 1 0.146652 -1 1 1 1
v 0.89991 0.146652 -1 1 1 1
v -0.07612047 0 -0.6173166 1 1 1
v -0.07612047 0.146652 -0.6173166 1 1 1
v -0.8564225 0.063327 0.09057943 1 1 1
v -0.8564225 0.146652 0.09057943 1 1 1
v 0.09057943 0.146652 -0.8564225 1 1 1
v 0.09057943 0.063327 -0.8564225 1 1 1
v -0.2729359 0.063327 0.7552879 1 1 1
v -0.050045 0.063327 0.6453703 1 1 1
v -0.2729359 0.146652 0.7552879 1 1 1
v -0.050045 0.146652 0.6453703 1 1 1
v -0.7153016 0.063327 0.06250875 1 1 1
v -0.7153016 0.146652 0.06250875 1 1 1
v 0.5073 0.063327 0.1565919 1 1 1
v 0.5073 0.146652 0.1565919 1 1 1
v 0.3434392 0.063327 0.3434392 1 1 1
v 0.3434392 0.146652 0.3434392 1 1 1
v 0.1565919 0.063327 0.5073 1 1 1
v 0.1565919 0.146652 0.5073 1 1 1
v -0.752012 0.063327 0.883656 1 1 1
v -0.752012 0.146652 0.883656 1 1 1
v -0.03407417 0 -0.741181 1 1 1
v -0.03407417 0.146652 -0.741181 1 1 1
v -0.5082671 0.063327 0.8351721 1 1 1
v -0.5082671 0.146652 0.8351721 1 1 1
v -0.04738072 0.146652 -0.450005 1 1 1
v -0.04738072 0.063327 -0.450005 1 1 1
v 0.9828897 0.146652 -0.7389476 1 1 1
v 0.9828897 0 -0.7389476 1 1 1
v -0.741181 0 -0.03407417 1 1 1
v -0.741181 0.146652 -0.03407417 1 1 1
v -0.8694738 0.146652 -0.008555138 1 1 1
v -0.8694738 0 -0.008555138 1 1 1
v 0.883656 0.063327 -0.752012 1 1 1
v 0.09998995 0.063327 -1 1 1 1
v 0.8351721 0.063327 -0.5082672 1 1 1
v 0.6453703 0.063327 -0.05004501 1 1 1
v 0.5072999 0.063327 0.1565919 1 1 1
v 0.156592 0.063327 0.5072999 1 1 1
v 0.09057939 0.063327 -0.8564225 1 1 1
v -0.05004501 0.063327 0.6453702 1 1 1
v 0.06250876 0.063327 -0.7153016 1 1 1
v 0.01625818 0.063327 -0.5790521 1 1 1
v -0.04738075 0.063327 -0.450005 1 1 1
v -0.1273192 0.063327 -0.3303685 1 1 1
v -0.272936 0.063327 0.755288 1 1 1
v -0.2221897 0.063327 -0.2221897 1 1 1
v -0.3303685 0.063327 -0.1273193 1 1 1
v -0.5082672 0.063327 0.8351721 1 1 1
v -0.4500051 0.063327 -0.04738075 1 1 1
v -0.5790521 0.063327 0.01625824 1 1 1
v -0.752012 0.063327 0.8836559 1 1 1
v -0.7153016 0.063327 0.06250882 1 1 1
v -0.8564225 0.063327 0.09057939 1 1 1
v -1 0.063327 0.09999001 1 1 1

vn 0.3826834 0 0.9238795
vn 0.5 0 0.8660254
vn -1 0 0
vn 0.258819 0 0.9659258
vn 0.9659258 0 0.258819
vn 0.9238795 0 0.3826834
vn -0.8660254 0 -0.5
vn -0.7933533 0 -0.6087614
vn -0.9978589 0 -0.06540313
vn -0.9914449 0 -0.1305262
vn 0.1305262 0 0.9914449
vn 0.06540313 0 0.9978589
vn 0.6087614 0 0.7933533
vn 0.8660254 0 0.5
vn -0.6087614 0 -0.7933533
vn -0.7071068 0 -0.7071068
vn 0.7933533 0 0.6087614
vn 0.7071068 0 0.7071068
vn -0.9238795 0 -0.3826834
vn -0.3826834 0 -0.9238795
vn -0.5 0 -0.8660254
vn -0.9659258 0 -0.258819
vn 0 0 -1
vn 0.1305262 0 0.9914449
vn 0.9914449 0 0.1305262
vn -0.06540313 0 -0.9978589
vn -0.1305262 0 -0.9914449
vn -0.258819 0 -0.9659258
vn 0 1 0
vn 0.9978589 0 0.06540313
vn -0.1305262 0 -0.9914449
vn -0.06540313 0 -0.9978589
vn 0 -1 0

vt 0.21875 0.1113636
vt 0.21875 0.225
vt 0.21875 0.025
vt 0.03125 0.125

usemtl colormap

f 3/1/2 2/2/1 1/1/1
f 2/2/1 3/1/2 4/2/2
f 7/2/3 6/3/3 5/2/3
f 8/1/3 6/3/3 7/2/3
f 9/1/3 6/3/3 8/1/3
f 9/1/3 10/3/3 6/3/3
f 10/3/3 9/1/3 11/2/3
f 12/2/3 11/2/3 9/1/3
f 15/2/1 14/3/4 13/3/1
f 14/3/4 15/2/1 16/2/4
f 19/2/6 18/3/5 17/2/5
f 18/3/5 19/2/6 20/3/6
f 23/3/8 22/2/7 21/3/7
f 22/2/7 23/3/8 24/2/8
f 27/3/10 26/2/9 25/3/9
f 26/2/9 27/3/10 28/2/10
f 30/2/11 6/3/12 29/3/11
f 6/3/12 30/2/11 5/2/12
f 33/2/13 32/3/2 31/3/13
f 32/3/2 33/2/13 34/2/2
f 35/2/14 20/3/6 19/2/6
f 20/3/6 35/2/14 36/3/14
f 39/2/15 38/3/16 37/3/15
f 38/3/16 39/2/15 40/2/16
f 43/2/18 42/3/17 41/2/17
f 42/3/17 43/2/18 44/3/18
f 47/1/7 46/2/19 45/1/19
f 46/2/19 47/1/7 48/2/7
f 51/2/20 50/3/21 49/3/20
f 50/3/21 51/2/20 52/2/21
f 55/2/18 54/1/17 53/2/17
f 54/1/17 55/2/18 56/1/18
f 57/1/13 4/2/2 3/1/2
f 4/2/2 57/1/13 58/2/13
f 52/2/21 37/3/15 50/3/21
f 37/3/15 52/2/21 39/2/15
f 61/2/6 60/1/5 59/2/5
f 60/1/5 61/2/6 62/1/6
f 45/1/19 64/2/22 63/1/22
f 64/2/22 45/1/19 46/2/19
f 34/2/2 13/3/1 32/3/2
f 13/3/1 34/2/2 15/2/1
f 63/1/22 66/2/10 65/1/10
f 66/2/10 63/1/22 64/2/22
f 68/1/23 26/2/23 67/2/23
f 68/1/23 25/3/23 26/2/23
f 25/3/23 68/1/23 69/3/23
f 70/1/23 69/3/23 68/1/23
f 69/3/23 70/1/23 71/2/23
f 71/2/23 70/1/23 72/2/23
f 21/3/7 74/2/19 73/3/19
f 74/2/19 21/3/7 22/2/7
f 76/2/24 9/1/12 75/1/24
f 9/1/12 76/2/24 12/2/12
f 16/2/4 29/3/11 14/3/4
f 29/3/11 16/2/4 30/2/11
f 59/2/5 78/1/25 77/2/25
f 78/1/25 59/2/5 60/1/5
f 81/2/20 80/1/21 79/1/20
f 80/1/21 81/2/20 82/2/21
f 1/1/1 84/2/4 83/1/4
f 84/2/4 1/1/1 2/2/1
f 41/2/17 36/3/14 35/2/14
f 36/3/14 41/2/17 42/3/17
f 85/1/8 48/2/7 47/1/7
f 48/2/7 85/1/8 86/2/8
f 87/1/16 86/2/8 85/1/8
f 86/2/8 87/1/16 88/2/16
f 90/2/15 87/1/16 89/1/15
f 87/1/16 90/2/15 88/2/16
f 38/3/16 24/2/8 23/3/8
f 24/2/8 38/3/16 40/2/16
f 7/2/26 91/1/27 8/1/26
f 91/1/27 7/2/26 92/2/27
f 93/3/22 28/2/10 27/3/10
f 28/2/10 93/3/22 94/2/22
f 96/2/28 79/1/20 95/1/28
f 79/1/20 96/2/28 81/2/20
f 56/1/18 58/2/13 57/1/13
f 58/2/13 56/1/18 55/2/18
f 43/2/18 31/3/13 44/3/18
f 31/3/13 43/2/18 33/2/13
f 53/2/17 98/1/14 97/2/14
f 98/1/14 53/2/17 54/1/17
f 72/2/29 99/2/29 71/2/29
f 99/2/29 72/2/29 17/2/29
f 17/2/29 72/2/29 66/2/29
f 17/2/29 66/2/29 19/2/29
f 19/2/29 66/2/29 64/2/29
f 19/2/29 64/2/29 35/2/29
f 35/2/29 64/2/29 46/2/29
f 35/2/29 46/2/29 48/2/29
f 35/2/29 48/2/29 41/2/29
f 41/2/29 48/2/29 86/2/29
f 41/2/29 86/2/29 43/2/29
f 43/2/29 86/2/29 88/2/29
f 43/2/29 88/2/29 33/2/29
f 33/2/29 88/2/29 90/2/29
f 33/2/29 90/2/29 34/2/29
f 34/2/29 90/2/29 82/2/29
f 34/2/29 82/2/29 15/2/29
f 15/2/29 82/2/29 81/2/29
f 15/2/29 81/2/29 16/2/29
f 16/2/29 81/2/29 96/2/29
f 16/2/29 96/2/29 30/2/29
f 30/2/29 96/2/29 92/2/29
f 30/2/29 92/2/29 5/2/29
f 5/2/29 92/2/29 7/2/29
f 17/2/5 100/3/25 99/2/25
f 100/3/25 17/2/5 18/3/5
f 65/1/10 72/2/9 70/1/9
f 72/2/9 65/1/10 66/2/10
f 97/2/14 62/1/6 61/2/6
f 62/1/6 97/2/14 98/1/14
f 92/2/27 95/1/28 91/1/27
f 95/1/28 92/2/27 96/2/28
f 102/2/28 49/3/20 101/3/28
f 49/3/20 102/2/28 51/2/20
f 73/3/19 94/2/22 93/3/22
f 94/2/22 73/3/19 74/2/19
f 99/2/25 69/3/30 71/2/30
f 69/3/30 99/2/25 100/3/25
f 26/2/29 77/2/29 67/2/29
f 77/2/29 26/2/29 59/2/29
f 59/2/29 26/2/29 61/2/29
f 61/2/29 26/2/29 28/2/29
f 61/2/29 28/2/29 97/2/29
f 97/2/29 28/2/29 94/2/29
f 97/2/29 94/2/29 74/2/29
f 97/2/29 74/2/29 53/2/29
f 53/2/29 74/2/29 22/2/29
f 53/2/29 22/2/29 55/2/29
f 55/2/29 22/2/29 24/2/29
f 55/2/29 24/2/29 40/2/29
f 55/2/29 40/2/29 58/2/29
f 58/2/29 40/2/29 39/2/29
f 58/2/29 39/2/29 4/2/29
f 4/2/29 39/2/29 52/2/29
f 4/2/29 52/2/29 2/2/29
f 2/2/29 52/2/29 51/2/29
f 2/2/29 51/2/29 84/2/29
f 84/2/29 51/2/29 102/2/29
f 84/2/29 102/2/29 76/2/29
f 76/2/29 102/2/29 103/2/29
f 76/2/29 103/2/29 12/2/29
f 12/2/29 103/2/29 11/2/29
f 83/1/4 76/2/24 75/1/24
f 76/2/24 83/1/4 84/2/4
f 103/2/31 101/3/28 104/3/31
f 101/3/28 103/2/31 102/2/28
f 11/2/32 104/3/31 10/3/32
f 104/3/31 11/2/32 103/2/31
f 82/2/21 89/1/15 80/1/21
f 89/1/15 82/2/21 90/2/15
f 77/2/25 68/1/30 67/2/30
f 68/1/30 77/2/25 78/1/25
f 100/3/33 25/3/33 69/3/33
f 25/3/33 100/3/33 18/3/33
f 25/3/33 18/3/33 20/3/33
f 25/3/33 20/3/33 36/3/33
f 25/3/33 36/3/33 42/3/33
f 25/3/33 42/3/33 44/3/33
f 25/3/33 44/3/33 31/3/33
f 25/3/33 31/3/33 32/3/33
f 25/3/33 32/3/33 27/3/33
f 27/3/33 32/3/33 13/3/33
f 27/3/33 13/3/33 93/3/33
f 93/3/33 13/3/33 73/3/33
f 73/3/33 13/3/33 21/3/33
f 21/3/33 13/3/33 23/3/33
f 23/3/33 13/3/33 38/3/33
f 38/3/33 13/3/33 14/3/33
f 38/3/33 14/3/33 37/3/33
f 37/3/33 14/3/33 50/3/33
f 50/3/33 14/3/33 29/3/33
f 50/3/33 29/3/33 49/3/33
f 49/3/33 29/3/33 101/3/33
f 101/3/33 29/3/33 6/3/33
f 101/3/33 6/3/33 104/3/33
f 104/3/33 6/3/33 10/3/33
f 106/4/29 105/4/29 70/4/29
f 105/4/29 106/4/29 107/4/29
f 107/4/29 106/4/29 45/4/29
f 45/4/29 106/4/29 108/4/29
f 108/4/29 106/4/29 109/4/29
f 109/4/29 106/4/29 87/4/29
f 87/4/29 106/4/29 110/4/29
f 110/4/29 106/4/29 111/4/29
f 110/4/29 111/4/29 112/4/29
f 112/4/29 111/4/29 113/4/29
f 112/4/29 113/4/29 114/4/29
f 112/4/29 114/4/29 115/4/29
f 112/4/29 115/4/29 116/4/29
f 112/4/29 116/4/29 117/4/29
f 117/4/29 116/4/29 118/4/29
f 117/4/29 118/4/29 119/4/29
f 117/4/29 119/4/29 120/4/29
f 120/4/29 119/4/29 121/4/29
f 120/4/29 121/4/29 122/4/29
f 120/4/29 122/4/29 123/4/29
f 123/4/29 122/4/29 124/4/29
f 123/4/29 124/4/29 125/4/29
f 123/4/29 125/4/29 8/4/29
f 8/4/29 125/4/29 126/4/29

g round-large-corner




usemtl colormap

f 3/1/2 2/2/1 1/1/1
f 2/2/1 3/1/2 4/2/2
f 7/2/3 6/3/3 5/2/3
f 8/1/3 6/3/3 7/2/3
f 9/1/3 6/3/3 8/1/3
f 9/1/3 10/3/3 6/3/3
f 10/3/3 9/1/3 11/2/3
f 12/2/3 11/2/3 9/1/3
f 15/2/1 14/3/4 13/3/1
f 14/3/4 15/2/1 16/2/4
f 19/2/6 18/3/5 17/2/5
f 18/3/5 19/2/6 20/3/6
f 23/3/8 22/2/7 21/3/7
f 22/2/7 23/3/8 24/2/8
f 27/3/10 26/2/9 25/3/9
f 26/2/9 27/3/10 28/2/10
f 30/2/11 6/3/12 29/3/11
f 6/3/12 30/2/11 5/2/12
f 33/2/13 32/3/2 31/3/13
f 32/3/2 33/2/13 34/2/2
f 35/2/14 20/3/6 19/2/6
f 20/3/6 35/2/14 36/3/14
f 39/2/15 38/3/16 37/3/15
f 38/3/16 39/2/15 40/2/16
f 43/2/18 42/3/17 41/2/17
f 42/3/17 43/2/18 44/3/18
f 47/1/7 46/2/19 45/1/19
f 46/2/19 47/1/7 48/2/7
f 51/2/20 50/3/21 49/3/20
f 50/3/21 51/2/20 52/2/21
f 55/2/18 54/1/17 53/2/17
f 54/1/17 55/2/18 56/1/18
f 57/1/13 4/2/2 3/1/2
f 4/2/2 57/1/13 58/2/13
f 52/2/21 37/3/15 50/3/21
f 37/3/15 52/2/21 39/2/15
f 61/2/6 60/1/5 59/2/5
f 60/1/5 61/2/6 62/1/6
f 45/1/19 64/2/22 63/1/22
f 64/2/22 45/1/19 46/2/19
f 34/2/2 13/3/1 32/3/2
f 13/3/1 34/2/2 15/2/1
f 63/1/22 66/2/10 65/1/10
f 66/2/10 63/1/22 64/2/22
f 68/1/23 26/2/23 67/2/23
f 68/1/23 25/3/23 26/2/23
f 25/3/23 68/1/23 69/3/23
f 70/1/23 69/3/23 68/1/23
f 69/3/23 70/1/23 71/2/23
f 71/2/23 70/1/23 72/2/23
f 21/3/7 74/2/19 73/3/19
f 74/2/19 21/3/7 22/2/7
f 76/2/24 9/1/12 75/1/24
f 9/1/12 76/2/24 12/2/12
f 16/2/4 29/3/11 14/3/4
f 29/3/11 16/2/4 30/2/11
f 59/2/5 78/1/25 77/2/25
f 78/1/25 59/2/5 60/1/5
f 81/2/20 80/1/21 79/1/20
f 80/1/21 81/2/20 82/2/21
f 1/1/1 84/2/4 83/1/4
f 84/2/4 1/1/1 2/2/1
f 41/2/17 36/3/14 35/2/14
f 36/3/14 41/2/17 42/3/17
f 85/1/8 48/2/7 47/1/7
f 48/2/7 85/1/8 86/2/8
f 87/1/16 86/2/8 85/1/8
f 86/2/8 87/1/16 88/2/16
f 90/2/15 87/1/16 89/1/15
f 87/1/16 90/2/15 88/2/16
f 38/3/16 24/2/8 23/3/8
f 24/2/8 38/3/16 40/2/16
f 7/2/26 91/1/27 8/1/26
f 91/1/27 7/2/26 92/2/27
f 93/3/22 28/2/10 27/3/10
f 28/2/10 93/3/22 94/2/22
f 96/2/28 79/1/20 95/1/28
f 79/1/20 96/2/28 81/2/20
f 56/1/18 58/2/13 57/1/13
f 58/2/13 56/1/18 55/2/18
f 43/2/18 31/3/13 44/3/18
f 31/3/13 43/2/18 33/2/13
f 53/2/17 98/1/14 97/2/14
f 98/1/14 53/2/17 54/1/17
f 72/2/29 99/2/29 71/2/29
f 99/2/29 72/2/29 17/2/29
f 17/2/29 72/2/29 66/2/29
f 17/2/29 66/2/29 19/2/29
f 19/2/29 66/2/29 64/2/29
f 19/2/29 64/2/29 35/2/29
f 35/2/29 64/2/29 46/2/29
f 35/2/29 46/2/29 48/2/29
f 35/2/29 48/2/29 41/2/29
f 41/2/29 48/2/29 86/2/29
f 41/2/29 86/2/29 43/2/29
f 43/2/29 86/2/29 88/2/29
f 43/2/29 88/2/29 33/2/29
f 33/2/29 88/2/29 90/2/29
f 33/2/29 90/2/29 34/2/29
f 34/2/29 90/2/29 82/2/29
f 34/2/29 82/2/29 15/2/29
f 15/2/29 82/2/29 81/2/29
f 15/2/29 81/2/29 16/2/29
f 16/2/29 81/2/29 96/2/29
f 16/2/29 96/2/29 30/2/29
f 30/2/29 96/2/29 92/2/29
f 30/2/29 92/2/29 5/2/29
f 5/2/29 92/2/29 7/2/29
f 17/2/5 100/3/25 99/2/25
f 100/3/25 17/2/5 18/3/5
f 65/1/10 72/2/9 70/1/9
f 72/2/9 65/1/10 66/2/10
f 97/2/14 62/1/6 61/2/6
f 62/1/6 97/2/14 98/1/14
f 92/2/27 95/1/28 91/1/27
f 95/1/28 92/2/27 96/2/28
f 102/2/28 49/3/20 101/3/28
f 49/3/20 102/2/28 51/2/20
f 73/3/19 94/2/22 93/3/22
f 94/2/22 73/3/19 74/2/19
f 99/2/25 69/3/30 71/2/30
f 69/3/30 99/2/25 100/3/25
f 26/2/29 77/2/29 67/2/29
f 77/2/29 26/2/29 59/2/29
f 59/2/29 26/2/29 61/2/29
f 61/2/29 26/2/29 28/2/29
f 61/2/29 28/2/29 97/2/29
f 97/2/29 28/2/29 94/2/29
f 97/2/29 94/2/29 74/2/29
f 97/2/29 74/2/29 53/2/29
f 53/2/29 74/2/29 22/2/29
f 53/2/29 22/2/29 55/2/29
f 55/2/29 22/2/29 24/2/29
f 55/2/29 24/2/29 40/2/29
f 55/2/29 40/2/29 58/2/29
f 58/2/29 40/2/29 39/2/29
f 58/2/29 39/2/29 4/2/29
f 4/2/29 39/2/29 52/2/29
f 4/2/29 52/2/29 2/2/29
f 2/2/29 52/2/29 51/2/29
f 2/2/29 51/2/29 84/2/29
f 84/2/29 51/2/29 102/2/29
f 84/2/29 102/2/29 76/2/29
f 76/2/29 102/2/29 103/2/29
f 76/2/29 103/2/29 12/2/29
f 12/2/29 103/2/29 11/2/29
f 83/1/4 76/2/24 75/1/24
f 76/2/24 83/1/4 84/2/4
f 103/2/31 101/3/28 104/3/31
f 101/3/28 103/2/31 102/2/28
f 11/2/32 104/3/31 10/3/32
f 104/3/31 11/2/32 103/2/31
f 82/2/21 89/1/15 80/1/21
f 89/1/15 82/2/21 90/2/15
f 77/2/25 68/1/30 67/2/30
f 68/1/30 77/2/25 78/1/25
f 100/3/33 25/3/33 69/3/33
f 25/3/33 100/3/33 18/3/33
f 25/3/33 18/3/33 20/3/33
f 25/3/33 20/3/33 36/3/33
f 25/3/33 36/3/33 42/3/33
f 25/3/33 42/3/33 44/3/33
f 25/3/33 44/3/33 31/3/33
f 25/3/33 31/3/33 32/3/33
f 25/3/33 32/3/33 27/3/33
f 27/3/33 32/3/33 13/3/33
f 27/3/33 13/3/33 93/3/33
f 93/3/33 13/3/33 73/3/33
f 73/3/33 13/3/33 21/3/33
f 21/3/33 13/3/33 23/3/33
f 23/3/33 13/3/33 38/3/33
f 38/3/33 13/3/33 14/3/33
f 38/3/33 14/3/33 37/3/33
f 37/3/33 14/3/33 50/3/33
f 50/3/33 14/3/33 29/3/33
f 50/3/33 29/3/33 49/3/33
f 49/3/33 29/3/33 101/3/33
f 101/3/33 29/3/33 6/3/33
f 101/3/33 6/3/33 104/3/33
f 104/3/33 6/3/33 10/3/33
f 106/4/29 105/4/29 70/4/29
f 105/4/29 106/4/29 107/4/29
f 107/4/29 106/4/29 45/4/29
f 45/4/29 106/4/29 108/4/29
f 108/4/29 106/4/29 109/4/29
f 109/4/29 106/4/29 87/4/29
f 87/4/29 106/4/29 110/4/29
f 110/4/29 106/4/29 111/4/29
f 110/4/29 111/4/29 112/4/29
f 112/4/29 111/4/29 113/4/29
f 112/4/29 113/4/29 114/4/29
f 112/4/29 114/4/29 115/4/29
f 112/4/29 115/4/29 116/4/29
f 112/4/29 116/4/29 117/4/29
f 117/4/29 116/4/29 118/4/29
f 117/4/29 118/4/29 119/4/29
f 117/4/29 119/4/29 120/4/29
f 120/4/29 119/4/29 121/4/29
f 120/4/29 121/4/29 122/4/29
f 120/4/29 122/4/29 123/4/29
f 123/4/29 122/4/29 124/4/29
f 123/4/29 124/4/29 125/4/29
f 123/4/29 125/4/29 8/4/29
f 8/4/29 125/4/29 126/4/29

