# Created by Kenney (www.kenney.nl)
mtllib skew-large-corner-open.mtl
g skew-large-corner-open
v -0.4999 6.69742e-17 -0.4999 1 1 1
v -0.4999 0.063327 -0.4999 1 1 1
v -0.4999 1.127987e-16 1.4999 1 1 1
v -0.4999 0.063327 1.39991 1 1 1
v -0.4999 0.146652 1.39991 1 1 1
v -0.4999 0.146652 1.4999 1 1 1
v 1.39991 0.063327 -0.4999 1 1 1
v 1.4999 0 -0.4999 1 1 1
v 1.4999 0.146652 -0.4999 1 1 1
v 1.39991 0.146652 -0.4999 1 1 1
v 1.4956228 2.517492e-18 -0.4346434 1 1 1
v 1.4828646 5.474413e-18 -0.37050340000000004 1 1 1
v 1.4618436 8.82017e-18 -0.3085774 1 1 1
v 1.4329193999999998 1.249751e-17 -0.24992499999999995 1 1 1
v 1.396587 1.644353e-17 -0.19554970000000005 1 1 1
v 1.3534681 2.059069e-17 -0.146382 1 1 1
v -0.146382 1.415222e-16 1.3534681 1 1 1
v -0.19554970000000005 1.457812e-16 1.396587 1 1 1
v -0.24992499999999995 1.497975e-16 1.4329193999999998 1 1 1
v -0.3085774 1.535025e-16 1.4618436 1 1 1
v -0.37050340000000004 1.568326e-16 1.4828646 1 1 1
v -0.4346434 1.59731e-16 1.4956228 1 1 1
v 1.4956228 0.146652 -0.4346434 1 1 1
v 1.4828646 0.146652 -0.37050340000000004 1 1 1
v 1.4618436 0.146652 -0.3085774 1 1 1
v 1.4329193999999998 0.146652 -0.24992499999999995 1 1 1
v 1.396587 0.146652 -0.19554970000000005 1 1 1
v 1.3964883000000001 0.146652 -0.44769479999999995 1 1 1
v 1.3534681 0.146652 -0.146382 1 1 1
v 1.3862817 0.146652 -0.3963827 1 1 1
v 1.3694649 0.146652 -0.34684190000000004 1 1 1
v 1.3463254999999998 0.146652 -0.29991999999999996 1 1 1
v 1.3172595999999999 0.146652 -0.2564198 1 1 1
v 1.2827644 0.146652 -0.2170856 1 1 1
v -0.146382 0.146652 1.3534681 1 1 1
v -0.2170856 0.146652 1.2827644 1 1 1
v -0.19554970000000005 0.146652 1.396587 1 1 1
v -0.24992499999999995 0.146652 1.4329193999999998 1 1 1
v -0.2564198 0.146652 1.3172595999999999 1 1 1
v -0.3085774 0.146652 1.4618436 1 1 1
v -0.29991999999999996 0.146652 1.3463254999999998 1 1 1
v -0.34684190000000004 0.146652 1.3694649 1 1 1
v -0.37050340000000004 0.146652 1.4828646 1 1 1
v -0.3963827 0.146652 1.3862817 1 1 1
v -0.4346434 0.146652 1.4956228 1 1 1
v -0.44769479999999995 0.146652 1.3964883000000001 1 1 1
v 1.3964883000000001 0.063327 -0.44769479999999995 1 1 1
v 1.3463254999999998 0.063327 -0.29991999999999996 1 1 1
v 1.3172595999999999 0.063327 -0.2564198 1 1 1
v 1.2827644 0.063327 -0.2170856 1 1 1
v -0.2170856 0.063327 1.2827644 1 1 1
v -0.2564198 0.063327 1.3172595999999999 1 1 1
v -0.29991999999999996 0.063327 1.3463254999999998 1 1 1
v -0.44769479999999995 0.063327 1.3964883000000001 1 1 1
v -0.3963827 0.063327 1.3862817 1 1 1
v 1.3862817 0.063327 -0.3963827 1 1 1
v 1.3694649 0.063327 -0.34684190000000004 1 1 1
v -0.34684190000000004 0.063327 1.3694649 1 1 1
v 1.3964881999999998 0.063327 -0.4476947 1 1 1
v 1.3694648 0.063327 -0.34684190000000004 1 1 1
v 1.3463254999999998 0.063327 -0.29991999999999996 1 1 1
v 1.3172595999999999 0.063327 -0.2564198 1 1 1
v 1.2827644 0.063327 -0.2170856 1 1 1
v -0.2564198 0.063327 1.3172597000000001 1 1 1
v -0.29991999999999996 0.063327 1.3463254999999998 1 1 1
v -0.34684190000000004 0.063327 1.3694648 1 1 1
v -0.3963827 0.063327 1.3862817 1 1 1
v -0.4476947 0.063327 1.3964883000000001 1 1 1
vn -0.5 0 0.5
vn 0.5 0 -0.5
vn 0.5 -1 0.5
vn 0.5 1 0.5
vn 1.2933533000000002 0 1.1087614000000001
vn 1.2518399 0 1.1593459
vn 1.4238795 0 0.8826834
vn 1.3660253999999998 0 1
vn 1.4659258 0 0.758819
vn 1.4914448999999999 0 0.6305262
vn 1 0 1.3660253999999998
vn 0.8826834 0 1.4238795
vn -0.4978589 0 0.43459687
vn -0.49144489999999996 0 0.36947379999999996
vn -0.36602539999999995 0 0
vn -0.29335330000000004 0 -0.10876140000000001
vn -0.22986410000000002 0 -0.18359230000000004
vn -0.18359230000000004 0 -0.22986410000000002
vn -0.10876140000000001 0 -0.29335330000000004
vn 0 0 -0.36602539999999995
vn 0.36947379999999996 0 -0.49144489999999996
vn 0.24118099999999998 0 -0.46592579999999995
vn 0.43459687 0 -0.4978589
vn -0.46592579999999995 0 0.24118099999999998
vn -0.42387949999999996 0 0.1173166
vn 0.758819 0 1.4659258
vn 1.4978589 0 0.56540313
vn 0.1173166 0 -0.42387949999999996
vn 0.56540313 0 1.4978589
vn 0.6305262 0 1.4914448999999999
vn 1.1593459 0 1.2518399
vn 1.1087614000000001 0 1.2933533000000002
vn 1.2071068 0 1.2071068
vt 0.21875 0.025
vt 0.21875 0.1113636
vt 0.21875 0.225
vt 0.03125 0.125
usemtl colormap
f 3/1/1 2/2/1 1/1/1
f 2/2/1 3/1/1 4/2/1
f 4/2/1 3/1/1 5/3/1
f 5/3/1 3/1/1 6/3/1
f 2/2/2 7/2/2 1/1/2
f 7/2/2 8/1/2 1/1/2
f 8/1/2 7/2/2 9/3/2
f 9/3/2 7/2/2 10/3/2
f 11/1/3 1/1/3 8/1/3
f 1/1/3 11/1/3 12/1/3
f 1/1/3 12/1/3 13/1/3
f 1/1/3 13/1/3 14/1/3
f 1/1/3 14/1/3 15/1/3
f 1/1/3 15/1/3 16/1/3
f 1/1/3 16/1/3 17/1/3
f 1/1/3 17/1/3 18/1/3
f 1/1/3 18/1/3 19/1/3
f 1/1/3 19/1/3 20/1/3
f 1/1/3 20/1/3 21/1/3
f 1/1/3 21/1/3 22/1/3
f 1/1/3 22/1/3 3/1/3
f 10/3/4 23/3/4 9/3/4
f 23/3/4 10/3/4 24/3/4
f 24/3/4 10/3/4 25/3/4
f 25/3/4 10/3/4 26/3/4
f 26/3/4 10/3/4 27/3/4
f 27/3/4 10/3/4 28/3/4
f 27/3/4 28/3/4 29/3/4
f 29/3/4 28/3/4 30/3/4
f 29/3/4 30/3/4 31/3/4
f 29/3/4 31/3/4 32/3/4
f 29/3/4 32/3/4 33/3/4
f 29/3/4 33/3/4 34/3/4
f 29/3/4 34/3/4 35/3/4
f 35/3/4 34/3/4 36/3/4
f 35/3/4 36/3/4 37/3/4
f 37/3/4 36/3/4 38/3/4
f 38/3/4 36/3/4 39/3/4
f 38/3/4 39/3/4 40/3/4
f 40/3/4 39/3/4 41/3/4
f 40/3/4 41/3/4 42/3/4
f 40/3/4 42/3/4 43/3/4
f 43/3/4 42/3/4 44/3/4
f 43/3/4 44/3/4 45/3/4
f 45/3/4 44/3/4 46/3/4
f 45/3/4 46/3/4 6/3/4
f 6/3/4 46/3/4 5/3/4
f 29/3/6 15/1/5 27/3/5
f 15/1/5 29/3/6 16/1/6
f 26/3/8 13/1/7 25/3/7
f 13/1/7 26/3/8 14/1/8
f 27/3/5 14/1/8 26/3/8
f 14/1/8 27/3/5 15/1/5
f 25/3/7 12/1/9 24/3/9
f 12/1/9 25/3/7 13/1/7
f 24/3/9 11/1/10 23/3/10
f 11/1/10 24/3/9 12/1/9
f 38/3/11 20/1/12 19/1/11
f 20/1/12 38/3/11 40/3/12
f 47/2/14 10/3/13 7/2/13
f 10/3/13 47/2/14 28/3/14
f 49/2/16 32/3/15 48/2/15
f 32/3/15 49/2/16 33/3/16
f 50/2/17 33/3/16 49/2/16
f 33/3/16 50/2/17 34/3/17
f 52/2/19 36/3/18 51/2/18
f 36/3/18 52/2/19 39/3/19
f 41/3/20 52/2/19 53/2/20
f 52/2/19 41/3/20 39/3/19
f 51/2/18 34/3/17 50/2/17
f 34/3/17 51/2/18 36/3/18
f 46/3/21 55/2/22 54/2/21
f 55/2/22 46/3/21 44/3/22
f 4/2/23 46/3/21 54/2/21
f 46/3/21 4/2/23 5/3/23
f 57/2/25 30/3/24 56/2/24
f 30/3/24 57/2/25 31/3/25
f 40/3/12 21/1/26 20/1/12
f 21/1/26 40/3/12 43/3/26
f 23/3/10 8/1/27 9/3/27
f 8/1/27 23/3/10 11/1/10
f 42/3/28 53/2/20 58/2/28
f 53/2/20 42/3/28 41/3/20
f 48/2/15 31/3/25 57/2/25
f 31/3/25 48/2/15 32/3/15
f 22/1/30 6/3/29 3/1/29
f 6/3/29 22/1/30 45/3/30
f 55/2/22 42/3/28 58/2/28
f 42/3/28 55/2/22 44/3/22
f 43/3/26 22/1/30 21/1/26
f 22/1/30 43/3/26 45/3/30
f 56/2/24 28/3/14 47/2/14
f 28/3/14 56/2/24 30/3/24
f 35/3/31 18/1/32 17/1/31
f 18/1/32 35/3/31 37/3/32
f 37/3/32 19/1/11 18/1/32
f 19/1/11 37/3/32 38/3/11
f 35/3/33 16/1/33 29/3/33
f 16/1/33 35/3/33 17/1/33
f 2/4/4 59/4/4 7/4/4
f 59/4/4 2/4/4 56/4/4
f 56/4/4 2/4/4 60/4/4
f 60/4/4 2/4/4 61/4/4
f 61/4/4 2/4/4 62/4/4
f 62/4/4 2/4/4 63/4/4
f 63/4/4 2/4/4 51/4/4
f 51/4/4 2/4/4 64/4/4
f 64/4/4 2/4/4 65/4/4
f 65/4/4 2/4/4 66/4/4
f 66/4/4 2/4/4 67/4/4
f 67/4/4 2/4/4 68/4/4
f 68/4/4 2/4/4 4/4/4
g skew-large-corner-open
usemtl colormap
f 3/1/1 2/2/1 1/1/1
f 2/2/1 3/1/1 4/2/1
f 4/2/1 3/1/1 5/3/1
f 5/3/1 3/1/1 6/3/1
f 2/2/2 7/2/2 1/1/2
f 7/2/2 8/1/2 1/1/2
f 8/1/2 7/2/2 9/3/2
f 9/3/2 7/2/2 10/3/2
f 11/1/3 1/1/3 8/1/3
f 1/1/3 11/1/3 12/1/3
f 1/1/3 12/1/3 13/1/3
f 1/1/3 13/1/3 14/1/3
f 1/1/3 14/1/3 15/1/3
f 1/1/3 15/1/3 16/1/3
f 1/1/3 16/1/3 17/1/3
f 1/1/3 17/1/3 18/1/3
f 1/1/3 18/1/3 19/1/3
f 1/1/3 19/1/3 20/1/3
f 1/1/3 20/1/3 21/1/3
f 1/1/3 21/1/3 22/1/3
f 1/1/3 22/1/3 3/1/3
f 10/3/4 23/3/4 9/3/4
f 23/3/4 10/3/4 24/3/4
f 24/3/4 10/3/4 25/3/4
f 25/3/4 10/3/4 26/3/4
f 26/3/4 10/3/4 27/3/4
f 27/3/4 10/3/4 28/3/4
f 27/3/4 28/3/4 29/3/4
f 29/3/4 28/3/4 30/3/4
f 29/3/4 30/3/4 31/3/4
f 29/3/4 31/3/4 32/3/4
f 29/3/4 32/3/4 33/3/4
f 29/3/4 33/3/4 34/3/4
f 29/3/4 34/3/4 35/3/4
f 35/3/4 34/3/4 36/3/4
f 35/3/4 36/3/4 37/3/4
f 37/3/4 36/3/4 38/3/4
f 38/3/4 36/3/4 39/3/4
f 38/3/4 39/3/4 40/3/4
f 40/3/4 39/3/4 41/3/4
f 40/3/4 41/3/4 42/3/4
f 40/3/4 42/3/4 43/3/4
f 43/3/4 42/3/4 44/3/4
f 43/3/4 44/3/4 45/3/4
f 45/3/4 44/3/4 46/3/4
f 45/3/4 46/3/4 6/3/4
f 6/3/4 46/3/4 5/3/4
f 29/3/6 15/1/5 27/3/5
f 15/1/5 29/3/6 16/1/6
f 26/3/8 13/1/7 25/3/7
f 13/1/7 26/3/8 14/1/8
f 27/3/5 14/1/8 26/3/8
f 14/1/8 27/3/5 15/1/5
f 25/3/7 12/1/9 24/3/9
f 12/1/9 25/3/7 13/1/7
f 24/3/9 11/1/10 23/3/10
f 11/1/10 24/3/9 12/1/9
f 38/3/11 20/1/12 19/1/11
f 20/1/12 38/3/11 40/3/12
f 47/2/14 10/3/13 7/2/13
f 10/3/13 47/2/14 28/3/14
f 49/2/16 32/3/15 48/2/15
f 32/3/15 49/2/16 33/3/16
f 50/2/17 33/3/16 49/2/16
f 33/3/16 50/2/17 34/3/17
f 52/2/19 36/3/18 51/2/18
f 36/3/18 52/2/19 39/3/19
f 41/3/20 52/2/19 53/2/20
f 52/2/19 41/3/20 39/3/19
f 51/2/18 34/3/17 50/2/17
f 34/3/17 51/2/18 36/3/18
f 46/3/21 55/2/22 54/2/21
f 55/2/22 46/3/21 44/3/22
f 4/2/23 46/3/21 54/2/21
f 46/3/21 4/2/23 5/3/23
f 57/2/25 30/3/24 56/2/24
f 30/3/24 57/2/25 31/3/25
f 40/3/12 21/1/26 20/1/12
f 21/1/26 40/3/12 43/3/26
f 23/3/10 8/1/27 9/3/27
f 8/1/27 23/3/10 11/1/10
f 42/3/28 53/2/20 58/2/28
f 53/2/20 42/3/28 41/3/20
f 48/2/15 31/3/25 57/2/25
f 31/3/25 48/2/15 32/3/15
f 22/1/30 6/3/29 3/1/29
f 6/3/29 22/1/30 45/3/30
f 55/2/22 42/3/28 58/2/28
f 42/3/28 55/2/22 44/3/22
f 43/3/26 22/1/30 21/1/26
f 22/1/30 43/3/26 45/3/30
f 56/2/24 28/3/14 47/2/14
f 28/3/14 56/2/24 30/3/24
f 35/3/31 18/1/32 17/1/31
f 18/1/32 35/3/31 37/3/32
f 37/3/32 19/1/11 18/1/32
f 19/1/11 37/3/32 38/3/11
f 35/3/33 16/1/33 29/3/33
f 16/1/33 35/3/33 17/1/33
f 2/4/4 59/4/4 7/4/4
f 59/4/4 2/4/4 56/4/4
f 56/4/4 2/4/4 60/4/4
f 60/4/4 2/4/4 61/4/4
f 61/4/4 2/4/4 62/4/4
f 62/4/4 2/4/4 63/4/4
f 63/4/4 2/4/4 51/4/4
f 51/4/4 2/4/4 64/4/4
f 64/4/4 2/4/4 65/4/4
f 65/4/4 2/4/4 66/4/4
f 66/4/4 2/4/4 67/4/4
f 67/4/4 2/4/4 68/4/4
f 68/4/4 2/4/4 4/4/4
