# Created by Kenney (www.kenney.nl)

mtllib skew-large-corner-open.mtl

g skew-large-corner-open

v -0.9999 6.69742E-17 -0.9999 1 1 1
v -0.9999 0.063327 -0.9999 1 1 1
v -0.9999 1.127987E-16 0.9999 1 1 1
v -0.9999 0.063327 0.89991 1 1 1
v -0.9999 0.146652 0.89991 1 1 1
v -0.9999 0.146652 0.9999 1 1 1
v 0.89991 0.063327 -0.9999 1 1 1
v 0.9999 0 -0.9999 1 1 1
v 0.9999 0.146652 -0.9999 1 1 1
v 0.89991 0.146652 -0.9999 1 1 1
v 0.9956228 2.517492E-18 -0.9346434 1 1 1
v 0.9828646 5.474413E-18 -0.8705034 1 1 1
v 0.9618436 8.82017E-18 -0.8085774 1 1 1
v 0.9329194 1.249751E-17 -0.749925 1 1 1
v 0.896587 1.644353E-17 -0.6955497 1 1 1
v 0.8534681 2.059069E-17 -0.646382 1 1 1
v -0.646382 1.415222E-16 0.8534681 1 1 1
v -0.6955497 1.457812E-16 0.896587 1 1 1
v -0.749925 1.497975E-16 0.9329194 1 1 1
v -0.8085774 1.535025E-16 0.9618436 1 1 1
v -0.8705034 1.568326E-16 0.9828646 1 1 1
v -0.9346434 1.59731E-16 0.9956228 1 1 1
v 0.9956228 0.146652 -0.9346434 1 1 1
v 0.9828646 0.146652 -0.8705034 1 1 1
v 0.9618436 0.146652 -0.8085774 1 1 1
v 0.9329194 0.146652 -0.749925 1 1 1
v 0.896587 0.146652 -0.6955497 1 1 1
v 0.8964883 0.146652 -0.9476948 1 1 1
v 0.8534681 0.146652 -0.646382 1 1 1
v 0.8862817 0.146652 -0.8963827 1 1 1
v 0.8694649 0.146652 -0.8468419 1 1 1
v 0.8463255 0.146652 -0.79992 1 1 1
v 0.8172596 0.146652 -0.7564198 1 1 1
v 0.7827644 0.146652 -0.7170856 1 1 1
v -0.646382 0.146652 0.8534681 1 1 1
v -0.7170856 0.146652 0.7827644 1 1 1
v -0.6955497 0.146652 0.896587 1 1 1
v -0.749925 0.146652 0.9329194 1 1 1
v -0.7564198 0.146652 0.8172596 1 1 1
v -0.8085774 0.146652 0.9618436 1 1 1
v -0.79992 0.146652 0.8463255 1 1 1
v -0.8468419 0.146652 0.8694649 1 1 1
v -0.8705034 0.146652 0.9828646 1 1 1
v -0.8963827 0.146652 0.8862817 1 1 1
v -0.9346434 0.146652 0.9956228 1 1 1
v -0.9476948 0.146652 0.8964883 1 1 1
v 0.8964883 0.063327 -0.9476948 1 1 1
v 0.8463255 0.063327 -0.79992 1 1 1
v 0.8172596 0.063327 -0.7564198 1 1 1
v 0.7827644 0.063327 -0.7170856 1 1 1
v -0.7170856 0.063327 0.7827644 1 1 1
v -0.7564198 0.063327 0.8172596 1 1 1
v -0.79992 0.063327 0.8463255 1 1 1
v -0.9476948 0.063327 0.8964883 1 1 1
v -0.8963827 0.063327 0.8862817 1 1 1
v 0.8862817 0.063327 -0.8963827 1 1 1
v 0.8694649 0.063327 -0.8468419 1 1 1
v -0.8468419 0.063327 0.8694649 1 1 1
v 0.8964882 0.063327 -0.9476947 1 1 1
v 0.8694648 0.063327 -0.8468419 1 1 1
v 0.8463255 0.063327 -0.79992 1 1 1
v 0.8172596 0.063327 -0.7564198 1 1 1
v 0.7827644 0.063327 -0.7170856 1 1 1
v -0.7564198 0.063327 0.8172597 1 1 1
v -0.79992 0.063327 0.8463255 1 1 1
v -0.8468419 0.063327 0.8694648 1 1 1
v -0.8963827 0.063327 0.8862817 1 1 1
v -0.9476947 0.063327 0.8964883 1 1 1

vn -1 0 0
vn 0 0 -1
vn 0 -1 0
vn 0 1 0
vn 0.7933533 0 0.6087614
vn 0.7518399 0 0.6593459
vn 0.9238795 0 0.3826834
vn 0.8660254 0 0.5
vn 0.9659258 0 0.258819
vn 0.9914449 0 0.1305262
vn 0.5 0 0.8660254
vn 0.3826834 0 0.9238795
vn -0.9978589 0 -0.06540313
vn -0.9914449 0 -0.1305262
vn -0.8660254 0 -0.5
vn -0.7933533 0 -0.6087614
vn -0.7298641 0 -0.6835923
vn -0.6835923 0 -0.7298641
vn -0.6087614 0 -0.7933533
vn -0.5 0 -0.8660254
vn -0.1305262 0 -0.9914449
vn -0.258819 0 -0.9659258
vn -0.06540313 0 -0.9978589
vn -0.9659258 0 -0.258819
vn -0.9238795 0 -0.3826834
vn 0.258819 0 0.9659258
vn 0.9978589 0 0.06540313
vn -0.3826834 0 -0.9238795
vn 0.06540313 0 0.9978589
vn 0.1305262 0 0.9914449
vn 0.6593459 0 0.7518399
vn 0.6087614 0 0.7933533
vn 0.7071068 0 0.7071068

vt 0.21875 0.025
vt 0.21875 0.1113636
vt 0.21875 0.225
vt 0.03125 0.125

usemtl colormap

f 3/1/1 2/2/1 1/1/1
f 2/2/1 3/1/1 4/2/1
f 4/2/1 3/1/1 5/3/1
f 5/3/1 3/1/1 6/3/1
f 2/2/2 7/2/2 1/1/2
f 7/2/2 8/1/2 1/1/2
f 8/1/2 7/2/2 9/3/2
f 9/3/2 7/2/2 10/3/2
f 11/1/3 1/1/3 8/1/3
f 1/1/3 11/1/3 12/1/3
f 1/1/3 12/1/3 13/1/3
f 1/1/3 13/1/3 14/1/3
f 1/1/3 14/1/3 15/1/3
f 1/1/3 15/1/3 16/1/3
f 1/1/3 16/1/3 17/1/3
f 1/1/3 17/1/3 18/1/3
f 1/1/3 18/1/3 19/1/3
f 1/1/3 19/1/3 20/1/3
f 1/1/3 20/1/3 21/1/3
f 1/1/3 21/1/3 22/1/3
f 1/1/3 22/1/3 3/1/3
f 10/3/4 23/3/4 9/3/4
f 23/3/4 10/3/4 24/3/4
f 24/3/4 10/3/4 25/3/4
f 25/3/4 10/3/4 26/3/4
f 26/3/4 10/3/4 27/3/4
f 27/3/4 10/3/4 28/3/4
f 27/3/4 28/3/4 29/3/4
f 29/3/4 28/3/4 30/3/4
f 29/3/4 30/3/4 31/3/4
f 29/3/4 31/3/4 32/3/4
f 29/3/4 32/3/4 33/3/4
f 29/3/4 33/3/4 34/3/4
f 29/3/4 34/3/4 35/3/4
f 35/3/4 34/3/4 36/3/4
f 35/3/4 36/3/4 37/3/4
f 37/3/4 36/3/4 38/3/4
f 38/3/4 36/3/4 39/3/4
f 38/3/4 39/3/4 40/3/4
f 40/3/4 39/3/4 41/3/4
f 40/3/4 41/3/4 42/3/4
f 40/3/4 42/3/4 43/3/4
f 43/3/4 42/3/4 44/3/4
f 43/3/4 44/3/4 45/3/4
f 45/3/4 44/3/4 46/3/4
f 45/3/4 46/3/4 6/3/4
f 6/3/4 46/3/4 5/3/4
f 29/3/6 15/1/5 27/3/5
f 15/1/5 29/3/6 16/1/6
f 26/3/8 13/1/7 25/3/7
f 13/1/7 26/3/8 14/1/8
f 27/3/5 14/1/8 26/3/8
f 14/1/8 27/3/5 15/1/5
f 25/3/7 12/1/9 24/3/9
f 12/1/9 25/3/7 13/1/7
f 24/3/9 11/1/10 23/3/10
f 11/1/10 24/3/9 12/1/9
f 38/3/11 20/1/12 19/1/11
f 20/1/12 38/3/11 40/3/12
f 47/2/14 10/3/13 7/2/13
f 10/3/13 47/2/14 28/3/14
f 49/2/16 32/3/15 48/2/15
f 32/3/15 49/2/16 33/3/16
f 50/2/17 33/3/16 49/2/16
f 33/3/16 50/2/17 34/3/17
f 52/2/19 36/3/18 51/2/18
f 36/3/18 52/2/19 39/3/19
f 41/3/20 52/2/19 53/2/20
f 52/2/19 41/3/20 39/3/19
f 51/2/18 34/3/17 50/2/17
f 34/3/17 51/2/18 36/3/18
f 46/3/21 55/2/22 54/2/21
f 55/2/22 46/3/21 44/3/22
f 4/2/23 46/3/21 54/2/21
f 46/3/21 4/2/23 5/3/23
f 57/2/25 30/3/24 56/2/24
f 30/3/24 57/2/25 31/3/25
f 40/3/12 21/1/26 20/1/12
f 21/1/26 40/3/12 43/3/26
f 23/3/10 8/1/27 9/3/27
f 8/1/27 23/3/10 11/1/10
f 42/3/28 53/2/20 58/2/28
f 53/2/20 42/3/28 41/3/20
f 48/2/15 31/3/25 57/2/25
f 31/3/25 48/2/15 32/3/15
f 22/1/30 6/3/29 3/1/29
f 6/3/29 22/1/30 45/3/30
f 55/2/22 42/3/28 58/2/28
f 42/3/28 55/2/22 44/3/22
f 43/3/26 22/1/30 21/1/26
f 22/1/30 43/3/26 45/3/30
f 56/2/24 28/3/14 47/2/14
f 28/3/14 56/2/24 30/3/24
f 35/3/31 18/1/32 17/1/31
f 18/1/32 35/3/31 37/3/32
f 37/3/32 19/1/11 18/1/32
f 19/1/11 37/3/32 38/3/11
f 35/3/33 16/1/33 29/3/33
f 16/1/33 35/3/33 17/1/33
f 2/4/4 59/4/4 7/4/4
f 59/4/4 2/4/4 56/4/4
f 56/4/4 2/4/4 60/4/4
f 60/4/4 2/4/4 61/4/4
f 61/4/4 2/4/4 62/4/4
f 62/4/4 2/4/4 63/4/4
f 63/4/4 2/4/4 51/4/4
f 51/4/4 2/4/4 64/4/4
f 64/4/4 2/4/4 65/4/4
f 65/4/4 2/4/4 66/4/4
f 66/4/4 2/4/4 67/4/4
f 67/4/4 2/4/4 68/4/4
f 68/4/4 2/4/4 4/4/4

g skew-large-corner-open




usemtl colormap

f 3/1/1 2/2/1 1/1/1
f 2/2/1 3/1/1 4/2/1
f 4/2/1 3/1/1 5/3/1
f 5/3/1 3/1/1 6/3/1
f 2/2/2 7/2/2 1/1/2
f 7/2/2 8/1/2 1/1/2
f 8/1/2 7/2/2 9/3/2
f 9/3/2 7/2/2 10/3/2
f 11/1/3 1/1/3 8/1/3
f 1/1/3 11/1/3 12/1/3
f 1/1/3 12/1/3 13/1/3
f 1/1/3 13/1/3 14/1/3
f 1/1/3 14/1/3 15/1/3
f 1/1/3 15/1/3 16/1/3
f 1/1/3 16/1/3 17/1/3
f 1/1/3 17/1/3 18/1/3
f 1/1/3 18/1/3 19/1/3
f 1/1/3 19/1/3 20/1/3
f 1/1/3 20/1/3 21/1/3
f 1/1/3 21/1/3 22/1/3
f 1/1/3 22/1/3 3/1/3
f 10/3/4 23/3/4 9/3/4
f 23/3/4 10/3/4 24/3/4
f 24/3/4 10/3/4 25/3/4
f 25/3/4 10/3/4 26/3/4
f 26/3/4 10/3/4 27/3/4
f 27/3/4 10/3/4 28/3/4
f 27/3/4 28/3/4 29/3/4
f 29/3/4 28/3/4 30/3/4
f 29/3/4 30/3/4 31/3/4
f 29/3/4 31/3/4 32/3/4
f 29/3/4 32/3/4 33/3/4
f 29/3/4 33/3/4 34/3/4
f 29/3/4 34/3/4 35/3/4
f 35/3/4 34/3/4 36/3/4
f 35/3/4 36/3/4 37/3/4
f 37/3/4 36/3/4 38/3/4
f 38/3/4 36/3/4 39/3/4
f 38/3/4 39/3/4 40/3/4
f 40/3/4 39/3/4 41/3/4
f 40/3/4 41/3/4 42/3/4
f 40/3/4 42/3/4 43/3/4
f 43/3/4 42/3/4 44/3/4
f 43/3/4 44/3/4 45/3/4
f 45/3/4 44/3/4 46/3/4
f 45/3/4 46/3/4 6/3/4
f 6/3/4 46/3/4 5/3/4
f 29/3/6 15/1/5 27/3/5
f 15/1/5 29/3/6 16/1/6
f 26/3/8 13/1/7 25/3/7
f 13/1/7 26/3/8 14/1/8
f 27/3/5 14/1/8 26/3/8
f 14/1/8 27/3/5 15/1/5
f 25/3/7 12/1/9 24/3/9
f 12/1/9 25/3/7 13/1/7
f 24/3/9 11/1/10 23/3/10
f 11/1/10 24/3/9 12/1/9
f 38/3/11 20/1/12 19/1/11
f 20/1/12 38/3/11 40/3/12
f 47/2/14 10/3/13 7/2/13
f 10/3/13 47/2/14 28/3/14
f 49/2/16 32/3/15 48/2/15
f 32/3/15 49/2/16 33/3/16
f 50/2/17 33/3/16 49/2/16
f 33/3/16 50/2/17 34/3/17
f 52/2/19 36/3/18 51/2/18
f 36/3/18 52/2/19 39/3/19
f 41/3/20 52/2/19 53/2/20
f 52/2/19 41/3/20 39/3/19
f 51/2/18 34/3/17 50/2/17
f 34/3/17 51/2/18 36/3/18
f 46/3/21 55/2/22 54/2/21
f 55/2/22 46/3/21 44/3/22
f 4/2/23 46/3/21 54/2/21
f 46/3/21 4/2/23 5/3/23
f 57/2/25 30/3/24 56/2/24
f 30/3/24 57/2/25 31/3/25
f 40/3/12 21/1/26 20/1/12
f 21/1/26 40/3/12 43/3/26
f 23/3/10 8/1/27 9/3/27
f 8/1/27 23/3/10 11/1/10
f 42/3/28 53/2/20 58/2/28
f 53/2/20 42/3/28 41/3/20
f 48/2/15 31/3/25 57/2/25
f 31/3/25 48/2/15 32/3/15
f 22/1/30 6/3/29 3/1/29
f 6/3/29 22/1/30 45/3/30
f 55/2/22 42/3/28 58/2/28
f 42/3/28 55/2/22 44/3/22
f 43/3/26 22/1/30 21/1/26
f 22/1/30 43/3/26 45/3/30
f 56/2/24 28/3/14 47/2/14
f 28/3/14 56/2/24 30/3/24
f 35/3/31 18/1/32 17/1/31
f 18/1/32 35/3/31 37/3/32
f 37/3/32 19/1/11 18/1/32
f 19/1/11 37/3/32 38/3/11
f 35/3/33 16/1/33 29/3/33
f 16/1/33 35/3/33 17/1/33
f 2/4/4 59/4/4 7/4/4
f 59/4/4 2/4/4 56/4/4
f 56/4/4 2/4/4 60/4/4
f 60/4/4 2/4/4 61/4/4
f 61/4/4 2/4/4 62/4/4
f 62/4/4 2/4/4 63/4/4
f 63/4/4 2/4/4 51/4/4
f 51/4/4 2/4/4 64/4/4
f 64/4/4 2/4/4 65/4/4
f 65/4/4 2/4/4 66/4/4
f 66/4/4 2/4/4 67/4/4
f 67/4/4 2/4/4 68/4/4
f 68/4/4 2/4/4 4/4/4

