# Created by Kenney (www.kenney.nl)

mtllib skew-corner.mtl

g skew-corner

v -0.4086449 0.063327 0.3689661 1 1 1
v -0.3938946 0.063327 0.3560304 1 1 1
v -0.4086449 0.146652 0.3689661 1 1 1
v -0.3938946 0.146652 0.3560304 1 1 1
v -0.4249575 0.063327 0.3798658 1 1 1
v -0.4249575 0.146652 0.3798658 1 1 1
v -0.4249575 0.063327 -0.4249575 1 1 1
v -0.49995 0.063327 -0.39996 1 1 1
v -0.4249575 0.146652 -0.4249575 1 1 1
v -0.49995 0.146652 -0.39996 1 1 1
v 0.4482935 0.146652 -0.3477749 1 1 1
v 0.4482935 5.158099E-19 -0.3477749 1 1 1
v 0.426734 0.146652 -0.323191 1 1 1
v 0.426734 1.561281E-18 -0.323191 1 1 1
v 0.4978114 0.146652 -0.4673217 1 1 1
v 0.4978114 1.672732E-18 -0.4673217 1 1 1
v 0.4914323 0.146652 -0.4352517 1 1 1
v 0.4914323 5.834526E-19 -0.4352517 1 1 1
v 0.4809218 0.146652 -0.4042887 1 1 1
v 0.4809218 2.26769E-20 -0.4042887 1 1 1
v 0.4664597 0.146652 -0.3749625 1 1 1
v 0.4664597 0 -0.3749625 1 1 1
v 0.3798658 0.063327 -0.4249575 1 1 1
v 0.3798658 0.146652 -0.4249575 1 1 1
v 0.3689661 0.063327 -0.4086449 1 1 1
v 0.3689661 0.146652 -0.4086449 1 1 1
v -0.39996 0.146652 -0.49995 1 1 1
v -0.49995 0.146652 -0.49995 1 1 1
v -0.39996 0.063327 -0.49995 1 1 1
v -0.49995 1.160705E-16 -0.49995 1 1 1
v 0.39996 0.063327 -0.49995 1 1 1
v 0.49995 3.271877E-18 -0.49995 1 1 1
v 0.49995 0.146652 -0.49995 1 1 1
v 0.39996 0.146652 -0.49995 1 1 1
v 0.3986768 0.063327 -0.4803731 1 1 1
v 0.3986768 0.146652 -0.4803731 1 1 1
v 0.3948494 0.063327 -0.461131 1 1 1
v 0.3948494 0.146652 -0.461131 1 1 1
v 0.3885431 0.146652 -0.4425532 1 1 1
v -0.323191 0.146652 0.426734 1 1 1
v 0.3560304 0.146652 -0.3938946 1 1 1
v -0.3477749 0.146652 0.4482935 1 1 1
v -0.3749625 0.146652 0.4664597 1 1 1
v -0.4042887 0.146652 0.4809218 1 1 1
v -0.4352517 0.146652 0.4914323 1 1 1
v -0.4425532 0.146652 0.3885431 1 1 1
v -0.4673217 0.146652 0.4978114 1 1 1
v -0.461131 0.146652 0.3948494 1 1 1
v -0.4803731 0.146652 0.3986768 1 1 1
v -0.49995 0.146652 0.49995 1 1 1
v -0.49995 0.146652 0.39996 1 1 1
v 0.3885431 0.063327 -0.4425532 1 1 1
v -0.49995 1.160705E-16 0.49995 1 1 1
v -0.49995 0.063327 0.39996 1 1 1
v 0.3560304 0.063327 -0.3938946 1 1 1
v -0.4425532 0.063327 0.3885431 1 1 1
v -0.3477749 1.120873E-16 0.4482935 1 1 1
v -0.3749625 1.121268E-16 0.4664597 1 1 1
v -0.461131 0.063327 0.3948494 1 1 1
v -0.4673217 1.145443E-16 0.4978114 1 1 1
v -0.4042887 1.125555E-16 0.4809218 1 1 1
v -0.323191 1.124376E-16 0.426734 1 1 1
v -0.4803731 0.063327 0.3986768 1 1 1
v -0.4352517 1.133659E-16 0.4914323 1 1 1
v 0.3986769 0.063327 -0.480373 1 1 1
v 0.3798658 0.063327 -0.4249575 1 1 1
v 0.3560304 0.063327 -0.3938946 1 1 1
v -0.4086449 0.063327 0.3689662 1 1 1
v -0.4249575 0.063327 -0.4249575 1 1 1
v -0.4249575 0.063327 0.3798658 1 1 1
v -0.4425532 0.063327 0.3885431 1 1 1
v -0.49995 0.063327 -0.39996 1 1 1
v -0.461131 0.063327 0.3948494 1 1 1
v -0.480373 0.063327 0.3986768 1 1 1
v -0.49995 0.063327 0.39996 1 1 1

vn -0.6087614 0 -0.7933533
vn -0.6835923 0 -0.7298641
vn -0.5 0 -0.8660254
vn 0.7071068 0 0.7071068
vn 0.3162278 0 0.9486833
vn 0.7933533 0 0.6087614
vn 0.7298641 0 0.6835923
vn 0.9914449 0 0.1305262
vn 0.9659258 0 0.258819
vn 0.9238795 0 0.3826834
vn 0.8660254 0 0.5
vn -0.8660254 0 -0.5
vn -0.7933533 0 -0.6087614
vn 0 1 0
vn 0 0 -1
vn 0.9978589 0 0.06540313
vn -0.9978589 0 -0.06540313
vn -0.9914449 0 -0.1305262
vn -0.9659258 0 -0.258819
vn -0.9238795 0 -0.3826834
vn -1 0 0
vn 0.9486833 0 0.3162278
vn -0.7298641 0 -0.6835923
vn -0.3826834 0 -0.9238795
vn 0.6087614 0 0.7933533
vn 0.5 0 0.8660254
vn -0.258819 0 -0.9659258
vn 0.1305262 0 0.9914449
vn 0.06540313 0 0.9978589
vn 0.3826834 0 0.9238795
vn 0.6835923 0 0.7298641
vn -0.1305262 0 -0.9914449
vn -0.06540313 0 -0.9978589
vn 0.258819 0 0.9659258
vn 0 -1 0

vt 0.21875 0.1113636
vt 0.21875 0.225
vt 0.21875 0.025
vt 0.03125 0.125

usemtl colormap

f 3/2/1 2/1/2 1/1/1
f 2/1/2 3/2/1 4/2/2
f 6/2/3 1/1/1 5/1/3
f 1/1/1 6/2/3 3/2/1
f 9/2/4 8/1/5 7/1/4
f 8/1/5 9/2/4 10/2/5
f 13/2/7 12/3/6 11/2/6
f 12/3/6 13/2/7 14/3/7
f 17/2/9 16/3/8 15/2/8
f 16/3/8 17/2/9 18/3/9
f 21/2/11 20/3/10 19/2/10
f 20/3/10 21/2/11 22/3/11
f 25/1/13 24/2/12 23/1/12
f 24/2/12 25/1/13 26/2/13
f 28/2/14 9/2/14 27/2/14
f 9/2/14 28/2/14 10/2/14
f 29/1/15 28/2/15 27/2/15
f 28/2/15 29/1/15 30/3/15
f 31/1/15 30/3/15 29/1/15
f 31/1/15 32/3/15 30/3/15
f 32/3/15 31/1/15 33/2/15
f 33/2/15 31/1/15 34/2/15
f 15/2/8 32/3/16 33/2/16
f 32/3/16 15/2/8 16/3/8
f 35/1/18 34/2/17 31/1/17
f 34/2/17 35/1/18 36/2/18
f 37/1/19 36/2/18 35/1/18
f 36/2/18 37/1/19 38/2/19
f 34/2/14 15/2/14 33/2/14
f 15/2/14 34/2/14 17/2/14
f 17/2/14 34/2/14 19/2/14
f 19/2/14 34/2/14 21/2/14
f 21/2/14 34/2/14 11/2/14
f 11/2/14 34/2/14 13/2/14
f 13/2/14 34/2/14 36/2/14
f 13/2/14 36/2/14 38/2/14
f 13/2/14 38/2/14 39/2/14
f 13/2/14 39/2/14 24/2/14
f 13/2/14 24/2/14 26/2/14
f 13/2/14 26/2/14 40/2/14
f 40/2/14 26/2/14 41/2/14
f 40/2/14 41/2/14 4/2/14
f 40/2/14 4/2/14 42/2/14
f 42/2/14 4/2/14 43/2/14
f 43/2/14 4/2/14 44/2/14
f 44/2/14 4/2/14 3/2/14
f 44/2/14 3/2/14 45/2/14
f 45/2/14 3/2/14 6/2/14
f 45/2/14 6/2/14 46/2/14
f 45/2/14 46/2/14 47/2/14
f 47/2/14 46/2/14 48/2/14
f 47/2/14 48/2/14 49/2/14
f 47/2/14 49/2/14 50/2/14
f 50/2/14 49/2/14 51/2/14
f 23/1/12 39/2/20 52/1/20
f 39/2/20 23/1/12 24/2/12
f 51/2/21 53/3/21 50/2/21
f 54/1/21 53/3/21 51/2/21
f 8/1/21 53/3/21 54/1/21
f 8/1/21 30/3/21 53/3/21
f 30/3/21 8/1/21 28/2/21
f 10/2/21 28/2/21 8/1/21
f 9/2/4 29/1/22 27/2/22
f 29/1/22 9/2/4 7/1/4
f 52/1/20 38/2/19 37/1/19
f 38/2/19 52/1/20 39/2/20
f 19/2/10 18/3/9 17/2/9
f 18/3/9 19/2/10 20/3/10
f 55/1/23 26/2/13 25/1/13
f 26/2/13 55/1/23 41/2/23
f 11/2/6 22/3/11 21/2/11
f 22/3/11 11/2/6 12/3/6
f 2/1/2 41/2/23 55/1/23
f 41/2/23 2/1/2 4/2/2
f 46/2/24 5/1/3 56/1/24
f 5/1/3 46/2/24 6/2/3
f 42/2/25 58/3/26 57/3/25
f 58/3/26 42/2/25 43/2/26
f 48/2/27 56/1/24 59/1/27
f 56/1/24 48/2/27 46/2/24
f 47/2/28 53/3/29 60/3/28
f 53/3/29 47/2/28 50/2/29
f 43/2/26 61/3/30 58/3/26
f 61/3/30 43/2/26 44/2/30
f 62/3/31 42/2/25 57/3/25
f 42/2/25 62/3/31 40/2/31
f 49/2/32 59/1/27 63/1/32
f 59/1/27 49/2/32 48/2/27
f 51/2/33 63/1/32 54/1/33
f 63/1/32 51/2/33 49/2/32
f 40/2/31 14/3/7 13/2/7
f 14/3/7 40/2/31 62/3/31
f 45/2/34 60/3/28 64/3/34
f 60/3/28 45/2/34 47/2/28
f 44/2/30 64/3/34 61/3/30
f 64/3/34 44/2/30 45/2/34
f 16/3/35 30/3/35 32/3/35
f 30/3/35 16/3/35 18/3/35
f 30/3/35 18/3/35 20/3/35
f 30/3/35 20/3/35 22/3/35
f 30/3/35 22/3/35 12/3/35
f 30/3/35 12/3/35 14/3/35
f 30/3/35 14/3/35 62/3/35
f 30/3/35 62/3/35 57/3/35
f 30/3/35 57/3/35 58/3/35
f 30/3/35 58/3/35 61/3/35
f 30/3/35 61/3/35 64/3/35
f 30/3/35 64/3/35 60/3/35
f 30/3/35 60/3/35 53/3/35
f 29/4/14 65/4/14 31/4/14
f 65/4/14 29/4/14 37/4/14
f 37/4/14 29/4/14 52/4/14
f 52/4/14 29/4/14 66/4/14
f 66/4/14 29/4/14 25/4/14
f 25/4/14 29/4/14 67/4/14
f 67/4/14 29/4/14 2/4/14
f 2/4/14 29/4/14 68/4/14
f 68/4/14 29/4/14 69/4/14
f 68/4/14 69/4/14 70/4/14
f 70/4/14 69/4/14 71/4/14
f 71/4/14 69/4/14 72/4/14
f 71/4/14 72/4/14 73/4/14
f 73/4/14 72/4/14 74/4/14
f 74/4/14 72/4/14 75/4/14

g skew-corner




usemtl colormap

f 3/2/1 2/1/2 1/1/1
f 2/1/2 3/2/1 4/2/2
f 6/2/3 1/1/1 5/1/3
f 1/1/1 6/2/3 3/2/1
f 9/2/4 8/1/5 7/1/4
f 8/1/5 9/2/4 10/2/5
f 13/2/7 12/3/6 11/2/6
f 12/3/6 13/2/7 14/3/7
f 17/2/9 16/3/8 15/2/8
f 16/3/8 17/2/9 18/3/9
f 21/2/11 20/3/10 19/2/10
f 20/3/10 21/2/11 22/3/11
f 25/1/13 24/2/12 23/1/12
f 24/2/12 25/1/13 26/2/13
f 28/2/14 9/2/14 27/2/14
f 9/2/14 28/2/14 10/2/14
f 29/1/15 28/2/15 27/2/15
f 28/2/15 29/1/15 30/3/15
f 31/1/15 30/3/15 29/1/15
f 31/1/15 32/3/15 30/3/15
f 32/3/15 31/1/15 33/2/15
f 33/2/15 31/1/15 34/2/15
f 15/2/8 32/3/16 33/2/16
f 32/3/16 15/2/8 16/3/8
f 35/1/18 34/2/17 31/1/17
f 34/2/17 35/1/18 36/2/18
f 37/1/19 36/2/18 35/1/18
f 36/2/18 37/1/19 38/2/19
f 34/2/14 15/2/14 33/2/14
f 15/2/14 34/2/14 17/2/14
f 17/2/14 34/2/14 19/2/14
f 19/2/14 34/2/14 21/2/14
f 21/2/14 34/2/14 11/2/14
f 11/2/14 34/2/14 13/2/14
f 13/2/14 34/2/14 36/2/14
f 13/2/14 36/2/14 38/2/14
f 13/2/14 38/2/14 39/2/14
f 13/2/14 39/2/14 24/2/14
f 13/2/14 24/2/14 26/2/14
f 13/2/14 26/2/14 40/2/14
f 40/2/14 26/2/14 41/2/14
f 40/2/14 41/2/14 4/2/14
f 40/2/14 4/2/14 42/2/14
f 42/2/14 4/2/14 43/2/14
f 43/2/14 4/2/14 44/2/14
f 44/2/14 4/2/14 3/2/14
f 44/2/14 3/2/14 45/2/14
f 45/2/14 3/2/14 6/2/14
f 45/2/14 6/2/14 46/2/14
f 45/2/14 46/2/14 47/2/14
f 47/2/14 46/2/14 48/2/14
f 47/2/14 48/2/14 49/2/14
f 47/2/14 49/2/14 50/2/14
f 50/2/14 49/2/14 51/2/14
f 23/1/12 39/2/20 52/1/20
f 39/2/20 23/1/12 24/2/12
f 51/2/21 53/3/21 50/2/21
f 54/1/21 53/3/21 51/2/21
f 8/1/21 53/3/21 54/1/21
f 8/1/21 30/3/21 53/3/21
f 30/3/21 8/1/21 28/2/21
f 10/2/21 28/2/21 8/1/21
f 9/2/4 29/1/22 27/2/22
f 29/1/22 9/2/4 7/1/4
f 52/1/20 38/2/19 37/1/19
f 38/2/19 52/1/20 39/2/20
f 19/2/10 18/3/9 17/2/9
f 18/3/9 19/2/10 20/3/10
f 55/1/23 26/2/13 25/1/13
f 26/2/13 55/1/23 41/2/23
f 11/2/6 22/3/11 21/2/11
f 22/3/11 11/2/6 12/3/6
f 2/1/2 41/2/23 55/1/23
f 41/2/23 2/1/2 4/2/2
f 46/2/24 5/1/3 56/1/24
f 5/1/3 46/2/24 6/2/3
f 42/2/25 58/3/26 57/3/25
f 58/3/26 42/2/25 43/2/26
f 48/2/27 56/1/24 59/1/27
f 56/1/24 48/2/27 46/2/24
f 47/2/28 53/3/29 60/3/28
f 53/3/29 47/2/28 50/2/29
f 43/2/26 61/3/30 58/3/26
f 61/3/30 43/2/26 44/2/30
f 62/3/31 42/2/25 57/3/25
f 42/2/25 62/3/31 40/2/31
f 49/2/32 59/1/27 63/1/32
f 59/1/27 49/2/32 48/2/27
f 51/2/33 63/1/32 54/1/33
f 63/1/32 51/2/33 49/2/32
f 40/2/31 14/3/7 13/2/7
f 14/3/7 40/2/31 62/3/31
f 45/2/34 60/3/28 64/3/34
f 60/3/28 45/2/34 47/2/28
f 44/2/30 64/3/34 61/3/30
f 64/3/34 44/2/30 45/2/34
f 16/3/35 30/3/35 32/3/35
f 30/3/35 16/3/35 18/3/35
f 30/3/35 18/3/35 20/3/35
f 30/3/35 20/3/35 22/3/35
f 30/3/35 22/3/35 12/3/35
f 30/3/35 12/3/35 14/3/35
f 30/3/35 14/3/35 62/3/35
f 30/3/35 62/3/35 57/3/35
f 30/3/35 57/3/35 58/3/35
f 30/3/35 58/3/35 61/3/35
f 30/3/35 61/3/35 64/3/35
f 30/3/35 64/3/35 60/3/35
f 30/3/35 60/3/35 53/3/35
f 29/4/14 65/4/14 31/4/14
f 65/4/14 29/4/14 37/4/14
f 37/4/14 29/4/14 52/4/14
f 52/4/14 29/4/14 66/4/14
f 66/4/14 29/4/14 25/4/14
f 25/4/14 29/4/14 67/4/14
f 67/4/14 29/4/14 2/4/14
f 2/4/14 29/4/14 68/4/14
f 68/4/14 29/4/14 69/4/14
f 68/4/14 69/4/14 70/4/14
f 70/4/14 69/4/14 71/4/14
f 71/4/14 69/4/14 72/4/14
f 71/4/14 72/4/14 73/4/14
f 73/4/14 72/4/14 74/4/14
f 74/4/14 72/4/14 75/4/14

