# Created by Kenney (www.kenney.nl)

mtllib skew-large-corner.mtl

g skew-large-corner

v -0.9999 0.146652 0.9999 1 1 1
v -0.9999 1.127987E-16 0.9999 1 1 1
v -0.9999 0.146652 0.89991 1 1 1
v -0.9999 0.063327 0.89991 1 1 1
v -0.9999 0.063327 0.09999 1 1 1
v -0.9999 1.621481E-16 6.006303E-13 1 1 1
v -0.9999 0.146652 6.006303E-13 1 1 1
v -0.9999 0.146652 0.09999 1 1 1
v 0.09999 0.146652 -0.9999 1 1 1
v 3.580681E-13 0.146652 -0.9999 1 1 1
v 0.09999 0.063327 -0.9999 1 1 1
v 3.580681E-13 6.69742E-17 -0.9999 1 1 1
v 0.89991 0.063327 -0.9999 1 1 1
v 0.9999 0 -0.9999 1 1 1
v 0.9999 0.146652 -0.9999 1 1 1
v 0.89991 0.146652 -0.9999 1 1 1
v 0.9956228 2.517492E-18 -0.9346434 1 1 1
v 0.9828646 5.474413E-18 -0.8705034 1 1 1
v 0.9618436 8.82017E-18 -0.8085774 1 1 1
v 0.9329194 1.249751E-17 -0.749925 1 1 1
v 0.896587 1.644353E-17 -0.6955497 1 1 1
v 0.8534681 2.059069E-17 -0.646382 1 1 1
v -0.001283142 6.679726E-17 -0.980323 1 1 1
v -0.005110615 6.702056E-17 -0.961081 1 1 1
v -0.01141693 6.764028E-17 -0.9425032 1 1 1
v -0.646382 1.415222E-16 0.8534681 1 1 1
v -0.02009418 6.864582E-17 -0.9249075 1 1 1
v -0.0309939 7.001998E-17 -0.9085949 1 1 1
v -0.04392959 7.173923E-17 -0.8938445 1 1 1
v -0.8938445 1.528684E-16 -0.04392959 1 1 1
v -0.6955497 1.457812E-16 0.896587 1 1 1
v -0.749925 1.497975E-16 0.9329194 1 1 1
v -0.8085774 1.535025E-16 0.9618436 1 1 1
v -0.8705034 1.568326E-16 0.9828646 1 1 1
v -0.9346434 1.59731E-16 0.9956228 1 1 1
v -0.9085949 1.541154E-16 -0.0309939 1 1 1
v -0.9249075 1.555163E-16 -0.02009418 1 1 1
v -0.9425032 1.57047E-16 -0.01141693 1 1 1
v -0.961081 1.586814E-16 -0.005110615 1 1 1
v -0.980323 1.603915E-16 -0.001283142 1 1 1
v 0.9956228 0.146652 -0.9346434 1 1 1
v 0.9828646 0.146652 -0.8705034 1 1 1
v 0.9618436 0.146652 -0.8085774 1 1 1
v 0.9329194 0.146652 -0.749925 1 1 1
v 0.896587 0.146652 -0.6955497 1 1 1
v 0.8964883 0.146652 -0.9476948 1 1 1
v 0.8534681 0.146652 -0.646382 1 1 1
v 0.8862817 0.146652 -0.8963827 1 1 1
v 0.8694649 0.146652 -0.8468419 1 1 1
v 0.8463255 0.146652 -0.79992 1 1 1
v 0.8172596 0.146652 -0.7564198 1 1 1
v 0.7827644 0.146652 -0.7170856 1 1 1
v -0.646382 0.146652 0.8534681 1 1 1
v -0.7170856 0.146652 0.7827644 1 1 1
v -0.6955497 0.146652 0.896587 1 1 1
v -0.749925 0.146652 0.9329194 1 1 1
v -0.7564198 0.146652 0.8172596 1 1 1
v -0.8085774 0.146652 0.9618436 1 1 1
v -0.79992 0.146652 0.8463255 1 1 1
v -0.8468419 0.146652 0.8694649 1 1 1
v -0.8705034 0.146652 0.9828646 1 1 1
v -0.8963827 0.146652 0.8862817 1 1 1
v -0.9346434 0.146652 0.9956228 1 1 1
v -0.9476948 0.146652 0.8964883 1 1 1
v 0.8964883 0.063327 -0.9476948 1 1 1
v 0.8463255 0.063327 -0.79992 1 1 1
v 0.8172596 0.063327 -0.7564198 1 1 1
v 0.7827644 0.063327 -0.7170856 1 1 1
v -0.7170856 0.063327 0.7827644 1 1 1
v -0.7564198 0.063327 0.8172596 1 1 1
v -0.79992 0.063327 0.8463255 1 1 1
v -0.9476948 0.063327 0.8964883 1 1 1
v -0.8963827 0.063327 0.8862817 1 1 1
v 0.8862817 0.063327 -0.8963827 1 1 1
v 0.8694649 0.063327 -0.8468419 1 1 1
v -0.8468419 0.063327 0.8694649 1 1 1
v 0.09785143 0.146652 -0.9672717 1 1 1
v 0.09147231 0.146652 -0.9352017 1 1 1
v 0.08096179 0.146652 -0.9042387 1 1 1
v 0.0664997 0.146652 -0.8749125 1 1 1
v 0.0483335 0.146652 -0.8477249 1 1 1
v 0.02677402 0.146652 -0.8231409 1 1 1
v -0.001283142 0.146652 -0.980323 1 1 1
v -0.005110615 0.146652 -0.961081 1 1 1
v -0.01141693 0.146652 -0.9425032 1 1 1
v -0.02009418 0.146652 -0.9249075 1 1 1
v -0.0309939 0.146652 -0.9085949 1 1 1
v -0.8231409 0.146652 0.02677402 1 1 1
v -0.04392959 0.146652 -0.8938445 1 1 1
v -0.8938445 0.146652 -0.04392959 1 1 1
v -0.8477249 0.146652 0.0483335 1 1 1
v -0.8749125 0.146652 0.0664997 1 1 1
v -0.9042387 0.146652 0.08096179 1 1 1
v -0.9085949 0.146652 -0.0309939 1 1 1
v -0.9352017 0.146652 0.09147231 1 1 1
v -0.9249075 0.146652 -0.02009418 1 1 1
v -0.9425032 0.146652 -0.01141693 1 1 1
v -0.9672717 0.146652 0.09785143 1 1 1
v -0.961081 0.146652 -0.005110615 1 1 1
v -0.980323 0.146652 -0.001283142 1 1 1
v -0.9672717 0.063327 0.09785143 1 1 1
v -0.9352017 0.063327 0.09147231 1 1 1
v -0.9042387 0.063327 0.08096179 1 1 1
v -0.8231409 0.063327 0.02677402 1 1 1
v -0.8477249 0.063327 0.0483335 1 1 1
v 0.0664997 0.063327 -0.8749125 1 1 1
v 0.0483335 0.063327 -0.8477249 1 1 1
v 0.09785143 0.063327 -0.9672717 1 1 1
v -0.8749125 0.063327 0.0664997 1 1 1
v 0.09147231 0.063327 -0.9352017 1 1 1
v 0.08096179 0.063327 -0.9042387 1 1 1
v 0.02677402 0.063327 -0.8231409 1 1 1
v 0.8964882 0.063327 -0.9476947 1 1 1
v 0.09998995 0.063327 -0.9999 1 1 1
v 0.8694648 0.063327 -0.8468419 1 1 1
v 0.8463255 0.063327 -0.79992 1 1 1
v 0.8172596 0.063327 -0.7564198 1 1 1
v 0.7827644 0.063327 -0.7170856 1 1 1
v 0.09785146 0.063327 -0.9672717 1 1 1
v 0.09147233 0.063327 -0.9352017 1 1 1
v 0.08096182 0.063327 -0.9042387 1 1 1
v 0.06649971 0.063327 -0.8749125 1 1 1
v 0.04833347 0.063327 -0.8477249 1 1 1
v 0.02677405 0.063327 -0.823141 1 1 1
v -0.823141 0.063327 0.02677405 1 1 1
v -0.7564198 0.063327 0.8172597 1 1 1
v -0.79992 0.063327 0.8463255 1 1 1
v -0.8468419 0.063327 0.8694648 1 1 1
v -0.8477248 0.063327 0.04833353 1 1 1
v -0.8963827 0.063327 0.8862817 1 1 1
v -0.8749125 0.063327 0.06649971 1 1 1
v -0.9042388 0.063327 0.0809617 1 1 1
v -0.9476947 0.063327 0.8964883 1 1 1
v -0.9352016 0.063327 0.09147239 1 1 1
v -0.9672718 0.063327 0.0978514 1 1 1
v -0.9999 0.063327 0.09999001 1 1 1

vn -1 0 0
vn 0 0 -1
vn 0 -1 0
vn 0 1 0
vn 0.7933533 0 0.6087614
vn 0.7298641 0 0.6835923
vn 0.9238795 0 0.3826834
vn 0.8660254 0 0.5
vn 0.9659258 0 0.258819
vn 0.9914449 0 0.1305262
vn 0.5 0 0.8660254
vn 0.3826834 0 0.9238795
vn -0.9978589 0 -0.06540313
vn -0.9914449 0 -0.1305262
vn -0.8660254 0 -0.5
vn -0.7933533 0 -0.6087614
vn -0.7298641 0 -0.6835923
vn -0.6835923 0 -0.7298641
vn -0.6087614 0 -0.7933533
vn -0.5 0 -0.8660254
vn -0.1305262 0 -0.9914449
vn -0.258819 0 -0.9659258
vn -0.06540313 0 -0.9978589
vn -0.9659258 0 -0.258819
vn -0.9238795 0 -0.3826834
vn 0.258819 0 0.9659258
vn 0.9978589 0 0.06540313
vn -0.3826834 0 -0.9238795
vn 0.06540313 0 0.9978589
vn 0.1305262 0 0.9914449
vn 0.6835923 0 0.7298641
vn 0.6087614 0 0.7933533

vt 0.21875 0.225
vt 0.21875 0.025
vt 0.21875 0.1113636
vt 0.03125 0.125

usemtl colormap

f 3/1/1 2/2/1 1/1/1
f 4/3/1 2/2/1 3/1/1
f 5/3/1 2/2/1 4/3/1
f 5/3/1 6/2/1 2/2/1
f 6/2/1 5/3/1 7/1/1
f 8/1/1 7/1/1 5/3/1
f 11/3/2 10/1/2 9/1/2
f 10/1/2 11/3/2 12/2/2
f 13/3/2 12/2/2 11/3/2
f 13/3/2 14/2/2 12/2/2
f 14/2/2 13/3/2 15/1/2
f 15/1/2 13/3/2 16/1/2
f 17/2/3 12/2/3 14/2/3
f 12/2/3 17/2/3 18/2/3
f 12/2/3 18/2/3 19/2/3
f 12/2/3 19/2/3 20/2/3
f 12/2/3 20/2/3 21/2/3
f 12/2/3 21/2/3 22/2/3
f 12/2/3 22/2/3 23/2/3
f 23/2/3 22/2/3 24/2/3
f 24/2/3 22/2/3 25/2/3
f 25/2/3 22/2/3 26/2/3
f 25/2/3 26/2/3 27/2/3
f 27/2/3 26/2/3 28/2/3
f 28/2/3 26/2/3 29/2/3
f 29/2/3 26/2/3 30/2/3
f 30/2/3 26/2/3 31/2/3
f 30/2/3 31/2/3 32/2/3
f 30/2/3 32/2/3 33/2/3
f 30/2/3 33/2/3 34/2/3
f 30/2/3 34/2/3 35/2/3
f 30/2/3 35/2/3 36/2/3
f 36/2/3 35/2/3 37/2/3
f 37/2/3 35/2/3 38/2/3
f 38/2/3 35/2/3 2/2/3
f 38/2/3 2/2/3 39/2/3
f 39/2/3 2/2/3 40/2/3
f 40/2/3 2/2/3 6/2/3
f 16/1/4 41/1/4 15/1/4
f 41/1/4 16/1/4 42/1/4
f 42/1/4 16/1/4 43/1/4
f 43/1/4 16/1/4 44/1/4
f 44/1/4 16/1/4 45/1/4
f 45/1/4 16/1/4 46/1/4
f 45/1/4 46/1/4 47/1/4
f 47/1/4 46/1/4 48/1/4
f 47/1/4 48/1/4 49/1/4
f 47/1/4 49/1/4 50/1/4
f 47/1/4 50/1/4 51/1/4
f 47/1/4 51/1/4 52/1/4
f 47/1/4 52/1/4 53/1/4
f 53/1/4 52/1/4 54/1/4
f 53/1/4 54/1/4 55/1/4
f 55/1/4 54/1/4 56/1/4
f 56/1/4 54/1/4 57/1/4
f 56/1/4 57/1/4 58/1/4
f 58/1/4 57/1/4 59/1/4
f 58/1/4 59/1/4 60/1/4
f 58/1/4 60/1/4 61/1/4
f 61/1/4 60/1/4 62/1/4
f 61/1/4 62/1/4 63/1/4
f 63/1/4 62/1/4 64/1/4
f 63/1/4 64/1/4 1/1/4
f 1/1/4 64/1/4 3/1/4
f 47/1/6 21/2/5 45/1/5
f 21/2/5 47/1/6 22/2/6
f 44/1/8 19/2/7 43/1/7
f 19/2/7 44/1/8 20/2/8
f 45/1/5 20/2/8 44/1/8
f 20/2/8 45/1/5 21/2/5
f 43/1/7 18/2/9 42/1/9
f 18/2/9 43/1/7 19/2/7
f 42/1/9 17/2/10 41/1/10
f 17/2/10 42/1/9 18/2/9
f 56/1/11 33/2/12 32/2/11
f 33/2/12 56/1/11 58/1/12
f 65/3/14 16/1/13 13/3/13
f 16/1/13 65/3/14 46/1/14
f 67/3/16 50/1/15 66/3/15
f 50/1/15 67/3/16 51/1/16
f 68/3/17 51/1/16 67/3/16
f 51/1/16 68/3/17 52/1/17
f 70/3/19 54/1/18 69/3/18
f 54/1/18 70/3/19 57/1/19
f 59/1/20 70/3/19 71/3/20
f 70/3/19 59/1/20 57/1/19
f 69/3/18 52/1/17 68/3/17
f 52/1/17 69/3/18 54/1/18
f 64/1/21 73/3/22 72/3/21
f 73/3/22 64/1/21 62/1/22
f 4/3/23 64/1/21 72/3/21
f 64/1/21 4/3/23 3/1/23
f 75/3/25 48/1/24 74/3/24
f 48/1/24 75/3/25 49/1/25
f 58/1/12 34/2/26 33/2/12
f 34/2/26 58/1/12 61/1/26
f 41/1/10 14/2/27 15/1/27
f 14/2/27 41/1/10 17/2/10
f 60/1/28 71/3/20 76/3/28
f 71/3/20 60/1/28 59/1/20
f 66/3/15 49/1/25 75/3/25
f 49/1/25 66/3/15 50/1/15
f 35/2/30 1/1/29 2/2/29
f 1/1/29 35/2/30 63/1/30
f 73/3/22 60/1/28 76/3/28
f 60/1/28 73/3/22 62/1/22
f 61/1/26 35/2/30 34/2/26
f 35/2/30 61/1/26 63/1/30
f 74/3/24 46/1/14 65/3/14
f 46/1/14 74/3/24 48/1/24
f 53/1/31 31/2/32 26/2/31
f 31/2/32 53/1/31 55/1/32
f 55/1/32 32/2/11 31/2/32
f 32/2/11 55/1/32 56/1/11
f 53/1/31 22/2/6 47/1/6
f 22/2/6 53/1/31 26/2/31
f 10/1/4 77/1/4 9/1/4
f 77/1/4 10/1/4 78/1/4
f 78/1/4 10/1/4 79/1/4
f 79/1/4 10/1/4 80/1/4
f 80/1/4 10/1/4 81/1/4
f 81/1/4 10/1/4 82/1/4
f 82/1/4 10/1/4 83/1/4
f 82/1/4 83/1/4 84/1/4
f 82/1/4 84/1/4 85/1/4
f 82/1/4 85/1/4 86/1/4
f 82/1/4 86/1/4 87/1/4
f 82/1/4 87/1/4 88/1/4
f 88/1/4 87/1/4 89/1/4
f 88/1/4 89/1/4 90/1/4
f 88/1/4 90/1/4 91/1/4
f 91/1/4 90/1/4 92/1/4
f 92/1/4 90/1/4 93/1/4
f 93/1/4 90/1/4 94/1/4
f 93/1/4 94/1/4 95/1/4
f 95/1/4 94/1/4 96/1/4
f 95/1/4 96/1/4 97/1/4
f 95/1/4 97/1/4 98/1/4
f 98/1/4 97/1/4 99/1/4
f 98/1/4 99/1/4 100/1/4
f 98/1/4 100/1/4 8/1/4
f 8/1/4 100/1/4 7/1/4
f 30/2/18 89/1/17 29/2/17
f 89/1/17 30/2/18 90/1/18
f 36/2/19 90/1/18 30/2/18
f 90/1/18 36/2/19 94/1/19
f 37/2/20 94/1/19 36/2/19
f 94/1/19 37/2/20 96/1/20
f 38/2/28 96/1/20 37/2/20
f 96/1/20 38/2/28 97/1/28
f 40/2/21 99/1/22 39/2/22
f 99/1/22 40/2/21 100/1/21
f 6/2/23 100/1/21 40/2/21
f 100/1/21 6/2/23 7/1/23
f 98/1/30 5/3/29 101/3/30
f 5/3/29 98/1/30 8/1/29
f 39/2/22 97/1/28 38/2/28
f 97/1/28 39/2/22 99/1/22
f 95/1/26 101/3/30 102/3/26
f 101/3/30 95/1/26 98/1/30
f 93/1/12 102/3/26 103/3/12
f 102/3/26 93/1/12 95/1/26
f 88/1/31 105/3/32 104/3/31
f 105/3/32 88/1/31 91/1/32
f 81/1/5 106/3/8 80/1/8
f 106/3/8 81/1/5 107/3/5
f 77/1/10 11/3/27 9/1/27
f 11/3/27 77/1/10 108/3/10
f 25/2/25 84/1/24 24/2/24
f 84/1/24 25/2/25 85/1/25
f 92/1/11 103/3/12 109/3/11
f 103/3/12 92/1/11 93/1/12
f 91/1/32 109/3/11 105/3/32
f 109/3/11 91/1/32 92/1/11
f 29/2/17 87/1/16 28/2/16
f 87/1/16 29/2/17 89/1/17
f 79/1/7 110/3/9 78/1/9
f 110/3/9 79/1/7 111/3/7
f 82/1/6 107/3/5 81/1/5
f 107/3/5 82/1/6 112/3/6
f 27/2/15 85/1/25 25/2/25
f 85/1/25 27/2/15 86/1/15
f 80/1/8 111/3/7 79/1/7
f 111/3/7 80/1/8 106/3/8
f 23/2/14 10/1/13 12/2/13
f 10/1/13 23/2/14 83/1/14
f 28/2/16 86/1/15 27/2/15
f 86/1/15 28/2/16 87/1/16
f 24/2/24 83/1/14 23/2/14
f 83/1/14 24/2/24 84/1/24
f 78/1/9 108/3/10 77/1/10
f 108/3/10 78/1/9 110/3/9
f 88/1/31 112/3/6 82/1/6
f 112/3/6 88/1/31 104/3/31
f 114/4/4 113/4/4 13/4/4
f 113/4/4 114/4/4 74/4/4
f 74/4/4 114/4/4 115/4/4
f 115/4/4 114/4/4 116/4/4
f 116/4/4 114/4/4 117/4/4
f 117/4/4 114/4/4 118/4/4
f 118/4/4 114/4/4 119/4/4
f 118/4/4 119/4/4 120/4/4
f 118/4/4 120/4/4 121/4/4
f 118/4/4 121/4/4 69/4/4
f 69/4/4 121/4/4 122/4/4
f 69/4/4 122/4/4 123/4/4
f 69/4/4 123/4/4 124/4/4
f 69/4/4 124/4/4 125/4/4
f 69/4/4 125/4/4 126/4/4
f 126/4/4 125/4/4 127/4/4
f 127/4/4 125/4/4 128/4/4
f 128/4/4 125/4/4 129/4/4
f 128/4/4 129/4/4 130/4/4
f 130/4/4 129/4/4 131/4/4
f 130/4/4 131/4/4 132/4/4
f 130/4/4 132/4/4 133/4/4
f 133/4/4 132/4/4 134/4/4
f 133/4/4 134/4/4 135/4/4
f 133/4/4 135/4/4 4/4/4
f 4/4/4 135/4/4 136/4/4

g skew-large-corner




usemtl colormap

f 3/1/1 2/2/1 1/1/1
f 4/3/1 2/2/1 3/1/1
f 5/3/1 2/2/1 4/3/1
f 5/3/1 6/2/1 2/2/1
f 6/2/1 5/3/1 7/1/1
f 8/1/1 7/1/1 5/3/1
f 11/3/2 10/1/2 9/1/2
f 10/1/2 11/3/2 12/2/2
f 13/3/2 12/2/2 11/3/2
f 13/3/2 14/2/2 12/2/2
f 14/2/2 13/3/2 15/1/2
f 15/1/2 13/3/2 16/1/2
f 17/2/3 12/2/3 14/2/3
f 12/2/3 17/2/3 18/2/3
f 12/2/3 18/2/3 19/2/3
f 12/2/3 19/2/3 20/2/3
f 12/2/3 20/2/3 21/2/3
f 12/2/3 21/2/3 22/2/3
f 12/2/3 22/2/3 23/2/3
f 23/2/3 22/2/3 24/2/3
f 24/2/3 22/2/3 25/2/3
f 25/2/3 22/2/3 26/2/3
f 25/2/3 26/2/3 27/2/3
f 27/2/3 26/2/3 28/2/3
f 28/2/3 26/2/3 29/2/3
f 29/2/3 26/2/3 30/2/3
f 30/2/3 26/2/3 31/2/3
f 30/2/3 31/2/3 32/2/3
f 30/2/3 32/2/3 33/2/3
f 30/2/3 33/2/3 34/2/3
f 30/2/3 34/2/3 35/2/3
f 30/2/3 35/2/3 36/2/3
f 36/2/3 35/2/3 37/2/3
f 37/2/3 35/2/3 38/2/3
f 38/2/3 35/2/3 2/2/3
f 38/2/3 2/2/3 39/2/3
f 39/2/3 2/2/3 40/2/3
f 40/2/3 2/2/3 6/2/3
f 16/1/4 41/1/4 15/1/4
f 41/1/4 16/1/4 42/1/4
f 42/1/4 16/1/4 43/1/4
f 43/1/4 16/1/4 44/1/4
f 44/1/4 16/1/4 45/1/4
f 45/1/4 16/1/4 46/1/4
f 45/1/4 46/1/4 47/1/4
f 47/1/4 46/1/4 48/1/4
f 47/1/4 48/1/4 49/1/4
f 47/1/4 49/1/4 50/1/4
f 47/1/4 50/1/4 51/1/4
f 47/1/4 51/1/4 52/1/4
f 47/1/4 52/1/4 53/1/4
f 53/1/4 52/1/4 54/1/4
f 53/1/4 54/1/4 55/1/4
f 55/1/4 54/1/4 56/1/4
f 56/1/4 54/1/4 57/1/4
f 56/1/4 57/1/4 58/1/4
f 58/1/4 57/1/4 59/1/4
f 58/1/4 59/1/4 60/1/4
f 58/1/4 60/1/4 61/1/4
f 61/1/4 60/1/4 62/1/4
f 61/1/4 62/1/4 63/1/4
f 63/1/4 62/1/4 64/1/4
f 63/1/4 64/1/4 1/1/4
f 1/1/4 64/1/4 3/1/4
f 47/1/6 21/2/5 45/1/5
f 21/2/5 47/1/6 22/2/6
f 44/1/8 19/2/7 43/1/7
f 19/2/7 44/1/8 20/2/8
f 45/1/5 20/2/8 44/1/8
f 20/2/8 45/1/5 21/2/5
f 43/1/7 18/2/9 42/1/9
f 18/2/9 43/1/7 19/2/7
f 42/1/9 17/2/10 41/1/10
f 17/2/10 42/1/9 18/2/9
f 56/1/11 33/2/12 32/2/11
f 33/2/12 56/1/11 58/1/12
f 65/3/14 16/1/13 13/3/13
f 16/1/13 65/3/14 46/1/14
f 67/3/16 50/1/15 66/3/15
f 50/1/15 67/3/16 51/1/16
f 68/3/17 51/1/16 67/3/16
f 51/1/16 68/3/17 52/1/17
f 70/3/19 54/1/18 69/3/18
f 54/1/18 70/3/19 57/1/19
f 59/1/20 70/3/19 71/3/20
f 70/3/19 59/1/20 57/1/19
f 69/3/18 52/1/17 68/3/17
f 52/1/17 69/3/18 54/1/18
f 64/1/21 73/3/22 72/3/21
f 73/3/22 64/1/21 62/1/22
f 4/3/23 64/1/21 72/3/21
f 64/1/21 4/3/23 3/1/23
f 75/3/25 48/1/24 74/3/24
f 48/1/24 75/3/25 49/1/25
f 58/1/12 34/2/26 33/2/12
f 34/2/26 58/1/12 61/1/26
f 41/1/10 14/2/27 15/1/27
f 14/2/27 41/1/10 17/2/10
f 60/1/28 71/3/20 76/3/28
f 71/3/20 60/1/28 59/1/20
f 66/3/15 49/1/25 75/3/25
f 49/1/25 66/3/15 50/1/15
f 35/2/30 1/1/29 2/2/29
f 1/1/29 35/2/30 63/1/30
f 73/3/22 60/1/28 76/3/28
f 60/1/28 73/3/22 62/1/22
f 61/1/26 35/2/30 34/2/26
f 35/2/30 61/1/26 63/1/30
f 74/3/24 46/1/14 65/3/14
f 46/1/14 74/3/24 48/1/24
f 53/1/31 31/2/32 26/2/31
f 31/2/32 53/1/31 55/1/32
f 55/1/32 32/2/11 31/2/32
f 32/2/11 55/1/32 56/1/11
f 53/1/31 22/2/6 47/1/6
f 22/2/6 53/1/31 26/2/31
f 10/1/4 77/1/4 9/1/4
f 77/1/4 10/1/4 78/1/4
f 78/1/4 10/1/4 79/1/4
f 79/1/4 10/1/4 80/1/4
f 80/1/4 10/1/4 81/1/4
f 81/1/4 10/1/4 82/1/4
f 82/1/4 10/1/4 83/1/4
f 82/1/4 83/1/4 84/1/4
f 82/1/4 84/1/4 85/1/4
f 82/1/4 85/1/4 86/1/4
f 82/1/4 86/1/4 87/1/4
f 82/1/4 87/1/4 88/1/4
f 88/1/4 87/1/4 89/1/4
f 88/1/4 89/1/4 90/1/4
f 88/1/4 90/1/4 91/1/4
f 91/1/4 90/1/4 92/1/4
f 92/1/4 90/1/4 93/1/4
f 93/1/4 90/1/4 94/1/4
f 93/1/4 94/1/4 95/1/4
f 95/1/4 94/1/4 96/1/4
f 95/1/4 96/1/4 97/1/4
f 95/1/4 97/1/4 98/1/4
f 98/1/4 97/1/4 99/1/4
f 98/1/4 99/1/4 100/1/4
f 98/1/4 100/1/4 8/1/4
f 8/1/4 100/1/4 7/1/4
f 30/2/18 89/1/17 29/2/17
f 89/1/17 30/2/18 90/1/18
f 36/2/19 90/1/18 30/2/18
f 90/1/18 36/2/19 94/1/19
f 37/2/20 94/1/19 36/2/19
f 94/1/19 37/2/20 96/1/20
f 38/2/28 96/1/20 37/2/20
f 96/1/20 38/2/28 97/1/28
f 40/2/21 99/1/22 39/2/22
f 99/1/22 40/2/21 100/1/21
f 6/2/23 100/1/21 40/2/21
f 100/1/21 6/2/23 7/1/23
f 98/1/30 5/3/29 101/3/30
f 5/3/29 98/1/30 8/1/29
f 39/2/22 97/1/28 38/2/28
f 97/1/28 39/2/22 99/1/22
f 95/1/26 101/3/30 102/3/26
f 101/3/30 95/1/26 98/1/30
f 93/1/12 102/3/26 103/3/12
f 102/3/26 93/1/12 95/1/26
f 88/1/31 105/3/32 104/3/31
f 105/3/32 88/1/31 91/1/32
f 81/1/5 106/3/8 80/1/8
f 106/3/8 81/1/5 107/3/5
f 77/1/10 11/3/27 9/1/27
f 11/3/27 77/1/10 108/3/10
f 25/2/25 84/1/24 24/2/24
f 84/1/24 25/2/25 85/1/25
f 92/1/11 103/3/12 109/3/11
f 103/3/12 92/1/11 93/1/12
f 91/1/32 109/3/11 105/3/32
f 109/3/11 91/1/32 92/1/11
f 29/2/17 87/1/16 28/2/16
f 87/1/16 29/2/17 89/1/17
f 79/1/7 110/3/9 78/1/9
f 110/3/9 79/1/7 111/3/7
f 82/1/6 107/3/5 81/1/5
f 107/3/5 82/1/6 112/3/6
f 27/2/15 85/1/25 25/2/25
f 85/1/25 27/2/15 86/1/15
f 80/1/8 111/3/7 79/1/7
f 111/3/7 80/1/8 106/3/8
f 23/2/14 10/1/13 12/2/13
f 10/1/13 23/2/14 83/1/14
f 28/2/16 86/1/15 27/2/15
f 86/1/15 28/2/16 87/1/16
f 24/2/24 83/1/14 23/2/14
f 83/1/14 24/2/24 84/1/24
f 78/1/9 108/3/10 77/1/10
f 108/3/10 78/1/9 110/3/9
f 88/1/31 112/3/6 82/1/6
f 112/3/6 88/1/31 104/3/31
f 114/4/4 113/4/4 13/4/4
f 113/4/4 114/4/4 74/4/4
f 74/4/4 114/4/4 115/4/4
f 115/4/4 114/4/4 116/4/4
f 116/4/4 114/4/4 117/4/4
f 117/4/4 114/4/4 118/4/4
f 118/4/4 114/4/4 119/4/4
f 118/4/4 119/4/4 120/4/4
f 118/4/4 120/4/4 121/4/4
f 118/4/4 121/4/4 69/4/4
f 69/4/4 121/4/4 122/4/4
f 69/4/4 122/4/4 123/4/4
f 69/4/4 123/4/4 124/4/4
f 69/4/4 124/4/4 125/4/4
f 69/4/4 125/4/4 126/4/4
f 126/4/4 125/4/4 127/4/4
f 127/4/4 125/4/4 128/4/4
f 128/4/4 125/4/4 129/4/4
f 128/4/4 129/4/4 130/4/4
f 130/4/4 129/4/4 131/4/4
f 130/4/4 131/4/4 132/4/4
f 130/4/4 132/4/4 133/4/4
f 133/4/4 132/4/4 134/4/4
f 133/4/4 134/4/4 135/4/4
f 133/4/4 135/4/4 4/4/4
f 4/4/4 135/4/4 136/4/4

