# Created by Kenney (www.kenney.nl)

mtllib split-start.mtl

g split-start

v 0.39996 0.146652 0.49995 1 1 1
v 0.49995 0.146652 0.49995 1 1 1
v 0.39996 0.063327 0.49995 1 1 1
v 0.49995 0 0.49995 1 1 1
v -0.49995 0 0.49995 1 1 1
v -0.39996 0.063327 0.49995 1 1 1
v -0.49995 0.146652 0.49995 1 1 1
v -0.39996 0.146652 0.49995 1 1 1
v 0.049995 0.063327 0.49995 1 1 1
v -0.049995 0.063327 0.49995 1 1 1
v 0.049995 0.146652 0.49995 1 1 1
v -0.049995 0.146652 0.49995 1 1 1
v 0.49995 0 -0.49995 1 1 1
v -0.49995 0 -0.49995 1 1 1
v 0.49995 0.146652 -0.49995 1 1 1
v -0.39996 0.146652 -0.49995 1 1 1
v -0.49995 0.146652 -0.49995 1 1 1
v -0.39996 0.063327 -0.49995 1 1 1
v 0.39996 0.063327 -0.49995 1 1 1
v -0.049995 0.063327 -0.49995 1 1 1
v 0.049995 0.063327 -0.49995 1 1 1
v 0.39996 0.146652 -0.49995 1 1 1
v 0.049995 0.146652 0 1 1 1
v -0.049995 0.146652 0 1 1 1
v -0.04999498 0.063327 -0.49995 1 1 1
v -0.04999498 0.063327 0.49995 1 1 1
v 0.04999501 0.063327 -0.49995 1 1 1
v 0.04999501 0.063327 0.49995 1 1 1

vn 0 0 1
vn 0 -1 0
vn 1 0 0
vn 0 1 0
vn -1 0 0
vn 0 0 -1
vn 0 0.9965927 -0.08248053
vn 0 -0.9965927 0.08248053
vn 0 0.986394 -0.164399
vn 0 -0.986394 0.164399

vt 0.21875 0.225
vt 0.21875 0.1113636
vt 0.21875 0.025
vt 0.03125 0.125

usemtl colormap

f 3/2/1 2/1/1 1/1/1
f 3/2/1 4/3/1 2/1/1
f 4/3/1 3/2/1 5/3/1
f 6/2/1 5/3/1 3/2/1
f 5/3/1 6/2/1 7/1/1
f 7/1/1 6/2/1 8/1/1
f 6/2/1 3/2/1 9/2/1
f 6/2/1 9/2/1 10/2/1
f 11/1/1 10/2/1 9/2/1
f 10/2/1 11/1/1 12/1/1
f 4/3/2 14/3/2 13/3/2
f 14/3/2 4/3/2 5/3/2
f 2/1/3 13/3/3 15/1/3
f 13/3/3 2/1/3 4/3/3
f 17/1/4 8/1/4 16/1/4
f 8/1/4 17/1/4 7/1/4
f 5/3/5 17/1/5 14/3/5
f 17/1/5 5/3/5 7/1/5
f 18/2/6 17/1/6 16/1/6
f 18/2/6 14/3/6 17/1/6
f 14/3/6 18/2/6 13/3/6
f 19/2/6 13/3/6 18/2/6
f 19/2/6 18/2/6 20/2/6
f 19/2/6 20/2/6 21/2/6
f 13/3/6 19/2/6 15/1/6
f 15/1/6 19/2/6 22/1/6
f 22/1/4 2/1/4 15/1/4
f 2/1/4 22/1/4 1/1/4
f 3/2/5 22/1/5 19/2/5
f 22/1/5 3/2/5 1/1/5
f 8/1/3 18/2/3 16/1/3
f 18/2/3 8/1/3 6/2/3
f 23/1/3 9/2/3 21/2/3
f 9/2/3 23/1/3 11/1/3
f 21/2/5 9/2/5 23/1/5
f 11/1/5 23/1/5 9/2/5
f 24/1/7 11/1/4 23/1/7
f 11/1/4 24/1/7 12/1/4
f 23/1/8 11/1/2 24/1/8
f 12/1/2 24/1/8 11/1/2
f 20/2/9 23/1/7 21/2/9
f 23/1/7 20/2/9 24/1/7
f 21/2/10 23/1/8 20/2/10
f 24/1/8 20/2/10 23/1/8
f 10/2/5 24/1/5 20/2/5
f 24/1/5 10/2/5 12/1/5
f 20/2/3 24/1/3 10/2/3
f 12/1/3 10/2/3 24/1/3
f 18/4/4 26/4/4 25/4/4
f 26/4/4 18/4/4 6/4/4
f 27/4/4 3/4/4 19/4/4
f 3/4/4 27/4/4 28/4/4

g split-start




usemtl colormap

f 3/2/1 2/1/1 1/1/1
f 3/2/1 4/3/1 2/1/1
f 4/3/1 3/2/1 5/3/1
f 6/2/1 5/3/1 3/2/1
f 5/3/1 6/2/1 7/1/1
f 7/1/1 6/2/1 8/1/1
f 6/2/1 3/2/1 9/2/1
f 6/2/1 9/2/1 10/2/1
f 11/1/1 10/2/1 9/2/1
f 10/2/1 11/1/1 12/1/1
f 4/3/2 14/3/2 13/3/2
f 14/3/2 4/3/2 5/3/2
f 2/1/3 13/3/3 15/1/3
f 13/3/3 2/1/3 4/3/3
f 17/1/4 8/1/4 16/1/4
f 8/1/4 17/1/4 7/1/4
f 5/3/5 17/1/5 14/3/5
f 17/1/5 5/3/5 7/1/5
f 18/2/6 17/1/6 16/1/6
f 18/2/6 14/3/6 17/1/6
f 14/3/6 18/2/6 13/3/6
f 19/2/6 13/3/6 18/2/6
f 19/2/6 18/2/6 20/2/6
f 19/2/6 20/2/6 21/2/6
f 13/3/6 19/2/6 15/1/6
f 15/1/6 19/2/6 22/1/6
f 22/1/4 2/1/4 15/1/4
f 2/1/4 22/1/4 1/1/4
f 3/2/5 22/1/5 19/2/5
f 22/1/5 3/2/5 1/1/5
f 8/1/3 18/2/3 16/1/3
f 18/2/3 8/1/3 6/2/3
f 23/1/3 9/2/3 21/2/3
f 9/2/3 23/1/3 11/1/3
f 21/2/5 9/2/5 23/1/5
f 11/1/5 23/1/5 9/2/5
f 24/1/7 11/1/4 23/1/7
f 11/1/4 24/1/7 12/1/4
f 23/1/8 11/1/2 24/1/8
f 12/1/2 24/1/8 11/1/2
f 20/2/9 23/1/7 21/2/9
f 23/1/7 20/2/9 24/1/7
f 21/2/10 23/1/8 20/2/10
f 24/1/8 20/2/10 23/1/8
f 10/2/5 24/1/5 20/2/5
f 24/1/5 10/2/5 12/1/5
f 20/2/3 24/1/3 10/2/3
f 12/1/3 10/2/3 24/1/3
f 18/4/4 26/4/4 25/4/4
f 26/4/4 18/4/4 6/4/4
f 27/4/4 3/4/4 19/4/4
f 3/4/4 27/4/4 28/4/4

