# Created by Kenney (www.kenney.nl)

mtllib square-corner-a.mtl

g square-corner-a

v 0.39996 0 0.49995 1 1 1
v -0.49995 0 0.49995 1 1 1
v 0.39996 0.146652 0.49995 1 1 1
v -0.49995 0.146652 0.49995 1 1 1
v 0.49995 0 -0.49995 1 1 1
v -0.49995 0 -0.49995 1 1 1
v 0.49995 0 0.39996 1 1 1
v 0.4990946 0 0.4130113 1 1 1
v 0.4965429 0 0.4258393 1 1 1
v 0.4923387 0 0.4382245 1 1 1
v 0.4865539 0 0.449955 1 1 1
v 0.4792874 0 0.4608301 1 1 1
v 0.4706636 0 0.4706636 1 1 1
v 0.4608301 0 0.4792874 1 1 1
v 0.449955 0 0.4865539 1 1 1
v 0.4382245 0 0.4923387 1 1 1
v 0.4258393 0 0.4965429 1 1 1
v 0.4130113 0 0.4990946 1 1 1
v 0.49995 0.146652 -0.49995 1 1 1
v 0.49995 0.146652 0.39996 1 1 1
v -0.49995 0.146652 0.39996 1 1 1
v -0.49995 0.063327 0.39996 1 1 1
v -0.49995 0.063327 -0.39996 1 1 1
v -0.49995 0.146652 -0.49995 1 1 1
v -0.49995 0.146652 -0.39996 1 1 1
v -0.39996 0.146652 -0.49995 1 1 1
v -0.39996 0.063327 -0.49995 1 1 1
v 0.39996 0.063327 -0.49995 1 1 1
v 0.39996 0.146652 -0.49995 1 1 1
v 0.4990946 0.146652 0.4130113 1 1 1
v 0.4965429 0.146652 0.4258393 1 1 1
v 0.4923387 0.146652 0.4382245 1 1 1
v 0.4865539 0.146652 0.449955 1 1 1
v 0.4792874 0.146652 0.4608301 1 1 1
v 0.4706636 0.146652 0.4706636 1 1 1
v 0.4608301 0.146652 0.4792874 1 1 1
v 0.449955 0.146652 0.4865539 1 1 1
v 0.4382245 0.146652 0.4923387 1 1 1
v 0.4258393 0.146652 0.4965429 1 1 1
v 0.4130113 0.146652 0.4990946 1 1 1
v 0.39996 0.146652 0.39996 1 1 1
v 0.39996 0.063327 0.39996 1 1 1
v -0.4008154 0.146652 -0.4868987 1 1 1
v -0.4033671 0.146652 -0.4740707 1 1 1
v -0.4075713 0.146652 -0.4616855 1 1 1
v -0.4133561 0.146652 -0.449955 1 1 1
v -0.4206226 0.146652 -0.4390799 1 1 1
v -0.4292464 0.146652 -0.4292464 1 1 1
v -0.4390799 0.146652 -0.4206226 1 1 1
v -0.449955 0.146652 -0.4133561 1 1 1
v -0.4616855 0.146652 -0.4075713 1 1 1
v -0.4740707 0.146652 -0.4033671 1 1 1
v -0.4868987 0.146652 -0.4008154 1 1 1
v -0.4868987 0.063327 -0.4008154 1 1 1
v -0.4740707 0.063327 -0.4033671 1 1 1
v -0.4616855 0.063327 -0.4075713 1 1 1
v -0.449955 0.063327 -0.4133561 1 1 1
v -0.4390799 0.063327 -0.4206226 1 1 1
v -0.4292464 0.063327 -0.4292464 1 1 1
v -0.4206226 0.063327 -0.4390799 1 1 1
v -0.4133561 0.063327 -0.449955 1 1 1
v -0.4075713 0.063327 -0.4616855 1 1 1
v -0.4033671 0.063327 -0.4740707 1 1 1
v -0.4008154 0.063327 -0.4868987 1 1 1
v 0.39996 0.063327 0.39996 1 1 1
v -0.4008154 0.063327 -0.4868987 1 1 1
v -0.49995 0.063327 0.39996 1 1 1
v -0.4133562 0.063327 -0.449955 1 1 1
v -0.4206226 0.063327 -0.4390799 1 1 1
v -0.4292463 0.063327 -0.4292464 1 1 1
v -0.43908 0.063327 -0.4206226 1 1 1
v -0.449955 0.063327 -0.4133561 1 1 1
v -0.4616854 0.063327 -0.4075713 1 1 1
v -0.4740706 0.063327 -0.4033671 1 1 1
v -0.4868986 0.063327 -0.4008154 1 1 1
v -0.49995 0.063327 -0.39996 1 1 1

vn 0.03271909 0 0.9994646
vn 0 0 1
vn 0 -1 0
vn 1 0 0
vn 0.9994646 0 0.03271909
vn -1 0 0
vn 0 0 -1
vn 0.9914449 0 0.1305262
vn 0.9659258 0 0.258819
vn 0.9238795 0 0.3826834
vn 0.8660254 0 0.5
vn 0.7933533 0 0.6087614
vn 0.7071068 0 0.7071068
vn 0.6087614 0 0.7933533
vn 0.5 0 0.8660254
vn 0.3826834 0 0.9238795
vn 0.258819 0 0.9659258
vn 0.1305262 0 0.9914449
vn 0 1 0
vn 0.06540313 0 0.9978589
vn 0.9978589 0 0.06540313

vt 0.21875 0.025
vt 0.21875 0.225
vt 0.21875 0.1113636
vt 0.03125 0.125

usemtl colormap

f 3/2/1 2/1/2 1/1/1
f 2/1/2 3/2/1 4/2/2
f 7/1/3 6/1/3 5/1/3
f 6/1/3 7/1/3 8/1/3
f 6/1/3 8/1/3 9/1/3
f 6/1/3 9/1/3 10/1/3
f 6/1/3 10/1/3 11/1/3
f 6/1/3 11/1/3 12/1/3
f 6/1/3 12/1/3 13/1/3
f 6/1/3 13/1/3 14/1/3
f 6/1/3 14/1/3 15/1/3
f 6/1/3 15/1/3 16/1/3
f 6/1/3 16/1/3 17/1/3
f 6/1/3 17/1/3 18/1/3
f 6/1/3 18/1/3 1/1/3
f 6/1/3 1/1/3 2/1/3
f 20/2/5 5/1/4 19/2/4
f 5/1/4 20/2/5 7/1/5
f 21/2/6 2/1/6 4/2/6
f 22/3/6 2/1/6 21/2/6
f 23/3/6 2/1/6 22/3/6
f 23/3/6 6/1/6 2/1/6
f 6/1/6 23/3/6 24/2/6
f 25/2/6 24/2/6 23/3/6
f 27/3/7 24/2/7 26/2/7
f 27/3/7 6/1/7 24/2/7
f 6/1/7 27/3/7 5/1/7
f 28/3/7 5/1/7 27/3/7
f 5/1/7 28/3/7 19/2/7
f 19/2/7 28/3/7 29/2/7
f 30/2/8 7/1/5 20/2/5
f 7/1/5 30/2/8 8/1/8
f 31/2/9 8/1/8 30/2/8
f 8/1/8 31/2/9 9/1/9
f 32/2/10 9/1/9 31/2/9
f 9/1/9 32/2/10 10/1/10
f 33/2/11 10/1/10 32/2/10
f 10/1/10 33/2/11 11/1/11
f 34/2/12 11/1/11 33/2/11
f 11/1/11 34/2/12 12/1/12
f 35/2/13 12/1/12 34/2/12
f 12/1/12 35/2/13 13/1/13
f 35/2/13 14/1/14 13/1/13
f 14/1/14 35/2/13 36/2/14
f 36/2/14 15/1/15 14/1/14
f 15/1/15 36/2/14 37/2/15
f 37/2/15 16/1/16 15/1/15
f 16/1/16 37/2/15 38/2/16
f 38/2/16 17/1/17 16/1/16
f 17/1/17 38/2/16 39/2/17
f 39/2/17 18/1/18 17/1/17
f 18/1/18 39/2/17 40/2/18
f 40/2/18 1/1/1 18/1/18
f 1/1/1 40/2/18 3/2/1
f 29/2/19 20/2/19 19/2/19
f 20/2/19 29/2/19 30/2/19
f 30/2/19 29/2/19 31/2/19
f 31/2/19 29/2/19 32/2/19
f 32/2/19 29/2/19 33/2/19
f 33/2/19 29/2/19 34/2/19
f 34/2/19 29/2/19 35/2/19
f 35/2/19 29/2/19 36/2/19
f 36/2/19 29/2/19 37/2/19
f 37/2/19 29/2/19 38/2/19
f 38/2/19 29/2/19 39/2/19
f 39/2/19 29/2/19 40/2/19
f 40/2/19 29/2/19 41/2/19
f 40/2/19 41/2/19 3/2/19
f 3/2/19 41/2/19 21/2/19
f 3/2/19 21/2/19 4/2/19
f 42/3/6 29/2/6 28/3/6
f 29/2/6 42/3/6 41/2/6
f 21/2/7 42/3/7 22/3/7
f 42/3/7 21/2/7 41/2/7
f 24/2/19 43/2/19 26/2/19
f 43/2/19 24/2/19 44/2/19
f 44/2/19 24/2/19 45/2/19
f 45/2/19 24/2/19 46/2/19
f 46/2/19 24/2/19 47/2/19
f 47/2/19 24/2/19 48/2/19
f 48/2/19 24/2/19 49/2/19
f 49/2/19 24/2/19 50/2/19
f 50/2/19 24/2/19 51/2/19
f 51/2/19 24/2/19 52/2/19
f 52/2/19 24/2/19 53/2/19
f 53/2/19 24/2/19 25/2/19
f 53/2/18 23/3/20 54/3/18
f 23/3/20 53/2/18 25/2/20
f 52/2/17 54/3/18 55/3/17
f 54/3/18 52/2/17 53/2/18
f 51/2/16 55/3/17 56/3/16
f 55/3/17 51/2/16 52/2/17
f 50/2/15 56/3/16 57/3/15
f 56/3/16 50/2/15 51/2/16
f 49/2/14 57/3/15 58/3/14
f 57/3/15 49/2/14 50/2/15
f 48/2/13 58/3/14 59/3/13
f 58/3/14 48/2/13 49/2/14
f 48/2/13 60/3/12 47/2/12
f 60/3/12 48/2/13 59/3/13
f 47/2/12 61/3/11 46/2/11
f 61/3/11 47/2/12 60/3/12
f 46/2/11 62/3/10 45/2/10
f 62/3/10 46/2/11 61/3/11
f 45/2/10 63/3/9 44/2/9
f 63/3/9 45/2/10 62/3/10
f 44/2/9 64/3/8 43/2/8
f 64/3/8 44/2/9 63/3/9
f 43/2/8 27/3/21 26/2/21
f 27/3/21 43/2/8 64/3/8
f 27/4/19 65/4/19 28/4/19
f 65/4/19 27/4/19 66/4/19
f 65/4/19 66/4/19 67/4/19
f 67/4/19 66/4/19 63/4/19
f 67/4/19 63/4/19 62/4/19
f 67/4/19 62/4/19 68/4/19
f 67/4/19 68/4/19 69/4/19
f 67/4/19 69/4/19 70/4/19
f 67/4/19 70/4/19 71/4/19
f 67/4/19 71/4/19 72/4/19
f 67/4/19 72/4/19 73/4/19
f 67/4/19 73/4/19 74/4/19
f 67/4/19 74/4/19 75/4/19
f 67/4/19 75/4/19 76/4/19

g square-corner-a




usemtl colormap

f 3/2/1 2/1/2 1/1/1
f 2/1/2 3/2/1 4/2/2
f 7/1/3 6/1/3 5/1/3
f 6/1/3 7/1/3 8/1/3
f 6/1/3 8/1/3 9/1/3
f 6/1/3 9/1/3 10/1/3
f 6/1/3 10/1/3 11/1/3
f 6/1/3 11/1/3 12/1/3
f 6/1/3 12/1/3 13/1/3
f 6/1/3 13/1/3 14/1/3
f 6/1/3 14/1/3 15/1/3
f 6/1/3 15/1/3 16/1/3
f 6/1/3 16/1/3 17/1/3
f 6/1/3 17/1/3 18/1/3
f 6/1/3 18/1/3 1/1/3
f 6/1/3 1/1/3 2/1/3
f 20/2/5 5/1/4 19/2/4
f 5/1/4 20/2/5 7/1/5
f 21/2/6 2/1/6 4/2/6
f 22/3/6 2/1/6 21/2/6
f 23/3/6 2/1/6 22/3/6
f 23/3/6 6/1/6 2/1/6
f 6/1/6 23/3/6 24/2/6
f 25/2/6 24/2/6 23/3/6
f 27/3/7 24/2/7 26/2/7
f 27/3/7 6/1/7 24/2/7
f 6/1/7 27/3/7 5/1/7
f 28/3/7 5/1/7 27/3/7
f 5/1/7 28/3/7 19/2/7
f 19/2/7 28/3/7 29/2/7
f 30/2/8 7/1/5 20/2/5
f 7/1/5 30/2/8 8/1/8
f 31/2/9 8/1/8 30/2/8
f 8/1/8 31/2/9 9/1/9
f 32/2/10 9/1/9 31/2/9
f 9/1/9 32/2/10 10/1/10
f 33/2/11 10/1/10 32/2/10
f 10/1/10 33/2/11 11/1/11
f 34/2/12 11/1/11 33/2/11
f 11/1/11 34/2/12 12/1/12
f 35/2/13 12/1/12 34/2/12
f 12/1/12 35/2/13 13/1/13
f 35/2/13 14/1/14 13/1/13
f 14/1/14 35/2/13 36/2/14
f 36/2/14 15/1/15 14/1/14
f 15/1/15 36/2/14 37/2/15
f 37/2/15 16/1/16 15/1/15
f 16/1/16 37/2/15 38/2/16
f 38/2/16 17/1/17 16/1/16
f 17/1/17 38/2/16 39/2/17
f 39/2/17 18/1/18 17/1/17
f 18/1/18 39/2/17 40/2/18
f 40/2/18 1/1/1 18/1/18
f 1/1/1 40/2/18 3/2/1
f 29/2/19 20/2/19 19/2/19
f 20/2/19 29/2/19 30/2/19
f 30/2/19 29/2/19 31/2/19
f 31/2/19 29/2/19 32/2/19
f 32/2/19 29/2/19 33/2/19
f 33/2/19 29/2/19 34/2/19
f 34/2/19 29/2/19 35/2/19
f 35/2/19 29/2/19 36/2/19
f 36/2/19 29/2/19 37/2/19
f 37/2/19 29/2/19 38/2/19
f 38/2/19 29/2/19 39/2/19
f 39/2/19 29/2/19 40/2/19
f 40/2/19 29/2/19 41/2/19
f 40/2/19 41/2/19 3/2/19
f 3/2/19 41/2/19 21/2/19
f 3/2/19 21/2/19 4/2/19
f 42/3/6 29/2/6 28/3/6
f 29/2/6 42/3/6 41/2/6
f 21/2/7 42/3/7 22/3/7
f 42/3/7 21/2/7 41/2/7
f 24/2/19 43/2/19 26/2/19
f 43/2/19 24/2/19 44/2/19
f 44/2/19 24/2/19 45/2/19
f 45/2/19 24/2/19 46/2/19
f 46/2/19 24/2/19 47/2/19
f 47/2/19 24/2/19 48/2/19
f 48/2/19 24/2/19 49/2/19
f 49/2/19 24/2/19 50/2/19
f 50/2/19 24/2/19 51/2/19
f 51/2/19 24/2/19 52/2/19
f 52/2/19 24/2/19 53/2/19
f 53/2/19 24/2/19 25/2/19
f 53/2/18 23/3/20 54/3/18
f 23/3/20 53/2/18 25/2/20
f 52/2/17 54/3/18 55/3/17
f 54/3/18 52/2/17 53/2/18
f 51/2/16 55/3/17 56/3/16
f 55/3/17 51/2/16 52/2/17
f 50/2/15 56/3/16 57/3/15
f 56/3/16 50/2/15 51/2/16
f 49/2/14 57/3/15 58/3/14
f 57/3/15 49/2/14 50/2/15
f 48/2/13 58/3/14 59/3/13
f 58/3/14 48/2/13 49/2/14
f 48/2/13 60/3/12 47/2/12
f 60/3/12 48/2/13 59/3/13
f 47/2/12 61/3/11 46/2/11
f 61/3/11 47/2/12 60/3/12
f 46/2/11 62/3/10 45/2/10
f 62/3/10 46/2/11 61/3/11
f 45/2/10 63/3/9 44/2/9
f 63/3/9 45/2/10 62/3/10
f 44/2/9 64/3/8 43/2/8
f 64/3/8 44/2/9 63/3/9
f 43/2/8 27/3/21 26/2/21
f 27/3/21 43/2/8 64/3/8
f 27/4/19 65/4/19 28/4/19
f 65/4/19 27/4/19 66/4/19
f 65/4/19 66/4/19 67/4/19
f 67/4/19 66/4/19 63/4/19
f 67/4/19 63/4/19 62/4/19
f 67/4/19 62/4/19 68/4/19
f 67/4/19 68/4/19 69/4/19
f 67/4/19 69/4/19 70/4/19
f 67/4/19 70/4/19 71/4/19
f 67/4/19 71/4/19 72/4/19
f 67/4/19 72/4/19 73/4/19
f 67/4/19 73/4/19 74/4/19
f 67/4/19 74/4/19 75/4/19
f 67/4/19 75/4/19 76/4/19

