# Created by Kenney (www.kenney.nl)

mtllib supports.mtl

g supports

v -0.275 1 -0.425 1 1 1
v -0.275 1 -0.325 1 1 1
v -0.325 1 -0.475 1 1 1
v -0.325 1 -0.275 1 1 1
v -0.425 1 -0.475 1 1 1
v -0.425 1 -0.275 1 1 1
v -0.475 1 -0.425 1 1 1
v -0.475 1 -0.325 1 1 1
v -0.275 1 0.325 1 1 1
v -0.275 1 0.425 1 1 1
v -0.325 1 0.275 1 1 1
v -0.325 1 0.475 1 1 1
v -0.425 1 0.275 1 1 1
v -0.425 1 0.475 1 1 1
v -0.475 1 0.325 1 1 1
v -0.475 1 0.425 1 1 1
v 0.475 1 -0.425 1 1 1
v 0.475 1 -0.325 1 1 1
v 0.425 1 -0.475 1 1 1
v 0.425 1 -0.275 1 1 1
v 0.325 1 -0.475 1 1 1
v 0.325 1 -0.275 1 1 1
v 0.275 1 -0.425 1 1 1
v 0.275 1 -0.325 1 1 1
v 0.475 1 0.325 1 1 1
v 0.475 1 0.425 1 1 1
v 0.425 1 0.275 1 1 1
v 0.425 1 0.475 1 1 1
v 0.325 1 0.275 1 1 1
v 0.325 1 0.475 1 1 1
v 0.275 1 0.325 1 1 1
v 0.275 1 0.425 1 1 1
v 0.475 0 -0.325 1 1 1
v 0.475 0 -0.425 1 1 1
v 0.425 0 -0.275 1 1 1
v 0.425 0 -0.475 1 1 1
v 0.325 0 -0.275 1 1 1
v 0.325 0 -0.475 1 1 1
v 0.275 0 -0.325 1 1 1
v 0.275 0 -0.425 1 1 1
v -0.275 0 -0.325 1 1 1
v -0.275 0 -0.425 1 1 1
v -0.325 0 -0.275 1 1 1
v -0.325 0 -0.475 1 1 1
v -0.425 0 -0.275 1 1 1
v -0.425 0 -0.475 1 1 1
v -0.475 0 -0.325 1 1 1
v -0.475 0 -0.425 1 1 1
v -0.275 0 0.425 1 1 1
v -0.275 0 0.325 1 1 1
v -0.325 0 0.475 1 1 1
v -0.325 0 0.275 1 1 1
v -0.425 0 0.475 1 1 1
v -0.425 0 0.275 1 1 1
v -0.475 0 0.425 1 1 1
v -0.475 0 0.325 1 1 1
v 0.475 0 0.425 1 1 1
v 0.475 0 0.325 1 1 1
v 0.425 0 0.475 1 1 1
v 0.425 0 0.275 1 1 1
v 0.325 0 0.475 1 1 1
v 0.325 0 0.275 1 1 1
v 0.275 0 0.425 1 1 1
v 0.275 0 0.325 1 1 1

vn 0 1 0
vn 0 -1 0
vn 0.3826834 0 0.9238795
vn -0.3826834 0 0.9238795
vn -0.3826834 0 -0.9238795
vn 0.3826834 0 -0.9238795
vn 0.9238795 0 0.3826834
vn -0.9238795 0 -0.3826834
vn 0.9238795 0 -0.3826834
vn -0.9238795 0 0.3826834

vt 0.21875 0.225
vt 0.21875 0.025

usemtl colormap

f 3/1/1 2/1/1 1/1/1
f 2/1/1 3/1/1 4/1/1
f 4/1/1 3/1/1 5/1/1
f 4/1/1 5/1/1 6/1/1
f 6/1/1 5/1/1 7/1/1
f 6/1/1 7/1/1 8/1/1
f 1/1/2 2/1/2 3/1/2
f 4/1/2 3/1/2 2/1/2
f 5/1/2 3/1/2 4/1/2
f 6/1/2 5/1/2 4/1/2
f 7/1/2 5/1/2 6/1/2
f 8/1/2 7/1/2 6/1/2
f 11/1/1 10/1/1 9/1/1
f 10/1/1 11/1/1 12/1/1
f 12/1/1 11/1/1 13/1/1
f 12/1/1 13/1/1 14/1/1
f 14/1/1 13/1/1 15/1/1
f 14/1/1 15/1/1 16/1/1
f 9/1/2 10/1/2 11/1/2
f 12/1/2 11/1/2 10/1/2
f 13/1/2 11/1/2 12/1/2
f 14/1/2 13/1/2 12/1/2
f 15/1/2 13/1/2 14/1/2
f 16/1/2 15/1/2 14/1/2
f 19/1/1 18/1/1 17/1/1
f 18/1/1 19/1/1 20/1/1
f 20/1/1 19/1/1 21/1/1
f 20/1/1 21/1/1 22/1/1
f 22/1/1 21/1/1 23/1/1
f 22/1/1 23/1/1 24/1/1
f 17/1/2 18/1/2 19/1/2
f 20/1/2 19/1/2 18/1/2
f 21/1/2 19/1/2 20/1/2
f 22/1/2 21/1/2 20/1/2
f 23/1/2 21/1/2 22/1/2
f 24/1/2 23/1/2 22/1/2
f 27/1/1 26/1/1 25/1/1
f 26/1/1 27/1/1 28/1/1
f 28/1/1 27/1/1 29/1/1
f 28/1/1 29/1/1 30/1/1
f 30/1/1 29/1/1 31/1/1
f 30/1/1 31/1/1 32/1/1
f 25/1/2 26/1/2 27/1/2
f 28/1/2 27/1/2 26/1/2
f 29/1/2 27/1/2 28/1/2
f 30/1/2 29/1/2 28/1/2
f 31/1/2 29/1/2 30/1/2
f 32/1/2 31/1/2 30/1/2
f 35/2/2 34/2/2 33/2/2
f 34/2/2 35/2/2 36/2/2
f 36/2/2 35/2/2 37/2/2
f 36/2/2 37/2/2 38/2/2
f 38/2/2 37/2/2 39/2/2
f 38/2/2 39/2/2 40/2/2
f 33/2/1 34/2/1 35/2/1
f 36/2/1 35/2/1 34/2/1
f 37/2/1 35/2/1 36/2/1
f 38/2/1 37/2/1 36/2/1
f 39/2/1 37/2/1 38/2/1
f 40/2/1 39/2/1 38/2/1
f 20/1/3 37/2/4 35/2/3
f 37/2/4 20/1/3 22/1/4
f 35/2/5 37/2/6 20/1/5
f 22/1/6 20/1/5 37/2/6
f 20/1/3 33/2/7 18/1/7
f 33/2/7 20/1/3 35/2/3
f 18/1/8 33/2/8 20/1/5
f 35/2/5 20/1/5 33/2/8
f 18/1/7 34/2/9 17/1/9
f 34/2/9 18/1/7 33/2/7
f 17/1/10 34/2/10 18/1/8
f 33/2/8 18/1/8 34/2/10
f 17/1/9 36/2/6 19/1/6
f 36/2/6 17/1/9 34/2/9
f 19/1/4 36/2/4 17/1/10
f 34/2/10 17/1/10 36/2/4
f 21/1/5 36/2/6 38/2/5
f 36/2/6 21/1/5 19/1/6
f 38/2/3 36/2/4 21/1/3
f 19/1/4 21/1/3 36/2/4
f 40/2/8 21/1/5 38/2/5
f 21/1/5 40/2/8 23/1/8
f 38/2/3 21/1/3 40/2/7
f 23/1/7 40/2/7 21/1/3
f 39/2/10 23/1/8 40/2/8
f 23/1/8 39/2/10 24/1/10
f 40/2/7 23/1/7 39/2/9
f 24/1/9 39/2/9 23/1/7
f 37/2/4 24/1/10 39/2/10
f 24/1/10 37/2/4 22/1/4
f 39/2/9 24/1/9 37/2/6
f 22/1/6 37/2/6 24/1/9
f 43/2/2 42/2/2 41/2/2
f 42/2/2 43/2/2 44/2/2
f 44/2/2 43/2/2 45/2/2
f 44/2/2 45/2/2 46/2/2
f 46/2/2 45/2/2 47/2/2
f 46/2/2 47/2/2 48/2/2
f 41/2/1 42/2/1 43/2/1
f 44/2/1 43/2/1 42/2/1
f 45/2/1 43/2/1 44/2/1
f 46/2/1 45/2/1 44/2/1
f 47/2/1 45/2/1 46/2/1
f 48/2/1 47/2/1 46/2/1
f 4/1/3 45/2/4 43/2/3
f 45/2/4 4/1/3 6/1/4
f 43/2/5 45/2/6 4/1/5
f 6/1/6 4/1/5 45/2/6
f 4/1/3 41/2/7 2/1/7
f 41/2/7 4/1/3 43/2/3
f 2/1/8 41/2/8 4/1/5
f 43/2/5 4/1/5 41/2/8
f 2/1/7 42/2/9 1/1/9
f 42/2/9 2/1/7 41/2/7
f 1/1/10 42/2/10 2/1/8
f 41/2/8 2/1/8 42/2/10
f 1/1/9 44/2/6 3/1/6
f 44/2/6 1/1/9 42/2/9
f 3/1/4 44/2/4 1/1/10
f 42/2/10 1/1/10 44/2/4
f 5/1/5 44/2/6 46/2/5
f 44/2/6 5/1/5 3/1/6
f 46/2/3 44/2/4 5/1/3
f 3/1/4 5/1/3 44/2/4
f 48/2/8 5/1/5 46/2/5
f 5/1/5 48/2/8 7/1/8
f 46/2/3 5/1/3 48/2/7
f 7/1/7 48/2/7 5/1/3
f 47/2/10 7/1/8 48/2/8
f 7/1/8 47/2/10 8/1/10
f 48/2/7 7/1/7 47/2/9
f 8/1/9 47/2/9 7/1/7
f 45/2/4 8/1/10 47/2/10
f 8/1/10 45/2/4 6/1/4
f 47/2/9 8/1/9 45/2/6
f 6/1/6 45/2/6 8/1/9
f 51/2/2 50/2/2 49/2/2
f 50/2/2 51/2/2 52/2/2
f 52/2/2 51/2/2 53/2/2
f 52/2/2 53/2/2 54/2/2
f 54/2/2 53/2/2 55/2/2
f 54/2/2 55/2/2 56/2/2
f 49/2/1 50/2/1 51/2/1
f 52/2/1 51/2/1 50/2/1
f 53/2/1 51/2/1 52/2/1
f 54/2/1 53/2/1 52/2/1
f 55/2/1 53/2/1 54/2/1
f 56/2/1 55/2/1 54/2/1
f 12/1/3 53/2/4 51/2/3
f 53/2/4 12/1/3 14/1/4
f 51/2/5 53/2/6 12/1/5
f 14/1/6 12/1/5 53/2/6
f 12/1/3 49/2/7 10/1/7
f 49/2/7 12/1/3 51/2/3
f 10/1/8 49/2/8 12/1/5
f 51/2/5 12/1/5 49/2/8
f 10/1/7 50/2/9 9/1/9
f 50/2/9 10/1/7 49/2/7
f 9/1/10 50/2/10 10/1/8
f 49/2/8 10/1/8 50/2/10
f 9/1/9 52/2/6 11/1/6
f 52/2/6 9/1/9 50/2/9
f 11/1/4 52/2/4 9/1/10
f 50/2/10 9/1/10 52/2/4
f 13/1/5 52/2/6 54/2/5
f 52/2/6 13/1/5 11/1/6
f 54/2/3 52/2/4 13/1/3
f 11/1/4 13/1/3 52/2/4
f 56/2/8 13/1/5 54/2/5
f 13/1/5 56/2/8 15/1/8
f 54/2/3 13/1/3 56/2/7
f 15/1/7 56/2/7 13/1/3
f 55/2/10 15/1/8 56/2/8
f 15/1/8 55/2/10 16/1/10
f 56/2/7 15/1/7 55/2/9
f 16/1/9 55/2/9 15/1/7
f 53/2/4 16/1/10 55/2/10
f 16/1/10 53/2/4 14/1/4
f 55/2/9 16/1/9 53/2/6
f 14/1/6 53/2/6 16/1/9
f 59/2/2 58/2/2 57/2/2
f 58/2/2 59/2/2 60/2/2
f 60/2/2 59/2/2 61/2/2
f 60/2/2 61/2/2 62/2/2
f 62/2/2 61/2/2 63/2/2
f 62/2/2 63/2/2 64/2/2
f 57/2/1 58/2/1 59/2/1
f 60/2/1 59/2/1 58/2/1
f 61/2/1 59/2/1 60/2/1
f 62/2/1 61/2/1 60/2/1
f 63/2/1 61/2/1 62/2/1
f 64/2/1 63/2/1 62/2/1
f 28/1/3 61/2/4 59/2/3
f 61/2/4 28/1/3 30/1/4
f 59/2/5 61/2/6 28/1/5
f 30/1/6 28/1/5 61/2/6
f 28/1/3 57/2/7 26/1/7
f 57/2/7 28/1/3 59/2/3
f 26/1/8 57/2/8 28/1/5
f 59/2/5 28/1/5 57/2/8
f 26/1/7 58/2/9 25/1/9
f 58/2/9 26/1/7 57/2/7
f 25/1/10 58/2/10 26/1/8
f 57/2/8 26/1/8 58/2/10
f 25/1/9 60/2/6 27/1/6
f 60/2/6 25/1/9 58/2/9
f 27/1/4 60/2/4 25/1/10
f 58/2/10 25/1/10 60/2/4
f 29/1/5 60/2/6 62/2/5
f 60/2/6 29/1/5 27/1/6
f 62/2/3 60/2/4 29/1/3
f 27/1/4 29/1/3 60/2/4
f 64/2/8 29/1/5 62/2/5
f 29/1/5 64/2/8 31/1/8
f 62/2/3 29/1/3 64/2/7
f 31/1/7 64/2/7 29/1/3
f 63/2/10 31/1/8 64/2/8
f 31/1/8 63/2/10 32/1/10
f 64/2/7 31/1/7 63/2/9
f 32/1/9 63/2/9 31/1/7
f 61/2/4 32/1/10 63/2/10
f 32/1/10 61/2/4 30/1/4
f 63/2/9 32/1/9 61/2/6
f 30/1/6 61/2/6 32/1/9

g supports




usemtl colormap

f 3/1/1 2/1/1 1/1/1
f 2/1/1 3/1/1 4/1/1
f 4/1/1 3/1/1 5/1/1
f 4/1/1 5/1/1 6/1/1
f 6/1/1 5/1/1 7/1/1
f 6/1/1 7/1/1 8/1/1
f 1/1/2 2/1/2 3/1/2
f 4/1/2 3/1/2 2/1/2
f 5/1/2 3/1/2 4/1/2
f 6/1/2 5/1/2 4/1/2
f 7/1/2 5/1/2 6/1/2
f 8/1/2 7/1/2 6/1/2
f 11/1/1 10/1/1 9/1/1
f 10/1/1 11/1/1 12/1/1
f 12/1/1 11/1/1 13/1/1
f 12/1/1 13/1/1 14/1/1
f 14/1/1 13/1/1 15/1/1
f 14/1/1 15/1/1 16/1/1
f 9/1/2 10/1/2 11/1/2
f 12/1/2 11/1/2 10/1/2
f 13/1/2 11/1/2 12/1/2
f 14/1/2 13/1/2 12/1/2
f 15/1/2 13/1/2 14/1/2
f 16/1/2 15/1/2 14/1/2
f 19/1/1 18/1/1 17/1/1
f 18/1/1 19/1/1 20/1/1
f 20/1/1 19/1/1 21/1/1
f 20/1/1 21/1/1 22/1/1
f 22/1/1 21/1/1 23/1/1
f 22/1/1 23/1/1 24/1/1
f 17/1/2 18/1/2 19/1/2
f 20/1/2 19/1/2 18/1/2
f 21/1/2 19/1/2 20/1/2
f 22/1/2 21/1/2 20/1/2
f 23/1/2 21/1/2 22/1/2
f 24/1/2 23/1/2 22/1/2
f 27/1/1 26/1/1 25/1/1
f 26/1/1 27/1/1 28/1/1
f 28/1/1 27/1/1 29/1/1
f 28/1/1 29/1/1 30/1/1
f 30/1/1 29/1/1 31/1/1
f 30/1/1 31/1/1 32/1/1
f 25/1/2 26/1/2 27/1/2
f 28/1/2 27/1/2 26/1/2
f 29/1/2 27/1/2 28/1/2
f 30/1/2 29/1/2 28/1/2
f 31/1/2 29/1/2 30/1/2
f 32/1/2 31/1/2 30/1/2
f 35/2/2 34/2/2 33/2/2
f 34/2/2 35/2/2 36/2/2
f 36/2/2 35/2/2 37/2/2
f 36/2/2 37/2/2 38/2/2
f 38/2/2 37/2/2 39/2/2
f 38/2/2 39/2/2 40/2/2
f 33/2/1 34/2/1 35/2/1
f 36/2/1 35/2/1 34/2/1
f 37/2/1 35/2/1 36/2/1
f 38/2/1 37/2/1 36/2/1
f 39/2/1 37/2/1 38/2/1
f 40/2/1 39/2/1 38/2/1
f 20/1/3 37/2/4 35/2/3
f 37/2/4 20/1/3 22/1/4
f 35/2/5 37/2/6 20/1/5
f 22/1/6 20/1/5 37/2/6
f 20/1/3 33/2/7 18/1/7
f 33/2/7 20/1/3 35/2/3
f 18/1/8 33/2/8 20/1/5
f 35/2/5 20/1/5 33/2/8
f 18/1/7 34/2/9 17/1/9
f 34/2/9 18/1/7 33/2/7
f 17/1/10 34/2/10 18/1/8
f 33/2/8 18/1/8 34/2/10
f 17/1/9 36/2/6 19/1/6
f 36/2/6 17/1/9 34/2/9
f 19/1/4 36/2/4 17/1/10
f 34/2/10 17/1/10 36/2/4
f 21/1/5 36/2/6 38/2/5
f 36/2/6 21/1/5 19/1/6
f 38/2/3 36/2/4 21/1/3
f 19/1/4 21/1/3 36/2/4
f 40/2/8 21/1/5 38/2/5
f 21/1/5 40/2/8 23/1/8
f 38/2/3 21/1/3 40/2/7
f 23/1/7 40/2/7 21/1/3
f 39/2/10 23/1/8 40/2/8
f 23/1/8 39/2/10 24/1/10
f 40/2/7 23/1/7 39/2/9
f 24/1/9 39/2/9 23/1/7
f 37/2/4 24/1/10 39/2/10
f 24/1/10 37/2/4 22/1/4
f 39/2/9 24/1/9 37/2/6
f 22/1/6 37/2/6 24/1/9
f 43/2/2 42/2/2 41/2/2
f 42/2/2 43/2/2 44/2/2
f 44/2/2 43/2/2 45/2/2
f 44/2/2 45/2/2 46/2/2
f 46/2/2 45/2/2 47/2/2
f 46/2/2 47/2/2 48/2/2
f 41/2/1 42/2/1 43/2/1
f 44/2/1 43/2/1 42/2/1
f 45/2/1 43/2/1 44/2/1
f 46/2/1 45/2/1 44/2/1
f 47/2/1 45/2/1 46/2/1
f 48/2/1 47/2/1 46/2/1
f 4/1/3 45/2/4 43/2/3
f 45/2/4 4/1/3 6/1/4
f 43/2/5 45/2/6 4/1/5
f 6/1/6 4/1/5 45/2/6
f 4/1/3 41/2/7 2/1/7
f 41/2/7 4/1/3 43/2/3
f 2/1/8 41/2/8 4/1/5
f 43/2/5 4/1/5 41/2/8
f 2/1/7 42/2/9 1/1/9
f 42/2/9 2/1/7 41/2/7
f 1/1/10 42/2/10 2/1/8
f 41/2/8 2/1/8 42/2/10
f 1/1/9 44/2/6 3/1/6
f 44/2/6 1/1/9 42/2/9
f 3/1/4 44/2/4 1/1/10
f 42/2/10 1/1/10 44/2/4
f 5/1/5 44/2/6 46/2/5
f 44/2/6 5/1/5 3/1/6
f 46/2/3 44/2/4 5/1/3
f 3/1/4 5/1/3 44/2/4
f 48/2/8 5/1/5 46/2/5
f 5/1/5 48/2/8 7/1/8
f 46/2/3 5/1/3 48/2/7
f 7/1/7 48/2/7 5/1/3
f 47/2/10 7/1/8 48/2/8
f 7/1/8 47/2/10 8/1/10
f 48/2/7 7/1/7 47/2/9
f 8/1/9 47/2/9 7/1/7
f 45/2/4 8/1/10 47/2/10
f 8/1/10 45/2/4 6/1/4
f 47/2/9 8/1/9 45/2/6
f 6/1/6 45/2/6 8/1/9
f 51/2/2 50/2/2 49/2/2
f 50/2/2 51/2/2 52/2/2
f 52/2/2 51/2/2 53/2/2
f 52/2/2 53/2/2 54/2/2
f 54/2/2 53/2/2 55/2/2
f 54/2/2 55/2/2 56/2/2
f 49/2/1 50/2/1 51/2/1
f 52/2/1 51/2/1 50/2/1
f 53/2/1 51/2/1 52/2/1
f 54/2/1 53/2/1 52/2/1
f 55/2/1 53/2/1 54/2/1
f 56/2/1 55/2/1 54/2/1
f 12/1/3 53/2/4 51/2/3
f 53/2/4 12/1/3 14/1/4
f 51/2/5 53/2/6 12/1/5
f 14/1/6 12/1/5 53/2/6
f 12/1/3 49/2/7 10/1/7
f 49/2/7 12/1/3 51/2/3
f 10/1/8 49/2/8 12/1/5
f 51/2/5 12/1/5 49/2/8
f 10/1/7 50/2/9 9/1/9
f 50/2/9 10/1/7 49/2/7
f 9/1/10 50/2/10 10/1/8
f 49/2/8 10/1/8 50/2/10
f 9/1/9 52/2/6 11/1/6
f 52/2/6 9/1/9 50/2/9
f 11/1/4 52/2/4 9/1/10
f 50/2/10 9/1/10 52/2/4
f 13/1/5 52/2/6 54/2/5
f 52/2/6 13/1/5 11/1/6
f 54/2/3 52/2/4 13/1/3
f 11/1/4 13/1/3 52/2/4
f 56/2/8 13/1/5 54/2/5
f 13/1/5 56/2/8 15/1/8
f 54/2/3 13/1/3 56/2/7
f 15/1/7 56/2/7 13/1/3
f 55/2/10 15/1/8 56/2/8
f 15/1/8 55/2/10 16/1/10
f 56/2/7 15/1/7 55/2/9
f 16/1/9 55/2/9 15/1/7
f 53/2/4 16/1/10 55/2/10
f 16/1/10 53/2/4 14/1/4
f 55/2/9 16/1/9 53/2/6
f 14/1/6 53/2/6 16/1/9
f 59/2/2 58/2/2 57/2/2
f 58/2/2 59/2/2 60/2/2
f 60/2/2 59/2/2 61/2/2
f 60/2/2 61/2/2 62/2/2
f 62/2/2 61/2/2 63/2/2
f 62/2/2 63/2/2 64/2/2
f 57/2/1 58/2/1 59/2/1
f 60/2/1 59/2/1 58/2/1
f 61/2/1 59/2/1 60/2/1
f 62/2/1 61/2/1 60/2/1
f 63/2/1 61/2/1 62/2/1
f 64/2/1 63/2/1 62/2/1
f 28/1/3 61/2/4 59/2/3
f 61/2/4 28/1/3 30/1/4
f 59/2/5 61/2/6 28/1/5
f 30/1/6 28/1/5 61/2/6
f 28/1/3 57/2/7 26/1/7
f 57/2/7 28/1/3 59/2/3
f 26/1/8 57/2/8 28/1/5
f 59/2/5 28/1/5 57/2/8
f 26/1/7 58/2/9 25/1/9
f 58/2/9 26/1/7 57/2/7
f 25/1/10 58/2/10 26/1/8
f 57/2/8 26/1/8 58/2/10
f 25/1/9 60/2/6 27/1/6
f 60/2/6 25/1/9 58/2/9
f 27/1/4 60/2/4 25/1/10
f 58/2/10 25/1/10 60/2/4
f 29/1/5 60/2/6 62/2/5
f 60/2/6 29/1/5 27/1/6
f 62/2/3 60/2/4 29/1/3
f 27/1/4 29/1/3 60/2/4
f 64/2/8 29/1/5 62/2/5
f 29/1/5 64/2/8 31/1/8
f 62/2/3 29/1/3 64/2/7
f 31/1/7 64/2/7 29/1/3
f 63/2/10 31/1/8 64/2/8
f 31/1/8 63/2/10 32/1/10
f 64/2/7 31/1/7 63/2/9
f 32/1/9 63/2/9 31/1/7
f 61/2/4 32/1/10 63/2/10
f 32/1/10 61/2/4 30/1/4
f 63/2/9 32/1/9 61/2/6
f 30/1/6 61/2/6 32/1/9

