# Created by Kenney (www.kenney.nl)

mtllib support.mtl

g support

v -0.2 -9.023893E-17 0.1 1 1 1
v -0.2 1 0.1 1 1 1
v -0.1 -9.023893E-17 0.2 1 1 1
v -0.1 1 0.2 1 1 1
v 0.2 1 -0.1 1 1 1
v 0.2 1 0.1 1 1 1
v 0.1 1 -0.2 1 1 1
v 0.1 1 0.2 1 1 1
v -0.1 1 -0.2 1 1 1
v -0.2 1 -0.1 1 1 1
v -0.1 -9.023893E-17 -0.2 1 1 1
v 0.1 -9.023893E-17 -0.2 1 1 1
v -0.2 -9.023893E-17 -0.1 1 1 1
v 0.1 -9.023893E-17 0.2 1 1 1
v 0.2 -9.023893E-17 -0.1 1 1 1
v 0.2 -9.023893E-17 0.1 1 1 1

vn -0.9238795 0 0.3826834
vn -0.3826834 0 0.9238795
vn 0 1 0
vn -0.3826834 0 -0.9238795
vn 0.3826834 0 -0.9238795
vn -0.9238795 0 -0.3826834
vn 0.3826834 0 0.9238795
vn 0.9238795 0 -0.3826834
vn 0.9238795 0 0.3826834
vn 0 -1 0

vt 0.21875 0.025
vt 0.21875 0.225

usemtl colormap

f 3/1/2 2/2/1 1/1/1
f 2/2/1 3/1/2 4/2/2
f 7/2/3 6/2/3 5/2/3
f 6/2/3 7/2/3 8/2/3
f 8/2/3 7/2/3 9/2/3
f 8/2/3 9/2/3 4/2/3
f 4/2/3 9/2/3 10/2/3
f 4/2/3 10/2/3 2/2/3
f 9/2/4 12/1/5 11/1/4
f 12/1/5 9/2/4 7/2/5
f 10/2/6 11/1/4 13/1/6
f 11/1/4 10/2/6 9/2/4
f 8/2/7 3/1/2 14/1/7
f 3/1/2 8/2/7 4/2/2
f 1/1/1 10/2/6 13/1/6
f 10/2/6 1/1/1 2/2/1
f 5/2/8 12/1/5 7/2/5
f 12/1/5 5/2/8 15/1/8
f 6/2/9 15/1/8 5/2/8
f 15/1/8 6/2/9 16/1/9
f 8/2/7 16/1/9 6/2/9
f 16/1/9 8/2/7 14/1/7
f 14/1/10 15/1/10 16/1/10
f 15/1/10 14/1/10 12/1/10
f 12/1/10 14/1/10 3/1/10
f 12/1/10 3/1/10 11/1/10
f 11/1/10 3/1/10 1/1/10
f 11/1/10 1/1/10 13/1/10

g support




usemtl colormap

f 3/1/2 2/2/1 1/1/1
f 2/2/1 3/1/2 4/2/2
f 7/2/3 6/2/3 5/2/3
f 6/2/3 7/2/3 8/2/3
f 8/2/3 7/2/3 9/2/3
f 8/2/3 9/2/3 4/2/3
f 4/2/3 9/2/3 10/2/3
f 4/2/3 10/2/3 2/2/3
f 9/2/4 12/1/5 11/1/4
f 12/1/5 9/2/4 7/2/5
f 10/2/6 11/1/4 13/1/6
f 11/1/4 10/2/6 9/2/4
f 8/2/7 3/1/2 14/1/7
f 3/1/2 8/2/7 4/2/2
f 1/1/1 10/2/6 13/1/6
f 10/2/6 1/1/1 2/2/1
f 5/2/8 12/1/5 7/2/5
f 12/1/5 5/2/8 15/1/8
f 6/2/9 15/1/8 5/2/8
f 15/1/8 6/2/9 16/1/9
f 8/2/7 16/1/9 6/2/9
f 16/1/9 8/2/7 14/1/7
f 14/1/10 15/1/10 16/1/10
f 15/1/10 14/1/10 12/1/10
f 12/1/10 14/1/10 3/1/10
f 12/1/10 3/1/10 11/1/10
f 11/1/10 3/1/10 1/1/10
f 11/1/10 1/1/10 13/1/10

