# Created by Kenney (www.kenney.nl)

mtllib tunnel-double.mtl

g tunnel-double

v 0.49995 0 -0.49995 1 1 1
v -0.49995 0 -0.49995 1 1 1
v 0.49995 0 0.49995 1 1 1
v -0.49995 0 0.49995 1 1 1
v 0.49995 0.146652 -0.49995 1 1 1
v 0.49995 0.146652 0.49995 1 1 1
v -0.49995 0.146652 -0.49995 1 1 1
v -0.49995 0.146652 0.49995 1 1 1
v 0.39996 0.146652 -0.49995 1 1 1
v 0.39996 0.146652 0.49995 1 1 1
v 0.39996 0.063327 -0.49995 1 1 1
v 0.39996 0.063327 0.49995 1 1 1
v -0.39996 0.146652 -0.49995 1 1 1
v -0.39996 0.063327 -0.49995 1 1 1
v -0.39996 0.146652 0.49995 1 1 1
v -0.39996 0.063327 0.49995 1 1 1
v -0.39996 0.063327 -0.39996 1 1 1
v -0.29997 0.063327 -0.39996 1 1 1
v -0.39996 0.296637 -0.39996 1 1 1
v -0.29997 0.129987 -0.39996 1 1 1
v -0.2965629 0.1558663 -0.39996 1 1 1
v -0.2865739 0.179982 -0.39996 1 1 1
v -0.2706836 0.2006906 -0.39996 1 1 1
v -0.249975 0.2165809 -0.39996 1 1 1
v -0.2258593 0.2265699 -0.39996 1 1 1
v -0.19998 0.229977 -0.39996 1 1 1
v 0.19998 0.229977 -0.39996 1 1 1
v 0.39996 0.296637 -0.39996 1 1 1
v 0.1741007 0.2265699 -0.39996 1 1 1
v -0.1741007 0.2265699 -0.39996 1 1 1
v 0.149985 0.2165809 -0.39996 1 1 1
v -0.149985 0.2165809 -0.39996 1 1 1
v 0.1292764 0.2006906 -0.39996 1 1 1
v -0.1292764 0.2006906 -0.39996 1 1 1
v 0.1133861 0.179982 -0.39996 1 1 1
v -0.1133861 0.179982 -0.39996 1 1 1
v 0.1033971 0.1558663 -0.39996 1 1 1
v -0.1033971 0.1558663 -0.39996 1 1 1
v 0.09999 0.129987 -0.39996 1 1 1
v -0.09999 0.129987 -0.39996 1 1 1
v 0.09999 0.063327 -0.39996 1 1 1
v -0.09999 0.063327 -0.39996 1 1 1
v 0.2258593 0.2265699 -0.39996 1 1 1
v 0.249975 0.2165809 -0.39996 1 1 1
v 0.2706836 0.2006906 -0.39996 1 1 1
v 0.2865739 0.179982 -0.39996 1 1 1
v 0.2965629 0.1558663 -0.39996 1 1 1
v 0.29997 0.129987 -0.39996 1 1 1
v 0.39996 0.063327 -0.39996 1 1 1
v 0.29997 0.063327 -0.39996 1 1 1
v 0.39996 0.063327 0.39996 1 1 1
v 0.29997 0.063327 0.39996 1 1 1
v 0.39996 0.296637 0.39996 1 1 1
v 0.29997 0.129987 0.39996 1 1 1
v 0.2965629 0.1558663 0.39996 1 1 1
v 0.2865739 0.179982 0.39996 1 1 1
v 0.2706836 0.2006906 0.39996 1 1 1
v 0.249975 0.2165809 0.39996 1 1 1
v 0.2258593 0.2265699 0.39996 1 1 1
v 0.19998 0.229977 0.39996 1 1 1
v -0.19998 0.229977 0.39996 1 1 1
v -0.39996 0.296637 0.39996 1 1 1
v 0.1741007 0.2265699 0.39996 1 1 1
v -0.1741007 0.2265699 0.39996 1 1 1
v 0.149985 0.2165809 0.39996 1 1 1
v -0.149985 0.2165809 0.39996 1 1 1
v 0.1292764 0.2006906 0.39996 1 1 1
v -0.1292764 0.2006906 0.39996 1 1 1
v 0.1133861 0.179982 0.39996 1 1 1
v -0.1133861 0.179982 0.39996 1 1 1
v -0.2258593 0.2265699 0.39996 1 1 1
v 0.1033971 0.1558663 0.39996 1 1 1
v -0.1033971 0.1558663 0.39996 1 1 1
v -0.09999 0.129987 0.39996 1 1 1
v 0.09999 0.129987 0.39996 1 1 1
v -0.09999 0.063327 0.39996 1 1 1
v 0.09999 0.063327 0.39996 1 1 1
v -0.249975 0.2165809 0.39996 1 1 1
v -0.2706836 0.2006906 0.39996 1 1 1
v -0.2865739 0.179982 0.39996 1 1 1
v -0.2965629 0.1558663 0.39996 1 1 1
v -0.29997 0.129987 0.39996 1 1 1
v -0.39996 0.063327 0.39996 1 1 1
v -0.29997 0.063327 0.39996 1 1 1

vn 0 -1 0
vn 1 0 0
vn -1 0 0
vn 0 1 0
vn 0 0 -1
vn 0 0 1
vn -0.9978589 -0.06540313 0
vn -0.9659258 -0.258819 0
vn -0.8660254 -0.5 0
vn -0.7071068 -0.7071068 0
vn -0.5 -0.8660254 0
vn -0.258819 -0.9659258 0
vn 0.258819 -0.9659258 0
vn 0.5 -0.8660254 0
vn 0.7071068 -0.7071068 0
vn 0.8660254 -0.5 0
vn 0.9659258 -0.258819 0
vn 0.9978589 -0.06540313 0

vt 0.21875 0.025
vt 0.21875 0.225
vt 0.21875 0.1113636
vt 0.09375 0.275
vt 0.09375 0.475
vt 0.09375 0.3321429
vt 0.09375 0.3543274
vt 0.09375 0.375
vt 0.09375 0.392752
vt 0.09375 0.4063736
vt 0.09375 0.4149365
vt 0.09375 0.4178571
vt 0.03125 0.125

usemtl colormap

f 3/1/1 2/1/1 1/1/1
f 2/1/1 3/1/1 4/1/1
f 6/2/2 1/1/2 5/2/2
f 1/1/2 6/2/2 3/1/2
f 4/1/3 7/2/3 2/1/3
f 7/2/3 4/1/3 8/2/3
f 9/2/4 6/2/4 5/2/4
f 6/2/4 9/2/4 10/2/4
f 12/3/3 9/2/3 11/3/3
f 9/2/3 12/3/3 10/2/3
f 14/3/5 7/2/5 13/2/5
f 14/3/5 2/1/5 7/2/5
f 2/1/5 14/3/5 1/1/5
f 11/3/5 1/1/5 14/3/5
f 1/1/5 11/3/5 5/2/5
f 5/2/5 11/3/5 9/2/5
f 15/2/2 14/3/2 13/2/2
f 14/3/2 15/2/2 16/3/2
f 12/3/6 6/2/6 10/2/6
f 12/3/6 3/1/6 6/2/6
f 3/1/6 12/3/6 4/1/6
f 16/3/6 4/1/6 12/3/6
f 4/1/6 16/3/6 8/2/6
f 8/2/6 16/3/6 15/2/6
f 7/2/4 15/2/4 13/2/4
f 15/2/4 7/2/4 8/2/4
f 19/5/5 18/4/5 17/4/5
f 18/4/5 19/5/5 20/6/5
f 20/6/5 19/5/5 21/7/5
f 21/7/5 19/5/5 22/8/5
f 22/8/5 19/5/5 23/9/5
f 23/9/5 19/5/5 24/10/5
f 24/10/5 19/5/5 25/11/5
f 25/11/5 19/5/5 26/12/5
f 26/12/5 19/5/5 27/12/5
f 28/5/5 27/12/5 19/5/5
f 29/11/5 26/12/5 27/12/5
f 29/11/5 30/11/5 26/12/5
f 31/10/5 30/11/5 29/11/5
f 31/10/5 32/10/5 30/11/5
f 33/9/5 32/10/5 31/10/5
f 33/9/5 34/9/5 32/10/5
f 35/8/5 34/9/5 33/9/5
f 35/8/5 36/8/5 34/9/5
f 37/7/5 36/8/5 35/8/5
f 37/7/5 38/7/5 36/8/5
f 39/6/5 38/7/5 37/7/5
f 39/6/5 40/6/5 38/7/5
f 41/4/5 40/6/5 39/6/5
f 40/6/5 41/4/5 42/4/5
f 28/5/5 43/11/5 27/12/5
f 28/5/5 44/10/5 43/11/5
f 28/5/5 45/9/5 44/10/5
f 28/5/5 46/8/5 45/9/5
f 28/5/5 47/7/5 46/8/5
f 28/5/5 48/6/5 47/7/5
f 49/4/5 48/6/5 28/5/5
f 48/6/5 49/4/5 50/4/5
f 53/5/6 52/4/6 51/4/6
f 52/4/6 53/5/6 54/6/6
f 54/6/6 53/5/6 55/7/6
f 55/7/6 53/5/6 56/8/6
f 56/8/6 53/5/6 57/9/6
f 57/9/6 53/5/6 58/10/6
f 58/10/6 53/5/6 59/11/6
f 59/11/6 53/5/6 60/12/6
f 60/12/6 53/5/6 61/12/6
f 62/5/6 61/12/6 53/5/6
f 61/12/6 63/11/6 60/12/6
f 64/11/6 63/11/6 61/12/6
f 64/11/6 65/10/6 63/11/6
f 66/10/6 65/10/6 64/11/6
f 66/10/6 67/9/6 65/10/6
f 68/9/6 67/9/6 66/10/6
f 68/9/6 69/8/6 67/9/6
f 70/8/6 69/8/6 68/9/6
f 62/5/6 71/11/6 61/12/6
f 70/8/6 72/7/6 69/8/6
f 73/7/6 72/7/6 70/8/6
f 74/6/6 72/7/6 73/7/6
f 74/6/6 75/6/6 72/7/6
f 76/4/6 75/6/6 74/6/6
f 75/6/6 76/4/6 77/4/6
f 62/5/6 78/10/6 71/11/6
f 62/5/6 79/9/6 78/10/6
f 62/5/6 80/8/6 79/9/6
f 62/5/6 81/7/6 80/8/6
f 62/5/6 82/6/6 81/7/6
f 83/4/6 82/6/6 62/5/6
f 82/6/6 83/4/6 84/4/6
f 19/5/4 53/5/4 28/5/4
f 53/5/4 19/5/4 62/5/4
f 53/5/2 49/4/2 28/5/2
f 49/4/2 53/5/2 51/4/2
f 52/4/3 48/6/7 50/4/3
f 48/6/7 52/4/3 54/6/7
f 54/6/7 47/7/8 48/6/7
f 47/7/8 54/6/7 55/7/8
f 55/7/8 46/8/9 47/7/8
f 46/8/9 55/7/8 56/8/9
f 56/8/9 45/9/10 46/8/9
f 45/9/10 56/8/9 57/9/10
f 57/9/10 44/10/11 45/9/10
f 44/10/11 57/9/10 58/10/11
f 58/10/11 43/11/12 44/10/11
f 43/11/12 58/10/11 59/11/12
f 59/11/12 27/12/1 43/11/12
f 27/12/1 59/11/12 60/12/1
f 60/12/1 29/11/13 27/12/1
f 29/11/13 60/12/1 63/11/13
f 63/11/13 31/10/14 29/11/13
f 31/10/14 63/11/13 65/10/14
f 65/10/14 33/9/15 31/10/14
f 33/9/15 65/10/14 67/9/15
f 67/9/15 35/8/16 33/9/15
f 35/8/16 67/9/15 69/8/16
f 69/8/16 37/7/17 35/8/16
f 37/7/17 69/8/16 72/7/17
f 72/7/17 39/6/18 37/7/17
f 39/6/18 72/7/17 75/6/18
f 39/6/18 77/4/2 41/4/2
f 77/4/2 39/6/18 75/6/18
f 76/4/3 40/6/7 42/4/3
f 40/6/7 76/4/3 74/6/7
f 74/6/7 38/7/8 40/6/7
f 38/7/8 74/6/7 73/7/8
f 73/7/8 36/8/9 38/7/8
f 36/8/9 73/7/8 70/8/9
f 70/8/9 34/9/10 36/8/9
f 34/9/10 70/8/9 68/9/10
f 68/9/10 32/10/11 34/9/10
f 32/10/11 68/9/10 66/10/11
f 66/10/11 30/11/12 32/10/11
f 30/11/12 66/10/11 64/11/12
f 64/11/12 26/12/1 30/11/12
f 26/12/1 64/11/12 61/12/1
f 61/12/1 25/11/13 26/12/1
f 25/11/13 61/12/1 71/11/13
f 71/11/13 24/10/14 25/11/13
f 24/10/14 71/11/13 78/10/14
f 78/10/14 23/9/15 24/10/14
f 23/9/15 78/10/14 79/9/15
f 79/9/15 22/8/16 23/9/15
f 22/8/16 79/9/15 80/8/16
f 80/8/16 21/7/17 22/8/16
f 21/7/17 80/8/16 81/7/17
f 83/4/3 19/5/3 17/4/3
f 19/5/3 83/4/3 62/5/3
f 81/7/17 20/6/18 21/7/17
f 20/6/18 81/7/17 82/6/18
f 82/6/18 18/4/2 20/6/18
f 18/4/2 82/6/18 84/4/2
f 14/13/4 12/13/4 11/13/4
f 12/13/4 14/13/4 16/13/4

g tunnel-double




usemtl colormap

f 3/1/1 2/1/1 1/1/1
f 2/1/1 3/1/1 4/1/1
f 6/2/2 1/1/2 5/2/2
f 1/1/2 6/2/2 3/1/2
f 4/1/3 7/2/3 2/1/3
f 7/2/3 4/1/3 8/2/3
f 9/2/4 6/2/4 5/2/4
f 6/2/4 9/2/4 10/2/4
f 12/3/3 9/2/3 11/3/3
f 9/2/3 12/3/3 10/2/3
f 14/3/5 7/2/5 13/2/5
f 14/3/5 2/1/5 7/2/5
f 2/1/5 14/3/5 1/1/5
f 11/3/5 1/1/5 14/3/5
f 1/1/5 11/3/5 5/2/5
f 5/2/5 11/3/5 9/2/5
f 15/2/2 14/3/2 13/2/2
f 14/3/2 15/2/2 16/3/2
f 12/3/6 6/2/6 10/2/6
f 12/3/6 3/1/6 6/2/6
f 3/1/6 12/3/6 4/1/6
f 16/3/6 4/1/6 12/3/6
f 4/1/6 16/3/6 8/2/6
f 8/2/6 16/3/6 15/2/6
f 7/2/4 15/2/4 13/2/4
f 15/2/4 7/2/4 8/2/4
f 19/5/5 18/4/5 17/4/5
f 18/4/5 19/5/5 20/6/5
f 20/6/5 19/5/5 21/7/5
f 21/7/5 19/5/5 22/8/5
f 22/8/5 19/5/5 23/9/5
f 23/9/5 19/5/5 24/10/5
f 24/10/5 19/5/5 25/11/5
f 25/11/5 19/5/5 26/12/5
f 26/12/5 19/5/5 27/12/5
f 28/5/5 27/12/5 19/5/5
f 29/11/5 26/12/5 27/12/5
f 29/11/5 30/11/5 26/12/5
f 31/10/5 30/11/5 29/11/5
f 31/10/5 32/10/5 30/11/5
f 33/9/5 32/10/5 31/10/5
f 33/9/5 34/9/5 32/10/5
f 35/8/5 34/9/5 33/9/5
f 35/8/5 36/8/5 34/9/5
f 37/7/5 36/8/5 35/8/5
f 37/7/5 38/7/5 36/8/5
f 39/6/5 38/7/5 37/7/5
f 39/6/5 40/6/5 38/7/5
f 41/4/5 40/6/5 39/6/5
f 40/6/5 41/4/5 42/4/5
f 28/5/5 43/11/5 27/12/5
f 28/5/5 44/10/5 43/11/5
f 28/5/5 45/9/5 44/10/5
f 28/5/5 46/8/5 45/9/5
f 28/5/5 47/7/5 46/8/5
f 28/5/5 48/6/5 47/7/5
f 49/4/5 48/6/5 28/5/5
f 48/6/5 49/4/5 50/4/5
f 53/5/6 52/4/6 51/4/6
f 52/4/6 53/5/6 54/6/6
f 54/6/6 53/5/6 55/7/6
f 55/7/6 53/5/6 56/8/6
f 56/8/6 53/5/6 57/9/6
f 57/9/6 53/5/6 58/10/6
f 58/10/6 53/5/6 59/11/6
f 59/11/6 53/5/6 60/12/6
f 60/12/6 53/5/6 61/12/6
f 62/5/6 61/12/6 53/5/6
f 61/12/6 63/11/6 60/12/6
f 64/11/6 63/11/6 61/12/6
f 64/11/6 65/10/6 63/11/6
f 66/10/6 65/10/6 64/11/6
f 66/10/6 67/9/6 65/10/6
f 68/9/6 67/9/6 66/10/6
f 68/9/6 69/8/6 67/9/6
f 70/8/6 69/8/6 68/9/6
f 62/5/6 71/11/6 61/12/6
f 70/8/6 72/7/6 69/8/6
f 73/7/6 72/7/6 70/8/6
f 74/6/6 72/7/6 73/7/6
f 74/6/6 75/6/6 72/7/6
f 76/4/6 75/6/6 74/6/6
f 75/6/6 76/4/6 77/4/6
f 62/5/6 78/10/6 71/11/6
f 62/5/6 79/9/6 78/10/6
f 62/5/6 80/8/6 79/9/6
f 62/5/6 81/7/6 80/8/6
f 62/5/6 82/6/6 81/7/6
f 83/4/6 82/6/6 62/5/6
f 82/6/6 83/4/6 84/4/6
f 19/5/4 53/5/4 28/5/4
f 53/5/4 19/5/4 62/5/4
f 53/5/2 49/4/2 28/5/2
f 49/4/2 53/5/2 51/4/2
f 52/4/3 48/6/7 50/4/3
f 48/6/7 52/4/3 54/6/7
f 54/6/7 47/7/8 48/6/7
f 47/7/8 54/6/7 55/7/8
f 55/7/8 46/8/9 47/7/8
f 46/8/9 55/7/8 56/8/9
f 56/8/9 45/9/10 46/8/9
f 45/9/10 56/8/9 57/9/10
f 57/9/10 44/10/11 45/9/10
f 44/10/11 57/9/10 58/10/11
f 58/10/11 43/11/12 44/10/11
f 43/11/12 58/10/11 59/11/12
f 59/11/12 27/12/1 43/11/12
f 27/12/1 59/11/12 60/12/1
f 60/12/1 29/11/13 27/12/1
f 29/11/13 60/12/1 63/11/13
f 63/11/13 31/10/14 29/11/13
f 31/10/14 63/11/13 65/10/14
f 65/10/14 33/9/15 31/10/14
f 33/9/15 65/10/14 67/9/15
f 67/9/15 35/8/16 33/9/15
f 35/8/16 67/9/15 69/8/16
f 69/8/16 37/7/17 35/8/16
f 37/7/17 69/8/16 72/7/17
f 72/7/17 39/6/18 37/7/17
f 39/6/18 72/7/17 75/6/18
f 39/6/18 77/4/2 41/4/2
f 77/4/2 39/6/18 75/6/18
f 76/4/3 40/6/7 42/4/3
f 40/6/7 76/4/3 74/6/7
f 74/6/7 38/7/8 40/6/7
f 38/7/8 74/6/7 73/7/8
f 73/7/8 36/8/9 38/7/8
f 36/8/9 73/7/8 70/8/9
f 70/8/9 34/9/10 36/8/9
f 34/9/10 70/8/9 68/9/10
f 68/9/10 32/10/11 34/9/10
f 32/10/11 68/9/10 66/10/11
f 66/10/11 30/11/12 32/10/11
f 30/11/12 66/10/11 64/11/12
f 64/11/12 26/12/1 30/11/12
f 26/12/1 64/11/12 61/12/1
f 61/12/1 25/11/13 26/12/1
f 25/11/13 61/12/1 71/11/13
f 71/11/13 24/10/14 25/11/13
f 24/10/14 71/11/13 78/10/14
f 78/10/14 23/9/15 24/10/14
f 23/9/15 78/10/14 79/9/15
f 79/9/15 22/8/16 23/9/15
f 22/8/16 79/9/15 80/8/16
f 80/8/16 21/7/17 22/8/16
f 21/7/17 80/8/16 81/7/17
f 83/4/3 19/5/3 17/4/3
f 19/5/3 83/4/3 62/5/3
f 81/7/17 20/6/18 21/7/17
f 20/6/18 81/7/17 82/6/18
f 82/6/18 18/4/2 20/6/18
f 18/4/2 82/6/18 84/4/2
f 14/13/4 12/13/4 11/13/4
f 12/13/4 14/13/4 16/13/4

