# Created by Kenney (www.kenney.nl)

mtllib tunnel-narrow.mtl

g tunnel-narrow

v 0.49995 0 -0.49995 1 1 1
v -0.49995 0 -0.49995 1 1 1
v 0.49995 0 0.49995 1 1 1
v -0.49995 0 0.49995 1 1 1
v 0.49995 0.146652 -0.49995 1 1 1
v 0.49995 0.146652 0.49995 1 1 1
v -0.49995 0.146652 -0.49995 1 1 1
v -0.49995 0.146652 0.49995 1 1 1
v 0.39996 0.146652 -0.49995 1 1 1
v 0.39996 0.146652 0.49995 1 1 1
v 0.39996 0.063327 -0.49995 1 1 1
v 0.39996 0.063327 0.49995 1 1 1
v -0.39996 0.146652 -0.49995 1 1 1
v -0.39996 0.063327 -0.49995 1 1 1
v -0.39996 0.146652 0.49995 1 1 1
v -0.39996 0.063327 0.49995 1 1 1
v 0.39996 0.063327 0.39996 1 1 1
v 0.09999 0.063327 0.39996 1 1 1
v 0.39996 0.296637 0.39996 1 1 1
v 0.09999 0.129987 0.39996 1 1 1
v 0.09658293 0.1558663 0.39996 1 1 1
v 0.08659388 0.179982 0.39996 1 1 1
v 0.0707036 0.2006906 0.39996 1 1 1
v 0.049995 0.2165809 0.39996 1 1 1
v 0.02587932 0.2265699 0.39996 1 1 1
v 7.45284E-10 0.229977 0.39996 1 1 1
v -0.39996 0.296637 0.39996 1 1 1
v -0.02587932 0.2265699 0.39996 1 1 1
v -0.049995 0.2165809 0.39996 1 1 1
v -0.0707036 0.2006906 0.39996 1 1 1
v -0.08659388 0.179982 0.39996 1 1 1
v -0.09658293 0.1558663 0.39996 1 1 1
v -0.09999 0.129987 0.39996 1 1 1
v -0.39996 0.063327 0.39996 1 1 1
v -0.09999 0.063327 0.39996 1 1 1
v -0.39996 0.063327 -0.39996 1 1 1
v -0.39996 0.296637 -0.39996 1 1 1
v 0.39996 0.296637 -0.39996 1 1 1
v 0.39996 0.063327 -0.39996 1 1 1
v 0.09999 0.063327 -0.39996 1 1 1
v 0.09999 0.129987 -0.39996 1 1 1
v 0.09658293 0.1558663 -0.39996 1 1 1
v 0.08659388 0.179982 -0.39996 1 1 1
v 0.0707036 0.2006906 -0.39996 1 1 1
v 0.049995 0.2165809 -0.39996 1 1 1
v 0.02587932 0.2265699 -0.39996 1 1 1
v 7.452898E-10 0.229977 -0.39996 1 1 1
v -0.02587932 0.2265699 -0.39996 1 1 1
v -0.049995 0.2165809 -0.39996 1 1 1
v -0.0707036 0.2006906 -0.39996 1 1 1
v -0.08659388 0.179982 -0.39996 1 1 1
v -0.09658293 0.1558663 -0.39996 1 1 1
v -0.09999 0.129987 -0.39996 1 1 1
v -0.09999 0.063327 -0.39996 1 1 1

vn 0 -1 0
vn 1 0 0
vn -1 0 0
vn 0 1 0
vn 0 0 -1
vn 0 0 1
vn -0.9978589 -0.06540313 0
vn -0.9659258 -0.258819 0
vn -0.8660254 -0.5 0
vn -0.7071068 -0.7071068 0
vn -0.5 -0.8660254 0
vn -0.258819 -0.9659258 0
vn 0.258819 -0.9659258 0
vn 0.5 -0.8660254 0
vn 0.7071068 -0.7071068 0
vn 0.8660254 -0.5 0
vn 0.9659258 -0.258819 0
vn 0.9978589 -0.06540313 0

vt 0.21875 0.025
vt 0.21875 0.225
vt 0.21875 0.1113636
vt 0.09375 0.275
vt 0.09375 0.475
vt 0.09375 0.3321429
vt 0.09375 0.3543274
vt 0.09375 0.375
vt 0.09375 0.392752
vt 0.09375 0.4063736
vt 0.09375 0.4149365
vt 0.09375 0.4178571
vt 0.03125 0.125

usemtl colormap

f 3/1/1 2/1/1 1/1/1
f 2/1/1 3/1/1 4/1/1
f 6/2/2 1/1/2 5/2/2
f 1/1/2 6/2/2 3/1/2
f 4/1/3 7/2/3 2/1/3
f 7/2/3 4/1/3 8/2/3
f 9/2/4 6/2/4 5/2/4
f 6/2/4 9/2/4 10/2/4
f 12/3/3 9/2/3 11/3/3
f 9/2/3 12/3/3 10/2/3
f 14/3/5 7/2/5 13/2/5
f 14/3/5 2/1/5 7/2/5
f 2/1/5 14/3/5 1/1/5
f 11/3/5 1/1/5 14/3/5
f 1/1/5 11/3/5 5/2/5
f 5/2/5 11/3/5 9/2/5
f 15/2/2 14/3/2 13/2/2
f 14/3/2 15/2/2 16/3/2
f 12/3/6 6/2/6 10/2/6
f 12/3/6 3/1/6 6/2/6
f 3/1/6 12/3/6 4/1/6
f 16/3/6 4/1/6 12/3/6
f 4/1/6 16/3/6 8/2/6
f 8/2/6 16/3/6 15/2/6
f 7/2/4 15/2/4 13/2/4
f 15/2/4 7/2/4 8/2/4
f 19/5/6 18/4/6 17/4/6
f 18/4/6 19/5/6 20/6/6
f 20/6/6 19/5/6 21/7/6
f 21/7/6 19/5/6 22/8/6
f 22/8/6 19/5/6 23/9/6
f 23/9/6 19/5/6 24/10/6
f 24/10/6 19/5/6 25/11/6
f 25/11/6 19/5/6 26/12/6
f 27/5/6 26/12/6 19/5/6
f 27/5/6 28/11/6 26/12/6
f 27/5/6 29/10/6 28/11/6
f 27/5/6 30/9/6 29/10/6
f 27/5/6 31/8/6 30/9/6
f 27/5/6 32/7/6 31/8/6
f 27/5/6 33/6/6 32/7/6
f 34/4/6 33/6/6 27/5/6
f 33/6/6 34/4/6 35/4/6
f 34/4/3 37/5/3 36/4/3
f 37/5/3 34/4/3 27/5/3
f 19/5/2 39/4/2 38/5/2
f 39/4/2 19/5/2 17/4/2
f 18/4/3 41/6/7 40/4/3
f 41/6/7 18/4/3 20/6/7
f 20/6/7 42/7/8 41/6/7
f 42/7/8 20/6/7 21/7/8
f 21/7/8 43/8/9 42/7/8
f 43/8/9 21/7/8 22/8/9
f 22/8/9 44/9/10 43/8/9
f 44/9/10 22/8/9 23/9/10
f 23/9/10 45/10/11 44/9/10
f 45/10/11 23/9/10 24/10/11
f 24/10/11 46/11/12 45/10/11
f 46/11/12 24/10/11 25/11/12
f 37/5/4 19/5/4 38/5/4
f 19/5/4 37/5/4 27/5/4
f 25/11/12 47/12/1 46/11/12
f 47/12/1 25/11/12 26/12/1
f 26/12/1 48/11/13 47/12/1
f 48/11/13 26/12/1 28/11/13
f 28/11/13 49/10/14 48/11/13
f 49/10/14 28/11/13 29/10/14
f 29/10/14 50/9/15 49/10/14
f 50/9/15 29/10/14 30/9/15
f 30/9/15 51/8/16 50/9/15
f 51/8/16 30/9/15 31/8/16
f 32/7/17 53/6/18 52/7/17
f 53/6/18 32/7/17 33/6/18
f 31/8/16 52/7/17 51/8/16
f 52/7/17 31/8/16 32/7/17
f 53/6/18 35/4/2 54/4/2
f 35/4/2 53/6/18 33/6/18
f 37/5/5 54/4/5 36/4/5
f 54/4/5 37/5/5 53/6/5
f 53/6/5 37/5/5 52/7/5
f 52/7/5 37/5/5 51/8/5
f 51/8/5 37/5/5 50/9/5
f 50/9/5 37/5/5 49/10/5
f 49/10/5 37/5/5 48/11/5
f 48/11/5 37/5/5 47/12/5
f 38/5/5 47/12/5 37/5/5
f 38/5/5 46/11/5 47/12/5
f 38/5/5 45/10/5 46/11/5
f 38/5/5 44/9/5 45/10/5
f 38/5/5 43/8/5 44/9/5
f 38/5/5 42/7/5 43/8/5
f 38/5/5 41/6/5 42/7/5
f 39/4/5 41/6/5 38/5/5
f 41/6/5 39/4/5 40/4/5
f 14/13/4 12/13/4 11/13/4
f 12/13/4 14/13/4 16/13/4

g tunnel-narrow




usemtl colormap

f 3/1/1 2/1/1 1/1/1
f 2/1/1 3/1/1 4/1/1
f 6/2/2 1/1/2 5/2/2
f 1/1/2 6/2/2 3/1/2
f 4/1/3 7/2/3 2/1/3
f 7/2/3 4/1/3 8/2/3
f 9/2/4 6/2/4 5/2/4
f 6/2/4 9/2/4 10/2/4
f 12/3/3 9/2/3 11/3/3
f 9/2/3 12/3/3 10/2/3
f 14/3/5 7/2/5 13/2/5
f 14/3/5 2/1/5 7/2/5
f 2/1/5 14/3/5 1/1/5
f 11/3/5 1/1/5 14/3/5
f 1/1/5 11/3/5 5/2/5
f 5/2/5 11/3/5 9/2/5
f 15/2/2 14/3/2 13/2/2
f 14/3/2 15/2/2 16/3/2
f 12/3/6 6/2/6 10/2/6
f 12/3/6 3/1/6 6/2/6
f 3/1/6 12/3/6 4/1/6
f 16/3/6 4/1/6 12/3/6
f 4/1/6 16/3/6 8/2/6
f 8/2/6 16/3/6 15/2/6
f 7/2/4 15/2/4 13/2/4
f 15/2/4 7/2/4 8/2/4
f 19/5/6 18/4/6 17/4/6
f 18/4/6 19/5/6 20/6/6
f 20/6/6 19/5/6 21/7/6
f 21/7/6 19/5/6 22/8/6
f 22/8/6 19/5/6 23/9/6
f 23/9/6 19/5/6 24/10/6
f 24/10/6 19/5/6 25/11/6
f 25/11/6 19/5/6 26/12/6
f 27/5/6 26/12/6 19/5/6
f 27/5/6 28/11/6 26/12/6
f 27/5/6 29/10/6 28/11/6
f 27/5/6 30/9/6 29/10/6
f 27/5/6 31/8/6 30/9/6
f 27/5/6 32/7/6 31/8/6
f 27/5/6 33/6/6 32/7/6
f 34/4/6 33/6/6 27/5/6
f 33/6/6 34/4/6 35/4/6
f 34/4/3 37/5/3 36/4/3
f 37/5/3 34/4/3 27/5/3
f 19/5/2 39/4/2 38/5/2
f 39/4/2 19/5/2 17/4/2
f 18/4/3 41/6/7 40/4/3
f 41/6/7 18/4/3 20/6/7
f 20/6/7 42/7/8 41/6/7
f 42/7/8 20/6/7 21/7/8
f 21/7/8 43/8/9 42/7/8
f 43/8/9 21/7/8 22/8/9
f 22/8/9 44/9/10 43/8/9
f 44/9/10 22/8/9 23/9/10
f 23/9/10 45/10/11 44/9/10
f 45/10/11 23/9/10 24/10/11
f 24/10/11 46/11/12 45/10/11
f 46/11/12 24/10/11 25/11/12
f 37/5/4 19/5/4 38/5/4
f 19/5/4 37/5/4 27/5/4
f 25/11/12 47/12/1 46/11/12
f 47/12/1 25/11/12 26/12/1
f 26/12/1 48/11/13 47/12/1
f 48/11/13 26/12/1 28/11/13
f 28/11/13 49/10/14 48/11/13
f 49/10/14 28/11/13 29/10/14
f 29/10/14 50/9/15 49/10/14
f 50/9/15 29/10/14 30/9/15
f 30/9/15 51/8/16 50/9/15
f 51/8/16 30/9/15 31/8/16
f 32/7/17 53/6/18 52/7/17
f 53/6/18 32/7/17 33/6/18
f 31/8/16 52/7/17 51/8/16
f 52/7/17 31/8/16 32/7/17
f 53/6/18 35/4/2 54/4/2
f 35/4/2 53/6/18 33/6/18
f 37/5/5 54/4/5 36/4/5
f 54/4/5 37/5/5 53/6/5
f 53/6/5 37/5/5 52/7/5
f 52/7/5 37/5/5 51/8/5
f 51/8/5 37/5/5 50/9/5
f 50/9/5 37/5/5 49/10/5
f 49/10/5 37/5/5 48/11/5
f 48/11/5 37/5/5 47/12/5
f 38/5/5 47/12/5 37/5/5
f 38/5/5 46/11/5 47/12/5
f 38/5/5 45/10/5 46/11/5
f 38/5/5 44/9/5 45/10/5
f 38/5/5 43/8/5 44/9/5
f 38/5/5 42/7/5 43/8/5
f 38/5/5 41/6/5 42/7/5
f 39/4/5 41/6/5 38/5/5
f 41/6/5 39/4/5 40/4/5
f 14/13/4 12/13/4 11/13/4
f 12/13/4 14/13/4 16/13/4

