G04 ( created by brdgerber.py ( brdgerber.py v0.1 2014-03-12 ) ) date 2021-12-14 04:37:03 EST*
G04 Gerber Fmt 3.4, Leading zero omitted, Abs format*
%MOIN*%
%FSLAX34Y34*%
G01*
G70*
G90*
G04 APERTURE LIST*
%ADD10R,0.0550X0.0550*%
%ADD12C,0.0120*%
%ADD13C,0.0200*%
%ADD11C,0.0550*%
G04 APERTURE END LIST*
G54D10*
D12*
G01X01500Y01500D02*
G01X01500Y02500D01*
D12*
G01X01500Y02500D02*
G01X03500Y02500D01*
D12*
G01X03500Y02500D02*
G01X03500Y01500D01*
D12*
G01X03500Y01500D02*
G01X01500Y01500D01*
D12*
G01X01122Y02847D02*
G01X01219Y02827D01*
G01X01381Y02827D01*
G01X01446Y02847D01*
G01X01478Y02868D01*
G01X01511Y02908D01*
G01X01511Y02949D01*
G01X01478Y02990D01*
G01X01446Y03010D01*
G01X01381Y03031D01*
G01X01251Y03051D01*
G01X01187Y03071D01*
G01X01154Y03092D01*
G01X01122Y03132D01*
G01X01122Y03173D01*
G01X01154Y03214D01*
G01X01187Y03234D01*
G01X01251Y03255D01*
G01X01414Y03255D01*
G01X01511Y03234D01*
D12*
G01X01803Y02827D02*
G01X01803Y03255D01*
D12*
G01X02451Y02827D02*
G01X02127Y02827D01*
G01X02127Y03255D01*
D12*
G01X02678Y02990D02*
G01X03197Y02990D01*
D12*
G01X03489Y03214D02*
G01X03522Y03234D01*
G01X03586Y03255D01*
G01X03749Y03255D01*
G01X03813Y03234D01*
G01X03846Y03214D01*
G01X03878Y03173D01*
G01X03878Y03132D01*
G01X03846Y03071D01*
G01X03457Y02827D01*
G01X03878Y02827D01*
D12*
G01X01500Y02500D02*
G01X01500Y03500D01*
D12*
G01X01500Y03500D02*
G01X03500Y03500D01*
D12*
G01X03500Y03500D02*
G01X03500Y02500D01*
D12*
G01X03500Y02500D02*
G01X01500Y02500D01*
D12*
G01X01122Y03847D02*
G01X01219Y03827D01*
G01X01381Y03827D01*
G01X01446Y03847D01*
G01X01478Y03868D01*
G01X01511Y03908D01*
G01X01511Y03949D01*
G01X01478Y03990D01*
G01X01446Y04010D01*
G01X01381Y04031D01*
G01X01251Y04051D01*
G01X01187Y04071D01*
G01X01154Y04092D01*
G01X01122Y04132D01*
G01X01122Y04173D01*
G01X01154Y04214D01*
G01X01187Y04234D01*
G01X01251Y04255D01*
G01X01414Y04255D01*
G01X01511Y04234D01*
D12*
G01X01803Y03827D02*
G01X01803Y04255D01*
D12*
G01X02451Y03827D02*
G01X02127Y03827D01*
G01X02127Y04255D01*
D12*
G01X02678Y03990D02*
G01X03197Y03990D01*
D12*
G01X03489Y04214D02*
G01X03522Y04234D01*
G01X03586Y04255D01*
G01X03749Y04255D01*
G01X03813Y04234D01*
G01X03846Y04214D01*
G01X03878Y04173D01*
G01X03878Y04132D01*
G01X03846Y04071D01*
G01X03457Y03827D01*
G01X03878Y03827D01*
D12*
G01X06500Y04500D02*
G01X06500Y04500D01*
D12*
G01X05500Y04500D02*
G01X06500Y04500D01*
D12*
G01X06500Y04500D02*
G01X06500Y04500D01*
D12*
G01X06500Y04500D02*
G01X06500Y00500D01*
D12*
G01X06500Y00500D02*
G01X05500Y00500D01*
D12*
G01X05500Y00500D02*
G01X05500Y04500D01*
D12*
G01X05500Y03500D02*
G01X06500Y03500D01*
D12*
G01X07153Y01118D02*
G01X07173Y01215D01*
G01X07173Y01378D01*
G01X07153Y01443D01*
G01X07132Y01475D01*
G01X07092Y01508D01*
G01X07051Y01508D01*
G01X07010Y01475D01*
G01X06990Y01443D01*
G01X06969Y01378D01*
G01X06949Y01248D01*
G01X06929Y01183D01*
G01X06908Y01150D01*
G01X06868Y01118D01*
G01X06827Y01118D01*
G01X06786Y01150D01*
G01X06766Y01183D01*
G01X06745Y01248D01*
G01X06745Y01410D01*
G01X06766Y01508D01*
D12*
G01X07173Y01801D02*
G01X06745Y01801D01*
D12*
G01X07173Y02451D02*
G01X07173Y02126D01*
G01X06745Y02126D01*
D12*
G01X07010Y02679D02*
G01X07010Y03199D01*
D12*
G01X06888Y03817D02*
G01X07173Y03817D01*
D12*
G01X06725Y03655D02*
G01X07031Y03492D01*
G01X07031Y03915D01*
M02*
