<?xml version="1.0" standalone="no"?>
<!DOCTYPE svg PUBLIC "-//W3C//DTD SVG 20010904//EN"
 "http://www.w3.org/TR/2001/REC-SVG-20010904/DTD/svg10.dtd">
<svg version="1.0" xmlns="http://www.w3.org/2000/svg"
 width="640.000000pt" height="400.000000pt" viewBox="0 0 640.000000 400.000000"
 preserveAspectRatio="xMidYMid meet">
<metadata>
Created by potrace 1.13, written by Peter Selinger 2001-2015
</metadata>
<g transform="translate(0.000000,400.000000) scale(0.100000,-0.100000)"
fill="#000000" stroke="none">
<path d="M4582 3474 c-30 -21 -48 -59 -56 -119 -4 -27 -14 -70 -21 -95 -8 -25
-24 -108 -35 -185 -12 -77 -26 -165 -31 -195 -6 -30 -14 -103 -19 -161 -10
-118 -31 -242 -59 -339 -10 -36 -24 -85 -30 -110 -7 -25 -21 -76 -31 -115 -28
-102 -26 -140 9 -176 37 -37 88 -39 126 -6 25 21 53 102 89 257 7 30 20 75 29
100 8 25 18 70 22 100 l7 55 109 -7 c61 -4 119 -13 130 -19 11 -6 46 -9 76 -8
l57 3 17 -42 c10 -22 43 -83 73 -135 31 -52 64 -114 75 -139 38 -90 123 -117
182 -59 36 36 38 81 7 131 -59 97 -148 254 -148 262 0 5 -16 37 -35 70 -43 72
-57 105 -96 223 -17 50 -44 115 -60 145 -65 120 -165 359 -194 464 -8 26 -22
57 -32 68 -42 47 -118 62 -161 32z m179 -579 c31 -66 66 -146 77 -177 l20 -57
-121 6 c-67 3 -124 7 -126 10 -4 3 44 331 56 383 6 24 7 23 22 -10 8 -19 41
-89 72 -155z"/>
<path d="M490 3382 c-56 -57 -35 -128 48 -163 42 -18 68 -20 292 -18 135 0
278 -2 318 -6 l72 -8 0 -97 c0 -133 -25 -330 -86 -660 -13 -74 -24 -155 -24
-180 0 -25 -5 -63 -11 -84 -7 -25 -8 -72 -4 -125 6 -75 10 -88 35 -113 40 -39
91 -39 131 2 28 28 30 33 29 112 0 46 4 101 9 123 6 22 11 62 11 88 0 26 9 96
20 155 56 308 80 503 80 651 l0 118 53 -4 c28 -3 68 -9 87 -15 53 -16 465 -23
511 -9 75 23 103 102 55 157 l-23 28 -229 1 c-138 1 -243 6 -264 13 -61 19
-475 47 -735 49 -137 1 -271 5 -297 8 -44 6 -50 5 -78 -23z"/>
<path d="M2912 3260 l-184 -5 -34 -37 c-34 -37 -34 -39 -34 -131 0 -109 12
-185 45 -282 13 -38 38 -124 55 -190 17 -66 42 -151 54 -190 13 -38 27 -88 31
-110 3 -22 12 -49 20 -60 7 -12 16 -70 20 -132 6 -94 5 -115 -9 -135 -42 -60
5 -148 80 -148 30 0 44 8 82 45 l45 46 -6 172 c-5 145 -10 181 -27 220 -12 27
-20 55 -18 64 2 13 8 12 33 -9 17 -13 68 -48 114 -78 118 -74 165 -108 224
-161 29 -25 73 -58 99 -73 25 -15 52 -34 58 -42 27 -31 178 -114 210 -114 46
0 90 47 90 95 0 44 -32 78 -125 138 -121 76 -159 103 -216 152 -74 65 -113 93
-232 170 l-98 63 108 4 c96 3 114 7 161 33 29 16 71 48 92 72 l40 43 0 107 c0
138 -16 276 -36 316 -28 55 -77 98 -151 132 -80 37 -71 36 -491 25z m470 -263
c4 -18 10 -79 13 -137 9 -141 22 -134 -252 -138 -192 -3 -213 -2 -213 13 0 9
-13 55 -29 103 -26 78 -51 184 -51 219 0 10 47 13 217 15 210 3 219 2 263 -20
35 -18 47 -30 52 -55z"/>
<path d="M4095 1488 c-27 -4 -111 -15 -185 -24 -74 -8 -157 -22 -185 -31 -56
-17 -223 -31 -395 -33 -63 -1 -133 -4 -155 -9 -30 -5 -47 -3 -70 11 -48 29
-92 23 -131 -16 -47 -47 -47 -96 0 -140 42 -41 52 -59 61 -121 4 -27 13 -61
20 -76 8 -14 19 -57 26 -95 7 -38 18 -81 26 -96 7 -15 13 -58 13 -95 0 -37 5
-97 12 -133 6 -36 11 -86 9 -113 -2 -60 8 -78 66 -119 46 -31 53 -33 143 -35
52 0 127 -5 165 -11 39 -5 115 -15 169 -21 55 -7 107 -16 117 -21 9 -6 126
-10 259 -9 l242 0 29 29 c37 37 39 87 5 127 -21 25 -32 28 -112 35 -49 4 -146
5 -216 1 -86 -4 -136 -2 -155 6 -15 6 -71 16 -123 22 -52 6 -124 15 -160 21
-36 5 -101 12 -146 14 l-81 5 -12 67 c-7 37 -14 78 -17 91 -5 23 -4 24 43 17
26 -3 92 -9 145 -12 l97 -7 30 31 c39 39 42 88 7 128 -24 29 -49 34 -236 49
-121 10 -115 6 -129 81 -7 37 -18 79 -25 93 -7 14 -16 42 -20 62 -8 46 -1 48
154 50 169 1 338 15 395 32 28 9 111 23 185 31 247 28 250 29 281 64 40 44 39
93 0 133 -32 31 -53 34 -146 17z"/>
<path d="M1835 1305 c-16 -7 -55 -18 -85 -25 -94 -21 -290 -122 -354 -182
l-56 -54 0 -248 0 -247 48 -50 c40 -42 57 -52 122 -70 263 -72 386 -87 699
-88 l193 -1 39 39 c51 51 54 98 9 143 -28 27 -35 29 -73 23 -188 -31 -610 0
-738 54 -13 6 -43 15 -66 21 l-43 11 0 164 0 165 43 27 c71 46 169 90 227 103
30 7 72 19 93 28 29 12 61 14 153 9 l116 -6 29 29 c49 49 35 121 -31 155 -38
20 -281 20 -325 0z"/>
</g>
</svg>
