<?xml version="1.0" encoding="UTF-8"?>
<svg width="700pt" height="700pt" version="1.1" viewBox="0 0 700 700" xmlns="http://www.w3.org/2000/svg" xmlns:xlink="http://www.w3.org/1999/xlink">
 <defs>
  <symbol id="v" overflow="visible">
   <path d="m3.3125-0.20312c-0.17969 0.09375-0.35938 0.16406-0.54688 0.20312-0.17969 0.039062-0.36719 0.0625-0.5625 0.0625-0.60547 0-1.0859-0.16406-1.4375-0.5-0.34375-0.33203-0.51562-0.78516-0.51562-1.3594 0-0.57031 0.17188-1.0234 0.51562-1.3594 0.35156-0.34375 0.83203-0.51562 1.4375-0.51562 0.19531 0 0.38281 0.027344 0.5625 0.078125 0.1875 0.042969 0.36719 0.10938 0.54688 0.20312v0.73438c-0.17969-0.11328-0.35156-0.19531-0.51562-0.25-0.16797-0.050781-0.34375-0.078125-0.53125-0.078125-0.32422 0-0.58594 0.10547-0.78125 0.3125-0.1875 0.21094-0.28125 0.5-0.28125 0.875s0.09375 0.66797 0.28125 0.875c0.19531 0.21094 0.45703 0.3125 0.78125 0.3125 0.1875 0 0.36328-0.023437 0.53125-0.078125 0.16406-0.050781 0.33594-0.13281 0.51562-0.25z"/>
  </symbol>
  <symbol id="b" overflow="visible">
   <path d="m2.4219-1.9688c-0.074219-0.03125-0.15234-0.050781-0.23438-0.0625-0.074219-0.019531-0.14844-0.03125-0.21875-0.03125-0.21875 0-0.39062 0.074219-0.51562 0.21875-0.11719 0.13672-0.17188 0.33594-0.17188 0.59375v1.25h-0.85938v-2.7031h0.85938v0.45312c0.10156-0.17578 0.22656-0.30469 0.375-0.39062 0.14453-0.082031 0.31641-0.125 0.51562-0.125h0.09375c0.039063 0 0.09375 0.007813 0.15625 0.015625z"/>
  </symbol>
  <symbol id="a" overflow="visible">
   <path d="m3.1094-1.3594v0.25h-2.0156c0.019531 0.19922 0.09375 0.35156 0.21875 0.45312 0.125 0.10547 0.30078 0.15625 0.53125 0.15625 0.17578 0 0.35938-0.023438 0.54688-0.078125 0.19531-0.0625 0.39453-0.14453 0.59375-0.25v0.67188c-0.21094 0.074219-0.41797 0.125-0.625 0.15625-0.19922 0.039062-0.40234 0.0625-0.60938 0.0625-0.48047 0-0.85547-0.11719-1.125-0.35938-0.27344-0.25-0.40625-0.59766-0.40625-1.0469 0-0.44531 0.12891-0.79688 0.39062-1.0469 0.26953-0.25 0.63281-0.375 1.0938-0.375 0.42578 0 0.76562 0.13281 1.0156 0.39062 0.25781 0.25 0.39062 0.58984 0.39062 1.0156zm-0.89062-0.28125c0-0.16406-0.046875-0.29688-0.14062-0.39062-0.09375-0.10156-0.21875-0.15625-0.375-0.15625-0.16797 0-0.30469 0.046875-0.40625 0.14062-0.10547 0.09375-0.16797 0.23047-0.1875 0.40625z"/>
  </symbol>
  <symbol id="d" overflow="visible">
   <path d="m1.625-1.2188c-0.17969 0-0.3125 0.03125-0.40625 0.09375s-0.14062 0.15234-0.14062 0.26562c0 0.11719 0.035156 0.20312 0.10938 0.26562 0.070312 0.0625 0.17578 0.09375 0.3125 0.09375 0.15625 0 0.28906-0.054688 0.40625-0.17188 0.11328-0.125 0.17188-0.26953 0.17188-0.4375v-0.10938zm1.3125-0.32812v1.5469h-0.85938v-0.40625c-0.11719 0.16797-0.24609 0.28906-0.39062 0.35938-0.14844 0.070312-0.32422 0.10938-0.53125 0.10938-0.28125 0-0.51172-0.078125-0.6875-0.23438-0.16797-0.16406-0.25-0.37891-0.25-0.64062 0-0.3125 0.10156-0.53906 0.3125-0.6875 0.21875-0.15625 0.5625-0.23438 1.0312-0.23438h0.51562v-0.0625c0-0.13281-0.058594-0.23438-0.17188-0.29688-0.10547-0.0625-0.27344-0.09375-0.5-0.09375-0.1875 0-0.35938 0.023438-0.51562 0.0625-0.15625 0.03125-0.30469 0.085938-0.4375 0.15625v-0.65625c0.17578-0.050781 0.35938-0.085938 0.54688-0.10938 0.1875-0.019531 0.375-0.03125 0.5625-0.03125 0.48828 0 0.83594 0.10156 1.0469 0.29688 0.21875 0.1875 0.32812 0.49609 0.32812 0.92188z"/>
  </symbol>
  <symbol id="c" overflow="visible">
   <path d="m1.3594-3.4688v0.76562h0.89062v0.625h-0.89062v1.1406c0 0.125 0.019531 0.21094 0.0625 0.25 0.050781 0.042969 0.15625 0.0625 0.3125 0.0625h0.4375v0.625h-0.73438c-0.34375 0-0.58984-0.066406-0.73438-0.20312-0.13672-0.14453-0.20312-0.39062-0.20312-0.73438v-1.1406h-0.4375v-0.625h0.4375v-0.76562z"/>
  </symbol>
  <symbol id="j" overflow="visible">
   <path d="m2.25-2.3125v-1.4375h0.875v3.75h-0.875v-0.39062c-0.11719 0.15625-0.24609 0.27344-0.39062 0.34375-0.14844 0.070312-0.3125 0.10938-0.5 0.10938-0.33594 0-0.60938-0.12891-0.82812-0.39062-0.21094-0.25781-0.3125-0.59766-0.3125-1.0156 0-0.41406 0.10156-0.75391 0.3125-1.0156 0.21875-0.26953 0.49219-0.40625 0.82812-0.40625 0.1875 0 0.35156 0.039063 0.5 0.10938 0.14453 0.074219 0.27344 0.1875 0.39062 0.34375zm-0.5625 1.75c0.17578 0 0.3125-0.066406 0.40625-0.20312 0.10156-0.13281 0.15625-0.32812 0.15625-0.57812 0-0.25781-0.054688-0.45703-0.15625-0.59375-0.09375-0.13281-0.23047-0.20312-0.40625-0.20312-0.1875 0-0.33594 0.070313-0.4375 0.20312-0.09375 0.13672-0.14062 0.33594-0.14062 0.59375 0 0.25 0.046875 0.44531 0.14062 0.57812 0.10156 0.13672 0.25 0.20312 0.4375 0.20312z"/>
  </symbol>
  <symbol id="g" overflow="visible">
   <path d="m1.8594-0.5625c0.17578 0 0.3125-0.066406 0.40625-0.20312 0.10156-0.13281 0.15625-0.32812 0.15625-0.57812 0-0.25781-0.054687-0.45703-0.15625-0.59375-0.09375-0.13281-0.23047-0.20312-0.40625-0.20312-0.1875 0-0.33594 0.070313-0.4375 0.20312-0.09375 0.13672-0.14062 0.33594-0.14062 0.59375 0 0.25 0.046875 0.44531 0.14062 0.57812 0.10156 0.13672 0.25 0.20312 0.4375 0.20312zm-0.57812-1.75c0.11328-0.15625 0.24219-0.26953 0.39062-0.34375 0.14453-0.070312 0.3125-0.10938 0.5-0.10938 0.33203 0 0.60156 0.13672 0.8125 0.40625 0.21875 0.26172 0.32812 0.60156 0.32812 1.0156 0 0.41797-0.10938 0.75781-0.32812 1.0156-0.21094 0.26172-0.48047 0.39062-0.8125 0.39062-0.1875 0-0.35547-0.039062-0.5-0.10938-0.14844-0.070313-0.27734-0.1875-0.39062-0.34375v0.39062h-0.85938v-3.75h0.85938z"/>
  </symbol>
  <symbol id="f" overflow="visible">
   <path d="m0.0625-2.7031h0.85938l0.73438 1.8281 0.60938-1.8281h0.85938l-1.125 2.9531c-0.11719 0.30078-0.25 0.50781-0.40625 0.625-0.15625 0.125-0.35547 0.1875-0.59375 0.1875h-0.5v-0.5625h0.26562c0.14453 0 0.25-0.027344 0.3125-0.078125 0.070313-0.042969 0.125-0.125 0.15625-0.25l0.03125-0.0625z"/>
  </symbol>
  <symbol id="i" overflow="visible">
   <path d="m3.6875-0.26562c-0.23047 0.11719-0.46875 0.19922-0.71875 0.25s-0.50781 0.078125-0.76562 0.078125c-0.60547 0-1.0859-0.16406-1.4375-0.5-0.34375-0.33203-0.51562-0.78516-0.51562-1.3594 0-0.58203 0.17578-1.0391 0.53125-1.375 0.35156-0.33203 0.84375-0.5 1.4688-0.5 0.23828 0 0.46875 0.027344 0.6875 0.078125 0.21875 0.042969 0.42578 0.10938 0.625 0.20312v0.73438c-0.21094-0.11328-0.41406-0.19531-0.60938-0.25-0.19922-0.050781-0.39844-0.078125-0.59375-0.078125-0.36719 0-0.65234 0.10547-0.85938 0.3125-0.19922 0.19922-0.29688 0.49219-0.29688 0.875 0 0.38672 0.09375 0.68359 0.28125 0.89062 0.19531 0.19922 0.47266 0.29688 0.82812 0.29688 0.10156 0 0.19141-0.003906 0.26562-0.015625 0.082031-0.007812 0.16016-0.023438 0.23438-0.046875v-0.70312h-0.57812v-0.625h1.4531z"/>
  </symbol>
  <symbol id="u" overflow="visible">
   <path d="m0.42188-2.7031h0.85938v2.7031h-0.85938zm0-1.0469h0.85938v0.70312h-0.85938z"/>
  </symbol>
  <symbol id="h" overflow="visible">
   <path d="m0.42188-3.75h0.85938v3.75h-0.85938z"/>
  </symbol>
  <symbol id="t" overflow="visible">
   <path d="m1.7656-2c0.19531 0 0.33594-0.035156 0.42188-0.10938 0.082031-0.070313 0.125-0.19141 0.125-0.35938 0-0.16406-0.042969-0.28125-0.125-0.34375-0.085938-0.070312-0.22656-0.10938-0.42188-0.10938h-0.39062v0.92188zm-0.39062 0.64062v1.3594h-0.92188v-3.5938h1.4219c0.46875 0 0.8125 0.078125 1.0312 0.23438 0.22656 0.15625 0.34375 0.40625 0.34375 0.75 0 0.24219-0.058594 0.4375-0.17188 0.59375-0.11719 0.14844-0.29297 0.25781-0.53125 0.32812 0.13281 0.03125 0.25 0.10156 0.34375 0.20312 0.10156 0.10547 0.20703 0.26172 0.3125 0.46875l0.5 1.0156h-0.98438l-0.4375-0.89062c-0.09375-0.1875-0.1875-0.3125-0.28125-0.375-0.085938-0.0625-0.20312-0.09375-0.35938-0.09375z"/>
  </symbol>
  <symbol id="s" overflow="visible">
   <path d="m2.1875-3.75v0.5625h-0.46875c-0.125 0-0.21484 0.027344-0.26562 0.078125-0.042969 0.042969-0.0625 0.11719-0.0625 0.21875v0.1875h0.73438v0.625h-0.73438v2.0781h-0.875v-2.0781h-0.42188v-0.625h0.42188v-0.1875c0-0.28906 0.082031-0.50391 0.25-0.64062 0.16406-0.14453 0.42188-0.21875 0.76562-0.21875z"/>
  </symbol>
  <symbol id="e" overflow="visible">
   <path d="m1.7031-2.1406c-0.19922 0-0.35156 0.070313-0.45312 0.20312-0.09375 0.13672-0.14062 0.33594-0.14062 0.59375 0 0.26172 0.046875 0.46094 0.14062 0.59375 0.10156 0.13672 0.25391 0.20312 0.45312 0.20312 0.1875 0 0.32812-0.066406 0.42188-0.20312 0.10156-0.13281 0.15625-0.33203 0.15625-0.59375 0-0.25781-0.054688-0.45703-0.15625-0.59375-0.09375-0.13281-0.23438-0.20312-0.42188-0.20312zm0-0.625c0.45703 0 0.81641 0.125 1.0781 0.375 0.26953 0.25 0.40625 0.60156 0.40625 1.0469 0 0.4375-0.13672 0.78125-0.40625 1.0312-0.26172 0.25-0.62109 0.375-1.0781 0.375-0.46875 0-0.83594-0.125-1.0938-0.375-0.26172-0.25-0.39062-0.59375-0.39062-1.0312 0-0.44531 0.12891-0.79688 0.39062-1.0469 0.25781-0.25 0.625-0.375 1.0938-0.375z"/>
  </symbol>
  <symbol id="r" overflow="visible">
   <path d="m2.9219-2.25c0.10156-0.16406 0.22656-0.28906 0.375-0.375 0.15625-0.09375 0.32031-0.14062 0.5-0.14062 0.3125 0 0.54688 0.10156 0.70312 0.29688 0.16406 0.1875 0.25 0.46484 0.25 0.82812v1.6406h-0.85938v-1.4062-0.0625-0.09375c0-0.19531-0.03125-0.33594-0.09375-0.42188-0.054687-0.082031-0.14062-0.125-0.26562-0.125-0.16797 0-0.29688 0.070313-0.39062 0.20312-0.085937 0.13672-0.125 0.32812-0.125 0.57812v1.3281h-0.875v-1.4062c0-0.30078-0.027344-0.49219-0.078125-0.57812-0.042969-0.082031-0.13281-0.125-0.26562-0.125-0.16797 0-0.29688 0.070313-0.39062 0.20312-0.085938 0.13672-0.125 0.32812-0.125 0.57812v1.3281h-0.875v-2.7031h0.875v0.39062c0.10156-0.14453 0.22266-0.25391 0.35938-0.32812 0.13281-0.082031 0.28516-0.125 0.45312-0.125 0.1875 0 0.35156 0.046875 0.5 0.14062 0.14453 0.085938 0.25391 0.21094 0.32812 0.375z"/>
  </symbol>
  <symbol id="q" overflow="visible">
   <path d="m3.125-1.6406v1.6406h-0.85938v-1.25c0-0.23828-0.007813-0.39844-0.015625-0.48438-0.011719-0.09375-0.03125-0.16016-0.0625-0.20312-0.03125-0.050781-0.078125-0.09375-0.14062-0.125-0.054687-0.03125-0.11719-0.046875-0.1875-0.046875-0.17969 0-0.32031 0.070313-0.42188 0.20312-0.10547 0.13672-0.15625 0.32812-0.15625 0.57812v1.3281h-0.85938v-3.75h0.85938v1.4375c0.125-0.15625 0.25781-0.26953 0.40625-0.34375 0.14453-0.070312 0.30469-0.10938 0.48438-0.10938 0.3125 0 0.54688 0.10156 0.70312 0.29688 0.16406 0.1875 0.25 0.46484 0.25 0.82812z"/>
  </symbol>
  <symbol id="p" overflow="visible">
   <path d="m0.45312-3.5938h1.0312l1.3125 2.4688v-2.4688h0.875v3.5938h-1.0312l-1.3125-2.4688v2.4688h-0.875z"/>
  </symbol>
  <symbol id="o" overflow="visible">
   <path d="m0.39062-1.0469v-1.6562h0.85938v0.26562 0.5625 0.4375c0 0.21875 0.003906 0.375 0.015625 0.46875 0.007813 0.09375 0.03125 0.16406 0.0625 0.20312 0.03125 0.0625 0.070313 0.10938 0.125 0.14062 0.0625 0.03125 0.12891 0.046875 0.20312 0.046875 0.17578 0 0.31641-0.066406 0.42188-0.20312 0.10156-0.14453 0.15625-0.33594 0.15625-0.57812v-1.3438h0.85938v2.7031h-0.85938v-0.39062c-0.125 0.15625-0.26172 0.27344-0.40625 0.34375-0.14844 0.070312-0.30859 0.10938-0.48438 0.10938-0.3125 0-0.55469-0.09375-0.71875-0.28125-0.15625-0.1875-0.23438-0.46094-0.23438-0.82812z"/>
  </symbol>
  <symbol id="n" overflow="visible">
   <path d="m3.125-1.6406v1.6406h-0.85938v-1.2656c0-0.22656-0.007813-0.38281-0.015625-0.46875-0.011719-0.09375-0.03125-0.16016-0.0625-0.20312-0.03125-0.050781-0.078125-0.09375-0.14062-0.125-0.054687-0.03125-0.11719-0.046875-0.1875-0.046875-0.17969 0-0.32031 0.070313-0.42188 0.20312-0.10547 0.13672-0.15625 0.32812-0.15625 0.57812v1.3281h-0.85938v-2.7031h0.85938v0.39062c0.125-0.15625 0.25781-0.26953 0.40625-0.34375 0.14453-0.070312 0.30469-0.10938 0.48438-0.10938 0.3125 0 0.54688 0.10156 0.70312 0.29688 0.16406 0.1875 0.25 0.46484 0.25 0.82812z"/>
  </symbol>
  <symbol id="m" overflow="visible">
   <path d="m0.45312-3.5938h1.5469c0.45703 0 0.80469 0.10547 1.0469 0.3125 0.25 0.19922 0.375 0.48438 0.375 0.85938s-0.125 0.66797-0.375 0.875c-0.24219 0.19922-0.58984 0.29688-1.0469 0.29688h-0.625v1.25h-0.92188zm0.92188 0.67188v1h0.51562c0.1875 0 0.32812-0.039063 0.42188-0.125 0.09375-0.09375 0.14062-0.21875 0.14062-0.375 0-0.16406-0.046875-0.28906-0.14062-0.375-0.09375-0.082031-0.23438-0.125-0.42188-0.125z"/>
  </symbol>
  <symbol id="l" overflow="visible">
   <path d="m0.42188-2.7031h0.85938v2.6562c0 0.36328-0.089844 0.64062-0.26562 0.82812-0.17969 0.1875-0.42969 0.28125-0.75 0.28125h-0.42188v-0.5625h0.14062c0.16406 0 0.28125-0.039062 0.34375-0.10938 0.0625-0.074219 0.09375-0.21875 0.09375-0.4375zm0-1.0469h0.85938v0.70312h-0.85938z"/>
  </symbol>
  <symbol id="k" overflow="visible">
   <path d="m2.5938-2.6094v0.70312c-0.11719-0.082031-0.23438-0.14062-0.35938-0.17188-0.11719-0.039063-0.23438-0.0625-0.35938-0.0625-0.24219 0-0.42969 0.074219-0.5625 0.21875-0.13672 0.13672-0.20312 0.32812-0.20312 0.57812s0.066406 0.44922 0.20312 0.59375c0.13281 0.13672 0.32031 0.20312 0.5625 0.20312 0.13281 0 0.25781-0.019531 0.375-0.0625 0.125-0.039063 0.23828-0.097656 0.34375-0.17188v0.70312c-0.13672 0.054688-0.27344 0.085938-0.40625 0.10938-0.13672 0.019531-0.27734 0.03125-0.42188 0.03125-0.49219 0-0.87109-0.125-1.1406-0.375-0.27344-0.25-0.40625-0.59375-0.40625-1.0312 0-0.44531 0.13281-0.79688 0.40625-1.0469 0.26953-0.25 0.64844-0.375 1.1406-0.375 0.14453 0 0.28516 0.015625 0.42188 0.046875 0.13281 0.023438 0.26953 0.058594 0.40625 0.10938z"/>
  </symbol>
 </defs>
 <g>
  <path d="m349.06 517.82c-3.8516 0-29.043-0.69141-51.664-16.496-20.25-14.227-25.09-21.438-31.809-31.512-1.4805-2.2734-3.0625-4.6445-4.9375-7.2109-12.742-17.781-15.312-26.672-15.41-26.969v-0.19531c0.49219-34.477-0.89063-71.32-3.9531-73.199-26.77-5.7305-41.094-64.605-41.688-67.074-0.097656-0.29687-8.1016-34.477-13.93-80.41-6.0273-47.414 1.3828-80.508 24.004-107.28 29.141-34.574 65.691-50.379 91.176-57.59 27.66-7.8047 48.699-7.4102 48.898-7.4102h0.59375c0.59375 0 21.535-0.29687 48.898 7.5078 25.484 7.2109 62.035 23.016 91.176 57.59 22.621 26.77 30.031 59.863 24.004 107.28-5.8281 45.836-13.828 80.016-13.93 80.41-0.59375 2.4688-14.816 61.344-41.688 67.172-2.9648 1.875-4.3477 38.723-3.8516 73.199v0.19531c-0.097656 0.39453-2.668 9.1875-15.41 26.969-1.875 2.668-3.457 4.9375-4.9375 7.2109-6.7188 10.074-11.559 17.285-31.809 31.512-24.598 17.188-51.961 16.496-52.258 16.496h-0.78906c-0.19531-0.19531-0.39062-0.19531-0.6875-0.19531zm-101.95-82.684c0.39453 1.1836 3.3594 9.9766 15.016 26.277 1.875 2.668 3.457 5.0391 4.9375 7.3086 6.6172 9.8789 11.359 16.992 31.312 30.918 24.004 16.793 50.773 16.199 51.07 16.199h0.89062c0.29688 0 27.066 0.59375 51.07-16.199 19.953-13.93 24.695-21.141 31.312-30.918 1.4805-2.2734 3.0625-4.6445 4.9375-7.3086 11.656-16.301 14.719-25.09 15.016-26.277 0-1.7773-0.19922-19.164 0.19922-36.449 0.98828-37.539 3.8516-38.129 5.2344-38.523 25.684-5.5312 40.008-65.098 40.203-65.691 0.097656-0.29688 8-34.375 13.828-80.211 5.9258-46.824-1.2852-79.422-23.512-105.7-28.746-34.082-64.898-49.785-90.09-56.898-27.363-7.7031-48.207-7.4102-48.402-7.4102h-0.59375c-0.19922 0-21.039-0.39453-48.402 7.4102-25.191 7.1133-61.344 22.82-90.09 56.996-22.227 26.277-29.438 58.973-23.512 105.7 5.8281 45.738 13.828 79.816 13.828 80.211 0.097656 0.59375 14.52 60.16 40.203 65.691 1.3828 0.29688 4.3477 0.89062 5.2344 38.523 0.50781 17.188 0.40625 34.574 0.30859 36.352z"/>
  <path d="m364.18 368.95c-2.668 0-4.8398-0.78906-6.4219-2.4688-4.9375-4.9375-4.9375-16.891-4.8398-33.586v-3.5547c0-6.4219-0.097656-12.445-0.19922-17.684-0.29688-14.918-0.29688-21.633 1.4805-23.41 0.39453-0.39453 0.78906-0.59375 1.2852-0.59375 3.0625 0 7.9023 10.766 9.7812 15.312 4.3477 10.371 7.7031 22.227 9.2852 32.5 2.2734 15.707 1.4805 25.586-2.5664 30.227-1.9766 2.1719-4.5469 3.2578-7.8047 3.2578zm-8.6914-79.32c-1.2852 1.2852-1.0859 11.754-0.89062 21.93 0.097656 5.2344 0.19922 11.262 0.19922 17.684v3.5547c0 16.102 0 27.758 4.3477 32.105 1.2852 1.2852 2.9648 1.875 5.0391 1.875 2.7656 0 4.7422-0.78906 6.2227-2.5664 3.6562-4.1484 4.2461-13.535 2.0742-28.648-3.3633-22.621-14.227-44.652-16.992-45.934z"/>
  <path d="m335.33 368.95c-3.3594 0-5.8281-1.0859-7.8047-3.2617-4.0508-4.6445-4.8398-14.52-2.5664-30.227 1.4805-10.273 4.8398-22.129 9.2852-32.5 1.9766-4.6445 6.7188-15.312 9.7812-15.312 0.49219 0 0.98828 0.19922 1.2852 0.59375 1.7773 1.875 1.7773 8.4961 1.4805 23.41-0.097657 5.2344-0.19922 11.262-0.19922 17.684v3.5547c0 16.594 0 28.648-4.8398 33.586-1.6797 1.5859-3.8555 2.4727-6.4219 2.4727zm8.6914-79.32c-2.7656 1.2852-13.73 23.312-17.09 46.133-2.1719 15.113-1.4805 24.5 2.0742 28.648 1.4805 1.6797 3.5547 2.5664 6.2227 2.5664 2.1719 0 3.7539-0.59375 5.0391-1.875 4.3477-4.3477 4.3477-16.004 4.3477-32.203v-3.5547c0-6.5195 0.097656-12.445 0.19922-17.684 0.19531-10.18 0.39453-20.75-0.79297-22.031z"/>
  <path d="m421.86 322.92c-12.445 0-25.387-6.4219-35.465-17.684-9.4844-10.57-15.211-23.809-15.211-35.363 0-27.559 26.078-30.723 45.637-30.723 14.719 0 28.152 5.4336 36.746 14.918 6.8164 7.5078 10.074 17.188 9.0898 27.066-4.0469 41.785-29.832 41.785-40.797 41.785zm-5.0352-81.891c-30.227 0-43.66 8.8906-43.66 28.746 0 22.523 22.918 51.168 48.699 51.168 10.473 0 34.969 0 38.82-40.008 0.89062-9.4844-2.0742-18.375-8.5938-25.586-8.3008-9.0859-21.141-14.32-35.266-14.32z"/>
  <path d="m280.31 322.92c-10.965 0-36.848 0-40.797-41.883-0.98828-9.9766 2.2734-19.559 9.0898-27.066 8.5938-9.4844 22.027-14.918 36.746-14.918 40.895 0 45.637 17.582 45.637 30.723 0 11.559-5.6289 24.793-15.211 35.363-10.176 11.359-23.117 17.781-35.465 17.781zm5.0391-81.891c-14.125 0-27.066 5.2344-35.266 14.324-6.5195 7.2109-9.582 16.102-8.5938 25.586 3.8516 40.008 28.352 40.008 38.82 40.008 25.781 0 48.699-28.648 48.699-51.168-0.097656-19.859-13.531-28.75-43.66-28.75z"/>
  <path d="m353.7 442.35c-1.3828 0-2.5664-0.19922-3.457-0.98828-0.59375-0.59375-0.89062-1.2852-0.89062-2.2734v-10.867c0-3.1602 0-5.6289 1.3828-8.1992 2.1719-4.1484 5.7305-4.543 8.2969-4.543 3.3594 0 6.7188 2.668 7.5078 6.0273 0.69141 2.8633 0.69141 4.2461 0.69141 6.9141v1.3828 1.7773c0 3.457 0.097656 5.9258-1.7773 8.4961-1.6797 2.2734-2.9648 2.1719-5.4336 2.0742-0.69141 0-1.4805-0.097656-2.3711-0.097656-0.59375 0-1.2852 0-1.875 0.097656-0.78906 0.097656-1.4805 0.19922-2.0742 0.19922zm5.3359-24.895c-3.2617 0-5.2344 1.0859-6.5195 3.5547-1.1836 2.0742-1.0859 4.1484-1.0859 7.2109v10.867c0 0.49219 0.19922 0.69141 0.29688 0.78906 0.59375 0.59375 2.3711 0.49219 3.9531 0.39453 0.69141 0 1.3828-0.097657 1.9766-0.097657 0.98828 0 1.7773 0 2.4688 0.097657 2.2734 0.097656 2.7656 0.097656 3.7539-1.2852 1.4805-2.0742 1.4805-4.0508 1.3828-7.3086v-1.7773-1.3828c0-2.668 0-3.7539-0.59375-6.4219-0.69531-2.5664-3.1641-4.6406-5.6328-4.6406z"/>
  <path d="m422.55 414.3c-0.29688 0-0.49219-0.097656-0.78906-0.19922-0.78906-0.49219-0.59375-1.4805-0.49219-2.1719 0.097656-0.49219 0.19922-1.1836 0-1.4805-0.69141-0.98828-0.39453-2.8633 0-5.5312 0.49219-3.6562 1.1836-8.5938-0.89063-11.164-3.1602-3.7539 2.3711-18.473 2.5664-18.965 1.3828-3.5547 6.125-8 9.6797-9.9766 1.875-1.0859 3.2617-2.2734 4.4453-3.2617 2.4688-2.0742 4.4453-3.6562 7.9023-2.1719 3.3594 1.4805 4.543 3.5547 4.0508 7.2109-0.59375 3.9531-1.6797 6.7188-2.9648 9.8789l-0.19922 0.39453c-1.1836 3.0625-17.977 34.773-21.238 36.746-0.6875 0.29297-1.4766 0.69141-2.0703 0.69141zm19.855-53.738c-1.2852 0-2.3711 0.89062-4.1484 2.2734-1.1836 0.98828-2.7656 2.2734-4.7422 3.457-3.6562 1.9766-7.8047 6.2227-8.8906 8.9883-2.1719 5.5312-4.4453 15.113-2.8633 16.992 2.5664 3.2617 1.875 8.6914 1.2852 12.645-0.19922 1.582-0.49219 3.7539-0.29688 4.2461 0.49219 0.89062 0.39453 1.875 0.29688 2.668 0.097657 0 0.19922-0.097656 0.29688-0.19922 2.2734-1.3828 18.375-30.621 20.449-35.758l0.19922-0.39453c1.2852-3.2617 2.2734-5.8281 2.8633-9.4844 0.39453-3.0625-0.59375-4.1484-2.8633-5.1367-0.5-0.10156-1.0898-0.29688-1.5859-0.29688z"/>
  <path d="m373.66 440.96h-1.1836-1.3828c-1.582 0-3.2617 0-4.2461-0.98828-0.49219-0.49219-0.78906-1.1836-0.78906-2.0742v-9.8789c0-2.9648 0-5.0391 0.98828-7.4102 1.1836-2.9648 3.3594-4.4453 6.5195-4.4453 2.668 0 5.2344 2.4688 5.9258 5.7305 0.49219 2.5664 0.49219 3.7539 0.49219 6.125v1.4805 1.9766c0 2.8633 0.097656 4.6445-0.78906 6.4219-1.1914 2.5703-2.7695 3.0625-5.5352 3.0625zm-2.0742-2.0742h0.98828c3.5547 0.097656 4.1484-0.29688 4.9375-1.875 0.69141-1.3828 0.59375-2.8633 0.59375-5.5312v-2.0742-1.4805c0-2.2734 0-3.3594-0.49219-5.7305-0.49219-2.4688-2.4688-4.1484-3.9531-4.1484-2.3711 0-3.8516 0.98828-4.7422 3.2617-0.89062 1.9766-0.89062 3.8516-0.89062 6.6172v9.8789c0 0.49219 0.19922 0.59375 0.19922 0.69141 0.39453 0.39453 1.6797 0.39453 2.7656 0.39453 0.29687-0.003906 0.39453-0.003906 0.59375-0.003906z"/>
  <path d="m397.17 437.21c-3.8516 0-4.6445-8.5938-4.6445-10.273v-3.457c0-0.98828-0.097657-1.582-0.097657-2.1719-0.097656-1.0859-0.19922-1.7773 0.39453-3.457 0.89063-2.7656 2.4688-4.2461 4.7422-4.2461 1.9766 0 4.3477 2.0742 4.8398 5.1367 0.19922 1.6797 0.097656 2.7656 0 4.0508 0 0.49219-0.097656 0.98828-0.097656 1.4805v0.29688 1.6797 1.0859c-0.097657 1.8711-1.7773 9.875-5.1367 9.875zm-2.7656-12.547v2.3711c0 3.0625 1.2852 8.2969 2.668 8.2969 1.0859 0 3.0625-5.1367 3.0625-7.9023v-0.89062-0.69141c0-1.2852 0.097657-2.2734 0.19922-3.0625 0.097657-1.1836 0.19922-2.1719 0-3.5547-0.29688-2.0742-1.875-3.457-2.8633-3.457-0.89062 0-2.0742 0.29688-2.8633 2.8633-0.39453 1.2852-0.39453 1.6797-0.29688 2.668 0 0.59375 0.097656 1.2852 0.097656 2.3711z"/>
  <path d="m384.33 438.89c-2.1719 0-3.5547-0.39453-4.4453-1.0859-0.49219-0.49219-0.78906-1.0859-0.78906-1.7773v-10.273c0-2.8633 0-5.0391 0.98828-7.3086 1.2852-2.9648 3.457-4.4453 6.6172-4.4453 2.7656 0 5.3359 2.4688 6.0273 5.7305 0.59375 2.5664 0.49219 3.7539 0.49219 6.125v2.6641c0 3.1602 0 4.543-0.89062 7.4102-1.0859 2.8633-3.2617 2.8633-6.2227 2.8633h-0.49219c-0.49609 0.097656-0.98828 0.097656-1.2852 0.097656zm2.3711-22.918c-1.6797 0-3.5547 0.39453-4.7422 3.2617-0.78906 1.875-0.78906 3.7539-0.78906 6.5195v10.273c0 0.19922 0 0.19922 0.097656 0.29688 0.29688 0.29688 1.1836 0.69141 4.2461 0.59375h0.49219c3.0625 0 3.8516-0.097657 4.3477-1.582 0.78906-2.4688 0.78906-3.6562 0.78906-6.7188v-2.6641c0-2.3711 0-3.3594-0.49219-5.7305-0.39453-2.3711-2.1719-4.25-3.9492-4.25z"/>
  <path d="m404.77 432.57c-1.6797 0-3.457-1.582-3.457-4.3477v-5.5312c0-2.668 0-4.543 0.39453-6.5195 0.69141-2.5664 1.875-3.8516 3.5547-3.8516 1.582 0 2.8633 1.9766 3.1602 4.8398 0.29688 2.3711 0.29688 3.3594 0.29688 6.0273 0 3.3594 0 3.3594-0.29688 5.9258-0.09375 2.0742-1.4766 3.457-3.6523 3.457zm0.49609-18.273c-0.29688 0-1.0859 0-1.582 2.3711-0.29688 1.6797-0.29688 3.5547-0.29688 6.0273v5.5312c0 1.582 0.89062 2.3711 1.4805 2.3711 1.0859 0 1.6797-0.59375 1.7773-1.6797 0.19922-2.4688 0.19922-2.4688 0.19922-5.7305 0-2.668 0-3.5547-0.19922-5.8281-0.29297-2.0781-1.082-3.0625-1.3789-3.0625z"/>
  <path d="m411.1 429.51c-1.6797 0-3.457-1.582-3.457-4.3477v-5.5312c0-2.668 0-4.543 0.39453-6.5195 0.69141-2.5664 1.875-3.8516 3.5547-3.8516 1.582 0 2.8633 1.9766 3.1602 4.8398 0.29688 2.3711 0.29688 3.3594 0.29688 6.0273 0 3.3594 0 3.3594-0.29688 5.9258-0.097656 2.0742-1.5781 3.457-3.6523 3.457zm0.49219-18.273c-0.29688 0-1.0859 0-1.582 2.3711-0.29687 1.6797-0.29687 3.5547-0.29687 6.0273v5.5312c0 1.582 0.89062 2.3711 1.4805 2.3711 1.0859 0 1.6797-0.59375 1.7773-1.6797 0.19922-2.4688 0.19922-2.4688 0.19922-5.7305 0-2.668 0-3.5547-0.19922-5.8281-0.39062-1.9766-1.082-2.9648-1.3789-3.0625z"/>
  <path d="m417.22 425.16c-1.6797 0-3.457-1.582-3.457-4.3477v-5.5312c0-2.668 0-4.543 0.39453-6.5195 0.69141-2.5664 1.875-3.8516 3.5547-3.8516 1.582 0 2.8633 1.9766 3.1602 4.8398 0.29688 2.3711 0.29688 3.3594 0.29688 6.0273 0 3.3594 0 3.3594-0.29688 5.9258-0.097656 2.0742-1.4805 3.457-3.6523 3.457zm0.49219-18.273c-0.29688 0-1.0859 0-1.582 2.3711-0.29687 1.6797-0.29687 3.5547-0.29687 6.0273v5.5312c0 1.582 0.89062 2.3711 1.4805 2.3711 1.0859 0 1.6797-0.59375 1.7773-1.6797 0.19922-2.4688 0.19922-2.4688 0.19922-5.7305 0-2.668 0-3.5547-0.19922-5.8281-0.29297-2.0742-1.082-3.0625-1.3789-3.0625z"/>
  <path d="m355.09 458.05c-0.39453 0-0.78906 0-1.1836-0.097657-2.2734-0.29688-4.3477-2.3711-4.6445-4.543-0.19922-1.6797-0.097656-2.5664 0.097657-4.0508 0-0.29688 0.097656-0.69141 0.097656-1.0859l0.097656-0.98828c0.19922-2.0742 0.39453-3.2617 1.2852-4.543 1.4805-1.875 3.0625-1.875 6.0273-1.3828 0.29688 0 0.49219 0.097657 0.69141 0.097657 1.875 0.29687 4.8398 0.78906 4.543 3.3594l-0.78906 6.0273c-0.19922 1.7773-0.39453 3.3594-1.6797 4.8398-0.88672 1.5781-2.4688 2.3672-4.543 2.3672zm-0.78906-14.914c-0.98828 0-1.3828 0.29688-1.7773 0.89062-0.59375 0.89062-0.69141 1.7773-0.98828 3.6562l-0.097656 0.98828c-0.097656 0.39453-0.097656 0.78906-0.097656 1.0859-0.19922 1.3828-0.29688 2.0742-0.097657 3.457 0.19922 1.4805 1.6797 2.668 2.8633 2.8633 1.9766 0.29688 3.2617-0.19922 4.1484-1.4805 0.89062-0.98828 0.98828-2.1719 1.1836-3.8516l0.78906-6.0273c0.097656-0.59375-0.89062-0.89062-2.8633-1.1836-0.29688 0-0.49219-0.097656-0.69141-0.097656-1.0859-0.20312-1.7773-0.30078-2.3711-0.30078z"/>
  <path d="m366.55 457.86c-2.0742 0-4.543-1.4805-5.1367-4.0508-0.39453-1.7773-0.39453-2.5664-0.39453-4.1484v-1.0859-1.0859c0-2.1719 0-3.457 0.78906-4.8398 1.1836-2.1719 2.7656-2.3711 5.8281-2.2734h0.29688c1.6797 0 3.5547 0 4.6445 0.98828 0.49219 0.49219 0.69141 1.0859 0.69141 1.7773v5.6289c0 2.2734 0 3.9531-0.98828 5.8281-1.1875 2.1758-3.0625 3.2617-5.7305 3.2617zm-0.097656-15.609c-2.1719 0-2.4688 0.39453-2.9648 1.1836-0.49219 0.98828-0.49219 1.875-0.49219 3.8516v1.0859 1.1836c0 1.4805 0 2.1719 0.39453 3.6562 0.39453 1.582 1.9766 2.5664 3.2617 2.5664 1.9766 0 3.1602-0.59375 3.9531-2.0742 0.78906-1.4805 0.78906-2.7656 0.78906-4.9375v-5.6289c0-0.29688-0.097656-0.39453-0.097656-0.39453-0.49219-0.49219-2.0742-0.49219-3.2617-0.49219h-0.39453-1.1875z"/>
  <path d="m378.3 458.55c-2.2734 0-4.6445-2.0742-5.1367-4.6445-0.39453-1.875-0.39453-2.7656-0.39453-4.543v-1.2852-1.1836c0-2.4688 0-3.8516 0.69141-5.4336 0.78906-1.6797 2.3711-2.2734 3.8516-2.7656 0.49219-0.19922 0.98828-0.39453 1.582-0.69141 1.0859-0.59375 2.4688-0.49219 3.7539 0.29688 1.4805 0.89062 2.3711 2.3711 2.3711 3.7539v6.4219c0 2.668 0 4.543-0.98828 6.5195-1.4805 3.2578-4.0508 3.5547-5.7305 3.5547zm2.0742-18.867c-0.19922 0-0.39453 0-0.59375 0.097656-0.59375 0.29688-1.1836 0.49219-1.7773 0.69141-1.4805 0.59375-2.3711 0.89062-2.7656 1.7773-0.49219 1.1836-0.49219 2.1719-0.49219 4.543v1.1836 1.2852c0 1.6797 0 2.4688 0.39453 4.1484 0.39453 1.7773 1.9766 3.0625 3.2617 3.0625 1.9766 0 3.1602-0.69141 3.9531-2.3711 0.78906-1.582 0.78906-3.0625 0.78906-5.6289v-6.4219c0-0.78906-0.59375-1.582-1.3828-2.0742-0.59766-0.19531-1.0898-0.29297-1.3867-0.29297z"/>
  <path d="m389.86 461.12c-2.3711 0-4.6445-2.3711-5.1367-5.3359-0.39453-2.2734-0.39453-3.457-0.39453-5.5312v-1.582c0-1.4805-0.097656-2.5664-0.097656-3.457-0.097657-1.3828-0.097657-2.4688 0.097656-3.7539 0.49219-3.1602 2.8633-3.457 4.8398-3.6562 1.1836-0.097656 2.4688-0.29688 3.3594-0.98828 0.98828-0.78906 1.7773-0.59375 2.1719-0.39453 1.4805 0.69141 1.7773 3.457 1.7773 5.0391v8.793c0 2.668 0 4.7422-0.98828 6.8164-0.98828 2.668-2.8633 4.0508-5.6289 4.0508zm4.1484-22.918s-0.097656 0.097656-0.19922 0.097656c-1.3828 1.0859-2.9648 1.2852-4.4453 1.4805-2.0742 0.19922-2.8633 0.39453-3.1602 1.9766-0.19922 1.0859-0.19922 1.9766-0.097656 3.3594 0 0.89062 0.097656 2.0742 0.097656 3.5547v1.582c0 1.9766 0 3.0625 0.39453 5.1367 0.39453 2.2734 1.9766 3.7539 3.2617 3.7539 1.4805 0 2.9648-0.39453 3.8516-2.9648 0.78906-1.7773 0.78906-3.457 0.78906-6.0273v-8.793c0-1.7734-0.29297-2.8594-0.49219-3.1562z"/>
  <path d="m399.64 453.61c-1.875 0-3.457-1.6797-3.9531-4.2461-0.29688-2.1719-0.29688-2.8633-0.29688-5.3359 0-2.8633 0-4.3477 0.59375-5.9258 0.59375-1.4805 0.98828-1.7773 2.2734-2.668 0.39453-0.29688 0.89062-0.59375 1.582-1.0859 0.29687-0.19922 0.59375-0.59375 0.98828-0.98828 0.69141-0.78906 1.4805-1.6797 2.4688-1.2852s1.1836 1.6797 1.1836 4.0508v8.1016c0 2.3711 0 4.0508-0.49219 5.8281-0.88672 2.4688-2.2734 3.5547-4.3477 3.5547zm2.7695-19.062-0.19922 0.19922c-0.39453 0.39453-0.78906 0.89062-1.2852 1.2852-0.69141 0.49219-1.1836 0.89062-1.582 1.0859-1.0859 0.69141-1.1836 0.78906-1.4805 1.6797-0.39453 1.1836-0.39453 2.4688-0.39453 5.2344 0 2.4688 0 3.0625 0.19922 5.0391 0.29688 1.4805 1.0859 2.5664 1.9766 2.5664s1.7773-0.19922 2.3711-2.0742c0.39453-1.4805 0.39453-2.9648 0.39453-5.2344v-8.1016-1.6797z"/>
  <path d="m407.25 448.67c-1.875 0-3.457-1.6797-3.9531-4.2461-0.29688-2.1719-0.29688-2.8633-0.29688-5.3359 0-2.8633 0-4.3477 0.59375-5.9258 0.78906-1.9766 2.0742-2.8633 4.2461-3.7539 0.98828-0.39453 2.3711-0.89062 3.3594-0.19922 0.39453 0.29687 0.98828 0.89062 0.98828 2.1719v8.1016c0 2.3711 0 4.1484-0.69141 5.9258-0.69141 2.0781-2.0742 3.2617-4.2461 3.2617zm2.7656-17.98c-0.19922 0-0.59375 0.097656-1.3828 0.39453-1.9766 0.89062-2.7656 1.4805-3.1602 2.668-0.39453 1.1836-0.39453 2.4688-0.39453 5.2344 0 2.4688 0 3.0625 0.19922 5.0391 0.29687 1.4805 1.0859 2.5664 1.9766 2.5664s1.7773-0.19922 2.3711-2.0742c0.59375-1.4805 0.59375-2.9648 0.59375-5.2344v-8.1016c0-0.39453-0.097656-0.49219-0.097656-0.49219h-0.10547z"/>
  <path d="m415.45 441.07c-1.7773 0-3.457-1.4805-3.9531-3.5547-0.29688-1.7773-0.29688-2.4688-0.29688-4.4453 0-2.4688 0-3.6562 0.59375-4.9375 0.59375-1.2852 1.0859-1.582 2.2734-2.1719 0.39453-0.19922 0.89062-0.49219 1.582-0.89062 0.29688-0.19922 0.59375-0.49219 0.98828-0.78906 0.69141-0.69141 1.582-1.3828 2.4688-0.98828 0.98828 0.39453 1.0859 1.6797 1.0859 3.457v6.6172c0 1.875 0 3.2617-0.59375 4.7422-0.98828 2.6641-2.8672 2.9609-4.1484 2.9609zm2.7656-15.609c-0.097657 0.097657-0.19922 0.19922-0.29688 0.19922-0.39453 0.29688-0.78906 0.69141-1.2852 0.98828-0.69141 0.39453-1.2852 0.69141-1.6797 0.89062-1.0859 0.59375-1.0859 0.59375-1.3828 1.2852-0.39453 0.89063-0.39453 1.9766-0.39453 4.1484 0 1.9766 0 2.4688 0.19922 4.0508 0.29688 1.0859 1.0859 1.9766 1.9766 1.9766 1.0859 0 1.875-0.29688 2.3711-1.582 0.39453-1.1836 0.39453-2.2734 0.39453-4.0508l-0.003906-6.6211c0.10156-0.59375 0.10156-0.98828 0.10156-1.2852z"/>
  <path d="m346.3 442.75c-0.59375 0-1.2852 0-1.9766-0.097656-0.59375 0-1.2852-0.097657-1.875-0.097657-0.98828 0-1.6797 0-2.3711 0.097657-2.4688 0.097656-3.7539 0.19922-5.4336-2.0742-1.875-2.5664-1.875-5.1367-1.7773-8.4961v-1.7773-1.3828c0-2.668 0-3.9531 0.69141-6.9141 0.78906-3.457 4.1484-6.0273 7.5078-6.0273 2.5664 0 6.125 0.49219 8.2969 4.6445 1.3828 2.4688 1.3828 5.0391 1.3828 8.1992v10.867c0 0.98828-0.29688 1.6797-0.89063 2.2734-0.89062 0.58594-2.1719 0.78516-3.5547 0.78516zm-3.8555-2.1758c0.69141 0 1.2852 0 1.9766 0.097657 1.582 0.097656 3.3594 0.19922 3.9531-0.39453 0.097656-0.097657 0.29688-0.29688 0.29688-0.78906v-10.867c0-3.0625 0-5.1367-1.0859-7.2109-1.2852-2.4688-3.2617-3.5547-6.5195-3.5547-2.4688 0-4.9375 2.0742-5.5312 4.543-0.59375 2.668-0.59375 3.7539-0.59375 6.4219v1.3828 1.7773c0 3.2617-0.097656 5.3359 1.3828 7.3086 0.98828 1.3828 1.4805 1.3828 3.7539 1.2852h2.3672z"/>
  <path d="m277.45 414.69c-0.69141 0-1.3828-0.39453-1.9766-0.78906-3.3594-1.9766-20.055-33.684-21.238-36.746l-0.19922-0.39453c-1.2852-3.2617-2.3711-6.0273-2.9648-9.8789-0.49219-3.6562 0.69141-5.8281 4.0508-7.2109 3.457-1.4805 5.4336 0.097656 7.9023 2.1719 1.1836 0.98828 2.5664 2.1719 4.4453 3.2617 3.5547 1.9766 8.2969 6.4219 9.6797 9.9766 0.097657 0.097657 5.8281 15.211 2.5664 18.965-2.0742 2.5664-1.3828 7.5078-0.89063 11.062 0.39453 2.7656 0.59375 4.543 0 5.5312-0.19922 0.29688-0.097656 0.98828 0 1.4805 0.097657 0.78906 0.19922 1.6797-0.49219 2.1719-0.39062 0.29688-0.58594 0.39844-0.88281 0.39844zm-19.855-53.738c-0.49219 0-1.0859 0.097656-1.6797 0.39453-2.2734 0.98828-3.2617 1.9766-2.8633 5.1367 0.59375 3.6562 1.582 6.2227 2.8633 9.4844l0.19922 0.39453c1.9766 5.1367 18.176 34.375 20.449 35.758 0.097656 0.097656 0.19922 0.097656 0.29688 0.19922-0.097657-0.78906-0.19922-1.7773 0.29688-2.668 0.29688-0.49219 0-2.668-0.29688-4.2461-0.59375-3.9531-1.2852-9.4844 1.2852-12.645 1.582-1.875-0.69141-11.457-2.8633-16.992-1.0859-2.7656-5.2344-7.0117-8.793-8.9883-1.9766-1.1836-3.5547-2.4688-4.7422-3.457-1.7812-1.4844-2.7695-2.3711-4.1523-2.3711z"/>
  <path d="m326.34 441.36c-2.8633 0-4.4453-0.49219-5.6289-3.0625-0.89063-1.7773-0.78906-3.5547-0.78906-6.4219v-1.9766-1.4805c0-2.3711 0-3.5547 0.49219-6.125 0.69141-3.2617 3.2617-5.7305 5.9258-5.7305 3.1602 0 5.3359 1.4805 6.5195 4.4453 0.98828 2.2734 0.98828 4.4453 0.98828 7.4102v9.8789c0 0.89062-0.29688 1.582-0.78906 2.0742-0.98828 0.98828-2.668 0.98828-4.2461 0.98828h-1.3828-1.0898zm0-22.918c-1.4805 0-3.457 1.6797-3.9531 4.1484-0.49219 2.3711-0.49219 3.457-0.49219 5.7305v1.4805 1.9766c0 2.668 0 4.1484 0.59375 5.5312 0.78906 1.6797 1.2852 1.9766 4.9375 1.875h1.4805c1.0859 0 2.3711 0 2.7656-0.39453 0.097656 0 0.19922-0.19922 0.19922-0.69141v-9.8789c0-2.7656 0-4.6445-0.78906-6.6172-0.88672-2.1719-2.3711-3.1602-4.7422-3.1602z"/>
  <path d="m302.34 437.61h-0.19922c-1.4805-0.097656-2.668-1.582-3.5547-4.4453-0.59375-1.9766-0.98828-4.3477-0.89062-5.7305v-0.98828c0-0.39453 0-0.98828 0.097656-1.6797v-0.29688-1.4805c0-1.2852-0.097656-2.3711 0.29688-4.0508 0.59375-3.0625 3.1602-5.0391 5.1367-4.8398 2.2734 0.097656 3.8516 1.6797 4.543 4.543 0.49219 1.6797 0.39453 2.3711 0.19922 3.457-0.097656 0.49219-0.19922 1.1836-0.19922 2.1719v0.69141 0.097656l-0.19922 2.7656c-0.19141 1.4844-1.4766 9.7852-5.2305 9.7852zm-2.6641-10.867v0.89062c-0.097656 0.98828 0.19922 3.0625 0.89062 5.0391 0.78906 2.4688 1.582 3.0625 1.7773 3.0625 1.3828 0 2.9648-5.0391 3.1602-8.1016l0.097656-2.3711 0.097656-1.0859c0.097657-1.0859 0.19922-1.7773 0.19922-2.2734 0.097657-0.98828 0.19922-1.3828-0.097656-2.668-0.59375-2.5664-1.7773-2.9648-2.668-3.0625-0.98828-0.097656-2.668 1.1836-3.0625 3.2617-0.29688 1.3828-0.29688 2.3711-0.19922 3.5547v3.0625c-0.097657 0.19531-0.097657 0.39453-0.19531 0.69141z"/>
  <path d="m315.67 439.29h-1.2852-0.39453c-2.9648 0-5.2344 0-6.2227-2.8633s-0.89062-4.2461-0.89062-7.4102v-2.6641c0-2.3711 0-3.5547 0.49219-6.125 0.69141-3.2617 3.2617-5.7305 6.0273-5.7305 3.1602 0 5.2344 1.4805 6.6172 4.4453 0.98828 2.2734 0.98828 4.3477 0.98828 7.3086v10.273c0 0.69141-0.29688 1.2852-0.78906 1.7773-0.88672 0.58984-2.2695 0.98828-4.543 0.98828zm-1.1836-2.0742c3.0625 0.19922 4.0508-0.29688 4.3477-0.59375 0.097656-0.097656 0.097656-0.19922 0.097656-0.29688v-10.273c0-2.7656 0-4.543-0.78906-6.5195-1.2852-2.8633-3.1602-3.2617-4.7422-3.2617-1.7773 0-3.5547 1.7773-4.0508 4.1484-0.49219 2.3711-0.49219 3.3594-0.49219 5.7305v2.6641c0 3.0625 0 4.2461 0.78906 6.7188 0.59375 1.4805 1.2852 1.582 4.3477 1.582z"/>
  <path d="m295.23 432.96c-2.0742 0-3.5547-1.3828-3.6562-3.5547-0.19922-2.4688-0.29687-2.5664-0.29687-5.8281 0-2.668 0-3.6562 0.29687-6.0273 0.29688-2.8633 1.582-4.8398 3.1602-4.8398 1.6797 0 2.8633 1.2852 3.5547 3.8516 0.39453 1.9766 0.39453 3.8516 0.39453 6.5195v5.5312c0.003906 2.668-1.7773 4.3477-3.4531 4.3477zm-0.49609-18.273c-0.29688 0.097656-0.98828 1.0859-1.2852 3.0625-0.19922 2.2734-0.19922 3.0625-0.19922 5.8281 0 3.2617 0 3.2617 0.19922 5.7305 0.097657 1.1836 0.69141 1.6797 1.7773 1.6797 0.59375 0 1.4805-0.69141 1.4805-2.3711v-5.5312c0-2.4688 0-4.3477-0.39453-6.125-0.58984-2.2734-1.3789-2.2734-1.5781-2.2734z"/>
  <path d="m288.9 429.9c-2.0742 0-3.5547-1.3828-3.6562-3.5547-0.19922-2.4688-0.29688-2.5664-0.29688-5.8281 0-2.668 0-3.6562 0.29688-6.0273 0.29688-2.8633 1.582-4.8398 3.1602-4.8398 1.6797 0 2.8633 1.2852 3.5547 3.8516 0.39453 1.9766 0.39453 3.8516 0.39453 6.5195v5.5312c0.003906 2.7695-1.7734 4.3477-3.4531 4.3477zm-0.49219-18.273c-0.29688 0.097656-0.98828 1.0859-1.2852 3.0625-0.19922 2.2734-0.19922 3.0625-0.19922 5.8281 0 3.2617 0 3.2617 0.19922 5.7305 0.097656 1.1836 0.69141 1.6797 1.7773 1.6797 0.59375 0 1.4805-0.78906 1.4805-2.3711v-5.5312c0-2.4688 0-4.3477-0.39453-6.125-0.49219-2.2734-1.2812-2.2734-1.5781-2.2734z"/>
  <path d="m282.78 425.55c-2.0742 0-3.5547-1.3828-3.6562-3.5547-0.19922-2.4688-0.29688-2.5664-0.29688-5.8281 0-2.668 0-3.6562 0.29688-6.0273 0.29688-2.8633 1.582-4.8398 3.1602-4.8398 1.6797 0 2.9648 1.2852 3.5547 3.8516 0.39453 1.9766 0.39453 3.8516 0.39453 6.5195v5.5312c0.003906 2.6719-1.7734 4.3477-3.4531 4.3477zm-0.49219-18.273c-0.29688 0.097656-0.98828 1.0859-1.2852 3.0625-0.19922 2.2734-0.19922 3.0625-0.19922 5.8281 0 3.2617 0 3.2617 0.19922 5.7305 0.097656 1.1836 0.69141 1.6797 1.7773 1.6797 0.59375 0 1.4805-0.78906 1.4805-2.3711v-5.5312c0-2.4688 0-4.3477-0.39453-6.125-0.58984-2.2734-1.3828-2.2734-1.5781-2.2734z"/>
  <path d="m345.11 458.45c-2.668 0-4.543-0.98828-5.6289-2.9648-0.98828-1.582-0.98828-3.1602-0.98828-4.9375v-6.0273c0-2.5664 2.9648-2.668 4.9375-2.7656h0.69141c3.0625-0.097656 4.6445 0 5.8281 2.0742 0.78906 1.3828 0.78906 2.668 0.78906 4.7422v0.98828 1.0859c0 1.4805 0 2.3711-0.39453 3.9531-0.69141 2.0703-2.9609 3.8516-5.2344 3.8516zm0.19922-14.82h-1.1836-0.69141c-1.9766 0.097657-3.0625 0.19922-3.0625 0.78906v6.0273c0 1.6797 0 2.7656 0.69141 3.8516v0.097657c0.78906 1.3828 1.9766 1.9766 3.9531 1.9766 1.1836 0 2.8633-0.98828 3.2617-2.4688 0.39453-1.3828 0.39453-2.0742 0.29688-3.457v-1.0859-0.98828c0-1.875 0-2.7656-0.49219-3.7539-0.40234-0.69141-0.79688-0.98828-2.7734-0.98828z"/>
  <path d="m333.45 458.25c-2.668 0-4.543-0.98828-5.7305-3.1602-0.98828-1.9766-0.98828-3.5547-0.98828-5.8281l0.003906-5.7305c0-0.69141 0.19922-1.3828 0.69141-1.7773 1.0859-1.0859 2.9648-0.98828 4.6445-0.98828h0.29688c3.0625-0.097656 4.6445 0.097657 5.8281 2.2734 0.78906 1.3828 0.78906 2.668 0.69141 4.8398v1.0859 1.0859c0 1.4805 0 2.4688-0.39453 4.1484-0.39844 2.2734-2.6719 4.0508-5.043 4.0508zm-3.9492-4.0508c0.78906 1.3828 1.9766 2.0742 3.9531 2.0742 1.2852 0 2.8633-1.0859 3.2617-2.5664 0.39453-1.4805 0.39453-2.1719 0.39453-3.6562v-1.1836-1.0859c0-1.9766 0-2.9648-0.49219-3.8516-0.49219-0.98828-0.89062-1.3828-4.0508-1.1836h-0.39453c-1.1836 0-2.7656 0-3.2617 0.49219 0 0-0.097656 0.097656-0.097656 0.39453v5.6289c-0.003906 2.0742-0.003906 3.457 0.6875 4.9375z"/>
  <path d="m321.8 458.95c-1.7773 0-4.2461-0.39453-5.7305-3.5547-0.98828-1.9766-0.98828-3.8516-0.98828-6.4219l0.003906-6.4219c0-1.4805 0.89062-2.9648 2.3711-3.7539 1.2852-0.78906 2.668-0.89062 3.7539-0.29688 0.49219 0.19922 0.98828 0.39453 1.4805 0.59375 1.4805 0.59375 3.0625 1.1836 3.8516 2.7656 0.78906 1.582 0.69141 2.9648 0.69141 5.4336v1.1836 1.2852c0 1.7773 0 2.668-0.39453 4.543-0.49609 2.5703-2.7656 4.6445-5.0391 4.6445zm-2.1719-18.867c-0.39453 0-0.78906 0.097656-1.1836 0.39453-0.78906 0.49219-1.3828 1.3828-1.3828 2.0742v6.4219c0 2.5664 0 4.0508 0.78906 5.6289 0.78906 1.6797 1.875 2.3711 3.9531 2.3711 1.1836 0 2.8633-1.1836 3.2617-3.0625 0.39453-1.6797 0.39453-2.4688 0.39453-4.1484v-1.2852-1.1836c0-2.2734 0-3.3594-0.49219-4.543-0.39453-0.89062-1.2852-1.1836-2.7656-1.7773-0.59375-0.19922-1.0859-0.39453-1.6797-0.69141-0.40234-0.19922-0.59766-0.19922-0.89453-0.19922z"/>
  <path d="m310.14 461.51c-2.7656 0-4.6445-1.3828-5.7305-4.1484-0.98828-2.0742-0.98828-4.1484-0.98828-6.7188v-8.793c0-1.582 0.19922-4.3477 1.7773-5.0391 0.39453-0.19922 1.1836-0.39453 2.1719 0.49219 0.89062 0.69141 2.1719 0.89062 3.3594 0.98828 1.9766 0.19922 4.3477 0.49219 4.8398 3.6562 0.19922 1.2852 0.19922 2.2734 0.097657 3.7539 0 0.89062-0.097657 1.9766-0.097657 3.457v1.582c0 2.0742 0 3.2617-0.39453 5.5312-0.39062 2.8711-2.6641 5.2383-5.0352 5.2383zm-4.1484-22.914c-0.19922 0.29688-0.59375 1.2852-0.59375 3.1602v8.793c0 2.5664 0 4.2461 0.78906 5.9258v0.097657c0.98828 2.5664 2.4688 2.9648 3.8516 2.9648 1.1836 0 2.8633-1.4805 3.2617-3.7539 0.39453-2.1719 0.39453-3.1602 0.39453-5.1367v-1.582c0-1.4805 0.097657-2.668 0.097657-3.5547 0.097656-1.3828 0.097656-2.1719-0.097657-3.2617-0.29687-1.6797-1.0859-1.7773-3.1602-2.0742-1.3828-0.19922-3.0625-0.39453-4.3477-1.3828-0.097656-0.097657-0.097656-0.097657-0.19531-0.19531z"/>
  <path d="m300.46 454.01c-2.0742 0-3.5547-1.0859-4.2461-3.3594-0.49219-1.7773-0.49219-3.457-0.49219-5.8281l-0.003906-8.1992c0-2.3711 0.19922-3.6562 1.1836-4.0508 0.98828-0.39453 1.7773 0.49219 2.4688 1.2852 0.29688 0.39453 0.69141 0.78906 0.98828 0.98828 0.59375 0.39453 1.0859 0.78906 1.4805 0.98828 1.2852 0.89062 1.6797 1.1836 2.2734 2.5664 0.59375 1.582 0.59375 2.9648 0.59375 5.9258 0 2.4688 0 3.1602-0.29688 5.3359-0.49219 2.668-2.0742 4.3477-3.9492 4.3477zm-2.4688-3.9531c0.59375 1.875 1.4805 2.0742 2.3711 2.0742s1.6797-1.0859 1.9766-2.668c0.19922-1.9766 0.19922-2.5664 0.19922-5.0391 0-2.7656 0-4.0508-0.39453-5.2344-0.29688-0.89062-0.39453-0.89062-1.4805-1.6797-0.39453-0.29687-0.89062-0.59375-1.582-1.0859-0.49219-0.39453-0.89062-0.89062-1.2852-1.2852-0.097656-0.097657-0.097656-0.097657-0.19922-0.19922 0 0.39453-0.097656 0.89062-0.097656 1.6797v8.1016c0.09375 2.3711 0.09375 3.8555 0.49219 5.3359z"/>
  <path d="m292.75 448.97c-2.0742 0-3.457-1.0859-4.2461-3.3594-0.69141-1.7773-0.69141-3.457-0.69141-5.9258v-8.1016c0-1.2852 0.49219-1.875 0.98828-2.1719 1.0859-0.69141 2.4688-0.19922 3.3594 0.29688 2.0742 0.89062 3.457 1.875 4.2461 3.7539 0.59375 1.582 0.59375 2.9648 0.59375 5.9258 0 2.4688 0 3.1602-0.29688 5.3359-0.49609 2.5664-2.0742 4.2461-3.9531 4.2461zm-2.9609-17.781s-0.097657 0.097656-0.097657 0.49219v8.1016c0 2.2734 0 3.7539 0.59375 5.2344 0.59375 1.875 1.4805 2.0742 2.3711 2.0742s1.6797-1.0859 1.9766-2.668c0.19922-1.9766 0.19922-2.5664 0.19922-5.0391 0-2.7656 0-4.0508-0.39453-5.2344-0.39453-1.1836-1.1836-1.7773-3.1602-2.668-0.99609-0.49219-1.3906-0.39062-1.4883-0.29297z"/>
  <path d="m284.66 441.46c-1.3828 0-3.2617-0.29688-4.2461-2.8633-0.59375-1.4805-0.59375-2.8633-0.59375-4.7422v-6.6172c0-1.875 0.19922-3.0625 1.0859-3.457 0.98828-0.39453 1.7773 0.29688 2.4688 0.98828 0.29688 0.29688 0.69141 0.59375 0.98828 0.78906 0.69141 0.39453 1.1836 0.59375 1.582 0.89062 1.1836 0.59375 1.6797 0.89062 2.2734 2.1719 0.59375 1.2852 0.59375 2.5664 0.59375 4.9375 0 1.9766 0 2.668-0.29688 4.3477-0.49609 1.9727-2.0781 3.5547-3.8555 3.5547zm-2.4688-3.5547c0.49219 1.2852 1.2852 1.582 2.3711 1.582 0.89062 0 1.6797-0.89062 1.9766-2.0742 0.19922-1.4805 0.19922-1.9766 0.19922-3.9531 0-2.2734 0-3.2617-0.39453-4.1484-0.29688-0.69141-0.29688-0.69141-1.3828-1.2852-0.39453-0.19922-0.98828-0.49219-1.6797-0.89062-0.49219-0.29688-0.89062-0.69141-1.2852-0.98828-0.097657-0.097657-0.19922-0.19922-0.29688-0.19922 0 0.29688-0.097656 0.69141-0.097656 1.2852v6.6172c0.19141 1.7812 0.19141 2.8672 0.58984 4.0547z"/>
  <use x="70" y="574.816406" xlink:href="#v"/>
  <use x="73.625" y="574.816406" xlink:href="#b"/>
  <use x="76.0625" y="574.816406" xlink:href="#a"/>
  <use x="79.410156" y="574.816406" xlink:href="#d"/>
  <use x="82.742188" y="574.816406" xlink:href="#c"/>
  <use x="85.105469" y="574.816406" xlink:href="#a"/>
  <use x="88.453125" y="574.816406" xlink:href="#j"/>
  <use x="93.710938" y="574.816406" xlink:href="#g"/>
  <use x="97.246094" y="574.816406" xlink:href="#f"/>
  <use x="102.183594" y="574.816406" xlink:href="#i"/>
  <use x="106.238281" y="574.816406" xlink:href="#d"/>
  <use x="109.570312" y="574.816406" xlink:href="#g"/>
  <use x="113.105469" y="574.816406" xlink:href="#b"/>
  <use x="115.542969" y="574.816406" xlink:href="#u"/>
  <use x="117.234375" y="574.816406" xlink:href="#a"/>
  <use x="120.585938" y="574.816406" xlink:href="#h"/>
  <use x="122.277344" y="574.816406" xlink:href="#h"/>
  <use x="123.972656" y="574.816406" xlink:href="#d"/>
  <use x="129.023438" y="574.816406" xlink:href="#t"/>
  <use x="132.828125" y="574.816406" xlink:href="#a"/>
  <use x="136.175781" y="574.816406" xlink:href="#f"/>
  <use x="70" y="579.757812" xlink:href="#s"/>
  <use x="72.148438" y="579.757812" xlink:href="#b"/>
  <use x="74.585938" y="579.757812" xlink:href="#e"/>
  <use x="77.976562" y="579.757812" xlink:href="#r"/>
  <use x="84.84375" y="579.757812" xlink:href="#c"/>
  <use x="87.203125" y="579.757812" xlink:href="#q"/>
  <use x="90.722656" y="579.757812" xlink:href="#a"/>
  <use x="95.789062" y="579.757812" xlink:href="#p"/>
  <use x="99.925781" y="579.757812" xlink:href="#e"/>
  <use x="103.316406" y="579.757812" xlink:href="#o"/>
  <use x="106.832031" y="579.757812" xlink:href="#n"/>
  <use x="112.070312" y="579.757812" xlink:href="#m"/>
  <use x="115.691406" y="579.757812" xlink:href="#b"/>
  <use x="118.125" y="579.757812" xlink:href="#e"/>
  <use x="121.519531" y="579.757812" xlink:href="#l"/>
  <use x="123.210938" y="579.757812" xlink:href="#a"/>
  <use x="126.5625" y="579.757812" xlink:href="#k"/>
  <use x="129.488281" y="579.757812" xlink:href="#c"/>
 </g>
</svg>
