{
  "header": {
    "PPQ": 96,
    "timeSignature": [
      4,
      4
    ],
    "bpm": 112.00005973336519,
    "name": "Metamorphosis One"
  },
  "startTime": 0,
  "duration": 334.27995564583017,
  "tracks": [
    {
      "startTime": 0,
      "duration": 0,
      "length": 0,
      "notes": [],
      "controlChanges": {},
      "id": 0,
      "name": "Metamorphosis One"
    },
    {
      "startTime": 0,
      "duration": 334.190669979167,
      "length": 414,
      "notes": [
        {
          "name": "B4",
          "midi": 71,
          "time": 0,
          "velocity": 0.7165354330708661,
          "duration": 0.5245532916666668
        },
        {
          "name": "G4",
          "midi": 67,
          "time": 0,
          "velocity": 0.7244094488188977,
          "duration": 0.5133925833333334
        },
        {
          "name": "E4",
          "midi": 64,
          "time": 0,
          "velocity": 0.7086614173228346,
          "duration": 0.5245532916666668
        },
        {
          "name": "E4",
          "midi": 64,
          "time": 0.5301336458333334,
          "velocity": 0.7244094488188977,
          "duration": 1.5680795208333331
        },
        {
          "name": "B4",
          "midi": 71,
          "time": 0.5357140000000001,
          "velocity": 0.7086614173228346,
          "duration": 1.5680795208333334
        },
        {
          "name": "G4",
          "midi": 67,
          "time": 0.5357140000000001,
          "velocity": 0.7165354330708661,
          "duration": 1.6015616458333333
        },
        {
          "name": "B4",
          "midi": 71,
          "time": 2.1372756458333333,
          "velocity": 0.7244094488188977,
          "duration": 0.5189729375000001
        },
        {
          "name": "D4",
          "midi": 62,
          "time": 2.1372756458333333,
          "velocity": 0.7086614173228346,
          "duration": 0.5301336458333332
        },
        {
          "name": "G4",
          "midi": 67,
          "time": 2.142856,
          "velocity": 0.7165354330708661,
          "duration": 0.5245532916666664
        },
        {
          "name": "B4",
          "midi": 71,
          "time": 2.6729896458333333,
          "velocity": 0.6929133858267716,
          "duration": 1.5680795208333334
        },
        {
          "name": "G4",
          "midi": 67,
          "time": 2.6729896458333333,
          "velocity": 0.7086614173228346,
          "duration": 1.607142
        },
        {
          "name": "D4",
          "midi": 62,
          "time": 2.67857,
          "velocity": 0.7244094488188977,
          "duration": 1.5848205833333329
        },
        {
          "name": "B4",
          "midi": 71,
          "time": 4.280131645833333,
          "velocity": 0.7165354330708661,
          "duration": 0.5245532916666669
        },
        {
          "name": "G4",
          "midi": 67,
          "time": 4.285712,
          "velocity": 0.7244094488188977,
          "duration": 0.5245532916666669
        },
        {
          "name": "C4",
          "midi": 60,
          "time": 4.285712,
          "velocity": 0.6929133858267716,
          "duration": 0.5301336458333337
        },
        {
          "name": "B4",
          "midi": 71,
          "time": 4.815845645833334,
          "velocity": 0.6614173228346457,
          "duration": 1.6294634166666677
        },
        {
          "name": "G4",
          "midi": 67,
          "time": 4.815845645833334,
          "velocity": 0.6929133858267716,
          "duration": 1.5680795208333338
        },
        {
          "name": "C4",
          "midi": 60,
          "time": 4.821426000000001,
          "velocity": 0.6614173228346457,
          "duration": 1.595981291666667
        },
        {
          "name": "E4",
          "midi": 64,
          "time": 6.422987645833334,
          "velocity": 0.5669291338582677,
          "duration": 0.5301336458333337
        },
        {
          "name": "C4",
          "midi": 60,
          "time": 6.422987645833334,
          "velocity": 0.5748031496062992,
          "duration": 0.5301336458333337
        },
        {
          "name": "A#4",
          "midi": 70,
          "time": 6.428568000000001,
          "velocity": 0.5669291338582677,
          "duration": 0.5245532916666669
        },
        {
          "name": "A#4",
          "midi": 70,
          "time": 6.958701645833335,
          "velocity": 0.5354330708661418,
          "duration": 3.2366054166666665
        },
        {
          "name": "E4",
          "midi": 64,
          "time": 6.958701645833335,
          "velocity": 0.5354330708661418,
          "duration": 3.1417393958333335
        },
        {
          "name": "C4",
          "midi": 60,
          "time": 6.958701645833335,
          "velocity": 0.5354330708661418,
          "duration": 3.2366054166666665
        },
        {
          "name": "E2",
          "midi": 40,
          "time": 14.994411645833335,
          "velocity": 0.5433070866141733,
          "duration": 4.235488812499998
        },
        {
          "name": "E3",
          "midi": 52,
          "time": 14.999992,
          "velocity": 0.5433070866141733,
          "duration": 4.2354888125
        },
        {
          "name": "B4",
          "midi": 71,
          "time": 19.285704,
          "velocity": 0.7007874015748031,
          "duration": 0.5245532916666669
        },
        {
          "name": "G4",
          "midi": 67,
          "time": 19.285704,
          "velocity": 0.7007874015748031,
          "duration": 0.5301336458333346
        },
        {
          "name": "E4",
          "midi": 64,
          "time": 19.285704,
          "velocity": 0.7086614173228346,
          "duration": 0.5245532916666669
        },
        {
          "name": "E4",
          "midi": 64,
          "time": 19.815837645833334,
          "velocity": 0.7244094488188977,
          "duration": 1.584820583333336
        },
        {
          "name": "B4",
          "midi": 71,
          "time": 19.821418,
          "velocity": 0.7244094488188977,
          "duration": 1.5959812916666678
        },
        {
          "name": "G4",
          "midi": 67,
          "time": 19.821418,
          "velocity": 0.7086614173228346,
          "duration": 1.6015616458333355
        },
        {
          "name": "B4",
          "midi": 71,
          "time": 21.422979645833337,
          "velocity": 0.7086614173228346,
          "duration": 0.5245532916666669
        },
        {
          "name": "G4",
          "midi": 67,
          "time": 21.428560000000004,
          "velocity": 0.7244094488188977,
          "duration": 0.5301336458333346
        },
        {
          "name": "D4",
          "midi": 62,
          "time": 21.428560000000004,
          "velocity": 0.7165354330708661,
          "duration": 0.5245532916666669
        },
        {
          "name": "B4",
          "midi": 71,
          "time": 21.95869364583334,
          "velocity": 0.6929133858267716,
          "duration": 1.6015616458333355
        },
        {
          "name": "G4",
          "midi": 67,
          "time": 21.964274000000007,
          "velocity": 0.7086614173228346,
          "duration": 1.568079520833333
        },
        {
          "name": "D4",
          "midi": 62,
          "time": 21.964274000000007,
          "velocity": 0.7244094488188977,
          "duration": 1.6294634166666704
        },
        {
          "name": "B4",
          "midi": 71,
          "time": 23.565835645833342,
          "velocity": 0.7165354330708661,
          "duration": 0.5189729375000027
        },
        {
          "name": "C4",
          "midi": 60,
          "time": 23.565835645833342,
          "velocity": 0.7007874015748031,
          "duration": 0.5245532916666704
        },
        {
          "name": "G4",
          "midi": 67,
          "time": 23.57141600000001,
          "velocity": 0.7007874015748031,
          "duration": 0.5245532916666704
        },
        {
          "name": "G4",
          "midi": 67,
          "time": 24.101549645833348,
          "velocity": 0.6929133858267716,
          "duration": 1.568079520833333
        },
        {
          "name": "B4",
          "midi": 71,
          "time": 24.107130000000016,
          "velocity": 0.6771653543307087,
          "duration": 1.6294634166666668
        },
        {
          "name": "C4",
          "midi": 60,
          "time": 24.107130000000016,
          "velocity": 0.6614173228346457,
          "duration": 1.601561645833332
        },
        {
          "name": "E4",
          "midi": 64,
          "time": 25.708691645833348,
          "velocity": 0.5826771653543307,
          "duration": 0.5189729375000027
        },
        {
          "name": "A#4",
          "midi": 70,
          "time": 25.714272000000015,
          "velocity": 0.5669291338582677,
          "duration": 0.5189729375000027
        },
        {
          "name": "C4",
          "midi": 60,
          "time": 25.714272000000015,
          "velocity": 0.5748031496062992,
          "duration": 0.5245532916666704
        },
        {
          "name": "A#4",
          "midi": 70,
          "time": 26.244405645833353,
          "velocity": 0.5511811023622047,
          "duration": 3.208703645833335
        },
        {
          "name": "C4",
          "midi": 60,
          "time": 26.244405645833353,
          "velocity": 0.5669291338582677,
          "duration": 3.175221520833336
        },
        {
          "name": "E4",
          "midi": 64,
          "time": 26.24998600000002,
          "velocity": 0.5669291338582677,
          "duration": 3.2366054166666665
        },
        {
          "name": "E3",
          "midi": 52,
          "time": 34.280115645833355,
          "velocity": 0.5669291338582677,
          "duration": 4.280131645833336
        },
        {
          "name": "E2",
          "midi": 40,
          "time": 34.28569600000002,
          "velocity": 0.5669291338582677,
          "duration": 4.363836958333337
        },
        {
          "name": "D6",
          "midi": 86,
          "time": 39.63725564583336,
          "velocity": 0.8818897637795275,
          "duration": 0.5189729375000027
        },
        {
          "name": "D5",
          "midi": 74,
          "time": 39.63725564583336,
          "velocity": 0.8661417322834646,
          "duration": 0.5301336458333381
        },
        {
          "name": "B5",
          "midi": 83,
          "time": 40.17296964583337,
          "velocity": 0.8740157480314961,
          "duration": 1.0658476458333368
        },
        {
          "name": "B4",
          "midi": 71,
          "time": 40.17296964583337,
          "velocity": 0.8818897637795275,
          "duration": 1.0658476458333368
        },
        {
          "name": "D6",
          "midi": 86,
          "time": 41.78569200000004,
          "velocity": 0.8818897637795275,
          "duration": 0.5189729375000027
        },
        {
          "name": "D5",
          "midi": 74,
          "time": 41.78569200000004,
          "velocity": 0.8818897637795275,
          "duration": 0.5245532916666704
        },
        {
          "name": "B4",
          "midi": 71,
          "time": 42.31582564583338,
          "velocity": 0.8267716535433071,
          "duration": 1.043526229166666
        },
        {
          "name": "B5",
          "midi": 83,
          "time": 42.321406000000046,
          "velocity": 0.8346456692913385,
          "duration": 1.043526229166666
        },
        {
          "name": "D6",
          "midi": 86,
          "time": 43.92296764583338,
          "velocity": 0.7559055118110236,
          "duration": 0.530133645833331
        },
        {
          "name": "D5",
          "midi": 74,
          "time": 43.92296764583338,
          "velocity": 0.7244094488188977,
          "duration": 0.5245532916666633
        },
        {
          "name": "B4",
          "midi": 71,
          "time": 44.45868164583338,
          "velocity": 0.6929133858267716,
          "duration": 1.0658476458333368
        },
        {
          "name": "B5",
          "midi": 83,
          "time": 44.46426200000005,
          "velocity": 0.6929133858267716,
          "duration": 1.0825887083333328
        },
        {
          "name": "A#5",
          "midi": 82,
          "time": 46.06582364583338,
          "velocity": 0.6456692913385826,
          "duration": 0.5189729375000027
        },
        {
          "name": "A#4",
          "midi": 70,
          "time": 46.06582364583338,
          "velocity": 0.6220472440944882,
          "duration": 0.5189729375000027
        },
        {
          "name": "G5",
          "midi": 79,
          "time": 46.60153764583339,
          "velocity": 0.6377952755905512,
          "duration": 1.043526229166666
        },
        {
          "name": "G4",
          "midi": 67,
          "time": 46.60711800000006,
          "velocity": 0.6299212598425197,
          "duration": 1.0714279999999974
        },
        {
          "name": "E3",
          "midi": 52,
          "time": 51.42854400000005,
          "velocity": 0.6141732283464567,
          "duration": 4.235488812500002
        },
        {
          "name": "E2",
          "midi": 40,
          "time": 51.42854400000005,
          "velocity": 0.6456692913385826,
          "duration": 4.319194125000003
        },
        {
          "name": "D6",
          "midi": 86,
          "time": 56.78568400000005,
          "velocity": 0.8740157480314961,
          "duration": 0.5357140000000058
        },
        {
          "name": "D5",
          "midi": 74,
          "time": 56.78568400000005,
          "velocity": 0.8740157480314961,
          "duration": 0.5189729375000027
        },
        {
          "name": "B5",
          "midi": 83,
          "time": 57.32139800000006,
          "velocity": 0.8582677165354331,
          "duration": 1.0658476458333297
        },
        {
          "name": "B4",
          "midi": 71,
          "time": 57.32139800000006,
          "velocity": 0.8503937007874016,
          "duration": 1.043526229166666
        },
        {
          "name": "D6",
          "midi": 86,
          "time": 58.92295964583339,
          "velocity": 0.8661417322834646,
          "duration": 0.530133645833331
        },
        {
          "name": "D5",
          "midi": 74,
          "time": 58.928540000000055,
          "velocity": 0.8818897637795275,
          "duration": 0.5357139999999987
        },
        {
          "name": "B5",
          "midi": 83,
          "time": 59.464254000000054,
          "velocity": 0.84251968503937,
          "duration": 1.0658476458333297
        },
        {
          "name": "B4",
          "midi": 71,
          "time": 59.464254000000054,
          "velocity": 0.8503937007874016,
          "duration": 1.0658476458333297
        },
        {
          "name": "D6",
          "midi": 86,
          "time": 61.06581564583338,
          "velocity": 0.7559055118110236,
          "duration": 0.530133645833331
        },
        {
          "name": "D5",
          "midi": 74,
          "time": 61.06581564583338,
          "velocity": 0.7401574803149606,
          "duration": 0.530133645833331
        },
        {
          "name": "B5",
          "midi": 83,
          "time": 61.60152964583338,
          "velocity": 0.7007874015748031,
          "duration": 1.043526229166666
        },
        {
          "name": "B4",
          "midi": 71,
          "time": 61.60152964583338,
          "velocity": 0.7007874015748031,
          "duration": 1.0546869375000014
        },
        {
          "name": "A#4",
          "midi": 70,
          "time": 63.208671645833384,
          "velocity": 0.6377952755905512,
          "duration": 0.530133645833331
        },
        {
          "name": "A#5",
          "midi": 82,
          "time": 63.21425200000005,
          "velocity": 0.6141732283464567,
          "duration": 0.530133645833331
        },
        {
          "name": "G5",
          "midi": 79,
          "time": 63.74996600000005,
          "velocity": 0.6456692913385826,
          "duration": 1.0714280000000045
        },
        {
          "name": "G4",
          "midi": 67,
          "time": 63.74996600000005,
          "velocity": 0.6299212598425197,
          "duration": 1.0714280000000045
        },
        {
          "name": "E3",
          "midi": 52,
          "time": 68.56581164583339,
          "velocity": 0.6456692913385826,
          "duration": 4.2354888124999945
        },
        {
          "name": "E2",
          "midi": 40,
          "time": 68.57139200000006,
          "velocity": 0.6141732283464567,
          "duration": 4.190845979166667
        },
        {
          "name": "D5",
          "midi": 74,
          "time": 73.9229516458334,
          "velocity": 0.8818897637795275,
          "duration": 0.5357139999999987
        },
        {
          "name": "D6",
          "midi": 86,
          "time": 73.92853200000006,
          "velocity": 0.8661417322834646,
          "duration": 0.5245532916666633
        },
        {
          "name": "B4",
          "midi": 71,
          "time": 74.45866564583339,
          "velocity": 0.8503937007874016,
          "duration": 1.0825887083333328
        },
        {
          "name": "B5",
          "midi": 83,
          "time": 74.46424600000006,
          "velocity": 0.8503937007874016,
          "duration": 1.0714279999999974
        },
        {
          "name": "D6",
          "midi": 86,
          "time": 76.06580764583339,
          "velocity": 0.8661417322834646,
          "duration": 0.530133645833331
        },
        {
          "name": "D5",
          "midi": 74,
          "time": 76.06580764583339,
          "velocity": 0.8740157480314961,
          "duration": 0.5245532916666633
        },
        {
          "name": "B5",
          "midi": 83,
          "time": 76.60710200000005,
          "velocity": 0.8188976377952756,
          "duration": 1.0435262291666731
        },
        {
          "name": "B4",
          "midi": 71,
          "time": 76.60710200000005,
          "velocity": 0.8267716535433071,
          "duration": 1.0825887083333328
        },
        {
          "name": "D6",
          "midi": 86,
          "time": 78.20866364583338,
          "velocity": 0.7244094488188977,
          "duration": 0.5245532916666633
        },
        {
          "name": "D5",
          "midi": 74,
          "time": 78.20866364583338,
          "velocity": 0.7322834645669292,
          "duration": 0.530133645833331
        },
        {
          "name": "B5",
          "midi": 83,
          "time": 78.74437764583338,
          "velocity": 0.7007874015748031,
          "duration": 1.0825887083333328
        },
        {
          "name": "B4",
          "midi": 71,
          "time": 78.74995800000005,
          "velocity": 0.7244094488188977,
          "duration": 1.0825887083333328
        },
        {
          "name": "A#5",
          "midi": 82,
          "time": 80.35151964583338,
          "velocity": 0.6141732283464567,
          "duration": 0.530133645833331
        },
        {
          "name": "A#4",
          "midi": 70,
          "time": 80.35151964583338,
          "velocity": 0.6141732283464567,
          "duration": 0.530133645833331
        },
        {
          "name": "G5",
          "midi": 79,
          "time": 80.88723364583338,
          "velocity": 0.6299212598425197,
          "duration": 1.0714280000000116
        },
        {
          "name": "G4",
          "midi": 67,
          "time": 80.88723364583338,
          "velocity": 0.6456692913385826,
          "duration": 1.0435262291666731
        },
        {
          "name": "E3",
          "midi": 52,
          "time": 85.7086596458334,
          "velocity": 0.6299212598425197,
          "duration": 4.31919412500001
        },
        {
          "name": "E2",
          "midi": 40,
          "time": 85.7086596458334,
          "velocity": 0.6220472440944882,
          "duration": 4.280131645833336
        },
        {
          "name": "B4",
          "midi": 71,
          "time": 89.9943716458334,
          "velocity": 0.7244094488188977,
          "duration": 0.5301336458333452
        },
        {
          "name": "G4",
          "midi": 67,
          "time": 89.9943716458334,
          "velocity": 0.7007874015748031,
          "duration": 0.5301336458333452
        },
        {
          "name": "E4",
          "midi": 64,
          "time": 89.99995200000006,
          "velocity": 0.7165354330708661,
          "duration": 0.5301336458333452
        },
        {
          "name": "B4",
          "midi": 71,
          "time": 90.53008564583341,
          "velocity": 0.6929133858267716,
          "duration": 1.6015616458333284
        },
        {
          "name": "G4",
          "midi": 67,
          "time": 90.53566600000008,
          "velocity": 0.7007874015748031,
          "duration": 1.5959812916666607
        },
        {
          "name": "E4",
          "midi": 64,
          "time": 90.53566600000008,
          "velocity": 0.6929133858267716,
          "duration": 1.6015616458333284
        },
        {
          "name": "B4",
          "midi": 71,
          "time": 92.1372276458334,
          "velocity": 0.7086614173228346,
          "duration": 0.530133645833331
        },
        {
          "name": "G4",
          "midi": 67,
          "time": 92.1372276458334,
          "velocity": 0.7086614173228346,
          "duration": 0.5189729374999956
        },
        {
          "name": "D4",
          "midi": 62,
          "time": 92.1372276458334,
          "velocity": 0.7244094488188977,
          "duration": 0.530133645833331
        },
        {
          "name": "G4",
          "midi": 67,
          "time": 92.6729416458334,
          "velocity": 0.7007874015748031,
          "duration": 1.5680795208333365
        },
        {
          "name": "D4",
          "midi": 62,
          "time": 92.6729416458334,
          "velocity": 0.7007874015748031,
          "duration": 1.5680795208333365
        },
        {
          "name": "B4",
          "midi": 71,
          "time": 92.67852200000007,
          "velocity": 0.7007874015748031,
          "duration": 1.5848205833333395
        },
        {
          "name": "B4",
          "midi": 71,
          "time": 94.28008364583341,
          "velocity": 0.7165354330708661,
          "duration": 0.5189729374999956
        },
        {
          "name": "G4",
          "midi": 67,
          "time": 94.28008364583341,
          "velocity": 0.7086614173228346,
          "duration": 0.530133645833331
        },
        {
          "name": "C4",
          "midi": 60,
          "time": 94.28008364583341,
          "velocity": 0.7165354330708661,
          "duration": 0.5189729374999956
        },
        {
          "name": "G4",
          "midi": 67,
          "time": 94.81579764583341,
          "velocity": 0.6614173228346457,
          "duration": 1.629463416666681
        },
        {
          "name": "C4",
          "midi": 60,
          "time": 94.81579764583341,
          "velocity": 0.6771653543307087,
          "duration": 1.6071420000000103
        },
        {
          "name": "B4",
          "midi": 71,
          "time": 94.82137800000008,
          "velocity": 0.6929133858267716,
          "duration": 1.5848205833333395
        },
        {
          "name": "A#4",
          "midi": 70,
          "time": 96.42293964583342,
          "velocity": 0.5748031496062992,
          "duration": 0.5301336458333452
        },
        {
          "name": "E4",
          "midi": 64,
          "time": 96.42293964583342,
          "velocity": 0.5826771653543307,
          "duration": 0.5189729375000098
        },
        {
          "name": "C4",
          "midi": 60,
          "time": 96.42852000000009,
          "velocity": 0.5669291338582677,
          "duration": 0.5189729375000098
        },
        {
          "name": "A#4",
          "midi": 70,
          "time": 96.95865364583344,
          "velocity": 0.5433070866141733,
          "duration": 3.2700875416666833
        },
        {
          "name": "E4",
          "midi": 64,
          "time": 96.9642340000001,
          "velocity": 0.5511811023622047,
          "duration": 3.1417393958333406
        },
        {
          "name": "C4",
          "midi": 60,
          "time": 96.9642340000001,
          "velocity": 0.5433070866141733,
          "duration": 3.236605416666677
        },
        {
          "name": "E2",
          "midi": 40,
          "time": 104.99436364583346,
          "velocity": 0.5590551181102362,
          "duration": 4.363836958333337
        },
        {
          "name": "E3",
          "midi": 52,
          "time": 104.99994400000013,
          "velocity": 0.5590551181102362,
          "duration": 4.363836958333337
        },
        {
          "name": "B4",
          "midi": 71,
          "time": 109.28007564583346,
          "velocity": 0.7086614173228346,
          "duration": 0.530133645833331
        },
        {
          "name": "G4",
          "midi": 67,
          "time": 109.28565600000013,
          "velocity": 0.7086614173228346,
          "duration": 0.530133645833331
        },
        {
          "name": "E4",
          "midi": 64,
          "time": 109.28565600000013,
          "velocity": 0.7165354330708661,
          "duration": 0.5189729374999956
        },
        {
          "name": "B4",
          "midi": 71,
          "time": 109.82137000000013,
          "velocity": 0.7244094488188977,
          "duration": 1.5680795208333365
        },
        {
          "name": "G4",
          "midi": 67,
          "time": 109.82137000000013,
          "velocity": 0.7086614173228346,
          "duration": 1.595981291666675
        },
        {
          "name": "E4",
          "midi": 64,
          "time": 109.82137000000013,
          "velocity": 0.7007874015748031,
          "duration": 1.5680795208333365
        },
        {
          "name": "G4",
          "midi": 67,
          "time": 111.42293164583347,
          "velocity": 0.7086614173228346,
          "duration": 0.530133645833331
        },
        {
          "name": "B4",
          "midi": 71,
          "time": 111.42851200000014,
          "velocity": 0.7007874015748031,
          "duration": 0.5245532916666633
        },
        {
          "name": "D4",
          "midi": 62,
          "time": 111.42851200000014,
          "velocity": 0.6929133858267716,
          "duration": 0.5245532916666633
        },
        {
          "name": "G4",
          "midi": 67,
          "time": 111.95864564583347,
          "velocity": 0.6929133858267716,
          "duration": 1.5680795208333365
        },
        {
          "name": "D4",
          "midi": 62,
          "time": 111.95864564583347,
          "velocity": 0.7007874015748031,
          "duration": 1.6015616458333426
        },
        {
          "name": "B4",
          "midi": 71,
          "time": 111.96422600000014,
          "velocity": 0.7244094488188977,
          "duration": 1.5680795208333365
        },
        {
          "name": "B4",
          "midi": 71,
          "time": 113.57136800000015,
          "velocity": 0.7086614173228346,
          "duration": 0.5189729374999956
        },
        {
          "name": "G4",
          "midi": 67,
          "time": 113.57136800000015,
          "velocity": 0.7165354330708661,
          "duration": 0.530133645833331
        },
        {
          "name": "C4",
          "midi": 60,
          "time": 113.57136800000015,
          "velocity": 0.7086614173228346,
          "duration": 0.5189729374999956
        },
        {
          "name": "B4",
          "midi": 71,
          "time": 114.10150164583348,
          "velocity": 0.6850393700787402,
          "duration": 1.6015616458333284
        },
        {
          "name": "G4",
          "midi": 67,
          "time": 114.10708200000015,
          "velocity": 0.6771653543307087,
          "duration": 1.6294634166666668
        },
        {
          "name": "C4",
          "midi": 60,
          "time": 114.10708200000015,
          "velocity": 0.6614173228346457,
          "duration": 1.5959812916666607
        },
        {
          "name": "A#4",
          "midi": 70,
          "time": 115.70864364583348,
          "velocity": 0.5905511811023622,
          "duration": 0.5301336458333452
        },
        {
          "name": "C4",
          "midi": 60,
          "time": 115.70864364583348,
          "velocity": 0.5748031496062992,
          "duration": 0.5189729375000098
        },
        {
          "name": "E4",
          "midi": 64,
          "time": 115.71422400000014,
          "velocity": 0.5748031496062992,
          "duration": 0.5245532916666775
        },
        {
          "name": "A#4",
          "midi": 70,
          "time": 116.24435764583349,
          "velocity": 0.5354330708661418,
          "duration": 3.236605416666663
        },
        {
          "name": "E4",
          "midi": 64,
          "time": 116.24435764583349,
          "velocity": 0.5511811023622047,
          "duration": 3.236605416666663
        },
        {
          "name": "C4",
          "midi": 60,
          "time": 116.24993800000016,
          "velocity": 0.5511811023622047,
          "duration": 3.1752215208333325
        },
        {
          "name": "E2",
          "midi": 40,
          "time": 124.28006764583348,
          "velocity": 0.5354330708661418,
          "duration": 4.235488812500009
        },
        {
          "name": "E3",
          "midi": 52,
          "time": 124.28564800000015,
          "velocity": 0.5590551181102362,
          "duration": 4.319194124999996
        },
        {
          "name": "D6",
          "midi": 86,
          "time": 129.64278800000014,
          "velocity": 0.8661417322834646,
          "duration": 0.5357139999999845
        },
        {
          "name": "D5",
          "midi": 74,
          "time": 129.64278800000014,
          "velocity": 0.8503937007874016,
          "duration": 0.5357139999999845
        },
        {
          "name": "B4",
          "midi": 71,
          "time": 130.17292164583347,
          "velocity": 0.8661417322834646,
          "duration": 1.0435262291666447
        },
        {
          "name": "B5",
          "midi": 83,
          "time": 130.17850200000012,
          "velocity": 0.8582677165354331,
          "duration": 1.0435262291666447
        },
        {
          "name": "D6",
          "midi": 86,
          "time": 131.7856440000001,
          "velocity": 0.8818897637795275,
          "duration": 0.5357139999999845
        },
        {
          "name": "D5",
          "midi": 74,
          "time": 131.7856440000001,
          "velocity": 0.8582677165354331,
          "duration": 0.5245532916666775
        },
        {
          "name": "B5",
          "midi": 83,
          "time": 132.31577764583344,
          "velocity": 0.8346456692913385,
          "duration": 1.0658476458333155
        },
        {
          "name": "B4",
          "midi": 71,
          "time": 132.31577764583344,
          "velocity": 0.8267716535433071,
          "duration": 1.0658476458333155
        },
        {
          "name": "D6",
          "midi": 86,
          "time": 133.92850000000007,
          "velocity": 0.7559055118110236,
          "duration": 0.5357140000000129
        },
        {
          "name": "D5",
          "midi": 74,
          "time": 133.92850000000007,
          "velocity": 0.7322834645669292,
          "duration": 0.5245532916666775
        },
        {
          "name": "B5",
          "midi": 83,
          "time": 134.46421400000008,
          "velocity": 0.7165354330708661,
          "duration": 1.0714279999999974
        },
        {
          "name": "B4",
          "midi": 71,
          "time": 134.46421400000008,
          "velocity": 0.7086614173228346,
          "duration": 1.0825887083333328
        },
        {
          "name": "A#5",
          "midi": 82,
          "time": 136.0657756458334,
          "velocity": 0.6299212598425197,
          "duration": 0.5189729374999956
        },
        {
          "name": "A#4",
          "midi": 70,
          "time": 136.07135600000007,
          "velocity": 0.6220472440944882,
          "duration": 0.5245532916666775
        },
        {
          "name": "G5",
          "midi": 79,
          "time": 136.6014896458334,
          "velocity": 0.6220472440944882,
          "duration": 1.0825887083333328
        },
        {
          "name": "G4",
          "midi": 67,
          "time": 136.60707000000005,
          "velocity": 0.6220472440944882,
          "duration": 1.0825887083333328
        },
        {
          "name": "E3",
          "midi": 52,
          "time": 141.42291564583337,
          "velocity": 0.6456692913385826,
          "duration": 4.190845979166653
        },
        {
          "name": "E2",
          "midi": 40,
          "time": 141.42849600000002,
          "velocity": 0.6377952755905512,
          "duration": 4.319194124999996
        },
        {
          "name": "D6",
          "midi": 86,
          "time": 146.78005564583336,
          "velocity": 0.8582677165354331,
          "duration": 0.5245532916666491
        },
        {
          "name": "D5",
          "midi": 74,
          "time": 146.785636,
          "velocity": 0.8582677165354331,
          "duration": 0.530133645833331
        },
        {
          "name": "B5",
          "midi": 83,
          "time": 147.32135,
          "velocity": 0.8818897637795275,
          "duration": 1.0825887083333328
        },
        {
          "name": "B4",
          "midi": 71,
          "time": 147.32135,
          "velocity": 0.8582677165354331,
          "duration": 1.0546869375000085
        },
        {
          "name": "D6",
          "midi": 86,
          "time": 148.92291164583332,
          "velocity": 0.8740157480314961,
          "duration": 0.5245532916666491
        },
        {
          "name": "D5",
          "midi": 74,
          "time": 148.92849199999998,
          "velocity": 0.8740157480314961,
          "duration": 0.530133645833331
        },
        {
          "name": "B4",
          "midi": 71,
          "time": 149.4586256458333,
          "velocity": 0.8346456692913385,
          "duration": 1.0714279999999974
        },
        {
          "name": "B5",
          "midi": 83,
          "time": 149.46420599999996,
          "velocity": 0.84251968503937,
          "duration": 1.0546869375000085
        },
        {
          "name": "D5",
          "midi": 74,
          "time": 151.06576764583332,
          "velocity": 0.7322834645669292,
          "duration": 0.530133645833331
        },
        {
          "name": "D6",
          "midi": 86,
          "time": 151.07134799999997,
          "velocity": 0.7480314960629921,
          "duration": 0.5245532916666775
        },
        {
          "name": "B5",
          "midi": 83,
          "time": 151.6014816458333,
          "velocity": 0.7007874015748031,
          "duration": 1.0825887083333328
        },
        {
          "name": "B4",
          "midi": 71,
          "time": 151.60706199999996,
          "velocity": 0.7086614173228346,
          "duration": 1.065847645833344
        },
        {
          "name": "A#5",
          "midi": 82,
          "time": 153.21420399999997,
          "velocity": 0.6220472440944882,
          "duration": 0.5245532916666775
        },
        {
          "name": "A#4",
          "midi": 70,
          "time": 153.21420399999997,
          "velocity": 0.6299212598425197,
          "duration": 0.5357140000000129
        },
        {
          "name": "G5",
          "midi": 79,
          "time": 153.74991799999998,
          "velocity": 0.6299212598425197,
          "duration": 1.065847645833344
        },
        {
          "name": "G4",
          "midi": 67,
          "time": 153.74991799999998,
          "velocity": 0.6299212598425197,
          "duration": 1.0825887083333328
        },
        {
          "name": "E2",
          "midi": 40,
          "time": 158.5657636458333,
          "velocity": 0.6299212598425197,
          "duration": 4.319194124999996
        },
        {
          "name": "E3",
          "midi": 52,
          "time": 158.57134399999995,
          "velocity": 0.6220472440944882,
          "duration": 4.1908459791666814
        },
        {
          "name": "D6",
          "midi": 86,
          "time": 163.92848399999997,
          "velocity": 0.8503937007874016,
          "duration": 0.5245532916666775
        },
        {
          "name": "D5",
          "midi": 74,
          "time": 163.92848399999997,
          "velocity": 0.8661417322834646,
          "duration": 0.5357140000000129
        },
        {
          "name": "B5",
          "midi": 83,
          "time": 164.46419799999998,
          "velocity": 0.8818897637795275,
          "duration": 1.0714279999999974
        },
        {
          "name": "B4",
          "midi": 71,
          "time": 164.46419799999998,
          "velocity": 0.8582677165354331,
          "duration": 1.0714279999999974
        },
        {
          "name": "D6",
          "midi": 86,
          "time": 166.07134,
          "velocity": 0.8582677165354331,
          "duration": 0.530133645833331
        },
        {
          "name": "D5",
          "midi": 74,
          "time": 166.07134,
          "velocity": 0.8582677165354331,
          "duration": 0.5189729374999956
        },
        {
          "name": "B5",
          "midi": 83,
          "time": 166.60147364583332,
          "velocity": 0.8188976377952756,
          "duration": 1.0435262291666731
        },
        {
          "name": "B4",
          "midi": 71,
          "time": 166.60147364583332,
          "velocity": 0.8188976377952756,
          "duration": 1.0435262291666731
        },
        {
          "name": "D6",
          "midi": 86,
          "time": 168.20861564583333,
          "velocity": 0.7559055118110236,
          "duration": 0.5245532916666491
        },
        {
          "name": "D5",
          "midi": 74,
          "time": 168.20861564583333,
          "velocity": 0.7480314960629921,
          "duration": 0.5189729374999956
        },
        {
          "name": "B4",
          "midi": 71,
          "time": 168.74432964583332,
          "velocity": 0.7007874015748031,
          "duration": 1.0825887083333328
        },
        {
          "name": "B5",
          "midi": 83,
          "time": 168.74990999999997,
          "velocity": 0.7244094488188977,
          "duration": 1.0546869375000085
        },
        {
          "name": "A#4",
          "midi": 70,
          "time": 170.35147164583333,
          "velocity": 0.6220472440944882,
          "duration": 0.5189729374999956
        },
        {
          "name": "A#5",
          "midi": 82,
          "time": 170.35705199999998,
          "velocity": 0.6220472440944882,
          "duration": 0.530133645833331
        },
        {
          "name": "G4",
          "midi": 67,
          "time": 170.8871856458333,
          "velocity": 0.6456692913385826,
          "duration": 1.0658476458333155
        },
        {
          "name": "G5",
          "midi": 79,
          "time": 170.89276599999997,
          "velocity": 0.6377952755905512,
          "duration": 1.0546869375000085
        },
        {
          "name": "E3",
          "midi": 52,
          "time": 175.7086116458333,
          "velocity": 0.6141732283464567,
          "duration": 4.363836958333309
        },
        {
          "name": "E2",
          "midi": 40,
          "time": 175.71419199999994,
          "velocity": 0.6299212598425197,
          "duration": 4.363836958333309
        },
        {
          "name": "B4",
          "midi": 71,
          "time": 179.99432364583328,
          "velocity": 0.7165354330708661,
          "duration": 0.5301336458332742
        },
        {
          "name": "G4",
          "midi": 67,
          "time": 179.99432364583328,
          "velocity": 0.7007874015748031,
          "duration": 0.5189729374999672
        },
        {
          "name": "E4",
          "midi": 64,
          "time": 179.99432364583328,
          "velocity": 0.7086614173228346,
          "duration": 0.5245532916666207
        },
        {
          "name": "G4",
          "midi": 67,
          "time": 180.5300376458332,
          "velocity": 0.7244094488188977,
          "duration": 1.6071419999999819
        },
        {
          "name": "E4",
          "midi": 64,
          "time": 180.5300376458332,
          "velocity": 0.7086614173228346,
          "duration": 1.6294634166666242
        },
        {
          "name": "B4",
          "midi": 71,
          "time": 180.53561799999986,
          "velocity": 0.7165354330708661,
          "duration": 1.5848205833333395
        },
        {
          "name": "D4",
          "midi": 62,
          "time": 182.13717964583319,
          "velocity": 0.7086614173228346,
          "duration": 0.5301336458333026
        },
        {
          "name": "B4",
          "midi": 71,
          "time": 182.14275999999984,
          "velocity": 0.6929133858267716,
          "duration": 0.5245532916666491
        },
        {
          "name": "G4",
          "midi": 67,
          "time": 182.14275999999984,
          "velocity": 0.7244094488188977,
          "duration": 0.5245532916666491
        },
        {
          "name": "B4",
          "midi": 71,
          "time": 182.67289364583314,
          "velocity": 0.7244094488188977,
          "duration": 1.6015616458333
        },
        {
          "name": "G4",
          "midi": 67,
          "time": 182.67289364583314,
          "velocity": 0.7007874015748031,
          "duration": 1.6015616458333
        },
        {
          "name": "D4",
          "midi": 62,
          "time": 182.6784739999998,
          "velocity": 0.7007874015748031,
          "duration": 1.5680795208333222
        },
        {
          "name": "B4",
          "midi": 71,
          "time": 184.28561599999978,
          "velocity": 0.6929133858267716,
          "duration": 0.530133645833331
        },
        {
          "name": "G4",
          "midi": 67,
          "time": 184.28561599999978,
          "velocity": 0.7086614173228346,
          "duration": 0.530133645833331
        },
        {
          "name": "C4",
          "midi": 60,
          "time": 184.28561599999978,
          "velocity": 0.7086614173228346,
          "duration": 0.5245532916666775
        },
        {
          "name": "C4",
          "midi": 60,
          "time": 184.8157496458331,
          "velocity": 0.6850393700787402,
          "duration": 1.5680795208333222
        },
        {
          "name": "B4",
          "midi": 71,
          "time": 184.82132999999976,
          "velocity": 0.6692913385826772,
          "duration": 1.6015616458333284
        },
        {
          "name": "G4",
          "midi": 67,
          "time": 184.82132999999976,
          "velocity": 0.6692913385826772,
          "duration": 1.6127223541666638
        },
        {
          "name": "A#4",
          "midi": 70,
          "time": 186.4228916458331,
          "velocity": 0.5826771653543307,
          "duration": 0.530133645833331
        },
        {
          "name": "E4",
          "midi": 64,
          "time": 186.4228916458331,
          "velocity": 0.5826771653543307,
          "duration": 0.5245532916666775
        },
        {
          "name": "C4",
          "midi": 60,
          "time": 186.4228916458331,
          "velocity": 0.5905511811023622,
          "duration": 0.530133645833331
        },
        {
          "name": "A#4",
          "midi": 70,
          "time": 186.95860564583307,
          "velocity": 0.5669291338582677,
          "duration": 3.1752215208333325
        },
        {
          "name": "E4",
          "midi": 64,
          "time": 186.95860564583307,
          "velocity": 0.5511811023622047,
          "duration": 3.270087541666669
        },
        {
          "name": "C4",
          "midi": 60,
          "time": 186.95860564583307,
          "velocity": 0.5354330708661418,
          "duration": 3.236605416666663
        },
        {
          "name": "E3",
          "midi": 52,
          "time": 194.99989599999975,
          "velocity": 0.5511811023622047,
          "duration": 4.319194124999996
        },
        {
          "name": "E2",
          "midi": 40,
          "time": 194.99989599999975,
          "velocity": 0.5590551181102362,
          "duration": 4.363836958333337
        },
        {
          "name": "B4",
          "midi": 71,
          "time": 199.2800276458331,
          "velocity": 0.7165354330708661,
          "duration": 0.530133645833331
        },
        {
          "name": "G4",
          "midi": 67,
          "time": 199.2800276458331,
          "velocity": 0.7244094488188977,
          "duration": 0.5189729374999956
        },
        {
          "name": "E4",
          "midi": 64,
          "time": 199.28560799999974,
          "velocity": 0.6929133858267716,
          "duration": 0.530133645833331
        },
        {
          "name": "B4",
          "midi": 71,
          "time": 199.82132199999972,
          "velocity": 0.6929133858267716,
          "duration": 1.5680795208333222
        },
        {
          "name": "G4",
          "midi": 67,
          "time": 199.82132199999972,
          "velocity": 0.7086614173228346,
          "duration": 1.584820583333311
        },
        {
          "name": "E4",
          "midi": 64,
          "time": 199.82132199999972,
          "velocity": 0.7007874015748031,
          "duration": 1.612722354166607
        },
        {
          "name": "G4",
          "midi": 67,
          "time": 201.42288364583302,
          "velocity": 0.7007874015748031,
          "duration": 0.5189729374999672
        },
        {
          "name": "D4",
          "midi": 62,
          "time": 201.42288364583302,
          "velocity": 0.7165354330708661,
          "duration": 0.5189729374999672
        },
        {
          "name": "B4",
          "midi": 71,
          "time": 201.42846399999968,
          "velocity": 0.7244094488188977,
          "duration": 0.5245532916666491
        },
        {
          "name": "B4",
          "midi": 71,
          "time": 201.95859764583298,
          "velocity": 0.7086614173228346,
          "duration": 1.6071419999999819
        },
        {
          "name": "G4",
          "midi": 67,
          "time": 201.95859764583298,
          "velocity": 0.7244094488188977,
          "duration": 1.584820583333311
        },
        {
          "name": "D4",
          "midi": 62,
          "time": 201.96417799999963,
          "velocity": 0.7007874015748031,
          "duration": 1.6015616458333284
        },
        {
          "name": "B4",
          "midi": 71,
          "time": 203.57131999999962,
          "velocity": 0.7165354330708661,
          "duration": 0.5245532916666775
        },
        {
          "name": "G4",
          "midi": 67,
          "time": 203.57131999999962,
          "velocity": 0.7007874015748031,
          "duration": 0.5245532916666775
        },
        {
          "name": "C4",
          "midi": 60,
          "time": 203.57131999999962,
          "velocity": 0.7165354330708661,
          "duration": 0.530133645833331
        },
        {
          "name": "B4",
          "midi": 71,
          "time": 204.10145364583295,
          "velocity": 0.6692913385826772,
          "duration": 1.584820583333311
        },
        {
          "name": "G4",
          "midi": 67,
          "time": 204.10145364583295,
          "velocity": 0.6614173228346457,
          "duration": 1.612722354166607
        },
        {
          "name": "C4",
          "midi": 60,
          "time": 204.1070339999996,
          "velocity": 0.6692913385826772,
          "duration": 1.5959812916666465
        },
        {
          "name": "C4",
          "midi": 60,
          "time": 205.7085956458329,
          "velocity": 0.5984251968503937,
          "duration": 0.5301336458333026
        },
        {
          "name": "A#4",
          "midi": 70,
          "time": 205.71417599999955,
          "velocity": 0.5748031496062992,
          "duration": 0.5245532916666491
        },
        {
          "name": "E4",
          "midi": 64,
          "time": 205.71417599999955,
          "velocity": 0.5669291338582677,
          "duration": 0.5189729374999956
        },
        {
          "name": "A#4",
          "midi": 70,
          "time": 206.24430964583286,
          "velocity": 0.5511811023622047,
          "duration": 3.2366054166666345
        },
        {
          "name": "E4",
          "midi": 64,
          "time": 206.24430964583286,
          "velocity": 0.5354330708661418,
          "duration": 3.2087036458333102
        },
        {
          "name": "C4",
          "midi": 60,
          "time": 206.2498899999995,
          "velocity": 0.5354330708661418,
          "duration": 3.2087036458333102
        },
        {
          "name": "E3",
          "midi": 52,
          "time": 214.28001964583282,
          "velocity": 0.5354330708661418,
          "duration": 4.280131645833308
        },
        {
          "name": "E2",
          "midi": 40,
          "time": 214.28559999999948,
          "velocity": 0.5590551181102362,
          "duration": 4.363836958333309
        },
        {
          "name": "D6",
          "midi": 86,
          "time": 219.63715964583278,
          "velocity": 0.8661417322834646,
          "duration": 0.5245532916666491
        },
        {
          "name": "D5",
          "midi": 74,
          "time": 219.64273999999943,
          "velocity": 0.8503937007874016,
          "duration": 0.530133645833331
        },
        {
          "name": "B5",
          "midi": 83,
          "time": 220.17287364583277,
          "velocity": 0.8503937007874016,
          "duration": 1.0658476458333155
        },
        {
          "name": "B4",
          "midi": 71,
          "time": 220.17845399999942,
          "velocity": 0.8818897637795275,
          "duration": 1.0825887083333328
        },
        {
          "name": "D6",
          "midi": 86,
          "time": 221.78001564583275,
          "velocity": 0.8503937007874016,
          "duration": 0.5357139999999845
        },
        {
          "name": "D5",
          "midi": 74,
          "time": 221.78001564583275,
          "velocity": 0.8582677165354331,
          "duration": 0.5189729374999956
        },
        {
          "name": "B5",
          "midi": 83,
          "time": 222.3213099999994,
          "velocity": 0.8188976377952756,
          "duration": 1.065847645833344
        },
        {
          "name": "B4",
          "midi": 71,
          "time": 222.3213099999994,
          "velocity": 0.8188976377952756,
          "duration": 1.0435262291666731
        },
        {
          "name": "D6",
          "midi": 86,
          "time": 223.92287164583274,
          "velocity": 0.7559055118110236,
          "duration": 0.5189729374999956
        },
        {
          "name": "D5",
          "midi": 74,
          "time": 223.9284519999994,
          "velocity": 0.7244094488188977,
          "duration": 0.5357140000000129
        },
        {
          "name": "B5",
          "midi": 83,
          "time": 224.4641659999994,
          "velocity": 0.6929133858267716,
          "duration": 1.0435262291666731
        },
        {
          "name": "B4",
          "midi": 71,
          "time": 224.4641659999994,
          "velocity": 0.7244094488188977,
          "duration": 1.065847645833344
        },
        {
          "name": "A#5",
          "midi": 82,
          "time": 226.06572764583277,
          "velocity": 0.6299212598425197,
          "duration": 0.5189729374999956
        },
        {
          "name": "A#4",
          "midi": 70,
          "time": 226.07130799999942,
          "velocity": 0.6377952755905512,
          "duration": 0.5357140000000129
        },
        {
          "name": "G5",
          "midi": 79,
          "time": 226.60702199999943,
          "velocity": 0.6299212598425197,
          "duration": 1.0714279999999974
        },
        {
          "name": "G4",
          "midi": 67,
          "time": 226.60702199999943,
          "velocity": 0.6141732283464567,
          "duration": 1.0714279999999974
        },
        {
          "name": "E3",
          "midi": 52,
          "time": 231.42286764583275,
          "velocity": 0.6299212598425197,
          "duration": 4.363836958333309
        },
        {
          "name": "E2",
          "midi": 40,
          "time": 231.4284479999994,
          "velocity": 0.6220472440944882,
          "duration": 4.319194124999996
        },
        {
          "name": "D6",
          "midi": 86,
          "time": 236.7855879999994,
          "velocity": 0.8582677165354331,
          "duration": 0.530133645833331
        },
        {
          "name": "D5",
          "midi": 74,
          "time": 236.7855879999994,
          "velocity": 0.8503937007874016,
          "duration": 0.5357139999999845
        },
        {
          "name": "B4",
          "midi": 71,
          "time": 237.31572164583272,
          "velocity": 0.8818897637795275,
          "duration": 1.0714279999999974
        },
        {
          "name": "B5",
          "midi": 83,
          "time": 237.32130199999938,
          "velocity": 0.8503937007874016,
          "duration": 1.0825887083333328
        },
        {
          "name": "D5",
          "midi": 74,
          "time": 238.9228636458327,
          "velocity": 0.8818897637795275,
          "duration": 0.5189729374999956
        },
        {
          "name": "D6",
          "midi": 86,
          "time": 238.92844399999936,
          "velocity": 0.8740157480314961,
          "duration": 0.5245532916666775
        },
        {
          "name": "B5",
          "midi": 83,
          "time": 239.46415799999937,
          "velocity": 0.8503937007874016,
          "duration": 1.0546869375000085
        },
        {
          "name": "B4",
          "midi": 71,
          "time": 239.46415799999937,
          "velocity": 0.8267716535433071,
          "duration": 1.0825887083333328
        },
        {
          "name": "D6",
          "midi": 86,
          "time": 241.07129999999938,
          "velocity": 0.7559055118110236,
          "duration": 0.5245532916666775
        },
        {
          "name": "D5",
          "midi": 74,
          "time": 241.07129999999938,
          "velocity": 0.7480314960629921,
          "duration": 0.5357139999999845
        },
        {
          "name": "B5",
          "midi": 83,
          "time": 241.6014336458327,
          "velocity": 0.6929133858267716,
          "duration": 1.05468693749998
        },
        {
          "name": "B4",
          "midi": 71,
          "time": 241.6014336458327,
          "velocity": 0.7165354330708661,
          "duration": 1.05468693749998
        },
        {
          "name": "A#5",
          "midi": 82,
          "time": 243.2085756458327,
          "velocity": 0.6220472440944882,
          "duration": 0.5357139999999845
        },
        {
          "name": "A#4",
          "midi": 70,
          "time": 243.2085756458327,
          "velocity": 0.6456692913385826,
          "duration": 0.5189729374999956
        },
        {
          "name": "G5",
          "midi": 79,
          "time": 243.74428964583268,
          "velocity": 0.6377952755905512,
          "duration": 1.0658476458333155
        },
        {
          "name": "G4",
          "midi": 67,
          "time": 243.74986999999933,
          "velocity": 0.6377952755905512,
          "duration": 1.0435262291666731
        },
        {
          "name": "E2",
          "midi": 40,
          "time": 248.56571564583265,
          "velocity": 0.6456692913385826,
          "duration": 4.280131645833308
        },
        {
          "name": "E3",
          "midi": 52,
          "time": 248.5712959999993,
          "velocity": 0.6456692913385826,
          "duration": 4.363836958333309
        },
        {
          "name": "D6",
          "midi": 86,
          "time": 253.9228556458326,
          "velocity": 0.8818897637795275,
          "duration": 0.530133645833331
        },
        {
          "name": "D5",
          "midi": 74,
          "time": 253.92843599999927,
          "velocity": 0.8582677165354331,
          "duration": 0.530133645833331
        },
        {
          "name": "B5",
          "midi": 83,
          "time": 254.4585696458326,
          "velocity": 0.8582677165354331,
          "duration": 1.0714279999999974
        },
        {
          "name": "B4",
          "midi": 71,
          "time": 254.46414999999925,
          "velocity": 0.8661417322834646,
          "duration": 1.0435262291666731
        },
        {
          "name": "D5",
          "midi": 74,
          "time": 256.0657116458326,
          "velocity": 0.8503937007874016,
          "duration": 0.5301336458333594
        },
        {
          "name": "D6",
          "midi": 86,
          "time": 256.0712919999993,
          "velocity": 0.8740157480314961,
          "duration": 0.5189729374999956
        },
        {
          "name": "B5",
          "midi": 83,
          "time": 256.60142564583265,
          "velocity": 0.8267716535433071,
          "duration": 1.054686937500037
        },
        {
          "name": "B4",
          "midi": 71,
          "time": 256.60700599999933,
          "velocity": 0.8188976377952756,
          "duration": 1.0714280000000258
        },
        {
          "name": "D6",
          "midi": 86,
          "time": 258.2085676458327,
          "velocity": 0.7244094488188977,
          "duration": 0.5301336458333594
        },
        {
          "name": "D5",
          "midi": 74,
          "time": 258.2141479999994,
          "velocity": 0.7401574803149606,
          "duration": 0.5245532916666775
        },
        {
          "name": "B4",
          "midi": 71,
          "time": 258.74428164583276,
          "velocity": 0.6929133858267716,
          "duration": 1.0435262291666731
        },
        {
          "name": "B5",
          "midi": 83,
          "time": 258.74986199999944,
          "velocity": 0.7244094488188977,
          "duration": 1.0825887083333328
        },
        {
          "name": "A#5",
          "midi": 82,
          "time": 260.35700399999945,
          "velocity": 0.6456692913385826,
          "duration": 0.5189729374999956
        },
        {
          "name": "A#4",
          "midi": 70,
          "time": 260.35700399999945,
          "velocity": 0.6377952755905512,
          "duration": 0.5357139999999845
        },
        {
          "name": "G5",
          "midi": 79,
          "time": 260.88713764583275,
          "velocity": 0.6299212598425197,
          "duration": 1.065847645833344
        },
        {
          "name": "G4",
          "midi": 67,
          "time": 260.88713764583275,
          "velocity": 0.6141732283464567,
          "duration": 1.0435262291666731
        },
        {
          "name": "E2",
          "midi": 40,
          "time": 265.7085636458328,
          "velocity": 0.6299212598425197,
          "duration": 4.319194124999967
        },
        {
          "name": "E3",
          "midi": 52,
          "time": 265.71414399999946,
          "velocity": 0.6299212598425197,
          "duration": 4.363836958333309
        },
        {
          "name": "B4",
          "midi": 71,
          "time": 269.9942756458328,
          "velocity": 0.6929133858267716,
          "duration": 0.5357139999999845
        },
        {
          "name": "G4",
          "midi": 67,
          "time": 269.9942756458328,
          "velocity": 0.6929133858267716,
          "duration": 0.5357139999999845
        },
        {
          "name": "E4",
          "midi": 64,
          "time": 269.9942756458328,
          "velocity": 0.7086614173228346,
          "duration": 0.5189729374999956
        },
        {
          "name": "E4",
          "midi": 64,
          "time": 270.52998964583276,
          "velocity": 0.7244094488188977,
          "duration": 1.6127223541666922
        },
        {
          "name": "B4",
          "midi": 71,
          "time": 270.53556999999944,
          "velocity": 0.7244094488188977,
          "duration": 1.6015616458333284
        },
        {
          "name": "G4",
          "midi": 67,
          "time": 270.53556999999944,
          "velocity": 0.7244094488188977,
          "duration": 1.5959812916666465
        },
        {
          "name": "G4",
          "midi": 67,
          "time": 272.13713164583277,
          "velocity": 0.7165354330708661,
          "duration": 0.5301336458333594
        },
        {
          "name": "D4",
          "midi": 62,
          "time": 272.13713164583277,
          "velocity": 0.7007874015748031,
          "duration": 0.5301336458333594
        },
        {
          "name": "B4",
          "midi": 71,
          "time": 272.14271199999945,
          "velocity": 0.6929133858267716,
          "duration": 0.5245532916666775
        },
        {
          "name": "B4",
          "midi": 71,
          "time": 272.6728456458328,
          "velocity": 0.7086614173228346,
          "duration": 1.6015616458333284
        },
        {
          "name": "G4",
          "midi": 67,
          "time": 272.6728456458328,
          "velocity": 0.7086614173228346,
          "duration": 1.6071420000000103
        },
        {
          "name": "D4",
          "midi": 62,
          "time": 272.6784259999995,
          "velocity": 0.6929133858267716,
          "duration": 1.5848205833333395
        },
        {
          "name": "B4",
          "midi": 71,
          "time": 274.2799876458328,
          "velocity": 0.7086614173228346,
          "duration": 0.5301336458333594
        },
        {
          "name": "G4",
          "midi": 67,
          "time": 274.2855679999995,
          "velocity": 0.7086614173228346,
          "duration": 0.5245532916666775
        },
        {
          "name": "C4",
          "midi": 60,
          "time": 274.2855679999995,
          "velocity": 0.7244094488188977,
          "duration": 0.5301336458333594
        },
        {
          "name": "B4",
          "midi": 71,
          "time": 274.81570164583286,
          "velocity": 0.7086614173228346,
          "duration": 1.5680795208333507
        },
        {
          "name": "G4",
          "midi": 67,
          "time": 274.81570164583286,
          "velocity": 0.7007874015748031,
          "duration": 1.6127223541666922
        },
        {
          "name": "C4",
          "midi": 60,
          "time": 274.82128199999954,
          "velocity": 0.6929133858267716,
          "duration": 1.6015616458333284
        },
        {
          "name": "A#4",
          "midi": 70,
          "time": 276.42284364583287,
          "velocity": 0.7165354330708661,
          "duration": 0.5301336458333594
        },
        {
          "name": "E4",
          "midi": 64,
          "time": 276.42284364583287,
          "velocity": 0.6929133858267716,
          "duration": 0.5301336458333594
        },
        {
          "name": "C4",
          "midi": 60,
          "time": 276.42842399999955,
          "velocity": 0.7086614173228346,
          "duration": 0.5301336458333594
        },
        {
          "name": "A#4",
          "midi": 70,
          "time": 276.9585576458329,
          "velocity": 0.6614173228346457,
          "duration": 1.6015616458333284
        },
        {
          "name": "E4",
          "midi": 64,
          "time": 276.9641379999996,
          "velocity": 0.6850393700787402,
          "duration": 1.6127223541666922
        },
        {
          "name": "C4",
          "midi": 60,
          "time": 276.9641379999996,
          "velocity": 0.6771653543307087,
          "duration": 1.5848205833333395
        },
        {
          "name": "A#4",
          "midi": 70,
          "time": 278.5656996458329,
          "velocity": 0.5984251968503937,
          "duration": 0.5357140000000413
        },
        {
          "name": "F#4",
          "midi": 66,
          "time": 278.5712799999996,
          "velocity": 0.5984251968503937,
          "duration": 0.5301336458333594
        },
        {
          "name": "C4",
          "midi": 60,
          "time": 278.5712799999996,
          "velocity": 0.5905511811023622,
          "duration": 0.5245532916666775
        },
        {
          "name": "C4",
          "midi": 60,
          "time": 279.10141364583296,
          "velocity": 0.5669291338582677,
          "duration": 3.2366054166666913
        },
        {
          "name": "A#4",
          "midi": 70,
          "time": 279.10699399999964,
          "velocity": 0.5669291338582677,
          "duration": 3.2087036458333387
        },
        {
          "name": "F#4",
          "midi": 66,
          "time": 279.10699399999964,
          "velocity": 0.5354330708661418,
          "duration": 3.1417393958333264
        },
        {
          "name": "B4",
          "midi": 71,
          "time": 282.85141164583297,
          "velocity": 0.6299212598425197,
          "duration": 0.5301336458333594
        },
        {
          "name": "G4",
          "midi": 67,
          "time": 282.85141164583297,
          "velocity": 0.6141732283464567,
          "duration": 0.5301336458333594
        },
        {
          "name": "E4",
          "midi": 64,
          "time": 282.85699199999965,
          "velocity": 0.6299212598425197,
          "duration": 0.5301336458333594
        },
        {
          "name": "G4",
          "midi": 67,
          "time": 283.387125645833,
          "velocity": 0.6220472440944882,
          "duration": 1.6015616458333852
        },
        {
          "name": "B4",
          "midi": 71,
          "time": 283.3927059999997,
          "velocity": 0.6377952755905512,
          "duration": 1.5680795208333507
        },
        {
          "name": "E4",
          "midi": 64,
          "time": 283.3927059999997,
          "velocity": 0.6220472440944882,
          "duration": 1.5680795208333507
        },
        {
          "name": "B4",
          "midi": 71,
          "time": 284.9942676458331,
          "velocity": 0.6377952755905512,
          "duration": 0.5301336458333594
        },
        {
          "name": "G4",
          "midi": 67,
          "time": 284.99984799999976,
          "velocity": 0.6141732283464567,
          "duration": 0.5301336458333594
        },
        {
          "name": "D4",
          "midi": 62,
          "time": 284.99984799999976,
          "velocity": 0.6377952755905512,
          "duration": 0.5301336458333594
        },
        {
          "name": "B4",
          "midi": 71,
          "time": 285.5355619999998,
          "velocity": 0.6456692913385826,
          "duration": 1.5680795208333507
        },
        {
          "name": "G4",
          "midi": 67,
          "time": 285.5355619999998,
          "velocity": 0.6299212598425197,
          "duration": 1.5959812916667033
        },
        {
          "name": "D4",
          "midi": 62,
          "time": 285.5355619999998,
          "velocity": 0.6456692913385826,
          "duration": 1.6294634166667379
        },
        {
          "name": "G4",
          "midi": 67,
          "time": 287.1371236458332,
          "velocity": 0.6299212598425197,
          "duration": 0.5301336458333594
        },
        {
          "name": "B4",
          "midi": 71,
          "time": 287.14270399999987,
          "velocity": 0.6299212598425197,
          "duration": 0.5245532916666775
        },
        {
          "name": "C4",
          "midi": 60,
          "time": 287.14270399999987,
          "velocity": 0.6220472440944882,
          "duration": 0.5245532916666775
        },
        {
          "name": "B4",
          "midi": 71,
          "time": 287.6728376458332,
          "velocity": 0.6299212598425197,
          "duration": 1.6015616458333284
        },
        {
          "name": "G4",
          "midi": 67,
          "time": 287.6728376458332,
          "velocity": 0.6141732283464567,
          "duration": 1.5848205833333395
        },
        {
          "name": "C4",
          "midi": 60,
          "time": 287.6728376458332,
          "velocity": 0.6299212598425197,
          "duration": 1.5848205833333395
        },
        {
          "name": "A#4",
          "midi": 70,
          "time": 289.27997964583324,
          "velocity": 0.6377952755905512,
          "duration": 0.5301336458333594
        },
        {
          "name": "E4",
          "midi": 64,
          "time": 289.27997964583324,
          "velocity": 0.6141732283464567,
          "duration": 0.5301336458333594
        },
        {
          "name": "C4",
          "midi": 60,
          "time": 289.27997964583324,
          "velocity": 0.6377952755905512,
          "duration": 0.5301336458333594
        },
        {
          "name": "E4",
          "midi": 64,
          "time": 289.8156936458333,
          "velocity": 0.5984251968503937,
          "duration": 1.6015616458333852
        },
        {
          "name": "A#4",
          "midi": 70,
          "time": 289.82127399999996,
          "velocity": 0.5826771653543307,
          "duration": 1.5680795208333507
        },
        {
          "name": "C4",
          "midi": 60,
          "time": 289.82127399999996,
          "velocity": 0.5826771653543307,
          "duration": 1.6015616458333852
        },
        {
          "name": "A#4",
          "midi": 70,
          "time": 291.428416,
          "velocity": 0.5118110236220472,
          "duration": 0.5245532916666775
        },
        {
          "name": "F#4",
          "midi": 66,
          "time": 291.428416,
          "velocity": 0.5118110236220472,
          "duration": 0.5245532916666775
        },
        {
          "name": "C4",
          "midi": 60,
          "time": 291.428416,
          "velocity": 0.5118110236220472,
          "duration": 0.5245532916666775
        },
        {
          "name": "A#4",
          "midi": 70,
          "time": 291.9585496458334,
          "velocity": 0.48031496062992124,
          "duration": 3.2087036458333387
        },
        {
          "name": "F#4",
          "midi": 66,
          "time": 291.9585496458334,
          "velocity": 0.47244094488188976,
          "duration": 3.175221520833361
        },
        {
          "name": "C4",
          "midi": 60,
          "time": 291.9585496458334,
          "velocity": 0.47244094488188976,
          "duration": 3.2366054166666913
        },
        {
          "name": "G4",
          "midi": 67,
          "time": 295.7085476458334,
          "velocity": 0.5511811023622047,
          "duration": 0.5189729374999956
        },
        {
          "name": "E4",
          "midi": 64,
          "time": 295.7085476458334,
          "velocity": 0.5354330708661418,
          "duration": 0.5245532916666775
        },
        {
          "name": "B4",
          "midi": 71,
          "time": 295.7141280000001,
          "velocity": 0.5511811023622047,
          "duration": 0.5301336458333026
        },
        {
          "name": "E4",
          "midi": 64,
          "time": 296.2442616458334,
          "velocity": 0.5511811023622047,
          "duration": 1.5848205833333395
        },
        {
          "name": "B4",
          "midi": 71,
          "time": 296.24984200000006,
          "velocity": 0.5669291338582677,
          "duration": 1.6015616458333284
        },
        {
          "name": "G4",
          "midi": 67,
          "time": 296.24984200000006,
          "velocity": 0.5354330708661418,
          "duration": 1.5959812916666465
        },
        {
          "name": "G4",
          "midi": 67,
          "time": 297.8514036458334,
          "velocity": 0.5433070866141733,
          "duration": 0.5357139999999845
        },
        {
          "name": "D4",
          "midi": 62,
          "time": 297.8514036458334,
          "velocity": 0.5511811023622047,
          "duration": 0.5189729374999956
        },
        {
          "name": "B4",
          "midi": 71,
          "time": 297.85698400000007,
          "velocity": 0.5354330708661418,
          "duration": 0.5245532916666207
        },
        {
          "name": "B4",
          "midi": 71,
          "time": 298.39269800000005,
          "velocity": 0.5354330708661418,
          "duration": 1.5959812916666465
        },
        {
          "name": "G4",
          "midi": 67,
          "time": 298.39269800000005,
          "velocity": 0.5669291338582677,
          "duration": 1.6015616458333284
        },
        {
          "name": "D4",
          "midi": 62,
          "time": 298.39269800000005,
          "velocity": 0.5590551181102362,
          "duration": 1.5848205833333395
        },
        {
          "name": "B4",
          "midi": 71,
          "time": 299.9942596458334,
          "velocity": 0.5669291338582677,
          "duration": 0.5301336458333594
        },
        {
          "name": "G4",
          "midi": 67,
          "time": 299.99984000000006,
          "velocity": 0.5433070866141733,
          "duration": 0.5189729374999956
        },
        {
          "name": "C4",
          "midi": 60,
          "time": 299.99984000000006,
          "velocity": 0.5669291338582677,
          "duration": 0.5301336458333594
        },
        {
          "name": "G4",
          "midi": 67,
          "time": 300.5299736458334,
          "velocity": 0.5433070866141733,
          "duration": 1.5848205833333395
        },
        {
          "name": "B4",
          "midi": 71,
          "time": 300.5355540000001,
          "velocity": 0.5590551181102362,
          "duration": 1.6127223541666922
        },
        {
          "name": "C4",
          "midi": 60,
          "time": 300.5355540000001,
          "velocity": 0.5669291338582677,
          "duration": 1.5680795208333507
        },
        {
          "name": "E4",
          "midi": 64,
          "time": 302.13711564583343,
          "velocity": 0.5354330708661418,
          "duration": 0.5301336458333594
        },
        {
          "name": "A#4",
          "midi": 70,
          "time": 302.1426960000001,
          "velocity": 0.5669291338582677,
          "duration": 0.5301336458333594
        },
        {
          "name": "C4",
          "midi": 60,
          "time": 302.1426960000001,
          "velocity": 0.5511811023622047,
          "duration": 0.5245532916666775
        },
        {
          "name": "C4",
          "midi": 60,
          "time": 302.6728296458335,
          "velocity": 0.5275590551181102,
          "duration": 1.5680795208333507
        },
        {
          "name": "A#4",
          "midi": 70,
          "time": 302.67841000000016,
          "velocity": 0.5196850393700787,
          "duration": 1.5680795208333507
        },
        {
          "name": "E4",
          "midi": 64,
          "time": 302.67841000000016,
          "velocity": 0.5039370078740157,
          "duration": 1.5680795208333507
        },
        {
          "name": "C4",
          "midi": 60,
          "time": 304.2799716458335,
          "velocity": 0.4330708661417323,
          "duration": 0.5245532916666775
        },
        {
          "name": "A#4",
          "midi": 70,
          "time": 304.28555200000017,
          "velocity": 0.41732283464566927,
          "duration": 0.5245532916666775
        },
        {
          "name": "F#4",
          "midi": 66,
          "time": 304.28555200000017,
          "velocity": 0.41732283464566927,
          "duration": 0.5301336458333594
        },
        {
          "name": "C4",
          "midi": 60,
          "time": 304.8156856458335,
          "velocity": 0.3937007874015748,
          "duration": 3.2366054166666913
        },
        {
          "name": "A#4",
          "midi": 70,
          "time": 304.8212660000002,
          "velocity": 0.3858267716535433,
          "duration": 3.2087036458333387
        },
        {
          "name": "F#4",
          "midi": 66,
          "time": 304.8212660000002,
          "velocity": 0.3858267716535433,
          "duration": 3.1417393958333264
        },
        {
          "name": "E3",
          "midi": 52,
          "time": 312.8513956458336,
          "velocity": 0.5669291338582677,
          "duration": 4.235488812500023
        },
        {
          "name": "E2",
          "midi": 40,
          "time": 312.85697600000026,
          "velocity": 0.5590551181102362,
          "duration": 4.1908459791666814
        },
        {
          "name": "E3",
          "midi": 52,
          "time": 321.4228196458336,
          "velocity": 0.4645669291338583,
          "duration": 4.319194125000024
        },
        {
          "name": "E2",
          "midi": 40,
          "time": 321.4228196458336,
          "velocity": 0.4645669291338583,
          "duration": 4.235488812500023
        },
        {
          "name": "E2",
          "midi": 40,
          "time": 329.99424364583365,
          "velocity": 0.4015748031496063,
          "duration": 4.2801316458333645
        },
        {
          "name": "E3",
          "midi": 52,
          "time": 329.99982400000033,
          "velocity": 0.4015748031496063,
          "duration": 4.1908459791666814
        }
      ],
      "controlChanges": {
        "91": [
          {
            "number": 91,
            "time": 0,
            "value": 0.9448818897637795
          }
        ]
      },
      "id": 1,
      "instrumentNumber": 0,
      "instrument": "acoustic grand piano",
      "instrumentFamily": "piano",
      "channelNumber": 0,
      "isPercussion": false
    },
    {
      "startTime": 0,
      "duration": 334.27995564583017,
      "length": 1098,
      "notes": [
        {
          "name": "B3",
          "midi": 59,
          "time": 0,
          "velocity": 0.7244094488188977,
          "duration": 0.5245532916666668
        },
        {
          "name": "G3",
          "midi": 55,
          "time": 0,
          "velocity": 0.7086614173228346,
          "duration": 0.5245532916666668
        },
        {
          "name": "E3",
          "midi": 52,
          "time": 0,
          "velocity": 0.6929133858267716,
          "duration": 0.5189729375000001
        },
        {
          "name": "B3",
          "midi": 59,
          "time": 0.5301336458333334,
          "velocity": 0.7165354330708661,
          "duration": 1.5848205833333335
        },
        {
          "name": "G3",
          "midi": 55,
          "time": 0.5301336458333334,
          "velocity": 0.7244094488188977,
          "duration": 1.5848205833333335
        },
        {
          "name": "E3",
          "midi": 52,
          "time": 0.5301336458333334,
          "velocity": 0.7244094488188977,
          "duration": 1.5680795208333336
        },
        {
          "name": "B3",
          "midi": 59,
          "time": 2.1372756458333337,
          "velocity": 0.7244094488188977,
          "duration": 0.5301336458333332
        },
        {
          "name": "G3",
          "midi": 55,
          "time": 2.1372756458333337,
          "velocity": 0.7086614173228346,
          "duration": 0.5301336458333332
        },
        {
          "name": "D3",
          "midi": 50,
          "time": 2.1372756458333337,
          "velocity": 0.7244094488188977,
          "duration": 0.5189729375000001
        },
        {
          "name": "G3",
          "midi": 55,
          "time": 2.6729896458333338,
          "velocity": 0.6929133858267716,
          "duration": 1.6015616458333337
        },
        {
          "name": "B3",
          "midi": 59,
          "time": 2.6785700000000006,
          "velocity": 0.7244094488188977,
          "duration": 1.5848205833333333
        },
        {
          "name": "D3",
          "midi": 50,
          "time": 2.6785700000000006,
          "velocity": 0.7244094488188977,
          "duration": 1.5848205833333333
        },
        {
          "name": "B3",
          "midi": 59,
          "time": 4.280131645833334,
          "velocity": 0.7165354330708661,
          "duration": 0.5301336458333337
        },
        {
          "name": "C3",
          "midi": 48,
          "time": 4.280131645833334,
          "velocity": 0.7165354330708661,
          "duration": 0.5245532916666669
        },
        {
          "name": "G3",
          "midi": 55,
          "time": 4.285712000000001,
          "velocity": 0.6929133858267716,
          "duration": 0.5245532916666669
        },
        {
          "name": "B3",
          "midi": 59,
          "time": 4.815845645833335,
          "velocity": 0.6614173228346457,
          "duration": 1.568079520833333
        },
        {
          "name": "C3",
          "midi": 48,
          "time": 4.815845645833335,
          "velocity": 0.6692913385826772,
          "duration": 1.6015616458333328
        },
        {
          "name": "G3",
          "midi": 55,
          "time": 4.8214260000000015,
          "velocity": 0.6850393700787402,
          "duration": 1.6015616458333328
        },
        {
          "name": "A#3",
          "midi": 58,
          "time": 6.422987645833334,
          "velocity": 0.5669291338582677,
          "duration": 0.5301336458333337
        },
        {
          "name": "E3",
          "midi": 52,
          "time": 6.422987645833334,
          "velocity": 0.5984251968503937,
          "duration": 0.5245532916666669
        },
        {
          "name": "C3",
          "midi": 48,
          "time": 6.422987645833334,
          "velocity": 0.5669291338582677,
          "duration": 0.5245532916666669
        },
        {
          "name": "E3",
          "midi": 52,
          "time": 6.958701645833335,
          "velocity": 0.5669291338582677,
          "duration": 3.1417393958333335
        },
        {
          "name": "C3",
          "midi": 48,
          "time": 6.958701645833335,
          "velocity": 0.5354330708661418,
          "duration": 3.1417393958333335
        },
        {
          "name": "A#3",
          "midi": 58,
          "time": 6.964282000000002,
          "velocity": 0.5511811023622047,
          "duration": 3.1752215208333334
        },
        {
          "name": "G3",
          "midi": 55,
          "time": 10.714280000000002,
          "velocity": 0.4015748031496063,
          "duration": 0.26227664583333343
        },
        {
          "name": "B3",
          "midi": 59,
          "time": 10.982137000000002,
          "velocity": 0.3858267716535433,
          "duration": 0.26227664583333343
        },
        {
          "name": "G3",
          "midi": 55,
          "time": 11.244413645833335,
          "velocity": 0.4251968503937008,
          "duration": 0.26227664583333343
        },
        {
          "name": "B3",
          "midi": 59,
          "time": 11.512270645833334,
          "velocity": 0.4094488188976378,
          "duration": 0.2566962916666675
        },
        {
          "name": "G3",
          "midi": 55,
          "time": 11.785708000000001,
          "velocity": 0.4409448818897638,
          "duration": 0.26227664583333343
        },
        {
          "name": "B3",
          "midi": 59,
          "time": 12.047984645833335,
          "velocity": 0.44881889763779526,
          "duration": 0.26227664583333343
        },
        {
          "name": "G3",
          "midi": 55,
          "time": 12.315841645833334,
          "velocity": 0.4645669291338583,
          "duration": 0.26227664583333343
        },
        {
          "name": "B3",
          "midi": 59,
          "time": 12.583698645833334,
          "velocity": 0.4645669291338583,
          "duration": 0.2566962916666675
        },
        {
          "name": "G3",
          "midi": 55,
          "time": 12.857136,
          "velocity": 0.48031496062992124,
          "duration": 0.2566962916666675
        },
        {
          "name": "B3",
          "midi": 59,
          "time": 13.119412645833334,
          "velocity": 0.47244094488188976,
          "duration": 0.26227664583333343
        },
        {
          "name": "G3",
          "midi": 55,
          "time": 13.392850000000001,
          "velocity": 0.47244094488188976,
          "duration": 0.26227664583333343
        },
        {
          "name": "B3",
          "midi": 59,
          "time": 13.660707,
          "velocity": 0.44881889763779526,
          "duration": 0.26227664583333343
        },
        {
          "name": "G3",
          "midi": 55,
          "time": 13.922983645833334,
          "velocity": 0.41732283464566927,
          "duration": 0.26227664583333343
        },
        {
          "name": "B3",
          "midi": 59,
          "time": 14.196421,
          "velocity": 0.4251968503937008,
          "duration": 0.2566962916666675
        },
        {
          "name": "G3",
          "midi": 55,
          "time": 14.458697645833334,
          "velocity": 0.4251968503937008,
          "duration": 0.2566962916666675
        },
        {
          "name": "B3",
          "midi": 59,
          "time": 14.732135000000001,
          "velocity": 0.3937007874015748,
          "duration": 0.26227664583333343
        },
        {
          "name": "G3",
          "midi": 55,
          "time": 14.994411645833335,
          "velocity": 0.3858267716535433,
          "duration": 0.2566962916666675
        },
        {
          "name": "B3",
          "midi": 59,
          "time": 15.262268645833336,
          "velocity": 0.4015748031496063,
          "duration": 0.26227664583333343
        },
        {
          "name": "G3",
          "midi": 55,
          "time": 15.530125645833335,
          "velocity": 0.4251968503937008,
          "duration": 0.26227664583333343
        },
        {
          "name": "B3",
          "midi": 59,
          "time": 15.797982645833335,
          "velocity": 0.4330708661417323,
          "duration": 0.25669629166666574
        },
        {
          "name": "G3",
          "midi": 55,
          "time": 16.065839645833332,
          "velocity": 0.44881889763779526,
          "duration": 0.26227664583333166
        },
        {
          "name": "B3",
          "midi": 59,
          "time": 16.339276999999996,
          "velocity": 0.4251968503937008,
          "duration": 0.26227664583333166
        },
        {
          "name": "G3",
          "midi": 55,
          "time": 16.601553645833327,
          "velocity": 0.4566929133858268,
          "duration": 0.26227664583333166
        },
        {
          "name": "B3",
          "midi": 59,
          "time": 16.87499099999999,
          "velocity": 0.4409448818897638,
          "duration": 0.26227664583333166
        },
        {
          "name": "G3",
          "midi": 55,
          "time": 17.14284799999999,
          "velocity": 0.4566929133858268,
          "duration": 0.2566962916666675
        },
        {
          "name": "B3",
          "midi": 59,
          "time": 17.41070499999999,
          "velocity": 0.47244094488188976,
          "duration": 0.26227664583333166
        },
        {
          "name": "G3",
          "midi": 55,
          "time": 17.67298164583332,
          "velocity": 0.4330708661417323,
          "duration": 0.2566962916666675
        },
        {
          "name": "B3",
          "midi": 59,
          "time": 17.946418999999988,
          "velocity": 0.41732283464566927,
          "duration": 0.2566962916666675
        },
        {
          "name": "G3",
          "midi": 55,
          "time": 18.214275999999987,
          "velocity": 0.41732283464566927,
          "duration": 0.2566962916666675
        },
        {
          "name": "B3",
          "midi": 59,
          "time": 18.476552645833323,
          "velocity": 0.41732283464566927,
          "duration": 0.2566962916666675
        },
        {
          "name": "G3",
          "midi": 55,
          "time": 18.74998999999999,
          "velocity": 0.3779527559055118,
          "duration": 0.26227664583333166
        },
        {
          "name": "B3",
          "midi": 59,
          "time": 19.01226664583332,
          "velocity": 0.3543307086614173,
          "duration": 0.2566962916666675
        },
        {
          "name": "B3",
          "midi": 59,
          "time": 19.28012364583332,
          "velocity": 0.7007874015748031,
          "duration": 0.5301336458333346
        },
        {
          "name": "G3",
          "midi": 55,
          "time": 19.28012364583332,
          "velocity": 0.6929133858267716,
          "duration": 0.5301336458333346
        },
        {
          "name": "E3",
          "midi": 52,
          "time": 19.28012364583332,
          "velocity": 0.6929133858267716,
          "duration": 0.5301336458333346
        },
        {
          "name": "E3",
          "midi": 52,
          "time": 19.815837645833323,
          "velocity": 0.6929133858267716,
          "duration": 1.568079520833333
        },
        {
          "name": "B3",
          "midi": 59,
          "time": 19.82141799999999,
          "velocity": 0.6929133858267716,
          "duration": 1.5959812916666678
        },
        {
          "name": "G3",
          "midi": 55,
          "time": 19.82141799999999,
          "velocity": 0.7007874015748031,
          "duration": 1.568079520833333
        },
        {
          "name": "B3",
          "midi": 59,
          "time": 21.422979645833326,
          "velocity": 0.7165354330708661,
          "duration": 0.5357140000000022
        },
        {
          "name": "G3",
          "midi": 55,
          "time": 21.428559999999994,
          "velocity": 0.7086614173228346,
          "duration": 0.5245532916666669
        },
        {
          "name": "D3",
          "midi": 50,
          "time": 21.428559999999994,
          "velocity": 0.7007874015748031,
          "duration": 0.5245532916666669
        },
        {
          "name": "G3",
          "midi": 55,
          "time": 21.95869364583333,
          "velocity": 0.7007874015748031,
          "duration": 1.584820583333336
        },
        {
          "name": "D3",
          "midi": 50,
          "time": 21.95869364583333,
          "velocity": 0.7007874015748031,
          "duration": 1.584820583333336
        },
        {
          "name": "B3",
          "midi": 59,
          "time": 21.964273999999996,
          "velocity": 0.6929133858267716,
          "duration": 1.6015616458333355
        },
        {
          "name": "G3",
          "midi": 55,
          "time": 23.56583564583333,
          "velocity": 0.7244094488188977,
          "duration": 0.5357140000000022
        },
        {
          "name": "C3",
          "midi": 48,
          "time": 23.56583564583333,
          "velocity": 0.7086614173228346,
          "duration": 0.5189729375000027
        },
        {
          "name": "B3",
          "midi": 59,
          "time": 23.571416,
          "velocity": 0.7086614173228346,
          "duration": 0.5245532916666669
        },
        {
          "name": "B3",
          "midi": 59,
          "time": 24.101549645833334,
          "velocity": 0.6692913385826772,
          "duration": 1.568079520833333
        },
        {
          "name": "G3",
          "midi": 55,
          "time": 24.10713,
          "velocity": 0.6692913385826772,
          "duration": 1.5848205833333324
        },
        {
          "name": "C3",
          "midi": 48,
          "time": 24.10713,
          "velocity": 0.6929133858267716,
          "duration": 1.5959812916666642
        },
        {
          "name": "C3",
          "midi": 48,
          "time": 25.708691645833333,
          "velocity": 0.5984251968503937,
          "duration": 0.5245532916666669
        },
        {
          "name": "A#3",
          "midi": 58,
          "time": 25.714272,
          "velocity": 0.5905511811023622,
          "duration": 0.5189729374999992
        },
        {
          "name": "E3",
          "midi": 52,
          "time": 25.714272,
          "velocity": 0.5748031496062992,
          "duration": 0.530133645833331
        },
        {
          "name": "A#3",
          "midi": 58,
          "time": 26.244405645833332,
          "velocity": 0.5354330708661418,
          "duration": 3.270087541666669
        },
        {
          "name": "C3",
          "midi": 48,
          "time": 26.244405645833332,
          "velocity": 0.5433070866141733,
          "duration": 3.270087541666669
        },
        {
          "name": "E3",
          "midi": 52,
          "time": 26.249986,
          "velocity": 0.5354330708661418,
          "duration": 3.2366054166666665
        },
        {
          "name": "G3",
          "midi": 55,
          "time": 29.994403645833334,
          "velocity": 0.3858267716535433,
          "duration": 0.26227664583333166
        },
        {
          "name": "B3",
          "midi": 59,
          "time": 30.267840999999997,
          "velocity": 0.4094488188976378,
          "duration": 0.2566962916666675
        },
        {
          "name": "G3",
          "midi": 55,
          "time": 30.530117645833332,
          "velocity": 0.4015748031496063,
          "duration": 0.26227664583333166
        },
        {
          "name": "B3",
          "midi": 59,
          "time": 30.79797464583333,
          "velocity": 0.41732283464566927,
          "duration": 0.26227664583333166
        },
        {
          "name": "G3",
          "midi": 55,
          "time": 31.06583164583333,
          "velocity": 0.4409448818897638,
          "duration": 0.26227664583333166
        },
        {
          "name": "B3",
          "midi": 59,
          "time": 31.33368864583333,
          "velocity": 0.44881889763779526,
          "duration": 0.26227664583333166
        },
        {
          "name": "G3",
          "midi": 55,
          "time": 31.607125999999994,
          "velocity": 0.4409448818897638,
          "duration": 0.26227664583333166
        },
        {
          "name": "B3",
          "midi": 59,
          "time": 31.869402645833325,
          "velocity": 0.4409448818897638,
          "duration": 0.26227664583333166
        },
        {
          "name": "G3",
          "midi": 55,
          "time": 32.137259645833325,
          "velocity": 0.47244094488188976,
          "duration": 0.26227664583333166
        },
        {
          "name": "B3",
          "midi": 59,
          "time": 32.41069699999999,
          "velocity": 0.4566929133858268,
          "duration": 0.26227664583333166
        },
        {
          "name": "G3",
          "midi": 55,
          "time": 32.67855399999999,
          "velocity": 0.4645669291338583,
          "duration": 0.26227664583333166
        },
        {
          "name": "B3",
          "midi": 59,
          "time": 32.94083064583332,
          "velocity": 0.44881889763779526,
          "duration": 0.25669629166666397
        },
        {
          "name": "G3",
          "midi": 55,
          "time": 33.20868764583332,
          "velocity": 0.4409448818897638,
          "duration": 0.25669629166666397
        },
        {
          "name": "B3",
          "midi": 59,
          "time": 33.47654464583332,
          "velocity": 0.4409448818897638,
          "duration": 0.25669629166666397
        },
        {
          "name": "G3",
          "midi": 55,
          "time": 33.74440164583332,
          "velocity": 0.4015748031496063,
          "duration": 0.25669629166666397
        },
        {
          "name": "B3",
          "midi": 59,
          "time": 34.01225864583332,
          "velocity": 0.4094488188976378,
          "duration": 0.26227664583333166
        },
        {
          "name": "G3",
          "midi": 55,
          "time": 34.28011564583332,
          "velocity": 0.3858267716535433,
          "duration": 0.26227664583333166
        },
        {
          "name": "B3",
          "midi": 59,
          "time": 34.54797264583332,
          "velocity": 0.4015748031496063,
          "duration": 0.25669629166666397
        },
        {
          "name": "G3",
          "midi": 55,
          "time": 34.821409999999986,
          "velocity": 0.41732283464566927,
          "duration": 0.25669629166666397
        },
        {
          "name": "B3",
          "midi": 59,
          "time": 35.089266999999985,
          "velocity": 0.4015748031496063,
          "duration": 0.25669629166666397
        },
        {
          "name": "G3",
          "midi": 55,
          "time": 35.357123999999985,
          "velocity": 0.4251968503937008,
          "duration": 0.26227664583333166
        },
        {
          "name": "B3",
          "midi": 59,
          "time": 35.624980999999984,
          "velocity": 0.4566929133858268,
          "duration": 0.25669629166666397
        },
        {
          "name": "G3",
          "midi": 55,
          "time": 35.887257645833316,
          "velocity": 0.4566929133858268,
          "duration": 0.25669629166666397
        },
        {
          "name": "B3",
          "midi": 59,
          "time": 36.16069499999998,
          "velocity": 0.4409448818897638,
          "duration": 0.26227664583333166
        },
        {
          "name": "G3",
          "midi": 55,
          "time": 36.42855199999998,
          "velocity": 0.47244094488188976,
          "duration": 0.25669629166666397
        },
        {
          "name": "B3",
          "midi": 59,
          "time": 36.690828645833314,
          "velocity": 0.47244094488188976,
          "duration": 0.25669629166666397
        },
        {
          "name": "G3",
          "midi": 55,
          "time": 36.95868564583331,
          "velocity": 0.4330708661417323,
          "duration": 0.26227664583333166
        },
        {
          "name": "B3",
          "midi": 59,
          "time": 37.22654264583331,
          "velocity": 0.41732283464566927,
          "duration": 0.26227664583333166
        },
        {
          "name": "G3",
          "midi": 55,
          "time": 37.49997999999998,
          "velocity": 0.4251968503937008,
          "duration": 0.25669629166666397
        },
        {
          "name": "B3",
          "midi": 59,
          "time": 37.76225664583331,
          "velocity": 0.4094488188976378,
          "duration": 0.26227664583333166
        },
        {
          "name": "G3",
          "midi": 55,
          "time": 38.03011364583331,
          "velocity": 0.3779527559055118,
          "duration": 0.25669629166666397
        },
        {
          "name": "B3",
          "midi": 59,
          "time": 38.30355099999998,
          "velocity": 0.3543307086614173,
          "duration": 0.25669629166666397
        },
        {
          "name": "G3",
          "midi": 55,
          "time": 38.56582764583331,
          "velocity": 0.5590551181102362,
          "duration": 0.26227664583333166
        },
        {
          "name": "B3",
          "midi": 59,
          "time": 38.83368464583331,
          "velocity": 0.5590551181102362,
          "duration": 0.26227664583333166
        },
        {
          "name": "G3",
          "midi": 55,
          "time": 39.10154164583331,
          "velocity": 0.5984251968503937,
          "duration": 0.26227664583333166
        },
        {
          "name": "B3",
          "midi": 59,
          "time": 39.36939864583331,
          "velocity": 0.6062992125984252,
          "duration": 0.25669629166666397
        },
        {
          "name": "G3",
          "midi": 55,
          "time": 39.642835999999974,
          "velocity": 0.6299212598425197,
          "duration": 0.25669629166666397
        },
        {
          "name": "B3",
          "midi": 59,
          "time": 39.91069299999997,
          "velocity": 0.6535433070866141,
          "duration": 0.26227664583333166
        },
        {
          "name": "G3",
          "midi": 55,
          "time": 40.172969645833305,
          "velocity": 0.6850393700787402,
          "duration": 0.26227664583333166
        },
        {
          "name": "B3",
          "midi": 59,
          "time": 40.440826645833305,
          "velocity": 0.7007874015748031,
          "duration": 0.26227664583333166
        },
        {
          "name": "G3",
          "midi": 55,
          "time": 40.71426399999997,
          "velocity": 0.5669291338582677,
          "duration": 0.26227664583333166
        },
        {
          "name": "B3",
          "midi": 59,
          "time": 40.98212099999997,
          "velocity": 0.5669291338582677,
          "duration": 0.25669629166666397
        },
        {
          "name": "G3",
          "midi": 55,
          "time": 41.24997799999997,
          "velocity": 0.5905511811023622,
          "duration": 0.25669629166666397
        },
        {
          "name": "B3",
          "midi": 59,
          "time": 41.51783499999997,
          "velocity": 0.6141732283464567,
          "duration": 0.26227664583333166
        },
        {
          "name": "G3",
          "midi": 55,
          "time": 41.78569199999997,
          "velocity": 0.6299212598425197,
          "duration": 0.25669629166666397
        },
        {
          "name": "B3",
          "midi": 59,
          "time": 42.05354899999997,
          "velocity": 0.6614173228346457,
          "duration": 0.26227664583333166
        },
        {
          "name": "G3",
          "midi": 55,
          "time": 42.32140599999997,
          "velocity": 0.6614173228346457,
          "duration": 0.25669629166666397
        },
        {
          "name": "B3",
          "midi": 59,
          "time": 42.58926299999997,
          "velocity": 0.6929133858267716,
          "duration": 0.26227664583333166
        },
        {
          "name": "G3",
          "midi": 55,
          "time": 42.8515396458333,
          "velocity": 0.6377952755905512,
          "duration": 0.25669629166666397
        },
        {
          "name": "B3",
          "midi": 59,
          "time": 43.1193966458333,
          "velocity": 0.6141732283464567,
          "duration": 0.26227664583333166
        },
        {
          "name": "G3",
          "midi": 55,
          "time": 43.392833999999965,
          "velocity": 0.5826771653543307,
          "duration": 0.26227664583333166
        },
        {
          "name": "B3",
          "midi": 59,
          "time": 43.660690999999964,
          "velocity": 0.5905511811023622,
          "duration": 0.25669629166666397
        },
        {
          "name": "G3",
          "midi": 55,
          "time": 43.922967645833296,
          "velocity": 0.5669291338582677,
          "duration": 0.26227664583333166
        },
        {
          "name": "B3",
          "midi": 59,
          "time": 44.19640499999996,
          "velocity": 0.5354330708661418,
          "duration": 0.26227664583333166
        },
        {
          "name": "G3",
          "midi": 55,
          "time": 44.458681645833295,
          "velocity": 0.5275590551181102,
          "duration": 0.25669629166666397
        },
        {
          "name": "B3",
          "midi": 59,
          "time": 44.726538645833294,
          "velocity": 0.5039370078740157,
          "duration": 0.26227664583333166
        },
        {
          "name": "G3",
          "midi": 55,
          "time": 44.99997599999996,
          "velocity": 0.3228346456692913,
          "duration": 0.26227664583333166
        },
        {
          "name": "A#3",
          "midi": 58,
          "time": 45.26225264583329,
          "velocity": 0.3464566929133858,
          "duration": 0.26227664583333166
        },
        {
          "name": "G3",
          "midi": 55,
          "time": 45.53010964583329,
          "velocity": 0.3464566929133858,
          "duration": 0.26227664583333166
        },
        {
          "name": "A#3",
          "midi": 58,
          "time": 45.79796664583329,
          "velocity": 0.3543307086614173,
          "duration": 0.25669629166666397
        },
        {
          "name": "G3",
          "midi": 55,
          "time": 46.06582364583329,
          "velocity": 0.3937007874015748,
          "duration": 0.26227664583333166
        },
        {
          "name": "A#3",
          "midi": 58,
          "time": 46.33926099999996,
          "velocity": 0.41732283464566927,
          "duration": 0.26227664583333166
        },
        {
          "name": "G3",
          "midi": 55,
          "time": 46.60153764583329,
          "velocity": 0.4409448818897638,
          "duration": 0.26227664583333166
        },
        {
          "name": "A#3",
          "midi": 58,
          "time": 46.86939464583329,
          "velocity": 0.4645669291338583,
          "duration": 0.26227664583333166
        },
        {
          "name": "G3",
          "midi": 55,
          "time": 47.142831999999956,
          "velocity": 0.4094488188976378,
          "duration": 0.26227664583333166
        },
        {
          "name": "B3",
          "midi": 59,
          "time": 47.40510864583329,
          "velocity": 0.4015748031496063,
          "duration": 0.26227664583333166
        },
        {
          "name": "G3",
          "midi": 55,
          "time": 47.67296564583329,
          "velocity": 0.4251968503937008,
          "duration": 0.25669629166666397
        },
        {
          "name": "B3",
          "midi": 59,
          "time": 47.946402999999954,
          "velocity": 0.41732283464566927,
          "duration": 0.25669629166666397
        },
        {
          "name": "G3",
          "midi": 55,
          "time": 48.208679645833286,
          "velocity": 0.44881889763779526,
          "duration": 0.26227664583333166
        },
        {
          "name": "B3",
          "midi": 59,
          "time": 48.48211699999995,
          "velocity": 0.4330708661417323,
          "duration": 0.25669629166666397
        },
        {
          "name": "G3",
          "midi": 55,
          "time": 48.744393645833284,
          "velocity": 0.4409448818897638,
          "duration": 0.26227664583333166
        },
        {
          "name": "B3",
          "midi": 59,
          "time": 49.01783099999995,
          "velocity": 0.44881889763779526,
          "duration": 0.25669629166666397
        },
        {
          "name": "G3",
          "midi": 55,
          "time": 49.28568799999995,
          "velocity": 0.4645669291338583,
          "duration": 0.26227664583333166
        },
        {
          "name": "B3",
          "midi": 59,
          "time": 49.55354499999995,
          "velocity": 0.48031496062992124,
          "duration": 0.25669629166666397
        },
        {
          "name": "G3",
          "midi": 55,
          "time": 49.81582164583328,
          "velocity": 0.47244094488188976,
          "duration": 0.25669629166666397
        },
        {
          "name": "B3",
          "midi": 59,
          "time": 50.08367864583328,
          "velocity": 0.4566929133858268,
          "duration": 0.26227664583333166
        },
        {
          "name": "G3",
          "midi": 55,
          "time": 50.35153564583328,
          "velocity": 0.4330708661417323,
          "duration": 0.25669629166666397
        },
        {
          "name": "B3",
          "midi": 59,
          "time": 50.61939264583328,
          "velocity": 0.4251968503937008,
          "duration": 0.26227664583333166
        },
        {
          "name": "G3",
          "midi": 55,
          "time": 50.88724964583328,
          "velocity": 0.4251968503937008,
          "duration": 0.26227664583333166
        },
        {
          "name": "B3",
          "midi": 59,
          "time": 51.160686999999946,
          "velocity": 0.4251968503937008,
          "duration": 0.26227664583333166
        },
        {
          "name": "G3",
          "midi": 55,
          "time": 51.42296364583328,
          "velocity": 0.4015748031496063,
          "duration": 0.25669629166666397
        },
        {
          "name": "B3",
          "midi": 59,
          "time": 51.69082064583328,
          "velocity": 0.4094488188976378,
          "duration": 0.25669629166666397
        },
        {
          "name": "G3",
          "midi": 55,
          "time": 51.958677645833276,
          "velocity": 0.4251968503937008,
          "duration": 0.26227664583333166
        },
        {
          "name": "B3",
          "midi": 59,
          "time": 52.226534645833276,
          "velocity": 0.4330708661417323,
          "duration": 0.25669629166666397
        },
        {
          "name": "G3",
          "midi": 55,
          "time": 52.49997199999994,
          "velocity": 0.4330708661417323,
          "duration": 0.26227664583333166
        },
        {
          "name": "B3",
          "midi": 59,
          "time": 52.762248645833274,
          "velocity": 0.4330708661417323,
          "duration": 0.26227664583333166
        },
        {
          "name": "G3",
          "midi": 55,
          "time": 53.03568599999994,
          "velocity": 0.44881889763779526,
          "duration": 0.25669629166666397
        },
        {
          "name": "B3",
          "midi": 59,
          "time": 53.29796264583327,
          "velocity": 0.4409448818897638,
          "duration": 0.26227664583333166
        },
        {
          "name": "G3",
          "midi": 55,
          "time": 53.56581964583327,
          "velocity": 0.47244094488188976,
          "duration": 0.26227664583333166
        },
        {
          "name": "B3",
          "midi": 59,
          "time": 53.83925699999994,
          "velocity": 0.47244094488188976,
          "duration": 0.25669629166666397
        },
        {
          "name": "G3",
          "midi": 55,
          "time": 54.10711399999994,
          "velocity": 0.4566929133858268,
          "duration": 0.26227664583333166
        },
        {
          "name": "B3",
          "midi": 59,
          "time": 54.37497099999994,
          "velocity": 0.44881889763779526,
          "duration": 0.26227664583333166
        },
        {
          "name": "G3",
          "midi": 55,
          "time": 54.63724764583327,
          "velocity": 0.4015748031496063,
          "duration": 0.26227664583333166
        },
        {
          "name": "B3",
          "midi": 59,
          "time": 54.90510464583327,
          "velocity": 0.3937007874015748,
          "duration": 0.26227664583333166
        },
        {
          "name": "G3",
          "midi": 55,
          "time": 55.17296164583327,
          "velocity": 0.3937007874015748,
          "duration": 0.26227664583333166
        },
        {
          "name": "B3",
          "midi": 59,
          "time": 55.446398999999936,
          "velocity": 0.36220472440944884,
          "duration": 0.25669629166666397
        },
        {
          "name": "G3",
          "midi": 55,
          "time": 55.70867564583327,
          "velocity": 0.5511811023622047,
          "duration": 0.26227664583333166
        },
        {
          "name": "B3",
          "midi": 59,
          "time": 55.982112999999934,
          "velocity": 0.5826771653543307,
          "duration": 0.25669629166666397
        },
        {
          "name": "G3",
          "midi": 55,
          "time": 56.249969999999934,
          "velocity": 0.5826771653543307,
          "duration": 0.26227664583333166
        },
        {
          "name": "B3",
          "midi": 59,
          "time": 56.512246645833265,
          "velocity": 0.6141732283464567,
          "duration": 0.26227664583333166
        },
        {
          "name": "G3",
          "midi": 55,
          "time": 56.780103645833265,
          "velocity": 0.6377952755905512,
          "duration": 0.26227664583333166
        },
        {
          "name": "B3",
          "midi": 59,
          "time": 57.05354099999993,
          "velocity": 0.6614173228346457,
          "duration": 0.25669629166666397
        },
        {
          "name": "G3",
          "midi": 55,
          "time": 57.31581764583326,
          "velocity": 0.6771653543307087,
          "duration": 0.25669629166666397
        },
        {
          "name": "B3",
          "midi": 59,
          "time": 57.58925499999993,
          "velocity": 0.6771653543307087,
          "duration": 0.26227664583333166
        },
        {
          "name": "G3",
          "midi": 55,
          "time": 57.85153164583326,
          "velocity": 0.5511811023622047,
          "duration": 0.25669629166666397
        },
        {
          "name": "B3",
          "midi": 59,
          "time": 58.12496899999993,
          "velocity": 0.5669291338582677,
          "duration": 0.25669629166666397
        },
        {
          "name": "G3",
          "midi": 55,
          "time": 58.38724564583326,
          "velocity": 0.5905511811023622,
          "duration": 0.26227664583333166
        },
        {
          "name": "B3",
          "midi": 59,
          "time": 58.66068299999993,
          "velocity": 0.6062992125984252,
          "duration": 0.26227664583333166
        },
        {
          "name": "G3",
          "midi": 55,
          "time": 58.92853999999993,
          "velocity": 0.6141732283464567,
          "duration": 0.25669629166666397
        },
        {
          "name": "B3",
          "midi": 59,
          "time": 59.196396999999926,
          "velocity": 0.6377952755905512,
          "duration": 0.26227664583333166
        },
        {
          "name": "G3",
          "midi": 55,
          "time": 59.464253999999926,
          "velocity": 0.6771653543307087,
          "duration": 0.25669629166666397
        },
        {
          "name": "B3",
          "midi": 59,
          "time": 59.732110999999925,
          "velocity": 0.6771653543307087,
          "duration": 0.25669629166666397
        },
        {
          "name": "G3",
          "midi": 55,
          "time": 59.999967999999924,
          "velocity": 0.6377952755905512,
          "duration": 0.25669629166666397
        },
        {
          "name": "B3",
          "midi": 59,
          "time": 60.267824999999924,
          "velocity": 0.6220472440944882,
          "duration": 0.26227664583333166
        },
        {
          "name": "G3",
          "midi": 55,
          "time": 60.530101645833255,
          "velocity": 0.5748031496062992,
          "duration": 0.26227664583333166
        },
        {
          "name": "B3",
          "midi": 59,
          "time": 60.797958645833255,
          "velocity": 0.5748031496062992,
          "duration": 0.26227664583333166
        },
        {
          "name": "G3",
          "midi": 55,
          "time": 61.07139599999992,
          "velocity": 0.5590551181102362,
          "duration": 0.25669629166666397
        },
        {
          "name": "B3",
          "midi": 59,
          "time": 61.33367264583325,
          "velocity": 0.5354330708661418,
          "duration": 0.26227664583333166
        },
        {
          "name": "G3",
          "midi": 55,
          "time": 61.60710999999992,
          "velocity": 0.5039370078740157,
          "duration": 0.25669629166666397
        },
        {
          "name": "B3",
          "midi": 59,
          "time": 61.87496699999992,
          "velocity": 0.5039370078740157,
          "duration": 0.26227664583333166
        },
        {
          "name": "G3",
          "midi": 55,
          "time": 62.14282399999992,
          "velocity": 0.2992125984251969,
          "duration": 0.26227664583333166
        },
        {
          "name": "A#3",
          "midi": 58,
          "time": 62.40510064583325,
          "velocity": 0.31496062992125984,
          "duration": 0.25669629166666397
        },
        {
          "name": "G3",
          "midi": 55,
          "time": 62.67295764583325,
          "velocity": 0.3464566929133858,
          "duration": 0.26227664583333166
        },
        {
          "name": "A#3",
          "midi": 58,
          "time": 62.94081464583325,
          "velocity": 0.36220472440944884,
          "duration": 0.26227664583333166
        },
        {
          "name": "G3",
          "midi": 55,
          "time": 63.21425199999992,
          "velocity": 0.3779527559055118,
          "duration": 0.25669629166666397
        },
        {
          "name": "A#3",
          "midi": 58,
          "time": 63.482108999999916,
          "velocity": 0.4251968503937008,
          "duration": 0.26227664583333166
        },
        {
          "name": "G3",
          "midi": 55,
          "time": 63.74438564583325,
          "velocity": 0.4409448818897638,
          "duration": 0.2566962916666711
        },
        {
          "name": "A#3",
          "midi": 58,
          "time": 64.01782299999992,
          "velocity": 0.4330708661417323,
          "duration": 0.2566962916666711
        },
        {
          "name": "G3",
          "midi": 55,
          "time": 64.28567999999993,
          "velocity": 0.3779527559055118,
          "duration": 0.2566962916666711
        },
        {
          "name": "B3",
          "midi": 59,
          "time": 64.54795664583327,
          "velocity": 0.4015748031496063,
          "duration": 0.26227664583333876
        },
        {
          "name": "G3",
          "midi": 55,
          "time": 64.81581364583327,
          "velocity": 0.3937007874015748,
          "duration": 0.26227664583333876
        },
        {
          "name": "B3",
          "midi": 59,
          "time": 65.08367064583328,
          "velocity": 0.41732283464566927,
          "duration": 0.2566962916666711
        },
        {
          "name": "G3",
          "midi": 55,
          "time": 65.35710799999995,
          "velocity": 0.4409448818897638,
          "duration": 0.26227664583333876
        },
        {
          "name": "B3",
          "midi": 59,
          "time": 65.61938464583329,
          "velocity": 0.4251968503937008,
          "duration": 0.26227664583333876
        },
        {
          "name": "G3",
          "midi": 55,
          "time": 65.8872416458333,
          "velocity": 0.4566929133858268,
          "duration": 0.26227664583333876
        },
        {
          "name": "B3",
          "midi": 59,
          "time": 66.1550986458333,
          "velocity": 0.4645669291338583,
          "duration": 0.26227664583333876
        },
        {
          "name": "G3",
          "midi": 55,
          "time": 66.42853599999998,
          "velocity": 0.48031496062992124,
          "duration": 0.2566962916666711
        },
        {
          "name": "B3",
          "midi": 59,
          "time": 66.69081264583332,
          "velocity": 0.44881889763779526,
          "duration": 0.2566962916666711
        },
        {
          "name": "G3",
          "midi": 55,
          "time": 66.96424999999999,
          "velocity": 0.47244094488188976,
          "duration": 0.2566962916666711
        },
        {
          "name": "B3",
          "midi": 59,
          "time": 67.232107,
          "velocity": 0.4330708661417323,
          "duration": 0.26227664583333876
        },
        {
          "name": "G3",
          "midi": 55,
          "time": 67.499964,
          "velocity": 0.44881889763779526,
          "duration": 0.2566962916666711
        },
        {
          "name": "B3",
          "midi": 59,
          "time": 67.76224064583334,
          "velocity": 0.4409448818897638,
          "duration": 0.26227664583333876
        },
        {
          "name": "G3",
          "midi": 55,
          "time": 68.03567800000002,
          "velocity": 0.41732283464566927,
          "duration": 0.26227664583333876
        },
        {
          "name": "B3",
          "midi": 59,
          "time": 68.29795464583336,
          "velocity": 0.3937007874015748,
          "duration": 0.26227664583333876
        },
        {
          "name": "G3",
          "midi": 55,
          "time": 68.56581164583336,
          "velocity": 0.3937007874015748,
          "duration": 0.26227664583333876
        },
        {
          "name": "B3",
          "midi": 59,
          "time": 68.83924900000004,
          "velocity": 0.3858267716535433,
          "duration": 0.26227664583333876
        },
        {
          "name": "G3",
          "midi": 55,
          "time": 69.10710600000004,
          "velocity": 0.3937007874015748,
          "duration": 0.26227664583333876
        },
        {
          "name": "B3",
          "midi": 59,
          "time": 69.36938264583338,
          "velocity": 0.4015748031496063,
          "duration": 0.26227664583333876
        },
        {
          "name": "G3",
          "midi": 55,
          "time": 69.63723964583339,
          "velocity": 0.4330708661417323,
          "duration": 0.26227664583333876
        },
        {
          "name": "B3",
          "midi": 59,
          "time": 69.91067700000006,
          "velocity": 0.4409448818897638,
          "duration": 0.26227664583333876
        },
        {
          "name": "G3",
          "midi": 55,
          "time": 70.1729536458334,
          "velocity": 0.4409448818897638,
          "duration": 0.2566962916666711
        },
        {
          "name": "B3",
          "midi": 59,
          "time": 70.44639100000008,
          "velocity": 0.4409448818897638,
          "duration": 0.26227664583333876
        },
        {
          "name": "G3",
          "midi": 55,
          "time": 70.71424800000008,
          "velocity": 0.4881889763779528,
          "duration": 0.26227664583333876
        },
        {
          "name": "B3",
          "midi": 59,
          "time": 70.98210500000009,
          "velocity": 0.48031496062992124,
          "duration": 0.2566962916666711
        },
        {
          "name": "G3",
          "midi": 55,
          "time": 71.2499620000001,
          "velocity": 0.4330708661417323,
          "duration": 0.2566962916666711
        },
        {
          "name": "B3",
          "midi": 59,
          "time": 71.5178190000001,
          "velocity": 0.4251968503937008,
          "duration": 0.2566962916666711
        },
        {
          "name": "G3",
          "midi": 55,
          "time": 71.78009564583344,
          "velocity": 0.4330708661417323,
          "duration": 0.26227664583333876
        },
        {
          "name": "B3",
          "midi": 59,
          "time": 72.04795264583345,
          "velocity": 0.4094488188976378,
          "duration": 0.26227664583333876
        },
        {
          "name": "G3",
          "midi": 55,
          "time": 72.32139000000012,
          "velocity": 0.3700787401574803,
          "duration": 0.2566962916666711
        },
        {
          "name": "B3",
          "midi": 59,
          "time": 72.58366664583346,
          "velocity": 0.3779527559055118,
          "duration": 0.26227664583333876
        },
        {
          "name": "G3",
          "midi": 55,
          "time": 72.85152364583347,
          "velocity": 0.5511811023622047,
          "duration": 0.2566962916666711
        },
        {
          "name": "B3",
          "midi": 59,
          "time": 73.12496100000014,
          "velocity": 0.5748031496062992,
          "duration": 0.2566962916666711
        },
        {
          "name": "G3",
          "midi": 55,
          "time": 73.38723764583348,
          "velocity": 0.5984251968503937,
          "duration": 0.26227664583333876
        },
        {
          "name": "B3",
          "midi": 59,
          "time": 73.65509464583349,
          "velocity": 0.5984251968503937,
          "duration": 0.2566962916666711
        },
        {
          "name": "G3",
          "midi": 55,
          "time": 73.92295164583349,
          "velocity": 0.6220472440944882,
          "duration": 0.26227664583333876
        },
        {
          "name": "B3",
          "midi": 59,
          "time": 74.19638900000017,
          "velocity": 0.6614173228346457,
          "duration": 0.2566962916666711
        },
        {
          "name": "G3",
          "midi": 55,
          "time": 74.4586656458335,
          "velocity": 0.6535433070866141,
          "duration": 0.26227664583333876
        },
        {
          "name": "B3",
          "midi": 59,
          "time": 74.73210300000018,
          "velocity": 0.6771653543307087,
          "duration": 0.2566962916666711
        },
        {
          "name": "G3",
          "midi": 55,
          "time": 74.99437964583352,
          "velocity": 0.5590551181102362,
          "duration": 0.26227664583333876
        },
        {
          "name": "B3",
          "midi": 59,
          "time": 75.26781700000019,
          "velocity": 0.5748031496062992,
          "duration": 0.2566962916666711
        },
        {
          "name": "G3",
          "midi": 55,
          "time": 75.53009364583353,
          "velocity": 0.5826771653543307,
          "duration": 0.26227664583333876
        },
        {
          "name": "B3",
          "midi": 59,
          "time": 75.8035310000002,
          "velocity": 0.6220472440944882,
          "duration": 0.26227664583333876
        },
        {
          "name": "G3",
          "midi": 55,
          "time": 76.06580764583354,
          "velocity": 0.6141732283464567,
          "duration": 0.26227664583333876
        },
        {
          "name": "B3",
          "midi": 59,
          "time": 76.33924500000022,
          "velocity": 0.6535433070866141,
          "duration": 0.26227664583333876
        },
        {
          "name": "G3",
          "midi": 55,
          "time": 76.60710200000022,
          "velocity": 0.6771653543307087,
          "duration": 0.26227664583333876
        },
        {
          "name": "B3",
          "midi": 59,
          "time": 76.87495900000023,
          "velocity": 0.7007874015748031,
          "duration": 0.2566962916666711
        },
        {
          "name": "G3",
          "midi": 55,
          "time": 77.14281600000024,
          "velocity": 0.6456692913385826,
          "duration": 0.26227664583333876
        },
        {
          "name": "B3",
          "midi": 59,
          "time": 77.40509264583358,
          "velocity": 0.6062992125984252,
          "duration": 0.26227664583333876
        },
        {
          "name": "G3",
          "midi": 55,
          "time": 77.67853000000025,
          "velocity": 0.5905511811023622,
          "duration": 0.2566962916666711
        },
        {
          "name": "B3",
          "midi": 59,
          "time": 77.94080664583359,
          "velocity": 0.5748031496062992,
          "duration": 0.2566962916666711
        },
        {
          "name": "G3",
          "midi": 55,
          "time": 78.21424400000026,
          "velocity": 0.5433070866141733,
          "duration": 0.26227664583333876
        },
        {
          "name": "B3",
          "midi": 59,
          "time": 78.48210100000027,
          "velocity": 0.5354330708661418,
          "duration": 0.26227664583333876
        },
        {
          "name": "G3",
          "midi": 55,
          "time": 78.74437764583361,
          "velocity": 0.5196850393700787,
          "duration": 0.26227664583333876
        },
        {
          "name": "B3",
          "midi": 59,
          "time": 79.01223464583362,
          "velocity": 0.49606299212598426,
          "duration": 0.26227664583333876
        },
        {
          "name": "G3",
          "midi": 55,
          "time": 79.28009164583362,
          "velocity": 0.31496062992125984,
          "duration": 0.26227664583333876
        },
        {
          "name": "A#3",
          "midi": 58,
          "time": 79.54794864583363,
          "velocity": 0.31496062992125984,
          "duration": 0.2566962916666711
        },
        {
          "name": "G3",
          "midi": 55,
          "time": 79.81580564583363,
          "velocity": 0.3543307086614173,
          "duration": 0.2566962916666711
        },
        {
          "name": "A#3",
          "midi": 58,
          "time": 80.08366264583364,
          "velocity": 0.3858267716535433,
          "duration": 0.26227664583333876
        },
        {
          "name": "G3",
          "midi": 55,
          "time": 80.35151964583365,
          "velocity": 0.4015748031496063,
          "duration": 0.26227664583333876
        },
        {
          "name": "A#3",
          "midi": 58,
          "time": 80.62495700000032,
          "velocity": 0.3937007874015748,
          "duration": 0.2566962916666711
        },
        {
          "name": "G3",
          "midi": 55,
          "time": 80.89281400000033,
          "velocity": 0.4251968503937008,
          "duration": 0.26227664583333876
        },
        {
          "name": "A#3",
          "midi": 58,
          "time": 81.15509064583367,
          "velocity": 0.4566929133858268,
          "duration": 0.26227664583333876
        },
        {
          "name": "G3",
          "midi": 55,
          "time": 81.42852800000034,
          "velocity": 0.3858267716535433,
          "duration": 0.2566962916666711
        },
        {
          "name": "B3",
          "midi": 59,
          "time": 81.69638500000035,
          "velocity": 0.4094488188976378,
          "duration": 0.2566962916666711
        },
        {
          "name": "G3",
          "midi": 55,
          "time": 81.95866164583369,
          "velocity": 0.41732283464566927,
          "duration": 0.26227664583333876
        },
        {
          "name": "B3",
          "midi": 59,
          "time": 82.23209900000036,
          "velocity": 0.4094488188976378,
          "duration": 0.2566962916666711
        },
        {
          "name": "G3",
          "midi": 55,
          "time": 82.49995600000037,
          "velocity": 0.44881889763779526,
          "duration": 0.26227664583333876
        },
        {
          "name": "B3",
          "midi": 59,
          "time": 82.76781300000037,
          "velocity": 0.44881889763779526,
          "duration": 0.26227664583333876
        },
        {
          "name": "G3",
          "midi": 55,
          "time": 83.03567000000038,
          "velocity": 0.4566929133858268,
          "duration": 0.26227664583333876
        },
        {
          "name": "B3",
          "midi": 59,
          "time": 83.30352700000039,
          "velocity": 0.4645669291338583,
          "duration": 0.26227664583333876
        },
        {
          "name": "G3",
          "midi": 55,
          "time": 83.57138400000039,
          "velocity": 0.47244094488188976,
          "duration": 0.26227664583333876
        },
        {
          "name": "B3",
          "midi": 59,
          "time": 83.8392410000004,
          "velocity": 0.44881889763779526,
          "duration": 0.26227664583333876
        },
        {
          "name": "G3",
          "midi": 55,
          "time": 84.1070980000004,
          "velocity": 0.47244094488188976,
          "duration": 0.2566962916666711
        },
        {
          "name": "B3",
          "midi": 59,
          "time": 84.36937464583374,
          "velocity": 0.4566929133858268,
          "duration": 0.2566962916666711
        },
        {
          "name": "G3",
          "midi": 55,
          "time": 84.64281200000042,
          "velocity": 0.44881889763779526,
          "duration": 0.2566962916666711
        },
        {
          "name": "B3",
          "midi": 59,
          "time": 84.91066900000042,
          "velocity": 0.4409448818897638,
          "duration": 0.26227664583333876
        },
        {
          "name": "G3",
          "midi": 55,
          "time": 85.17852600000043,
          "velocity": 0.41732283464566927,
          "duration": 0.26227664583333876
        },
        {
          "name": "B3",
          "midi": 59,
          "time": 85.44638300000044,
          "velocity": 0.3937007874015748,
          "duration": 0.26227664583333876
        },
        {
          "name": "G3",
          "midi": 55,
          "time": 85.71424000000044,
          "velocity": 0.4094488188976378,
          "duration": 0.26227664583333876
        },
        {
          "name": "B3",
          "midi": 59,
          "time": 85.97651664583378,
          "velocity": 0.3858267716535433,
          "duration": 0.2566962916666711
        },
        {
          "name": "G3",
          "midi": 55,
          "time": 86.24995400000046,
          "velocity": 0.41732283464566927,
          "duration": 0.2566962916666711
        },
        {
          "name": "B3",
          "midi": 59,
          "time": 86.5122306458338,
          "velocity": 0.41732283464566927,
          "duration": 0.2566962916666711
        },
        {
          "name": "G3",
          "midi": 55,
          "time": 86.7800876458338,
          "velocity": 0.4251968503937008,
          "duration": 0.2566962916666711
        },
        {
          "name": "B3",
          "midi": 59,
          "time": 87.05352500000048,
          "velocity": 0.4409448818897638,
          "duration": 0.26227664583333876
        },
        {
          "name": "G3",
          "midi": 55,
          "time": 87.31580164583382,
          "velocity": 0.4566929133858268,
          "duration": 0.26227664583333876
        },
        {
          "name": "B3",
          "midi": 59,
          "time": 87.58923900000049,
          "velocity": 0.47244094488188976,
          "duration": 0.26227664583333876
        },
        {
          "name": "G3",
          "midi": 55,
          "time": 87.8570960000005,
          "velocity": 0.47244094488188976,
          "duration": 0.2566962916666711
        },
        {
          "name": "B3",
          "midi": 59,
          "time": 88.11937264583383,
          "velocity": 0.4645669291338583,
          "duration": 0.26227664583333876
        },
        {
          "name": "G3",
          "midi": 55,
          "time": 88.38722964583384,
          "velocity": 0.4409448818897638,
          "duration": 0.26227664583333876
        },
        {
          "name": "B3",
          "midi": 59,
          "time": 88.65508664583385,
          "velocity": 0.44881889763779526,
          "duration": 0.2566962916666711
        },
        {
          "name": "G3",
          "midi": 55,
          "time": 88.92294364583385,
          "velocity": 0.41732283464566927,
          "duration": 0.26227664583333876
        },
        {
          "name": "B3",
          "midi": 59,
          "time": 89.19080064583386,
          "velocity": 0.4015748031496063,
          "duration": 0.26227664583333876
        },
        {
          "name": "G3",
          "midi": 55,
          "time": 89.46423800000053,
          "velocity": 0.3937007874015748,
          "duration": 0.26227664583333876
        },
        {
          "name": "B3",
          "midi": 59,
          "time": 89.72651464583387,
          "velocity": 0.3700787401574803,
          "duration": 0.26227664583333876
        },
        {
          "name": "B3",
          "midi": 59,
          "time": 89.99995200000055,
          "velocity": 0.7244094488188977,
          "duration": 0.5189729374999956
        },
        {
          "name": "G3",
          "midi": 55,
          "time": 89.99995200000055,
          "velocity": 0.7086614173228346,
          "duration": 0.5245532916666633
        },
        {
          "name": "E3",
          "midi": 52,
          "time": 89.99995200000055,
          "velocity": 0.7086614173228346,
          "duration": 0.5245532916666633
        },
        {
          "name": "G3",
          "midi": 55,
          "time": 90.53008564583388,
          "velocity": 0.7244094488188977,
          "duration": 1.6015616458333426
        },
        {
          "name": "B3",
          "midi": 59,
          "time": 90.53566600000055,
          "velocity": 0.7007874015748031,
          "duration": 1.595981291666675
        },
        {
          "name": "E3",
          "midi": 52,
          "time": 90.53566600000055,
          "velocity": 0.7244094488188977,
          "duration": 1.5848205833333395
        },
        {
          "name": "B3",
          "midi": 59,
          "time": 92.13722764583389,
          "velocity": 0.7086614173228346,
          "duration": 0.530133645833331
        },
        {
          "name": "D3",
          "midi": 50,
          "time": 92.13722764583389,
          "velocity": 0.7244094488188977,
          "duration": 0.530133645833331
        },
        {
          "name": "G3",
          "midi": 55,
          "time": 92.14280800000056,
          "velocity": 0.7007874015748031,
          "duration": 0.5245532916666633
        },
        {
          "name": "G3",
          "midi": 55,
          "time": 92.67294164583389,
          "velocity": 0.6929133858267716,
          "duration": 1.6015616458333284
        },
        {
          "name": "D3",
          "midi": 50,
          "time": 92.67294164583389,
          "velocity": 0.6929133858267716,
          "duration": 1.6127223541666638
        },
        {
          "name": "B3",
          "midi": 59,
          "time": 92.67852200000056,
          "velocity": 0.7165354330708661,
          "duration": 1.6015616458333284
        },
        {
          "name": "G3",
          "midi": 55,
          "time": 94.28008364583388,
          "velocity": 0.7165354330708661,
          "duration": 0.5357139999999987
        },
        {
          "name": "B3",
          "midi": 59,
          "time": 94.28566400000055,
          "velocity": 0.7086614173228346,
          "duration": 0.530133645833331
        },
        {
          "name": "C3",
          "midi": 48,
          "time": 94.28566400000055,
          "velocity": 0.7086614173228346,
          "duration": 0.5189729374999956
        },
        {
          "name": "C3",
          "midi": 48,
          "time": 94.81579764583388,
          "velocity": 0.6771653543307087,
          "duration": 1.6015616458333426
        },
        {
          "name": "B3",
          "midi": 59,
          "time": 94.82137800000055,
          "velocity": 0.6771653543307087,
          "duration": 1.629463416666681
        },
        {
          "name": "G3",
          "midi": 55,
          "time": 94.82137800000055,
          "velocity": 0.6771653543307087,
          "duration": 1.5680795208333365
        },
        {
          "name": "A#3",
          "midi": 58,
          "time": 96.42293964583389,
          "velocity": 0.5984251968503937,
          "duration": 0.5189729375000098
        },
        {
          "name": "E3",
          "midi": 52,
          "time": 96.42852000000056,
          "velocity": 0.5748031496062992,
          "duration": 0.5301336458333452
        },
        {
          "name": "C3",
          "midi": 48,
          "time": 96.42852000000056,
          "velocity": 0.5748031496062992,
          "duration": 0.5189729375000098
        },
        {
          "name": "A#3",
          "midi": 58,
          "time": 96.9586536458339,
          "velocity": 0.5433070866141733,
          "duration": 3.1752215208333325
        },
        {
          "name": "E3",
          "midi": 52,
          "time": 96.96423400000057,
          "velocity": 0.5669291338582677,
          "duration": 3.270087541666669
        },
        {
          "name": "C3",
          "midi": 48,
          "time": 96.96423400000057,
          "velocity": 0.5669291338582677,
          "duration": 3.270087541666669
        },
        {
          "name": "G3",
          "midi": 55,
          "time": 100.70865164583391,
          "velocity": 0.3937007874015748,
          "duration": 0.26227664583333876
        },
        {
          "name": "B3",
          "midi": 59,
          "time": 100.97650864583392,
          "velocity": 0.4015748031496063,
          "duration": 0.2566962916666711
        },
        {
          "name": "G3",
          "midi": 55,
          "time": 101.24994600000059,
          "velocity": 0.4094488188976378,
          "duration": 0.26227664583333876
        },
        {
          "name": "B3",
          "midi": 59,
          "time": 101.51222264583393,
          "velocity": 0.41732283464566927,
          "duration": 0.26227664583333876
        },
        {
          "name": "G3",
          "midi": 55,
          "time": 101.78007964583394,
          "velocity": 0.44881889763779526,
          "duration": 0.26227664583333876
        },
        {
          "name": "B3",
          "midi": 59,
          "time": 102.04793664583394,
          "velocity": 0.4566929133858268,
          "duration": 0.26227664583333876
        },
        {
          "name": "G3",
          "midi": 55,
          "time": 102.32137400000062,
          "velocity": 0.4409448818897638,
          "duration": 0.26227664583333876
        },
        {
          "name": "B3",
          "midi": 59,
          "time": 102.58923100000062,
          "velocity": 0.4409448818897638,
          "duration": 0.26227664583333876
        },
        {
          "name": "G3",
          "midi": 55,
          "time": 102.85150764583396,
          "velocity": 0.4645669291338583,
          "duration": 0.26227664583333876
        },
        {
          "name": "B3",
          "midi": 59,
          "time": 103.11936464583397,
          "velocity": 0.47244094488188976,
          "duration": 0.26227664583333876
        },
        {
          "name": "G3",
          "midi": 55,
          "time": 103.38722164583398,
          "velocity": 0.4566929133858268,
          "duration": 0.26227664583333876
        },
        {
          "name": "B3",
          "midi": 59,
          "time": 103.65507864583398,
          "velocity": 0.44881889763779526,
          "duration": 0.26227664583333876
        },
        {
          "name": "G3",
          "midi": 55,
          "time": 103.92293564583399,
          "velocity": 0.44881889763779526,
          "duration": 0.26227664583333876
        },
        {
          "name": "B3",
          "midi": 59,
          "time": 104.19637300000066,
          "velocity": 0.41732283464566927,
          "duration": 0.26227664583333876
        },
        {
          "name": "G3",
          "midi": 55,
          "time": 104.458649645834,
          "velocity": 0.4330708661417323,
          "duration": 0.26227664583333876
        },
        {
          "name": "B3",
          "midi": 59,
          "time": 104.73208700000067,
          "velocity": 0.4015748031496063,
          "duration": 0.26227664583333876
        },
        {
          "name": "G3",
          "midi": 55,
          "time": 104.99436364583401,
          "velocity": 0.3779527559055118,
          "duration": 0.26227664583333876
        },
        {
          "name": "B3",
          "midi": 59,
          "time": 105.26780100000069,
          "velocity": 0.3937007874015748,
          "duration": 0.2566962916666711
        },
        {
          "name": "G3",
          "midi": 55,
          "time": 105.5356580000007,
          "velocity": 0.4251968503937008,
          "duration": 0.26227664583333876
        },
        {
          "name": "B3",
          "midi": 59,
          "time": 105.79793464583403,
          "velocity": 0.4330708661417323,
          "duration": 0.2566962916666711
        },
        {
          "name": "G3",
          "midi": 55,
          "time": 106.06579164583404,
          "velocity": 0.4409448818897638,
          "duration": 0.26227664583333876
        },
        {
          "name": "B3",
          "midi": 59,
          "time": 106.33364864583405,
          "velocity": 0.4251968503937008,
          "duration": 0.2566962916666711
        },
        {
          "name": "G3",
          "midi": 55,
          "time": 106.60150564583405,
          "velocity": 0.4330708661417323,
          "duration": 0.26227664583333876
        },
        {
          "name": "B3",
          "midi": 59,
          "time": 106.87494300000073,
          "velocity": 0.47244094488188976,
          "duration": 0.2566962916666711
        },
        {
          "name": "G3",
          "midi": 55,
          "time": 107.13721964583407,
          "velocity": 0.4881889763779528,
          "duration": 0.26227664583333876
        },
        {
          "name": "B3",
          "midi": 59,
          "time": 107.41065700000074,
          "velocity": 0.44881889763779526,
          "duration": 0.26227664583333876
        },
        {
          "name": "G3",
          "midi": 55,
          "time": 107.67851400000075,
          "velocity": 0.44881889763779526,
          "duration": 0.26227664583333876
        },
        {
          "name": "B3",
          "midi": 59,
          "time": 107.94637100000075,
          "velocity": 0.4251968503937008,
          "duration": 0.26227664583333876
        },
        {
          "name": "G3",
          "midi": 55,
          "time": 108.20864764583409,
          "velocity": 0.4094488188976378,
          "duration": 0.26227664583333876
        },
        {
          "name": "B3",
          "midi": 59,
          "time": 108.4765046458341,
          "velocity": 0.3937007874015748,
          "duration": 0.26227664583333876
        },
        {
          "name": "G3",
          "midi": 55,
          "time": 108.74994200000077,
          "velocity": 0.3779527559055118,
          "duration": 0.26227664583333876
        },
        {
          "name": "B3",
          "midi": 59,
          "time": 109.01779900000078,
          "velocity": 0.3700787401574803,
          "duration": 0.2566962916666711
        },
        {
          "name": "B3",
          "midi": 59,
          "time": 109.28007564583412,
          "velocity": 0.6929133858267716,
          "duration": 0.530133645833331
        },
        {
          "name": "E3",
          "midi": 52,
          "time": 109.28007564583412,
          "velocity": 0.7244094488188977,
          "duration": 0.530133645833331
        },
        {
          "name": "G3",
          "midi": 55,
          "time": 109.28565600000078,
          "velocity": 0.6929133858267716,
          "duration": 0.5245532916666633
        },
        {
          "name": "B3",
          "midi": 59,
          "time": 109.81578964583412,
          "velocity": 0.7165354330708661,
          "duration": 1.6015616458333426
        },
        {
          "name": "G3",
          "midi": 55,
          "time": 109.81578964583412,
          "velocity": 0.7086614173228346,
          "duration": 1.5848205833333395
        },
        {
          "name": "E3",
          "midi": 52,
          "time": 109.81578964583412,
          "velocity": 0.6929133858267716,
          "duration": 1.5680795208333365
        },
        {
          "name": "G3",
          "midi": 55,
          "time": 111.42293164583413,
          "velocity": 0.7165354330708661,
          "duration": 0.530133645833331
        },
        {
          "name": "D3",
          "midi": 50,
          "time": 111.42293164583413,
          "velocity": 0.7165354330708661,
          "duration": 0.530133645833331
        },
        {
          "name": "B3",
          "midi": 59,
          "time": 111.4285120000008,
          "velocity": 0.7244094488188977,
          "duration": 0.5189729374999956
        },
        {
          "name": "B3",
          "midi": 59,
          "time": 111.95864564583412,
          "velocity": 0.7007874015748031,
          "duration": 1.5680795208333365
        },
        {
          "name": "G3",
          "midi": 55,
          "time": 111.95864564583412,
          "velocity": 0.7086614173228346,
          "duration": 1.6015616458333426
        },
        {
          "name": "D3",
          "midi": 50,
          "time": 111.95864564583412,
          "velocity": 0.7165354330708661,
          "duration": 1.5848205833333395
        },
        {
          "name": "G3",
          "midi": 55,
          "time": 113.56578764583413,
          "velocity": 0.6929133858267716,
          "duration": 0.5357139999999987
        },
        {
          "name": "C3",
          "midi": 48,
          "time": 113.56578764583413,
          "velocity": 0.6929133858267716,
          "duration": 0.530133645833331
        },
        {
          "name": "B3",
          "midi": 59,
          "time": 113.5713680000008,
          "velocity": 0.7007874015748031,
          "duration": 0.5189729374999956
        },
        {
          "name": "B3",
          "midi": 59,
          "time": 114.10150164583413,
          "velocity": 0.6929133858267716,
          "duration": 1.629463416666681
        },
        {
          "name": "G3",
          "midi": 55,
          "time": 114.1070820000008,
          "velocity": 0.6614173228346457,
          "duration": 1.5680795208333365
        },
        {
          "name": "C3",
          "midi": 48,
          "time": 114.1070820000008,
          "velocity": 0.6929133858267716,
          "duration": 1.6015616458333426
        },
        {
          "name": "A#3",
          "midi": 58,
          "time": 115.70864364583414,
          "velocity": 0.5826771653543307,
          "duration": 0.530133645833331
        },
        {
          "name": "E3",
          "midi": 52,
          "time": 115.70864364583414,
          "velocity": 0.5905511811023622,
          "duration": 0.530133645833331
        },
        {
          "name": "C3",
          "midi": 48,
          "time": 115.71422400000081,
          "velocity": 0.5826771653543307,
          "duration": 0.530133645833331
        },
        {
          "name": "E3",
          "midi": 52,
          "time": 116.24435764583414,
          "velocity": 0.5433070866141733,
          "duration": 3.2087036458333245
        },
        {
          "name": "A#3",
          "midi": 58,
          "time": 116.24993800000081,
          "velocity": 0.5511811023622047,
          "duration": 3.1417393958333264
        },
        {
          "name": "C3",
          "midi": 48,
          "time": 116.24993800000081,
          "velocity": 0.5590551181102362,
          "duration": 3.2087036458333245
        },
        {
          "name": "G3",
          "midi": 55,
          "time": 119.99435564583413,
          "velocity": 0.3779527559055118,
          "duration": 0.26227664583333876
        },
        {
          "name": "B3",
          "midi": 59,
          "time": 120.26779300000081,
          "velocity": 0.3858267716535433,
          "duration": 0.26227664583333876
        },
        {
          "name": "G3",
          "midi": 55,
          "time": 120.53006964583415,
          "velocity": 0.3937007874015748,
          "duration": 0.26227664583333876
        },
        {
          "name": "B3",
          "midi": 59,
          "time": 120.80350700000082,
          "velocity": 0.4094488188976378,
          "duration": 0.2566962916666711
        },
        {
          "name": "G3",
          "midi": 55,
          "time": 121.06578364583416,
          "velocity": 0.41732283464566927,
          "duration": 0.26227664583333876
        },
        {
          "name": "B3",
          "midi": 59,
          "time": 121.33364064583417,
          "velocity": 0.4251968503937008,
          "duration": 0.2566962916666711
        },
        {
          "name": "G3",
          "midi": 55,
          "time": 121.60149764583417,
          "velocity": 0.44881889763779526,
          "duration": 0.2566962916666711
        },
        {
          "name": "B3",
          "midi": 59,
          "time": 121.86935464583418,
          "velocity": 0.4645669291338583,
          "duration": 0.26227664583333876
        },
        {
          "name": "G3",
          "midi": 55,
          "time": 122.14279200000085,
          "velocity": 0.48031496062992124,
          "duration": 0.26227664583333876
        },
        {
          "name": "B3",
          "midi": 59,
          "time": 122.41064900000086,
          "velocity": 0.47244094488188976,
          "duration": 0.2566962916666711
        },
        {
          "name": "G3",
          "midi": 55,
          "time": 122.6729256458342,
          "velocity": 0.4645669291338583,
          "duration": 0.26227664583333876
        },
        {
          "name": "B3",
          "midi": 59,
          "time": 122.9407826458342,
          "velocity": 0.4330708661417323,
          "duration": 0.2566962916666711
        },
        {
          "name": "G3",
          "midi": 55,
          "time": 123.21422000000088,
          "velocity": 0.44881889763779526,
          "duration": 0.2566962916666711
        },
        {
          "name": "B3",
          "midi": 59,
          "time": 123.47649664583422,
          "velocity": 0.4094488188976378,
          "duration": 0.26227664583333876
        },
        {
          "name": "G3",
          "midi": 55,
          "time": 123.74993400000089,
          "velocity": 0.4251968503937008,
          "duration": 0.26227664583333876
        },
        {
          "name": "B3",
          "midi": 59,
          "time": 124.01221064583423,
          "velocity": 0.4094488188976378,
          "duration": 0.2566962916666711
        },
        {
          "name": "G3",
          "midi": 55,
          "time": 124.2856480000009,
          "velocity": 0.4094488188976378,
          "duration": 0.26227664583333876
        },
        {
          "name": "B3",
          "midi": 59,
          "time": 124.54792464583424,
          "velocity": 0.41732283464566927,
          "duration": 0.2566962916666711
        },
        {
          "name": "G3",
          "midi": 55,
          "time": 124.81578164583425,
          "velocity": 0.41732283464566927,
          "duration": 0.2566962916666711
        },
        {
          "name": "B3",
          "midi": 59,
          "time": 125.08363864583426,
          "velocity": 0.41732283464566927,
          "duration": 0.26227664583333876
        },
        {
          "name": "G3",
          "midi": 55,
          "time": 125.35149564583426,
          "velocity": 0.4330708661417323,
          "duration": 0.26227664583333876
        },
        {
          "name": "B3",
          "midi": 59,
          "time": 125.61935264583427,
          "velocity": 0.4330708661417323,
          "duration": 0.2566962916666711
        },
        {
          "name": "G3",
          "midi": 55,
          "time": 125.89279000000094,
          "velocity": 0.4330708661417323,
          "duration": 0.26227664583333876
        },
        {
          "name": "B3",
          "midi": 59,
          "time": 126.16064700000095,
          "velocity": 0.4645669291338583,
          "duration": 0.26227664583333876
        },
        {
          "name": "G3",
          "midi": 55,
          "time": 126.42292364583429,
          "velocity": 0.48031496062992124,
          "duration": 0.2566962916666711
        },
        {
          "name": "B3",
          "midi": 59,
          "time": 126.69636100000096,
          "velocity": 0.44881889763779526,
          "duration": 0.2566962916666711
        },
        {
          "name": "G3",
          "midi": 55,
          "time": 126.9586376458343,
          "velocity": 0.4645669291338583,
          "duration": 0.26227664583333876
        },
        {
          "name": "B3",
          "midi": 59,
          "time": 127.23207500000098,
          "velocity": 0.44881889763779526,
          "duration": 0.2566962916666711
        },
        {
          "name": "G3",
          "midi": 55,
          "time": 127.49435164583431,
          "velocity": 0.4251968503937008,
          "duration": 0.26227664583333876
        },
        {
          "name": "B3",
          "midi": 59,
          "time": 127.76220864583432,
          "velocity": 0.4015748031496063,
          "duration": 0.2566962916666711
        },
        {
          "name": "G3",
          "midi": 55,
          "time": 128.03564600000098,
          "velocity": 0.3779527559055118,
          "duration": 0.25669629166665686
        },
        {
          "name": "B3",
          "midi": 59,
          "time": 128.30350300000097,
          "velocity": 0.36220472440944884,
          "duration": 0.26227664583333876
        },
        {
          "name": "G3",
          "midi": 55,
          "time": 128.5657796458343,
          "velocity": 0.5354330708661418,
          "duration": 0.26227664583333876
        },
        {
          "name": "B3",
          "midi": 59,
          "time": 128.8336366458343,
          "velocity": 0.5590551181102362,
          "duration": 0.26227664583333876
        },
        {
          "name": "G3",
          "midi": 55,
          "time": 129.10707400000098,
          "velocity": 0.5905511811023622,
          "duration": 0.26227664583333876
        },
        {
          "name": "B3",
          "midi": 59,
          "time": 129.36935064583432,
          "velocity": 0.5984251968503937,
          "duration": 0.26227664583333876
        },
        {
          "name": "G3",
          "midi": 55,
          "time": 129.6372076458343,
          "velocity": 0.6220472440944882,
          "duration": 0.26227664583333876
        },
        {
          "name": "B3",
          "midi": 59,
          "time": 129.91064500000098,
          "velocity": 0.6535433070866141,
          "duration": 0.25669629166665686
        },
        {
          "name": "G3",
          "midi": 55,
          "time": 130.17850200000098,
          "velocity": 0.6850393700787402,
          "duration": 0.25669629166665686
        },
        {
          "name": "B3",
          "midi": 59,
          "time": 130.44077864583429,
          "velocity": 0.6850393700787402,
          "duration": 0.26227664583333876
        },
        {
          "name": "G3",
          "midi": 55,
          "time": 130.71421600000096,
          "velocity": 0.5669291338582677,
          "duration": 0.25669629166665686
        },
        {
          "name": "B3",
          "midi": 59,
          "time": 130.98207300000095,
          "velocity": 0.5748031496062992,
          "duration": 0.25669629166665686
        },
        {
          "name": "G3",
          "midi": 55,
          "time": 131.24993000000094,
          "velocity": 0.5905511811023622,
          "duration": 0.26227664583333876
        },
        {
          "name": "B3",
          "midi": 59,
          "time": 131.51220664583428,
          "velocity": 0.6062992125984252,
          "duration": 0.26227664583333876
        },
        {
          "name": "G3",
          "midi": 55,
          "time": 131.78006364583428,
          "velocity": 0.6377952755905512,
          "duration": 0.26227664583333876
        },
        {
          "name": "B3",
          "midi": 59,
          "time": 132.04792064583427,
          "velocity": 0.6535433070866141,
          "duration": 0.26227664583333876
        },
        {
          "name": "G3",
          "midi": 55,
          "time": 132.31577764583426,
          "velocity": 0.6850393700787402,
          "duration": 0.25669629166665686
        },
        {
          "name": "B3",
          "midi": 59,
          "time": 132.5892150000009,
          "velocity": 0.6929133858267716,
          "duration": 0.26227664583333876
        },
        {
          "name": "G3",
          "midi": 55,
          "time": 132.85149164583424,
          "velocity": 0.6299212598425197,
          "duration": 0.26227664583333876
        },
        {
          "name": "B3",
          "midi": 59,
          "time": 133.12492900000092,
          "velocity": 0.6062992125984252,
          "duration": 0.25669629166665686
        },
        {
          "name": "G3",
          "midi": 55,
          "time": 133.3927860000009,
          "velocity": 0.5748031496062992,
          "duration": 0.26227664583333876
        },
        {
          "name": "B3",
          "midi": 59,
          "time": 133.6606430000009,
          "velocity": 0.5905511811023622,
          "duration": 0.26227664583333876
        },
        {
          "name": "G3",
          "midi": 55,
          "time": 133.9285000000009,
          "velocity": 0.5669291338582677,
          "duration": 0.26227664583333876
        },
        {
          "name": "B3",
          "midi": 59,
          "time": 134.1963570000009,
          "velocity": 0.5511811023622047,
          "duration": 0.25669629166665686
        },
        {
          "name": "G3",
          "midi": 55,
          "time": 134.4586336458342,
          "velocity": 0.5118110236220472,
          "duration": 0.26227664583333876
        },
        {
          "name": "B3",
          "midi": 59,
          "time": 134.73207100000087,
          "velocity": 0.4881889763779528,
          "duration": 0.26227664583333876
        },
        {
          "name": "G3",
          "midi": 55,
          "time": 134.99992800000086,
          "velocity": 0.33070866141732286,
          "duration": 0.26227664583333876
        },
        {
          "name": "A#3",
          "midi": 58,
          "time": 135.26778500000086,
          "velocity": 0.33070866141732286,
          "duration": 0.25669629166665686
        },
        {
          "name": "G3",
          "midi": 55,
          "time": 135.53564200000085,
          "velocity": 0.33858267716535434,
          "duration": 0.26227664583333876
        },
        {
          "name": "A#3",
          "midi": 58,
          "time": 135.7979186458342,
          "velocity": 0.36220472440944884,
          "duration": 0.26227664583333876
        },
        {
          "name": "G3",
          "midi": 55,
          "time": 136.06577564583418,
          "velocity": 0.3937007874015748,
          "duration": 0.26227664583333876
        },
        {
          "name": "A#3",
          "midi": 58,
          "time": 136.33921300000085,
          "velocity": 0.4251968503937008,
          "duration": 0.25669629166665686
        },
        {
          "name": "G3",
          "midi": 55,
          "time": 136.60148964583416,
          "velocity": 0.4251968503937008,
          "duration": 0.26227664583333876
        },
        {
          "name": "A#3",
          "midi": 58,
          "time": 136.86934664583416,
          "velocity": 0.44881889763779526,
          "duration": 0.26227664583333876
        },
        {
          "name": "G3",
          "midi": 55,
          "time": 137.13720364583415,
          "velocity": 0.4015748031496063,
          "duration": 0.26227664583333876
        },
        {
          "name": "B3",
          "midi": 59,
          "time": 137.41064100000082,
          "velocity": 0.41732283464566927,
          "duration": 0.25669629166665686
        },
        {
          "name": "G3",
          "midi": 55,
          "time": 137.67849800000081,
          "velocity": 0.4251968503937008,
          "duration": 0.26227664583333876
        },
        {
          "name": "B3",
          "midi": 59,
          "time": 137.9463550000008,
          "velocity": 0.41732283464566927,
          "duration": 0.25669629166665686
        },
        {
          "name": "G3",
          "midi": 55,
          "time": 138.2142120000008,
          "velocity": 0.4251968503937008,
          "duration": 0.26227664583333876
        },
        {
          "name": "B3",
          "midi": 59,
          "time": 138.4820690000008,
          "velocity": 0.4251968503937008,
          "duration": 0.25669629166665686
        },
        {
          "name": "G3",
          "midi": 55,
          "time": 138.74992600000078,
          "velocity": 0.4566929133858268,
          "duration": 0.26227664583333876
        },
        {
          "name": "B3",
          "midi": 59,
          "time": 139.01220264583412,
          "velocity": 0.4409448818897638,
          "duration": 0.26227664583333876
        },
        {
          "name": "G3",
          "midi": 55,
          "time": 139.2856400000008,
          "velocity": 0.4881889763779528,
          "duration": 0.25669629166665686
        },
        {
          "name": "B3",
          "midi": 59,
          "time": 139.5479166458341,
          "velocity": 0.47244094488188976,
          "duration": 0.25669629166665686
        },
        {
          "name": "G3",
          "midi": 55,
          "time": 139.82135400000075,
          "velocity": 0.4566929133858268,
          "duration": 0.25669629166665686
        },
        {
          "name": "B3",
          "midi": 59,
          "time": 140.08363064583406,
          "velocity": 0.4645669291338583,
          "duration": 0.26227664583333876
        },
        {
          "name": "G3",
          "midi": 55,
          "time": 140.35706800000074,
          "velocity": 0.41732283464566927,
          "duration": 0.25669629166665686
        },
        {
          "name": "B3",
          "midi": 59,
          "time": 140.62492500000073,
          "velocity": 0.4251968503937008,
          "duration": 0.26227664583333876
        },
        {
          "name": "G3",
          "midi": 55,
          "time": 140.89278200000072,
          "velocity": 0.4015748031496063,
          "duration": 0.26227664583333876
        },
        {
          "name": "B3",
          "midi": 59,
          "time": 141.1606390000007,
          "velocity": 0.41732283464566927,
          "duration": 0.26227664583333876
        },
        {
          "name": "G3",
          "midi": 55,
          "time": 141.4284960000007,
          "velocity": 0.3858267716535433,
          "duration": 0.26227664583333876
        },
        {
          "name": "B3",
          "midi": 59,
          "time": 141.6963530000007,
          "velocity": 0.3858267716535433,
          "duration": 0.25669629166665686
        },
        {
          "name": "G3",
          "midi": 55,
          "time": 141.958629645834,
          "velocity": 0.4251968503937008,
          "duration": 0.26227664583333876
        },
        {
          "name": "B3",
          "midi": 59,
          "time": 142.226486645834,
          "velocity": 0.4015748031496063,
          "duration": 0.26227664583333876
        },
        {
          "name": "G3",
          "midi": 55,
          "time": 142.49992400000068,
          "velocity": 0.4409448818897638,
          "duration": 0.25669629166665686
        },
        {
          "name": "B3",
          "midi": 59,
          "time": 142.76220064583399,
          "velocity": 0.4409448818897638,
          "duration": 0.25669629166665686
        },
        {
          "name": "G3",
          "midi": 55,
          "time": 143.03563800000063,
          "velocity": 0.44881889763779526,
          "duration": 0.26227664583333876
        },
        {
          "name": "B3",
          "midi": 59,
          "time": 143.29791464583397,
          "velocity": 0.44881889763779526,
          "duration": 0.26227664583333876
        },
        {
          "name": "G3",
          "midi": 55,
          "time": 143.57135200000064,
          "velocity": 0.4566929133858268,
          "duration": 0.26227664583333876
        },
        {
          "name": "B3",
          "midi": 59,
          "time": 143.83362864583398,
          "velocity": 0.4566929133858268,
          "duration": 0.26227664583333876
        },
        {
          "name": "G3",
          "midi": 55,
          "time": 144.10148564583398,
          "velocity": 0.4330708661417323,
          "duration": 0.26227664583333876
        },
        {
          "name": "B3",
          "midi": 59,
          "time": 144.37492300000065,
          "velocity": 0.4330708661417323,
          "duration": 0.26227664583333876
        },
        {
          "name": "G3",
          "midi": 55,
          "time": 144.637199645834,
          "velocity": 0.4015748031496063,
          "duration": 0.26227664583333876
        },
        {
          "name": "B3",
          "midi": 59,
          "time": 144.90505664583398,
          "velocity": 0.4094488188976378,
          "duration": 0.25669629166665686
        },
        {
          "name": "G3",
          "midi": 55,
          "time": 145.17849400000063,
          "velocity": 0.3858267716535433,
          "duration": 0.26227664583333876
        },
        {
          "name": "B3",
          "midi": 59,
          "time": 145.44635100000062,
          "velocity": 0.3858267716535433,
          "duration": 0.26227664583333876
        },
        {
          "name": "G3",
          "midi": 55,
          "time": 145.70862764583396,
          "velocity": 0.5511811023622047,
          "duration": 0.26227664583333876
        },
        {
          "name": "B3",
          "midi": 59,
          "time": 145.98206500000063,
          "velocity": 0.5826771653543307,
          "duration": 0.25669629166665686
        },
        {
          "name": "G3",
          "midi": 55,
          "time": 146.24434164583394,
          "velocity": 0.5984251968503937,
          "duration": 0.26227664583333876
        },
        {
          "name": "B3",
          "midi": 59,
          "time": 146.51777900000062,
          "velocity": 0.6220472440944882,
          "duration": 0.25669629166665686
        },
        {
          "name": "G3",
          "midi": 55,
          "time": 146.78005564583393,
          "velocity": 0.6141732283464567,
          "duration": 0.26227664583333876
        },
        {
          "name": "B3",
          "midi": 59,
          "time": 147.04791264583392,
          "velocity": 0.6535433070866141,
          "duration": 0.25669629166665686
        },
        {
          "name": "G3",
          "midi": 55,
          "time": 147.3157696458339,
          "velocity": 0.6771653543307087,
          "duration": 0.26227664583333876
        },
        {
          "name": "B3",
          "midi": 59,
          "time": 147.5836266458339,
          "velocity": 0.6929133858267716,
          "duration": 0.26227664583333876
        },
        {
          "name": "G3",
          "midi": 55,
          "time": 147.85706400000058,
          "velocity": 0.5669291338582677,
          "duration": 0.25669629166665686
        },
        {
          "name": "B3",
          "midi": 59,
          "time": 148.12492100000057,
          "velocity": 0.5748031496062992,
          "duration": 0.25669629166665686
        },
        {
          "name": "G3",
          "midi": 55,
          "time": 148.39277800000056,
          "velocity": 0.5826771653543307,
          "duration": 0.26227664583333876
        },
        {
          "name": "B3",
          "midi": 59,
          "time": 148.6550546458339,
          "velocity": 0.6220472440944882,
          "duration": 0.26227664583333876
        },
        {
          "name": "G3",
          "midi": 55,
          "time": 148.9229116458339,
          "velocity": 0.6299212598425197,
          "duration": 0.26227664583333876
        },
        {
          "name": "B3",
          "midi": 59,
          "time": 149.19076864583388,
          "velocity": 0.6614173228346457,
          "duration": 0.26227664583333876
        },
        {
          "name": "G3",
          "midi": 55,
          "time": 149.46420600000056,
          "velocity": 0.6535433070866141,
          "duration": 0.25669629166665686
        },
        {
          "name": "B3",
          "midi": 59,
          "time": 149.72648264583387,
          "velocity": 0.7007874015748031,
          "duration": 0.25669629166665686
        },
        {
          "name": "G3",
          "midi": 55,
          "time": 149.99433964583386,
          "velocity": 0.6299212598425197,
          "duration": 0.26227664583333876
        },
        {
          "name": "B3",
          "midi": 59,
          "time": 150.26219664583385,
          "velocity": 0.6062992125984252,
          "duration": 0.25669629166665686
        },
        {
          "name": "G3",
          "midi": 55,
          "time": 150.53005364583385,
          "velocity": 0.5905511811023622,
          "duration": 0.25669629166665686
        },
        {
          "name": "B3",
          "midi": 59,
          "time": 150.8034910000005,
          "velocity": 0.5669291338582677,
          "duration": 0.26227664583333876
        },
        {
          "name": "G3",
          "midi": 55,
          "time": 151.07134800000048,
          "velocity": 0.5511811023622047,
          "duration": 0.26227664583333876
        },
        {
          "name": "B3",
          "midi": 59,
          "time": 151.33920500000048,
          "velocity": 0.5196850393700787,
          "duration": 0.26227664583333876
        },
        {
          "name": "G3",
          "midi": 55,
          "time": 151.60148164583381,
          "velocity": 0.5118110236220472,
          "duration": 0.26227664583333876
        },
        {
          "name": "B3",
          "midi": 59,
          "time": 151.8693386458338,
          "velocity": 0.49606299212598426,
          "duration": 0.25669629166665686
        },
        {
          "name": "G3",
          "midi": 55,
          "time": 152.1371956458338,
          "velocity": 0.3228346456692913,
          "duration": 0.25669629166665686
        },
        {
          "name": "A#3",
          "midi": 58,
          "time": 152.4050526458338,
          "velocity": 0.33858267716535434,
          "duration": 0.26227664583333876
        },
        {
          "name": "G3",
          "midi": 55,
          "time": 152.67290964583378,
          "velocity": 0.3700787401574803,
          "duration": 0.25669629166665686
        },
        {
          "name": "A#3",
          "midi": 58,
          "time": 152.94076664583378,
          "velocity": 0.3779527559055118,
          "duration": 0.25669629166665686
        },
        {
          "name": "G3",
          "midi": 55,
          "time": 153.20862364583377,
          "velocity": 0.3937007874015748,
          "duration": 0.26227664583333876
        },
        {
          "name": "A#3",
          "midi": 58,
          "time": 153.48206100000044,
          "velocity": 0.4251968503937008,
          "duration": 0.25669629166665686
        },
        {
          "name": "G3",
          "midi": 55,
          "time": 153.74991800000043,
          "velocity": 0.41732283464566927,
          "duration": 0.25669629166665686
        },
        {
          "name": "A#3",
          "midi": 58,
          "time": 154.01777500000043,
          "velocity": 0.4330708661417323,
          "duration": 0.25669629166665686
        },
        {
          "name": "G3",
          "midi": 55,
          "time": 154.28005164583374,
          "velocity": 0.4015748031496063,
          "duration": 0.26227664583333876
        },
        {
          "name": "B3",
          "midi": 59,
          "time": 154.5534890000004,
          "velocity": 0.4094488188976378,
          "duration": 0.25669629166665686
        },
        {
          "name": "G3",
          "midi": 55,
          "time": 154.81576564583372,
          "velocity": 0.4094488188976378,
          "duration": 0.26227664583333876
        },
        {
          "name": "B3",
          "midi": 59,
          "time": 155.0836226458337,
          "velocity": 0.4094488188976378,
          "duration": 0.26227664583333876
        },
        {
          "name": "G3",
          "midi": 55,
          "time": 155.3570600000004,
          "velocity": 0.41732283464566927,
          "duration": 0.25669629166665686
        },
        {
          "name": "B3",
          "midi": 59,
          "time": 155.62491700000038,
          "velocity": 0.4251968503937008,
          "duration": 0.25669629166665686
        },
        {
          "name": "G3",
          "midi": 55,
          "time": 155.8871936458337,
          "velocity": 0.4330708661417323,
          "duration": 0.25669629166665686
        },
        {
          "name": "B3",
          "midi": 59,
          "time": 156.16063100000034,
          "velocity": 0.44881889763779526,
          "duration": 0.26227664583333876
        },
        {
          "name": "G3",
          "midi": 55,
          "time": 156.42290764583367,
          "velocity": 0.47244094488188976,
          "duration": 0.26227664583333876
        },
        {
          "name": "B3",
          "midi": 59,
          "time": 156.69076464583367,
          "velocity": 0.4645669291338583,
          "duration": 0.26227664583333876
        },
        {
          "name": "G3",
          "midi": 55,
          "time": 156.95862164583366,
          "velocity": 0.4409448818897638,
          "duration": 0.25669629166665686
        },
        {
          "name": "B3",
          "midi": 59,
          "time": 157.2320590000003,
          "velocity": 0.4566929133858268,
          "duration": 0.25669629166665686
        },
        {
          "name": "G3",
          "midi": 55,
          "time": 157.49433564583362,
          "velocity": 0.4330708661417323,
          "duration": 0.25669629166665686
        },
        {
          "name": "B3",
          "midi": 59,
          "time": 157.76777300000026,
          "velocity": 0.4409448818897638,
          "duration": 0.26227664583333876
        },
        {
          "name": "G3",
          "midi": 55,
          "time": 158.0300496458336,
          "velocity": 0.4251968503937008,
          "duration": 0.26227664583333876
        },
        {
          "name": "B3",
          "midi": 59,
          "time": 158.30348700000027,
          "velocity": 0.3937007874015748,
          "duration": 0.26227664583333876
        },
        {
          "name": "G3",
          "midi": 55,
          "time": 158.5657636458336,
          "velocity": 0.4094488188976378,
          "duration": 0.25669629166665686
        },
        {
          "name": "B3",
          "midi": 59,
          "time": 158.83920100000026,
          "velocity": 0.4015748031496063,
          "duration": 0.25669629166665686
        },
        {
          "name": "G3",
          "midi": 55,
          "time": 159.10705800000025,
          "velocity": 0.4251968503937008,
          "duration": 0.25669629166665686
        },
        {
          "name": "B3",
          "midi": 59,
          "time": 159.36933464583356,
          "velocity": 0.4330708661417323,
          "duration": 0.25669629166665686
        },
        {
          "name": "G3",
          "midi": 55,
          "time": 159.6427720000002,
          "velocity": 0.4330708661417323,
          "duration": 0.26227664583333876
        },
        {
          "name": "B3",
          "midi": 59,
          "time": 159.9106290000002,
          "velocity": 0.4251968503937008,
          "duration": 0.25669629166665686
        },
        {
          "name": "G3",
          "midi": 55,
          "time": 160.1729056458335,
          "velocity": 0.4330708661417323,
          "duration": 0.26227664583333876
        },
        {
          "name": "B3",
          "midi": 59,
          "time": 160.4407626458335,
          "velocity": 0.44881889763779526,
          "duration": 0.26227664583333876
        },
        {
          "name": "G3",
          "midi": 55,
          "time": 160.7086196458335,
          "velocity": 0.48031496062992124,
          "duration": 0.25669629166665686
        },
        {
          "name": "B3",
          "midi": 59,
          "time": 160.9764766458335,
          "velocity": 0.4645669291338583,
          "duration": 0.26227664583333876
        },
        {
          "name": "G3",
          "midi": 55,
          "time": 161.24991400000016,
          "velocity": 0.4330708661417323,
          "duration": 0.25669629166665686
        },
        {
          "name": "B3",
          "midi": 59,
          "time": 161.51219064583347,
          "velocity": 0.44881889763779526,
          "duration": 0.26227664583333876
        },
        {
          "name": "G3",
          "midi": 55,
          "time": 161.78562800000014,
          "velocity": 0.4251968503937008,
          "duration": 0.25669629166665686
        },
        {
          "name": "B3",
          "midi": 59,
          "time": 162.04790464583346,
          "velocity": 0.41732283464566927,
          "duration": 0.25669629166665686
        },
        {
          "name": "G3",
          "midi": 55,
          "time": 162.3213420000001,
          "velocity": 0.3937007874015748,
          "duration": 0.26227664583333876
        },
        {
          "name": "B3",
          "midi": 59,
          "time": 162.58361864583344,
          "velocity": 0.36220472440944884,
          "duration": 0.25669629166665686
        },
        {
          "name": "G3",
          "midi": 55,
          "time": 162.85147564583343,
          "velocity": 0.5590551181102362,
          "duration": 0.25669629166665686
        },
        {
          "name": "B3",
          "midi": 59,
          "time": 163.11933264583342,
          "velocity": 0.5511811023622047,
          "duration": 0.26227664583333876
        },
        {
          "name": "G3",
          "midi": 55,
          "time": 163.38718964583342,
          "velocity": 0.5826771653543307,
          "duration": 0.26227664583333876
        },
        {
          "name": "B3",
          "midi": 59,
          "time": 163.6606270000001,
          "velocity": 0.5905511811023622,
          "duration": 0.25669629166665686
        },
        {
          "name": "G3",
          "midi": 55,
          "time": 163.9229036458334,
          "velocity": 0.6220472440944882,
          "duration": 0.26227664583333876
        },
        {
          "name": "B3",
          "midi": 59,
          "time": 164.19634100000007,
          "velocity": 0.6299212598425197,
          "duration": 0.25669629166665686
        },
        {
          "name": "G3",
          "midi": 55,
          "time": 164.46419800000007,
          "velocity": 0.6535433070866141,
          "duration": 0.26227664583333876
        },
        {
          "name": "B3",
          "midi": 59,
          "time": 164.73205500000006,
          "velocity": 0.6692913385826772,
          "duration": 0.26227664583333876
        },
        {
          "name": "G3",
          "midi": 55,
          "time": 164.99991200000005,
          "velocity": 0.5433070866141733,
          "duration": 0.26227664583333876
        },
        {
          "name": "B3",
          "midi": 59,
          "time": 165.26776900000004,
          "velocity": 0.5511811023622047,
          "duration": 0.26227664583333876
        },
        {
          "name": "G3",
          "midi": 55,
          "time": 165.53562600000004,
          "velocity": 0.5905511811023622,
          "duration": 0.26227664583333876
        },
        {
          "name": "B3",
          "midi": 59,
          "time": 165.79790264583337,
          "velocity": 0.5905511811023622,
          "duration": 0.26227664583333876
        },
        {
          "name": "G3",
          "midi": 55,
          "time": 166.06575964583337,
          "velocity": 0.6299212598425197,
          "duration": 0.26227664583333876
        },
        {
          "name": "B3",
          "midi": 59,
          "time": 166.33919700000004,
          "velocity": 0.6535433070866141,
          "duration": 0.26227664583333876
        },
        {
          "name": "G3",
          "midi": 55,
          "time": 166.60147364583338,
          "velocity": 0.6692913385826772,
          "duration": 0.26227664583333876
        },
        {
          "name": "B3",
          "midi": 59,
          "time": 166.86933064583337,
          "velocity": 0.6850393700787402,
          "duration": 0.26227664583333876
        },
        {
          "name": "G3",
          "midi": 55,
          "time": 167.13718764583336,
          "velocity": 0.6220472440944882,
          "duration": 0.26227664583333876
        },
        {
          "name": "B3",
          "midi": 59,
          "time": 167.41062500000004,
          "velocity": 0.5984251968503937,
          "duration": 0.26227664583333876
        },
        {
          "name": "G3",
          "midi": 55,
          "time": 167.67290164583338,
          "velocity": 0.6062992125984252,
          "duration": 0.25669629166665686
        },
        {
          "name": "B3",
          "midi": 59,
          "time": 167.94075864583337,
          "velocity": 0.5826771653543307,
          "duration": 0.26227664583333876
        },
        {
          "name": "G3",
          "midi": 55,
          "time": 168.20861564583336,
          "velocity": 0.5433070866141733,
          "duration": 0.26227664583333876
        },
        {
          "name": "B3",
          "midi": 59,
          "time": 168.47647264583335,
          "velocity": 0.5196850393700787,
          "duration": 0.26227664583333876
        },
        {
          "name": "G3",
          "midi": 55,
          "time": 168.74991000000003,
          "velocity": 0.5118110236220472,
          "duration": 0.26227664583333876
        },
        {
          "name": "B3",
          "midi": 59,
          "time": 169.01218664583337,
          "velocity": 0.49606299212598426,
          "duration": 0.26227664583333876
        },
        {
          "name": "G3",
          "midi": 55,
          "time": 169.28004364583336,
          "velocity": 0.30708661417322836,
          "duration": 0.25669629166665686
        },
        {
          "name": "A#3",
          "midi": 58,
          "time": 169.553481,
          "velocity": 0.3228346456692913,
          "duration": 0.26227664583333876
        },
        {
          "name": "G3",
          "midi": 55,
          "time": 169.821338,
          "velocity": 0.3700787401574803,
          "duration": 0.25669629166665686
        },
        {
          "name": "A#3",
          "midi": 58,
          "time": 170.0836146458333,
          "velocity": 0.3700787401574803,
          "duration": 0.25669629166665686
        },
        {
          "name": "G3",
          "midi": 55,
          "time": 170.35705199999995,
          "velocity": 0.4015748031496063,
          "duration": 0.25669629166665686
        },
        {
          "name": "A#3",
          "midi": 58,
          "time": 170.62490899999995,
          "velocity": 0.4094488188976378,
          "duration": 0.26227664583333876
        },
        {
          "name": "G3",
          "midi": 55,
          "time": 170.88718564583328,
          "velocity": 0.41732283464566927,
          "duration": 0.26227664583333876
        },
        {
          "name": "A#3",
          "midi": 58,
          "time": 171.16062299999996,
          "velocity": 0.4645669291338583,
          "duration": 0.25669629166665686
        },
        {
          "name": "G3",
          "midi": 55,
          "time": 171.42289964583327,
          "velocity": 0.4094488188976378,
          "duration": 0.25669629166665686
        },
        {
          "name": "B3",
          "midi": 59,
          "time": 171.69075664583326,
          "velocity": 0.4015748031496063,
          "duration": 0.25669629166665686
        },
        {
          "name": "G3",
          "midi": 55,
          "time": 171.9641939999999,
          "velocity": 0.4094488188976378,
          "duration": 0.25669629166665686
        },
        {
          "name": "B3",
          "midi": 59,
          "time": 172.22647064583322,
          "velocity": 0.4330708661417323,
          "duration": 0.26227664583333876
        },
        {
          "name": "G3",
          "midi": 55,
          "time": 172.4943276458332,
          "velocity": 0.4251968503937008,
          "duration": 0.26227664583333876
        },
        {
          "name": "B3",
          "midi": 59,
          "time": 172.76776499999988,
          "velocity": 0.44881889763779526,
          "duration": 0.26227664583333876
        },
        {
          "name": "G3",
          "midi": 55,
          "time": 173.03562199999988,
          "velocity": 0.44881889763779526,
          "duration": 0.25669629166665686
        },
        {
          "name": "B3",
          "midi": 59,
          "time": 173.2978986458332,
          "velocity": 0.4409448818897638,
          "duration": 0.26227664583333876
        },
        {
          "name": "G3",
          "midi": 55,
          "time": 173.56575564583318,
          "velocity": 0.48031496062992124,
          "duration": 0.25669629166665686
        },
        {
          "name": "B3",
          "midi": 59,
          "time": 173.83919299999982,
          "velocity": 0.4645669291338583,
          "duration": 0.26227664583333876
        },
        {
          "name": "G3",
          "midi": 55,
          "time": 174.10704999999982,
          "velocity": 0.44881889763779526,
          "duration": 0.25669629166665686
        },
        {
          "name": "B3",
          "midi": 59,
          "time": 174.36932664583313,
          "velocity": 0.4645669291338583,
          "duration": 0.25669629166665686
        },
        {
          "name": "G3",
          "midi": 55,
          "time": 174.64276399999977,
          "velocity": 0.4251968503937008,
          "duration": 0.25669629166665686
        },
        {
          "name": "B3",
          "midi": 59,
          "time": 174.91062099999976,
          "velocity": 0.4094488188976378,
          "duration": 0.25669629166665686
        },
        {
          "name": "G3",
          "midi": 55,
          "time": 175.17289764583307,
          "velocity": 0.4094488188976378,
          "duration": 0.26227664583333876
        },
        {
          "name": "B3",
          "midi": 59,
          "time": 175.44633499999975,
          "velocity": 0.4015748031496063,
          "duration": 0.25669629166665686
        },
        {
          "name": "G3",
          "midi": 55,
          "time": 175.71419199999974,
          "velocity": 0.3858267716535433,
          "duration": 0.26227664583333876
        },
        {
          "name": "B3",
          "midi": 59,
          "time": 175.97646864583308,
          "velocity": 0.3937007874015748,
          "duration": 0.26227664583333876
        },
        {
          "name": "G3",
          "midi": 55,
          "time": 176.24432564583307,
          "velocity": 0.4015748031496063,
          "duration": 0.25669629166665686
        },
        {
          "name": "B3",
          "midi": 59,
          "time": 176.51218264583306,
          "velocity": 0.4330708661417323,
          "duration": 0.26227664583333876
        },
        {
          "name": "G3",
          "midi": 55,
          "time": 176.78561999999974,
          "velocity": 0.4251968503937008,
          "duration": 0.25669629166665686
        },
        {
          "name": "B3",
          "midi": 59,
          "time": 177.05347699999973,
          "velocity": 0.4566929133858268,
          "duration": 0.25669629166665686
        },
        {
          "name": "G3",
          "midi": 55,
          "time": 177.31575364583304,
          "velocity": 0.4645669291338583,
          "duration": 0.25669629166665686
        },
        {
          "name": "B3",
          "midi": 59,
          "time": 177.5891909999997,
          "velocity": 0.4566929133858268,
          "duration": 0.25669629166665686
        },
        {
          "name": "G3",
          "midi": 55,
          "time": 177.851467645833,
          "velocity": 0.4566929133858268,
          "duration": 0.25669629166665686
        },
        {
          "name": "B3",
          "midi": 59,
          "time": 178.12490499999964,
          "velocity": 0.48031496062992124,
          "duration": 0.25669629166665686
        },
        {
          "name": "G3",
          "midi": 55,
          "time": 178.39276199999964,
          "velocity": 0.44881889763779526,
          "duration": 0.26227664583333876
        },
        {
          "name": "B3",
          "midi": 59,
          "time": 178.66061899999963,
          "velocity": 0.41732283464566927,
          "duration": 0.26227664583333876
        },
        {
          "name": "G3",
          "midi": 55,
          "time": 178.92289564583297,
          "velocity": 0.41732283464566927,
          "duration": 0.26227664583333876
        },
        {
          "name": "B3",
          "midi": 59,
          "time": 179.19075264583296,
          "velocity": 0.4094488188976378,
          "duration": 0.26227664583333876
        },
        {
          "name": "G3",
          "midi": 55,
          "time": 179.45860964583295,
          "velocity": 0.3779527559055118,
          "duration": 0.26227664583333876
        },
        {
          "name": "B3",
          "midi": 59,
          "time": 179.73204699999962,
          "velocity": 0.36220472440944884,
          "duration": 0.25669629166665686
        },
        {
          "name": "G3",
          "midi": 55,
          "time": 179.99432364583294,
          "velocity": 0.6929133858267716,
          "duration": 0.5189729374999956
        },
        {
          "name": "B3",
          "midi": 59,
          "time": 179.9999039999996,
          "velocity": 0.6929133858267716,
          "duration": 0.5189729374999956
        },
        {
          "name": "E3",
          "midi": 52,
          "time": 179.9999039999996,
          "velocity": 0.7244094488188977,
          "duration": 0.530133645833331
        },
        {
          "name": "B3",
          "midi": 59,
          "time": 180.53003764583292,
          "velocity": 0.7244094488188977,
          "duration": 1.5680795208333222
        },
        {
          "name": "G3",
          "midi": 55,
          "time": 180.53003764583292,
          "velocity": 0.7165354330708661,
          "duration": 1.6071419999999819
        },
        {
          "name": "E3",
          "midi": 52,
          "time": 180.53561799999957,
          "velocity": 0.7165354330708661,
          "duration": 1.5848205833333395
        },
        {
          "name": "D3",
          "midi": 50,
          "time": 182.1371796458329,
          "velocity": 0.7165354330708661,
          "duration": 0.5245532916666491
        },
        {
          "name": "B3",
          "midi": 59,
          "time": 182.14275999999956,
          "velocity": 0.7165354330708661,
          "duration": 0.5245532916666491
        },
        {
          "name": "G3",
          "midi": 55,
          "time": 182.14275999999956,
          "velocity": 0.6929133858267716,
          "duration": 0.5301336458333026
        },
        {
          "name": "B3",
          "midi": 59,
          "time": 182.67289364583286,
          "velocity": 0.7165354330708661,
          "duration": 1.6015616458333284
        },
        {
          "name": "D3",
          "midi": 50,
          "time": 182.67289364583286,
          "velocity": 0.6929133858267716,
          "duration": 1.6127223541666353
        },
        {
          "name": "G3",
          "midi": 55,
          "time": 182.6784739999995,
          "velocity": 0.7244094488188977,
          "duration": 1.5848205833333395
        },
        {
          "name": "C3",
          "midi": 48,
          "time": 184.28003564583284,
          "velocity": 0.7244094488188977,
          "duration": 0.5189729374999956
        },
        {
          "name": "B3",
          "midi": 59,
          "time": 184.2856159999995,
          "velocity": 0.7007874015748031,
          "duration": 0.5189729374999956
        },
        {
          "name": "G3",
          "midi": 55,
          "time": 184.2856159999995,
          "velocity": 0.7086614173228346,
          "duration": 0.5245532916666491
        },
        {
          "name": "B3",
          "midi": 59,
          "time": 184.8157496458328,
          "velocity": 0.6929133858267716,
          "duration": 1.584820583333311
        },
        {
          "name": "G3",
          "midi": 55,
          "time": 184.8157496458328,
          "velocity": 0.6850393700787402,
          "duration": 1.6294634166666242
        },
        {
          "name": "C3",
          "midi": 48,
          "time": 184.82132999999945,
          "velocity": 0.6850393700787402,
          "duration": 1.5680795208333222
        },
        {
          "name": "E3",
          "midi": 52,
          "time": 186.42289164583278,
          "velocity": 0.5905511811023622,
          "duration": 0.5245532916666491
        },
        {
          "name": "C3",
          "midi": 48,
          "time": 186.42289164583278,
          "velocity": 0.5748031496062992,
          "duration": 0.5301336458333026
        },
        {
          "name": "A#3",
          "midi": 58,
          "time": 186.42847199999943,
          "velocity": 0.5748031496062992,
          "duration": 0.5245532916666491
        },
        {
          "name": "E3",
          "midi": 52,
          "time": 186.95860564583273,
          "velocity": 0.5669291338582677,
          "duration": 3.175221520833304
        },
        {
          "name": "A#3",
          "midi": 58,
          "time": 186.9641859999994,
          "velocity": 0.5669291338582677,
          "duration": 3.2700875416666406
        },
        {
          "name": "C3",
          "midi": 48,
          "time": 186.9641859999994,
          "velocity": 0.5590551181102362,
          "duration": 3.1417393958333264
        },
        {
          "name": "G3",
          "midi": 55,
          "time": 190.70860364583268,
          "velocity": 0.4015748031496063,
          "duration": 0.26227664583333876
        },
        {
          "name": "B3",
          "midi": 59,
          "time": 190.98204099999936,
          "velocity": 0.4094488188976378,
          "duration": 0.26227664583333876
        },
        {
          "name": "G3",
          "midi": 55,
          "time": 191.2443176458327,
          "velocity": 0.4251968503937008,
          "duration": 0.26227664583333876
        },
        {
          "name": "B3",
          "midi": 59,
          "time": 191.5121746458327,
          "velocity": 0.41732283464566927,
          "duration": 0.25669629166665686
        },
        {
          "name": "G3",
          "midi": 55,
          "time": 191.78561199999933,
          "velocity": 0.44881889763779526,
          "duration": 0.25669629166665686
        },
        {
          "name": "B3",
          "midi": 59,
          "time": 192.04788864583264,
          "velocity": 0.4566929133858268,
          "duration": 0.25669629166665686
        },
        {
          "name": "G3",
          "midi": 55,
          "time": 192.31574564583264,
          "velocity": 0.4330708661417323,
          "duration": 0.25669629166665686
        },
        {
          "name": "B3",
          "midi": 59,
          "time": 192.58360264583263,
          "velocity": 0.4566929133858268,
          "duration": 0.26227664583333876
        },
        {
          "name": "G3",
          "midi": 55,
          "time": 192.8570399999993,
          "velocity": 0.4881889763779528,
          "duration": 0.26227664583333876
        },
        {
          "name": "B3",
          "midi": 59,
          "time": 193.1248969999993,
          "velocity": 0.4566929133858268,
          "duration": 0.26227664583333876
        },
        {
          "name": "G3",
          "midi": 55,
          "time": 193.3927539999993,
          "velocity": 0.44881889763779526,
          "duration": 0.25669629166665686
        },
        {
          "name": "B3",
          "midi": 59,
          "time": 193.6550306458326,
          "velocity": 0.4566929133858268,
          "duration": 0.25669629166665686
        },
        {
          "name": "G3",
          "midi": 55,
          "time": 193.92846799999924,
          "velocity": 0.4251968503937008,
          "duration": 0.25669629166665686
        },
        {
          "name": "B3",
          "midi": 59,
          "time": 194.19074464583255,
          "velocity": 0.41732283464566927,
          "duration": 0.26227664583333876
        },
        {
          "name": "G3",
          "midi": 55,
          "time": 194.46418199999923,
          "velocity": 0.4330708661417323,
          "duration": 0.26227664583333876
        },
        {
          "name": "B3",
          "midi": 59,
          "time": 194.73203899999922,
          "velocity": 0.3937007874015748,
          "duration": 0.26227664583333876
        },
        {
          "name": "G3",
          "midi": 55,
          "time": 194.9998959999992,
          "velocity": 0.4094488188976378,
          "duration": 0.26227664583333876
        },
        {
          "name": "B3",
          "midi": 59,
          "time": 195.26217264583255,
          "velocity": 0.41732283464566927,
          "duration": 0.26227664583333876
        },
        {
          "name": "G3",
          "midi": 55,
          "time": 195.53560999999922,
          "velocity": 0.41732283464566927,
          "duration": 0.26227664583333876
        },
        {
          "name": "B3",
          "midi": 59,
          "time": 195.79788664583256,
          "velocity": 0.4094488188976378,
          "duration": 0.25669629166665686
        },
        {
          "name": "G3",
          "midi": 55,
          "time": 196.06574364583255,
          "velocity": 0.4251968503937008,
          "duration": 0.25669629166665686
        },
        {
          "name": "B3",
          "midi": 59,
          "time": 196.3391809999992,
          "velocity": 0.44881889763779526,
          "duration": 0.26227664583333876
        },
        {
          "name": "G3",
          "midi": 55,
          "time": 196.60145764583254,
          "velocity": 0.4330708661417323,
          "duration": 0.25669629166665686
        },
        {
          "name": "B3",
          "midi": 59,
          "time": 196.86931464583253,
          "velocity": 0.47244094488188976,
          "duration": 0.26227664583333876
        },
        {
          "name": "G3",
          "midi": 55,
          "time": 197.13717164583252,
          "velocity": 0.4566929133858268,
          "duration": 0.26227664583333876
        },
        {
          "name": "B3",
          "midi": 59,
          "time": 197.40502864583252,
          "velocity": 0.48031496062992124,
          "duration": 0.26227664583333876
        },
        {
          "name": "G3",
          "midi": 55,
          "time": 197.6784659999992,
          "velocity": 0.4645669291338583,
          "duration": 0.26227664583333876
        },
        {
          "name": "B3",
          "midi": 59,
          "time": 197.94632299999918,
          "velocity": 0.4409448818897638,
          "duration": 0.25669629166665686
        },
        {
          "name": "G3",
          "midi": 55,
          "time": 198.21417999999917,
          "velocity": 0.4330708661417323,
          "duration": 0.26227664583333876
        },
        {
          "name": "B3",
          "midi": 59,
          "time": 198.48203699999917,
          "velocity": 0.41732283464566927,
          "duration": 0.26227664583333876
        },
        {
          "name": "G3",
          "midi": 55,
          "time": 198.7443136458325,
          "velocity": 0.3937007874015748,
          "duration": 0.26227664583333876
        },
        {
          "name": "B3",
          "midi": 59,
          "time": 199.01775099999918,
          "velocity": 0.3779527559055118,
          "duration": 0.25669629166665686
        },
        {
          "name": "B3",
          "midi": 59,
          "time": 199.2800276458325,
          "velocity": 0.6929133858267716,
          "duration": 0.5357139999999845
        },
        {
          "name": "G3",
          "midi": 55,
          "time": 199.2800276458325,
          "velocity": 0.7086614173228346,
          "duration": 0.530133645833331
        },
        {
          "name": "E3",
          "midi": 52,
          "time": 199.2800276458325,
          "velocity": 0.6929133858267716,
          "duration": 0.530133645833331
        },
        {
          "name": "G3",
          "midi": 55,
          "time": 199.81574164583247,
          "velocity": 0.7007874015748031,
          "duration": 1.6015616458333
        },
        {
          "name": "E3",
          "midi": 52,
          "time": 199.81574164583247,
          "velocity": 0.7007874015748031,
          "duration": 1.584820583333311
        },
        {
          "name": "B3",
          "midi": 59,
          "time": 199.82132199999913,
          "velocity": 0.7007874015748031,
          "duration": 1.584820583333311
        },
        {
          "name": "B3",
          "midi": 59,
          "time": 201.42288364583243,
          "velocity": 0.6929133858267716,
          "duration": 0.5245532916666491
        },
        {
          "name": "G3",
          "midi": 55,
          "time": 201.42288364583243,
          "velocity": 0.7086614173228346,
          "duration": 0.5189729374999956
        },
        {
          "name": "D3",
          "midi": 50,
          "time": 201.42288364583243,
          "velocity": 0.7007874015748031,
          "duration": 0.5189729374999956
        },
        {
          "name": "B3",
          "midi": 59,
          "time": 201.9585976458324,
          "velocity": 0.7244094488188977,
          "duration": 1.6015616458333284
        },
        {
          "name": "D3",
          "midi": 50,
          "time": 201.9585976458324,
          "velocity": 0.7165354330708661,
          "duration": 1.6294634166666242
        },
        {
          "name": "G3",
          "midi": 55,
          "time": 201.96417799999907,
          "velocity": 0.7165354330708661,
          "duration": 1.6015616458333284
        },
        {
          "name": "B3",
          "midi": 59,
          "time": 203.5657396458324,
          "velocity": 0.7244094488188977,
          "duration": 0.5245532916666491
        },
        {
          "name": "C3",
          "midi": 48,
          "time": 203.5657396458324,
          "velocity": 0.7086614173228346,
          "duration": 0.5301336458333026
        },
        {
          "name": "G3",
          "midi": 55,
          "time": 203.57131999999905,
          "velocity": 0.7007874015748031,
          "duration": 0.5189729374999956
        },
        {
          "name": "B3",
          "midi": 59,
          "time": 204.10145364583235,
          "velocity": 0.6850393700787402,
          "duration": 1.6127223541666353
        },
        {
          "name": "G3",
          "midi": 55,
          "time": 204.107033999999,
          "velocity": 0.6614173228346457,
          "duration": 1.6015616458333284
        },
        {
          "name": "C3",
          "midi": 48,
          "time": 204.107033999999,
          "velocity": 0.6850393700787402,
          "duration": 1.595981291666675
        },
        {
          "name": "E3",
          "midi": 52,
          "time": 205.70859564583233,
          "velocity": 0.5826771653543307,
          "duration": 0.5301336458333026
        },
        {
          "name": "C3",
          "midi": 48,
          "time": 205.70859564583233,
          "velocity": 0.5984251968503937,
          "duration": 0.5245532916666491
        },
        {
          "name": "A#3",
          "midi": 58,
          "time": 205.714175999999,
          "velocity": 0.5748031496062992,
          "duration": 0.5301336458333026
        },
        {
          "name": "E3",
          "midi": 52,
          "time": 206.2443096458323,
          "velocity": 0.5354330708661418,
          "duration": 3.1417393958333264
        },
        {
          "name": "C3",
          "midi": 48,
          "time": 206.2443096458323,
          "velocity": 0.5433070866141733,
          "duration": 3.1417393958333264
        },
        {
          "name": "A#3",
          "midi": 58,
          "time": 206.24988999999894,
          "velocity": 0.5590551181102362,
          "duration": 3.270087541666669
        },
        {
          "name": "G3",
          "midi": 55,
          "time": 209.99988799999895,
          "velocity": 0.4094488188976378,
          "duration": 0.26227664583333876
        },
        {
          "name": "B3",
          "midi": 59,
          "time": 210.26774499999894,
          "velocity": 0.4094488188976378,
          "duration": 0.25669629166665686
        },
        {
          "name": "G3",
          "midi": 55,
          "time": 210.53002164583225,
          "velocity": 0.4251968503937008,
          "duration": 0.25669629166665686
        },
        {
          "name": "B3",
          "midi": 59,
          "time": 210.79787864583224,
          "velocity": 0.41732283464566927,
          "duration": 0.25669629166665686
        },
        {
          "name": "G3",
          "midi": 55,
          "time": 211.0713159999989,
          "velocity": 0.4409448818897638,
          "duration": 0.25669629166665686
        },
        {
          "name": "B3",
          "midi": 59,
          "time": 211.3335926458322,
          "velocity": 0.44881889763779526,
          "duration": 0.26227664583333876
        },
        {
          "name": "G3",
          "midi": 55,
          "time": 211.60702999999887,
          "velocity": 0.4645669291338583,
          "duration": 0.26227664583333876
        },
        {
          "name": "B3",
          "midi": 59,
          "time": 211.8693066458322,
          "velocity": 0.47244094488188976,
          "duration": 0.26227664583333876
        },
        {
          "name": "G3",
          "midi": 55,
          "time": 212.1371636458322,
          "velocity": 0.48031496062992124,
          "duration": 0.26227664583333876
        },
        {
          "name": "B3",
          "midi": 59,
          "time": 212.41060099999888,
          "velocity": 0.48031496062992124,
          "duration": 0.26227664583333876
        },
        {
          "name": "G3",
          "midi": 55,
          "time": 212.67287764583222,
          "velocity": 0.4566929133858268,
          "duration": 0.25669629166665686
        },
        {
          "name": "B3",
          "midi": 59,
          "time": 212.9407346458322,
          "velocity": 0.4409448818897638,
          "duration": 0.26227664583333876
        },
        {
          "name": "G3",
          "midi": 55,
          "time": 213.2085916458322,
          "velocity": 0.44881889763779526,
          "duration": 0.26227664583333876
        },
        {
          "name": "B3",
          "midi": 59,
          "time": 213.4764486458322,
          "velocity": 0.4330708661417323,
          "duration": 0.25669629166665686
        },
        {
          "name": "G3",
          "midi": 55,
          "time": 213.74988599999884,
          "velocity": 0.41732283464566927,
          "duration": 0.26227664583333876
        },
        {
          "name": "B3",
          "midi": 59,
          "time": 214.01216264583218,
          "velocity": 0.4251968503937008,
          "duration": 0.26227664583333876
        },
        {
          "name": "G3",
          "midi": 55,
          "time": 214.28559999999885,
          "velocity": 0.3858267716535433,
          "duration": 0.25669629166665686
        },
        {
          "name": "B3",
          "midi": 59,
          "time": 214.54787664583216,
          "velocity": 0.3858267716535433,
          "duration": 0.26227664583333876
        },
        {
          "name": "G3",
          "midi": 55,
          "time": 214.82131399999884,
          "velocity": 0.41732283464566927,
          "duration": 0.25669629166665686
        },
        {
          "name": "B3",
          "midi": 59,
          "time": 215.08917099999883,
          "velocity": 0.4330708661417323,
          "duration": 0.26227664583333876
        },
        {
          "name": "G3",
          "midi": 55,
          "time": 215.35144764583217,
          "velocity": 0.4409448818897638,
          "duration": 0.26227664583333876
        },
        {
          "name": "B3",
          "midi": 59,
          "time": 215.61930464583216,
          "velocity": 0.4251968503937008,
          "duration": 0.26227664583333876
        },
        {
          "name": "G3",
          "midi": 55,
          "time": 215.89274199999883,
          "velocity": 0.4566929133858268,
          "duration": 0.25669629166665686
        },
        {
          "name": "B3",
          "midi": 59,
          "time": 216.15501864583214,
          "velocity": 0.4409448818897638,
          "duration": 0.25669629166665686
        },
        {
          "name": "G3",
          "midi": 55,
          "time": 216.4284559999988,
          "velocity": 0.4645669291338583,
          "duration": 0.26227664583333876
        },
        {
          "name": "B3",
          "midi": 59,
          "time": 216.69631299999878,
          "velocity": 0.48031496062992124,
          "duration": 0.25669629166665686
        },
        {
          "name": "G3",
          "midi": 55,
          "time": 216.9585896458321,
          "velocity": 0.4645669291338583,
          "duration": 0.26227664583333876
        },
        {
          "name": "B3",
          "midi": 59,
          "time": 217.23202699999877,
          "velocity": 0.44881889763779526,
          "duration": 0.26227664583333876
        },
        {
          "name": "G3",
          "midi": 55,
          "time": 217.49988399999876,
          "velocity": 0.4094488188976378,
          "duration": 0.26227664583333876
        },
        {
          "name": "B3",
          "midi": 59,
          "time": 217.76774099999875,
          "velocity": 0.4094488188976378,
          "duration": 0.26227664583333876
        },
        {
          "name": "G3",
          "midi": 55,
          "time": 218.0300176458321,
          "velocity": 0.3937007874015748,
          "duration": 0.26227664583333876
        },
        {
          "name": "B3",
          "midi": 59,
          "time": 218.29787464583208,
          "velocity": 0.3543307086614173,
          "duration": 0.26227664583333876
        },
        {
          "name": "G3",
          "midi": 55,
          "time": 218.56573164583207,
          "velocity": 0.5590551181102362,
          "duration": 0.25669629166665686
        },
        {
          "name": "B3",
          "midi": 59,
          "time": 218.83358864583207,
          "velocity": 0.5669291338582677,
          "duration": 0.26227664583333876
        },
        {
          "name": "G3",
          "midi": 55,
          "time": 219.10144564583206,
          "velocity": 0.5984251968503937,
          "duration": 0.25669629166665686
        },
        {
          "name": "B3",
          "midi": 59,
          "time": 219.3748829999987,
          "velocity": 0.5905511811023622,
          "duration": 0.25669629166665686
        },
        {
          "name": "G3",
          "midi": 55,
          "time": 219.6427399999987,
          "velocity": 0.6141732283464567,
          "duration": 0.26227664583333876
        },
        {
          "name": "B3",
          "midi": 59,
          "time": 219.90501664583203,
          "velocity": 0.6456692913385826,
          "duration": 0.26227664583333876
        },
        {
          "name": "G3",
          "midi": 55,
          "time": 220.17287364583203,
          "velocity": 0.6771653543307087,
          "duration": 0.25669629166665686
        },
        {
          "name": "B3",
          "midi": 59,
          "time": 220.44631099999867,
          "velocity": 0.6929133858267716,
          "duration": 0.26227664583333876
        },
        {
          "name": "G3",
          "midi": 55,
          "time": 220.71416799999866,
          "velocity": 0.5354330708661418,
          "duration": 0.26227664583333876
        },
        {
          "name": "B3",
          "midi": 59,
          "time": 220.98202499999866,
          "velocity": 0.5748031496062992,
          "duration": 0.26227664583333876
        },
        {
          "name": "G3",
          "midi": 55,
          "time": 221.24988199999865,
          "velocity": 0.6062992125984252,
          "duration": 0.26227664583333876
        },
        {
          "name": "B3",
          "midi": 59,
          "time": 221.51773899999864,
          "velocity": 0.6062992125984252,
          "duration": 0.26227664583333876
        },
        {
          "name": "G3",
          "midi": 55,
          "time": 221.78001564583198,
          "velocity": 0.6141732283464567,
          "duration": 0.26227664583333876
        },
        {
          "name": "B3",
          "midi": 59,
          "time": 222.05345299999865,
          "velocity": 0.6299212598425197,
          "duration": 0.26227664583333876
        },
        {
          "name": "G3",
          "midi": 55,
          "time": 222.315729645832,
          "velocity": 0.6692913385826772,
          "duration": 0.25669629166665686
        },
        {
          "name": "B3",
          "midi": 59,
          "time": 222.58916699999864,
          "velocity": 0.6929133858267716,
          "duration": 0.26227664583333876
        },
        {
          "name": "G3",
          "midi": 55,
          "time": 222.85702399999863,
          "velocity": 0.6377952755905512,
          "duration": 0.26227664583333876
        },
        {
          "name": "B3",
          "midi": 59,
          "time": 223.11930064583197,
          "velocity": 0.5984251968503937,
          "duration": 0.26227664583333876
        },
        {
          "name": "G3",
          "midi": 55,
          "time": 223.39273799999864,
          "velocity": 0.5826771653543307,
          "duration": 0.26227664583333876
        },
        {
          "name": "B3",
          "midi": 59,
          "time": 223.65501464583198,
          "velocity": 0.5748031496062992,
          "duration": 0.25669629166665686
        },
        {
          "name": "G3",
          "midi": 55,
          "time": 223.92287164583198,
          "velocity": 0.5511811023622047,
          "duration": 0.25669629166665686
        },
        {
          "name": "B3",
          "midi": 59,
          "time": 224.19072864583197,
          "velocity": 0.5354330708661418,
          "duration": 0.26227664583333876
        },
        {
          "name": "G3",
          "midi": 55,
          "time": 224.45858564583196,
          "velocity": 0.5118110236220472,
          "duration": 0.25669629166665686
        },
        {
          "name": "B3",
          "midi": 59,
          "time": 224.72644264583195,
          "velocity": 0.5039370078740157,
          "duration": 0.26227664583333876
        },
        {
          "name": "G3",
          "midi": 55,
          "time": 224.99987999999863,
          "velocity": 0.33070866141732286,
          "duration": 0.25669629166665686
        },
        {
          "name": "A#3",
          "midi": 58,
          "time": 225.26215664583194,
          "velocity": 0.33858267716535434,
          "duration": 0.25669629166665686
        },
        {
          "name": "G3",
          "midi": 55,
          "time": 225.53001364583193,
          "velocity": 0.3700787401574803,
          "duration": 0.25669629166665686
        },
        {
          "name": "A#3",
          "midi": 58,
          "time": 225.79787064583192,
          "velocity": 0.3543307086614173,
          "duration": 0.26227664583333876
        },
        {
          "name": "G3",
          "midi": 55,
          "time": 226.0713079999986,
          "velocity": 0.4094488188976378,
          "duration": 0.26227664583333876
        },
        {
          "name": "A#3",
          "midi": 58,
          "time": 226.3391649999986,
          "velocity": 0.4251968503937008,
          "duration": 0.26227664583333876
        },
        {
          "name": "G3",
          "midi": 55,
          "time": 226.60144164583193,
          "velocity": 0.4251968503937008,
          "duration": 0.26227664583333876
        },
        {
          "name": "A#3",
          "midi": 58,
          "time": 226.8748789999986,
          "velocity": 0.4330708661417323,
          "duration": 0.25669629166665686
        },
        {
          "name": "G3",
          "midi": 55,
          "time": 227.1371556458319,
          "velocity": 0.3937007874015748,
          "duration": 0.26227664583333876
        },
        {
          "name": "B3",
          "midi": 59,
          "time": 227.4050126458319,
          "velocity": 0.41732283464566927,
          "duration": 0.25669629166665686
        },
        {
          "name": "G3",
          "midi": 55,
          "time": 227.67844999999855,
          "velocity": 0.4094488188976378,
          "duration": 0.25669629166665686
        },
        {
          "name": "B3",
          "midi": 59,
          "time": 227.94630699999854,
          "velocity": 0.4094488188976378,
          "duration": 0.26227664583333876
        },
        {
          "name": "G3",
          "midi": 55,
          "time": 228.20858364583188,
          "velocity": 0.41732283464566927,
          "duration": 0.25669629166665686
        },
        {
          "name": "B3",
          "midi": 59,
          "time": 228.47644064583187,
          "velocity": 0.4409448818897638,
          "duration": 0.26227664583333876
        },
        {
          "name": "G3",
          "midi": 55,
          "time": 228.74987799999855,
          "velocity": 0.4566929133858268,
          "duration": 0.25669629166665686
        },
        {
          "name": "B3",
          "midi": 59,
          "time": 229.01773499999854,
          "velocity": 0.44881889763779526,
          "duration": 0.25669629166665686
        },
        {
          "name": "G3",
          "midi": 55,
          "time": 229.28559199999853,
          "velocity": 0.4881889763779528,
          "duration": 0.25669629166665686
        },
        {
          "name": "B3",
          "midi": 59,
          "time": 229.55344899999852,
          "velocity": 0.4566929133858268,
          "duration": 0.26227664583333876
        },
        {
          "name": "G3",
          "midi": 55,
          "time": 229.82130599999851,
          "velocity": 0.47244094488188976,
          "duration": 0.26227664583333876
        },
        {
          "name": "B3",
          "midi": 59,
          "time": 230.0891629999985,
          "velocity": 0.4645669291338583,
          "duration": 0.25669629166665686
        },
        {
          "name": "G3",
          "midi": 55,
          "time": 230.35143964583182,
          "velocity": 0.41732283464566927,
          "duration": 0.26227664583333876
        },
        {
          "name": "B3",
          "midi": 59,
          "time": 230.6192966458318,
          "velocity": 0.4330708661417323,
          "duration": 0.25669629166665686
        },
        {
          "name": "G3",
          "midi": 55,
          "time": 230.89273399999846,
          "velocity": 0.4330708661417323,
          "duration": 0.26227664583333876
        },
        {
          "name": "B3",
          "midi": 59,
          "time": 231.16059099999845,
          "velocity": 0.3937007874015748,
          "duration": 0.26227664583333876
        },
        {
          "name": "G3",
          "midi": 55,
          "time": 231.4228676458318,
          "velocity": 0.3779527559055118,
          "duration": 0.26227664583333876
        },
        {
          "name": "B3",
          "midi": 59,
          "time": 231.69072464583178,
          "velocity": 0.41732283464566927,
          "duration": 0.26227664583333876
        },
        {
          "name": "G3",
          "midi": 55,
          "time": 231.95858164583177,
          "velocity": 0.41732283464566927,
          "duration": 0.26227664583333876
        },
        {
          "name": "B3",
          "midi": 59,
          "time": 232.23201899999844,
          "velocity": 0.4251968503937008,
          "duration": 0.26227664583333876
        },
        {
          "name": "G3",
          "midi": 55,
          "time": 232.49429564583178,
          "velocity": 0.4251968503937008,
          "duration": 0.25669629166665686
        },
        {
          "name": "B3",
          "midi": 59,
          "time": 232.76773299999843,
          "velocity": 0.4251968503937008,
          "duration": 0.25669629166665686
        },
        {
          "name": "G3",
          "midi": 55,
          "time": 233.03558999999842,
          "velocity": 0.4566929133858268,
          "duration": 0.25669629166665686
        },
        {
          "name": "B3",
          "midi": 59,
          "time": 233.3034469999984,
          "velocity": 0.4645669291338583,
          "duration": 0.25669629166665686
        },
        {
          "name": "G3",
          "midi": 55,
          "time": 233.56572364583172,
          "velocity": 0.4881889763779528,
          "duration": 0.25669629166665686
        },
        {
          "name": "B3",
          "midi": 59,
          "time": 233.83358064583172,
          "velocity": 0.44881889763779526,
          "duration": 0.26227664583333876
        },
        {
          "name": "G3",
          "midi": 55,
          "time": 234.1014376458317,
          "velocity": 0.44881889763779526,
          "duration": 0.26227664583333876
        },
        {
          "name": "B3",
          "midi": 59,
          "time": 234.3692946458317,
          "velocity": 0.41732283464566927,
          "duration": 0.26227664583333876
        },
        {
          "name": "G3",
          "midi": 55,
          "time": 234.6371516458317,
          "velocity": 0.4094488188976378,
          "duration": 0.26227664583333876
        },
        {
          "name": "B3",
          "midi": 59,
          "time": 234.91058899999837,
          "velocity": 0.3937007874015748,
          "duration": 0.26227664583333876
        },
        {
          "name": "G3",
          "midi": 55,
          "time": 235.1728656458317,
          "velocity": 0.3700787401574803,
          "duration": 0.26227664583333876
        },
        {
          "name": "B3",
          "midi": 59,
          "time": 235.4407226458317,
          "velocity": 0.3543307086614173,
          "duration": 0.26227664583333876
        },
        {
          "name": "G3",
          "midi": 55,
          "time": 235.7085796458317,
          "velocity": 0.5433070866141733,
          "duration": 0.26227664583333876
        },
        {
          "name": "B3",
          "midi": 59,
          "time": 235.98201699999836,
          "velocity": 0.5511811023622047,
          "duration": 0.25669629166665686
        },
        {
          "name": "G3",
          "midi": 55,
          "time": 236.24987399999836,
          "velocity": 0.6062992125984252,
          "duration": 0.26227664583333876
        },
        {
          "name": "B3",
          "midi": 59,
          "time": 236.51773099999835,
          "velocity": 0.6062992125984252,
          "duration": 0.26227664583333876
        },
        {
          "name": "G3",
          "midi": 55,
          "time": 236.78558799999834,
          "velocity": 0.6377952755905512,
          "duration": 0.26227664583333876
        },
        {
          "name": "B3",
          "midi": 59,
          "time": 237.05344499999833,
          "velocity": 0.6614173228346457,
          "duration": 0.25669629166665686
        },
        {
          "name": "G3",
          "midi": 55,
          "time": 237.31572164583164,
          "velocity": 0.6535433070866141,
          "duration": 0.26227664583333876
        },
        {
          "name": "B3",
          "midi": 59,
          "time": 237.58915899999832,
          "velocity": 0.6692913385826772,
          "duration": 0.26227664583333876
        },
        {
          "name": "G3",
          "midi": 55,
          "time": 237.85143564583166,
          "velocity": 0.5669291338582677,
          "duration": 0.26227664583333876
        },
        {
          "name": "B3",
          "midi": 59,
          "time": 238.11929264583165,
          "velocity": 0.5590551181102362,
          "duration": 0.25669629166665686
        },
        {
          "name": "G3",
          "midi": 55,
          "time": 238.3927299999983,
          "velocity": 0.5826771653543307,
          "duration": 0.25669629166665686
        },
        {
          "name": "B3",
          "midi": 59,
          "time": 238.6605869999983,
          "velocity": 0.6220472440944882,
          "duration": 0.26227664583333876
        },
        {
          "name": "G3",
          "midi": 55,
          "time": 238.92844399999828,
          "velocity": 0.6141732283464567,
          "duration": 0.25669629166665686
        },
        {
          "name": "B3",
          "midi": 59,
          "time": 239.1907206458316,
          "velocity": 0.6535433070866141,
          "duration": 0.25669629166665686
        },
        {
          "name": "G3",
          "midi": 55,
          "time": 239.45857764583158,
          "velocity": 0.6850393700787402,
          "duration": 0.26227664583333876
        },
        {
          "name": "B3",
          "midi": 59,
          "time": 239.73201499999826,
          "velocity": 0.7007874015748031,
          "duration": 0.25669629166665686
        },
        {
          "name": "G3",
          "midi": 55,
          "time": 239.99429164583157,
          "velocity": 0.6299212598425197,
          "duration": 0.26227664583333876
        },
        {
          "name": "B3",
          "midi": 59,
          "time": 240.26772899999824,
          "velocity": 0.6299212598425197,
          "duration": 0.26227664583333876
        },
        {
          "name": "G3",
          "midi": 55,
          "time": 240.53000564583158,
          "velocity": 0.5905511811023622,
          "duration": 0.25669629166665686
        },
        {
          "name": "B3",
          "midi": 59,
          "time": 240.80344299999823,
          "velocity": 0.5905511811023622,
          "duration": 0.25669629166665686
        },
        {
          "name": "G3",
          "midi": 55,
          "time": 241.07129999999822,
          "velocity": 0.5511811023622047,
          "duration": 0.25669629166665686
        },
        {
          "name": "B3",
          "midi": 59,
          "time": 241.33357664583153,
          "velocity": 0.5275590551181102,
          "duration": 0.26227664583333876
        },
        {
          "name": "G3",
          "midi": 55,
          "time": 241.6070139999982,
          "velocity": 0.5039370078740157,
          "duration": 0.25669629166665686
        },
        {
          "name": "B3",
          "midi": 59,
          "time": 241.8748709999982,
          "velocity": 0.49606299212598426,
          "duration": 0.25669629166665686
        },
        {
          "name": "G3",
          "midi": 55,
          "time": 242.1427279999982,
          "velocity": 0.31496062992125984,
          "duration": 0.26227664583333876
        },
        {
          "name": "A#3",
          "midi": 58,
          "time": 242.41058499999818,
          "velocity": 0.31496062992125984,
          "duration": 0.25669629166665686
        },
        {
          "name": "G3",
          "midi": 55,
          "time": 242.67844199999817,
          "velocity": 0.3700787401574803,
          "duration": 0.26227664583333876
        },
        {
          "name": "A#3",
          "midi": 58,
          "time": 242.9407186458315,
          "velocity": 0.3858267716535433,
          "duration": 0.26227664583333876
        },
        {
          "name": "G3",
          "midi": 55,
          "time": 243.2085756458315,
          "velocity": 0.3779527559055118,
          "duration": 0.26227664583333876
        },
        {
          "name": "A#3",
          "midi": 58,
          "time": 243.4764326458315,
          "velocity": 0.4094488188976378,
          "duration": 0.26227664583333876
        },
        {
          "name": "G3",
          "midi": 55,
          "time": 243.74986999999817,
          "velocity": 0.4409448818897638,
          "duration": 0.26227664583333876
        },
        {
          "name": "A#3",
          "midi": 58,
          "time": 244.0121466458315,
          "velocity": 0.4645669291338583,
          "duration": 0.25669629166665686
        },
        {
          "name": "G3",
          "midi": 55,
          "time": 244.28558399999815,
          "velocity": 0.4015748031496063,
          "duration": 0.26227664583333876
        },
        {
          "name": "B3",
          "midi": 59,
          "time": 244.5478606458315,
          "velocity": 0.3937007874015748,
          "duration": 0.26227664583333876
        },
        {
          "name": "G3",
          "midi": 55,
          "time": 244.82129799999817,
          "velocity": 0.4094488188976378,
          "duration": 0.25669629166665686
        },
        {
          "name": "B3",
          "midi": 59,
          "time": 245.08915499999816,
          "velocity": 0.4251968503937008,
          "duration": 0.25669629166665686
        },
        {
          "name": "G3",
          "midi": 55,
          "time": 245.35701199999815,
          "velocity": 0.41732283464566927,
          "duration": 0.26227664583333876
        },
        {
          "name": "B3",
          "midi": 59,
          "time": 245.62486899999814,
          "velocity": 0.4566929133858268,
          "duration": 0.26227664583333876
        },
        {
          "name": "G3",
          "midi": 55,
          "time": 245.88714564583148,
          "velocity": 0.4330708661417323,
          "duration": 0.26227664583333876
        },
        {
          "name": "B3",
          "midi": 59,
          "time": 246.15500264583147,
          "velocity": 0.4566929133858268,
          "duration": 0.26227664583333876
        },
        {
          "name": "G3",
          "midi": 55,
          "time": 246.42843999999815,
          "velocity": 0.4645669291338583,
          "duration": 0.26227664583333876
        },
        {
          "name": "B3",
          "midi": 59,
          "time": 246.69629699999814,
          "velocity": 0.47244094488188976,
          "duration": 0.26227664583333876
        },
        {
          "name": "G3",
          "midi": 55,
          "time": 246.96415399999813,
          "velocity": 0.4645669291338583,
          "duration": 0.26227664583333876
        },
        {
          "name": "B3",
          "midi": 59,
          "time": 247.23201099999812,
          "velocity": 0.4409448818897638,
          "duration": 0.26227664583333876
        },
        {
          "name": "G3",
          "midi": 55,
          "time": 247.49428764583146,
          "velocity": 0.4409448818897638,
          "duration": 0.25669629166665686
        },
        {
          "name": "B3",
          "midi": 59,
          "time": 247.76214464583146,
          "velocity": 0.41732283464566927,
          "duration": 0.26227664583333876
        },
        {
          "name": "G3",
          "midi": 55,
          "time": 248.03558199999813,
          "velocity": 0.4015748031496063,
          "duration": 0.26227664583333876
        },
        {
          "name": "B3",
          "midi": 59,
          "time": 248.29785864583147,
          "velocity": 0.4251968503937008,
          "duration": 0.25669629166665686
        },
        {
          "name": "G3",
          "midi": 55,
          "time": 248.56571564583146,
          "velocity": 0.3858267716535433,
          "duration": 0.25669629166665686
        },
        {
          "name": "B3",
          "midi": 59,
          "time": 248.83357264583145,
          "velocity": 0.3858267716535433,
          "duration": 0.26227664583333876
        },
        {
          "name": "G3",
          "midi": 55,
          "time": 249.10142964583144,
          "velocity": 0.4094488188976378,
          "duration": 0.26227664583333876
        },
        {
          "name": "B3",
          "midi": 59,
          "time": 249.37486699999812,
          "velocity": 0.4015748031496063,
          "duration": 0.26227664583333876
        },
        {
          "name": "G3",
          "midi": 55,
          "time": 249.63714364583146,
          "velocity": 0.4251968503937008,
          "duration": 0.26227664583333876
        },
        {
          "name": "B3",
          "midi": 59,
          "time": 249.91058099999813,
          "velocity": 0.4251968503937008,
          "duration": 0.25669629166665686
        },
        {
          "name": "G3",
          "midi": 55,
          "time": 250.17285764583144,
          "velocity": 0.4409448818897638,
          "duration": 0.25669629166665686
        },
        {
          "name": "B3",
          "midi": 59,
          "time": 250.4462949999981,
          "velocity": 0.44881889763779526,
          "duration": 0.25669629166665686
        },
        {
          "name": "G3",
          "midi": 55,
          "time": 250.7085716458314,
          "velocity": 0.4566929133858268,
          "duration": 0.26227664583333876
        },
        {
          "name": "B3",
          "midi": 59,
          "time": 250.98200899999807,
          "velocity": 0.48031496062992124,
          "duration": 0.26227664583333876
        },
        {
          "name": "G3",
          "midi": 55,
          "time": 251.2442856458314,
          "velocity": 0.4330708661417323,
          "duration": 0.26227664583333876
        },
        {
          "name": "B3",
          "midi": 59,
          "time": 251.5121426458314,
          "velocity": 0.44881889763779526,
          "duration": 0.26227664583333876
        },
        {
          "name": "G3",
          "midi": 55,
          "time": 251.78557999999808,
          "velocity": 0.41732283464566927,
          "duration": 0.26227664583333876
        },
        {
          "name": "B3",
          "midi": 59,
          "time": 252.04785664583142,
          "velocity": 0.3937007874015748,
          "duration": 0.26227664583333876
        },
        {
          "name": "G3",
          "midi": 55,
          "time": 252.3157136458314,
          "velocity": 0.3700787401574803,
          "duration": 0.26227664583333876
        },
        {
          "name": "B3",
          "midi": 59,
          "time": 252.5835706458314,
          "velocity": 0.3700787401574803,
          "duration": 0.26227664583333876
        },
        {
          "name": "G3",
          "midi": 55,
          "time": 252.85700799999807,
          "velocity": 0.5354330708661418,
          "duration": 0.26227664583333876
        },
        {
          "name": "B3",
          "midi": 59,
          "time": 253.1192846458314,
          "velocity": 0.5590551181102362,
          "duration": 0.26227664583333876
        },
        {
          "name": "G3",
          "midi": 55,
          "time": 253.3871416458314,
          "velocity": 0.6062992125984252,
          "duration": 0.25669629166665686
        },
        {
          "name": "B3",
          "midi": 59,
          "time": 253.66057899999805,
          "velocity": 0.5905511811023622,
          "duration": 0.26227664583333876
        },
        {
          "name": "G3",
          "midi": 55,
          "time": 253.92843599999804,
          "velocity": 0.6141732283464567,
          "duration": 0.25669629166665686
        },
        {
          "name": "B3",
          "midi": 59,
          "time": 254.19071264583135,
          "velocity": 0.6299212598425197,
          "duration": 0.25669629166665686
        },
        {
          "name": "G3",
          "midi": 55,
          "time": 254.45856964583135,
          "velocity": 0.6614173228346457,
          "duration": 0.26227664583333876
        },
        {
          "name": "B3",
          "midi": 59,
          "time": 254.72642664583134,
          "velocity": 0.6850393700787402,
          "duration": 0.26227664583333876
        },
        {
          "name": "G3",
          "midi": 55,
          "time": 254.99428364583133,
          "velocity": 0.5511811023622047,
          "duration": 0.26227664583333876
        },
        {
          "name": "B3",
          "midi": 59,
          "time": 255.26214064583132,
          "velocity": 0.5826771653543307,
          "duration": 0.25669629166665686
        },
        {
          "name": "G3",
          "midi": 55,
          "time": 255.53557799999797,
          "velocity": 0.6062992125984252,
          "duration": 0.26227664583333876
        },
        {
          "name": "B3",
          "midi": 59,
          "time": 255.7978546458313,
          "velocity": 0.6220472440944882,
          "duration": 0.26227664583331034
        },
        {
          "name": "G3",
          "midi": 55,
          "time": 256.0712919999979,
          "velocity": 0.6456692913385826,
          "duration": 0.26227664583331034
        },
        {
          "name": "B3",
          "midi": 59,
          "time": 256.3391489999979,
          "velocity": 0.6299212598425197,
          "duration": 0.2566962916666853
        },
        {
          "name": "G3",
          "midi": 55,
          "time": 256.6014256458313,
          "velocity": 0.6771653543307087,
          "duration": 0.2566962916666853
        },
        {
          "name": "B3",
          "midi": 59,
          "time": 256.8692826458313,
          "velocity": 0.6692913385826772,
          "duration": 0.26227664583331034
        },
        {
          "name": "G3",
          "midi": 55,
          "time": 257.1427199999979,
          "velocity": 0.6377952755905512,
          "duration": 0.2566962916666853
        },
        {
          "name": "B3",
          "midi": 59,
          "time": 257.40499664583126,
          "velocity": 0.5984251968503937,
          "duration": 0.26227664583331034
        },
        {
          "name": "G3",
          "midi": 55,
          "time": 257.67285364583125,
          "velocity": 0.5984251968503937,
          "duration": 0.26227664583331034
        },
        {
          "name": "B3",
          "midi": 59,
          "time": 257.94071064583125,
          "velocity": 0.5669291338582677,
          "duration": 0.26227664583331034
        },
        {
          "name": "G3",
          "midi": 55,
          "time": 258.20856764583124,
          "velocity": 0.5590551181102362,
          "duration": 0.26227664583331034
        },
        {
          "name": "B3",
          "midi": 59,
          "time": 258.47642464583123,
          "velocity": 0.5275590551181102,
          "duration": 0.26227664583331034
        },
        {
          "name": "G3",
          "midi": 55,
          "time": 258.74986199999785,
          "velocity": 0.5039370078740157,
          "duration": 0.2566962916666853
        },
        {
          "name": "B3",
          "midi": 59,
          "time": 259.01771899999784,
          "velocity": 0.49606299212598426,
          "duration": 0.26227664583331034
        },
        {
          "name": "G3",
          "midi": 55,
          "time": 259.28557599999783,
          "velocity": 0.33070866141732286,
          "duration": 0.2566962916666853
        },
        {
          "name": "A#3",
          "midi": 58,
          "time": 259.5478526458312,
          "velocity": 0.33858267716535434,
          "duration": 0.26227664583331034
        },
        {
          "name": "G3",
          "midi": 55,
          "time": 259.8157096458312,
          "velocity": 0.3543307086614173,
          "duration": 0.2566962916666853
        },
        {
          "name": "A#3",
          "midi": 58,
          "time": 260.0835666458312,
          "velocity": 0.3543307086614173,
          "duration": 0.26227664583331034
        },
        {
          "name": "G3",
          "midi": 55,
          "time": 260.3570039999978,
          "velocity": 0.3858267716535433,
          "duration": 0.26227664583331034
        },
        {
          "name": "A#3",
          "midi": 58,
          "time": 260.6192806458311,
          "velocity": 0.3937007874015748,
          "duration": 0.2566962916666853
        },
        {
          "name": "G3",
          "midi": 55,
          "time": 260.8871376458311,
          "velocity": 0.4330708661417323,
          "duration": 0.26227664583331034
        },
        {
          "name": "A#3",
          "midi": 58,
          "time": 261.1605749999977,
          "velocity": 0.4409448818897638,
          "duration": 0.26227664583331034
        },
        {
          "name": "G3",
          "midi": 55,
          "time": 261.42285164583103,
          "velocity": 0.4094488188976378,
          "duration": 0.26227664583331034
        },
        {
          "name": "B3",
          "midi": 59,
          "time": 261.69628899999765,
          "velocity": 0.3858267716535433,
          "duration": 0.26227664583331034
        },
        {
          "name": "G3",
          "midi": 55,
          "time": 261.95856564583096,
          "velocity": 0.3937007874015748,
          "duration": 0.26227664583331034
        },
        {
          "name": "B3",
          "midi": 59,
          "time": 262.22642264583095,
          "velocity": 0.4330708661417323,
          "duration": 0.26227664583331034
        },
        {
          "name": "G3",
          "midi": 55,
          "time": 262.49985999999757,
          "velocity": 0.4409448818897638,
          "duration": 0.26227664583331034
        },
        {
          "name": "B3",
          "midi": 59,
          "time": 262.76771699999756,
          "velocity": 0.44881889763779526,
          "duration": 0.2566962916666853
        },
        {
          "name": "G3",
          "midi": 55,
          "time": 263.03557399999755,
          "velocity": 0.4566929133858268,
          "duration": 0.26227664583331034
        },
        {
          "name": "B3",
          "midi": 59,
          "time": 263.30343099999754,
          "velocity": 0.4566929133858268,
          "duration": 0.2566962916666853
        },
        {
          "name": "G3",
          "midi": 55,
          "time": 263.5657076458309,
          "velocity": 0.4645669291338583,
          "duration": 0.26227664583331034
        },
        {
          "name": "B3",
          "midi": 59,
          "time": 263.8335646458309,
          "velocity": 0.47244094488188976,
          "duration": 0.26227664583331034
        },
        {
          "name": "G3",
          "midi": 55,
          "time": 264.1014216458309,
          "velocity": 0.44881889763779526,
          "duration": 0.2566962916666853
        },
        {
          "name": "B3",
          "midi": 59,
          "time": 264.3692786458309,
          "velocity": 0.4330708661417323,
          "duration": 0.26227664583331034
        },
        {
          "name": "G3",
          "midi": 55,
          "time": 264.6371356458309,
          "velocity": 0.44881889763779526,
          "duration": 0.2566962916666853
        },
        {
          "name": "B3",
          "midi": 59,
          "time": 264.91057299999756,
          "velocity": 0.4409448818897638,
          "duration": 0.26227664583331034
        },
        {
          "name": "G3",
          "midi": 55,
          "time": 265.17284964583087,
          "velocity": 0.4330708661417323,
          "duration": 0.2566962916666853
        },
        {
          "name": "B3",
          "midi": 59,
          "time": 265.44628699999754,
          "velocity": 0.3937007874015748,
          "duration": 0.2566962916666853
        },
        {
          "name": "G3",
          "midi": 55,
          "time": 265.7085636458309,
          "velocity": 0.3937007874015748,
          "duration": 0.26227664583331034
        },
        {
          "name": "B3",
          "midi": 59,
          "time": 265.9820009999975,
          "velocity": 0.3858267716535433,
          "duration": 0.26227664583331034
        },
        {
          "name": "G3",
          "midi": 55,
          "time": 266.24427764583083,
          "velocity": 0.3937007874015748,
          "duration": 0.26227664583331034
        },
        {
          "name": "B3",
          "midi": 59,
          "time": 266.5121346458308,
          "velocity": 0.41732283464566927,
          "duration": 0.26227664583331034
        },
        {
          "name": "G3",
          "midi": 55,
          "time": 266.78557199999744,
          "velocity": 0.4409448818897638,
          "duration": 0.26227664583331034
        },
        {
          "name": "B3",
          "midi": 59,
          "time": 267.04784864583075,
          "velocity": 0.4330708661417323,
          "duration": 0.26227664583331034
        },
        {
          "name": "G3",
          "midi": 55,
          "time": 267.3212859999974,
          "velocity": 0.4330708661417323,
          "duration": 0.2566962916666853
        },
        {
          "name": "B3",
          "midi": 59,
          "time": 267.58914299999736,
          "velocity": 0.4409448818897638,
          "duration": 0.2566962916666853
        },
        {
          "name": "G3",
          "midi": 55,
          "time": 267.85699999999736,
          "velocity": 0.4881889763779528,
          "duration": 0.26227664583331034
        },
        {
          "name": "B3",
          "midi": 59,
          "time": 268.11927664583067,
          "velocity": 0.48031496062992124,
          "duration": 0.2566962916666853
        },
        {
          "name": "G3",
          "midi": 55,
          "time": 268.38713364583066,
          "velocity": 0.4330708661417323,
          "duration": 0.2566962916666853
        },
        {
          "name": "B3",
          "midi": 59,
          "time": 268.66057099999733,
          "velocity": 0.4330708661417323,
          "duration": 0.2566962916666853
        },
        {
          "name": "G3",
          "midi": 55,
          "time": 268.9284279999973,
          "velocity": 0.4330708661417323,
          "duration": 0.26227664583331034
        },
        {
          "name": "B3",
          "midi": 59,
          "time": 269.19070464583064,
          "velocity": 0.41732283464566927,
          "duration": 0.26227664583331034
        },
        {
          "name": "G3",
          "midi": 55,
          "time": 269.46414199999725,
          "velocity": 0.3937007874015748,
          "duration": 0.26227664583331034
        },
        {
          "name": "B3",
          "midi": 59,
          "time": 269.73199899999724,
          "velocity": 0.36220472440944884,
          "duration": 0.2566962916666853
        },
        {
          "name": "B3",
          "midi": 59,
          "time": 269.9942756458306,
          "velocity": 0.6929133858267716,
          "duration": 0.5245532916666775
        },
        {
          "name": "G3",
          "midi": 55,
          "time": 269.9942756458306,
          "velocity": 0.7007874015748031,
          "duration": 0.5357139999999845
        },
        {
          "name": "E3",
          "midi": 52,
          "time": 269.9998559999973,
          "velocity": 0.6929133858267716,
          "duration": 0.5301336458333026
        },
        {
          "name": "B3",
          "midi": 59,
          "time": 270.5355699999973,
          "velocity": 0.7007874015748031,
          "duration": 1.6015616458333284
        },
        {
          "name": "G3",
          "midi": 55,
          "time": 270.5355699999973,
          "velocity": 0.7244094488188977,
          "duration": 1.5848205833333395
        },
        {
          "name": "E3",
          "midi": 52,
          "time": 270.5355699999973,
          "velocity": 0.7086614173228346,
          "duration": 1.6127223541666922
        },
        {
          "name": "B3",
          "midi": 59,
          "time": 272.1427119999973,
          "velocity": 0.7007874015748031,
          "duration": 0.5189729374999956
        },
        {
          "name": "G3",
          "midi": 55,
          "time": 272.1427119999973,
          "velocity": 0.7007874015748031,
          "duration": 0.5245532916666775
        },
        {
          "name": "D3",
          "midi": 50,
          "time": 272.1427119999973,
          "velocity": 0.6929133858267716,
          "duration": 0.5301336458333594
        },
        {
          "name": "B3",
          "midi": 59,
          "time": 272.67284564583065,
          "velocity": 0.7165354330708661,
          "duration": 1.6015616458333284
        },
        {
          "name": "G3",
          "midi": 55,
          "time": 272.67284564583065,
          "velocity": 0.6929133858267716,
          "duration": 1.6015616458333284
        },
        {
          "name": "D3",
          "midi": 50,
          "time": 272.67842599999733,
          "velocity": 0.7007874015748031,
          "duration": 1.6127223541666353
        },
        {
          "name": "B3",
          "midi": 59,
          "time": 274.27998764583066,
          "velocity": 0.6929133858267716,
          "duration": 0.5245532916666207
        },
        {
          "name": "G3",
          "midi": 55,
          "time": 274.27998764583066,
          "velocity": 0.7086614173228346,
          "duration": 0.5301336458333026
        },
        {
          "name": "C3",
          "midi": 48,
          "time": 274.27998764583066,
          "velocity": 0.7244094488188977,
          "duration": 0.5301336458333026
        },
        {
          "name": "C3",
          "midi": 48,
          "time": 274.81570164583064,
          "velocity": 0.7007874015748031,
          "duration": 1.6015616458333284
        },
        {
          "name": "B3",
          "midi": 59,
          "time": 274.8212819999973,
          "velocity": 0.6929133858267716,
          "duration": 1.5848205833333395
        },
        {
          "name": "G3",
          "midi": 55,
          "time": 274.8212819999973,
          "velocity": 0.7244094488188977,
          "duration": 1.5680795208333507
        },
        {
          "name": "A#3",
          "midi": 58,
          "time": 276.42284364583065,
          "velocity": 0.7007874015748031,
          "duration": 0.5301336458333594
        },
        {
          "name": "E3",
          "midi": 52,
          "time": 276.42284364583065,
          "velocity": 0.7244094488188977,
          "duration": 0.5245532916666775
        },
        {
          "name": "C3",
          "midi": 48,
          "time": 276.42284364583065,
          "velocity": 0.7244094488188977,
          "duration": 0.5189729374999956
        },
        {
          "name": "C3",
          "midi": 48,
          "time": 276.9585576458307,
          "velocity": 0.6614173228346457,
          "duration": 1.6015616458333284
        },
        {
          "name": "A#3",
          "midi": 58,
          "time": 276.9641379999974,
          "velocity": 0.6692913385826772,
          "duration": 1.5848205833333395
        },
        {
          "name": "E3",
          "midi": 52,
          "time": 276.9641379999974,
          "velocity": 0.6850393700787402,
          "duration": 1.6015616458333284
        },
        {
          "name": "C3",
          "midi": 48,
          "time": 278.5656996458307,
          "velocity": 0.5826771653543307,
          "duration": 0.5357140000000413
        },
        {
          "name": "A#3",
          "midi": 58,
          "time": 278.5712799999974,
          "velocity": 0.5748031496062992,
          "duration": 0.5245532916666775
        },
        {
          "name": "F#3",
          "midi": 54,
          "time": 278.5712799999974,
          "velocity": 0.5748031496062992,
          "duration": 0.5245532916666775
        },
        {
          "name": "A#3",
          "midi": 58,
          "time": 279.10141364583075,
          "velocity": 0.5354330708661418,
          "duration": 3.2087036458333387
        },
        {
          "name": "F#3",
          "midi": 54,
          "time": 279.10141364583075,
          "velocity": 0.5433070866141733,
          "duration": 3.270087541666669
        },
        {
          "name": "C3",
          "midi": 48,
          "time": 279.1069939999974,
          "velocity": 0.5590551181102362,
          "duration": 3.2087036458333387
        },
        {
          "name": "B3",
          "midi": 59,
          "time": 282.85141164583075,
          "velocity": 0.6220472440944882,
          "duration": 0.5301336458333594
        },
        {
          "name": "G3",
          "midi": 55,
          "time": 282.85141164583075,
          "velocity": 0.6456692913385826,
          "duration": 0.5245532916666775
        },
        {
          "name": "E3",
          "midi": 52,
          "time": 282.85699199999743,
          "velocity": 0.6220472440944882,
          "duration": 0.5301336458333594
        },
        {
          "name": "B3",
          "midi": 59,
          "time": 283.3871256458308,
          "velocity": 0.6220472440944882,
          "duration": 1.6071420000000103
        },
        {
          "name": "G3",
          "midi": 55,
          "time": 283.3871256458308,
          "velocity": 0.6456692913385826,
          "duration": 1.6015616458333284
        },
        {
          "name": "E3",
          "midi": 52,
          "time": 283.3927059999975,
          "velocity": 0.6220472440944882,
          "duration": 1.629463416666681
        },
        {
          "name": "G3",
          "midi": 55,
          "time": 284.9942676458308,
          "velocity": 0.6299212598425197,
          "duration": 0.5301336458333594
        },
        {
          "name": "B3",
          "midi": 59,
          "time": 284.9998479999975,
          "velocity": 0.6141732283464567,
          "duration": 0.5189729374999956
        },
        {
          "name": "D3",
          "midi": 50,
          "time": 284.9998479999975,
          "velocity": 0.6299212598425197,
          "duration": 0.5245532916666775
        },
        {
          "name": "B3",
          "midi": 59,
          "time": 285.52998164583084,
          "velocity": 0.6299212598425197,
          "duration": 1.5680795208333507
        },
        {
          "name": "G3",
          "midi": 55,
          "time": 285.52998164583084,
          "velocity": 0.6377952755905512,
          "duration": 1.6071420000000103
        },
        {
          "name": "D3",
          "midi": 50,
          "time": 285.52998164583084,
          "velocity": 0.6377952755905512,
          "duration": 1.6127223541666922
        },
        {
          "name": "B3",
          "midi": 59,
          "time": 287.13712364583085,
          "velocity": 0.6299212598425197,
          "duration": 0.5245532916666775
        },
        {
          "name": "C3",
          "midi": 48,
          "time": 287.13712364583085,
          "velocity": 0.6220472440944882,
          "duration": 0.5301336458333594
        },
        {
          "name": "G3",
          "midi": 55,
          "time": 287.14270399999754,
          "velocity": 0.6299212598425197,
          "duration": 0.5301336458333594
        },
        {
          "name": "B3",
          "midi": 59,
          "time": 287.6728376458309,
          "velocity": 0.6377952755905512,
          "duration": 1.5680795208333507
        },
        {
          "name": "G3",
          "midi": 55,
          "time": 287.6784179999976,
          "velocity": 0.6456692913385826,
          "duration": 1.6015616458333284
        },
        {
          "name": "C3",
          "midi": 48,
          "time": 287.6784179999976,
          "velocity": 0.6377952755905512,
          "duration": 1.5959812916666465
        },
        {
          "name": "E3",
          "midi": 52,
          "time": 289.2799796458309,
          "velocity": 0.6299212598425197,
          "duration": 0.5357139999999845
        },
        {
          "name": "C3",
          "midi": 48,
          "time": 289.2799796458309,
          "velocity": 0.6220472440944882,
          "duration": 0.5189729374999956
        },
        {
          "name": "A#3",
          "midi": 58,
          "time": 289.2855599999976,
          "velocity": 0.6141732283464567,
          "duration": 0.5245532916666207
        },
        {
          "name": "A#3",
          "midi": 58,
          "time": 289.8156936458309,
          "velocity": 0.6062992125984252,
          "duration": 1.5680795208333507
        },
        {
          "name": "C3",
          "midi": 48,
          "time": 289.8156936458309,
          "velocity": 0.5826771653543307,
          "duration": 1.6015616458333284
        },
        {
          "name": "E3",
          "midi": 52,
          "time": 289.8212739999976,
          "velocity": 0.6062992125984252,
          "duration": 1.6015616458333284
        },
        {
          "name": "A#3",
          "midi": 58,
          "time": 291.4228356458309,
          "velocity": 0.5118110236220472,
          "duration": 0.5189729374999956
        },
        {
          "name": "C3",
          "midi": 48,
          "time": 291.4228356458309,
          "velocity": 0.5039370078740157,
          "duration": 0.5301336458333026
        },
        {
          "name": "F#3",
          "midi": 54,
          "time": 291.4284159999976,
          "velocity": 0.5118110236220472,
          "duration": 0.5245532916666207
        },
        {
          "name": "F#3",
          "midi": 54,
          "time": 291.9585496458309,
          "velocity": 0.4566929133858268,
          "duration": 3.175221520833361
        },
        {
          "name": "C3",
          "midi": 48,
          "time": 291.9585496458309,
          "velocity": 0.47244094488188976,
          "duration": 3.270087541666726
        },
        {
          "name": "A#3",
          "midi": 58,
          "time": 291.96412999999757,
          "velocity": 0.48031496062992124,
          "duration": 3.2366054166666913
        },
        {
          "name": "B3",
          "midi": 59,
          "time": 295.70854764583095,
          "velocity": 0.5590551181102362,
          "duration": 0.5301336458333594
        },
        {
          "name": "E3",
          "midi": 52,
          "time": 295.70854764583095,
          "velocity": 0.5511811023622047,
          "duration": 0.5189729374999956
        },
        {
          "name": "G3",
          "midi": 55,
          "time": 295.71412799999763,
          "velocity": 0.5354330708661418,
          "duration": 0.5189729374999956
        },
        {
          "name": "B3",
          "midi": 59,
          "time": 296.244261645831,
          "velocity": 0.5433070866141733,
          "duration": 1.5680795208333507
        },
        {
          "name": "G3",
          "midi": 55,
          "time": 296.24984199999767,
          "velocity": 0.5590551181102362,
          "duration": 1.6015616458333284
        },
        {
          "name": "E3",
          "midi": 52,
          "time": 296.24984199999767,
          "velocity": 0.5354330708661418,
          "duration": 1.6127223541666922
        },
        {
          "name": "B3",
          "midi": 59,
          "time": 297.8569839999977,
          "velocity": 0.5354330708661418,
          "duration": 0.5189729374999956
        },
        {
          "name": "G3",
          "midi": 55,
          "time": 297.8569839999977,
          "velocity": 0.5354330708661418,
          "duration": 0.5245532916666775
        },
        {
          "name": "D3",
          "midi": 50,
          "time": 297.8569839999977,
          "velocity": 0.5669291338582677,
          "duration": 0.5189729374999956
        },
        {
          "name": "B3",
          "midi": 59,
          "time": 298.38711764583104,
          "velocity": 0.5433070866141733,
          "duration": 1.5848205833333395
        },
        {
          "name": "G3",
          "midi": 55,
          "time": 298.38711764583104,
          "velocity": 0.5590551181102362,
          "duration": 1.6015616458333284
        },
        {
          "name": "D3",
          "midi": 50,
          "time": 298.3926979999977,
          "velocity": 0.5354330708661418,
          "duration": 1.6015616458333284
        },
        {
          "name": "G3",
          "midi": 55,
          "time": 299.99425964583105,
          "velocity": 0.5590551181102362,
          "duration": 0.5189729374999956
        },
        {
          "name": "B3",
          "midi": 59,
          "time": 299.99983999999773,
          "velocity": 0.5354330708661418,
          "duration": 0.5245532916666775
        },
        {
          "name": "C3",
          "midi": 48,
          "time": 299.99983999999773,
          "velocity": 0.5354330708661418,
          "duration": 0.5189729374999956
        },
        {
          "name": "B3",
          "midi": 59,
          "time": 300.5299736458311,
          "velocity": 0.5669291338582677,
          "duration": 1.6015616458333284
        },
        {
          "name": "G3",
          "midi": 55,
          "time": 300.5299736458311,
          "velocity": 0.5511811023622047,
          "duration": 1.5680795208333507
        },
        {
          "name": "C3",
          "midi": 48,
          "time": 300.5355539999978,
          "velocity": 0.5433070866141733,
          "duration": 1.6015616458333284
        },
        {
          "name": "A#3",
          "midi": 58,
          "time": 302.1371156458311,
          "velocity": 0.5511811023622047,
          "duration": 0.5301336458333594
        },
        {
          "name": "E3",
          "midi": 52,
          "time": 302.1426959999978,
          "velocity": 0.5590551181102362,
          "duration": 0.5189729374999956
        },
        {
          "name": "C3",
          "midi": 48,
          "time": 302.1426959999978,
          "velocity": 0.5590551181102362,
          "duration": 0.5189729374999956
        },
        {
          "name": "A#3",
          "midi": 58,
          "time": 302.67282964583114,
          "velocity": 0.5118110236220472,
          "duration": 1.5680795208333507
        },
        {
          "name": "C3",
          "midi": 48,
          "time": 302.67282964583114,
          "velocity": 0.5275590551181102,
          "duration": 1.5680795208333507
        },
        {
          "name": "E3",
          "midi": 52,
          "time": 302.6784099999978,
          "velocity": 0.5196850393700787,
          "duration": 1.6015616458333284
        },
        {
          "name": "A#3",
          "midi": 58,
          "time": 304.27997164583115,
          "velocity": 0.41732283464566927,
          "duration": 0.5189729374999956
        },
        {
          "name": "F#3",
          "midi": 54,
          "time": 304.27997164583115,
          "velocity": 0.4094488188976378,
          "duration": 0.5357139999999845
        },
        {
          "name": "C3",
          "midi": 48,
          "time": 304.27997164583115,
          "velocity": 0.4409448818897638,
          "duration": 0.5245532916666775
        },
        {
          "name": "A#3",
          "midi": 58,
          "time": 304.8212659999978,
          "velocity": 0.3858267716535433,
          "duration": 3.2366054166666913
        },
        {
          "name": "F#3",
          "midi": 54,
          "time": 304.8212659999978,
          "velocity": 0.4094488188976378,
          "duration": 3.175221520833361
        },
        {
          "name": "C3",
          "midi": 48,
          "time": 304.8212659999978,
          "velocity": 0.3779527559055118,
          "duration": 3.2366054166666913
        },
        {
          "name": "G3",
          "midi": 55,
          "time": 308.5656836458312,
          "velocity": 0.3937007874015748,
          "duration": 0.26227664583331034
        },
        {
          "name": "B3",
          "midi": 59,
          "time": 308.8391209999978,
          "velocity": 0.4015748031496063,
          "duration": 0.26227664583331034
        },
        {
          "name": "G3",
          "midi": 55,
          "time": 309.1013976458311,
          "velocity": 0.41732283464566927,
          "duration": 0.26227664583331034
        },
        {
          "name": "B3",
          "midi": 59,
          "time": 309.3692546458311,
          "velocity": 0.4330708661417323,
          "duration": 0.26227664583331034
        },
        {
          "name": "G3",
          "midi": 55,
          "time": 309.6371116458311,
          "velocity": 0.4330708661417323,
          "duration": 0.26227664583331034
        },
        {
          "name": "B3",
          "midi": 59,
          "time": 309.91054899999773,
          "velocity": 0.4409448818897638,
          "duration": 0.2566962916666853
        },
        {
          "name": "G3",
          "midi": 55,
          "time": 310.1728256458311,
          "velocity": 0.4645669291338583,
          "duration": 0.2566962916666853
        },
        {
          "name": "B3",
          "midi": 59,
          "time": 310.44626299999777,
          "velocity": 0.44881889763779526,
          "duration": 0.26227664583331034
        },
        {
          "name": "G3",
          "midi": 55,
          "time": 310.71411999999776,
          "velocity": 0.4645669291338583,
          "duration": 0.26227664583331034
        },
        {
          "name": "B3",
          "midi": 59,
          "time": 310.9763966458311,
          "velocity": 0.4566929133858268,
          "duration": 0.26227664583331034
        },
        {
          "name": "G3",
          "midi": 55,
          "time": 311.24425364583107,
          "velocity": 0.47244094488188976,
          "duration": 0.2566962916666853
        },
        {
          "name": "B3",
          "midi": 59,
          "time": 311.51211064583106,
          "velocity": 0.4645669291338583,
          "duration": 0.26227664583331034
        },
        {
          "name": "G3",
          "midi": 55,
          "time": 311.7855479999977,
          "velocity": 0.41732283464566927,
          "duration": 0.26227664583331034
        },
        {
          "name": "B3",
          "midi": 59,
          "time": 312.05340499999767,
          "velocity": 0.4330708661417323,
          "duration": 0.26227664583331034
        },
        {
          "name": "G3",
          "midi": 55,
          "time": 312.315681645831,
          "velocity": 0.41732283464566927,
          "duration": 0.2566962916666853
        },
        {
          "name": "B3",
          "midi": 59,
          "time": 312.58911899999765,
          "velocity": 0.3937007874015748,
          "duration": 0.26227664583331034
        },
        {
          "name": "G3",
          "midi": 55,
          "time": 312.85697599999764,
          "velocity": 0.3937007874015748,
          "duration": 0.2566962916666853
        },
        {
          "name": "B3",
          "midi": 59,
          "time": 313.12483299999764,
          "velocity": 0.3858267716535433,
          "duration": 0.26227664583331034
        },
        {
          "name": "G3",
          "midi": 55,
          "time": 313.39268999999763,
          "velocity": 0.4094488188976378,
          "duration": 0.26227664583331034
        },
        {
          "name": "B3",
          "midi": 59,
          "time": 313.6605469999976,
          "velocity": 0.4015748031496063,
          "duration": 0.2566962916666853
        },
        {
          "name": "G3",
          "midi": 55,
          "time": 313.922823645831,
          "velocity": 0.4251968503937008,
          "duration": 0.26227664583331034
        },
        {
          "name": "B3",
          "midi": 59,
          "time": 314.190680645831,
          "velocity": 0.4409448818897638,
          "duration": 0.2566962916666853
        },
        {
          "name": "G3",
          "midi": 55,
          "time": 314.458537645831,
          "velocity": 0.4409448818897638,
          "duration": 0.26227664583331034
        },
        {
          "name": "B3",
          "midi": 59,
          "time": 314.7319749999976,
          "velocity": 0.44881889763779526,
          "duration": 0.26227664583331034
        },
        {
          "name": "G3",
          "midi": 55,
          "time": 314.9998319999976,
          "velocity": 0.4645669291338583,
          "duration": 0.2566962916666853
        },
        {
          "name": "B3",
          "midi": 59,
          "time": 315.26210864583095,
          "velocity": 0.4645669291338583,
          "duration": 0.2566962916666853
        },
        {
          "name": "G3",
          "midi": 55,
          "time": 315.52996564583094,
          "velocity": 0.4645669291338583,
          "duration": 0.2566962916666853
        },
        {
          "name": "B3",
          "midi": 59,
          "time": 315.8034029999976,
          "velocity": 0.4409448818897638,
          "duration": 0.26227664583331034
        },
        {
          "name": "G3",
          "midi": 55,
          "time": 316.0712599999976,
          "velocity": 0.4330708661417323,
          "duration": 0.2566962916666853
        },
        {
          "name": "B3",
          "midi": 59,
          "time": 316.333536645831,
          "velocity": 0.4015748031496063,
          "duration": 0.26227664583331034
        },
        {
          "name": "G3",
          "midi": 55,
          "time": 316.60139364583097,
          "velocity": 0.3700787401574803,
          "duration": 0.26227664583331034
        },
        {
          "name": "B3",
          "midi": 59,
          "time": 316.8748309999976,
          "velocity": 0.3858267716535433,
          "duration": 0.26227664583331034
        },
        {
          "name": "G3",
          "midi": 55,
          "time": 317.1426879999976,
          "velocity": 0.33070866141732286,
          "duration": 0.26227664583331034
        },
        {
          "name": "B3",
          "midi": 59,
          "time": 317.4049646458309,
          "velocity": 0.31496062992125984,
          "duration": 0.26227664583331034
        },
        {
          "name": "G3",
          "midi": 55,
          "time": 317.6784019999975,
          "velocity": 0.31496062992125984,
          "duration": 0.26227664583331034
        },
        {
          "name": "B3",
          "midi": 59,
          "time": 317.9406786458308,
          "velocity": 0.33858267716535434,
          "duration": 0.2566962916666853
        },
        {
          "name": "G3",
          "midi": 55,
          "time": 318.2085356458308,
          "velocity": 0.36220472440944884,
          "duration": 0.2566962916666853
        },
        {
          "name": "B3",
          "midi": 59,
          "time": 318.4763926458308,
          "velocity": 0.3543307086614173,
          "duration": 0.2566962916666853
        },
        {
          "name": "G3",
          "midi": 55,
          "time": 318.7442496458308,
          "velocity": 0.3700787401574803,
          "duration": 0.26227664583331034
        },
        {
          "name": "B3",
          "midi": 59,
          "time": 319.0121066458308,
          "velocity": 0.3700787401574803,
          "duration": 0.26227664583331034
        },
        {
          "name": "G3",
          "midi": 55,
          "time": 319.2855439999974,
          "velocity": 0.3937007874015748,
          "duration": 0.2566962916666853
        },
        {
          "name": "B3",
          "midi": 59,
          "time": 319.5534009999974,
          "velocity": 0.3700787401574803,
          "duration": 0.2566962916666853
        },
        {
          "name": "G3",
          "midi": 55,
          "time": 319.8212579999974,
          "velocity": 0.3858267716535433,
          "duration": 0.2566962916666853
        },
        {
          "name": "B3",
          "midi": 59,
          "time": 320.0891149999974,
          "velocity": 0.3543307086614173,
          "duration": 0.2566962916666853
        },
        {
          "name": "G3",
          "midi": 55,
          "time": 320.35139164583074,
          "velocity": 0.36220472440944884,
          "duration": 0.26227664583331034
        },
        {
          "name": "B3",
          "midi": 59,
          "time": 320.62482899999736,
          "velocity": 0.3543307086614173,
          "duration": 0.26227664583331034
        },
        {
          "name": "G3",
          "midi": 55,
          "time": 320.89268599999735,
          "velocity": 0.3228346456692913,
          "duration": 0.2566962916666853
        },
        {
          "name": "B3",
          "midi": 59,
          "time": 321.1549626458307,
          "velocity": 0.3464566929133858,
          "duration": 0.26227664583331034
        },
        {
          "name": "G3",
          "midi": 55,
          "time": 321.4228196458307,
          "velocity": 0.2992125984251969,
          "duration": 0.26227664583331034
        },
        {
          "name": "B3",
          "midi": 59,
          "time": 321.69625699999733,
          "velocity": 0.3228346456692913,
          "duration": 0.26227664583331034
        },
        {
          "name": "G3",
          "midi": 55,
          "time": 321.9641139999973,
          "velocity": 0.33858267716535434,
          "duration": 0.26227664583331034
        },
        {
          "name": "B3",
          "midi": 59,
          "time": 322.22639064583063,
          "velocity": 0.33858267716535434,
          "duration": 0.2566962916666853
        },
        {
          "name": "G3",
          "midi": 55,
          "time": 322.4942476458306,
          "velocity": 0.3543307086614173,
          "duration": 0.26227664583331034
        },
        {
          "name": "B3",
          "midi": 59,
          "time": 322.7621046458306,
          "velocity": 0.3543307086614173,
          "duration": 0.26227664583331034
        },
        {
          "name": "G3",
          "midi": 55,
          "time": 323.03554199999724,
          "velocity": 0.3700787401574803,
          "duration": 0.26227664583331034
        },
        {
          "name": "B3",
          "midi": 59,
          "time": 323.3033989999972,
          "velocity": 0.36220472440944884,
          "duration": 0.26227664583331034
        },
        {
          "name": "G3",
          "midi": 55,
          "time": 323.56567564583054,
          "velocity": 0.3937007874015748,
          "duration": 0.26227664583331034
        },
        {
          "name": "B3",
          "midi": 59,
          "time": 323.83353264583053,
          "velocity": 0.3779527559055118,
          "duration": 0.2566962916666853
        },
        {
          "name": "G3",
          "midi": 55,
          "time": 324.1069699999972,
          "velocity": 0.3543307086614173,
          "duration": 0.2566962916666853
        },
        {
          "name": "B3",
          "midi": 59,
          "time": 324.3692466458306,
          "velocity": 0.3543307086614173,
          "duration": 0.26227664583331034
        },
        {
          "name": "G3",
          "midi": 55,
          "time": 324.63710364583056,
          "velocity": 0.3543307086614173,
          "duration": 0.26227664583331034
        },
        {
          "name": "B3",
          "midi": 59,
          "time": 324.90496064583056,
          "velocity": 0.33858267716535434,
          "duration": 0.26227664583331034
        },
        {
          "name": "G3",
          "midi": 55,
          "time": 325.17281764583055,
          "velocity": 0.29133858267716534,
          "duration": 0.26227664583331034
        },
        {
          "name": "B3",
          "midi": 59,
          "time": 325.44067464583054,
          "velocity": 0.30708661417322836,
          "duration": 0.2566962916666853
        },
        {
          "name": "G3",
          "midi": 55,
          "time": 325.70853164583053,
          "velocity": 0.2204724409448819,
          "duration": 0.2566962916666853
        },
        {
          "name": "B3",
          "midi": 59,
          "time": 325.9763886458305,
          "velocity": 0.2283464566929134,
          "duration": 0.26227664583331034
        },
        {
          "name": "G3",
          "midi": 55,
          "time": 326.24982599999714,
          "velocity": 0.2677165354330709,
          "duration": 0.26227664583331034
        },
        {
          "name": "B3",
          "midi": 59,
          "time": 326.51768299999713,
          "velocity": 0.2440944881889764,
          "duration": 0.26227664583331034
        },
        {
          "name": "G3",
          "midi": 55,
          "time": 326.7855399999971,
          "velocity": 0.25984251968503935,
          "duration": 0.26227664583331034
        },
        {
          "name": "B3",
          "midi": 59,
          "time": 327.0533969999971,
          "velocity": 0.28346456692913385,
          "duration": 0.26227664583331034
        },
        {
          "name": "G3",
          "midi": 55,
          "time": 327.3212539999971,
          "velocity": 0.29133858267716534,
          "duration": 0.26227664583331034
        },
        {
          "name": "B3",
          "midi": 59,
          "time": 327.5891109999971,
          "velocity": 0.28346456692913385,
          "duration": 0.2566962916666853
        },
        {
          "name": "G3",
          "midi": 55,
          "time": 327.8569679999971,
          "velocity": 0.33070866141732286,
          "duration": 0.2566962916666853
        },
        {
          "name": "B3",
          "midi": 59,
          "time": 328.1248249999971,
          "velocity": 0.30708661417322836,
          "duration": 0.26227664583331034
        },
        {
          "name": "G3",
          "midi": 55,
          "time": 328.3871016458304,
          "velocity": 0.2992125984251969,
          "duration": 0.26227664583331034
        },
        {
          "name": "B3",
          "midi": 59,
          "time": 328.6549586458304,
          "velocity": 0.29133858267716534,
          "duration": 0.2566962916666853
        },
        {
          "name": "G3",
          "midi": 55,
          "time": 328.92839599999706,
          "velocity": 0.25984251968503935,
          "duration": 0.2566962916666853
        },
        {
          "name": "B3",
          "midi": 59,
          "time": 329.19625299999706,
          "velocity": 0.2677165354330709,
          "duration": 0.2566962916666853
        },
        {
          "name": "G3",
          "midi": 55,
          "time": 329.4585296458304,
          "velocity": 0.2755905511811024,
          "duration": 0.26227664583331034
        },
        {
          "name": "B3",
          "midi": 59,
          "time": 329.7263866458304,
          "velocity": 0.23622047244094488,
          "duration": 0.26227664583331034
        },
        {
          "name": "G3",
          "midi": 55,
          "time": 329.99982399999703,
          "velocity": 0.2204724409448819,
          "duration": 0.26227664583331034
        },
        {
          "name": "B3",
          "midi": 59,
          "time": 330.26210064583034,
          "velocity": 0.2283464566929134,
          "duration": 0.26227664583331034
        },
        {
          "name": "G3",
          "midi": 55,
          "time": 330.53553799999696,
          "velocity": 0.25196850393700787,
          "duration": 0.2566962916666853
        },
        {
          "name": "B3",
          "midi": 59,
          "time": 330.79781464583033,
          "velocity": 0.2677165354330709,
          "duration": 0.2566962916666853
        },
        {
          "name": "G3",
          "midi": 55,
          "time": 331.0656716458303,
          "velocity": 0.25984251968503935,
          "duration": 0.26227664583331034
        },
        {
          "name": "B3",
          "midi": 59,
          "time": 331.33910899999694,
          "velocity": 0.2992125984251969,
          "duration": 0.26227664583331034
        },
        {
          "name": "G3",
          "midi": 55,
          "time": 331.60696599999693,
          "velocity": 0.30708661417322836,
          "duration": 0.26227664583331034
        },
        {
          "name": "B3",
          "midi": 59,
          "time": 331.8748229999969,
          "velocity": 0.29133858267716534,
          "duration": 0.2566962916666853
        },
        {
          "name": "G3",
          "midi": 55,
          "time": 332.1370996458303,
          "velocity": 0.2992125984251969,
          "duration": 0.26227664583331034
        },
        {
          "name": "B3",
          "midi": 59,
          "time": 332.4105369999969,
          "velocity": 0.30708661417322836,
          "duration": 0.26227664583331034
        },
        {
          "name": "G3",
          "midi": 55,
          "time": 332.6783939999969,
          "velocity": 0.29133858267716534,
          "duration": 0.26227664583331034
        },
        {
          "name": "B3",
          "midi": 59,
          "time": 332.9406706458302,
          "velocity": 0.2755905511811024,
          "duration": 0.26227664583331034
        },
        {
          "name": "G3",
          "midi": 55,
          "time": 333.2085276458302,
          "velocity": 0.2755905511811024,
          "duration": 0.26227664583331034
        },
        {
          "name": "B3",
          "midi": 59,
          "time": 333.4763846458302,
          "velocity": 0.2283464566929134,
          "duration": 0.2566962916666853
        },
        {
          "name": "G3",
          "midi": 55,
          "time": 333.7442416458302,
          "velocity": 0.23622047244094488,
          "duration": 0.2566962916666853
        },
        {
          "name": "B3",
          "midi": 59,
          "time": 334.01767899999686,
          "velocity": 0.2204724409448819,
          "duration": 0.26227664583331034
        }
      ],
      "controlChanges": {
        "91": [
          {
            "number": 91,
            "time": 0,
            "value": 0.9448818897637795
          }
        ]
      },
      "id": 2,
      "instrumentNumber": 0,
      "instrument": "acoustic grand piano",
      "instrumentFamily": "piano",
      "channelNumber": 0,
      "isPercussion": false
    },
    {
      "startTime": 10.71428,
      "duration": 330.02772577083323,
      "length": 54,
      "notes": [
        {
          "name": "E3",
          "midi": 52,
          "time": 10.71428,
          "velocity": 0.6220472440944882,
          "duration": 4.2354888125
        },
        {
          "name": "E3",
          "midi": 52,
          "time": 29.999984,
          "velocity": 0.6220472440944882,
          "duration": 4.235488812499998
        },
        {
          "name": "E3",
          "midi": 52,
          "time": 38.571408,
          "velocity": 0.6141732283464567,
          "duration": 2.1149542291666634
        },
        {
          "name": "D3",
          "midi": 50,
          "time": 40.71426399999999,
          "velocity": 0.7086614173228346,
          "duration": 2.1149542291666634
        },
        {
          "name": "C3",
          "midi": 48,
          "time": 42.85153964583332,
          "velocity": 0.6377952755905512,
          "duration": 2.176338125000001
        },
        {
          "name": "D#3",
          "midi": 51,
          "time": 44.99439564583332,
          "velocity": 0.5511811023622047,
          "duration": 2.1149542291666634
        },
        {
          "name": "E3",
          "midi": 52,
          "time": 47.142831999999984,
          "velocity": 0.6299212598425197,
          "duration": 4.319194125000003
        },
        {
          "name": "E3",
          "midi": 52,
          "time": 55.708675645833324,
          "velocity": 0.6377952755905512,
          "duration": 2.1540167083333372
        },
        {
          "name": "D3",
          "midi": 50,
          "time": 57.857111999999994,
          "velocity": 0.6929133858267716,
          "duration": 2.176338125000001
        },
        {
          "name": "C3",
          "midi": 48,
          "time": 59.99438764583333,
          "velocity": 0.6141732283464567,
          "duration": 2.137275645833334
        },
        {
          "name": "D#3",
          "midi": 51,
          "time": 62.13724364583333,
          "velocity": 0.5433070866141733,
          "duration": 2.092632812500007
        },
        {
          "name": "E3",
          "midi": 52,
          "time": 64.28009964583333,
          "velocity": 0.6299212598425197,
          "duration": 4.2354888124999945
        },
        {
          "name": "E3",
          "midi": 52,
          "time": 72.85152364583332,
          "velocity": 0.6299212598425197,
          "duration": 2.137275645833327
        },
        {
          "name": "D3",
          "midi": 50,
          "time": 74.99995999999999,
          "velocity": 0.7086614173228346,
          "duration": 2.137275645833327
        },
        {
          "name": "C3",
          "midi": 48,
          "time": 77.13723564583331,
          "velocity": 0.6456692913385826,
          "duration": 2.15401670833333
        },
        {
          "name": "D#3",
          "midi": 51,
          "time": 79.28009164583331,
          "velocity": 0.5590551181102362,
          "duration": 2.176338125000001
        },
        {
          "name": "E3",
          "midi": 52,
          "time": 81.42852799999997,
          "velocity": 0.6220472440944882,
          "duration": 4.190845979166667
        },
        {
          "name": "E3",
          "midi": 52,
          "time": 100.7086516458333,
          "velocity": 0.6456692913385826,
          "duration": 4.2354888124999945
        },
        {
          "name": "E3",
          "midi": 52,
          "time": 119.9943556458333,
          "velocity": 0.6456692913385826,
          "duration": 4.363836958333337
        },
        {
          "name": "E3",
          "midi": 52,
          "time": 128.5657796458333,
          "velocity": 0.6220472440944882,
          "duration": 2.176338125000001
        },
        {
          "name": "D3",
          "midi": 50,
          "time": 130.70863564583328,
          "velocity": 0.7244094488188977,
          "duration": 2.1149542291666705
        },
        {
          "name": "C3",
          "midi": 48,
          "time": 132.85149164583328,
          "velocity": 0.6377952755905512,
          "duration": 2.15401670833333
        },
        {
          "name": "D#3",
          "midi": 51,
          "time": 134.99992799999995,
          "velocity": 0.5669291338582677,
          "duration": 2.1763381249999725
        },
        {
          "name": "E3",
          "midi": 52,
          "time": 137.13720364583327,
          "velocity": 0.6456692913385826,
          "duration": 4.190845979166653
        },
        {
          "name": "E3",
          "midi": 52,
          "time": 145.70862764583325,
          "velocity": 0.6220472440944882,
          "duration": 2.15401670833333
        },
        {
          "name": "D3",
          "midi": 50,
          "time": 147.85148364583324,
          "velocity": 0.7244094488188977,
          "duration": 2.1372756458333413
        },
        {
          "name": "C3",
          "midi": 48,
          "time": 149.99433964583324,
          "velocity": 0.6299212598425197,
          "duration": 2.1372756458333413
        },
        {
          "name": "D#3",
          "midi": 51,
          "time": 152.13719564583323,
          "velocity": 0.5669291338582677,
          "duration": 2.1149542291666705
        },
        {
          "name": "E3",
          "midi": 52,
          "time": 154.2856319999999,
          "velocity": 0.6299212598425197,
          "duration": 4.1908459791666814
        },
        {
          "name": "E3",
          "midi": 52,
          "time": 162.85147564583326,
          "velocity": 0.6141732283464567,
          "duration": 2.15401670833333
        },
        {
          "name": "D3",
          "midi": 50,
          "time": 164.99991199999994,
          "velocity": 0.7244094488188977,
          "duration": 2.137275645833313
        },
        {
          "name": "C3",
          "midi": 48,
          "time": 167.13718764583325,
          "velocity": 0.6220472440944882,
          "duration": 2.15401670833333
        },
        {
          "name": "D#3",
          "midi": 51,
          "time": 169.28562399999993,
          "velocity": 0.5511811023622047,
          "duration": 2.15401670833333
        },
        {
          "name": "E3",
          "midi": 52,
          "time": 171.42847999999992,
          "velocity": 0.6299212598425197,
          "duration": 4.2354888124999945
        },
        {
          "name": "E3",
          "midi": 52,
          "time": 190.71418399999993,
          "velocity": 0.6456692913385826,
          "duration": 4.280131645833336
        },
        {
          "name": "E3",
          "midi": 52,
          "time": 209.99430764583326,
          "velocity": 0.6456692913385826,
          "duration": 4.280131645833336
        },
        {
          "name": "E3",
          "midi": 52,
          "time": 218.56573164583327,
          "velocity": 0.6141732283464567,
          "duration": 2.0926328124999998
        },
        {
          "name": "D3",
          "midi": 50,
          "time": 220.71416799999994,
          "velocity": 0.7007874015748031,
          "duration": 2.15401670833333
        },
        {
          "name": "C3",
          "midi": 48,
          "time": 222.85702399999994,
          "velocity": 0.6456692913385826,
          "duration": 2.176338125000001
        },
        {
          "name": "D#3",
          "midi": 51,
          "time": 224.99987999999993,
          "velocity": 0.5354330708661418,
          "duration": 2.1372756458333413
        },
        {
          "name": "E3",
          "midi": 52,
          "time": 227.14273599999993,
          "velocity": 0.6220472440944882,
          "duration": 4.363836958333337
        },
        {
          "name": "E3",
          "midi": 52,
          "time": 235.70857964583325,
          "velocity": 0.6377952755905512,
          "duration": 2.1372756458333413
        },
        {
          "name": "D3",
          "midi": 50,
          "time": 237.85143564583325,
          "velocity": 0.7244094488188977,
          "duration": 2.1149542291666705
        },
        {
          "name": "C3",
          "midi": 48,
          "time": 239.99429164583324,
          "velocity": 0.6456692913385826,
          "duration": 2.1149542291666705
        },
        {
          "name": "D#3",
          "midi": 51,
          "time": 242.13714764583324,
          "velocity": 0.5590551181102362,
          "duration": 2.1372756458333413
        },
        {
          "name": "E3",
          "midi": 52,
          "time": 244.28558399999991,
          "velocity": 0.6456692913385826,
          "duration": 4.363836958333337
        },
        {
          "name": "E3",
          "midi": 52,
          "time": 252.85142764583324,
          "velocity": 0.6141732283464567,
          "duration": 2.15401670833333
        },
        {
          "name": "D3",
          "midi": 50,
          "time": 254.99428364583324,
          "velocity": 0.7244094488188977,
          "duration": 2.1149542291666705
        },
        {
          "name": "C3",
          "midi": 48,
          "time": 257.1427199999999,
          "velocity": 0.6299212598425197,
          "duration": 2.1763381249999725
        },
        {
          "name": "D#3",
          "midi": 51,
          "time": 259.2799956458332,
          "velocity": 0.5590551181102362,
          "duration": 2.137275645833313
        },
        {
          "name": "E3",
          "midi": 52,
          "time": 261.4284319999998,
          "velocity": 0.6220472440944882,
          "duration": 4.235488812500023
        },
        {
          "name": "E3",
          "midi": 52,
          "time": 308.5656836458332,
          "velocity": 0.6377952755905512,
          "duration": 4.363836958333309
        },
        {
          "name": "E3",
          "midi": 52,
          "time": 317.14268799999985,
          "velocity": 0.5590551181102362,
          "duration": 4.319194125000024
        },
        {
          "name": "E3",
          "midi": 52,
          "time": 325.7085316458332,
          "velocity": 0.3937007874015748,
          "duration": 4.319194125000024
        }
      ],
      "controlChanges": {
        "91": [
          {
            "number": 91,
            "time": 0,
            "value": 0.9448818897637795
          }
        ]
      },
      "id": 3,
      "instrumentNumber": 0,
      "instrument": "acoustic grand piano",
      "instrumentFamily": "piano",
      "channelNumber": 0,
      "isPercussion": false
    }
  ]
}
