<?xml version="1.0" encoding="UTF-8" standalone="no"?>
<!-- Generator: Moho 12.5 build 22414 -->

<svg
   xmlns:dc="http://purl.org/dc/elements/1.1/"
   xmlns:cc="http://creativecommons.org/ns#"
   xmlns:rdf="http://www.w3.org/1999/02/22-rdf-syntax-ns#"
   xmlns:svg="http://www.w3.org/2000/svg"
   xmlns="http://www.w3.org/2000/svg"
   xmlns:sodipodi="http://sodipodi.sourceforge.net/DTD/sodipodi-0.dtd"
   xmlns:inkscape="http://www.inkscape.org/namespaces/inkscape"
   version="1.1"
   id="Frame_0"
   width="720px"
   height="720px"
   sodipodi:docname="clouds.svg"
   inkscape:version="0.92.5 (0.92.5+68)">
  <metadata
     id="metadata1023">
    <rdf:RDF>
      <cc:Work
         rdf:about="">
        <dc:format>image/svg+xml</dc:format>
        <dc:type
           rdf:resource="http://purl.org/dc/dcmitype/StillImage" />
        <dc:title></dc:title>
      </cc:Work>
    </rdf:RDF>
  </metadata>
  <defs
     id="defs1021" />
  <sodipodi:namedview
     pagecolor="#ffffff"
     bordercolor="#666666"
     borderopacity="1"
     objecttolerance="10"
     gridtolerance="10"
     guidetolerance="10"
     inkscape:pageopacity="0"
     inkscape:pageshadow="2"
     inkscape:window-width="1413"
     inkscape:window-height="1049"
     id="namedview1019"
     showgrid="false"
     inkscape:zoom="0.23177389"
     inkscape:cx="1185.9346"
     inkscape:cy="116.5781"
     inkscape:window-x="2364"
     inkscape:window-y="0"
     inkscape:window-maximized="0"
     inkscape:current-layer="Frame_0" />
  <g
     id="g1600"
     transform="matrix(0.89772991,0,0,0.89772991,244.5805,106.79768)">
    <path
       d="m -272.44106,-118.97402 h 801.15331 v 626.75598 l -801.15331,-22.12 v -604.63598"
       style="fill:#417bc7;fill-opacity:1;fill-rule:evenodd;stroke:none;stroke-width:0.13333333"
       id="path14"
       inkscape:connector-curvature="0" />
    <path
       d="M 528.71225,5.4499761 V 340.7753 c -11.95333,7.97733 -26.21066,12.616 -41.53066,12.616 -16.77067,0 -32.272,-5.56133 -44.86267,-14.976 -5.85866,2.464 -12.268,3.82534 -18.98933,3.82534 -1.24933,0 -2.488,-0.048 -3.71333,-0.14134 -10.132,5.53067 -21.68667,8.668 -33.96,8.668 -10.12667,0 -19.76934,-2.13733 -28.52267,-5.98933 -11.028,15.54933 -28.89467,25.65733 -49.06133,25.65733 -0.69333,0 -1.38,-0.0133 -2.06933,-0.0373 2.57333,7.05333 3.98533,14.688 3.98533,22.66266 0,35.66934 -28.16133,64.58534 -62.896,64.58534 -21.7,0 -40.83333,-11.28534 -52.13867,-28.452 -15.77599,35.36 -50.53866,59.92266 -90.89333,59.92266 -39.174662,0 -73.078662,-23.148 -89.459992,-56.852 -3.48534,0.73467 -7.0933398,1.12 -10.7893398,1.12 -29.4466602,0 -53.3173302,-24.51333 -53.3173302,-54.748 0,-1.664 0.076,-3.304 0.21733,-4.92933 -0.28533,0.003 -0.56933,0.007 -0.85466,0.007 -21.46534,0 -41.02667,-8.36667 -55.761328,-22.09467 -4.212,1.152 -8.636,1.772 -13.20134,1.772 -3.42266,0 -6.76666,-0.348 -10,-1.008 -13.49866,15.70667 -31.9576,26.80933 -52.8628,30.72267 -11.42293,42.18897 -46.99893,74.0503 -90.47186,78.8863 V -24.698026 c 4.125,-1.016 8.42969,-1.557334 12.85781,-1.557334 30.32765,0 54.91352,25.2453361 54.91352,56.389336 0,12.16666 -3.7536,23.43333 -10.13533,32.64666 9.8244,5.89467 17.3296,15.42134 20.76293,26.78933 4.54013,-1.94533 9.51933,-3.02 14.7428,-3.02 21.15987,0 38.3124,17.613344 38.3124,39.341344 0,1.38133 -0.0692,2.744 -0.20467,4.088 3.04787,0.64266 6.02254,1.48666 8.9132,2.51866 6.26534,-21.292 25.51467,-36.796004 48.291998,-36.796004 27.85867,0 50.44267,23.192004 50.44267,51.798674 0,0.456 -0.005,0.90933 -0.016,1.36 19.41066,3.25733 34.22533022,20.556 34.22533022,41.41067 0,9.41066 -3.01600002,18.096 -8.11067002,25.09599 9.81467,6.056 18.3079998,14.136 24.9333398,23.67867 4.092,-1.11733 8.38933,-1.71467 12.82266,-1.71467 10.92534,0 21.02667,3.61467 29.23734,9.74 7.31333,-33.34933 36.32666,-58.25999 71.010662,-58.25999 37.44133,0 68.272,29.02266 72.33466,66.35333 14.94134,1.416 26.64,14.32 26.64,30.032 0,3.99066 -0.756,7.79866 -2.12666,11.284 0.908,-0.0907 1.83066,-0.13734 2.764,-0.13734 6.61066,0 12.68533,2.344 17.484,6.26534 2.13333,-24.88134 18.51066,-45.56134 40.70666,-53.38934 -11.42266,-10.61866 -18.6,-25.964 -18.6,-43.03333 0,-32.048 25.3,-58.028 56.50934,-58.028 14.16933,0 27.11999,5.35467 37.03733,14.2 9.16266,-17.49866 26.808,-29.612 47.28666,-30.53466 6.67734,-29.27067 27.504,-52.948004 54.66267,-63.014674 -0.0667,-1.17866 -0.10534,-2.36666 -0.10534,-3.56133 0,-33.15333 26.17467,-60.0279999 58.45867,-60.0279999 1.71733,0 3.416,0.0813 5.10133,0.23067"
       style="fill:#4888cf;fill-opacity:1;fill-rule:evenodd;stroke:none;stroke-width:0.13333333"
       id="path16"
       inkscape:connector-curvature="0" />
    <path
       d="m 528.71225,206.57131 v 239.23066 c -10.356,14.34133 -26.96,23.64266 -45.67866,23.64266 -31.076,0 -56.31733,-25.612 -56.82,-57.39466 -7.36267,2.19733 -15.14,3.37333 -23.192,3.37333 -0.99467,0 -1.97867,-0.0213 -2.964,-0.0587 2.04533,5.96134 3.15467,12.37334 3.15467,19.05067 0,31.664 -24.992,57.32666 -55.82267,57.32666 -18.268,0 -34.484,-9.01066 -44.668,-22.93866 -5.89733,1.27733 -12.008,1.95333 -18.27466,1.95333 -2.83067,0 -5.62667,-0.13733 -8.388,-0.40666 -13.97067,19.44266 -36.432,32.05466 -61.76667,32.05466 -11.77867,0 -22.93733,-2.73067 -32.91066,-7.60267 -4.99734,1.41734 -10.26534,2.18 -15.70267,2.18 -1.09733,0 -2.188,-0.0307 -3.27067,-0.092 0.46934,3.45867 0.716,6.992 0.716,10.58267 0,42.00787 -33.16266,76.06 -74.068002,76.06 -20.088,0 -38.29999,-8.212 -51.64266,-21.5444 -10.164,5.38813 -21.696,8.4308 -33.9213298,8.4308 -36.9573402,0 -67.5880002,-27.79307 -73.1600002,-64.13307 -8.80533,4.93867 -18.90533,7.744 -29.644,7.744 -17.055998,0 -32.498668,-7.07733 -43.700128,-18.53066 -23.00414,25.89066 -68.19174,42.13733 -92.94694,42.13733 -24.75362,3e-5 -24.9333,-63.57063 -36.48226,-67.16263 v -369.288 c 16.27293,4.79734 28.18226,20.19334 28.18226,38.448 0,7.44534 -1.9844,14.41467 -5.43493,20.384 0.74227,-0.0387 1.49067,-0.0573 2.24227,-0.0573 11.87026,0 22.64373,4.82133 30.5656,12.66 9.49266,-15.484 26.286,-25.77467 45.41986,-25.77467 29.62227,0 53.6356,24.65867 53.6356,55.07734 0,7.12266 -1.31466,13.92933 -3.71333,20.17866 2.47067,-0.33333 4.988,-0.508 7.54667,-0.508 31.738658,0 57.467988,26.42133 57.467988,59.01333 0,11.89334 -3.432,22.96667 -9.32666,32.23334 3.03733,-0.49867 6.152,-0.76134 9.32666,-0.76134 27.80934,0 51.1053402,19.84534 57.19200022,46.49867 5.23599998,-1.85334 10.85466978,-2.864 16.70266978,-2.864 10.75333,0 20.732,3.40533 28.97467,9.21466 9.85333,-26.30799 34.69599,-44.98133 63.787992,-44.98133 26.66267,0 49.75734,15.68534 61.012,38.55733 9.34267,-6.54 20.16667,-11.01466 31.848,-12.78666 0.156,-0.38667 0.312,-0.77067 0.47333,-1.15333 -6.07066,-8.08267 -9.68666,-18.21067 -9.68666,-29.20667 0,-26.43467 20.86933,-47.86533 46.612,-47.86533 16.63466,0 31.232,8.94933 39.48266,22.41466 1.51467,-0.0813 3.04,-0.12 4.57734,-0.12 14.76,0 28.668,3.732 40.88933,10.316 2.38133,-6.48 5.51066,-12.58533 9.27866,-18.204 -3.57733,-5.50933 -5.664,-12.128 -5.664,-19.248 0,-19.19333 15.152,-34.752 33.84134,-34.752 12.67866,0 23.728,7.16 29.52533,17.75467 3.50267,-0.464 7.07467,-0.70667 10.704,-0.70667 15.39733,0 29.81467,4.31067 42.17333,11.81334 -2.36,-5.888 -3.66666,-12.33734 -3.66666,-19.09867 0,-27.70533 21.87066,-50.164 48.84666,-50.164 15.544,0 29.38667,7.45734 38.33733,19.07334"
       style="fill:#62a7e0;fill-opacity:1;fill-rule:evenodd;stroke:none;stroke-width:0.13333333"
       id="path18"
       inkscape:connector-curvature="0" />
    <path
       d="m -27.166402,521.58863 c 0.12133,-0.272 0.24533,-0.54133 0.36933,-0.81333 -0.71466,-0.72534 -1.40533,-1.472 -2.06933,-2.24934 -0.228,0.25067 -0.46,0.49867 -0.69333,0.74267 0.81866,0.75467 1.616,1.528 2.39333,2.32 z M 528.71225,409.3793 v 98.40266 l -19.204,57.47974 c -3.29066,9.85733 -19.57866,6.4776 -30.376,6.4776 -4.45066,0 -8.812,-0.39734 -13.056,-1.1536 -10.63733,17.24266 -29.38266,28.69066 -50.73066,28.69066 -16.91867,0 -32.2,-7.19333 -43.108,-18.75573 -8.63467,25.43747 -32.19333,43.6932 -59.90933,43.6932 -28.15867,0 -52.03067,-18.84533 -60.312,-44.92813 -9.87867,8 -22.348,12.7776 -35.90667,12.7776 -1.648,0 -3.28,-0.0735 -4.89333,-0.20934 -8.824,16.90254 -26.192,28.40253 -46.17733,28.40253 -14.36933,0 -27.38667,-5.94679 -36.84933,-15.57079 -9.71334,6.12973 -21.148,9.66973 -33.389342,9.66973 -11.62933,0 -22.53333,-3.1948 -31.92533,-8.77333 -9.392,5.57853 -20.29466,8.77333 -31.92666,8.77333 -17.81467,0 -33.9253398,-7.49733 -45.50667,-19.57907 -10.04,22.00667 -31.80133,37.25093 -57.032,37.25093 -23.04533,0 -43.194658,-12.71866 -54.163998,-31.68693 -8.664,-3.40773 -16.3924,-8.75986 -22.67626,-15.5344 -11.6036,9.36147 -26.23494,14.948 -42.1396,14.948 -4.24787,0 -8.4052,-0.4 -12.43854,-1.16573 -13.63333,21.37093 -63.34476,50.16306 -63.8932,35.49226 l -5.53906,-148.41853 V 420.9353 c 6.24584,-2.94933 13.19478,-4.59733 20.51933,-4.59733 5.41507,0 10.62387,0.90133 15.49627,2.56133 2.54226,-16.47333 10.94066,-30.94133 22.93746,-41.092 -1.31453,-3.508 -2.03693,-7.31733 -2.03693,-11.304 0,-17.38 13.72187,-31.47066 30.64947,-31.47066 16.47346,0 29.9104,13.34533 30.61826,30.08399 22.74147,6.64 40.4108,25.652 45.67214,49.50134 4.168,-2.44534 8.626658,-4.43067 13.305328,-5.89067 2.124,-22.95333 20.948,-40.91067 43.85866,-40.91067 24.332,0 44.0573402,20.256 44.0573402,45.244 0,11.328 -4.0560002,21.688 -10.7600002,29.62534 1.236,2.52133 2.32266,5.13466 3.24666,7.824 5.3933402,-2.56534 11.4000002,-4 17.7360002,-4 21.6439998,0 39.4826698,16.712 41.9493398,38.25733 6.44266,1.46533 12.51866,3.92666 18.06666,7.224 9.392,-5.57734 20.296,-8.77334 31.92533,-8.77334 l 0.296,0.004 c 5.698672,-23.35733 26.276002,-40.65599 50.786672,-40.65599 22.28933,0 41.32,14.29866 48.87866,34.452 6.284,-2.55334 13.10534,-4.01334 20.24,-4.152 2.22267,-32.324 28.46134,-57.83867 60.504,-57.83867 2.87467,0 5.69867,0.20933 8.464,0.608 -0.10533,-1.28133 -0.16133,-2.57733 -0.16133,-3.88667 0,-24.98933 19.72533,-45.24533 44.06,-45.24533 24.33066,0 44.05733,20.256 44.05733,45.24533 0,3.51734 -0.39467,6.944 -1.136,10.23067 9.03067,0.168 17.61867,2.19333 25.41867,5.71333 -0.0147,-0.504 -0.0187,-1.01066 -0.0187,-1.51866 0,-12.88667 3.89733,-24.83467 10.53867,-34.68 -11.85467,-7.272 -19.79467,-20.576 -19.79467,-35.79067 0,-23.004 18.16267,-41.656 40.56933,-41.656 22.40134,0 40.564,18.652 40.564,41.656 0,3.656 -0.456,7.19867 -1.31733,10.57467 20.89333,4.084 37.90933,19.41466 44.84266,39.624 5.99467,0.25466 11.744,1.46266 17.12,3.47733 v 0"
       style="fill:#99d5f4;fill-opacity:1;fill-rule:evenodd;stroke:none;stroke-width:0.13333333"
       id="path20"
       inkscape:connector-curvature="0" />
    <path
       d="m 528.71225,504.38063 v 175.94933 h -800.23248 c -0.0458,-0.2349 -0.0932,-0.47083 -0.13646,-0.70521 -0.26302,-0.0349 -0.52291,-0.0776 -0.78437,-0.1151 V 484.5153 c 2.7224,-0.452 5.52604,-0.68534 8.38802,-0.68534 19.93438,0 36.98384,11.38267 43.92504,27.484 4.54574,-1.028 9.2932,-1.57466 14.18227,-1.57466 6.44733,0 12.65413,0.95066 18.4672,2.70133 7.24893,-22.012 29.42547,-38.03333 55.6628,-38.03333 32.125328,0 58.167998,24.01733 58.167998,53.64266 0,11.37867 -3.84533,21.92787 -10.4,30.61174 10.296,9.36306 17.19733,21.89226 18.83866,35.87613 l 0.37867,-0.003 c 7.8,0 15.132,1.84427 21.51467,5.08027 6.44533,-31.5068 36.4413302,-55.34013 72.47866,-55.34013 23.208,0 43.908,9.8864 57.42933,25.33746 9.27067,-17.32973 28.620002,-29.25213 50.993342,-29.25213 27.04266,0 49.672,17.41987 55.41733,40.75573 11.67466,-13.13333 26.96266,-23.43333 44.46266,-29.6 4.576,-22.43973 25.93734,-39.4224 51.6,-39.4224 1.20667,0 2.40134,0.0413 3.588,0.11467 10.476,-12.936 27.21067,-21.31333 46.07067,-21.31333 31.73733,0 57.46533,23.72666 57.46533,52.99733 0,0.57733 -0.012,1.14933 -0.032,1.724 11.46933,-4.888 24.244,-7.61333 37.70533,-7.61333 18.536,0 35.76667,5.172 50.08533,14.02666 4.09867,-22.512 21.64534,-40.816 44.764,-47.64933"
       style="fill:#ffffff;fill-opacity:1;fill-rule:evenodd;stroke:none;stroke-width:0.13333333"
       id="path22"
       inkscape:connector-curvature="0" />
  </g>
</svg>
