<?xml version="1.0" encoding="UTF-8" standalone="no"?>
<!-- Created with Inkscape (http://www.inkscape.org/) -->

<svg
   xmlns:dc="http://purl.org/dc/elements/1.1/"
   xmlns:cc="http://creativecommons.org/ns#"
   xmlns:rdf="http://www.w3.org/1999/02/22-rdf-syntax-ns#"
   xmlns:svg="http://www.w3.org/2000/svg"
   xmlns="http://www.w3.org/2000/svg"
   xmlns:sodipodi="http://sodipodi.sourceforge.net/DTD/sodipodi-0.dtd"
   xmlns:inkscape="http://www.inkscape.org/namespaces/inkscape"
   version="1.1"
   id="svg2"
   xml:space="preserve"
   width="666.66669"
   height="667.29333"
   viewBox="0 0 666.66669 667.29333"
   sodipodi:docname="sunbeams-radial-pink-publicdomainvectors.svg"
   inkscape:version="0.92.5 (0.92.5+68)"><metadata
     id="metadata8"><rdf:RDF><cc:Work
         rdf:about=""><dc:format>image/svg+xml</dc:format><dc:type
           rdf:resource="http://purl.org/dc/dcmitype/StillImage" /><dc:title></dc:title></cc:Work></rdf:RDF></metadata><defs
     id="defs6" /><sodipodi:namedview
     pagecolor="#ffffff"
     bordercolor="#666666"
     borderopacity="1"
     objecttolerance="10"
     gridtolerance="10"
     guidetolerance="10"
     inkscape:pageopacity="0"
     inkscape:pageshadow="2"
     inkscape:window-width="1338"
     inkscape:window-height="952"
     id="namedview4"
     showgrid="false"
     inkscape:zoom="0.7073351"
     inkscape:cx="465.7451"
     inkscape:cy="393.69734"
     inkscape:window-x="2263"
     inkscape:window-y="43"
     inkscape:window-maximized="0"
     inkscape:current-layer="g10" /><g
     id="g10"
     inkscape:groupmode="layer"
     inkscape:label="ink_ext_XXXXXX"
     transform="matrix(1.3333333,0,0,-1.3333333,0,667.29333)">
      <path
       inkscape:connector-curvature="0"
       id="path14"
       style="fill:#000000;fill-opacity:1;fill-rule:nonzero;stroke:none;stroke-width:0.1"
       d="m 439.385,260.842 c -15.763,4.76 -31.971,8.509 -47.649,5.87 -16.292,-2.755 -31.908,-11.828 -47.647,-21.42 -15.738,-9.603 -31.356,-18.708 -47.65,-21.509 -15.668,-2.694 -31.888,1.018 -47.648,5.777 l -8.729,3.966 c 16.267,-8.94 32.051,-18.441 48.74,-21.706 15.983,-3.099 32.707,0.494 48.739,6.011 16.267,5.613 32.402,11.94 48.739,11.838 16.379,-0.116 32.804,-7.101 48.741,-15.842 16.278,-8.927 32.047,-18.48 48.74,-21.847 5.343,-1.07 10.778,-1.376 16.239,-1.122 v 64.761 c -4.3,-1.283 -8.619,-2.21 -12.967,-2.652 -15.797,-1.61 -31.814,3.08 -47.648,7.875" /><path
       inkscape:connector-curvature="0"
       id="path16"
       style="fill:#000000;fill-opacity:1;fill-rule:nonzero;stroke:none;stroke-width:0.1"
       d="m 458.611,356.66 c -13.517,-8.14 -30.036,-10.698 -46.432,-13.081 -16.317,-2.386 -32.587,-5.872 -45.54,-14.886 -13.451,-9.382 -23.49,-24.171 -33.406,-39.476 -9.909,-15.316 -19.93,-30.131 -33.366,-39.554 -12.92,-9.063 -29.183,-12.587 -45.499,-14.971 l -9.629,-0.123 c 18.633,-1.166 37.077,-3.044 53.565,1.081 15.778,3.975 29.248,14.293 41.241,26.054 12.158,11.944 23.884,24.477 38.648,31.304 14.807,6.83 32.713,7.49 50.956,6.364 18.636,-1.151 37.093,-3.079 53.627,0.954 6.065,1.489 11.788,3.92 17.224,7.004 v 97.61 c -2.348,-3.542 -4.672,-7.145 -7.025,-10.748 -9.883,-15.118 -20.517,-29.194 -34.364,-37.532" /><path
       inkscape:connector-curvature="0"
       id="path18"
       style="fill:#000000;fill-opacity:1;fill-rule:nonzero;stroke:none;stroke-width:0.1"
       d="m 386.9,438.048 c -8.559,-13.057 -22.304,-22.355 -36.015,-31.446 -13.642,-9.059 -26.751,-19.089 -34.411,-32.695 -7.952,-14.147 -10.42,-31.723 -12.549,-49.711 -2.117,-17.995 -4.562,-35.586 -12.477,-49.766 -7.611,-13.636 -20.699,-23.697 -34.337,-32.754 l -8.618,-4.188 c 17.302,6.839 34.757,12.957 47.777,23.654 12.448,10.264 19.997,25.263 25.573,40.937 5.644,15.911 10.636,32.169 20.904,44.569 10.306,12.425 26.143,20.6 43.081,27.312 17.3,6.853 34.785,12.929 47.891,23.566 12.517,10.194 20.162,25.143 25.748,40.801 5.661,15.907 10.588,32.193 20.792,44.655 5.291,6.464 12.083,11.787 19.741,16.357 v 1.129 h -97.09 c -0.614,-4.639 -1.16,-9.339 -1.734,-14.053 -2.183,-17.806 -5.503,-34.99 -14.276,-48.367" /><path
       inkscape:connector-curvature="0"
       id="path20"
       style="fill:#000000;fill-opacity:1;fill-rule:nonzero;stroke:none;stroke-width:0.1"
       d="m 286.107,481.013 c -1.906,-15.389 -10.156,-29.586 -18.467,-43.583 -8.264,-13.938 -15.616,-28.526 -16.469,-44.028 -0.873,-16.112 4.718,-32.992 10.797,-50.101 6.094,-17.109 11.712,-33.995 10.883,-50.122 -0.795,-15.507 -8.113,-30.113 -16.372,-44.049 l -5.906,-7.424 c 12.552,13.49 25.557,26.393 32.531,41.544 6.652,14.518 6.785,31.228 4.839,47.712 -1.986,16.724 -4.717,33.485 -0.98,49.006 3.762,15.557 14.393,29.629 26.671,42.848 12.542,13.502 25.594,26.379 32.673,41.511 5.172,11.11 6.51,23.526 5.988,36.141 h -66.693 c 1.001,-6.62 1.289,-13.129 0.505,-19.455" /><path
       inkscape:connector-curvature="0"
       id="path22"
       style="fill:#000000;fill-opacity:1;fill-rule:nonzero;stroke:none;stroke-width:0.1"
       d="m 178.932,429.956 c -1.247,-16.056 -1.386,-32.313 4.737,-46.641 6.377,-14.885 18.918,-27.728 32.003,-40.568 13.094,-12.837 25.665,-25.668 32.089,-40.549 6.177,-14.308 6.08,-30.567 4.832,-46.62 l -2.02,-9.187 c 5.311,17.466 11.292,34.598 10.839,51.202 -0.462,15.897 -7.77,31.008 -16.85,45.035 -9.228,14.229 -19.138,28.173 -22.673,43.739 -3.529,15.609 -0.204,32.79 4.98,49.898 5.297,17.475 11.331,34.605 10.982,51.235 -0.101,4.384 -0.736,8.707 -1.772,12.968 H 162.53 c 5.926,-7.413 10.776,-15.147 13.666,-23.424 5.123,-14.673 4.004,-30.957 2.736,-47.088" /><path
       inkscape:connector-curvature="0"
       id="path24"
       style="fill:#000000;fill-opacity:1;fill-rule:nonzero;stroke:none;stroke-width:0.1"
       d="m 78.9324,426.927 c 11.1391,-11.05 17.3696,-26.196 23.3996,-41.265 6.014,-14.994 13.118,-29.7 25.005,-40.017 12.364,-10.711 29.372,-16.971 46.868,-23 17.506,-6.02 34.536,-12.258 46.94,-22.946 11.929,-10.274 19.067,-24.965 25.08,-39.956 l 2.268,-9.134 c -2.982,17.986 -5.212,35.954 -13,50.721 -7.483,14.129 -20.788,24.648 -35.205,33.442 -14.639,8.911 -29.768,17.279 -39.873,29.806 -10.118,12.571 -14.763,29.457 -17.698,47.066 -2.996,17.987 -5.176,35.975 -12.885,50.811 -7.4,14.177 -20.633,24.775 -35.0308,33.575 -2.4395,1.489 -4.8946,2.961 -7.3383,4.438 H 0 v -36.166 c 10.4297,-5.09 22.0883,-8.954 33.7898,-13.03 17.3032,-6.04 33.7301,-13.025 45.1426,-24.345" /><path
       inkscape:connector-curvature="0"
       id="path26"
       style="fill:#000000;fill-opacity:1;fill-rule:nonzero;stroke:none;stroke-width:0.1"
       d="m 53.0113,313.319 c 12.0848,-10.963 25.0231,-21.205 40.3192,-25.467 15.9015,-4.415 34.0095,-2.853 52.4535,-0.876 18.448,1.989 36.567,3.579 52.491,-0.797 15.317,-4.207 28.281,-14.419 40.363,-25.38 l 6.101,-7.27 c -10.682,14.943 -20.679,30.189 -34.261,40.194 -13.024,9.561 -29.687,13.404 -46.586,15.222 -17.153,1.832 -34.504,2.965 -49.176,9.973 -14.704,7.039 -26.398,20.288 -36.8707,34.911 C 67.148,368.765 57.1875,384.049 43.6465,394.151 31.4059,403.249 15.8992,407.273 0,409.236 v -65.443 c 4.69922,-0.663 9.24727,-1.685 13.5816,-3.203 14.9497,-5.24 27.2969,-16.248 39.4297,-27.271" /><path
       inkscape:connector-curvature="0"
       id="path28"
       style="fill:#000000;fill-opacity:1;fill-rule:nonzero;stroke:none;stroke-width:0.1"
       d="m 88.3863,221.385 c 16.2907,2.755 31.9097,11.829 47.6487,21.42 15.737,9.603 31.355,18.707 47.648,21.509 15.669,2.694 31.889,-1.018 47.649,-5.777 l 8.73,-3.965 c -16.269,8.939 -32.052,18.441 -48.74,21.705 -15.985,3.099 -32.707,-0.494 -48.74,-6.011 -16.267,-5.614 -32.403,-11.94 -48.7398,-11.839 -16.3789,0.117 -32.8024,7.103 -48.7399,15.842 C 30.0117,282.546 15.3559,291.349 0,295.276 v -59.838 c 13.5461,-0.079 27.209,-4.085 40.7379,-8.183 15.7621,-4.76 31.973,-8.509 47.6484,-5.87" /><path
       inkscape:connector-curvature="0"
       id="path30"
       style="fill:#000000;fill-opacity:1;fill-rule:nonzero;stroke:none;stroke-width:0.1"
       d="m 21.5117,131.438 c 13.5188,8.139 30.0363,10.696 46.4321,13.081 16.3164,2.385 32.5892,5.871 45.5402,14.886 13.452,9.38 23.49,24.168 33.406,39.475 9.909,15.316 19.931,30.131 33.367,39.554 12.919,9.063 29.183,12.586 45.498,14.972 l 9.629,0.123 c -18.633,1.166 -37.077,3.044 -53.565,-1.082 -15.778,-3.975 -29.247,-14.292 -41.24,-26.052 -12.16,-11.947 -23.886,-24.48 -38.649,-31.306 -14.8085,-6.83 -32.7116,-7.49 -50.957,-6.364 -17.6464,1.09 -35.1269,2.869 -50.973,-0.369 v -76.535 c 6.39922,7.876 13.402,14.733 21.5117,19.617" /><path
       inkscape:connector-curvature="0"
       id="path32"
       style="fill:#000000;fill-opacity:1;fill-rule:nonzero;stroke:none;stroke-width:0.1"
       d="m 93.2227,50.0488 c 8.5583,13.0582 22.3043,22.3551 36.0153,31.4453 13.642,9.059 26.752,19.0889 34.412,32.6959 7.951,14.147 10.42,31.722 12.549,49.711 2.117,17.995 4.56,35.587 12.477,49.766 7.61,13.636 20.699,23.697 34.336,32.754 l 8.618,4.188 c -17.302,-6.839 -34.756,-12.956 -47.776,-23.655 -12.449,-10.263 -19.997,-25.263 -25.573,-40.935 -5.645,-15.911 -10.638,-32.168 -20.905,-44.57 -10.305,-12.423 -26.142,-20.6 -43.0791,-27.311 C 76.9938,107.283 59.5098,101.207 46.4039,90.5719 33.8867,80.377 26.2441,65.4281 20.657,49.7711 15.0211,33.9371 10.1094,17.7289 0,5.28789 V 0 h 78.7434 c 0.0668,0.560938 0.1351,1.11992 0.2031,1.68203 2.1824,17.80587 5.5043,34.98907 14.2762,48.36677" /><path
       inkscape:connector-curvature="0"
       id="path34"
       style="fill:#000000;fill-opacity:1;fill-rule:nonzero;stroke:none;stroke-width:0.1"
       d="m 212.483,50.666 c 8.264,13.9391 15.617,28.5281 16.469,44.0289 0.873,16.1131 -4.717,32.9941 -10.797,50.1011 -6.092,17.11 -11.711,33.995 -10.883,50.121 0.795,15.508 8.113,30.114 16.374,44.05 l 5.904,7.424 c -12.551,-13.49 -25.556,-26.393 -32.53,-41.544 -6.653,-14.518 -6.786,-31.228 -4.84,-47.71 1.987,-16.727 4.717,-33.487 0.98,-49.008 C 189.4,92.5719 178.766,78.4988 166.489,65.2801 153.947,51.7801 140.896,38.9012 133.815,23.7691 130.349,16.323 128.609,8.28789 127.991,0 h 65.589 c 0.017,2.38203 0.146,4.74805 0.436,7.08398 1.906,15.38902 10.156,29.58592 18.467,43.58202" /><path
       inkscape:connector-curvature="0"
       id="path36"
       style="fill:#000000;fill-opacity:1;fill-rule:nonzero;stroke:none;stroke-width:0.1"
       d="m 301.191,58.1398 c 1.248,16.0571 1.387,32.3141 -4.737,46.6422 -6.376,14.885 -18.918,27.728 -32.002,40.568 -13.095,12.835 -25.666,25.668 -32.09,40.549 -6.178,14.308 -6.08,30.567 -4.832,46.62 l 2.02,9.187 c -5.31,-17.467 -11.293,-34.599 -10.839,-51.202 0.462,-15.897 7.77,-31.009 16.851,-45.035 9.227,-14.228 19.136,-28.173 22.672,-43.739 3.53,-15.6101 0.204,-32.7902 -4.98,-49.8991 C 247.958,34.357 241.923,17.227 242.272,0.596875 c 0.006,-0.2 0.023,-0.398047 0.03,-0.596875 h 66.745 c -2.059,3.58398 -3.795,7.26211 -5.119,11.0531 -5.123,14.6731 -4.004,30.9571 -2.737,47.0867" /><path
       inkscape:connector-curvature="0"
       id="path38"
       style="fill:#000000;fill-opacity:1;fill-rule:nonzero;stroke:none;stroke-width:0.1"
       d="m 446.333,36.825 c -17.303,6.0398 -33.73,13.025 -45.143,24.3441 -11.138,11.052 -17.368,26.1969 -23.398,41.2669 -6.016,14.995 -13.12,29.699 -25.005,40.015 -12.365,10.712 -29.373,16.972 -46.869,23.001 -17.506,6.02 -34.536,12.259 -46.939,22.946 -11.93,10.274 -19.068,24.966 -25.081,39.957 l -2.268,9.133 c 2.983,-17.987 5.212,-35.954 13.001,-50.722 7.482,-14.127 20.788,-24.647 35.205,-33.441 14.639,-8.912 29.768,-17.278 39.872,-29.806 10.118,-12.57 14.764,-29.4561 17.698,-47.067 2.997,-17.986 5.177,-35.9739 12.885,-50.809 C 355.602,15.4691 363.923,7.14609 373.513,0 H 500 v 10.5441 c -1.662,1.5789 -3.407,3.0848 -5.254,4.4829 -13.345,10.048 -30.839,15.6761 -48.413,21.798" /><path
       inkscape:connector-curvature="0"
       id="path40"
       style="fill:#000000;fill-opacity:1;fill-rule:nonzero;stroke:none;stroke-width:0.1"
       d="m 466.543,147.509 c -14.95,5.238 -27.297,16.246 -39.431,27.27 -12.087,10.962 -25.023,21.205 -40.319,25.465 -15.903,4.415 -34.01,2.854 -52.453,0.877 -18.449,-1.99 -36.568,-3.579 -52.494,0.797 -15.315,4.207 -28.278,14.419 -40.361,25.38 l -6.101,7.271 c 10.682,-14.944 20.679,-30.188 34.262,-40.195 13.024,-9.56 29.686,-13.404 46.586,-15.222 17.152,-1.831 34.503,-2.963 49.177,-9.972 14.701,-7.04 26.395,-20.289 36.87,-34.91 10.696,-14.939 20.656,-30.221 34.199,-40.3239 12.969,-9.6402 29.604,-13.5852 46.489,-15.4172 5.689,-0.6141 11.401,-1.143 17.033,-1.8269 v 66.696 c -11.863,-0.362 -23.238,0.528 -33.457,4.111" /></g></svg>
