<?xml version="1.0" encoding="UTF-8" standalone="no"?>
<!-- Generator: Moho 12.5 build 22414 -->

<svg
   xmlns:dc="http://purl.org/dc/elements/1.1/"
   xmlns:cc="http://creativecommons.org/ns#"
   xmlns:rdf="http://www.w3.org/1999/02/22-rdf-syntax-ns#"
   xmlns:svg="http://www.w3.org/2000/svg"
   xmlns="http://www.w3.org/2000/svg"
   xmlns:sodipodi="http://sodipodi.sourceforge.net/DTD/sodipodi-0.dtd"
   xmlns:inkscape="http://www.inkscape.org/namespaces/inkscape"
   version="1.1"
   id="Frame_0"
   width="720px"
   height="720px"
   sodipodi:docname="sunbeams-radial-publicdomainvectors.svg"
   inkscape:version="0.92.5 (0.92.5+68)">
  <metadata
     id="metadata58">
    <rdf:RDF>
      <cc:Work
         rdf:about="">
        <dc:format>image/svg+xml</dc:format>
        <dc:type
           rdf:resource="http://purl.org/dc/dcmitype/StillImage" />
        <dc:title></dc:title>
      </cc:Work>
    </rdf:RDF>
  </metadata>
  <defs
     id="defs56" />
  <sodipodi:namedview
     pagecolor="#ffffff"
     bordercolor="#666666"
     borderopacity="1"
     objecttolerance="10"
     gridtolerance="10"
     guidetolerance="10"
     inkscape:pageopacity="0"
     inkscape:pageshadow="2"
     inkscape:window-width="1269"
     inkscape:window-height="828"
     id="namedview54"
     showgrid="false"
     inkscape:zoom="0.65555556"
     inkscape:cx="282.36037"
     inkscape:cy="264.55733"
     inkscape:window-x="2002"
     inkscape:window-y="31"
     inkscape:window-maximized="0"
     inkscape:current-layer="Frame_0" />
  <path
     inkscape:connector-curvature="0"
     id="path14"
     style="fill:#000000;fill-opacity:1;fill-rule:nonzero;stroke:none;stroke-width:0.14404891"
     d="m 632.66332,344.72071 c -22.70643,-6.85673 -46.05388,-12.25712 -68.63787,-8.45567 -23.46844,3.96855 -45.96313,17.03812 -68.63499,30.85528 -22.67042,13.83302 -45.16798,26.94868 -68.63931,30.98348 -22.56958,3.88068 -45.93431,-1.46642 -68.63642,-8.3217 l -12.57403,-5.71298 c 23.43244,12.87798 46.16911,26.56406 70.20944,31.26725 23.02334,4.46408 47.11408,-0.7116 70.20801,-8.65878 23.43244,-8.08547 46.67473,-17.19944 70.208,-17.05251 23.59377,0.1671 47.2538,10.22891 70.21089,22.82023 23.44827,12.85925 46.16335,26.62024 70.20943,31.47037 7.69653,1.54132 15.5256,1.98211 23.39211,1.61622 v -93.2875 c -6.1941,1.84813 -12.41558,3.18347 -18.67882,3.82017 -22.75542,2.31918 -45.82773,-4.43671 -68.63644,-11.34386" />
  <path
     inkscape:connector-curvature="0"
     id="path16"
     style="fill:#000000;fill-opacity:1;fill-rule:nonzero;stroke:none;stroke-width:0.14404891"
     d="m 660.35817,206.69593 c -19.4711,11.72557 -43.26653,15.41034 -66.88479,18.84303 -23.50447,3.437 -46.94123,8.45855 -65.59988,21.44313 -19.37602,13.51466 -33.83709,34.81806 -48.12098,56.86474 -14.27381,22.06254 -28.70896,43.40338 -48.06337,56.97712 -18.61112,13.05515 -42.0378,18.13143 -65.54082,21.56555 l -13.87046,0.17718 c 26.84063,1.67962 53.40902,4.38485 77.1598,-1.55716 22.72804,-5.72594 42.13143,-20.58892 59.40721,-37.53051 17.51347,-17.2052 34.40465,-35.25885 55.67203,-45.09307 21.32933,-9.83854 47.12272,-10.78927 73.40157,-9.16728 26.84495,1.658 53.43206,4.43528 77.24911,-1.37422 8.73656,-2.14489 16.98048,-5.64671 24.81099,-10.08918 V 137.1491 c -3.38228,5.10221 -6.72997,10.29229 -10.11945,15.48238 -14.23635,21.77731 -29.55451,42.05364 -49.50096,54.06445" />
  <path
     inkscape:connector-curvature="0"
     id="path18"
     style="fill:#000000;fill-opacity:1;fill-rule:nonzero;stroke:none;stroke-width:0.14404891"
     d="m 557.05925,89.45739 c -12.32915,18.80846 -32.12867,32.20213 -51.87922,45.29762 -19.65116,13.04939 -38.53452,27.49749 -49.56868,47.0968 -11.45476,20.37859 -15.00989,45.69663 -18.0767,71.60815 -3.04951,25.92161 -6.5715,51.26126 -17.97298,71.68739 -10.96357,19.64251 -29.81668,34.13527 -49.46207,47.18177 l -12.41414,6.03277 c 24.92334,-9.8515 50.06708,-18.66441 68.82226,-34.07332 17.93121,-14.78519 28.80545,-36.39107 36.83762,-58.96931 8.13012,-22.91963 15.32104,-46.3391 30.11199,-64.20116 14.84568,-17.89809 37.65871,-29.67409 62.05772,-39.34265 24.92046,-9.87166 50.10741,-18.62408 68.98647,-33.94656 18.0306,-14.68434 29.04313,-36.21822 37.08971,-58.773397 8.1546,-22.913869 15.25189,-46.373672 29.95066,-64.325048 7.62161,-9.311321 17.40542,-16.9790456 28.43669,-23.5620811 V -0.45794908 H 580.12148 C 579.23702,6.22448 578.45051,12.99478 577.62367,19.785246 574.47908,45.434597 569.69666,70.187965 557.05925,89.45739" />
  <path
     inkscape:connector-curvature="0"
     id="path20"
     style="fill:#000000;fill-opacity:1;fill-rule:nonzero;stroke:none;stroke-width:0.14404891"
     d="m 411.86802,27.566768 c -2.74556,22.167689 -14.6296,42.618313 -26.60152,62.780845 -11.90419,20.077527 -22.49467,41.091387 -23.72341,63.421857 -1.25754,23.20916 6.79622,47.52462 15.55297,72.16994 8.77834,24.64533 16.87101,48.96943 15.67683,72.20021 -1.14519,22.33766 -11.68668,43.37745 -23.58369,63.45209 l -8.50752,10.69421 c 18.08101,-19.4322 36.81458,-38.01883 46.86055,-59.84369 9.58213,-20.91302 9.77373,-44.9836 6.97053,-68.72863 -2.86081,-24.09073 -6.79478,-48.23476 -1.41168,-70.5926 5.41912,-22.40969 20.73296,-42.68026 38.4193,-61.72208 18.0666,-19.449491 36.86787,-37.998667 47.0651,-59.796149 7.4502,-16.003835 9.37757,-33.888949 8.62563,-52.06072008 h -96.07053 c 1.44192,9.53603898 1.85678,18.91218208 0.72744,28.02471708" />
  <path
     inkscape:connector-curvature="0"
     id="path22"
     style="fill:#000000;fill-opacity:1;fill-rule:nonzero;stroke:none;stroke-width:0.14404891"
     d="m 257.48359,101.11383 c -1.79629,23.12849 -1.99652,46.54652 6.82359,67.18585 9.18601,21.44168 27.25119,39.94188 46.09998,58.43777 18.86177,18.49156 36.97016,36.97447 46.22386,58.41039 8.8979,20.61053 8.75818,44.03144 6.96045,67.1556 l -2.90979,13.23378 c 7.65044,-25.15958 16.26599,-49.83804 15.61346,-73.75593 -0.66551,-22.89946 -11.1926,-44.66669 -24.27224,-64.87242 -13.29283,-20.49673 -27.56808,-40.5829 -32.66021,-63.00556 -5.08349,-22.4846 -0.29387,-47.23365 7.17363,-71.877531 C 334.16659,66.85323 342.8585,42.17765 342.35578,18.222314 342.21029,11.90721 341.29558,5.6799752 339.80322,-0.45794908 H 233.85669 C 242.39302,10.220397 249.3794,21.36114 253.54241,33.284069 c 7.37963,21.136299 5.76772,44.593224 3.94118,67.829761" />
  <path
     inkscape:connector-curvature="0"
     id="path24"
     style="fill:#000000;fill-opacity:1;fill-rule:nonzero;stroke:none;stroke-width:0.14404891"
     d="m 113.43525,105.47707 c 16.04575,15.91741 25.02072,37.73504 33.70686,59.44178 8.66311,21.59869 18.89635,42.78253 36.01944,57.64406 17.81021,15.42907 42.31005,24.44654 67.51285,33.13125 25.21721,8.67174 49.74874,17.65752 67.61656,33.05346 17.1836,14.79959 27.46582,35.96182 36.12747,57.55619 l 3.26703,13.15744 C 353.38992,333.5526 350.17763,307.66989 338.9591,286.39819 328.17993,266.04551 309.01421,250.89302 288.24668,238.22535 267.15935,225.38915 245.36619,213.33514 230.81005,195.29013 216.23518,177.18173 209.54411,152.85764 205.31628,127.49207 201.00057,101.58198 197.86031,75.67046 186.75557,54.299367 176.09595,33.877552 157.03396,18.611246 136.29409,5.9349418 132.78001,3.7900536 129.24347,1.6696542 125.72335,-0.45794908 H -0.2660232 V 51.638783 c 15.0238702,7.332091 31.8179582,12.89814 48.6738422,18.769578 24.925072,8.700551 48.587843,18.762364 65.027431,35.068709" />
  <path
     inkscape:connector-curvature="0"
     id="path26"
     style="fill:#000000;fill-opacity:1;fill-rule:nonzero;stroke:none;stroke-width:0.14404891"
     d="m 76.096182,269.12816 c 17.408023,15.79209 36.045508,30.54558 58.079368,36.68493 22.90594,6.35977 48.99033,4.10972 75.55871,1.26187 26.57414,-2.86512 52.67436,-5.1555 75.61272,1.14808 22.06398,6.06013 40.73847,20.77041 58.14245,36.55962 l 8.78844,10.47234 c -15.38731,-21.52522 -29.78788,-43.48692 -49.3526,-57.89901 -18.76094,-13.77252 -42.76381,-19.30833 -67.10664,-21.92713 -24.7087,-2.63897 -49.70263,-4.27105 -70.83749,-14.366 C 143.80018,250.92326 126.9551,231.83821 111.86929,210.77395 96.459944,189.2588 82.111951,167.24236 62.606289,152.69055 44.973836,139.58497 22.636603,133.78844 -0.2660232,130.96075 v 94.26994 c 6.7691751,0.95504 13.3205932,2.42723 19.5641482,4.61389 21.534881,7.54816 39.32089,23.40507 56.798057,39.28358" />
  <path
     inkscape:connector-curvature="0"
     id="path28"
     style="fill:#000000;fill-opacity:1;fill-rule:nonzero;stroke:none;stroke-width:0.14404891"
     d="m 127.0535,401.55809 c 23.46657,-3.96855 45.96556,-17.03954 68.63743,-30.85527 22.66898,-13.83302 45.16654,-26.94724 68.63642,-30.98349 22.57103,-3.88067 45.93577,1.46642 68.63787,8.32172 l 12.57548,5.71153 c -23.43532,-12.87653 -46.17056,-26.56406 -70.20945,-31.26581 -23.02621,-4.46408 -47.11407,0.71159 -70.20944,8.65877 -23.43243,8.08692 -46.67617,17.19944 -70.20916,17.05396 C 111.31903,348.03097 87.661148,337.9677 64.703352,325.37926 42.965506,313.45634 21.853985,300.77571 -0.2660232,295.11891 v 86.19598 c 19.5130102,0.11381 39.1942712,5.88441 58.6825052,11.78753 22.705133,6.85673 46.056758,12.25712 68.637018,8.45567" />
  <path
     inkscape:connector-curvature="0"
     id="path30"
     style="fill:#000000;fill-opacity:1;fill-rule:nonzero;stroke:none;stroke-width:0.14404891"
     d="m 30.721348,531.12578 c 19.473685,-11.72414 43.266966,-15.40748 66.884938,-18.84305 23.503594,-3.43556 46.944394,-8.45711 65.600174,-21.44311 19.37746,-13.51179 33.83709,-34.81374 48.12098,-56.86332 14.2738,-22.06252 28.71038,-43.40337 48.0648,-56.9771 18.60968,-13.05516 42.03781,-18.13 65.53938,-21.56702 l 13.87047,-0.17718 c -26.84063,-1.6796 -53.40901,-4.38484 -77.1598,1.55863 -22.72805,5.72594 -42.12999,20.58747 -59.40578,37.52761 -17.51634,17.20953 -34.40752,35.26318 -55.67347,45.09596 -21.33148,9.83854 -47.120706,10.78927 -73.403008,9.16727 -25.419447,-1.57013 -50.599919,-4.13277 -73.4260552,0.53154 V 559.38385 C 8.9519839,548.03856 19.039413,538.16113 30.721348,531.12578" />
  <path
     inkscape:connector-curvature="0"
     id="path32"
     style="fill:#000000;fill-opacity:1;fill-rule:nonzero;stroke:none;stroke-width:0.14404891"
     d="m 134.02028,648.36604 c 12.32814,-18.81019 32.1291,-32.20228 51.87964,-45.29662 19.65115,-13.04939 38.53597,-27.49735 49.57011,-47.09808 11.45334,-20.37861 15.00991,-45.6952 18.07671,-71.60816 3.04951,-25.9216 6.56862,-51.26269 17.97297,-71.68739 10.96213,-19.64251 29.81669,-34.13528 49.46065,-47.18179 l 12.41413,-6.03275 c -24.92335,9.8515 -50.06564,18.66297 -68.82081,34.07476 -17.93265,14.78374 -28.80546,36.39107 -36.83763,58.96642 -8.13156,22.91963 -15.32393,46.33767 -30.11343,64.20261 -14.84423,17.8952 -37.65727,29.67407 -62.05497,39.34119 -24.92493,9.87456 -50.110451,18.62698 -68.989357,33.94673 -18.03089,14.68564 -29.039974,36.21937 -37.088131,58.77309 -8.118453,22.80872 -15.193704,46.15646 -29.7561852,64.0776 v 7.61714 H 113.163 c 0.0962,-0.80803 0.19461,-1.61323 0.29256,-2.42295 3.14372,-25.64915 7.92888,-50.40137 20.56472,-69.6718" />
  <path
     inkscape:connector-curvature="0"
     id="path34"
     style="fill:#000000;fill-opacity:1;fill-rule:nonzero;stroke:none;stroke-width:0.14404891"
     d="m 305.81345,647.47698 c 11.9042,-20.07913 22.49612,-41.09443 23.72342,-63.42316 1.25755,-23.21076 -6.7948,-47.52766 -15.55297,-72.1701 -8.77546,-24.64677 -16.86957,-48.96942 -15.67685,-72.19876 1.1452,-22.3391 11.68669,-43.37889 23.58657,-63.45355 l 8.50466,-10.69419 c -18.07958,19.4322 -36.81315,38.01883 -46.85912,59.84368 -9.58357,20.91303 -9.77515,44.9836 -6.97197,68.72575 2.86226,24.09505 6.79479,48.23766 1.41168,70.59548 -5.41623,22.40984 -20.7344,42.682 -38.41928,61.72338 -18.06662,19.44661 -36.86644,37.99852 -47.06654,59.79616 -4.99275,10.72602 -7.4992,22.30051 -8.38942,34.23912 h 94.48024 c 0.0246,-3.43129 0.21032,-6.83951 0.62806,-10.2044 2.74558,-22.16771 14.62962,-42.61819 26.60152,-62.77941" />
  <path
     inkscape:connector-curvature="0"
     id="path36"
     style="fill:#000000;fill-opacity:1;fill-rule:nonzero;stroke:none;stroke-width:0.14404891"
     d="m 433.59636,636.71104 c 1.79773,-23.13008 1.99796,-46.54811 -6.8236,-67.18758 -9.18456,-21.44169 -27.25117,-39.94189 -46.09853,-58.43777 -18.86321,-18.48868 -36.9716,-36.97447 -46.2253,-58.4104 -8.89935,-20.61051 -8.75817,-44.03143 -6.96044,-67.15561 l 2.90979,-13.23376 c -7.64901,25.16102 -16.26745,49.83948 -15.61346,73.75592 0.6655,22.89945 11.19259,44.66814 24.27368,64.87244 13.29139,20.49526 27.56519,40.5829 32.65876,63.00555 5.08493,22.48618 0.29386,47.23393 -7.17363,71.87912 -7.62883,25.17096 -16.32218,49.84654 -15.81944,73.80205 0.009,0.2881 0.0331,0.57339 0.0432,0.85979 h 96.14545 c -2.96598,-5.16268 -5.46666,-10.46099 -7.37387,-15.92187 -7.37962,-21.13644 -5.76771,-44.59336 -3.94262,-67.82788" />
  <path
     inkscape:connector-curvature="0"
     id="path38"
     style="fill:#000000;fill-opacity:1;fill-rule:nonzero;stroke:none;stroke-width:0.14404891"
     d="m 642.67184,667.41478 c -24.92478,-8.70027 -48.5877,-18.76238 -65.028,-35.06741 -16.04417,-15.92029 -25.01842,-37.73636 -33.70457,-59.44452 -8.66598,-21.60014 -18.89921,-42.7811 -36.01943,-57.64118 -17.81165,-15.43052 -42.31148,-24.44798 -67.51428,-33.1327 -25.21721,-8.67174 -49.74874,-17.65894 -67.61513,-33.05346 -17.18503,-14.79958 -27.46724,-35.96325 -36.12891,-57.55763 l -3.26703,-13.15599 c 4.29698,25.91009 7.50783,51.79136 18.7278,73.0645 10.77774,20.34979 29.94489,35.50374 50.71242,48.1714 21.08732,12.83764 42.88049,24.88877 57.43519,42.93521 14.57487,18.10695 21.26739,42.4312 25.49378,67.79951 4.31714,25.90865 7.45741,51.82002 18.56069,73.18982 7.65045,14.65539 19.63676,26.6446 33.45105,36.93846 h 182.20316 v -15.18866 c -2.39409,-2.27439 -4.90775,-4.44362 -7.56833,-6.45757 C 693.18691,684.34053 667.987,676.2333 642.67184,667.41478" />
  <path
     inkscape:connector-curvature="0"
     id="path40"
     style="fill:#000000;fill-opacity:1;fill-rule:nonzero;stroke:none;stroke-width:0.14404891"
     d="m 671.78413,507.97568 c -21.53532,-7.54529 -39.32104,-23.40218 -56.79993,-39.28214 -17.41119,-15.79064 -36.04537,-30.54558 -58.07908,-36.68206 -22.9081,-6.35977 -48.99104,-4.11116 -75.55798,-1.26332 -26.57559,2.86658 -52.67582,5.15551 -75.61704,-1.14806 -22.06109,-6.06015 -40.73416,-20.77042 -58.13959,-36.55961 l -8.78842,-10.47381 c 15.38731,21.52667 29.78787,43.4855 49.35404,57.90046 18.76093,13.77109 42.76236,19.30832 67.10663,21.92714 24.70727,2.63754 49.70119,4.26816 70.83894,14.36455 21.17662,10.14105 38.02171,29.22609 53.11084,50.28748 15.40746,21.51947 29.75474,43.53302 49.26328,58.08615 18.68171,13.8866 42.64425,19.56933 66.9669,22.2083 8.19495,0.8846 16.42302,1.64648 24.53586,2.63163 v -96.07486 c -17.08852,0.52146 -33.47409,-0.76059 -48.19445,-5.92185" />
</svg>
