<?xml version="1.0" encoding="UTF-8"?>
<svg xmlns="http://www.w3.org/2000/svg" width="685.2" height="997.4" version="1.1" viewBox="0 0 685.2 997.4">
  <!-- Generator: Adobe Illustrator 28.6.0, SVG Export Plug-In . SVG Version: 1.2.0 Build 709)  -->
  <g>
    <g id="PEKSEG">
      <polygon points="558.1 134.4 599.2 93.3 558.1 52.3 138.2 52.3 97.1 93.3 138.2 134.4 558.1 134.4"/>
      <polygon points="134.4 859.2 134.4 543.5 92.3 501.5 52.3 501.5 52.3 859.2 93.3 900.2 134.4 859.2"/>
      <rect x="307.1" y="545.3" width="82.2" height="312.1"/>
      <rect x="219.4" y="457.6" width="82.1" height="82.1"/>
      <polygon points="213.8 457.6 138.2 457.6 97.1 498.7 138.2 539.8 213.8 539.8 213.8 457.6"/>
      <polygon points="558.2 457.6 482.5 457.6 482.5 539.8 558.2 539.8 599.2 498.7 558.2 457.6"/>
      <rect x="307.1" y="457.6" width="82.1" height="82.1"/>
      <rect x="394.8" y="457.6" width="82.2" height="82.2"/>
      <path d="M263.3,738.2c25.5-61.5,38.4-126.4,38.4-192.9h-82.5v276.4c17.2-26.3,32-54.2,44.1-83.5h0Z"/>
      <path d="M213.7,613.7c-5.2,31.8-14.1,62.8-26.5,92.9-12.5,30.2-28.3,58.5-47.1,84.8v66h53.5c7-8.9,13.7-18,20.1-27.4v-216.3h0Z"/>
      <path d="M301.5,857.4v-235.7c-6.1,40.6-17.2,80.3-33.1,118.6-13.3,32.2-29.8,62.8-49.3,91.3v25.7h82.3,0Z"/>
      <path d="M394.8,857.4v-235.7c6.1,40.6,17.2,80.3,33.1,118.6,13.3,32.2,29.8,62.8,49.3,91.3v25.7h-82.3,0Z"/>
      <polygon points="213.7 863 138.2 863 97.1 904 138.2 945.1 213.7 945.1 213.7 863"/>
      <rect x="219.2" y="863" width="82.2" height="82.2"/>
      <polygon points="561.9 543.5 561.9 859.2 603 900.2 644.1 859.2 644.1 501.5 604 501.5 561.9 543.5"/>
      <rect x="219.4" y="140" width="82.1" height="109.4"/>
      <rect x="307.1" y="342.6" width="82.2" height="109.4"/>
      <polygon points="219.4 254.9 219.4 337.1 301.5 337.1 301.5 337.1 301.5 254.9 219.4 254.9"/>
      <polygon points="140 254.9 140 337.1 213.8 337.1 213.8 337.1 213.8 254.9 140 254.9"/>
      <rect x="219.4" y="342.6" width="82.1" height="109.4"/>
      <rect x="307.1" y="140" width="82.2" height="109.4"/>
      <rect x="394.8" y="140" width="82.1" height="109.4"/>
      <polygon points="307.1 254.9 307.1 337.1 307.1 337.1 389.2 337.1 389.2 254.9 307.1 254.9"/>
      <polygon points="394.8 254.9 394.8 337.1 477 337.1 477 337.1 477 254.9 394.8 254.9"/>
      <polygon points="482.5 254.9 482.5 337.1 556.4 337.1 556.4 337.1 556.4 254.9 482.5 254.9"/>
      <rect x="394.8" y="342.6" width="82.1" height="109.4"/>
      <polygon points="558.2 863 482.7 863 482.7 945.1 558.2 945.1 599.2 904 558.2 863"/>
      <rect x="394.8" y="863" width="82.3" height="82.2"/>
      <rect x="306.9" y="863" width="82.3" height="82.2"/>
      <path d="M433,738.2c-25.5-61.5-38.4-126.4-38.4-192.9h82.5v276.4c-17.2-26.3-32-54.2-44.1-83.5h0Z"/>
      <path d="M482.7,613.7c5.2,31.8,14.1,62.8,26.5,92.9,12.5,30.2,28.3,58.5,47.1,84.8v66h-53.5c-7-8.9-13.7-18-20.1-27.4v-216.3h0Z"/>
      <path d="M514.3,704.5c11.3,27.2,25.4,53.2,42,77.2v-236.4h-73.7c0,54.9,10.7,108.5,31.7,159.2h0Z"/>
      <polygon points="134.4 333.3 134.4 258.7 97.1 296 134.4 333.3"/>
      <polygon points="134.3 251 134.4 138.2 93.3 97.1 52.3 138.2 52.3 293.2 92.1 293.2 134.3 251"/>
      <polygon points="134.4 341.1 134.4 453.8 92.3 495.9 52.3 495.9 52.3 298.8 92.1 298.8 134.4 341.1"/>
      <polygon points="561.9 453.8 604 495.9 644.1 495.9 644.1 298.8 604.3 298.8 561.9 341.2 561.9 453.8"/>
      <polygon points="604.3 293.2 644.1 293.2 644.1 138.2 603 97.1 561.9 138.2 561.9 250.9 604.3 293.2"/>
      <polygon points="561.9 258.7 561.9 333.3 599.2 296 561.9 258.7"/>
    </g>
  </g>
</svg>