{
  "accessors": [
    {
      "name": "ramp_2_0_positions",
      "componentType": 5126,
      "count": 388,
      "min": [
        -0.49994999170303345,
        0,
        -0.49994999170303345
      ],
      "max": [
        0.49994999170303345,
        0.6466519832611084,
        0.49994999170303345
      ],
      "type": "VEC3",
      "bufferView": 0,
      "byteOffset": 0
    },
    {
      "name": "ramp_2_0_normals",
      "componentType": 5126,
      "count": 388,
      "min": [
        -1,
        -0.9957747459411621,
        -1
      ],
      "max": [
        1,
        0.9957747459411621,
        1
      ],
      "type": "VEC3",
      "bufferView": 1,
      "byteOffset": 0
    },
    {
      "name": "ramp_2_0_texcoords",
      "componentType": 5126,
      "count": 388,
      "min": [
        0.03125,
        0.7749999761581421
      ],
      "max": [
        0.21875,
        0.9750000238418579
      ],
      "type": "VEC2",
      "bufferView": 2,
      "byteOffset": 0
    },
    {
      "name": "ramp_2_0_indices",
      "componentType": 5123,
      "count": 1104,
      "min": [
        0
      ],
      "max": [
        387
      ],
      "type": "SCALAR",
      "bufferView": 3,
      "byteOffset": 0
    },
    {
      "name": "ramp_3_0_positions",
      "componentType": 5126,
      "count": 388,
      "min": [
        -0.49994999170303345,
        0,
        -0.49994999170303345
      ],
      "max": [
        0.49994999170303345,
        0.6466519832611084,
        0.49994999170303345
      ],
      "type": "VEC3",
      "bufferView": 0,
      "byteOffset": 4656
    },
    {
      "name": "ramp_3_0_normals",
      "componentType": 5126,
      "count": 388,
      "min": [
        -1,
        -0.9957747459411621,
        -1
      ],
      "max": [
        1,
        0.9957747459411621,
        1
      ],
      "type": "VEC3",
      "bufferView": 1,
      "byteOffset": 4656
    },
    {
      "name": "ramp_3_0_texcoords",
      "componentType": 5126,
      "count": 388,
      "min": [
        0.03125,
        0.7749999761581421
      ],
      "max": [
        0.21875,
        0.9750000238418579
      ],
      "type": "VEC2",
      "bufferView": 2,
      "byteOffset": 3104
    },
    {
      "name": "ramp_3_0_indices",
      "componentType": 5123,
      "count": 1104,
      "min": [
        0
      ],
      "max": [
        387
      ],
      "type": "SCALAR",
      "bufferView": 3,
      "byteOffset": 2208
    }
  ],
  "asset": {
    "generator": "obj2gltf",
    "version": "2.0"
  },
  "buffers": [
    {
      "name": "ramp",
      "byteLength": 38888,
      "uri": "data:application/octet-stream;base64,"
    }
  ],
  "bufferViews": [
    {
      "name": "bufferView_0",
      "buffer": 0,
      "byteLength": 9312,
      "byteOffset": 0,
      "byteStride": 12,
      "target": 34962
    },
    {
      "name": "bufferView_1",
      "buffer": 0,
      "byteLength": 9312,
      "byteOffset": 9312,
      "byteStride": 12,
      "target": 34962
    },
    {
      "name": "bufferView_2",
      "buffer": 0,
      "byteLength": 6208,
      "byteOffset": 18624,
      "byteStride": 8,
      "target": 34962
    },
    {
      "name": "bufferView_3",
      "buffer": 0,
      "byteLength": 4416,
      "byteOffset": 24832,
      "target": 34963
    },
    {
      "buffer": 0,
      "byteOffset": 29248,
      "byteLength": 9637
    }
  ],
  "images": [
    {
      "name": "colormap",
      "mimeType": "image/png",
      "bufferView": 4
    }
  ],
  "materials": [
    {
      "name": "colormap",
      "pbrMetallicRoughness": {
        "baseColorTexture": {
          "index": 0
        },
        "baseColorFactor": [
          1,
          1,
          1,
          1
        ],
        "metallicFactor": 0,
        "roughnessFactor": 1
      },
      "emissiveFactor": [
        0,
        0,
        0
      ],
      "alphaMode": "OPAQUE",
      "doubleSided": false
    }
  ],
  "meshes": [
    {
      "name": "ramp_2",
      "primitives": [
        {
          "attributes": {
            "POSITION": 0,
            "NORMAL": 1,
            "TEXCOORD_0": 2
          },
          "indices": 3,
          "material": 0,
          "mode": 4
        }
      ]
    },
    {
      "name": "ramp_3",
      "primitives": [
        {
          "attributes": {
            "POSITION": 4,
            "NORMAL": 5,
            "TEXCOORD_0": 6
          },
          "indices": 7,
          "material": 0,
          "mode": 4
        }
      ]
    }
  ],
  "nodes": [
    {
      "name": "ramp",
      "mesh": 0
    },
    {
      "name": "ramp_1",
      "mesh": 1
    }
  ],
  "samplers": [
    {
      "wrapS": 10497,
      "wrapT": 10497
    }
  ],
  "scene": 0,
  "scenes": [
    {
      "nodes": [
        0,
        1
      ]
    }
  ],
  "textures": [
    {
      "name": "colormap",
      "sampler": 0,
      "source": 0
    }
  ]
}
