{
  "accessors": [
    {
      "name": "supports-bottom_2_0_positions",
      "componentType": 5126,
      "count": 256,
      "min": [
        -0.5,
        0,
        -0.5
      ],
      "max": [
        0.5,
        1,
        0.5
      ],
      "type": "VEC3",
      "bufferView": 0,
      "byteOffset": 0
    },
    {
      "name": "supports-bottom_2_0_normals",
      "componentType": 5126,
      "count": 256,
      "min": [
        -0.9238795638084412,
        -1,
        -0.9238795638084412
      ],
      "max": [
        0.9238795638084412,
        1,
        0.9238795638084412
      ],
      "type": "VEC3",
      "bufferView": 1,
      "byteOffset": 0
    },
    {
      "name": "supports-bottom_2_0_texcoords",
      "componentType": 5126,
      "count": 256,
      "min": [
        0.21875,
        0.7749999761581421
      ],
      "max": [
        0.21875,
        0.9750000238418579
      ],
      "type": "VEC2",
      "bufferView": 2,
      "byteOffset": 0
    },
    {
      "name": "supports-bottom_2_0_indices",
      "componentType": 5123,
      "count": 720,
      "min": [
        0
      ],
      "max": [
        255
      ],
      "type": "SCALAR",
      "bufferView": 3,
      "byteOffset": 0
    },
    {
      "name": "supports-bottom_3_0_positions",
      "componentType": 5126,
      "count": 256,
      "min": [
        -0.5,
        0,
        -0.5
      ],
      "max": [
        0.5,
        1,
        0.5
      ],
      "type": "VEC3",
      "bufferView": 0,
      "byteOffset": 3072
    },
    {
      "name": "supports-bottom_3_0_normals",
      "componentType": 5126,
      "count": 256,
      "min": [
        -0.9238795638084412,
        -1,
        -0.9238795638084412
      ],
      "max": [
        0.9238795638084412,
        1,
        0.9238795638084412
      ],
      "type": "VEC3",
      "bufferView": 1,
      "byteOffset": 3072
    },
    {
      "name": "supports-bottom_3_0_texcoords",
      "componentType": 5126,
      "count": 256,
      "min": [
        0.21875,
        0.7749999761581421
      ],
      "max": [
        0.21875,
        0.9750000238418579
      ],
      "type": "VEC2",
      "bufferView": 2,
      "byteOffset": 2048
    },
    {
      "name": "supports-bottom_3_0_indices",
      "componentType": 5123,
      "count": 720,
      "min": [
        0
      ],
      "max": [
        255
      ],
      "type": "SCALAR",
      "bufferView": 3,
      "byteOffset": 1440
    }
  ],
  "asset": {
    "generator": "obj2gltf",
    "version": "2.0"
  },
  "buffers": [
    {
      "name": "supports-bottom",
      "byteLength": 28904,
      "uri": "data:application/octet-stream;base64,"
    }
  ],
  "bufferViews": [
    {
      "name": "bufferView_0",
      "buffer": 0,
      "byteLength": 6144,
      "byteOffset": 0,
      "byteStride": 12,
      "target": 34962
    },
    {
      "name": "bufferView_1",
      "buffer": 0,
      "byteLength": 6144,
      "byteOffset": 6144,
      "byteStride": 12,
      "target": 34962
    },
    {
      "name": "bufferView_2",
      "buffer": 0,
      "byteLength": 4096,
      "byteOffset": 12288,
      "byteStride": 8,
      "target": 34962
    },
    {
      "name": "bufferView_3",
      "buffer": 0,
      "byteLength": 2880,
      "byteOffset": 16384,
      "target": 34963
    },
    {
      "buffer": 0,
      "byteOffset": 19264,
      "byteLength": 9637
    }
  ],
  "images": [
    {
      "name": "colormap",
      "mimeType": "image/png",
      "bufferView": 4
    }
  ],
  "materials": [
    {
      "name": "colormap",
      "pbrMetallicRoughness": {
        "baseColorTexture": {
          "index": 0
        },
        "baseColorFactor": [
          1,
          1,
          1,
          1
        ],
        "metallicFactor": 0,
        "roughnessFactor": 1
      },
      "emissiveFactor": [
        0,
        0,
        0
      ],
      "alphaMode": "OPAQUE",
      "doubleSided": false
    }
  ],
  "meshes": [
    {
      "name": "supports-bottom_2",
      "primitives": [
        {
          "attributes": {
            "POSITION": 0,
            "NORMAL": 1,
            "TEXCOORD_0": 2
          },
          "indices": 3,
          "material": 0,
          "mode": 4
        }
      ]
    },
    {
      "name": "supports-bottom_3",
      "primitives": [
        {
          "attributes": {
            "POSITION": 4,
            "NORMAL": 5,
            "TEXCOORD_0": 6
          },
          "indices": 7,
          "material": 0,
          "mode": 4
        }
      ]
    }
  ],
  "nodes": [
    {
      "name": "supports-bottom",
      "mesh": 0
    },
    {
      "name": "supports-bottom_1",
      "mesh": 1
    }
  ],
  "samplers": [
    {
      "wrapS": 10497,
      "wrapT": 10497
    }
  ],
  "scene": 0,
  "scenes": [
    {
      "nodes": [
        0,
        1
      ]
    }
  ],
  "textures": [
    {
      "name": "colormap",
      "sampler": 0,
      "source": 0
    }
  ]
}
