{
  "accessors": [
    {
      "name": "tunnel-double_2_0_positions",
      "componentType": 5126,
      "count": 188,
      "min": [
        -0.49994999170303345,
        0,
        -0.49994999170303345
      ],
      "max": [
        0.49994999170303345,
        0.29663699865341187,
        0.49994999170303345
      ],
      "type": "VEC3",
      "bufferView": 0,
      "byteOffset": 0
    },
    {
      "name": "tunnel-double_2_0_normals",
      "componentType": 5126,
      "count": 188,
      "min": [
        -1,
        -1,
        -1
      ],
      "max": [
        1,
        1,
        1
      ],
      "type": "VEC3",
      "bufferView": 1,
      "byteOffset": 0
    },
    {
      "name": "tunnel-double_2_0_texcoords",
      "componentType": 5126,
      "count": 188,
      "min": [
        0.03125,
        0.5249999761581421
      ],
      "max": [
        0.21875,
        0.9750000238418579
      ],
      "type": "VEC2",
      "bufferView": 2,
      "byteOffset": 0
    },
    {
      "name": "tunnel-double_2_0_indices",
      "componentType": 5123,
      "count": 462,
      "min": [
        0
      ],
      "max": [
        187
      ],
      "type": "SCALAR",
      "bufferView": 3,
      "byteOffset": 0
    },
    {
      "name": "tunnel-double_3_0_positions",
      "componentType": 5126,
      "count": 188,
      "min": [
        -0.49994999170303345,
        0,
        -0.49994999170303345
      ],
      "max": [
        0.49994999170303345,
        0.29663699865341187,
        0.49994999170303345
      ],
      "type": "VEC3",
      "bufferView": 0,
      "byteOffset": 2256
    },
    {
      "name": "tunnel-double_3_0_normals",
      "componentType": 5126,
      "count": 188,
      "min": [
        -1,
        -1,
        -1
      ],
      "max": [
        1,
        1,
        1
      ],
      "type": "VEC3",
      "bufferView": 1,
      "byteOffset": 2256
    },
    {
      "name": "tunnel-double_3_0_texcoords",
      "componentType": 5126,
      "count": 188,
      "min": [
        0.03125,
        0.5249999761581421
      ],
      "max": [
        0.21875,
        0.9750000238418579
      ],
      "type": "VEC2",
      "bufferView": 2,
      "byteOffset": 1504
    },
    {
      "name": "tunnel-double_3_0_indices",
      "componentType": 5123,
      "count": 462,
      "min": [
        0
      ],
      "max": [
        187
      ],
      "type": "SCALAR",
      "bufferView": 3,
      "byteOffset": 924
    }
  ],
  "asset": {
    "generator": "obj2gltf",
    "version": "2.0"
  },
  "buffers": [
    {
      "name": "tunnel-double",
      "byteLength": 23520,
      "uri": "data:application/octet-stream;base64,"
    }
  ],
  "bufferViews": [
    {
      "name": "bufferView_0",
      "buffer": 0,
      "byteLength": 4512,
      "byteOffset": 0,
      "byteStride": 12,
      "target": 34962
    },
    {
      "name": "bufferView_1",
      "buffer": 0,
      "byteLength": 4512,
      "byteOffset": 4512,
      "byteStride": 12,
      "target": 34962
    },
    {
      "name": "bufferView_2",
      "buffer": 0,
      "byteLength": 3008,
      "byteOffset": 9024,
      "byteStride": 8,
      "target": 34962
    },
    {
      "name": "bufferView_3",
      "buffer": 0,
      "byteLength": 1848,
      "byteOffset": 12032,
      "target": 34963
    },
    {
      "buffer": 0,
      "byteOffset": 13880,
      "byteLength": 9637
    }
  ],
  "images": [
    {
      "name": "colormap",
      "mimeType": "image/png",
      "bufferView": 4
    }
  ],
  "materials": [
    {
      "name": "colormap",
      "pbrMetallicRoughness": {
        "baseColorTexture": {
          "index": 0
        },
        "baseColorFactor": [
          1,
          1,
          1,
          1
        ],
        "metallicFactor": 0,
        "roughnessFactor": 1
      },
      "emissiveFactor": [
        0,
        0,
        0
      ],
      "alphaMode": "OPAQUE",
      "doubleSided": false
    }
  ],
  "meshes": [
    {
      "name": "tunnel-double_2",
      "primitives": [
        {
          "attributes": {
            "POSITION": 0,
            "NORMAL": 1,
            "TEXCOORD_0": 2
          },
          "indices": 3,
          "material": 0,
          "mode": 4
        }
      ]
    },
    {
      "name": "tunnel-double_3",
      "primitives": [
        {
          "attributes": {
            "POSITION": 4,
            "NORMAL": 5,
            "TEXCOORD_0": 6
          },
          "indices": 7,
          "material": 0,
          "mode": 4
        }
      ]
    }
  ],
  "nodes": [
    {
      "name": "tunnel-double",
      "mesh": 0
    },
    {
      "name": "tunnel-double_1",
      "mesh": 1
    }
  ],
  "samplers": [
    {
      "wrapS": 10497,
      "wrapT": 10497
    }
  ],
  "scene": 0,
  "scenes": [
    {
      "nodes": [
        0,
        1
      ]
    }
  ],
  "textures": [
    {
      "name": "colormap",
      "sampler": 0,
      "source": 0
    }
  ]
}
