<?xml version="1.0" encoding="UTF-8" standalone="no"?>
<!-- Created with Inkscape (http://www.inkscape.org/) -->

<svg
   xmlns:dc="http://purl.org/dc/elements/1.1/"
   xmlns:cc="http://creativecommons.org/ns#"
   xmlns:rdf="http://www.w3.org/1999/02/22-rdf-syntax-ns#"
   xmlns:svg="http://www.w3.org/2000/svg"
   xmlns="http://www.w3.org/2000/svg"
   xmlns:sodipodi="http://sodipodi.sourceforge.net/DTD/sodipodi-0.dtd"
   xmlns:inkscape="http://www.inkscape.org/namespaces/inkscape"
   width="210mm"
   height="297mm"
   viewBox="0 0 210 297"
   version="1.1"
   id="svg8"
   inkscape:version="0.92.5 (2060ec1f9f, 2020-04-08)"
   sodipodi:docname="voidkin.svg">
  <defs
     id="defs2" />
  <sodipodi:namedview
     id="base"
     pagecolor="#ffffff"
     bordercolor="#666666"
     borderopacity="1.0"
     inkscape:pageopacity="0.0"
     inkscape:pageshadow="2"
     inkscape:zoom="0.7"
     inkscape:cx="494.62622"
     inkscape:cy="463.41557"
     inkscape:document-units="mm"
     inkscape:current-layer="layer2"
     showgrid="false"
     inkscape:window-width="1432"
     inkscape:window-height="981"
     inkscape:window-x="1958"
     inkscape:window-y="51"
     inkscape:window-maximized="0" />
  <metadata
     id="metadata5">
    <rdf:RDF>
      <cc:Work
         rdf:about="">
        <dc:format>image/svg+xml</dc:format>
        <dc:type
           rdf:resource="http://purl.org/dc/dcmitype/StillImage" />
        <dc:title></dc:title>
      </cc:Work>
    </rdf:RDF>
  </metadata>
  <g
     inkscape:label="Layer 1"
     inkscape:groupmode="layer"
     id="layer1"
     style="display:none">
    <ellipse
       id="path10"
       cx="112.236"
       cy="141.2738"
       style="fill:none;stroke:#000000;stroke-width:0.99290723;stroke-miterlimit:4;stroke-dasharray:none;stroke-opacity:1"
       rx="69.112282"
       ry="61.700615" />
    <path
       style="fill:none;stroke:#000000;stroke-width:1;stroke-linecap:butt;stroke-linejoin:miter;stroke-miterlimit:4;stroke-dasharray:none;stroke-opacity:1"
       d="M 87.046344,132.6883 H 59.333835 l 13.841388,-23.97399 13.849382,23.98783"
       id="path4522"
       inkscape:connector-curvature="0"
       sodipodi:nodetypes="cccc" />
    <path
       style="fill:none;stroke:#000000;stroke-width:1;stroke-linecap:butt;stroke-linejoin:miter;stroke-miterlimit:4;stroke-dasharray:none;stroke-opacity:1"
       d="m 163.85187,132.68831 h -27.7125 l 13.84138,-23.974 13.84938,23.98783"
       id="path4522-3"
       inkscape:connector-curvature="0"
       sodipodi:nodetypes="cccc" />
    <path
       style="fill:none;stroke:#000000;stroke-width:1;stroke-linecap:round;stroke-linejoin:round;stroke-miterlimit:4;stroke-dasharray:none;stroke-opacity:1"
       d="m 117.13105,140.4635 h -12.38892 l 6.18781,-10.7176 6.19139,10.72379"
       id="path4522-6"
       inkscape:connector-curvature="0"
       sodipodi:nodetypes="cccc" />
    <path
       style="fill:none;stroke:#000000;stroke-width:1;stroke-linecap:butt;stroke-linejoin:round;stroke-miterlimit:4;stroke-dasharray:none;stroke-opacity:1"
       d="m 57.19568,149.16237 9.998347,7.31807 5.503888,-4.59315 4.432045,5.84843 6.51122,-4.93566 6.308991,14.10106 5.283898,-14.83335 8.581971,7.6493 7.08263,-9.6217 7.8168,10.06132 7.18641,-7.85173 c 0,0 6.21503,15.62932 6.73295,14.73226 0.51792,-0.89707 6.92543,-14.64268 6.92543,-14.64268 0,0 7.9206,7.70749 9.55042,7.27077 1.62983,-0.43671 4.39774,-7.57945 4.39774,-7.57945 l 7.17707,3.85526 7.32221,-6.26733 -15.15725,31.35394 -5.22203,-3.50693 -1.4757,5.96176 -6.80154,-3.54488 -4.09862,6.67613 -8.00828,-4.99353 -5.28577,6.41477 -9.94148,-6.07861 -9.47921,6.70992 -6.309018,-7.57706 -6.211761,4.31398 -3.508644,-6.22997 -5.298277,3.84068 -4.337229,-6.10097 -4.679899,3.43655 c 0,0 -16.058439,-26.56891 -14.997312,-31.1872 z"
       id="path4556"
       inkscape:connector-curvature="0"
       sodipodi:nodetypes="ccccccccccccccccccccccccccccccccc" />
    <path
       style="fill:none;stroke:#000000;stroke-width:1;stroke-linecap:butt;stroke-linejoin:round;stroke-miterlimit:4;stroke-dasharray:none;stroke-opacity:1"
       d="m 57.195678,149.16237 10.11884,8.68626 5.73775,-3.45725 4.398636,5.18026 6.544629,-4.26749 6.30899,14.10106 5.283899,-14.83335 8.548558,6.17932 7.11604,-8.15172 7.71657,8.39089 7.28664,-6.1813 c 0,0 6.0814,14.76069 6.59932,13.86363 0.51792,-0.89707 7.05906,-13.77405 7.05906,-13.77405 0,0 7.82037,6.605 9.45019,6.16828 1.62983,-0.43671 4.49797,-6.47696 4.49797,-6.47696 l 7.11025,2.81959 7.03468,-7.73575 -16.02588,20.59634 -5.22203,-3.50693 -1.4757,5.96176 -6.80154,-3.54488 -4.09862,6.67613 -8.00828,-4.99353 -5.28577,6.41477 -9.94148,-6.07861 -9.81329,5.70766 -5.974936,-6.5748 -6.21176,4.31398 -3.508645,-6.22997 -5.298276,3.84068 -4.337229,-6.10097 -4.679899,3.43655 c 0,0 -15.189814,-15.81131 -14.128687,-20.4296 z"
       id="path4556-7"
       inkscape:connector-curvature="0"
       sodipodi:nodetypes="ccccccccccccccccccccccccccccccccc" />
  </g>
  <g
     inkscape:groupmode="layer"
     id="layer2"
     inkscape:label="Layer 2"
     style="display:inline">
    <ellipse
       id="path10-5"
       cx="112.23599"
       cy="141.2738"
       style="display:inline;fill:none;stroke:#000000;stroke-width:0.99290729;stroke-miterlimit:4;stroke-dasharray:none;stroke-opacity:1"
       rx="69.112282"
       ry="61.700615" />
    <path
       style="display:inline;fill:none;stroke:#000000;stroke-width:1;stroke-linecap:butt;stroke-linejoin:miter;stroke-miterlimit:4;stroke-dasharray:none;stroke-opacity:1"
       d="m 87.046345,132.6883 h -27.71251 l 13.841387,-23.97399 13.849382,23.98783"
       id="path4522-35"
       inkscape:connector-curvature="0"
       sodipodi:nodetypes="cccc" />
    <path
       style="display:inline;fill:none;stroke:#000000;stroke-width:1;stroke-linecap:butt;stroke-linejoin:miter;stroke-miterlimit:4;stroke-dasharray:none;stroke-opacity:1"
       d="m 163.85187,132.68831 h -27.7125 l 13.84138,-23.974 13.84938,23.98783"
       id="path4522-3-6"
       inkscape:connector-curvature="0"
       sodipodi:nodetypes="cccc" />
    <path
       style="display:inline;fill:none;stroke:#000000;stroke-width:1;stroke-linecap:round;stroke-linejoin:round;stroke-miterlimit:4;stroke-dasharray:none;stroke-opacity:1"
       d="m 117.13105,140.4635 h -12.38892 l 6.18781,-10.7176 6.19139,10.72379"
       id="path4522-6-2"
       inkscape:connector-curvature="0"
       sodipodi:nodetypes="cccc" />
    <path
       style="display:inline;fill:none;stroke:#000000;stroke-width:1;stroke-linecap:butt;stroke-linejoin:round;stroke-miterlimit:4;stroke-dasharray:none;stroke-opacity:1"
       d="m 57.195677,149.16236 10.118841,8.68627 5.73775,-3.45725 4.398637,5.18025 6.544627,-4.26748 6.30899,14.10105 5.283901,-14.83334 8.548557,6.17932 7.11604,-8.15172 7.71657,8.39089 7.28664,-6.18131 c 0,0 6.0814,14.7607 6.59932,13.86364 0.51792,-0.89707 7.05906,-13.77406 7.05906,-13.77406 0,0 5.75378,8.26577 7.3836,7.82906 1.62983,-0.43672 4.45703,-8.43267 4.45703,-8.43267 l 5.14781,4.70472 11.10465,-9.32594 -16.95623,22.88433 -4.01098,-2.76719 -3.13467,4.51472 -5.42327,-5.12557 -4.09862,6.67613 -8.00828,-4.99354 -5.68667,6.01387 -9.54058,-5.6777 -9.81329,5.70766 -5.974935,-6.5748 -6.211761,4.31397 -3.508644,-6.22997 -5.298276,3.84069 -4.33723,-6.10098 -4.6799,3.43656 z"
       id="path4556-7-9"
       inkscape:connector-curvature="0"
       sodipodi:nodetypes="ccccccccccccccccccccccccccccccccc" />
  </g>
  <g
     inkscape:groupmode="layer"
     id="layer3"
     inkscape:label="Layer 3"
     style="display:inline">
    <rect
       style="fill:#ffffff;fill-opacity:1;stroke:none;stroke-width:1;stroke-linecap:round;stroke-linejoin:round;stroke-miterlimit:4;stroke-dasharray:none;stroke-opacity:1"
       id="rect4642"
       width="123.22024"
       height="50.837795"
       x="51.404762"
       y="143.73065" />
    <ellipse
       id="path10-1"
       cx="112.23599"
       cy="141.2738"
       style="display:inline;fill:none;stroke:#000000;stroke-width:0.99290729;stroke-miterlimit:4;stroke-dasharray:none;stroke-opacity:1"
       rx="69.112282"
       ry="61.700615" />
    <path
       style="display:inline;fill:none;stroke:#000000;stroke-width:1;stroke-linecap:butt;stroke-linejoin:miter;stroke-miterlimit:4;stroke-dasharray:none;stroke-opacity:1"
       d="m 87.046344,132.6883 h -27.71251 l 13.841387,-23.97399 13.849382,23.98783"
       id="path4522-2"
       inkscape:connector-curvature="0"
       sodipodi:nodetypes="cccc" />
    <path
       style="display:inline;fill:none;stroke:#000000;stroke-width:1;stroke-linecap:butt;stroke-linejoin:miter;stroke-miterlimit:4;stroke-dasharray:none;stroke-opacity:1"
       d="m 163.85187,132.68831 h -27.7125 l 13.84138,-23.974 13.84938,23.98783"
       id="path4522-3-7"
       inkscape:connector-curvature="0"
       sodipodi:nodetypes="cccc" />
    <path
       style="display:inline;fill:none;stroke:#000000;stroke-width:1;stroke-linecap:round;stroke-linejoin:round;stroke-miterlimit:4;stroke-dasharray:none;stroke-opacity:1"
       d="m 117.13105,140.4635 h -12.38892 l 6.18781,-10.7176 6.19139,10.72379"
       id="path4522-6-0"
       inkscape:connector-curvature="0"
       sodipodi:nodetypes="cccc" />
    <path
       style="display:inline;fill:none;stroke:#000000;stroke-width:1;stroke-linecap:butt;stroke-linejoin:round;stroke-miterlimit:4;stroke-dasharray:none;stroke-opacity:1"
       d="m 57.195679,149.16237 9.998347,7.31807 5.503887,-4.59315 4.432046,5.84843 6.511221,-4.93566 6.30899,14.10107 5.283898,-14.83336 8.581972,7.64931 7.08263,-9.62171 7.8168,10.06133 7.18641,-7.85174 c 0,0 6.21503,15.62933 6.73295,14.73227 0.51792,-0.89707 6.92543,-14.64269 6.92543,-14.64269 0,0 6.3142,8.03823 7.94402,7.60151 1.62983,-0.43672 4.49224,-7.88657 4.49224,-7.88657 l 5.21364,4.71688 10.79754,-7.15257 -15.15725,31.35395 -5.22203,-3.50693 -1.4757,5.96176 -6.80154,-3.54489 -4.09862,6.67614 -8.00828,-4.99353 -5.28577,6.41477 -9.94148,-6.07862 -9.47921,6.70993 -6.309019,-7.57707 -6.211761,4.31399 -3.508644,-6.22997 -5.298276,3.84068 -4.33723,-6.10097 -4.6799,3.43654 c 0,0 -16.058439,-26.56891 -14.997311,-31.1872 z"
       id="path4556-9"
       inkscape:connector-curvature="0"
       sodipodi:nodetypes="ccccccccccccccccccccccccccccccccc" />
  </g>
</svg>
